<svg width="240" height="275" viewBox="0 0 240 275" fill="none" xmlns="http://www.w3.org/2000/svg">
<g clip-path="url(#clip0_81_20996)">
<rect width="240" height="275" fill="#E7ECED"/>
<path fill-rule="evenodd" clip-rule="evenodd" d="M245.914 194.94C248.078 193.81 250.191 192.583 252.271 191.305C253.735 190.428 252.439 188.22 250.937 189.018C250.169 189.426 249.404 189.838 248.636 190.244C249.24 189.723 249.8 189.156 250.302 188.539L250.268 188.504C252.204 186.769 249.717 183.495 247.515 184.92C245.573 186.328 243.614 187.765 241.385 188.692C236.768 190.65 231.676 190.974 226.721 191.031C224.908 190.895 223.176 191.209 221.416 191.559C222.106 188.791 223.832 186.7 224.748 184.019C225.424 181.312 221.518 179.468 220.134 182.07C219.794 182.709 219.47 183.356 219.153 184.005C216.161 186.728 211.165 186.488 208.148 189.411C206.429 190.937 205.588 193.008 205.256 195.086C205.03 196.497 205.381 197.912 204.528 199.162C200.404 204.997 193.888 214.22 190.579 220.641C188.236 205.382 181.98 186.509 175.517 172.556C173.38 168.094 170.935 163.734 167.725 159.951C168.089 158.69 166.805 156.451 165.989 157.14C163.475 154.069 159.032 153.273 155.46 151.746C150.637 149.683 146.636 145.395 144.669 140.522C142.142 131.241 135.921 130.062 127.293 130.472C119.035 130.462 112.926 133.995 111.125 142.404C107.464 148.786 98.8222 147.73 92.6048 149.42C88.0482 150.461 83.6262 152.071 79.4237 154.115C74.7485 149.679 58.0045 168.298 56.4825 173.089C57.3785 173.263 58.269 173.472 59.1515 173.727C59.9374 173.954 59.6074 175.142 58.8147 174.952C57.8283 174.715 56.8356 174.552 55.8382 174.439C55.8077 174.534 55.7811 174.629 55.7613 174.723C55.6493 174.715 55.5375 174.705 55.4256 174.698C55.6738 174.827 55.9127 174.977 56.1456 175.171C56.7084 175.638 55.9757 176.54 55.3776 176.168C54.8141 175.746 54.0762 175.813 53.4003 175.671C53.3602 177.061 48.4011 175.506 47.6308 175.045C44.2072 174.617 40.6852 175.077 37.4891 173.425C33.2365 172.529 28.952 171.538 24.7472 170.397C23.634 170.831 22.5878 172.385 23.472 173.525C23.9693 174.044 23.33 174.891 22.7038 174.522C20.6036 173.285 18.9794 171.355 17.6023 169.275C16.9541 168.621 15.8036 168.762 14.9327 168.49C14.8163 168.699 14.7477 168.933 14.7487 169.172C11.0547 169.78 13.6899 173.816 15.5469 175.074C14.5618 175.716 14.5244 176.972 14.6106 178.022C14.4018 178.395 14.3321 178.859 14.5138 179.277C15.2084 180.879 16.7108 182.227 17.8531 183.525C19.1144 184.958 20.2389 186.398 21.7736 187.56C27.6232 192.021 34.6822 194.514 41.9241 195.49C44.4954 195.885 48.1941 196.49 49.7862 198.665C49.3956 201.246 48.6783 203.722 48.0276 206.239C47.1177 209.581 47.1796 213.079 47.1675 216.485C47.0403 216.383 46.7961 216.404 46.7598 216.599C46.5481 218.011 46.3907 219.455 45.5327 220.641C44.7806 222.848 44.2801 225.201 43.9989 227.519C42.8725 238.508 42.6035 249.822 45.1434 260.64C46.1234 264.653 47.7175 268.467 49.8893 271.979C50.5368 273.027 51.5779 273.334 52.5128 273.128C55.6417 274.754 59.5833 275.275 62.9558 274.862C74.4532 271.606 70.4471 279.447 86.5675 277.046C114.393 273.5 142.513 280.468 170.28 276.377C170.964 281.661 179.916 280.145 183.025 277.911C192.35 270.977 196.979 249.023 201.659 237.886C204.875 229.107 210.261 213.56 217.315 207.669C219.43 206.014 221.986 205.143 224.544 204.44C234.091 201.979 243.675 199.652 253.24 197.259C254.862 196.859 254.57 194.092 252.836 194.269C250.534 194.505 248.224 194.718 245.914 194.94Z" fill="white"/>
<path fill-rule="evenodd" clip-rule="evenodd" d="M33.3901 193.294C32.7436 193.214 32.1098 192.984 31.4802 192.802C30.5189 192.521 29.5767 192.193 28.6492 191.819C26.7351 191.052 24.8781 190.145 23.1372 189.036C20.3253 187.241 17.8408 184.942 15.9668 182.173L15.8382 181.98C14.7683 180.35 12.7949 176.73 15.0077 175.492C13.5815 174.3 12.2337 172.159 12.3097 170.506C12.4175 168.169 15.2822 168.201 16.7632 169.192C17.733 169.841 18.4597 170.75 19.1886 171.644C19.9956 172.637 20.8576 173.584 21.7534 174.495C21.9911 174.736 22.2311 174.972 22.4753 175.204L22.721 175.435C22.683 175.344 22.6492 175.251 22.6196 175.156C22.1252 173.616 22.7146 171.61 24.2548 170.904C25.1973 170.472 26.1761 170.736 27.0895 171.102L27.2294 171.16C28.459 171.669 29.7034 172.119 30.9837 172.481C36.202 173.954 41.6484 174.199 46.9956 174.934C49.0555 175.22 51.1534 175.579 53.2027 176.107C53.9843 172.787 55.9005 169.604 57.9794 166.986C67.9343 154.459 84.3519 150.318 99.3709 147.639C100.74 147.395 101.875 149.209 102.671 148.78C104.182 147.968 105.51 146.818 106.677 145.569C109.163 142.904 110.927 139.77 113 136.8C114.025 135.334 116.382 136.646 115.432 138.221L114.966 138.99C113.048 142.142 110.925 145.391 108.175 147.835C106.713 149.133 105.09 150.158 103.235 150.798C101.83 151.282 99.859 151.69 98.321 151.221L98.1364 150.952C98.1975 151.042 98.259 151.131 98.321 151.221C102.335 157.039 107.372 161.964 112.679 166.611C118.036 171.3 123.814 175.498 129.628 179.603L130.112 179.945C139.584 173.034 147.584 164.02 153.198 153.721C152.021 153.579 150.857 152.825 149.851 152.263C148.641 151.582 147.502 150.771 146.615 149.688C144.682 147.332 144.933 144.295 144.584 141.435C144.563 141.258 144.798 141.213 144.906 141.302C145.953 142.173 146.321 143.599 146.758 144.832C147.24 146.186 147.785 147.303 148.89 148.256C149.919 149.143 151.174 149.796 152.393 150.377C153.022 150.676 156.142 151.442 156.498 152.077C161.889 150.811 167.141 152.998 171.137 156.688C174.996 160.254 177.829 164.889 180.331 169.465C182.999 174.347 185.186 179.436 187.07 184.667C188.98 189.976 190.444 195.401 191.249 200.99C191.929 205.701 192.345 210.486 192.615 215.25L192.648 215.845C196.636 209.583 200.724 203.386 204.897 197.244C203.948 194.71 204.998 192.123 206.775 190.166C208.744 188 211.467 186.994 214.072 185.823L214.415 185.668C215.67 185.095 216.922 184.464 218.006 183.606C219.05 182.778 219.817 181.636 220.915 180.873C222.513 179.762 225.411 179.998 225.485 182.427C225.523 183.76 224.951 185.223 224.427 186.421C223.833 187.776 223.032 189.004 222.082 190.132C222.038 190.185 221.99 190.227 221.941 190.259L221.904 190.283C223.218 190.5 224.543 190.676 225.893 190.737C228.616 190.862 231.369 190.661 234.035 190.086C236.765 189.498 239.41 188.543 241.865 187.212C243.963 186.075 245.906 184.604 248.289 184.257C248.509 184.223 248.731 184.202 248.959 184.189C249.339 184.168 249.72 184.616 249.57 184.992C249.487 185.2 249.401 185.405 249.305 185.612C248.482 187.427 247.218 189.188 245.641 190.525L245.52 190.627C246.075 190.435 246.622 190.219 247.161 189.976C250.328 188.55 253.201 186.394 256.596 185.527C256.757 185.485 256.92 185.447 257.082 185.411C258.132 185.185 258.686 186.326 258.069 187.108C257.97 187.235 257.87 187.36 257.767 187.484C256.252 189.365 254.581 191.111 252.739 192.679C252.107 193.216 251.456 193.736 250.793 194.233C250.513 194.443 250.232 194.649 249.948 194.852L249.808 194.951C250.14 194.717 250.467 194.478 250.793 194.233C252.872 193.603 254.921 192.857 256.926 192.031C257.722 191.703 258.341 192.51 258.426 193.174C258.709 195.397 256.241 197.006 254.636 198.075C253.026 199.149 251.253 199.965 249.439 200.62C245.949 201.881 242.284 202.454 238.625 202.967L236.848 203.215C229.814 204.199 222.466 205.375 217.419 210.851C214.59 213.92 212.676 217.733 210.924 221.484C209.175 225.232 207.639 229.078 206.182 232.946C204.671 236.949 203.355 241.026 201.956 245.069C200.672 248.781 199.137 252.446 197.618 256.074L197.378 256.646C194.152 264.357 190.298 271.619 184.928 278.056C184.043 279.119 182.613 277.611 183.43 276.558C189.048 269.313 192.956 260.764 196.182 252.236C197.651 248.355 198.88 244.382 200.291 240.48L201.131 238.163C202.252 235.073 203.383 231.987 204.563 228.922C206.057 225.043 207.698 221.211 209.577 217.504L209.776 217.114C211.615 213.538 213.799 210.013 216.806 207.307C222.218 202.433 229.42 201.264 236.383 200.338L238.574 200.049C241.517 199.658 244.47 199.226 247.332 198.438C248.984 197.986 250.598 197.407 252.115 196.608C252.72 196.291 253.309 195.943 253.879 195.562C252.253 196.04 250.603 196.431 248.923 196.737C248.101 196.887 247.288 196.999 246.477 197.078C244.387 197.284 242.315 197.276 240.175 197.164C239.993 197.153 239.934 196.868 240.128 196.832C241.618 196.567 243.111 196.236 244.597 195.876L245.042 195.767C245.051 195.52 245.148 195.258 245.351 195.008C246.09 194.108 247.495 193.647 248.469 193.011C249.489 192.345 250.478 191.627 251.42 190.857C252.282 190.154 253.11 189.41 253.907 188.632L254.146 188.397C254.066 188.476 253.987 188.554 253.907 188.632C251.756 189.625 249.718 190.9 247.472 191.686C245.687 192.314 243.815 192.736 241.926 192.886L241.809 192.896L241.691 192.903C239.72 193.045 237.736 192.988 235.795 193.415C235.577 193.463 235.51 193.172 235.704 193.089C237.401 192.383 239.165 192.111 240.948 191.781C240.986 191.642 241.083 191.517 241.252 191.437L241.708 191.219C243.067 190.566 244.333 189.907 245.463 188.847C246.46 187.911 247.29 186.817 247.913 185.603C245.418 186.151 243.227 188.042 240.958 189.105C238.486 190.266 235.871 191.098 233.184 191.572L232.877 191.624C227.856 192.462 221.816 192.356 217.317 189.744C217.174 189.659 217.277 189.467 217.425 189.49C218.701 189.699 219.965 189.947 221.228 190.166C220.981 189.94 220.871 189.534 221.156 189.209C222.291 187.908 223.188 186.421 223.762 184.794L223.872 184.476C224.136 183.721 224.582 182.549 224.127 181.869C223.691 181.22 222.667 181.309 222.054 181.583C220.78 182.158 219.933 183.594 218.86 184.46C217.689 185.407 216.358 186.108 214.996 186.736L214.708 186.867C212.351 187.928 209.833 188.82 207.979 190.693C206.982 191.699 206.124 192.956 205.837 194.366C205.706 195.013 205.706 195.678 205.879 196.319C206.017 196.82 206.304 197.128 206.139 197.638C205.924 198.295 205.161 199.081 204.768 199.667C204.312 200.343 203.858 201.021 203.403 201.7C202.497 203.057 201.595 204.418 200.693 205.777C198.889 208.499 197.103 211.234 195.333 213.977C194.757 214.87 194.183 215.765 193.61 216.66L192.753 218.003L192.301 218.712L191.528 219.926C191.556 220.039 191.553 220.157 191.517 220.26C191.386 220.636 191.139 220.892 190.833 221.078L190.778 221.11C186.27 228.239 181.833 235.414 177.352 242.56C177.113 244.741 176.889 246.924 176.695 249.108C176.253 254.049 175.951 259.003 175.854 263.963C175.808 266.365 176 268.78 176.103 271.179C176.154 272.324 176.223 273.467 176.314 274.611L176.381 275.421C176.47 276.534 176.521 277.64 176.12 278.701C175.765 279.633 174.684 279.842 174.043 279.132C165.692 278.796 157.334 278.54 148.977 278.382C134.017 278.094 119.051 278.139 104.089 278.428C96.5738 278.574 89.0569 278.779 81.5442 279.033C77.8428 279.155 74.1393 279.329 70.4358 279.379C68.4404 279.407 65.3 278.68 65.139 276.434L65.1351 276.365C64.8858 276.433 64.628 276.488 64.3639 276.528C64.2464 276.546 64.1334 276.541 64.0291 276.517L63.9773 276.503C61.0029 277.41 57.2405 276.116 54.4142 275.362L54.1809 275.3C51.483 274.596 49.3154 273.59 47.5471 271.354C44.452 267.438 43.3957 262.18 42.8464 257.333C42.3309 252.772 42.3013 248.127 42.9288 243.575C42.559 239.865 42.9203 236.038 43.3407 232.35C43.5478 230.526 43.7907 228.704 44.0823 226.89C44.2449 225.878 44.4583 224.876 44.6759 223.877C44.7628 223.477 44.8351 223.047 44.9453 222.631L44.9949 222.454C44.6569 222.499 44.2872 222.425 43.9301 222.228C43.0808 221.761 42.8337 220.816 42.8189 219.912C42.7724 217.185 43.0977 214.381 43.3851 211.671C43.6745 208.966 44.0717 206.25 44.5914 203.579L44.7259 202.89C45.1197 200.891 45.5703 198.828 46.3639 196.951C43.383 196.444 40.4105 195.905 37.5182 194.987C36.107 194.537 34.7168 193.977 33.3901 193.294ZM188.98 221.668C188.934 221.679 188.889 221.691 188.845 221.704C187.653 222.038 186.449 222.321 185.249 222.626C183.175 223.148 181.146 223.731 179.217 224.638C178.813 229.74 178.214 234.825 177.645 239.913L177.532 240.931C178.406 239.307 179.302 237.697 180.238 236.106C183.088 231.255 186.003 226.443 188.98 221.668ZM45.7216 222.173C45.7279 222.78 45.6012 223.41 45.5336 223.993C45.4237 224.94 45.335 225.891 45.223 226.838C44.9948 228.74 44.8005 230.644 44.6589 232.555C44.5681 233.774 44.5089 234.998 44.4561 236.222C45.654 231.743 47.2406 227.362 48.7491 222.974C48.4969 222.948 48.2392 222.886 47.9733 222.815L47.5257 222.695C47.2618 222.627 46.4056 222.416 45.7216 222.173ZM192.753 218.003L192.762 218.204C192.794 218.916 192.367 219.318 191.849 219.421C192.149 218.948 192.451 218.475 192.753 218.003ZM55.6827 184.246C56.9439 184.358 58.1799 184.627 59.3587 185.092L59.4725 185.136C60.3444 185.473 61.6193 185.896 61.9045 186.827C61.9848 187.091 61.7693 187.309 61.5221 187.33C60.5756 187.406 59.4601 186.391 58.5834 186.049C57.6073 185.669 56.5848 185.385 55.5496 185.235C53.2235 184.895 50.7982 185.153 48.6094 186.001C48.4806 186.051 48.4003 185.846 48.5165 185.785C50.7221 184.584 53.1749 184.025 55.6827 184.246ZM28.9557 190.291C28.8098 190.162 28.6641 190.027 28.5204 189.892C27.3877 188.82 26.3847 187.569 25.642 186.194L25.4465 185.822C24.8416 184.65 24.0988 182.981 25.5204 182.137C26.3697 181.632 27.3922 181.759 28.3387 182.065C28.4 182.084 28.4612 182.106 28.5225 182.126C28.945 182.275 29.3528 182.452 29.7162 182.621C31.2943 183.346 32.6866 184.401 34.1443 185.331C35.7238 186.339 37.2835 186.984 39.1065 187.361L39.2781 187.395C40.9894 187.734 42.8443 187.951 44.038 189.359C44.338 189.714 44.0633 190.38 43.5457 190.204C40.2457 189.091 36.7535 188.845 33.7239 187.017C32.469 186.261 31.2817 185.392 29.9993 184.675C29.319 184.295 28.6166 183.962 27.8681 183.734L27.4592 183.613C27.2197 183.543 26.9338 183.474 26.7415 183.543C26.3755 183.67 26.4923 183.865 26.6056 184.207L26.6169 184.242C27.5063 186.994 30.0415 189.298 32.3908 190.821C32.9295 191.172 33.481 191.494 34.0429 191.792C37.8469 193.82 42.1033 194.764 46.2837 195.885C46.2837 195.885 48.7007 196.56 49.5014 196.813C50.393 196.739 51.4092 197.054 52.081 197.43C52.7338 197.796 53.2599 198.286 53.6571 198.863C53.6571 198.863 54.0395 199.183 54.1092 199.677C54.3099 200.136 54.4451 200.63 54.5127 201.146C54.5507 201.448 54.4747 201.681 54.331 201.845C54.7631 208.48 52.9717 215.078 50.952 221.383L50.7519 222.005L50.6233 222.399C48.4451 229.084 45.9458 235.721 44.8303 242.691C44.0845 247.347 44.1078 252.166 44.655 256.843L44.6935 257.166C45.2327 261.588 46.27 266.549 49.081 270.108C50.5148 271.924 52.2135 272.731 54.3853 273.316L54.5043 273.348C56.469 273.865 58.4972 274.599 60.5233 274.821C62.4036 275.025 63.9796 274.326 65.6719 273.671L65.6739 273.669C69.238 270.513 70.8563 265.919 72.0521 261.281C75.1514 249.281 74.7669 236.824 73.0092 224.648C72.0923 218.287 70.8458 211.98 69.6035 205.675C68.9824 202.524 68.3127 199.379 67.7571 196.217L67.4271 194.356C67.245 193.323 67.0689 192.288 66.9183 191.248C66.7155 189.851 66.6542 188.478 66.5845 187.072C64.8775 184.242 62.3993 181.911 59.5282 180.239C57.4725 179.041 55.2965 178.21 53.0507 177.608C46.6303 175.877 39.631 176 33.1704 174.668C31.0001 174.221 28.9399 173.558 26.8808 172.763L26.6 172.654C25.6556 172.286 24.6922 172.081 24.2232 173.195C23.8894 173.987 24.088 174.812 24.5887 175.478C25.8162 177.109 28.2838 177.866 30.1408 178.453C31.2584 178.808 32.3993 179.089 33.5528 179.299C34.7063 179.508 35.8641 179.561 36.9711 179.969C37.3979 180.125 37.4824 180.804 36.9711 180.924C35.5683 181.252 34.157 180.97 32.7627 180.698C31.231 180.395 29.7225 179.967 28.2563 179.423C27.9859 179.324 27.706 179.218 27.421 179.107L27.2063 179.022C27.4282 179.183 27.65 179.341 27.8739 179.5C27.9331 179.542 27.8972 179.654 27.819 179.626C24.3715 178.34 21.2347 176.018 18.8047 173.271L18.6838 173.134C17.8282 172.153 15.8782 169.186 14.2345 170.012C12.6911 170.787 15.3221 173.775 16.3219 174.996L16.4381 175.139C17.5747 175.169 18.6754 175.877 19.5965 176.447C21.1958 177.439 22.8669 178.293 24.5697 179.091C27.9543 180.683 31.5479 181.805 34.8965 183.477C34.9409 183.5 34.9071 183.557 34.8648 183.551C32.7331 183.211 30.6247 182.668 28.5648 181.994L28.4729 181.965L28.381 181.934C27.0944 181.511 25.8247 181.034 24.5761 180.524C23.1881 179.958 21.8317 179.322 20.5155 178.601C19.324 177.95 18.0014 176.777 16.6197 176.604C16.4719 176.585 16.3409 176.583 16.2268 176.594C14.6402 176.727 15.9522 179.356 16.3958 180.142C17.1205 181.433 17.9951 182.625 18.9986 183.714C21.0332 185.925 23.4986 187.677 26.167 189.04C27.0775 189.505 28.0092 189.915 28.9557 190.291Z" fill="black"/>
<path fill-rule="evenodd" clip-rule="evenodd" d="M160.652 70.1279C159.156 64.7393 159.37 64.1565 157.142 59.0095C149.751 44.0565 100.366 49.0631 95.3256 63.9895C92.5912 72.0872 93.2336 83.4915 92.5218 90.5132C92.304 94.236 92.0901 97.9591 91.8684 101.682C91.7919 102.967 91.7144 104.253 91.6356 105.538C91.482 108.041 91.3326 110.543 91.1932 113.046C90.2647 120.758 94.1385 121.542 100.783 121.314C102.54 125.554 105.385 129.093 108.899 131.972C108.051 134.281 111.127 135.476 112.786 136.399C121.815 141.442 132.904 144.518 142.904 141.682C145.842 140.849 157.976 137.963 161.707 129.03C163.539 124.644 167.264 101.927 162.352 81.4915L160.652 70.1279Z" fill="white"/>
<path fill-rule="evenodd" clip-rule="evenodd" d="M129.085 34.9797C130.482 34.7327 132.043 34.8278 132.844 36.1994C133.017 36.4951 133.127 36.7933 133.18 37.0871C136.995 36.229 140.956 36.136 144.854 36.6982C146.016 36.865 146.424 38.4142 145.913 39.3C145.86 39.3908 145.807 39.4794 145.75 39.5663C146.971 39.6654 148.19 39.8767 149.399 40.2024C150.258 40.4349 151.061 41.5487 150.679 42.4618C150.645 42.5421 150.609 42.6224 150.573 42.7025C152.473 43.0218 154.287 43.7679 155.874 44.9726C156.064 45.1142 156.239 45.2981 156.385 45.5073C159.932 45.1077 163.585 45.8412 166.752 47.5532C167.639 48.0327 168.068 49.4152 167.466 50.2775C167.278 50.5459 167.082 50.8016 166.87 51.0489C168.248 51.5583 169.467 52.3823 170.289 53.7246C171.182 55.1808 171.457 57.0555 170.977 58.6575C171.979 59.6784 172.503 61.2421 172.146 62.8104C171.82 64.2414 170.944 65.15 169.82 65.6955C170.048 66.393 169.864 67.1855 169.346 67.7242C168.552 68.5506 167.601 69.1847 166.566 69.6012C166.564 69.8697 166.496 70.1465 166.361 70.4044C165.427 72.1964 163.414 73.3865 161.367 73.5662C162.056 76.4594 162.622 79.3889 163.171 82.3013C164.147 87.4815 164.904 92.7124 165.364 97.9642L165.42 98.6137C166.17 107.501 166.345 116.811 164.538 125.577C163.387 131.159 159.896 135.864 155.24 139.051C150.506 142.293 144.721 143.906 139.03 144.161C136.127 144.29 133.197 144.045 130.353 143.449C129.003 143.166 127.699 142.764 126.417 142.253C125.037 141.701 123.901 140.888 122.735 139.972C122.128 139.497 122.475 138.375 123.193 138.233C123.706 138.129 124.213 138.017 124.725 137.924C125.194 137.838 125.705 138.307 125.608 138.74L126.597 138.995C126.927 139.08 127.256 139.166 127.585 139.254L128.077 139.389C129.478 139.78 130.911 140.11 132.347 140.344C135.271 140.82 138.313 140.831 141.252 140.461C146.194 139.841 151.241 138.079 155.084 134.83C156.968 133.237 158.538 131.349 159.677 129.158C161.124 126.374 161.561 123.273 161.925 120.194C162.975 111.29 162.651 102.373 161.836 93.4669C161.43 89.037 160.877 84.6156 160.289 80.2047C159.987 77.9432 159.662 75.6776 159.394 73.4077C158.796 73.247 158.225 72.9807 157.714 72.594C157.368 72.3319 157.165 72.0273 157.076 71.7169C156.56 71.6194 156.065 71.3361 155.708 70.8569L155.663 70.7933C154.727 69.4383 153.109 68.6629 151.611 68.0985C150.702 67.7562 149.777 67.4579 148.856 67.1538C147.896 66.8347 146.882 66.3634 145.875 66.2408C144.732 66.1055 143.58 66.45 142.427 66.3274C141.379 66.2133 140.456 65.8369 139.702 65.0847C139.438 64.8226 139.209 64.5204 139.027 64.1949C135.51 64.9471 131.815 63.9983 128.16 64.2266C125.756 64.3788 123.635 65.8667 121.205 65.8265C120.542 65.816 119.899 65.5835 119.432 65.1756C117.14 65.6131 114.81 66.454 112.655 67.1768C110.525 67.8914 108.476 68.8531 106.372 69.6329C106.37 69.6351 106.37 69.6351 106.37 69.6372C106.095 70.527 105.275 70.9114 104.403 70.7552C101.549 70.2459 99.1444 68.4449 96.3662 67.7857C95.6014 70.5735 94.7796 73.325 94.2178 76.1679C93.6493 79.0359 93.25 81.942 92.9859 84.8544C92.7197 87.7774 92.593 90.7299 92.5866 93.6635C92.5845 95.1598 92.6226 96.6602 92.6733 98.1566C92.7143 99.4102 92.9531 100.995 92.5004 102.201L92.4599 102.303H92.4578C92.4028 102.479 92.1557 102.585 92.0162 102.422C91.1648 101.432 90.962 99.8582 90.7254 98.6152C90.438 97.1064 90.2542 95.5825 90.1066 94.0543C89.8106 90.9876 89.7451 87.9338 89.9014 84.8544C90.2078 78.7929 91.1796 72.3909 93.2542 66.6614C92.6162 66.7203 92.331 65.78 92.2888 65.2495C92.2079 64.1834 92.3749 63.0521 92.5558 61.9829L92.7449 60.876C92.9243 59.8311 93.1141 58.8136 93.4697 57.7973C94.3235 55.3581 95.5507 53.0673 97.0803 50.9855C100.201 46.7395 104.526 43.5246 109.45 41.6713C109.758 41.5551 110.05 41.5572 110.308 41.6457C114.789 39.2302 119.606 37.3703 124.499 36.0473C126.011 35.6394 127.543 35.2547 129.085 34.9797ZM91.8723 103.125C93.9068 101.849 98.1047 101.515 99.2392 104.235C99.2857 104.345 99.1547 104.442 99.0576 104.417L98.7799 104.347C97.7135 104.082 96.792 103.93 95.6984 104.368C94.7371 104.753 93.8033 105.355 93.1674 106.184C91.6642 108.143 91.5012 110.804 91.6414 113.181L91.6484 113.296C91.7794 115.382 92.3139 117.922 94.3526 118.953C95.3857 119.476 96.5033 119.437 97.6252 119.429C98.9033 119.421 100.209 119.56 101.43 119.953C102.112 120.173 102.434 121.078 101.867 121.608C101.679 121.784 101.483 121.948 101.276 122.096C101.895 122.756 102.503 123.424 103.093 124.128C104.092 125.321 105.155 126.475 106.264 127.568C107.337 128.623 108.474 129.644 109.699 130.519C110.988 131.436 112.53 132.08 113.646 133.205C114.372 133.936 114.248 134.957 113.646 135.697C112.151 137.535 109.607 135.602 108.177 134.515L108.005 134.384C106.52 133.26 105.108 132.047 103.906 130.618C102.681 129.16 101.62 127.608 100.836 125.869C100.376 124.846 100.082 123.88 99.9237 122.87C97.3547 123.986 94.116 123.631 91.8132 122.06C88.7561 119.976 87.8984 116.151 87.8877 112.659L87.888 112.452C87.9106 109.059 88.8019 105.052 91.8723 103.125ZM97.6685 108.045L97.7627 108.046C98.8942 108.07 99.9032 108.478 100.864 109.04L100.963 109.098C101.897 109.654 103.237 110.1 103.731 111.14C104.027 111.768 104.006 112.486 103.49 113.006C102.556 113.949 101.147 113.792 100.137 113.057C99.3832 112.505 98.8867 111.679 98.1472 111.121C96.7571 110.068 94.5642 110.128 93.1172 111.039C93.0282 111.096 92.9418 110.988 92.9818 110.903C93.8704 109.084 95.6316 108.038 97.6685 108.045V108.045Z" fill="black"/>
<path fill-rule="evenodd" clip-rule="evenodd" d="M150.685 125.112L150.831 125.078C151.998 124.803 153.121 124.428 154.209 125.152C155.244 125.841 155.388 127.116 154.581 128.046C153.752 129.002 152.65 128.949 151.487 128.962L151.414 128.963C150.448 128.976 149.467 128.962 148.505 128.876C147.608 128.796 146.705 128.668 145.819 128.501L145.295 128.398C144.759 128.29 144.232 128.149 143.956 127.63C143.474 126.726 147.052 126.017 147.486 125.893C148.541 125.592 149.615 125.354 150.685 125.112ZM152.669 114.213C152.099 114.804 151.346 115.208 150.5 115.46C148.376 116.092 145.664 115.755 143.928 115.111C143.568 114.977 143.232 114.705 143.039 114.365C142.862 114.053 142.802 113.688 142.937 113.315C142.975 113.209 143.021 113.104 143.068 113.002C143.196 112.723 143.455 112.506 143.76 112.382C144.076 112.253 144.436 112.227 144.725 112.318C144.764 112.33 144.803 112.343 144.844 112.356C145.944 112.702 147.747 113.277 149.242 113.165C150.138 113.099 150.927 112.782 151.335 111.961C151.55 111.528 151.49 111.1 151.3 110.708C151.012 110.117 150.436 109.603 149.951 109.249C149.267 108.749 148.538 108.55 147.784 108.339C147.499 108.26 147.212 108.179 146.921 108.083C146.825 108.051 146.741 107.989 146.678 107.909C146.616 107.829 146.576 107.731 146.563 107.634C146.55 107.532 146.566 107.431 146.613 107.344C146.656 107.264 146.726 107.193 146.83 107.146C148.306 106.485 150.215 106.922 151.655 107.963C152.376 108.483 152.976 109.151 153.346 109.898C153.69 110.59 153.836 111.351 153.701 112.126C153.551 112.994 153.183 113.679 152.669 114.213ZM128.48 99.452C128.894 99.2691 129.235 100.125 129.321 100.358L129.497 100.842C129.785 101.623 130.116 102.416 130.721 102.996C131.228 103.481 132.04 103.892 132.628 103.324C133.186 102.786 132.914 102.18 132.996 101.519C133.144 100.325 134.773 99.1307 135.752 100.377C137.963 103.194 134.541 107.11 131.39 106.423C129.787 106.074 128.497 104.788 127.966 103.259L127.939 103.178C127.622 102.21 127.301 99.9721 128.48 99.452ZM157.018 101.413L157.003 101.378C155.949 98.9808 159.707 97.9507 160.026 100.103L160.046 100.248C160.356 102.637 159.703 105.85 156.778 106.088C153.494 106.356 152.127 102.691 152.42 100.001C152.473 99.52 153.057 99.4534 153.237 99.8909L153.275 99.9864C153.806 101.338 154.309 103.937 156.177 103.935C157.425 103.933 157.365 102.247 157.018 101.413V101.413ZM159.401 94.4748C161.288 94.4078 161.285 97.3629 159.401 97.4072C153.104 97.5554 146.803 97.7524 140.505 97.7862L139.36 97.7932C133.445 97.8329 127.508 97.9137 121.61 97.417C121.106 97.3747 121.2 96.6675 121.621 96.696C127.805 95.8156 134.064 95.5581 140.295 95.2236C146.658 94.8818 153.033 94.7009 159.401 94.4748Z" fill="black"/>
<path fill-rule="evenodd" clip-rule="evenodd" d="M159.38 76.3793C160.601 75.9606 161.575 77.231 161.34 78.3383C161.064 79.6423 159.703 80.6889 158.801 81.6081C157.854 82.5761 156.889 83.525 155.887 84.4381C153.975 86.184 151.994 87.8281 149.904 89.3604L149.265 89.8287C147.35 91.2306 145.44 92.6 143.389 93.8136C142.278 94.4687 141.156 95.1028 140.019 95.7136C139.614 95.9313 139.119 96.2671 138.61 96.5167C140.471 97.9539 141.904 100.148 142.214 102.191C142.983 107.268 139.713 111.973 135.099 113.843C132.798 114.775 130.237 115.046 127.778 114.765C125.277 114.479 122.742 113.739 121.117 111.69C119.674 109.87 119.154 107.547 119.051 105.267C119.002 104.185 119.013 103.119 119.241 102.162C118.246 102.17 117.251 102.166 116.264 102.177C113.826 102.2 111.384 102.211 108.944 102.143C106.428 102.071 103.924 101.959 101.416 101.735C100.316 101.636 99.2213 101.473 98.1267 101.316C97.0642 101.166 95.8917 101.109 94.8987 100.674C94.8311 100.647 94.8591 100.549 94.9177 100.53C95.9762 100.188 97.1783 100.249 98.2811 100.182L99.356 100.116C100.251 100.063 101.146 100.014 102.044 99.9848C104.118 99.9165 106.19 99.8998 108.264 99.8642L109.153 99.8476C111.593 99.799 114.033 99.7715 116.473 99.6933C117.485 99.6616 118.499 99.6024 119.516 99.5475C119.634 99.2789 119.807 99.0337 119.974 98.7951C120.473 98.0807 121.106 97.4509 121.764 96.8802C123.109 95.7049 124.624 94.8323 126.314 94.2468C127.989 93.6686 130.439 93.3818 132.211 93.4191C133.983 93.4565 136.508 93.7065 137.319 95.1556C137.404 95.3057 138.948 95.0161 139.406 94.6651C140.478 93.8474 141.53 93.0062 142.563 92.1439C144.481 90.5397 146.454 88.9609 148.271 87.2448C150.145 85.4737 152.004 83.673 153.787 81.8131C154.683 80.881 155.577 79.9469 156.445 78.9916C157.333 78.0172 158.095 76.8168 159.38 76.3793Z" fill="black"/>
</g>
<defs>
<clipPath id="clip0_81_20996">
<rect width="240" height="275" fill="white"/>
</clipPath>
</defs>
</svg>
