<svg width="240" height="275" viewBox="0 0 240 275" fill="none" xmlns="http://www.w3.org/2000/svg">
<g clip-path="url(#clip0_81_21050)">
<rect width="240" height="275" fill="#E7ECED"/>
<path fill-rule="evenodd" clip-rule="evenodd" d="M140.039 286.762C122.894 286.81 112.626 286.609 93.2328 286.329C70.7876 285.735 64.7385 286.803 52.1643 284.333C50.2418 283.924 48.7792 283.305 47.2956 282.443C46.7639 283.044 45.8624 283.938 45.0064 283.346C43.4294 282.303 44.1524 278.661 43.7614 276.605C43.114 258.496 42.0786 239.846 45.6182 221.956C43.4723 221.258 30.8985 216.083 30.2119 214.35C41.5825 184.606 66.5261 149.8 99.3442 151.111C100.004 151.925 100.591 153.13 101.324 153.959C105.786 152.288 111.979 150.612 112.285 144.177C113.058 139.882 113.614 135.872 113.986 131.925C114.054 131.474 114.595 131.318 114.928 131.126C115.069 130.105 115.394 129.062 116.098 128.362C121.849 127.845 134.979 130.218 138.424 131.196C143.124 132.001 142.635 137.047 143.511 140.872C144.899 145.601 145.865 150.509 147.928 155.129C148.395 155.194 149.702 155.421 150.184 155.506C150.209 154.982 149.963 153.428 150.443 153.111C151.332 152.217 151.538 153.918 151.735 154.472C171.157 150.803 183.858 167.291 188.114 185.708C191.196 194.97 195.281 204.343 200.613 214.396C203.956 220.638 194.35 221.797 190.323 224.288C194.479 240.462 194.979 256.933 195.661 273.235C195.841 275.742 196.086 279.152 195.198 280.4C194.776 280.727 194.483 280.718 194.056 280.742C193.232 281.632 191.818 281.573 190.628 281.827C186.866 282.511 183.011 282.969 179.388 283.038C169.221 289.333 153.547 285.813 140.039 286.762" fill="white"/>
<path fill-rule="evenodd" clip-rule="evenodd" d="M112.572 131.913C113.106 129.238 117.519 129.858 117.318 132.555C115.09 142.594 116.447 154.815 102.366 153.827C111.304 169.555 138.905 179.121 147.827 158.472C143.431 157.947 142.561 147.551 142.03 143.913L142.008 143.588C141.89 141.717 141.93 139.983 143.054 138.383C144.176 139.224 144.627 140.745 145.007 142.133L145.285 143.244C146.215 146.947 147.188 150.634 148.663 154.168L148.716 154.176V154.176C148.642 151.779 151.718 150.683 152.481 153.251C173.294 150.384 184.68 167.566 189.172 185.537C192.449 195.374 196.72 204.837 201.572 213.985C205.234 221.133 196.342 222.769 191.638 225.147C195.256 239.646 195.966 254.667 196.636 269.538C196.414 272.711 197.848 279.221 195.933 281.497C193.096 283.718 191.568 279.912 192.004 277.471C192.412 260.216 190.615 243.037 190.1 225.809C186.548 227.31 182.954 228.693 179.319 229.978C179.504 246.144 181.426 262.31 182.111 278.394C183.01 279.103 183.507 280.332 182.739 281.402C178.627 287.139 171.193 287.996 164.652 288.078C149.085 288.274 133.502 288.214 117.934 288.167C102.642 287.821 87.2167 288.8 72.0054 287.047C69.0244 289.287 68.4147 284.458 68.814 282.399L68.9656 278.273C69.0676 275.523 69.1757 272.773 69.3147 270.025L69.6613 263.323C70.2416 252.155 70.8567 240.992 71.8324 229.846C62.9963 228.637 54.2872 226.492 45.8557 223.597C46.5498 242.948 45.126 262.505 47.5 281.757C49.0666 283.884 45.9248 285.88 44.0908 284.548C41.8163 282.813 42.7917 279.419 42.3375 276.921L42.2792 275.306C41.6426 257.892 40.7728 240.112 44.0175 222.937L42.6218 222.395C38.3674 220.733 27.4264 216.29 28.8612 214.098C40.2833 184.157 65.8343 148.346 99.6745 150.047C100.532 150.643 100.97 151.802 101.605 152.633L102.612 152.268C106.511 150.84 110.745 149.03 110.861 144.229C111.599 140.138 112.184 136.046 112.572 131.913ZM168.34 206.541C173.187 199.759 139.566 210.478 137.176 211.186L136.276 211.514C121.55 216.869 105.676 222.048 93.9338 232.722C93.6871 232.993 93.9942 233.366 94.3135 233.215L94.3544 233.191C94.8216 232.931 96.8441 232.208 95.4112 232.482C112.377 221.779 132.088 215.899 151.348 210.757C154.146 210.08 156.959 209.457 159.782 208.891C162.63 208.198 165.843 208.206 168.34 206.541ZM115.213 204.334C115.627 202.643 118.414 187.105 113.786 191.368C112.552 193.603 112.079 196.194 111.857 198.712C111.26 201.647 112.766 204.81 111.301 207.516C109.99 211.05 105.17 215.179 104.848 208.613C112.734 208.343 110.366 198.348 104.998 201.438C102.058 203.955 101.55 208.695 103.021 212.167C100.645 209.579 96.7913 209.571 94.0406 207.618C89.073 202.246 97.4166 196.656 101.96 194.721C102.216 194.44 105.94 193.141 105.151 192.984C101.584 193.017 98.0103 193.776 94.9323 195.653C88.5617 198.762 86.3935 208.388 93.681 211.762C95.2568 212.522 96.9814 212.93 98.5416 213.714C102.473 215.753 101.203 218.315 97.1441 218.39C95.4746 218.755 89.9654 217.226 90.5823 220.153C91.5789 221.983 93.749 222.256 95.6502 222.307C100.732 222.656 107.05 219.784 104.178 213.804C107.645 216.759 111.974 212.629 113.459 209.419C115.27 212.97 119.82 211.901 122.388 209.799C126.313 212.891 131.236 209.454 132.984 205.617C133.02 206.415 133.056 207.214 133.094 208.012C133.173 209.648 135.709 210.174 136.083 208.417C136.653 205.745 137.439 203.104 138.52 200.593C141.007 193.991 142.528 196.968 142.615 202.141C142.921 204.083 143.893 205.823 146.039 205.954C146.637 205.99 147.418 205.458 147.511 204.833L147.634 204.006C147.896 202.273 148.199 200.488 148.853 198.859C149.483 204.25 156.54 204.224 158.508 199.754C162.59 202.205 166.873 198.781 168.777 195.24L168.834 195.133C169.499 193.922 167.809 192.457 166.843 193.596L166.507 193.946C164.685 195.832 161.786 198.567 159.391 196.238C159.47 195.187 159.438 194.114 159.373 193.08C159.296 191.848 157.595 190.751 156.628 191.853C155.265 190.695 153.572 190.862 152.147 191.67C148.454 192.714 146.127 196.31 145.326 199.885C145.241 197.029 144.307 193.93 141.171 193.661C137.958 193.634 136.728 197.228 135.632 199.646C135.568 198.563 135.507 197.48 135.452 196.397C135.357 194.533 132.773 194.552 132.561 196.341L132.555 196.397C132.148 200.264 130.007 209.527 124.604 207.715C126.882 205.204 131.004 197.554 127.086 195.171C121.056 193.652 117.963 203.168 120.534 207.596L120.401 207.689C118.932 208.703 116.504 209.832 115.684 207.559L115.591 207.35C115.17 206.389 114.798 205.348 115.213 204.334ZM106.587 203.261C107.729 202.595 108.135 204.803 107.844 205.544C107.377 206.732 106.103 207.394 104.834 207.847L104.838 207.713C104.894 206.356 105.347 203.987 106.587 203.261ZM125.805 197.75C125.831 197.91 125.789 198.104 125.783 198.252C125.588 200.854 124.431 203.353 122.821 205.384C121.894 202.624 123.089 198.978 125.805 197.75ZM153.254 194.496C153.994 194.301 154.778 194.356 155.54 194.562C155.485 195.429 155.673 196.297 156.051 197.093C154.082 203.008 149.454 198.455 153.254 194.496Z" fill="black"/>
<path fill-rule="evenodd" clip-rule="evenodd" d="M151.143 69.052C137.248 57.754 114.981 54.0856 100.107 65.484C88.5496 76.181 83.7669 106.579 85.8122 121.853C86.3809 131.651 93.863 142.755 104.846 139.656C106.711 139.473 108.522 138.758 110.404 138.608C112.656 138.348 114.924 138.344 117.172 138.662C122.068 139.354 126.408 141.955 131.161 143.171C139.979 145.427 149.818 143.909 157.408 138.828C182.491 122.33 171.129 85.0195 151.143 69.052V69.052Z" fill="white"/>
<path fill-rule="evenodd" clip-rule="evenodd" d="M149.292 143.443C149.55 143.354 149.808 143.261 150.064 143.166C150.081 143.225 150.108 143.282 150.14 143.337C150.176 143.426 150.212 143.512 150.252 143.599C149.931 143.601 149.609 143.544 149.292 143.443M148.777 33.9587C148.663 33.7032 148.532 33.458 148.384 33.2211C148.743 33.3376 149.102 33.4982 149.428 33.7053C149.208 33.7793 148.992 33.8638 148.777 33.9587M93.8916 67.386C93.8768 67.3835 93.8623 67.3814 93.8477 67.3788C94.0361 66.8769 94.3718 66.403 94.7426 66.0608C94.8092 65.9993 94.8812 65.9425 94.9509 65.8837C94.5573 66.3527 94.2003 66.853 93.8916 67.386M194.318 119.875C194.132 118.112 193.895 116.356 193.589 114.61C193.295 112.938 193.048 111.15 192.197 109.667C191.352 108.189 190.504 106.754 189.499 105.454C189.642 104.791 189.833 104.167 189.997 103.664C190.948 100.769 191.884 97.0913 189.909 94.4009C189.45 93.7774 188.89 93.2997 188.25 92.8686C187.978 92.6847 187.526 92.5177 187.316 92.2641C187.168 92.0845 187.219 92.1817 187.213 92.0929C187.177 91.6153 188.297 90.6071 188.559 90.2288C189.049 89.529 189.414 88.7409 189.693 87.9357C190.796 84.7485 190.046 81.238 189.383 78.0442C189.032 76.3515 188.645 74.6544 188.518 72.9256C188.4 71.3024 188.622 69.7173 188.753 68.1025C188.88 66.5087 188.846 64.8647 188.163 63.3892C187.83 62.6706 187.325 62.0366 186.71 61.542C186.11 61.0582 185.362 60.7771 184.777 60.2953C184.194 59.8153 184.361 59.1667 184.513 58.503C184.722 57.6027 184.986 56.7086 185.011 55.7787C185.058 54.1576 184.397 52.5787 183.364 51.353C182.299 50.087 180.778 49.2309 179.134 49.0385C178.382 48.9498 177.642 49.1 176.894 49.0472C176.155 48.9965 175.995 48.6266 175.855 47.9503C175.534 46.4011 175.665 44.8709 174.902 43.4253C174.226 42.1403 173.024 41.2693 171.695 40.7559C169.259 39.8133 166.426 40.0077 163.857 40.5634C162.34 36.0999 157.606 33.1727 152.948 33.1367C152.221 31.9025 150.989 30.981 149.584 30.4397C147.26 29.5415 144.799 30.0658 142.378 30.0658H142.367C142.124 30.0508 141.881 30.0447 141.638 30.0468C141.41 30.0339 141.182 30.0149 140.954 29.9897C138.199 29.6641 135.473 28.5354 132.744 29.641C131.527 30.1335 130.559 30.8922 129.947 31.8602C129.024 32.1115 128.113 32.3991 127.219 32.7331C123.347 32.8343 119.51 34.9119 117.552 38.2789C114.795 37.9661 111.803 38.4966 109.98 40.7496C109.505 41.3359 109.137 42.0247 108.893 42.7559C107.034 43.3574 105.314 44.4292 104.188 46.0435C103.16 47.5166 102.963 49.4213 103.658 51.0026C101.998 52.2054 100.701 53.9273 100.077 55.9605C99.6969 57.1958 99.6405 58.4722 99.8847 59.6881C98.1855 60.0651 96.5602 60.764 95.1202 61.813C93.6111 62.9118 91.7264 64.6607 91.6271 66.6736C91.6197 66.8213 91.6254 66.9691 91.6372 67.1164C88.3151 66.8828 84.9276 67.4459 82.682 70.1104C80.9959 72.1095 80.263 74.684 80.713 77.0279C76.7602 77.831 73.0227 79.898 70.4156 82.9541C68.5208 85.1754 66.837 87.9991 66.9382 91.0233C66.9698 91.9344 67.1834 92.8517 67.5532 93.6992V93.7011C67.3947 93.9993 67.2318 94.3311 67.0755 94.6841C64.6269 96.3979 62.848 99.0844 61.8466 102.045C61.0377 104.444 60.5285 107.56 61.3924 110.001C61.5236 110.373 61.6905 110.723 61.8848 111.049C61.722 111.222 61.5679 111.396 61.4179 111.571C59.7677 113.5 58.0966 115.931 58.2109 118.588C58.2574 119.657 58.6544 120.733 59.3032 121.616C57.0213 123.931 55.1834 126.852 55.3649 130.113C55.5213 132.951 57.0785 135.834 59.5184 137.197C59.1109 139.385 59.656 141.693 61.3586 143.4C62.2081 144.254 63.2093 144.816 64.2701 145.116C64.5067 147.693 66.7924 149.766 69.2198 150.362C69.6722 150.474 70.1243 150.542 70.5741 150.573C72.7586 151.645 75.3635 151.522 77.5924 150.54C78.2494 151.375 79.1051 152.055 80.1022 152.543C80.5058 152.742 80.9327 152.907 81.3783 153.04C84.5262 153.972 87.7546 152.708 90.5072 151.233C90.5959 151.186 90.7586 151.127 90.9022 151.062C91.2825 151.487 91.9755 151.907 92.3367 152.114C93.5623 152.818 95.0602 153.145 96.4672 153.053C98.1172 152.943 99.5727 152.397 100.921 151.622C101.117 151.656 101.316 151.675 101.514 151.685C102.782 151.753 103.912 151.351 104.929 150.717C105.6 150.806 106.289 150.798 106.986 150.675C108.522 151.066 110.018 150.445 111.22 149.458C111.752 149.02 112.202 148.507 112.684 148.016C113.185 147.507 113.565 147.388 114.15 147.046C115.534 146.237 115.701 144.184 115.101 142.701C115.215 142.441 115.281 142.151 115.281 141.83C115.276 139.027 113.986 136.457 112.401 134.215C111.693 133.215 110.924 132.237 110.081 131.349C109.403 130.637 108.45 129.481 107.447 129.191C107.386 129.147 107.322 129.102 107.259 129.06C107.453 128.379 107.567 127.686 107.519 126.978C107.468 126.251 107.233 125.562 106.857 124.975C108.118 122.529 108.651 119.847 108.398 117.049C109.424 115.593 110.202 113.985 110.603 112.222C110.85 111.131 110.992 109.984 110.973 108.865C110.964 108.329 110.768 107.65 110.764 107.095C110.793 107.27 111.021 106.615 111.11 106.452C112.128 104.56 113.436 103.085 113.654 100.855C113.78 99.5512 113.472 98.1101 112.69 97.0406C113.191 95.0666 113.185 92.9466 112.397 91.0636C112.185 90.5606 111.943 90.0682 111.664 89.6011C111.792 89.208 111.911 88.8106 112.063 88.4532C112.122 88.3116 112.181 88.1681 112.24 88.0244C112.813 87.5191 113.345 86.9677 113.793 86.4264C114.786 85.2283 115.545 83.8545 115.64 82.2713C115.686 81.4787 115.5 80.7199 115.27 79.9677C115.168 79.6275 115.107 79.2492 114.987 78.9173C114.919 78.7332 114.756 78.5454 114.7 78.372C114.687 78.334 114.676 78.3023 114.668 78.2769C114.676 78.2516 114.683 78.1987 114.683 78.0992C114.685 77.3404 114.784 76.5986 114.788 75.8675C115.483 76.5692 116.32 77.0932 117.271 77.3998C119.187 78.0149 121.186 77.7359 122.882 76.7869C124.707 78.0381 126.759 79.1707 128.909 79.6254C130.187 79.8957 131.468 79.7839 132.75 79.9508C134.024 80.1178 135.256 80.6737 136.456 81.1069C139.126 82.0728 141.79 83.0638 144.469 84.0045C146.633 84.7633 148.973 85.3656 151.238 84.9387C151.874 85.9192 152.7 86.7479 153.759 87.3565C154.517 87.7898 155.349 88.0834 156.209 88.2294C156.97 88.3583 157.862 88.3076 158.478 88.8297C159.08 89.3369 159.456 90.0933 159.997 90.6642C160.6 91.3025 161.343 91.8562 162.123 92.2535C162.748 92.5727 163.386 92.8028 164.035 92.9531C163.978 94.3966 163.923 95.838 163.906 97.2837C163.874 100.424 163.887 103.565 163.845 106.706C163.802 109.836 163.703 112.966 163.538 116.092C163.382 119.025 163.162 121.969 162.463 124.831C160.143 134.327 151.454 141.126 141.727 141.473C138.839 141.576 135.98 141.171 133.219 140.321C130.359 139.44 127.804 137.626 124.872 137.068C124.105 136.924 123.383 137.696 123.822 138.438C124.578 139.712 125.497 140.49 126.754 141.257C128.071 142.058 129.537 142.652 130.984 143.172C133.646 144.127 136.462 144.681 139.287 144.835C141.442 144.954 143.605 144.806 145.716 144.4C145.864 144.854 146.126 145.296 146.324 145.717C146.354 145.778 146.453 145.736 146.434 145.672C146.402 145.567 146.381 145.474 146.373 145.398C147.083 146.323 148.179 146.963 149.305 147.274C150.099 147.494 150.943 147.562 151.76 147.469C152.024 147.439 152.275 147.395 152.525 147.34C153.357 148.069 154.422 148.555 155.491 148.798C155.307 149.914 155.859 151.132 157.137 151.449C157.673 151.582 158.189 151.584 158.705 151.535C159.121 151.73 159.569 151.882 160.044 151.985C160.663 152.121 161.402 151.947 161.869 151.499C162.125 151.679 162.363 151.804 162.6 152.089C163.574 153.264 165.674 152.328 165.767 150.969C166.075 150.969 166.386 150.973 166.697 150.984C166.771 151.017 166.844 151.051 166.921 151.087C168.279 151.719 169.686 152.271 171.188 151.774C171.465 151.683 171.718 151.567 171.949 151.432C173.007 151.527 174.051 151.529 175.124 151.182C175.758 150.977 176.354 150.652 176.85 150.225C178.506 150.711 180.254 150.931 181.902 150.328C183.135 149.878 184.128 149.168 184.828 148.232C185.897 148.27 186.983 148.012 187.961 147.503C189.634 146.636 190.806 144.989 191.624 143.339C193.424 139.697 194.489 135.785 194.907 131.751C195.319 127.777 194.732 123.825 194.318 119.875" fill="black"/>
<path fill-rule="evenodd" clip-rule="evenodd" d="M143.152 128.274C141.731 127.695 140.464 126.728 139.538 125.493C139.216 125.063 139.132 124.61 139.2 124.195C139.276 123.729 139.551 123.306 139.927 123.023C140.305 122.739 140.777 122.598 141.233 122.67C141.629 122.732 142.024 122.949 142.336 123.399L142.401 123.49C142.952 124.235 143.67 124.847 144.488 125.241C145.276 125.621 146.157 125.798 147.07 125.695C148.807 125.499 150.005 124.559 151.277 123.282C151.435 123.121 151.593 122.955 151.752 122.786C151.852 122.633 151.991 122.534 152.145 122.483C152.317 122.425 152.51 122.429 152.688 122.491C152.859 122.55 153.012 122.664 153.115 122.815C153.213 122.958 153.268 123.135 153.25 123.339C153.134 124.662 152.442 125.842 151.46 126.769C150.37 127.799 148.924 128.511 147.563 128.761C146.063 129.036 144.535 128.839 143.152 128.274V128.274ZM148.27 107.866C149.866 108.836 152.297 111.099 150.58 113.504C148.56 115.624 145.652 113.193 144.218 112.093C142.889 111.241 141.396 113.433 142.629 114.428C152.986 122.099 157.189 108.12 149.077 106.726C148.184 106.572 147.852 107.566 148.27 107.866ZM129.71 98.943C129.886 96.7542 133.219 96.2571 133.55 98.4231C133.847 100.363 133.497 102.146 132.624 103.892C131.789 105.561 129.691 104.783 129.532 103.263C129.32 101.226 129.6 100.305 129.71 98.943ZM155.076 97.974C155.541 97.3653 156.211 96.9498 157.015 97.1846C159.526 97.9186 158.786 101.485 157.904 103.221C157.425 104.163 155.876 104.402 155.176 103.572C154.035 102.219 153.489 99.5158 154.939 98.1826C154.979 98.1137 155.022 98.0442 155.076 97.974ZM132.589 89.3655L132.985 89.296C134.212 89.0837 135.738 88.8798 136.606 89.8666C137.066 90.3899 137.225 91.3625 136.606 91.8634C135.517 92.7448 134.314 92.4032 133.01 92.4778C131.935 92.5395 130.902 92.7175 129.866 93.0136C127.595 93.6631 125.744 94.8487 123.804 96.1507C123.549 96.3214 123.289 95.9957 123.411 95.7576C124.531 93.5631 126.701 91.7605 128.875 90.6617C130.035 90.0752 131.305 89.5887 132.589 89.3655ZM152.787 88.3825L153.091 88.4446C156.394 89.1354 160.686 90.5154 162.251 93.7616C162.311 94.2207 162.248 94.319 162.196 94.3833L162.179 94.4047C162.137 94.4596 162.103 94.5353 161.904 94.5977C161.849 94.5846 161.794 94.5706 161.737 94.5559C161.02 94.3679 160.453 94.1089 159.903 93.8401L159.308 93.5466C158.617 93.2077 157.92 92.8811 157.181 92.64C155.605 92.1256 153.983 91.7632 152.336 91.5697C151.979 91.5278 151.636 91.4073 151.365 91.2008C151.107 91.0047 150.911 90.7333 150.821 90.3726C150.705 89.9057 150.738 89.5522 150.989 89.131C151.177 88.8147 151.446 88.5954 151.756 88.4695C152.071 88.3412 152.43 88.3109 152.787 88.3825Z" fill="black"/>
</g>
<defs>
<clipPath id="clip0_81_21050">
<rect width="240" height="275" fill="white"/>
</clipPath>
</defs>
</svg>
