<svg width="240" height="275" viewBox="0 0 240 275" fill="none" xmlns="http://www.w3.org/2000/svg">
<g clip-path="url(#clip0_81_21074)">
<rect width="240" height="275" fill="#E7ECED"/>
<path fill-rule="evenodd" clip-rule="evenodd" d="M43.0084 273.246C42.7209 273.256 42.8115 273.172 42.9172 273.151C42.9476 273.183 42.978 273.215 43.0084 273.246ZM51.4983 279.56C59.5322 280.513 67.576 279.641 75.5704 278.767C91.7661 277.566 107.848 281.065 124.076 279.998C144.356 279.143 164.691 277.538 184.903 280.243C190.494 280.372 199.411 281.881 197.384 273.223C194.721 250.964 191.16 228.817 187.346 206.729C184.113 194.346 183.879 172.928 175.028 164.317C173.734 163.135 169.092 159.311 167.865 158.798C161.763 156.525 150.764 154.752 146.226 149.935C142.551 143.713 144.261 135.223 138.545 130.214C133.536 126.123 122.603 126.988 117.248 130.06C113.022 132.801 112.36 138.124 109.727 142.061C109.078 143.004 107.535 145.278 106.664 146.012C104.544 148.054 97.0965 150.2 94.9458 150.594C82.8091 153.082 76.7575 154.619 67.2118 162.687C42.2699 188.16 45.8055 233.214 38.904 266.524C38.6216 270.186 36.3963 275.155 40.3664 277.512C43.7858 279.151 47.8062 278.973 51.4983 279.56Z" fill="white"/>
<path fill-rule="evenodd" clip-rule="evenodd" d="M143.444 141.467C143.474 141.38 143.613 141.365 143.634 141.467C143.974 143.024 144.612 144.732 145.259 146.193C145.916 147.672 146.814 149.031 147.948 150.185C150.325 152.603 153.382 153.706 156.735 153.708L156.815 153.71C156.83 153.598 156.848 153.485 156.864 153.372L156.887 153.203C157.193 150.887 159.942 150.954 160.478 152.702C160.751 152.789 161.023 152.876 161.294 152.966L161.348 152.986C161.803 153.159 163.345 153.927 163.628 153.723C164.252 153.275 164.964 153.789 165.2 154.361C165.587 155.299 165.652 156.458 165.777 157.476L165.794 157.607L165.813 157.766C174.633 160.059 179.583 168.887 182.11 177.02C183.479 181.429 184.375 185.977 185.275 190.5C186.238 195.338 187.126 200.188 188.066 205.028C189.919 214.566 191.672 224.126 193.195 233.721L193.637 236.508C195.032 245.331 196.392 254.149 197.535 263.012C198.152 267.791 198.73 272.574 199.288 277.361C199.388 278.215 199.487 279.068 199.585 279.923L199.732 281.205C199.863 282.355 200.085 283.492 199.516 284.568C198.285 286.901 194.554 286.884 194.342 283.896C194.3 283.302 194.501 282.847 194.833 282.53L194.828 282.48C194.825 282.45 194.821 282.428 194.82 282.418C194.71 281.825 194.68 281.197 194.613 280.596C194.465 279.316 194.321 278.035 194.176 276.752C193.895 274.309 193.611 271.866 193.318 269.425C192.724 264.473 192.097 259.527 191.431 254.586L190.772 249.7C188.566 233.414 186.267 217.131 183.242 200.975C182.419 196.576 181.572 192.185 180.703 187.795C179.879 183.638 178.954 179.499 177.572 175.486C175.316 168.93 171.371 162.79 165.895 158.487C165.98 159.309 166.041 160.135 166.119 160.958C166.32 163.069 166.533 165.178 166.749 167.287C167.533 174.93 168.595 182.56 170.408 190.033C171.306 193.736 172.4 197.39 173.733 200.96C174.39 202.718 175.107 204.453 175.892 206.157C176.67 207.841 178.033 209.642 178.115 211.519C178.153 212.388 177.245 213.159 176.404 213.066C176.797 216.524 177.019 220.017 177.253 223.467C177.595 228.463 177.868 233.468 178.267 238.46C178.981 247.402 179.877 256.331 180.815 265.253C181.001 267.021 181.203 268.788 181.403 270.555L181.57 272.039C181.683 273.001 181.854 274.153 181.343 275.006C181.8 276.108 182.112 277.238 182.294 278.418C182.524 279.884 181.686 281.529 179.974 281.465C179.78 281.459 179.585 281.442 179.391 281.421C177.804 281.789 176.222 282.112 174.574 282.123C172.47 282.137 170.361 282.095 168.257 282.08C164.186 282.053 160.115 282.025 156.044 281.992C141.306 281.873 126.561 281.88 111.826 281.643L105.93 281.549C100.525 281.462 95.1188 281.362 89.7164 281.165C85.996 281.03 82.2758 280.892 78.5572 280.742L77.8002 280.714C74.5192 280.594 71.2344 280.533 67.9896 280.03C67.9083 280.016 67.8731 279.932 67.8857 279.858L67.8903 279.838L67.7488 279.806C67.6664 280.161 65.9551 278.669 65.9678 277.678C65.2579 276.754 65.5896 275.279 65.6657 274.21C65.7396 273.168 65.8326 272.124 65.915 271.082C66.0903 268.856 66.2403 266.628 66.4199 264.403C67.1446 255.429 67.7699 246.432 68.1756 237.439C68.3805 232.905 68.5453 228.37 68.7185 223.836C68.7965 221.772 68.9051 219.706 69.1075 217.652L69.1601 217.138C69.3819 215.055 69.3608 212.814 70.1277 210.851C70.1382 210.824 70.1741 210.824 70.1847 210.851C70.9601 212.762 71.034 214.983 71.1903 217.08C71.2178 217.071 71.2453 217.067 71.2748 217.06C72.346 216.551 73.4277 216.093 74.4417 215.463C74.5791 215.378 74.7122 215.289 74.8474 215.203C76.4425 210.321 78.291 205.519 79.9918 200.668C85.4868 184.984 88.5206 168.281 89.1925 151.673C85.0009 154.376 80.4359 156.479 75.9982 158.738L75.5826 158.95C71.2115 161.186 67.0263 163.724 63.9143 167.602C61.2016 170.98 59.4291 175.095 57.7706 179.062C55.9896 183.325 54.384 187.664 52.9157 192.043C49.9368 200.928 47.6298 210.031 45.8298 219.227C44.053 228.302 42.7833 237.445 41.934 246.652C41.5009 251.348 41.1058 256.048 40.7741 260.755C40.6051 263.137 40.4551 265.521 40.3157 267.907C40.2481 269.065 40.1974 270.226 40.1213 271.384C40.0748 272.052 40.0664 272.74 39.8467 273.375C39.6629 273.903 39.3375 274.345 39.0333 274.812C38.4777 275.664 37.0748 275.818 36.553 274.812L36.3271 274.376C36.028 273.796 35.7548 273.212 35.7143 272.542C35.6763 271.908 35.7544 271.246 35.7903 270.61C35.8601 269.323 35.9403 268.034 36.0206 266.747C36.1896 264.039 36.3777 261.332 36.5889 258.627C37.0094 253.208 37.5502 247.803 38.2305 242.41C40.6241 223.467 44.0805 204.623 50.6763 186.645C52.3072 182.2 54.1263 177.791 56.1798 173.524C58.1657 169.399 60.6777 165.504 64.3241 162.663C67.6808 160.048 71.5826 158.297 75.4594 156.598L75.9439 156.386C80.2896 154.486 84.627 152.44 89.165 151.028C89.0636 151.041 88.9643 151.054 88.8779 151.083C88.7784 151.115 88.7194 150.986 88.7807 150.916C89.0382 150.631 89.146 150.337 89.442 150.056C89.6463 149.862 89.8589 149.678 90.0776 149.501L90.3922 149.25C90.968 148.793 91.5733 148.326 92.2981 148.167C93.3229 147.943 93.8258 148.875 93.5382 149.604C93.6861 149.411 94.0833 149.469 94.1868 149.733C97.5587 158.432 99.7727 167.64 104.311 175.86C107.661 181.932 112.157 187.539 118.123 191.206C121.328 193.176 124.996 194.689 128.784 194.928C132.185 195.141 135.458 194.277 138.35 192.491C143.957 189.031 147.619 182.957 150.23 177.071C153.101 170.591 155.15 163.686 156.354 156.686C152.539 156.739 148.512 154.997 145.975 152.159C144.64 150.665 143.645 148.845 143.14 146.905C142.63 144.948 142.793 143.339 143.444 141.467ZM111.435 136.384C111.9 135.553 112.93 135.278 113.773 135.617C114.709 135.993 114.99 136.902 114.857 137.825C114.703 138.907 114.008 140.076 113.467 141.021C112.901 142.01 112.172 142.921 111.418 143.773C109.998 145.379 108.479 146.827 106.677 148.01C104.883 149.187 102.855 150.069 100.77 150.561L100.274 150.677C98.6523 151.048 96.3447 151.473 94.9937 150.591C94.9284 150.549 94.9303 150.462 94.9937 150.42C95.7246 149.91 96.703 149.819 97.5437 149.579C98.4606 149.314 99.3798 149.014 100.256 148.638C101.987 147.894 103.643 146.913 105.118 145.742C106.599 144.568 108.031 143.166 109.022 141.549C109.521 140.738 109.945 139.886 110.353 139.028C110.765 138.168 110.972 137.212 111.435 136.384Z" fill="black"/>
<path fill-rule="evenodd" clip-rule="evenodd" d="M169.552 105.012C170.861 95.5635 168.066 86.4457 164.446 77.8108C164.247 77.2849 163.932 76.8295 163.526 76.5057C153.309 55.9039 138.295 54.0383 117.35 55.4571C116.732 55.4433 116.695 55.4543 116.225 55.244C116.147 46.875 106.593 42.4419 99.3219 45.2032C67.0757 60.1941 77.2153 102.398 83.6321 129.95C85.9214 140.616 88.2113 151.281 90.501 161.947C90.5779 162.303 90.74 162.612 90.9555 162.872C90.6229 162.998 90.2902 163.116 89.9638 163.227C89.2188 163.481 89.5148 164.592 90.2902 164.412C91.0501 164.235 91.7824 163.999 92.5068 163.741C93.6362 163.987 94.5831 163.248 95.4698 162.659C105.853 158.552 110.212 145.053 112.875 135.108C123.703 142.751 141.004 148.474 153.384 141.602C164.984 134.614 169.162 120.036 168.338 107.169C169.184 106.779 169.526 105.93 169.548 105.044H169.553C169.553 105.033 169.552 105.022 169.552 105.012V105.012Z" fill="white"/>
<path fill-rule="evenodd" clip-rule="evenodd" d="M96.3471 45.9903C98.741 44.439 101.813 43.8616 104.634 43.9747C106.138 44.0349 107.542 44.4101 108.929 44.9735C110.214 45.496 111.348 46.2465 112.599 46.8184C112.675 46.8531 112.618 46.9598 112.546 46.9452C111.064 46.646 109.324 46.8267 107.821 47.041L107.672 47.0625C106.195 47.277 104.692 47.388 103.236 47.7285C100.554 48.3555 98.0596 49.7219 96.5877 52.0986C94.6658 55.2024 94.1731 59.2202 94.3787 62.8013C94.4826 64.6132 94.8397 66.3958 95.3957 68.1231C95.7295 69.1598 96.5051 70.2028 96.8674 71.2906C97.1431 70.7758 97.4277 70.266 97.7224 69.7624C96.3798 69.1294 96.0033 67.3701 95.9338 65.7824C95.727 65.5825 95.5939 65.2932 95.5895 65.0275C95.5776 64.3133 95.7456 63.6668 96.0312 63.0752C96.1943 61.3997 96.54 59.7291 97.1349 58.159C99.47 51.9946 105.63 46.4386 112.616 46.9875C114.536 47.1384 116.405 47.954 117.397 49.6879C118.195 51.0803 118.2 52.7599 117.65 54.2408C117.487 54.6804 117.275 55.0773 117.026 55.4394C117.78 55.2479 118.537 55.0642 119.291 54.8822C121.91 54.2507 124.542 53.756 127.224 53.4808C130.876 53.1063 134.603 53.6729 137.949 55.131C138.867 55.3671 139.78 55.6207 140.688 55.8917C144.683 57.0833 148.781 58.6396 152.008 61.3595C153.492 62.6109 154.555 64.0667 155.417 65.6653C158.647 68.5463 161.736 71.812 163.916 75.5479C168.409 83.245 169.481 92.7662 169.666 101.517C169.836 109.555 169.13 117.676 167.624 125.574C166.94 129.159 165.835 132.49 163.599 135.43C161.11 138.704 157.789 141.283 154.063 143.013C146.478 146.536 137.089 147.049 129.716 142.684C127.498 141.371 129.495 137.949 131.735 139.228C139.015 143.383 148.305 142.434 155.308 138.029C158.267 136.168 160.817 133.623 162.437 130.507C163.62 128.231 164.127 125.62 164.567 123.079L164.801 121.719C166.157 113.904 166.771 105.888 166.445 97.9594C166.119 90.0507 164.865 81.4847 160.387 74.761C158.025 71.2146 155.013 68.1077 151.849 65.2748C151.627 65.0757 151.404 64.8774 151.181 64.6798C149.945 63.9365 148.663 63.2874 147.402 62.7335L147.134 62.6174C146.409 62.3081 145.394 61.9085 144.453 61.589C143.108 61.1323 141.74 60.7265 140.368 60.3609C139.648 60.1692 138.925 59.9933 138.2 59.8253C138.453 60.0572 138.704 60.2911 138.951 60.531C140.12 61.6674 141.047 63.018 142.156 64.2096C142.281 64.344 142.123 64.5401 141.964 64.4583C140.278 63.593 138.409 63.033 136.649 62.3319C134.985 61.6691 133.367 60.9062 131.733 60.1749C131.323 59.9914 130.915 59.7955 130.508 59.6017C128.901 59.6182 127.293 59.656 125.689 59.7475C127.628 61.1283 129.399 62.7601 130.866 64.5496C130.987 64.6969 130.877 64.933 130.673 64.8808C127.603 64.0943 124.682 62.9383 121.764 61.7269L120.368 61.1454V61.1454C119.341 61.0934 118.313 61.0691 117.285 61.0843L116.787 61.0926C115.708 61.1132 114.631 61.156 113.561 61.3196C113.307 61.3582 113.057 61.395 112.81 61.4288C111.305 62.0434 109.856 62.7844 108.553 63.7611L108.892 63.741V63.741C110.953 63.6237 113.054 63.8012 115.05 64.3334C118.927 65.368 122.236 67.8592 124.644 71.0355C124.716 71.1306 124.576 71.263 124.481 71.1983C121.452 69.1239 117.939 68.079 114.34 67.5115C112.6 67.2369 110.808 67.1425 109.052 67.2792C107.597 67.3923 106.093 67.9048 104.646 67.656C104.251 68.1474 103.873 68.6536 103.508 69.171C103.7 69.1587 103.892 69.1475 104.086 69.1385C106.164 69.0408 108.28 69.1742 110.309 69.6527C114.362 70.609 117.748 73.0429 120.847 75.715C120.908 75.7679 120.829 75.8621 120.762 75.8241C117.403 73.8843 113.498 73.3046 109.692 72.9546C107.775 72.7783 105.837 72.6984 103.916 72.8515C103.036 72.9214 102.166 73.0666 101.288 73.1569C101.217 73.1643 101.144 73.1662 101.071 73.1695C100.435 74.3692 99.8581 75.5903 99.338 76.8079C100.925 76.3819 102.638 76.1582 104.277 76.2686C107.606 76.4928 110.908 78.0198 113.566 79.9729C113.649 80.034 113.603 80.1967 113.49 80.154C110.597 79.0607 107.73 79.0518 104.711 79.4737C103.295 79.6715 101.895 79.9399 100.527 80.3609C99.8398 80.5727 99.1601 80.8037 98.5077 81.1079C98.2115 81.2457 97.9231 81.4063 97.6316 81.5578C97.3983 82.35 97.1898 83.1495 97.0018 83.9539C101.936 84.2322 106.585 86.5622 110.63 89.2362C110.728 89.3009 110.667 89.4809 110.546 89.4353C108.131 88.5237 105.504 88.1023 102.942 87.8569C100.703 87.6424 98.5045 87.759 96.2776 87.8216C96.1582 88.6681 96.0617 89.5171 95.9917 90.3677C96.3498 90.4681 96.7012 90.5763 97.039 90.678C98.15 91.0119 99.259 91.4615 100.296 91.9827C102.402 93.0413 104.108 94.4724 105.825 96.0632C105.915 96.1463 105.821 96.3276 105.7 96.2784C103.707 95.4725 101.529 94.9564 99.4314 94.4996C98.3457 94.2634 97.2595 94.0452 96.1662 93.8451C96.0604 93.8256 95.9529 93.8094 95.8455 93.7933C95.8352 95.7328 95.9448 97.6728 96.1865 99.597L96.2334 99.9576C96.3644 100.931 96.2573 101.873 95.6127 102.546C96.5043 101.953 97.5243 101.543 98.6548 101.385C101.632 100.971 104.388 102.161 106.262 104.462C106.349 104.57 106.214 104.711 106.108 104.616C104.29 102.998 101.488 102.712 99.2302 103.474C97.14 104.179 95.5686 105.863 94.9388 107.97C94.2695 110.209 94.576 112.681 95.7965 114.677C96.4045 115.671 97.2828 116.56 98.3818 116.997C98.5174 117.051 98.6556 117.096 98.7952 117.135C99.4586 116.893 100.173 117.003 100.855 117.31L100.943 117.352V117.352C101.378 117.349 101.812 117.336 102.233 117.34C103.052 117.348 103.446 118.218 103.102 118.866C103.297 119.223 103.44 119.625 103.612 119.975C103.921 120.607 104.245 121.235 104.571 121.859C105.032 122.388 105.472 122.935 105.77 123.573C105.893 123.835 106.009 124.119 106.098 124.403C106.354 124.788 106.614 125.172 106.88 125.553C107.742 126.785 108.65 127.952 109.657 129.07C110.262 129.742 110.958 130.342 111.599 130.986C111.793 131.012 111.983 131.144 112.043 131.334L112.096 131.516V131.516C112.302 131.749 112.5 131.989 112.677 132.244C113.072 132.81 112.964 133.385 112.617 133.799C113.166 137.226 112.792 140.872 112.058 144.195C111.583 146.343 111.028 148.488 110.284 150.56C109.906 151.613 109.447 152.624 108.814 153.549C108.467 154.056 108.015 154.646 107.508 155.128C107.431 155.69 107.331 156.246 107.187 156.792C105.486 163.259 98.5238 165.228 92.6941 166.054C91.5688 166.213 90.4553 165.941 89.8424 164.892C89.7008 164.65 89.6057 164.389 89.5546 164.121C89.3007 164.054 89.0564 163.935 88.8374 163.764C88.8008 164.169 88.7586 164.575 88.7051 164.986C88.5718 166.014 87.1853 166.323 86.8377 165.239C85.3711 160.665 84.5744 155.842 83.5694 151.142C82.5665 146.452 81.4466 141.787 80.4103 137.103L79.0982 131.193C75.8966 116.721 72.8979 102.063 73.6339 87.1783C74.0357 79.0531 75.526 70.9491 78.7157 63.4407C81.3729 57.1858 85.8572 50.1586 93.1014 48.8797C93.1512 48.871 93.1956 48.8761 93.237 48.8867C94.0973 47.7676 95.1251 46.782 96.3471 45.9903ZM100.718 124.66C101.302 126.599 101.719 128.587 101.946 130.615C102.324 133.995 102.137 137.458 101.973 140.848C101.821 143.962 101.463 147.103 100.853 150.161C100.267 153.097 99.3486 155.976 97.9836 158.646C97.7628 159.078 97.5255 159.499 97.2762 159.912C98.0311 159.66 98.7127 159.367 99.4225 158.961C100.316 158.449 101.134 157.79 101.581 157.094C102.299 155.979 102.54 154.739 102.645 153.409C102.915 149.989 103.039 146.559 103.212 143.133L103.25 142.387C103.528 137.035 103.893 131.545 103.348 126.187C102.581 125.985 101.889 125.589 101.25 125.093C101.074 124.956 100.896 124.811 100.718 124.66ZM94.8842 118.179C95.0454 119.807 95.1996 121.435 95.3393 123.065C95.8347 128.85 96.1408 134.667 95.8592 140.472C95.7126 143.495 95.4181 146.526 94.9089 149.511C94.6794 150.856 94.402 152.201 94.0921 153.531L93.9876 153.974C93.673 155.292 93.4725 156.94 92.4652 157.898L92.4728 158.097V158.097C93.1799 157.023 93.834 155.816 94.3024 154.692C96.3895 149.686 96.7708 144.235 97.1479 138.897C97.3803 135.607 97.5525 132.313 97.8214 129.025L97.9521 127.443C98.1019 125.602 98.2309 123.775 98.2133 121.935C97.8113 121.336 97.4847 120.705 97.2819 120.058C97.2493 119.954 97.2269 119.849 97.2113 119.743C96.3612 119.34 95.5607 118.79 94.8842 118.179ZM106.308 129.634C106.728 131.03 107.07 132.444 107.314 133.864C107.702 136.123 107.935 138.397 108.037 140.679L108.252 139.873C108.791 137.857 109.364 135.838 110.075 133.881C108.951 133.094 108.012 131.858 107.195 130.825C106.89 130.439 106.594 130.041 106.308 129.634ZM90.2158 67.5524C89.7839 68.9469 89.4064 70.3573 89.0164 71.7632C88.0999 75.0657 87.505 78.4588 87.0922 81.8581C85.4449 95.4306 86.8169 109.058 88.6112 122.542C89.3546 128.129 90.163 133.707 90.8568 139.301C90.8751 138.752 90.8906 138.203 90.9005 137.655C91.1113 125.782 89.1138 114.076 88.3139 102.265L88.2659 101.545C87.9034 96.0227 87.6816 90.3971 88.3378 84.8948C88.6754 82.0627 89.2703 79.2912 90.062 76.5545L90.5332 74.9471C90.8517 73.8662 91.1903 72.7566 91.592 71.6805C91.5383 71.5774 91.4872 71.4734 91.4396 71.3692C90.8838 70.1468 90.497 68.8618 90.2158 67.5524ZM91.6078 51.5534C87.4615 56.9012 83.9821 62.5821 81.8771 69.1162C77.0593 84.0705 78.1349 100.061 80.9268 115.304C82.2423 122.487 83.9388 129.585 85.4868 136.717C83.8298 123.91 81.693 111.13 81.3529 98.1993C81.1672 91.1419 81.5321 84.0515 82.8316 77.1031L82.9085 76.6946C83.4654 73.758 84.1554 70.6469 85.5677 68.0079C86.3346 66.5749 87.1811 65.2377 88.1851 63.9578C88.6085 63.418 89.0838 62.9851 89.5881 62.5893C89.4402 58.9027 89.9976 54.905 91.6078 51.5534ZM98.3725 108.533C100.435 108.614 102.496 109.189 104.121 110.531C105.391 111.58 103.579 113.352 102.319 112.333C100.948 111.225 99.7187 109.966 98.2575 108.958C98.0835 108.837 98.1312 108.523 98.3725 108.533ZM94.9506 103.035C94.4919 103.271 94.0362 103.319 93.5167 103.191C93.4977 103.186 93.4794 103.181 93.4615 103.176L93.3553 103.141C93.4008 103.633 93.4485 104.125 93.4958 104.617C93.915 104.027 94.4011 103.492 94.9506 103.035ZM92.897 73.3419C92.7145 74.8678 92.5955 76.4012 92.5321 77.9368C92.4706 79.4329 92.4449 80.9336 92.4379 82.4347L92.436 83.0781L92.4388 83.0659C93.148 80.0389 94.1511 77.0599 95.4322 74.2092C95.2116 74.246 94.9877 74.2401 94.7671 74.2135C94.2626 74.1524 93.7788 73.9286 93.3459 73.6667C93.1881 73.5712 93.04 73.4598 92.897 73.3419ZM113.938 55.6549C113.056 56.0535 112.205 56.5117 111.32 56.9012C109.566 57.6739 107.849 58.5721 106.225 59.5919C104.582 60.6239 102.999 61.7105 101.543 62.9976C101.372 63.1485 101.203 63.3011 101.035 63.4535C101.001 63.7864 100.976 64.1205 100.965 64.4574C100.959 64.6385 100.958 64.8279 100.961 65.0226C103.708 61.6183 107.029 58.9325 111.243 57.243C111.973 56.95 112.715 56.6892 113.465 56.4479C113.643 56.2002 113.803 55.9372 113.938 55.6549ZM113.86 52.3894C113.37 51.7388 111.962 51.7919 111.074 51.9369C109.638 52.1715 108.373 52.6736 107.143 53.4007C105.688 54.2596 104.434 55.4233 103.452 56.792C103.935 56.5194 104.427 56.2621 104.93 56.0233L105.274 55.8606C107.178 54.9679 109.24 54.1192 111.322 53.8424C112.286 53.7143 113.322 53.529 114.295 53.6334C114.247 53.1602 114.106 52.7163 113.86 52.3894Z" fill="black"/>
<path fill-rule="evenodd" clip-rule="evenodd" d="M143.152 128.274C141.731 127.695 140.464 126.728 139.538 125.493C139.216 125.063 139.132 124.61 139.2 124.195C139.276 123.729 139.551 123.306 139.927 123.023C140.305 122.739 140.777 122.598 141.233 122.67C141.629 122.732 142.024 122.949 142.336 123.399L142.401 123.49C142.952 124.235 143.67 124.847 144.488 125.241C145.276 125.621 146.157 125.798 147.07 125.695C148.807 125.499 150.005 124.559 151.277 123.282C151.435 123.121 151.593 122.955 151.752 122.786C151.852 122.633 151.991 122.534 152.145 122.483C152.317 122.425 152.51 122.429 152.688 122.491C152.859 122.55 153.012 122.664 153.115 122.815C153.213 122.958 153.268 123.135 153.25 123.339C153.134 124.662 152.442 125.842 151.46 126.769C150.37 127.799 148.924 128.511 147.563 128.761C146.063 129.036 144.535 128.839 143.152 128.274V128.274ZM148.27 107.866C149.866 108.836 152.297 111.099 150.58 113.504C148.56 115.624 145.652 113.193 144.218 112.093C142.889 111.241 141.396 113.433 142.629 114.428C152.986 122.099 157.189 108.12 149.077 106.726C148.184 106.572 147.852 107.566 148.27 107.866ZM129.71 98.943C129.886 96.7542 133.219 96.2571 133.55 98.4231C133.847 100.363 133.497 102.146 132.624 103.892C131.789 105.561 129.691 104.783 129.532 103.263C129.32 101.226 129.6 100.305 129.71 98.943ZM155.076 97.974C155.541 97.3653 156.211 96.9498 157.015 97.1846C159.526 97.9186 158.786 101.485 157.904 103.221C157.425 104.163 155.876 104.402 155.176 103.572C154.035 102.219 153.489 99.5158 154.939 98.1826C154.979 98.1137 155.022 98.0442 155.076 97.974ZM132.589 89.3655L132.985 89.296C134.212 89.0837 135.738 88.8798 136.606 89.8666C137.066 90.3899 137.225 91.3625 136.606 91.8634C135.517 92.7448 134.314 92.4032 133.01 92.4778C131.935 92.5395 130.902 92.7175 129.866 93.0136C127.595 93.6631 125.744 94.8487 123.804 96.1507C123.549 96.3214 123.289 95.9957 123.411 95.7576C124.531 93.5631 126.701 91.7605 128.875 90.6617C130.035 90.0752 131.305 89.5887 132.589 89.3655ZM152.787 88.3825L153.091 88.4446C156.394 89.1354 160.686 90.5154 162.251 93.7616C162.311 94.2207 162.248 94.319 162.196 94.3833L162.179 94.4047C162.137 94.4596 162.103 94.5353 161.904 94.5977C161.849 94.5846 161.794 94.5706 161.737 94.5559C161.02 94.3679 160.453 94.1089 159.903 93.8401L159.308 93.5466C158.617 93.2077 157.92 92.8811 157.181 92.64C155.605 92.1256 153.983 91.7632 152.336 91.5697C151.979 91.5278 151.636 91.4073 151.365 91.2008C151.107 91.0047 150.911 90.7333 150.821 90.3726C150.705 89.9057 150.738 89.5522 150.989 89.131C151.177 88.8147 151.446 88.5954 151.756 88.4695C152.071 88.3412 152.43 88.3109 152.787 88.3825Z" fill="black"/>
<path fill-rule="evenodd" clip-rule="evenodd" d="M169.07 112.228C168.37 111.288 167.111 110.053 165.838 110.12C165.675 110.128 165.614 110.305 165.712 110.424C166.129 110.933 166.698 111.295 167.115 111.814C167.609 112.429 167.965 113.17 168.197 113.92C168.533 115.009 168.626 116.241 168.326 117.349C167.797 119.301 166.125 120.732 164.3 121.462C162.493 122.185 160.32 122.432 158.612 121.373C156.09 119.808 153.951 117.553 150.782 117.509C150.041 117.498 149.518 117.838 149.207 118.323C148.894 117.855 148.379 117.525 147.656 117.516C144.103 117.476 141.451 119.923 138.469 121.448C136.454 122.479 133.846 122.159 131.767 121.478C129.806 120.836 127.677 119.546 126.937 117.509C126.529 116.384 126.62 115.071 127.039 113.962C127.315 113.233 127.741 112.529 128.268 111.956C128.814 111.362 129.532 110.988 130.091 110.424C130.205 110.309 130.115 110.13 129.965 110.12C127.589 109.959 125.444 112.797 124.995 114.856C124.553 116.883 125.212 118.906 126.545 120.453C129.257 123.599 134.277 124.636 138.184 123.712C141.346 122.964 144.35 121.241 147.656 121.488C148.38 121.542 148.901 121.24 149.215 120.782C149.529 121.254 150.052 121.562 150.782 121.491C153.863 121.193 156.613 123.376 159.604 123.909C161.985 124.333 164.557 123.761 166.598 122.477C168.731 121.136 170.232 118.984 170.331 116.419C170.388 114.943 169.955 113.416 169.07 112.228" fill="black"/>
<path fill-rule="evenodd" clip-rule="evenodd" d="M159.89 92.1488C164.848 92.1488 167.678 93.2156 168.715 93.2987L168.746 93.301C169.178 93.3285 169.565 93.3646 169.971 93.5217C171.463 94.0968 171.707 95.663 170.835 96.65C170.774 98.6925 171.043 101.079 170.582 103.128C170.014 111.766 165.953 113.224 163.645 113.756C162.486 114.023 161.112 114.129 159.882 113.847C157.782 113.769 155.706 113.111 153.929 111.966C151.455 110.37 149.618 107.917 149.022 105.005C148.739 103.617 148.607 102.173 148.761 100.762L148.784 100.568C147.98 100.183 147.048 100.11 146.087 100.076C145.629 100.06 145.176 100.045 144.737 100.065C144.308 100.113 143.883 100.177 143.458 100.264C142.993 100.404 142.554 100.636 142.149 101.002L142.121 101.538C142.045 102.875 141.869 104.216 141.598 105.527C141.199 107.463 140.556 109.311 139.188 110.684C138.725 111.376 138.152 111.993 137.456 112.528C134.93 114.475 131.497 115.189 128.346 114.92C121.949 114.374 118.252 109.294 117.4 107.123L117.349 106.991C116.733 105.377 116.243 103.283 114.298 102.936L113.884 102.862C112.997 102.695 112.178 102.463 111.657 101.597C111.429 101.219 111.312 100.796 111.283 100.364C110.98 100.388 110.676 100.41 110.374 100.432C107.964 100.942 93.5074 101.374 92.3535 101.374C92.3535 101.374 90.1354 102.308 89.199 101.584C88.5499 101.081 88.3363 100.41 88.6936 99.6507C89.2328 98.5075 91.7201 97.8199 92.8246 97.6022C92.8246 97.6022 110.648 97.7503 111.931 97.507C112.725 96.6882 114.144 96.8003 115.331 96.6708C116.313 95.9703 117.687 95.5011 118.772 95.187C118.993 95.1032 119.212 95.0221 119.425 94.9457C121.415 94.2369 123.483 93.8614 125.582 93.6598C127.747 93.454 129.919 93.5471 132.071 93.8421C132.978 93.9652 133.877 94.1244 134.769 94.3326C136.367 94.5433 137.955 94.8903 139.553 95.302L139.873 95.3852C141.556 95.8266 143.286 96.2084 145.028 95.9092C146.446 95.6671 147.81 95.1211 149.118 94.5306L149.288 94.4533C152.164 93.1399 156.654 92.1488 159.89 92.1488ZM134.596 96.9512C133.535 96.7178 133.082 98.3542 134.146 98.5883C134.9 98.7541 135.539 99.1343 135.97 99.7785L136.016 99.8485C136.595 100.77 138.059 99.9194 137.476 98.9916C136.82 97.9474 135.801 97.2161 134.596 96.9512ZM165.671 95.9365C165.297 95.6729 164.731 95.8686 164.514 96.2411C164.275 96.6512 164.431 97.1078 164.782 97.3761L164.817 97.4023C165.139 97.6289 165.452 98.035 165.491 98.4511L165.494 98.5031C165.536 99.592 167.228 99.5976 167.186 98.5031C167.145 97.4325 166.525 96.538 165.671 95.9365Z" fill="black"/>
</g>
<defs>
<clipPath id="clip0_81_21074">
<rect width="240" height="275" fill="white"/>
</clipPath>
</defs>
</svg>
