<svg width="240" height="275" viewBox="0 0 240 275" fill="none" xmlns="http://www.w3.org/2000/svg">
<g clip-path="url(#clip0_81_21056)">
<rect width="240" height="275" fill="#E7ECED"/>
<path fill-rule="evenodd" clip-rule="evenodd" d="M55.2059 285.479C57.735 285.636 60.2639 285.759 62.7927 285.854C95.8625 287.086 128.906 283.315 161.955 282.49C173.464 282.187 184.914 282.338 196.394 283.262C197.519 283.353 198.805 282.142 198.667 280.989C196.546 262.674 193.893 244.409 192.518 226.019C192.517 225.046 192.642 224.075 192.976 223.159C193.039 223.087 193.366 222.281 193.656 222.231C193.561 222.302 193.991 222.178 193.718 222.199C195.377 221.927 197.005 220.135 195.801 218.42C183.393 199.395 166.454 182.03 161.005 159.433C159.717 153.324 155.067 152.946 150.113 150.426C148.567 149.506 144.787 146.959 144.172 145.188C142.703 138.804 145.29 132.551 137.731 129.968C132.74 128.584 123.919 127.412 118.87 128.872C112.71 130.923 113.171 137.867 109.598 142.644C107.751 145.407 104.601 149.19 101.692 149.614C100.282 149.819 99.2437 146.966 97.8361 147.162C75.8951 152.493 46.002 188.859 36.5719 208.99C34.4467 215.326 41.3004 213.415 40.8793 219.783C40.3603 231.864 39.225 247.329 39.8983 259.425C40.5289 266.445 40.0622 273.801 42.2436 280.557C41.6564 281.27 42.5 281.99 43.1883 282.3C44.0556 283.776 52.5891 285.275 55.2059 285.479Z" fill="white"/>
<path fill-rule="evenodd" clip-rule="evenodd" d="M112.328 135.035C112.898 132.468 116.982 133.569 116.283 136.126C115.199 140.08 112.951 143.817 109.778 146.44C107.327 148.465 103.987 150.271 100.674 150.605C100.985 150.908 101.283 151.231 101.596 151.54C102.301 152.241 103.051 152.892 103.824 153.518C105.413 154.803 107.065 155.959 108.87 156.927C116.076 160.795 124.216 161.687 132.265 160.786C136.085 160.359 139.962 159.634 143.553 158.237C145.218 157.591 146.836 156.741 148.265 155.667L148.639 155.387C149.39 154.819 150.392 154.019 150.861 153.144C149.433 153.465 147.627 151.943 146.636 151.058C145.552 150.086 144.639 148.832 143.965 147.547C142.645 145.026 141.946 141.773 143.053 139.07C143.127 138.89 143.363 138.92 143.384 139.115C143.712 142.266 144.561 145.22 146.822 147.554C147.825 148.587 149.027 149.454 150.339 150.056L150.524 150.141C151.083 150.399 151.671 150.703 151.907 151.256C151.998 151.246 152.089 151.254 152.175 151.278C152.253 151.299 152.325 151.322 152.395 151.347C152.239 151.041 152.156 150.68 152.171 150.252C152.226 148.598 154.497 148.547 154.812 150.02C154.755 149.826 154.679 150.014 154.822 150.073C154.82 150.056 154.816 150.037 154.812 150.02L154.816 150.036V150.036L154.825 150.073L154.822 150.073C154.828 150.1 154.833 150.127 154.836 150.155L154.839 150.192L154.837 150.161C154.835 150.139 154.832 150.118 154.829 150.1L154.824 150.073C154.846 150.083 154.875 150.09 154.909 150.09L154.923 150.095C154.976 150.118 155.163 150.205 155.218 150.227C155.596 150.367 156.018 150.411 156.405 150.531C157.244 150.789 157.983 151.216 158.494 151.943C158.862 152.465 159.067 153.064 159.151 153.685C162.863 155.471 166.377 157.791 169.32 160.664C175.888 167.072 180.468 175.092 184.227 183.394C186.14 187.621 187.844 191.937 189.512 196.265L189.775 196.948C191.562 201.6 193.142 206.303 193.531 211.303C193.567 211.751 193.419 212.172 193.163 212.521C193.254 212.897 193.301 213.273 193.288 213.641C193.286 213.698 193.282 213.755 193.277 213.812C193.877 213.801 194.465 214.053 195.022 214.759C195.248 214.687 195.494 214.678 195.734 214.757C197.203 215.226 197.439 216.839 197.716 218.189C198.001 219.584 198.126 221.013 198.128 222.435C198.128 222.944 197.836 223.587 197.342 223.805C196.413 224.214 195.411 224.483 194.45 224.855C193.727 225.134 193.003 225.398 192.272 225.646C192.677 226.353 192.808 227.338 193.028 228.085C193.372 229.249 193.649 230.418 193.882 231.61C195.458 239.715 196.55 247.907 198.025 256.029C198.762 260.098 199.62 264.139 200.494 268.18C200.925 270.166 201.384 272.149 201.876 274.123C202.138 275.175 202.41 276.228 202.691 277.274C202.773 277.58 202.856 277.885 202.939 278.189L203.086 278.722V278.722C203.408 278.899 203.682 279.168 203.872 279.535C204.568 280.88 204.168 282.395 202.835 283.152C201.386 283.976 199.656 283.198 198.857 281.86C198.295 280.916 198.111 279.665 197.834 278.614C197.522 277.435 197.224 276.249 196.936 275.063C194.985 267.008 193.677 258.812 192.692 250.585L192.622 249.997C192.122 245.762 191.638 241.516 191.325 237.261C191.171 235.171 191.048 233.081 190.972 230.986C190.934 229.908 190.996 228.824 191.057 227.748C191.084 227.277 191.125 226.804 191.139 226.332L191.144 226.265C191.148 226.218 191.153 226.155 191.158 226.089L191.163 226.009C189.705 226.466 188.226 226.846 186.732 227.167C183.555 227.854 180.303 228.237 177.06 228.042C177.513 233.415 178.102 238.774 178.926 244.098C179.72 249.226 180.637 254.342 181.672 259.428C182.19 261.983 182.75 264.532 183.339 267.072C183.656 268.429 184.017 269.777 184.303 271.141C184.472 271.952 184.525 272.631 184.184 273.39C184.559 274.41 184.892 275.435 185.219 276.401L185.317 276.689C185.896 278.38 186.994 280.108 185.847 281.77C185.254 282.627 184.286 283.118 183.312 283.148C183.295 283.158 183.276 283.171 183.257 283.181C182.733 283.462 182.129 283.517 181.554 283.397C180.682 283.568 179.807 283.733 178.93 283.883C176.765 284.257 174.589 284.566 172.408 284.826C168.257 285.32 164.078 285.591 159.901 285.741C144.61 286.292 129.301 285.324 114.004 285.603C106.21 285.745 98.416 286.096 90.635 286.561C86.7519 286.793 82.8667 287.043 78.9815 287.235L77.7789 287.294C74.3044 287.46 70.8274 287.588 67.3555 287.334C67.2878 287.33 67.235 287.303 67.1991 287.265C66.0012 287.129 64.7972 286.026 64.9174 284.752C65.435 279.324 65.9526 273.897 66.4724 268.467C67.3956 258.794 68.3273 249.12 69.2695 239.449L69.4057 238.052C69.7223 234.794 70.0246 231.527 70.178 228.255C69.4048 228.201 68.6338 228.131 67.8625 228.046C59.5057 227.131 51.4944 224.602 43.8023 221.281L43.4907 221.146C42.7977 220.843 42.0392 220.541 41.2618 220.218C41.2747 221.695 41.2259 223.175 41.2195 224.637C41.209 227.066 41.228 229.494 41.2343 231.92C41.2491 236.921 41.4392 241.924 41.6885 246.916C42.1259 255.733 42.6392 264.538 43.4167 273.334C43.6132 275.547 43.8796 277.756 44.0674 279.969C44.1796 281.273 43.9111 282.359 42.7176 283.044C42.1301 283.382 41.6759 283.241 41.0928 282.968C39.6688 282.3 39.6287 280.721 39.4935 279.348C39.3902 278.312 39.2949 277.276 39.2019 276.239C39.0035 274.026 38.8322 271.813 38.6928 269.596C38.1416 260.787 37.9808 251.986 38.3611 243.166C38.5376 239.041 38.7925 234.907 39.1308 230.789L39.2104 229.839C39.4892 226.548 39.6688 223.095 40.2456 219.783C37.9195 218.751 35.6146 217.439 34.5456 215.257C33.1599 212.425 34.6829 210.003 36.8526 208.336C36.8315 208.055 36.8526 207.776 36.9118 207.522C37.535 204.823 38.5787 202.156 39.5864 199.582C40.6026 196.995 41.7245 194.448 42.9583 191.956C47.9104 181.974 54.6752 172.852 62.7393 165.167C66.7449 161.351 71.1287 157.823 75.8083 154.864C78.128 153.4 80.5069 152.047 82.9702 150.842L83.3344 150.665C85.0493 149.832 86.9727 148.947 88.8796 148.484C89.078 148.336 89.2787 148.196 89.4815 148.063C90.2315 147.564 91.2498 147.925 91.6935 148.638C91.9092 148.471 92.1583 148.323 92.4435 148.19L92.7254 148.061C94.4365 147.29 96.491 146.569 98.3484 147.076C99.5019 147.391 100.41 148.241 100.818 149.323C101.754 148.828 102.673 148.319 103.571 147.695C105.014 146.698 106.322 145.459 107.496 144.159C109.852 141.545 111.563 138.483 112.328 135.035ZM194.065 217.462C193.904 217.509 193.735 217.525 193.56 217.504C193.877 217.541 193.242 217.729 193.068 217.819L193.055 217.826C192.738 218.007 192.419 218.183 192.096 218.352C191.342 218.749 190.571 219.106 189.787 219.442C188.242 220.1 186.647 220.605 185.01 220.975C183.409 221.336 181.729 221.547 180.087 221.581C178.989 221.602 177.685 221.552 176.549 221.228C176.68 223.221 176.825 225.212 176.988 227.201L179.233 226.686C181.478 226.171 183.72 225.643 185.935 225.001C187.598 224.519 189.237 223.955 190.858 223.346C191.707 223.027 192.55 222.689 193.383 222.325C193.797 222.144 194.185 221.929 194.569 221.711L194.897 221.524C194.821 220.634 194.682 219.762 194.479 218.882C194.374 218.417 194.194 217.94 194.065 217.462ZM40.3512 208.076C40.066 209.002 39.6286 209.866 38.6315 210.075C38.2786 210.149 37.9831 210.109 37.7378 209.989L37.679 210.107C36.8591 211.791 36.6183 213.568 38.5047 214.864C39.3563 215.45 40.2836 215.957 41.2427 216.411C42.958 217.228 44.7846 217.884 46.5068 218.552L46.8498 218.686C49.9301 219.895 53.0589 220.996 56.2364 221.917C59.4605 222.849 62.7413 223.597 66.0627 224.073C67.4632 224.272 68.8744 224.411 70.288 224.502C70.311 222.6 70.3005 220.696 70.2941 218.793C69.7913 218.73 69.2927 218.662 68.8113 218.605C67.3448 218.434 65.8829 218.225 64.4293 217.965C61.3934 217.422 58.3892 216.672 55.4589 215.712C50.0293 213.93 44.9779 211.383 40.3512 208.076ZM99.8803 149.811C98.6465 148.505 96.2866 148.976 94.7974 149.61C94.3472 149.802 93.8929 149.997 93.462 150.231L93.3785 150.278C92.8765 150.567 92.8791 150.739 93.1241 151.315C93.4429 152.074 93.8866 152.808 94.3091 153.511C96.1178 156.532 98.4986 159.161 101.218 161.382C110.847 169.244 124.681 172.017 136.723 169.384C142.503 168.121 148.078 165.573 152.332 161.393L152.72 161.008C154.435 159.29 156.79 156.805 156.625 154.26C156.546 153.036 155.547 152.966 154.527 152.73C154.109 152.632 153.709 152.495 153.363 152.301C153.642 153.503 152.157 155.291 151.389 156.041C149.782 157.616 147.846 158.846 145.799 159.765C141.903 161.518 137.666 162.346 133.446 162.87C128.659 163.466 123.768 163.413 119.017 162.532C114.882 161.765 110.807 160.313 107.249 158.051C105.618 157.016 104.011 155.834 102.65 154.458L102.361 154.166C101.379 153.171 100.236 151.967 99.6479 150.661C99.4239 150.663 99.2021 150.656 98.9803 150.641C98.8239 150.633 98.7396 150.411 98.8958 150.328C99.0711 150.235 99.2465 150.143 99.4218 150.052C99.3924 149.954 99.3669 149.859 99.3458 149.762C99.3289 149.68 99.4155 149.604 99.4915 149.65C99.5972 149.713 99.6986 149.781 99.7979 149.853C99.8253 149.84 99.8528 149.826 99.8803 149.811Z" fill="black"/>
<path fill-rule="evenodd" clip-rule="evenodd" d="M160.887 72.2154C148.183 63.803 122.732 64.7167 108.747 69.8707C95.102 74.1998 90.3246 86.2626 88.059 99.2951C85.3051 113.942 85.6752 135.057 105.478 134.801C108.262 136.148 111.347 136.732 114.227 137.848C118.17 139.212 122.036 140.795 126.036 141.989C133.916 144.528 142.685 144.307 150.16 140.592C154.289 138.596 155.999 135.488 158.699 132.177C166.556 122.542 170.51 108.754 170.156 96.5036C169.535 87.8773 168.108 77.8914 160.887 72.2154Z" fill="white"/>
<path fill-rule="evenodd" clip-rule="evenodd" d="M176.962 107.724C175.659 99.6296 175.298 91.3975 173.591 83.3662C171.985 75.8085 168.983 68.6668 163.737 62.9054C159.043 57.7505 152.973 53.9652 146.458 51.5664C133.765 46.8935 119.166 47.9502 106.887 53.4054C95.3942 58.5093 86.2273 67.9524 80.8843 79.285C77.4132 86.6485 75.6681 94.4769 74.8928 102.557C74.0329 111.533 73.94 120.602 73.5893 129.61C73.547 130.721 73.4857 131.833 73.471 132.945C73.4541 134.162 73.9463 135.229 74.3477 136.362C74.3752 136.443 74.4153 136.519 74.4639 136.591C74.1618 136.629 73.8597 136.673 73.5576 136.722C73.2195 136.774 73.2343 137.324 73.5576 137.389C76.2935 137.947 79.1055 138.026 81.8879 138.163C84.7717 138.307 87.6597 138.385 90.5477 138.482C93.3639 138.577 96.1801 138.672 98.9963 138.767C100.475 138.818 101.954 138.869 103.433 138.917C104.136 138.941 104.84 138.966 105.546 138.989C105.896 139.002 106.249 139.012 106.6 139.025C106.885 139.034 107.35 139.215 107.379 139.006C107.432 139.038 107.489 139.065 107.551 139.084C107.618 139.12 107.684 139.163 107.747 139.209C108.091 139.446 108.613 139.416 108.962 139.209C108.993 139.19 109.027 139.169 109.061 139.148C109.321 138.994 109.503 138.77 109.604 138.516C111.049 140.262 113.608 138.3 112.129 136.453C111.334 135.46 103.433 111.106 106.703 92.5536L119.819 90.8163C122.217 90.5732 126.679 90.0892 126.679 90.0892C126.679 90.0892 127.771 86.5238 128.084 85.3761C128.107 85.2916 128.13 85.2049 128.155 85.1204C128.468 85.6722 128.783 86.2215 129.1 86.771L130.718 90.0618C130.718 90.0618 154.604 89.6623 160.46 89.7004C160.56 89.7004 161.031 96.8229 160.817 99.9593C160.386 106.258 159.928 112.552 159.29 118.833C158.883 122.855 157.901 126.799 156.439 130.506C154.129 136.362 147.423 141.928 140.884 141.928C136.814 141.928 127.617 138.63 126.277 137.965C124.938 137.299 124.14 139.116 125.36 139.843C127.833 141.316 134.649 144.44 140.884 144.44C149.94 144.44 156.776 135.844 157.615 134.612C165.86 134.16 174.294 134.369 182.529 135.187C183.22 135.255 183.816 134.422 183.594 133.786C180.636 125.317 178.386 116.582 176.962 107.724Z" fill="black"/>
<path fill-rule="evenodd" clip-rule="evenodd" d="M143.152 128.274C141.731 127.695 140.464 126.728 139.538 125.493C139.216 125.063 139.132 124.61 139.2 124.195C139.276 123.729 139.551 123.306 139.927 123.023C140.305 122.739 140.777 122.598 141.233 122.67C141.629 122.732 142.024 122.949 142.336 123.399L142.401 123.49C142.952 124.235 143.67 124.847 144.488 125.241C145.276 125.621 146.157 125.798 147.07 125.695C148.807 125.499 150.005 124.559 151.277 123.282C151.435 123.121 151.593 122.955 151.752 122.786C151.852 122.633 151.991 122.534 152.145 122.483C152.317 122.425 152.51 122.429 152.688 122.491C152.859 122.55 153.012 122.664 153.115 122.815C153.213 122.958 153.268 123.135 153.25 123.339C153.134 124.662 152.442 125.842 151.46 126.769C150.37 127.799 148.924 128.511 147.563 128.761C146.063 129.036 144.535 128.839 143.152 128.274V128.274ZM148.27 107.866C149.866 108.836 152.297 111.099 150.58 113.504C148.56 115.624 145.652 113.193 144.218 112.093C142.889 111.241 141.396 113.433 142.629 114.428C152.986 122.099 157.189 108.12 149.077 106.726C148.184 106.572 147.852 107.566 148.27 107.866ZM129.71 98.943C129.886 96.7542 133.219 96.2571 133.55 98.4231C133.847 100.363 133.497 102.146 132.624 103.892C131.789 105.561 129.691 104.783 129.532 103.263C129.32 101.226 129.6 100.305 129.71 98.943ZM155.076 97.974C155.541 97.3653 156.211 96.9498 157.015 97.1846C159.526 97.9186 158.786 101.485 157.904 103.221C157.425 104.163 155.876 104.402 155.176 103.572C154.035 102.219 153.489 99.5158 154.939 98.1826C154.979 98.1137 155.022 98.0442 155.076 97.974ZM132.589 89.3655L132.985 89.296C134.212 89.0837 135.738 88.8798 136.606 89.8666C137.066 90.3899 137.225 91.3625 136.606 91.8634C135.517 92.7448 134.314 92.4032 133.01 92.4778C131.935 92.5395 130.902 92.7175 129.866 93.0136C127.595 93.6631 125.744 94.8487 123.804 96.1507C123.549 96.3214 123.289 95.9957 123.411 95.7576C124.531 93.5631 126.701 91.7605 128.875 90.6617C130.035 90.0752 131.305 89.5887 132.589 89.3655ZM152.787 88.3825L153.091 88.4446C156.394 89.1354 160.686 90.5154 162.251 93.7616C162.311 94.2207 162.248 94.319 162.196 94.3833L162.179 94.4047C162.137 94.4596 162.103 94.5353 161.904 94.5977C161.849 94.5846 161.794 94.5706 161.737 94.5559C161.02 94.3679 160.453 94.1089 159.903 93.8401L159.308 93.5466C158.617 93.2077 157.92 92.8811 157.181 92.64C155.605 92.1256 153.983 91.7632 152.336 91.5697C151.979 91.5278 151.636 91.4073 151.365 91.2008C151.107 91.0047 150.911 90.7333 150.821 90.3726C150.705 89.9057 150.738 89.5522 150.989 89.131C151.177 88.8147 151.446 88.5954 151.756 88.4695C152.071 88.3412 152.43 88.3109 152.787 88.3825Z" fill="black"/>
<path fill-rule="evenodd" clip-rule="evenodd" d="M172.804 91.7749C172.63 91.7459 172.456 91.7187 172.282 91.6931C172.146 91.616 171.986 91.5566 171.801 91.5208C171.377 91.4133 170.957 91.3408 170.537 91.3017C164.509 89.9446 150.564 91.8715 149.988 97.0174C148.069 97.6585 146.408 97.0844 144.183 97.1415C142.489 90.0602 113.211 91.0597 111.803 95.329C111.798 95.3275 111.792 95.3262 111.787 95.3245C110.434 94.9056 108.439 95.0066 106.891 94.9403C103.584 94.871 100.274 95.1658 97.0388 95.8635C90.9807 96.8266 82.7127 97.9541 86.926 105.522C86.9269 105.523 86.9275 105.525 86.9286 105.526L86.9292 105.526C87.6553 106.27 88.8876 105.671 88.9335 104.663C87.5169 101.077 90.7164 100.647 93.1781 99.6164C99.3034 97.415 105.54 97.1098 111.875 97.7908C112.351 98.3521 113.074 98.8416 113.839 99.0978C118.074 99.8011 115.842 102.944 118.52 103.401C118.028 114.358 131.325 120.339 139.03 113.136C142.106 110.128 142.84 105.671 143.553 101.653C143.93 101.568 144.17 101.362 144.31 101.089C145.217 100.183 145.786 99.3465 147.58 99.0978C149.373 98.8492 150.754 99.3482 150.941 99.501C150.988 99.5959 151.038 99.691 151.097 99.7861C151.179 99.9279 151.291 100.041 151.417 100.13C149.646 111.041 158.113 117.941 166.661 112.282C170.375 108.787 171.16 103.436 171.315 98.6598C171.818 98.3559 172.137 97.7669 171.963 97.0263C171.723 96.0055 172.286 95.1216 173.183 94.6778C174.349 94.1014 174.142 91.9966 172.804 91.7749M136.075 96.9512C135.014 96.7177 134.561 98.3542 135.625 98.5882C136.379 98.754 137.018 99.1342 137.449 99.7784L137.495 99.8484C138.074 100.77 139.538 99.9193 138.955 98.9915C138.299 97.9473 137.28 97.216 136.075 96.9512ZM167.15 95.9364C166.776 95.6728 166.21 95.8685 165.993 96.241C165.754 96.6511 165.91 97.1077 166.261 97.376L166.296 97.4022C166.618 97.6288 166.931 98.0349 166.97 98.451L166.973 98.503C167.015 99.592 168.707 99.5975 168.665 98.503C168.624 97.4324 168.004 96.5379 167.15 95.9364Z" fill="black"/>
</g>
<defs>
<clipPath id="clip0_81_21056">
<rect width="240" height="275" fill="white"/>
</clipPath>
</defs>
</svg>
