<svg width="240" height="275" viewBox="0 0 240 275" fill="none" xmlns="http://www.w3.org/2000/svg">
<g clip-path="url(#clip0_81_21080)">
<rect width="240" height="275" fill="#E7ECED"/>
<path fill-rule="evenodd" clip-rule="evenodd" d="M181.079 176.597C179.238 169.453 177.544 166.425 174.273 163.942C171.213 161.619 166.747 159.669 160.23 158.244C153.442 157.057 153.249 153.528 151.547 147.857C151.051 146.152 148.59 145.698 147.529 146.927C147.379 146.765 147.223 146.617 147.061 146.484C147.206 145.671 146.022 143.34 146.062 142.562C146.474 134.444 143.819 130.367 137.193 128.851C135.752 128.522 125.963 128.327 124.558 128.716C118.415 130.415 112.368 135.808 113.294 142.305C111.365 144.826 109.478 146.364 106.503 147.176C99.883 148.017 93.2633 148.764 86.6412 149.404C73.6786 151.438 61.5251 158.3 53.2185 168.309C52.4523 169.233 52.231 170.487 52.9072 171.472C52.3775 173.741 49.3958 179.246 51.7419 180.801C47.8839 190.03 39.0074 207.868 38.9908 212.964C38.9208 234.373 41.233 262.24 62.3548 274.087C63.2005 274.919 63.3215 275.839 63.6877 277.076C64.6163 280.974 67.9888 283.759 71.68 283.532C89.8639 283.936 107.476 281.717 125.66 281.61C133.68 281.562 143.324 282.76 150.29 283.557C157.256 284.355 164.288 283.649 170.973 281.61C171.537 282.497 172.677 283.015 173.833 282.76C180.763 281.382 186.368 277.111 191.249 272.442C192.741 269.728 198.566 261.995 196.251 259.303C198.35 250.428 198.24 240.892 194.511 232.441C195.039 230.892 194.076 229.189 194.511 227.589C194.825 226.432 195.632 225.953 196.037 224.806C196.608 223.193 195.987 221.029 195.344 219.383C195.081 218.563 195.829 217.68 196.037 216.842C197.024 212.894 194.765 213.242 193.137 210.602C193.161 210.594 193.584 208.709 193.582 208.719C193.832 207.373 193.207 205.65 192.662 204.527C192.294 203.768 191.505 203.293 190.721 203.38C191.511 200.699 192.509 198.469 193.582 195.887C195.481 191.336 197.884 186.977 200.61 182.857C201.726 181.17 200.227 179.216 198.42 179.101C192.573 178.729 186.79 177.887 181.079 176.597Z" fill="white"/>
<path fill-rule="evenodd" clip-rule="evenodd" d="M164.014 211.017C161.675 210.1 159.157 209.593 156.626 209.396C157.988 209.158 159.355 208.927 160.733 208.809C161.694 208.726 162.585 208.735 163.308 209.464C163.79 209.95 164.016 210.576 164.333 211.151C164.229 211.104 164.121 211.06 164.014 211.017ZM189.116 202.441C185.286 202.636 181.452 203.546 177.987 205.197C176.569 205.873 175.285 206.85 174.909 208.456C174.718 209.276 174.765 210.124 174.866 210.952C174.942 211.58 174.961 212.381 175.507 212.806C175.599 212.877 175.699 212.932 175.802 212.972C174.524 213.549 173.307 214.243 172.225 214.957C171.237 215.61 170.221 216.616 169.764 217.751C169.726 217.622 169.688 217.502 169.65 217.388C168.873 215.088 167.675 213.205 165.788 211.939C166.122 211.789 166.352 211.434 166.245 210.944C165.797 208.896 163.906 207.116 161.77 207.243C159.431 207.38 156.919 208.232 154.804 209.308C154.033 209.291 153.264 209.301 152.504 209.335C152.373 209.339 152.379 209.517 152.504 209.532C153.121 209.61 153.737 209.697 154.354 209.798C155.821 210.033 157.283 210.331 158.713 210.7C160.428 211.145 162.203 211.59 163.807 212.366C166.916 213.873 168.841 217.813 168.446 221.241C168.38 221.803 168.163 223.502 167.383 223.327C166.724 223.179 166.462 221.803 166.232 221.293C165.615 219.941 164.504 219.057 163.171 218.459C161.605 217.755 159.93 217.28 158.307 216.726C157.388 216.411 156.469 216.096 155.548 215.783C154.606 215.46 153.71 215.014 152.707 215.24C152.1 215.378 152.03 216.1 152.371 216.515C152.888 217.147 153.657 217.333 154.403 217.593C155.387 217.935 156.37 218.278 157.352 218.62C158.871 219.148 160.462 219.594 161.943 220.241L161.897 220.346C161.776 220.313 161.634 220.433 161.658 220.581C161.88 221.949 162.188 223.529 161.846 224.899C161.576 225.985 160.622 227.188 159.385 226.869C159.579 226.691 159.651 226.385 159.52 226.102C159.03 225.053 152.607 220.915 152.035 222.452C152.016 222.506 152.075 222.547 152.121 222.538C152.609 222.437 153.427 223.269 153.818 223.534C154.382 223.914 154.954 224.286 155.512 224.677C156.123 225.104 156.718 225.552 157.299 226.015C157.756 226.379 158.1 226.757 158.624 226.941C158.349 227.072 158.132 227.315 158.039 227.625C157.802 228.435 157.346 229.122 156.554 229.479C155.723 229.851 154.787 229.616 153.913 229.707C152.721 229.828 151.682 230.394 150.814 231.204C148.99 232.907 148.076 235.908 145.526 236.713C144.002 237.193 142.312 236.891 140.77 236.673C139.048 236.43 137.371 236.238 135.636 236.492C133.976 236.735 132.406 237.309 130.889 238.011C129.467 238.668 127.895 239.413 126.634 240.393C126.374 239.592 126.112 238.799 125.913 237.982C125.445 236.048 125.191 234.078 125.13 232.091C125.073 230.2 125.178 228.3 125.341 226.416C125.421 225.476 125.548 224.54 125.628 223.599C125.649 223.362 125.692 223.109 125.723 222.855C127.976 221.526 130.342 220.507 132.727 219.459C132.733 219.457 132.74 219.452 132.746 219.451C132.82 219.417 132.892 219.385 132.966 219.353C132.964 219.349 132.961 219.345 132.957 219.34C133.23 219.174 133.42 218.952 133.534 218.702C136.971 216.422 139.845 213.309 141.987 209.678C142.885 208.156 143.749 206.577 144.923 205.244C146.174 203.821 147.659 202.976 149.497 202.536C151.646 202.021 153.86 201.712 156.061 201.536C157.264 201.441 158.607 201.293 159.917 201.3C160.83 201.306 161.723 201.384 162.543 201.61C163.758 201.944 164.468 202.868 165.23 203.802C165.959 204.698 166.684 205.597 167.364 206.531C168.008 207.416 168.617 208.331 169.145 209.291C169.462 209.866 169.756 210.458 170.003 211.068C170.09 211.284 170.204 211.529 170.257 211.753C170.309 211.979 170.212 212.218 170.466 212.218C169.42 212.233 169.43 213.905 170.47 213.843C174.539 213.607 168.71 205.66 167.858 204.552C166.652 202.984 165.408 200.938 163.477 200.209C163.449 200.198 163.42 200.188 163.392 200.179C163.954 199.647 164.398 199.009 164.823 198.36C165.26 197.692 165.782 196.927 165.926 196.134C166.016 195.629 165.389 195.342 165.091 195.783C164.658 196.428 164.449 197.244 164.126 197.952C163.796 198.67 163.395 199.349 163.078 200.074C162.315 199.839 161.491 199.732 160.652 199.696C161.711 198.263 163.519 195.498 163.737 195.143C164.738 193.499 165.691 191.804 166.602 190.106C167.586 188.268 168.429 186.353 169.371 184.493C169.906 183.439 170.445 182.375 171.038 181.352C171.243 181.002 171.463 180.651 171.712 180.332C171.761 180.268 171.822 180.216 171.879 180.156C171.945 180.12 172.012 180.08 172.05 180.059C172.392 179.863 172.513 179.406 172.753 179.116C173.138 178.649 173.59 178.594 174.169 178.588C175.403 178.575 176.641 178.624 177.873 178.658C179.683 178.708 181.492 178.78 183.3 178.875C183.847 178.905 184.392 178.935 184.94 178.968C187.57 179.125 190.198 179.33 192.82 179.581C195.14 179.803 197.459 180.165 199.781 180.338C196.637 187.809 193.152 195.145 189.205 202.226C189.165 202.297 189.135 202.369 189.116 202.441ZM171.674 221.688C171.167 221.921 170.675 222.21 170.217 222.54C170.293 222.027 170.312 221.486 170.29 220.942C170.669 221.348 171.152 221.581 171.674 221.688ZM193.319 208.836C193.283 208.84 193.249 208.86 193.232 208.895C192.531 210.343 192.824 211.96 193.969 213.095C194.569 213.687 195.877 214.355 195.835 215.327C195.799 216.113 194.943 216.772 194.578 217.421C194.238 218.026 194.111 218.689 194.384 219.345C194.732 220.184 195.706 220.518 196.04 221.342C196.462 222.388 195.776 223.65 195.294 224.561C194.846 225.404 194.267 226.247 193.883 227.139C191.307 228.473 189.003 230.519 187.021 232.596C184.851 234.868 182.99 237.542 179.544 237.474C179.2 237.468 178.938 237.65 178.781 237.901C177.822 237.946 176.861 237.965 175.902 237.969C174.216 237.977 172.53 237.96 170.846 237.907C170.728 237.5 170.815 236.946 170.808 236.601C170.787 235.492 170.777 234.384 170.73 233.275C170.717 232.966 170.705 232.655 170.692 232.347C171.298 233.444 172.481 233.943 173.829 233.866C175.997 233.74 178.177 233.385 180.323 233.065C181.454 232.898 182.582 232.708 183.708 232.505C184.634 232.341 185.939 232.383 186.586 231.641C186.738 231.468 186.746 231.151 186.507 231.034C185.867 230.719 185.464 230.895 184.76 231.03C183.903 231.197 183.043 231.356 182.181 231.504C180.526 231.791 178.868 232.057 177.205 232.292C176.259 232.425 175.31 232.556 174.362 232.66C173.534 232.748 172.6 232.869 171.932 232.246C170.586 230.986 171.341 228.874 172.192 227.602C172.209 227.577 172.209 227.553 172.203 227.532C173.005 227.344 173.806 227.124 174.605 226.97C176.141 226.674 177.687 226.425 179.236 226.203C182.417 225.749 185.62 225.448 188.819 225.146C189.611 225.07 189.619 223.823 188.819 223.897C184.223 224.318 179.605 224.717 175.072 225.603C173.935 225.822 172.807 226.072 171.685 226.353C171.155 226.484 170.586 226.689 170.031 226.696C169.997 226.696 169.963 226.696 169.929 226.693C168.841 226.66 168.683 225.728 169.281 224.952C169.355 224.857 169.431 224.762 169.509 224.671C170.565 223.411 171.881 222.57 173.238 221.699C174.757 221.492 176.272 221.031 177.759 220.693C181.431 219.856 185.103 219.019 188.777 218.184C189.497 218.019 189.191 216.912 188.47 217.075C185.681 217.707 182.893 218.339 180.104 218.971L176.022 219.896C175.207 220.08 174.188 220.45 173.229 220.583C172.756 220.649 172.298 220.657 171.884 220.56C170.546 220.243 170.479 218.571 171.055 217.578C171.702 216.462 172.923 215.764 174.007 215.132C175.885 214.035 177.884 213.247 179.836 212.338C180.182 212.262 180.529 212.186 180.875 212.11C182.891 211.666 185.193 211.449 187.091 210.635C187.659 210.394 187.348 209.498 186.786 209.51C185.314 209.542 183.774 210.066 182.335 210.377C180.778 210.715 179.219 211.051 177.662 211.387C177.505 211.421 176.58 211.717 176.441 211.651C176.352 211.609 176.32 211.301 176.291 211.098C176.195 210.43 176.126 209.728 176.229 209.058C176.457 207.555 177.71 206.85 178.978 206.273C181.8 204.99 184.896 204.187 187.976 203.865C188.686 203.791 189.396 203.745 190.11 203.722C190.948 203.696 191.639 203.548 192.064 204.375C192.731 205.677 193.099 207.351 193.319 208.836ZM189.399 256.04C188.784 253.912 188.951 251.64 188.53 249.47C188.312 248.35 188.015 247.239 187.691 246.146C187.43 245.263 186.994 244.324 186.944 243.403C186.941 243.341 187.014 243.306 187.063 243.334C187.931 243.831 188.597 244.906 189.092 245.749C189.685 246.758 190.137 247.815 190.502 248.926C191.229 251.14 191.826 253.81 190.888 256.04C190.609 256.704 189.629 256.837 189.399 256.04ZM170.392 227.856C170.912 227.805 171.432 227.706 171.951 227.589C171.37 228.156 170.834 228.838 170.536 229.595C170.489 229.014 170.43 228.435 170.352 227.858C170.365 227.858 170.379 227.858 170.392 227.856ZM165.397 272.149C164.481 271.509 163.813 270.614 163.036 269.825C162.271 269.049 163.466 267.853 164.231 268.63C164.894 269.303 165.47 270.144 166.25 270.689C166.626 270.95 166.8 271.424 166.553 271.845C166.336 272.217 165.772 272.41 165.397 272.149ZM160.286 247.559C161.959 246.835 163.605 246.047 165.356 245.526C166.402 245.214 166.845 246.846 165.805 247.156C164.192 247.636 162.68 248.352 161.139 249.018C160.15 249.446 159.29 247.989 160.286 247.559ZM142.618 247.052C142.208 246.042 143.844 245.607 144.247 246.603C144.712 247.749 145.244 248.865 145.708 250.011C146.116 251.021 144.481 251.457 144.078 250.461C143.614 249.315 143.082 248.198 142.618 247.052ZM125.179 267.219C124.906 267.583 124.452 267.78 124.022 267.523C123.663 267.307 123.443 266.734 123.719 266.366C124.525 265.292 125.341 264.231 126.285 263.273C127.051 262.497 128.245 263.693 127.48 264.469C126.637 265.324 125.898 266.26 125.179 267.219ZM122.685 154.064C123.461 154.594 124.141 155.238 124.803 155.901C125.574 156.671 124.378 157.866 123.608 157.096C123.05 156.538 122.486 155.971 121.832 155.524C121.454 155.266 121.284 154.785 121.529 154.367C121.748 153.993 122.308 153.807 122.685 154.064ZM148.056 181.273C147.618 182.151 147.223 183.012 147.198 184.011C147.171 185.099 145.481 185.099 145.508 184.011C145.54 182.704 146.022 181.571 146.597 180.419C147.083 179.444 148.541 180.302 148.056 181.273ZM157.365 159.42C158.274 158.815 159.119 160.28 158.219 160.88C157.489 161.367 156.758 161.854 156.028 162.341C155.12 162.947 154.275 161.482 155.175 160.881C155.905 160.394 156.635 159.907 157.365 159.42ZM116.989 197.627C116.834 198.701 115.206 198.242 115.359 197.178C115.597 195.533 115.887 193.91 116.333 192.308C116.625 191.259 118.255 191.708 117.963 192.757C117.517 194.359 117.226 195.982 116.989 197.627ZM111.063 216.995C109.975 216.972 109.975 215.281 111.063 215.304C112.048 215.325 113.016 215.584 113.965 215.821C115.022 216.085 114.571 217.716 113.516 217.452C112.713 217.251 111.896 217.013 111.063 216.995ZM108.876 256.01C108.502 256.192 108.119 256.356 107.741 256.529C106.984 256.875 106.228 257.221 105.472 257.569C103.897 258.292 102.324 259.017 100.751 259.746C97.6032 261.203 94.431 262.61 91.2755 264.051C88.0577 265.522 84.8483 267.012 81.6429 268.51C80.1328 269.215 78.6112 269.894 77.0927 270.581C75.7942 271.169 74.1892 272.195 72.7638 272.292C72.6905 272.297 72.666 272.204 72.7078 272.156C73.2463 271.544 74.1053 271.187 74.8131 270.789C75.536 270.382 76.2725 269.999 77.0056 269.611C78.5339 268.801 80.0641 267.997 81.6072 267.216C84.6939 265.653 87.7864 264.102 90.8796 262.553C94.0342 260.972 97.1848 259.381 100.367 257.857C101.865 257.14 103.365 256.424 104.866 255.711C105.679 255.325 106.492 254.939 107.306 254.554C107.657 254.387 108.005 254.208 108.364 254.059C108.841 253.862 109.204 253.902 109.696 253.78C110.499 253.582 110.846 254.603 110.23 255.048C109.723 255.414 109.456 255.727 108.876 256.01ZM97.5924 273.348C97.4189 272.926 97.7821 272.413 98.1827 272.307C98.6625 272.181 99.0472 272.473 99.2223 272.898C99.6856 274.026 100.346 275.06 101.195 275.934C101.954 276.715 100.76 277.911 100 277.129C98.9354 276.034 98.1706 274.754 97.5924 273.348ZM89.2915 246.208C88.5211 245.437 89.7164 244.242 90.4867 245.012L92.6771 247.203C93.4476 247.974 92.252 249.17 91.482 248.399L89.2915 246.208ZM66.8189 242.635C65.2442 243.097 63.4074 243.522 62.3337 244.866C62.2813 244.932 62.1932 244.848 62.2247 244.782C63.5992 241.931 67.5411 240.932 70.2702 239.933C72.2006 239.226 74.1812 238.64 76.1785 238.117C75.9789 235.838 76.5294 233.395 76.7209 231.127C76.9251 228.705 77.0914 226.277 77.1768 223.848C77.264 221.37 77.2851 218.875 77.2036 216.396C77.1225 213.926 76.802 211.487 76.6617 209.026C76.6482 208.788 76.9794 208.776 77.0509 208.973C77.8803 211.257 78.2346 213.787 78.5046 216.196C78.7826 218.677 78.8749 221.15 78.8394 223.646C78.8027 226.212 78.6535 228.771 78.4488 231.329C78.3518 232.541 78.2392 233.752 78.133 234.963C78.0518 235.888 78.0142 236.805 77.8258 237.7C79.0304 237.404 80.2378 237.124 81.4414 236.852C85.2793 235.986 89.1332 235.182 92.9551 234.245C94.8311 233.785 96.6804 233.235 98.548 232.746C100.307 232.285 102.163 231.727 103.968 231.521C104.613 231.448 104.695 232.329 104.268 232.629C102.801 233.659 100.852 234.377 99.1566 234.954C97.4555 235.533 95.6872 235.95 93.9436 236.378C90.3075 237.273 86.6369 238.005 82.9718 238.766C79.3118 239.528 75.6449 240.283 72.0261 241.222C70.2833 241.674 68.5465 242.128 66.8189 242.635ZM58.1894 197.402C57.2484 197.954 56.3989 196.492 57.3365 195.942C58.5634 195.221 59.8709 194.68 61.189 194.152C62.2005 193.747 62.6358 195.383 61.6384 195.783C60.4538 196.257 59.2918 196.754 58.1894 197.402ZM54.7819 260.218C53.8384 260.765 52.9882 259.304 53.929 258.758C55.2503 257.992 56.6972 257.481 58.0665 256.81C59.0406 256.333 59.8962 257.792 58.9193 258.27C57.5503 258.941 56.1032 259.452 54.7819 260.218ZM53.2494 224.56C54.1617 225.427 55.3792 225.836 56.5273 226.291C57.5282 226.688 57.0892 228.322 56.0779 227.921C54.6476 227.354 53.1907 226.836 52.0543 225.756C51.2637 225.005 52.461 223.811 53.2494 224.56ZM63.3419 176.135C64.3448 176.528 63.9056 178.163 62.8926 177.765C61.769 177.325 60.6088 176.989 59.4852 176.548C58.4826 176.155 58.9216 174.52 59.9346 174.918C61.0581 175.358 62.2184 175.694 63.3419 176.135ZM81.146 156.9C82.2116 156.721 82.6654 158.35 81.5954 158.531C80.2677 158.755 78.9604 159.017 77.7013 159.505C76.6844 159.898 76.2482 158.263 77.2519 157.874C78.5113 157.387 79.8186 157.125 81.146 156.9ZM87.0288 203.732C86.0517 203.251 86.909 201.794 87.8817 202.272C88.9067 202.776 89.9688 203.166 91.0872 203.404C92.1522 203.631 91.6987 205.261 90.6379 205.035C89.3791 204.766 88.1815 204.299 87.0288 203.732ZM92.5851 177.352C93.6372 177.064 94.0821 178.695 93.0345 178.983C91.1912 179.488 89.2934 179.751 87.4365 180.2C86.3783 180.456 85.9306 178.826 86.9872 178.57C88.844 178.12 90.742 177.858 92.5851 177.352ZM116.155 169.074C117.225 169.272 116.769 170.901 115.706 170.705C114.574 170.495 113.427 170.492 112.28 170.491C111.191 170.491 111.193 168.8 112.28 168.8C113.583 168.801 114.87 168.836 116.155 169.074ZM193.027 177.907C190.266 177.643 187.5 177.432 184.731 177.273C184.602 177.267 184.475 177.259 184.346 177.252C184.331 177.223 184.312 177.195 184.293 177.165C183.389 175.838 182.724 174.511 182.147 173.01C181.595 171.582 181.061 170.109 180.212 168.819C179.243 167.351 177.935 166.201 176.502 165.205C175.633 165.79 174.826 166.475 174.088 167.2C173.311 167.964 172.115 166.769 172.892 166.005C173.548 165.36 174.249 164.764 174.989 164.226C174.134 163.706 173.262 163.218 172.412 162.732C169.223 160.913 165.959 159.23 162.628 157.692C161.079 156.975 159.512 156.339 157.933 155.694C157.084 155.348 156.245 154.902 155.396 154.5C155.457 153.9 155.278 153.228 154.817 152.833C154.477 152.543 154.213 152.435 153.807 152.231C153.717 152.199 153.662 152.18 153.636 152.169C153.655 152.173 153.71 152.19 153.801 152.22C154.017 152.319 154.033 152.29 153.852 152.133C153.841 151.791 153.167 151.068 153.013 150.715C152.476 149.504 152.309 148.223 151.517 147.12C150.425 145.6 148.591 145.026 146.882 145.541C146.705 143.713 146.658 141.805 145.969 140.173C145.95 140.129 145.889 140.109 145.862 140.158C145.143 141.382 145.082 142.745 145.027 144.157C144.974 145.482 145.025 146.837 145.198 148.153C145.088 148.238 144.976 148.318 144.86 148.396C144.315 148.756 143.728 149.033 143.111 149.238C141.936 149.626 140.705 149.796 139.473 149.855C136.293 150.007 133.017 149.686 129.89 149.14C126.727 148.589 121.878 147.76 119.064 146.177C117.207 145.133 115.494 143.859 113.757 142.624C114.387 140.595 114.548 138.414 113.914 136.7C113.838 136.495 113.517 136.457 113.455 136.7C113.058 138.336 112.942 139.98 112.414 141.597C112.405 141.621 112.397 141.646 112.388 141.669C112.224 141.557 112.059 141.447 111.894 141.337C111.514 141.086 110.996 141.274 110.768 141.633C107.119 147.384 101.341 147.714 95.2736 148.741C88.6332 149.865 81.9595 151.078 75.575 153.279C69.4693 155.384 63.6341 158.448 59.0116 163.026C57.9652 164.063 56.9866 165.167 56.0629 166.32C56.9566 166.433 57.8429 166.608 58.7177 166.883C59.7536 167.209 59.3084 168.84 58.2684 168.513C57.144 168.16 56.0072 167.985 54.8587 167.898C51.7178 172.197 49.2688 177.071 47.151 181.868C43.089 191.066 40.445 200.862 39.2283 210.835C39.8963 210.434 40.5764 210.053 41.2734 209.698C42.2418 209.205 43.096 210.664 42.1265 211.158C41.0498 211.706 40.0041 212.31 38.9908 212.964C38.5482 217.33 38.3767 221.723 38.4806 226.11C38.7278 236.568 40.1391 247.332 43.3313 257.309C44.8968 262.206 46.9715 267.063 50.0623 271.202C51.4609 273.076 53.0496 274.767 54.9215 276.177C55.8278 276.861 56.787 277.472 57.7989 277.988C59.1024 278.656 60.801 278.876 61.925 279.82C62.2947 280.131 62.5799 280.541 62.7954 281.004C62.6708 281.883 62.656 282.764 62.8968 283.644C62.9729 283.919 63.1799 284.142 63.4355 284.25C63.4398 284.326 63.4398 284.4 63.4398 284.472C63.4398 284.506 63.4905 284.514 63.4968 284.481C63.5074 284.415 63.5179 284.35 63.5285 284.282C63.6109 284.309 63.6975 284.322 63.7862 284.322C66.9954 284.334 70.2086 284.256 73.422 284.147C73.1735 283.386 72.9043 282.631 72.646 281.869C72.295 280.835 73.9279 280.395 74.2757 281.42C74.578 282.31 74.8941 283.192 75.1753 284.086C78.6183 283.958 82.0603 283.804 85.4961 283.69C92.8039 283.447 100.109 283.367 107.419 283.213C118.771 282.972 130.205 282.479 141.574 282.961C141.967 282.126 142.407 281.311 142.825 280.487C143.317 279.516 144.775 280.372 144.284 281.341C143.994 281.913 143.694 282.478 143.408 283.049C145.711 283.169 148.011 283.327 150.306 283.542C154.223 283.91 158.102 284.563 162.015 284.969C165.993 285.383 169.885 285.309 173.831 284.652C174.541 284.534 174.959 284.104 175.133 283.572C175.139 283.57 175.143 283.566 175.147 283.559C175.35 283.322 175.54 283.126 175.737 282.955C175.971 282.803 176.225 282.674 176.523 282.559C177.078 282.348 177.657 282.219 178.245 282.133C178.891 282.036 179.546 282.027 180.193 281.947C180.737 281.877 181.27 281.773 181.802 281.647C182.759 281.418 183.668 281.12 184.572 280.725C185.36 280.381 186.072 279.886 186.744 279.347C188.134 278.33 189.338 277.033 190.39 275.684C191.003 274.896 191.58 274.078 192.104 273.226C193.017 271.751 193.794 270.219 194.58 268.674C194.865 268.216 195.125 267.747 195.363 267.268C193.827 266.816 192.277 266.447 190.648 266.421C189.56 266.403 189.56 264.712 190.648 264.73C192.516 264.76 194.282 265.196 196.037 265.716C196.123 265.489 196.205 265.26 196.281 265.028C196.49 264.544 196.663 264.047 196.807 263.544C196.891 263.316 196.976 263.088 197.06 262.86C197.25 262.069 197.44 261.276 197.633 260.484C198.015 259.216 198.317 257.929 198.539 256.625C198.725 255.767 198.869 254.902 198.966 254.027C199.262 251.907 199.502 249.792 199.519 247.649C199.494 246.328 199.409 245.009 199.266 243.696C199.205 242.804 199.101 241.917 198.962 241.035C198.78 239.725 198.6 238.428 198.298 237.134C198.072 236.259 197.846 235.384 197.62 234.509C197.056 232.685 196.39 230.897 195.623 229.149C195.581 229.039 195.368 228.798 195.239 228.796C195.142 228.794 195.006 228.883 195.051 229.001C195.055 229.012 195.059 229.024 195.064 229.035C195.019 228.936 194.977 228.834 194.933 228.735C194.895 228.642 194.747 228.456 194.633 228.458C194.626 228.458 194.62 228.458 194.612 228.46C194.641 228.439 194.669 228.412 194.696 228.38C195.455 227.482 195.947 226.3 196.49 225.26C196.94 224.402 197.364 223.498 197.487 222.528C197.594 221.676 197.449 220.837 196.914 220.148C196.306 219.364 195.161 218.996 195.797 217.863C196.519 216.574 197.582 215.456 196.524 213.991C195.985 213.245 195.131 212.835 194.498 212.186C193.769 211.436 193.422 210.432 193.441 209.407C193.486 209.432 193.545 209.42 193.566 209.356C194.178 207.505 193.735 205.472 193.107 203.669C192.765 202.69 192.04 202.422 191.198 202.373C194.848 195.24 198.264 187.993 201.309 180.579C201.41 180.336 201.509 180.093 201.609 179.85C201.757 179.486 201.444 179.002 201.083 178.922C198.45 178.345 195.708 178.161 193.027 177.907Z" fill="black"/>
<path fill-rule="evenodd" clip-rule="evenodd" d="M163.535 85.4321C161.623 77.3683 157.442 69.8641 150.75 63.7993C130.61 43.8804 93.6248 54.692 93.7923 84.7084C93.07 88.2143 92.7768 91.8191 93.0159 95.3945C93.1148 96.92 93.7748 99.049 92.8881 100.422C90.888 102.99 89.7256 104.884 90.4064 108.3C90.9751 111.284 93.0045 113.397 95.7434 114.521C97.386 114.992 98.9445 116.019 99.553 117.585C103.209 124.281 105.918 129.851 111.682 134.415C113.169 135.59 128.424 142.637 133.45 142.637C148.165 142.637 166.712 137.304 167.019 120.861C167.073 117.25 166.439 113.596 166.042 110.013C165.074 101.836 165.416 93.3636 163.535 85.4321Z" fill="white"/>
<path fill-rule="evenodd" clip-rule="evenodd" d="M163.204 81.3989C163.209 81.2991 163.352 81.2767 163.379 81.3752C163.926 83.3165 164.236 85.2941 164.664 87.2655C165.076 89.1645 165.465 91.069 165.788 92.9847C166.399 96.6001 166.914 100.225 167.393 103.859L167.512 104.768C168.344 111.163 169.718 117.825 168.516 124.257C167.491 129.746 164.053 134.169 159.623 137.412C155.429 140.483 150.343 142.454 145.293 143.574C139.873 144.777 133.449 145.136 129.039 141.16C127.274 139.568 129.68 136.409 131.595 137.846C136.092 141.219 141.813 140.224 146.888 138.882L147.041 138.841C151.495 137.655 155.978 135.856 159.514 132.821C163.423 129.466 165.356 124.81 165.579 119.703C165.705 116.833 165.437 113.967 165.149 111.115L165.117 110.798C164.786 107.536 164.438 104.275 164.118 101.012C163.825 98.0365 163.573 95.0435 163.44 92.0546L163.377 90.547C163.248 87.5076 163.073 84.4237 163.204 81.3989ZM110.463 56.1442C117.781 52.3329 126.191 50.9688 134.335 52.2479C142.164 53.4776 149.349 57.519 154.72 63.314C157.342 66.1434 159.669 69.4161 161.156 72.9915C161.895 74.7677 162.474 76.6206 162.782 78.5236C162.94 79.502 163.096 80.5156 163.126 81.5075C163.153 82.4258 162.883 83.2871 162.915 84.2206C162.92 84.3666 162.697 84.3947 162.663 84.2548C162.408 83.2139 161.795 82.4269 161.411 81.4382C161.123 80.6999 160.797 79.9792 160.465 79.2607L160.18 78.645C159.353 76.8555 158.363 75.1395 157.384 73.4297C155.413 69.9859 152.885 66.8563 149.923 64.2154C144.724 59.5788 138.054 56.5859 131.093 56.047C123.867 55.4873 116.539 57.2102 110.368 61.0268C104.198 64.8431 99.532 70.7757 97.1096 77.6064C95.8874 81.0533 95.2124 84.6448 95.0554 88.2965C94.976 90.1449 95.0501 92.0088 95.1796 93.8537L95.244 94.7335C95.3193 95.7885 95.371 96.8395 95.2134 97.869C96.3264 97.5217 97.493 97.3778 98.6639 97.5496C100.404 97.8049 101.443 98.5184 102.224 100.074C102.264 100.155 102.183 100.236 102.102 100.195C101.09 99.6904 99.4529 99.9562 98.3814 100.221C97.2663 100.497 96.262 100.976 95.3144 101.624C93.5615 102.822 92.1874 104.679 91.8503 106.809C91.5243 108.867 92.3687 110.95 93.7872 112.425C94.5173 113.185 95.3901 113.841 96.3672 114.25C97.553 114.747 98.7268 114.732 99.776 115.552C100.425 116.059 100.268 116.927 99.8279 117.49C102.041 119.918 104.004 122.574 106.218 125.012C107.243 126.141 108.261 127.273 109.244 128.439L109.611 128.878C110.593 130.063 112.154 131.315 112.603 132.805C112.882 133.732 111.889 134.945 110.886 134.523C109.347 133.874 108.248 132.188 107.209 130.894L107.141 130.81C106.05 129.47 105.082 128.054 104.197 126.571L103.906 126.083C102.305 123.39 100.718 120.597 99.6974 117.638C99.63 117.707 99.5586 117.771 99.4834 117.824C98.0129 118.87 95.8753 118.066 94.4068 117.387C93.0205 116.745 91.7495 115.781 90.7589 114.618C88.6044 112.09 87.6112 108.816 88.3308 105.535C88.9403 102.755 90.866 100.052 93.3906 98.6457C92.2253 97.3036 91.7427 95.4944 91.4216 93.7256C91.0117 91.4678 90.93 89.1539 91.0413 86.8644C91.2634 82.3041 92.4365 77.8089 94.2501 73.633C97.4947 66.1611 103.231 59.9111 110.463 56.1442ZM95.061 106.004C96.5969 105.716 98.0283 105.647 99.5097 106.297C101.117 107.002 102.247 108.167 103.299 109.532C104.495 111.085 101.429 112.781 100.656 110.72L100.634 110.656C100.427 110.046 100.056 109.456 99.5861 108.913C99.4452 109.129 99.2568 109.319 99.0354 109.428C98.7673 109.56 98.3578 109.469 98.2934 109.126C98.222 108.746 98.301 108.285 98.5203 107.963L98.5503 107.919V107.919C97.4847 107.062 96.2029 106.435 95.061 106.233C94.9469 106.213 94.9482 106.025 95.061 106.004Z" fill="black"/>
<path fill-rule="evenodd" clip-rule="evenodd" d="M132.111 117.319C132.155 117.278 132.225 117.263 132.279 117.297C133.193 117.875 133.301 119.82 133.312 120.943C133.69 121.041 134.063 121.153 134.417 121.231C135.167 121.398 135.921 121.542 136.674 121.695L137.238 121.811C139.124 122.209 141.045 122.503 142.966 122.651C144.831 122.793 146.751 122.846 148.61 122.605C149.409 122.502 150.203 122.329 150.975 122.099C151.887 121.827 152.613 121.376 153.462 120.981C155.586 119.991 157.366 122.891 155.322 124.164C153.567 125.256 151.173 125.65 149.147 125.819C147.077 125.992 145.015 125.802 142.969 125.474C140.758 125.12 138.592 124.576 136.495 123.787C135.608 123.453 134.75 123.048 133.912 122.606L133.684 122.485C133.544 122.41 133.399 122.334 133.253 122.257C133.096 123.658 132.644 125.01 132.097 126.311L132.085 126.288C131.786 127.314 130.706 127.949 129.631 127.495C128.37 126.964 128.274 125.569 129.008 124.578L129.043 124.532C129.906 123.422 130.446 122.044 130.916 120.731C131.157 120.058 131.38 119.368 131.574 118.68C131.714 118.182 131.719 117.681 132.111 117.319ZM164.611 106.165C163.863 108.425 162.233 110.166 159.962 110.931C157.711 111.689 155.207 111.413 152.907 111.003C152.403 110.913 151.893 110.814 151.384 110.698C151.801 110.957 152.169 111.32 152.521 111.705C153.042 112.273 153.514 112.872 153.658 113.583C153.8 114.289 153.576 114.826 153.167 115.231C152.539 115.854 151.525 116.19 150.666 116.376C148.743 116.791 146.817 116.727 144.904 116.3C144.415 116.192 144.084 115.93 143.898 115.588C143.672 115.172 143.654 114.656 143.783 114.186C143.913 113.716 144.193 113.282 144.599 113.043C144.933 112.845 145.352 112.791 145.826 112.949C146.779 113.266 147.725 113.476 148.732 113.501C149.158 113.51 149.587 113.498 150.012 113.459C150.252 113.437 150.492 113.406 150.731 113.368C150.591 113.181 150.454 112.99 150.321 112.797C150.163 112.569 150.009 112.339 149.863 112.104C149.439 111.425 149.086 110.727 148.776 109.99C148.677 109.754 148.584 109.517 148.496 109.279C148.483 109.245 148.47 109.211 148.458 109.176C148.43 109.154 148.403 109.131 148.376 109.107C147.77 108.582 147.261 107.936 146.901 107.135C145.927 104.965 146.086 102.272 146.677 100.019C147.151 98.2129 148.196 96.5427 149.577 95.4079C149.818 95.011 149.977 94.7703 150.172 94.5675C150.966 93.7414 152.074 93.1842 153.155 92.8453C155.569 92.088 158.198 92.6313 160.244 94.0732C162.134 95.4045 163.613 97.4011 164.412 99.6218C165.169 101.725 165.317 104.032 164.611 106.165ZM131.729 92.43C134.6 92.4055 137.521 93.2534 139.851 94.9504C142.08 96.5742 143.829 98.9715 143.827 101.827C143.825 104.607 142.34 107.341 140.692 109.494C138.842 111.91 136.426 113.075 133.387 113.102C131.807 113.116 130.216 112.976 128.648 112.784L127.806 112.678C126.648 112.529 125.477 112.352 124.379 111.953C119.151 110.056 118.989 103.211 120.925 98.8356C122.42 95.4574 126.204 92.1629 129.977 92.5583C130.545 92.4786 131.129 92.4353 131.729 92.43ZM136.578 95.6491C132.983 94.0348 128.615 94.5182 125.127 96.2409C123.746 97.7487 122.736 99.6489 122.327 101.393C121.891 103.256 121.955 105.262 122.611 107.066C123.412 109.27 125.384 109.815 127.512 110.154L128.338 110.284L128.684 110.336C130.774 110.648 133.06 110.891 135.069 110.5C137.308 110.065 138.73 108.256 139.849 106.4L139.901 106.313C141.063 104.37 142.036 102.006 141.061 99.7785C140.232 97.8854 138.422 96.4772 136.578 95.6491ZM157.798 96.2116C156.564 95.5277 155.157 95.4034 153.825 95.8612C153.252 96.0581 152.756 96.3773 152.276 96.7351L152.085 96.8801C151.494 97.3336 150.942 97.5633 150.499 98.1758L150.442 98.2579C150.219 98.5918 149.828 98.7254 149.471 98.681C149.056 99.8259 148.885 101.064 148.881 102.283L148.882 102.444L148.884 102.609C148.911 104.05 149.162 105.812 150.295 106.778C151.328 107.658 152.893 107.87 154.291 107.992L155.367 108.082L155.654 108.104C157.126 108.206 158.74 108.171 159.974 107.299C161.049 106.54 161.556 105.25 161.688 103.977C161.998 100.97 160.477 97.6963 157.798 96.2116ZM130.942 96.4894C132.921 95.4783 135.3 95.7317 136.977 96.999C136.828 97.0282 136.681 97.0654 136.535 97.1387C136.154 97.3295 135.918 97.7117 135.828 98.1183C135.727 98.578 135.965 99.0132 136.419 99.1581C136.813 99.2841 137.281 99.3418 137.648 99.1019C137.84 98.9764 137.974 98.8109 138.062 98.6025L138.074 98.5719L138.09 98.5494L138.096 98.5388C138.097 98.5348 138.09 98.5425 138.079 98.5596C138.09 98.5336 138.101 98.5076 138.111 98.4812C138.127 98.4497 138.141 98.418 138.153 98.3852C138.175 98.3668 138.194 98.3463 138.214 98.3258C138.519 98.7948 138.758 99.3245 138.91 99.9137C139.884 103.696 135.887 107.621 132.316 108.014C130.967 108.162 129.736 107.84 128.715 107.207C128.724 107.194 128.734 107.183 128.743 107.17C129.153 107.244 129.643 107.06 129.792 106.602C130.172 105.435 129.782 104.069 128.51 103.687C127.692 103.442 126.854 103.713 126.269 104.273C125.827 103.189 125.669 101.97 125.878 100.749C126.173 99.0254 127.212 97.4726 128.829 96.7557C129.617 96.4064 130.295 96.333 130.942 96.4894ZM151.791 98.8229L151.852 98.7279C152.464 97.7861 153.633 96.6308 154.845 96.9484C155.015 96.993 155.182 97.0649 155.333 97.1581C155.998 97.0676 156.696 97.219 157.268 97.5713L157.253 97.6108C157.25 97.6174 157.248 97.6241 157.246 97.6311C157.194 97.8602 157.224 98.072 157.331 98.2825C157.447 98.5105 157.613 98.7267 157.837 98.8576C157.99 98.9472 158.171 98.9943 158.348 98.9907C158.608 98.9861 158.836 98.8717 159.024 98.6971C159.126 98.6025 159.197 98.4636 159.236 98.3207C159.329 98.4095 159.419 98.5084 159.504 98.6206C160.909 100.469 160.715 103.439 159.067 105.087C159 105.153 158.929 105.213 158.859 105.275C158.19 106.196 157.159 106.822 155.919 106.949C154.772 107.066 153.625 106.727 152.745 106.031C152.816 105.993 152.882 105.944 152.939 105.88C153.089 105.71 153.213 105.542 153.304 105.334C153.327 105.282 153.349 105.229 153.37 105.176L153.401 105.096C153.406 105.081 153.453 104.946 153.441 104.97L153.438 104.975L153.454 104.936C153.612 104.543 153.548 104.094 153.174 103.847L153.133 103.821C153.011 103.75 152.86 103.716 152.707 103.716C152.325 103.249 151.757 103.142 151.224 103.278L151.205 103.127C151.203 103.102 151.2 103.077 151.198 103.052C150.785 101.682 150.985 100.125 151.791 98.8229ZM133.454 85.0323L133.591 85.0109C134.628 84.861 135.333 85.0336 136.008 85.9202C136.329 86.3427 136.23 86.9807 136.008 87.4125C135.29 88.8076 133.315 88.5191 131.985 88.7962C130.686 89.0665 129.391 89.4345 128.175 89.9701C126.935 90.5166 125.772 91.1631 124.637 91.9014C123.61 92.5695 122.679 93.5736 121.506 93.9623C121.453 93.9798 121.39 93.9325 121.393 93.8765C121.477 92.5422 122.591 91.3174 123.454 90.3672C124.452 89.2684 125.665 88.2928 126.929 87.5171C128.234 86.717 129.644 86.0582 131.104 85.5987C131.872 85.3567 132.659 85.1644 133.454 85.0323ZM149.251 86.8439C150.557 84.934 153.803 85.3002 155.718 85.8107C158.119 86.4502 160.721 87.7439 162.405 89.6164C163.913 91.2939 161.657 93.4734 159.961 92.0618L159.508 91.6863L159.218 91.4483C157.916 90.3844 156.627 89.4216 155.04 88.7123C153.18 87.881 151.295 87.4761 149.328 87.0331C149.251 87.0158 149.206 86.9109 149.251 86.8439Z" fill="black"/>
<path fill-rule="evenodd" clip-rule="evenodd" d="M129.449 129.598C131.159 125.59 134.892 122.644 139.191 121.566C142.347 120.777 145.66 120.803 148.877 121.116C150.563 121.279 152.371 121.412 153.96 122.038C155.316 122.573 156.422 123.585 157.253 124.772C158.243 126.179 158.916 127.789 159.388 129.439C159.456 129.674 159.519 129.91 159.578 130.148C159.372 131.393 158.936 132.453 157.783 133.235C156.658 134 155.316 134.313 153.978 134.424C153.846 134.361 153.719 134.296 153.603 134.229C151.518 133.035 150.05 130.213 147.419 130.595C145.07 130.936 143.524 133.893 142.127 135.626C137.644 136.149 133.163 134.801 129.515 132.236C129.33 131.359 129.319 130.473 129.449 129.598M162.625 126.557C162.266 125.551 161.814 124.575 161.279 123.657C159.509 120.619 156.791 118.198 153.565 116.814C145.934 113.546 136.059 115.85 129.897 121.211C127.791 123.044 125.663 125.737 125.019 128.634C124.827 128.672 124.645 128.772 124.496 128.913C120.043 126.108 115.458 123.41 111.87 119.523C109.264 116.698 107.452 113.355 106.342 109.682C106.251 109.38 105.764 109.424 105.779 109.759C105.783 109.837 105.787 109.915 105.791 109.993C105.745 109.849 105.525 109.923 105.508 110.063C104.911 114.525 104.164 119.256 104.852 123.741C105.264 126.418 106.479 128.377 108.104 130.493C109.844 132.761 111.815 134.87 113.83 136.893C115.108 138.177 116.444 139.658 118.009 140.6C119.83 141.694 121.896 142.525 123.839 143.369C125.816 144.23 127.822 145.026 129.867 145.716C133.954 147.099 138.178 148.056 142.476 148.475C145.917 148.809 149.85 149.173 153.147 147.878C155.675 146.886 157.715 145.092 159.333 142.933C161.095 140.583 162.488 137.905 163.258 135.082C164.058 132.149 162.793 127.03 162.625 126.557" fill="black"/>
</g>
<defs>
<clipPath id="clip0_81_21080">
<rect width="240" height="275" fill="white"/>
</clipPath>
</defs>
</svg>
