<svg width="240" height="275" viewBox="0 0 240 275" fill="none" xmlns="http://www.w3.org/2000/svg">
<g clip-path="url(#clip0_81_21020)">
<rect width="240" height="275" fill="#E7ECED"/>
<path fill-rule="evenodd" clip-rule="evenodd" d="M186.455 183.12C183.523 169.222 173.122 158.437 159.135 153.064C156.446 151.542 153.84 145.015 150.226 143.819C149.647 143.628 150.561 145.153 150.226 145.244C149.031 145.569 147.692 145.603 146.373 144.429C144.015 142.333 143.275 136.207 141.841 133.439C134.28 118.837 115.4 124.55 112.871 140.692C111.107 141.842 108.614 142.855 106.695 143.781C104.718 144.735 102.979 147.047 100.942 147.873C99.1242 148.61 96.1292 148.088 94.2976 148.731C85.8735 151.687 78.7386 155.417 73.1448 162.975C71.9661 164.569 70.6375 166.528 69.5649 168.139C64.0351 174.507 60.1943 181.645 56.6568 189.302C46.7598 211.78 44.0678 236.667 41.6526 260.885C41.7075 265.122 38.8968 276.872 43.0539 278.904C42.8055 279.161 42.8955 279.679 43.3565 279.674C53.8973 279.568 64.4135 280.512 74.7908 282.346C79.7976 283.232 84.7776 284.446 89.8776 284.645C100.464 284.572 111.013 282.797 121.586 284.477C134.296 284.477 149.743 284.106 163.884 283.562C177.099 283.054 190.385 284.202 203.437 281.954C204.47 281.79 204.974 280.53 204.758 279.626C203.226 274.045 202.475 268.3 201.615 262.587C201.787 258.922 201.48 255.097 200.125 251.684C196.585 228.643 192.045 205.752 186.455 183.12Z" fill="white"/>
<path fill-rule="evenodd" clip-rule="evenodd" d="M182.191 213.406C181.912 214.761 181.521 216.116 181.001 217.399C180.501 218.637 179.747 219.747 179.227 220.97C179.157 221.135 179.043 221.26 178.906 221.355L178.949 221.688V221.688L178.988 222.021C179.247 224.267 179.539 226.507 179.791 228.753L179.914 229.877C180.41 234.567 181.194 239.233 181.802 243.91C182.398 248.49 183.005 253.07 183.653 257.644C184.323 262.359 185.005 267.068 185.801 271.764C186.138 273.748 186.489 275.729 186.854 277.71L187.137 279.225C190.044 279.925 190.838 283.978 187.878 285.475C186.535 286.151 184.809 285.988 183.701 284.925C182.551 283.818 182.503 281.82 182.236 280.32L181.979 278.925C180.054 268.442 178.383 257.837 177.602 247.205C177.401 244.46 177.232 241.713 177.123 238.963C177.018 236.376 177.068 233.79 177.028 231.204L177.015 230.498C176.954 227.74 177.004 224.986 177.076 222.228C177.085 221.892 177.099 221.556 177.116 221.218C177.019 221.104 176.949 220.968 176.92 220.837L176.882 220.664C176.787 220.218 176.894 219.696 177.237 219.377C177.385 217.498 177.579 215.621 177.632 213.744C177.636 213.59 177.858 213.595 177.871 213.744C177.995 215.342 178.244 216.944 178.494 218.544C180.097 217.255 181.282 215.129 181.982 213.349C182.032 213.22 182.221 213.267 182.191 213.406ZM144.251 138.711C144.517 139.928 145.044 141.021 145.749 142.038C146.085 142.524 146.467 142.976 146.926 143.354C147.319 143.677 147.767 143.889 148.185 144.17C148.794 144.075 149.429 144.305 149.856 144.753L149.789 144.098C149.767 143.887 150.118 143.845 150.159 144.049C152.007 153.375 153.693 162.706 155.152 172.098L155.791 176.246L156.393 180.14C157.392 186.629 158.359 193.115 159.087 199.651C160.056 208.374 160.872 217.12 161.467 225.878C162.065 234.698 162.433 243.524 162.695 252.36C162.76 254.588 162.83 256.813 162.898 259.041L163.349 256.378C163.799 253.714 164.241 251.048 164.62 248.372C165.978 238.796 167.064 229.152 167.594 219.493C168.08 210.655 167.918 201.64 165.67 193.03C165.103 190.864 164.41 188.731 163.574 186.653C162.763 184.633 161.656 182.76 160.783 180.77C159.769 178.453 159.465 176.268 159.987 173.774C160.443 171.601 161.244 169.558 161.387 167.321C161.656 163.17 160.306 159.15 158.398 155.518C157.895 154.56 157.365 153.615 156.811 152.679C155.136 149.849 153.247 147.122 151.287 144.508C151.181 144.369 151.405 144.214 151.519 144.329C153.306 146.096 155.26 147.833 156.868 149.762C157.65 150.701 158.413 151.658 159.135 152.641C167.062 153.966 173.873 158.905 178.529 165.428C183.813 172.829 186.486 181.738 188.463 190.511C190.663 200.26 192.518 210.099 194.493 219.897C196.538 230.035 198.572 240.174 200.63 250.31C201.653 255.342 202.675 260.375 203.696 265.409C204.213 267.958 204.756 270.501 205.325 273.041C205.616 274.343 205.929 275.643 206.199 276.949C206.503 278.422 206.22 279.364 205.223 280.447C204.856 280.848 204.275 280.842 203.818 280.628L203.676 280.561L203.538 280.495C202.973 280.217 202.53 279.929 202.179 279.312C201.792 278.633 201.731 277.881 201.598 277.126C201.353 275.738 201.11 274.349 200.865 272.959C200.499 270.879 200.101 268.805 199.695 266.732L197.662 256.371C197.12 253.608 196.577 250.846 196.031 248.085C194.081 238.21 192.129 228.338 190.177 218.466C188.303 208.987 186.644 199.442 184.511 190.018L184.389 189.487L184.266 188.957C182.358 180.833 179.692 172.974 174.856 166.089C171.133 160.795 165.963 156.067 159.875 153.674C160.304 154.292 160.716 154.921 161.109 155.564C163.576 159.597 165.378 164.384 164.956 169.186C164.749 171.532 163.857 173.837 163.941 176.202C164.02 178.303 165.319 180.148 166.217 181.976C168.256 186.119 169.73 190.521 170.681 195.038C172.589 204.107 172.582 213.438 171.925 222.644C171.211 232.652 169.855 242.657 168.311 252.567C167.518 257.65 166.464 262.691 165.657 267.766C165.258 270.268 164.715 272.764 164.239 275.254L164.013 276.443C163.886 277.103 163.754 277.761 163.602 278.412L163.509 278.802V278.872C163.504 279.352 163.373 279.749 163.162 280.066C162.873 280.994 162.513 281.899 162.036 282.767C161.791 283.211 161.436 283.46 161.049 283.551C160.66 284.441 159.779 285.126 158.728 285.122L144.891 285.069C136.855 285.037 128.818 284.984 120.782 284.94C118.754 284.929 116.728 284.891 114.702 284.839C112.802 284.786 110.981 284.557 109.103 284.321C106.982 284.054 105.832 282.552 106.149 280.432C106.219 279.965 106.295 279.5 106.367 279.035C105.944 279.174 105.442 279.109 105.102 278.777L104.783 278.465C104.341 278.027 103.945 277.598 103.665 277.014C103.375 276.414 103.141 275.78 102.885 275.167C102.334 273.848 101.797 272.525 101.275 271.196C100.23 268.537 99.1839 265.868 98.2119 263.181C96.2874 257.862 94.5844 252.462 93.1036 247C90.4628 237.257 88.5527 227.326 87.3485 217.306L87.0606 214.918L86.9769 214.212C86.5202 210.328 86.1359 206.384 86.3175 202.509C86.4297 200.083 86.8055 197.638 87.7121 195.372C88.5485 193.282 89.8393 191.494 91.0668 189.625L91.2073 189.41L91.3485 189.189C92.4219 187.492 93.2761 185.718 93.3189 183.657C93.3623 181.565 92.7532 179.53 92.0723 177.572L91.9026 177.089L91.7887 176.77C90.34 172.723 88.6914 168.734 89.2351 164.331C90.0381 157.847 93.9675 152.62 98.9114 148.589C94.5147 149.46 90.1628 151.18 86.3219 153.362C81.7858 155.94 77.702 159.343 74.1802 163.183C67.5252 170.441 62.7738 179.149 58.8846 188.139C54.8133 197.549 51.7943 207.408 49.5191 217.397C47.2311 227.442 45.6994 237.648 44.6534 247.894C44.1318 252.994 43.7217 258.107 43.3818 263.222C43.2086 265.842 43.0776 268.467 42.8747 271.084C42.6719 273.698 42.5809 276.353 41.9428 278.897C41.645 280.083 39.6358 280.204 39.4205 278.897C38.9427 275.98 39.0763 272.964 39.2096 270.01L39.2217 269.742C39.3529 266.8 39.524 263.86 39.7266 260.92C40.1409 254.911 40.6943 248.911 41.4168 242.93C43.9499 221.934 48.6212 201.049 57.7839 181.883C62.098 172.857 67.6353 164.086 75.3381 157.568C79.0055 154.467 83.14 151.992 87.5957 150.2C91.5804 148.596 95.6283 147.837 99.8621 147.839C101.985 146.212 104.265 144.794 106.542 143.582C106.679 143.509 106.823 143.686 106.709 143.8C106.65 143.857 106.593 143.916 106.534 143.971C106.792 143.988 107.058 144.109 107.296 144.36C108.133 145.237 108.839 146.334 109.47 147.473C110.432 148.674 111.348 149.914 112.308 151.102C113.844 153.004 115.415 154.879 117.006 156.739C119.678 159.865 122.437 162.931 125.315 165.874L125.795 166.364C127.287 167.875 128.797 169.684 130.561 170.88L130.655 170.943C131.4 171.428 131.927 171.516 132.562 170.792C133.139 170.132 133.619 169.367 134.113 168.64L134.227 168.473C136.747 164.811 139.084 161.013 141.199 157.103C142.163 155.323 143.08 153.518 143.95 151.693L144.209 151.145C144.682 150.139 145.196 149.152 145.587 148.116C145.677 147.873 145.766 147.63 145.853 147.389C144.522 146.516 143.491 144.627 143.117 143.147C142.728 141.611 142.925 140.034 143.617 138.629C143.748 138.364 144.188 138.43 144.251 138.711ZM78.5917 201.15C78.4076 206.992 78.2958 212.84 78.021 218.677L77.9261 220.67C78.3548 221.148 78.6062 221.7 78.4055 222.456C78.3275 222.746 78.097 223.008 77.8097 223.105L77.7201 224.958C77.3124 233.295 76.8345 241.614 75.9611 249.93C74.8689 260.337 73.6055 270.726 72.3444 281.115C72.1649 282.586 71.1421 283.752 69.5513 283.537C67.9416 283.319 67.2888 281.917 67.5001 280.457C68.3303 274.728 69.1287 268.993 69.8282 263.245L70.6247 256.695C71.6234 248.508 72.6456 240.322 73.8233 232.161C74.3156 228.75 74.8268 225.341 75.34 221.932L75.1606 221.7C74.4273 220.747 73.6689 219.815 72.9189 218.876C71.4782 217.067 70.0564 215.272 68.736 213.379C68.6703 213.284 68.8036 213.144 68.8984 213.216C70.7491 214.584 72.5008 216.046 74.2627 217.532L75.805 218.838C76.6923 212.948 77.5712 207.055 78.3548 201.15C78.374 201.002 78.5958 200.991 78.5917 201.15ZM105.213 145.244C104.1 146.294 102.961 147.321 101.839 148.365L101.428 148.75L101.019 149.136C99.0473 151.006 97.158 152.954 95.5838 155.19C92.6937 159.296 90.9719 164.303 92.1738 169.317C93.1711 173.469 95.4592 177.234 96.074 181.49C96.3822 183.623 96.2324 185.766 95.4294 187.78C94.6097 189.834 93.2998 191.595 92.123 193.449C89.5667 197.477 89.2181 201.898 89.4718 206.565C89.738 211.439 90.2977 216.314 90.9888 221.144C92.3871 230.929 94.4956 240.613 97.2864 250.097C98.6831 254.846 100.333 259.493 101.975 264.16C102.792 266.483 103.745 268.751 104.727 271.008C105.245 272.196 105.775 273.377 106.314 274.556C106.115 272.891 106.115 271.181 106.018 269.526C105.879 267.155 105.701 264.788 105.539 262.418C105.207 257.61 104.911 252.798 104.647 247.985C103.711 230.824 103.023 213.647 103.073 196.458C103.099 187.863 103.274 179.267 103.644 170.68C103.817 166.636 104.153 162.596 104.456 158.558L104.52 157.692C104.789 154.068 105.11 150.435 105.661 146.842C105.498 146.473 105.356 146.1 105.251 145.717L105.213 145.573L105.241 145.578C105.216 145.465 105.207 145.354 105.213 145.244ZM114.843 130.475C114.866 130.375 115.008 130.384 115.033 130.475C115.661 132.588 115.439 134.913 114.898 137.039C114.607 138.191 114.193 139.309 113.692 140.387L113.517 140.764C113.088 141.682 112.605 142.628 111.769 143.2C111.421 143.439 110.797 143.454 110.449 143.2L110.271 143.065C110.242 143.042 110.213 143.019 110.185 142.995C109.859 142.722 109.699 142.12 109.849 141.723C110.235 140.698 111.112 139.945 111.718 139.032C112.255 138.221 112.731 137.365 113.125 136.475C113.977 134.549 114.359 132.506 114.843 130.475Z" fill="black"/>
<path fill-rule="evenodd" clip-rule="evenodd" d="M162.856 78.6401C155.423 59.0782 142.025 44.7556 119.438 53.7515C118.79 53.3102 117.945 53.1919 117.135 53.7086C104.831 61.4375 95.9702 73.8288 92.1304 87.8013C89.7936 88.2458 87.5229 89.021 85.4947 90.2923C81.0868 93.0553 78.1213 97.4518 75.3414 101.734C74.5054 103.021 75.2795 105.152 76.8505 105.445C77.5329 105.572 78.2091 105.648 78.8816 105.667C78.7179 106.262 78.5024 106.836 78.2279 107.363C77.2343 109.271 79.1115 111.295 80.8707 110.774C81.0659 110.877 81.2704 110.962 81.4823 111.026C81.5064 112.107 82.0614 113.553 83.1598 113.771C84.9361 114.152 87.2968 112.792 86.8777 110.805C87.4143 110.899 87.949 110.911 88.4702 110.846C88.5285 111.881 88.5103 112.961 88.6532 113.915C89.1201 118.415 93.6137 121.437 97.8991 120.068C98.1619 121.47 98.4705 123.44 99.8508 124.2C101.464 128.729 104.251 133.897 108.815 135.96C108.408 137.002 108.629 138.269 109.852 138.965C118.206 143.73 128.233 145.342 137.677 143.571C141.452 143.346 145.129 142.493 148.659 140.675C151.233 139.349 153.6 137.666 155.91 135.93C158.221 134.194 160.692 132.504 162.537 130.25C164.541 127.802 165.473 124.922 166.079 121.856C168.852 107.941 167.894 94.2778 162.856 81.0223C156.619 64.6141 169.091 95.0492 162.856 78.6401Z" fill="white"/>
<path fill-rule="evenodd" clip-rule="evenodd" d="M126.923 49.9395C130.727 49.6709 134.6 50.3123 138.222 51.4597C144 53.2892 149.306 56.5178 153.665 60.7209C158.157 65.0525 161.48 70.3931 163.5 76.2917C165.937 83.4053 166.301 91.0008 166.987 98.4266C167.333 102.178 167.904 105.873 168.498 109.589L168.592 110.175C169.171 113.795 169.497 117.457 168.697 121.071C167.365 127.078 163.374 132.177 158.636 135.945C148.904 143.685 133.753 148.404 122.421 141.281C120.668 140.179 122.329 137.361 124.041 138.51C125.245 139.318 126.521 140.027 127.89 140.516C133.607 142.56 139.886 141.832 145.537 139.931C151.105 138.057 156.448 134.891 160.557 130.667C164.873 126.229 167.264 120.748 166.919 114.512C166.713 110.801 165.868 107.159 165.399 103.479C164.983 100.219 164.734 96.9416 164.447 93.6687L164.342 92.4915C163.733 85.8232 162.859 78.9721 159.826 72.9192C157.275 67.8269 153.539 63.2966 149.048 59.7979C144.345 56.135 138.729 53.5732 132.836 52.6177C125.906 51.4942 119.272 53.5373 113.491 57.3408C108.364 60.7139 103.956 65.2216 100.576 70.3363C98.9373 72.8163 97.541 75.4647 96.3353 78.1808C95.1991 80.7398 94.4157 83.4218 93.502 86.0595C94.2539 86.0371 95.0182 86.066 95.7944 86.1518C99.7756 86.5931 103.485 88.6572 105.846 91.9118C108.732 95.8887 107.952 100.771 109.079 105.293C109.166 105.644 109.018 105.988 108.717 106.182C107.008 107.287 104.721 107.324 103.067 106.08C101.632 105 100.958 103.048 101.539 101.342C101.615 101.12 101.938 101.159 101.947 101.397C102.057 104.3 104.749 106.536 107.388 105.154C106.256 101.254 106.852 96.8986 104.536 93.3758C100.438 87.1409 91.958 86.8833 86.0018 90.3981C82.8671 92.2475 80.3859 95.0285 78.5383 98.139L78.0061 99.042C77.2979 100.249 76.5479 101.613 76.4009 102.942C76.3162 103.709 76.5991 104.429 77.4784 104.043C78.1897 103.731 78.7405 103.002 79.163 102.375C79.8837 101.306 81.5396 102.23 80.9444 103.368L80.9242 103.405C80.0579 104.94 79.5245 106.632 79.4266 108.395L79.4017 108.883C79.3854 109.239 79.3736 109.745 79.4489 109.763C79.5391 109.785 80.1659 109.061 80.2703 108.961C80.7731 108.478 81.2909 108.083 81.9909 107.955C82.911 107.786 83.8393 108.925 83.0406 109.671L83.0073 109.701C82.2944 110.321 82.3261 111.557 83.1135 112.137C84.2248 112.955 85.5929 111.62 85.7542 110.52L85.7597 110.48C85.9023 109.292 87.5516 109.25 87.6412 110.48C87.8358 113.149 84.659 115.386 82.2418 114.04C81.2861 113.508 80.6785 112.533 80.4881 111.488C80.183 111.65 79.8539 111.762 79.5059 111.792C78.3731 111.893 77.5678 111.096 77.3846 110.027C77.1712 108.781 77.2978 107.447 77.6259 106.153C77.0106 106.301 76.3635 106.244 75.713 105.869C73.7451 104.733 74.3102 102.206 75.0532 100.5C78.2254 93.2181 84.7975 86.6107 92.9398 86.0861C92.9844 84.8013 93.1585 83.5867 93.4432 82.3002C96.2282 69.7166 105.25 58.0644 116.996 52.6184C120.134 51.163 123.463 50.184 126.923 49.9395ZM96.1212 100.206L96.2328 100.181C97.5017 99.9076 100.841 99.5863 100.439 101.722C100.42 101.823 100.274 101.811 100.248 101.722C99.8534 100.379 97.1754 101.453 96.3935 101.777C95.3156 102.222 94.2523 102.88 93.3722 103.644C91.4452 105.317 90.1535 107.675 89.957 110.235C89.7622 112.775 90.4989 115.519 92.3306 117.357C93.2285 118.257 94.3746 118.869 95.6621 118.914C96.8188 118.954 98.0967 118.053 99.1641 118.581C99.3745 118.685 99.5412 118.97 99.5222 119.205C99.4863 119.65 99.2872 119.996 98.991 120.265C100.778 123.523 102.24 126.971 104.52 129.933C105.664 131.419 106.96 132.795 108.427 133.967C109.125 134.524 109.883 135.013 110.665 135.442C111.582 135.946 112.375 136.262 113.029 137.116C113.587 137.844 113.029 139.251 112.109 139.377C109.944 139.672 107.84 137.921 106.25 136.609C104.662 135.298 103.29 133.681 102.155 131.966C99.9772 128.672 98.4872 124.785 97.8914 120.853C97.1997 121.073 96.421 121.14 95.8351 121.141C94.2764 121.145 92.788 120.584 91.5631 119.636C87.0787 116.166 86.5803 109.042 89.7449 104.55C91.2593 102.4 93.5604 100.812 96.1212 100.206ZM96.1491 108.469C97.1889 108.377 98.2279 108.542 99.2053 108.896L99.6082 109.042C100.459 109.354 101.365 109.72 101.98 110.358C102.919 111.333 101.984 113.024 100.646 112.65C99.167 112.237 97.9649 110.99 96.4863 110.468C95.1646 110.001 93.6675 110.067 92.4946 110.871C92.3397 110.978 92.136 110.768 92.2372 110.614C93.1345 109.247 94.551 108.609 96.1491 108.469Z" fill="black"/>
<path fill-rule="evenodd" clip-rule="evenodd" d="M131.904 116.766C135.525 116.326 139.036 117.436 142.576 117.995C144.445 118.29 146.317 118.51 148.209 118.592C148.589 118.609 148.97 118.618 149.351 118.626C149.386 118.291 149.574 117.983 149.98 117.798C150.813 117.421 151.48 117.25 152.395 117.287C153.232 117.32 154.072 117.406 154.897 117.557C156.394 117.832 157.898 118.455 158.993 119.537C161.528 122.042 161.142 126.066 159.184 128.795C155.137 134.433 147.752 134.695 141.428 134.621L140.844 134.614C135.085 134.531 126.845 135.39 124.229 128.836C123.267 126.425 123.4 123.631 124.579 121.319C125.984 118.562 128.941 117.126 131.904 116.766ZM149.893 126.154L149.841 126.156C147.186 126.258 144.531 126.33 141.875 126.377C141.954 127.06 142.035 127.743 142.128 128.424C142.201 128.96 142.279 129.495 142.36 130.03C142.394 130.256 142.52 130.607 142.485 130.832L142.472 130.92V130.92C142.608 130.982 142.732 131.081 142.824 131.226C142.856 131.276 142.879 131.326 142.902 131.376C144.965 131.392 147.185 131.352 149.287 130.977L149.292 130.932V130.932C149.33 130.663 149.441 130.482 149.59 130.358C149.738 129.501 149.724 128.588 149.781 127.738C149.817 127.21 149.856 126.682 149.893 126.154ZM139.845 126.414C137.932 126.446 136.017 126.471 134.104 126.448L133.235 126.434V126.434C133.418 127.419 133.618 128.4 133.784 129.391C133.957 130.424 133.048 131.081 132.262 131.054C132.35 131.069 132.438 131.084 132.526 131.096C134.984 131.444 137.536 131.352 140.03 131.349C139.895 130.565 139.95 129.681 139.93 129.027L139.926 128.926C139.888 128.088 139.861 127.251 139.845 126.414ZM126.846 126.233C126.912 126.745 127.041 127.246 127.235 127.712C128.052 129.683 129.925 130.603 131.906 130.99C131.562 130.871 131.289 130.586 131.22 130.097C131.049 128.882 130.987 127.646 130.982 126.412C129.601 126.399 128.211 126.37 126.846 126.233ZM157.095 125.812C156.112 126.044 154.969 125.938 154.004 125.982C153.1 126.023 152.196 126.059 151.293 126.095C151.335 126.712 151.377 127.329 151.422 127.946C151.48 128.744 151.485 129.586 151.638 130.38C153.457 129.759 155.087 128.763 156.309 127.171C156.614 126.774 156.887 126.308 157.095 125.812ZM131.488 120C129.851 120.387 128.302 121.206 127.47 122.705C126.976 123.594 126.758 124.647 126.8 125.686C128.183 125.525 129.591 125.464 130.991 125.413C130.996 125.161 131.002 124.909 131.009 124.657L131.031 124.013C131.069 122.784 131.088 121.24 131.488 120ZM139.96 120.149L139.239 120.069C137.238 119.84 135.238 119.601 133.236 119.738C132.947 119.758 132.653 119.79 132.358 119.833C132.712 121.11 132.682 122.61 132.83 123.874C132.887 124.363 132.959 124.847 133.039 125.33L133.386 125.314V125.314C135.534 125.198 137.683 125.126 139.833 125.041C139.832 124.637 139.835 124.233 139.841 123.829L139.849 123.425C139.873 122.393 139.807 121.23 139.96 120.149ZM150.01 119.986C147.914 120.324 145.748 120.396 143.689 120.399C142.866 120.4 142.044 120.349 141.223 120.276C141.276 120.714 141.304 121.156 141.345 121.588C141.426 122.46 141.518 123.331 141.619 124.2L141.709 124.962V124.962C144.351 124.842 146.992 124.712 149.633 124.578L150.006 124.558V124.558L150.111 123.095C150.182 122.12 150.26 121.145 150.37 120.174L150.288 120.144V120.144C150.19 120.104 150.098 120.049 150.01 119.986ZM150.92 120.349C151.036 121.728 151.1 123.113 151.185 124.494L152.926 124.401C153.216 124.385 153.506 124.369 153.796 124.352C154.925 124.287 156.374 123.946 157.49 124.264C157.575 123.25 157.285 122.262 156.37 121.58C154.763 120.383 152.718 120.809 150.92 120.349ZM144.972 108.02C147.565 106.534 154.07 105.016 154.482 109.684C154.671 111.832 153.075 113.612 151.211 114.406L151.141 114.435C149.393 115.154 146.294 115.966 144.781 114.407C143.522 113.109 145.192 110.783 146.757 111.846C147.561 112.392 149.253 111.989 150.151 111.73L150.207 111.713C151.175 111.428 152.466 110.517 152.065 109.325C151.711 108.27 150.204 108.077 149.259 108.043C147.85 107.992 146.478 108.32 145.082 108.426C144.861 108.443 144.793 108.123 144.972 108.02ZM155.711 100.514C159.23 100.349 161.419 104.193 160.61 107.342C160.47 107.886 159.862 108.419 159.276 108.358L159.128 108.344C159.053 108.337 158.977 108.328 158.908 108.309C158.351 108.154 157.852 107.575 157.893 106.974L157.903 106.799C157.985 105.311 157.824 103.597 156.057 103.237C154.558 102.931 153.721 104.375 153.703 105.703C153.7 105.939 153.435 106.104 153.227 105.977C152.143 105.317 151.955 104.005 152.369 102.875C152.894 101.443 154.207 100.585 155.711 100.514ZM129.598 101.339C132.159 100.484 134.922 101.849 136.162 104.114C136.597 104.24 137.031 104.576 136.971 105.089C136.883 105.828 136.752 106.294 136.24 106.854C135.439 107.731 133.939 107.283 133.606 106.204L133.592 106.155C133.213 104.76 131.679 103.84 130.281 104.328C128.648 104.898 128.695 106.624 127.55 107.629C127.415 107.747 127.254 107.766 127.092 107.688C125.876 107.1 126.094 105.33 126.528 104.316C127.097 102.987 128.203 101.804 129.598 101.339ZM126.111 93.5594C128.186 91.4412 133.597 89.3915 135.016 93.303C135.287 94.048 134.711 95.0525 133.936 95.207C132.666 95.4598 131.539 94.9084 130.278 95.0073C129.257 95.0878 128.192 95.4292 127.376 96.0619C125.115 97.8145 124.617 100.779 123.042 103.009C122.965 103.118 122.816 103.072 122.802 102.944C122.443 99.6968 123.838 95.8791 126.111 93.5594ZM153.173 91.4742C154.55 90.9877 156.109 91.0293 157.493 91.4609C158.888 91.8958 160.168 92.7218 161.154 93.8009C161.602 94.2909 162.016 94.8315 162.348 95.407C162.524 95.712 162.71 96.342 162.91 96.7172C163.995 97.3437 164.458 98.7714 163.487 99.7871L163.444 99.8316L163.314 99.9605C162.792 100.477 162.004 100.702 161.292 100.495C159.697 100.033 159.503 98.777 158.951 97.4434C158.587 96.5624 157.962 95.783 157.205 95.2104C155.415 93.8578 152.479 93.4269 150.324 94.0643C150.21 94.0983 150.075 93.9521 150.157 93.846C150.565 93.3167 150.8 92.8824 151.347 92.4555C151.902 92.0222 152.508 91.7092 153.173 91.4742Z" fill="black"/>
<path fill-rule="evenodd" clip-rule="evenodd" d="M159.38 76.3793C160.601 75.9606 161.575 77.231 161.34 78.3383C161.064 79.6423 159.703 80.6889 158.801 81.6081C157.854 82.5761 156.889 83.525 155.887 84.4381C153.975 86.184 151.994 87.8281 149.904 89.3604L149.265 89.8287C147.35 91.2306 145.44 92.6 143.389 93.8136C142.278 94.4687 141.156 95.1028 140.019 95.7136C139.614 95.9313 139.119 96.2671 138.61 96.5167C140.471 97.9539 141.904 100.148 142.214 102.191C142.983 107.268 139.713 111.973 135.099 113.843C132.798 114.775 130.237 115.046 127.778 114.765C125.277 114.479 122.742 113.739 121.117 111.69C119.674 109.87 119.154 107.547 119.051 105.267C119.002 104.185 119.013 103.119 119.241 102.162C118.246 102.17 117.251 102.166 116.264 102.177C113.826 102.2 111.384 102.211 108.944 102.143C106.428 102.071 103.924 101.959 101.416 101.735C100.316 101.636 99.2213 101.473 98.1267 101.316C97.0642 101.166 95.8917 101.109 94.8987 100.674C94.8311 100.647 94.8591 100.549 94.9177 100.53C95.9762 100.188 97.1783 100.249 98.2811 100.182L99.356 100.116C100.251 100.063 101.146 100.014 102.044 99.9848C104.118 99.9165 106.19 99.8998 108.264 99.8642L109.153 99.8476C111.593 99.799 114.033 99.7715 116.473 99.6933C117.485 99.6616 118.499 99.6024 119.516 99.5475C119.634 99.2789 119.807 99.0337 119.974 98.7951C120.473 98.0807 121.106 97.4509 121.764 96.8802C123.109 95.7049 124.624 94.8323 126.314 94.2468C127.989 93.6686 130.439 93.3818 132.211 93.4191C133.983 93.4565 136.508 93.7065 137.319 95.1556C137.404 95.3057 138.948 95.0161 139.406 94.6651C140.478 93.8474 141.53 93.0062 142.563 92.1439C144.481 90.5397 146.454 88.9609 148.271 87.2448C150.145 85.4737 152.004 83.673 153.787 81.8131C154.683 80.881 155.577 79.9469 156.445 78.9916C157.333 78.0172 158.095 76.8168 159.38 76.3793Z" fill="black"/>
</g>
<defs>
<clipPath id="clip0_81_21020">
<rect width="240" height="275" fill="white"/>
</clipPath>
</defs>
</svg>
