<svg width="240" height="275" viewBox="0 0 240 275" fill="none" xmlns="http://www.w3.org/2000/svg">
<g clip-path="url(#clip0_81_20954)">
<rect width="240" height="275" fill="#E7ECED"/>
<path fill-rule="evenodd" clip-rule="evenodd" d="M114.34 135.723C119.555 131.751 132.648 129.964 138.214 133.789C143.712 137.631 144.311 143.843 146.873 149.557C149.29 148.417 153.281 150.05 153.982 152.294C154.851 153.352 154.89 156.325 155.49 157.747C181.569 161.9 185.528 182.24 188.667 205.332C192.82 228.764 202.247 252.145 198.155 276.257C198.688 277.029 199.108 277.78 199.497 278.671C200.429 280.256 199.229 282.501 197.35 282.414C194.918 282.2 192.51 281.908 190.067 281.817C183.294 281.582 176.514 281.61 169.739 281.696L168.815 281.708C134.667 282.133 100.521 282.971 66.3716 283.194C65.1327 283.195 64.5262 282.084 64.6916 280.987C65.0248 278.78 65.3339 276.571 65.6565 274.363C57.5793 276.497 48.9925 277.034 40.9382 274.587C40.3747 274.013 42.251 274.324 42.5486 274.237C35.1361 269.17 37.3498 258.495 38.0064 250.807C42.0894 224.462 43.5287 195.313 59.3039 172.832C66.1284 163.658 76.1339 156.394 87.6308 154.76L87.9498 154.716C91.3115 154.267 95.0581 154.123 97.9973 152.294C101.303 149.653 102.712 144.775 106.19 144.73C107.338 144.715 108.9 146.168 110.581 147.155C110.707 144.984 111.876 143.152 112.134 141.469L112.155 141.325C112.425 139.363 112.056 137.598 114.34 135.723ZM170.387 206.028C163.058 200.935 144.125 203.494 143.692 203.779C142.738 204.407 142.327 204.463 141.811 205.278C141.301 205.346 140.792 205.416 140.283 205.488C139.263 205.822 140.019 207.077 141.198 206.629C140.489 209.688 142.575 211.864 143.406 214.888C143.676 215.87 143.416 217.636 143.406 218.64C143.487 219.919 144.901 221.43 144.665 222.714C143.827 227.276 139.281 231.727 141.198 236.152C142.467 238.652 146.286 239.926 148.825 240.776C154.086 242.795 163.251 240.7 166.308 236.152C167.938 233.727 169.827 227.609 170.799 225.711L171.014 222.701C171.546 215.218 172.018 207.162 170.387 206.028Z" fill="white"/>
<path fill-rule="evenodd" clip-rule="evenodd" d="M104.912 144.288C105.418 143.84 106.167 144.403 105.846 145.009C105.123 146.37 104.382 147.659 103.412 148.862C102.824 149.592 102.194 150.282 101.556 150.964C103.194 152.381 104.599 154.141 105.925 155.791C107.622 157.9 109.225 160.099 111.13 162.029C113.008 163.933 115.084 165.264 117.595 166.151L118.102 166.327C120.624 167.213 123.32 168.409 124.741 170.798C125.021 171.269 124.457 171.851 123.982 171.557C121.512 170.027 118.61 169.719 115.921 168.708C113.323 167.732 111.059 166.229 109.058 164.31C107.061 162.395 105.384 160.216 103.634 158.083C101.904 155.974 100.042 154.172 97.9957 152.388C94.8382 154.513 91.234 155.438 87.5691 156.346L87.1691 156.445C83.4998 157.354 79.8502 158.409 76.4078 159.992C73.3727 161.387 70.3875 163.053 67.9152 165.323C65.2909 167.733 63.2483 170.81 61.3788 173.819C57.197 180.552 54.257 187.928 51.6688 195.394C48.9768 203.159 46.7251 211.08 44.9073 219.095C43.9828 223.172 43.232 227.278 42.6149 231.413C42.3178 233.404 42.054 235.4 41.8222 237.4C41.5748 239.536 41.518 241.733 40.863 243.786C40.5823 244.666 39.9193 245.032 39.2557 245L39.1209 246.687C38.9422 248.935 38.7756 251.184 38.7193 253.446C38.626 257.208 38.6683 260.959 38.9388 264.712L38.9771 265.224C39.1896 267.964 39.6645 271.042 41.7238 273.048C43.8563 275.125 47.1358 275.779 50.0101 275.816C56.7045 275.903 63.1486 272.739 69.0726 269.963C75.1735 267.104 81.1078 263.931 86.8999 260.489C89.8497 258.736 92.7675 256.925 95.6481 255.061C97.0617 254.146 98.4654 253.216 99.8585 252.271C100.656 251.729 101.413 251.136 102.225 250.655C101.827 250.284 101.649 249.702 101.983 249.193C99.6343 247.153 98.657 243.515 98.5427 240.57C98.4504 238.194 98.8 235.824 99.0759 233.47C99.2152 232.282 99.3871 231.097 99.5657 229.916C99.6362 229.449 99.6901 228.949 99.7725 228.456C93.4317 231.942 86.9133 235.047 80.2222 237.804C76.7925 239.218 73.3188 240.489 69.7972 241.654L69.0834 241.889C65.7467 242.982 62.3301 244.014 58.8806 244.638C58.6961 244.672 58.5464 244.399 58.7433 244.313C62.1049 242.829 65.583 241.577 68.9952 240.21L69.5559 239.982V239.982C69.4915 239.978 69.4247 239.969 69.355 239.953C67.3539 239.47 65.3684 238.725 63.4057 238.098C61.5842 237.516 59.5376 237.151 57.835 236.273C57.704 236.205 57.7773 236.023 57.905 236.014C59.8186 235.881 61.896 236.439 63.7723 236.768L64.4771 236.891C65.6579 237.099 66.8649 237.323 68.0399 237.615C68.0823 237.222 68.3023 236.826 68.6152 236.594C72.0582 234.043 71.7085 228.892 72.0768 225.093L72.3498 222.272C72.8301 217.336 73.3383 212.4 74.1102 207.501C74.1514 207.24 74.556 207.315 74.5577 207.562C74.5975 213.635 74.1392 219.68 73.9095 225.743L73.874 226.738C73.747 230.48 73.6475 234.365 71.2919 237.244C71.6213 237.051 72.0666 237.051 72.3335 237.369C72.6614 237.759 72.8507 238.197 72.8447 238.627C74.9733 237.735 77.0925 236.819 79.2014 235.884C85.9816 232.879 92.6196 229.516 99.0821 225.878C99.7776 225.486 100.439 225.794 100.783 226.31L100.832 226.303C100.84 226.302 100.849 226.301 100.858 226.301L100.907 226.299C100.909 226.299 100.911 226.299 100.912 226.299C101.822 225.799 103.061 226.155 103.842 226.884C103.865 226.906 103.885 226.93 103.905 226.953C104.893 226.509 105.816 225.91 106.654 225.151C108.367 223.597 109.819 221.676 111.085 219.749C113.415 216.2 115.395 212.254 118.543 209.333C121.101 206.96 124.272 205.482 127.599 204.555C127.585 204.458 127.622 204.354 127.689 204.285C127.86 204.11 127.982 204.049 128.203 204.156C128.22 204.164 128.231 204.176 128.238 204.189L128.562 203.634C128.74 203.333 128.922 203.029 128.985 202.95C129.362 202.474 129.751 202.002 130.146 201.54C130.815 200.757 131.577 199.985 132.46 199.442C134.393 198.254 136.426 198.926 138.413 199.576C139.614 199.968 140.811 200.373 142.009 200.772L142.133 200.812C143.027 201.099 144.073 201.351 144.472 202.298C144.631 202.673 144.655 203.062 144.581 203.439C153.071 201.28 162.5 202.272 170.785 204.807C171.103 204.905 171.42 205.166 171.487 205.51C172.436 210.38 172.859 215.374 172.43 220.326C172.059 224.602 171.112 228.791 169.328 232.705L169.226 232.926C167.55 236.553 164.892 241.025 160.833 242.162C158.382 242.848 155.671 242.444 153.171 242.318C150.742 242.195 148.259 242.178 145.852 241.796C143.709 241.455 141.831 240.494 140.507 238.751C139.364 237.247 138.763 235.429 138.27 233.621C138.044 233.693 137.82 233.77 137.6 233.856C136.668 234.22 135.88 234.807 135.166 235.498C133.66 236.957 132.492 238.729 130.916 240.121C129.49 241.382 127.864 242.362 126.121 243.116C122.508 244.678 118.632 245.302 114.81 246.129L114.543 246.187C111.666 246.819 108.73 247.594 106.19 249.093C106.141 249.534 105.94 249.949 105.618 250.221C106.066 250.642 106.255 251.308 105.862 251.933C104.762 253.679 102.869 254.672 101.169 255.788L101.058 255.861C99.3857 256.97 97.6987 258.057 95.998 259.122C92.5406 261.288 89.0109 263.334 85.4314 265.29C79.6742 268.437 73.7933 271.405 67.806 274.097C68.1654 275.866 68.0341 277.689 68.3042 279.47L68.3456 279.724C68.461 280.385 68.3051 280.937 67.8501 281.369L67.802 281.413L67.8028 281.407L67.7602 281.447L67.7459 281.459L67.7507 281.455C67.6982 281.503 67.6441 281.548 67.5889 281.586L67.5187 281.631V281.631C67.0805 281.897 66.5163 281.894 66.0676 281.659L66.0164 281.631L65.9302 281.582C65.3373 281.24 64.9285 280.395 65.1745 279.724C65.7789 278.074 66.0073 276.312 66.5654 274.651L66.1226 274.849V274.849L65.539 275.104C59.2267 277.834 52.2151 280.134 45.3375 278.272C42.2986 277.45 39.4583 275.709 37.9378 272.873C36.4416 270.082 36.2302 266.841 36.1507 263.736C36.0527 259.904 36.258 256.014 36.7632 252.214C37.1023 249.664 37.5123 247.066 38.1449 244.542C37.8195 244.255 37.5804 243.843 37.5172 243.333C37.2187 240.922 37.7411 238.416 38.061 236.019C38.3735 233.677 38.7187 231.34 39.1091 229.011C39.8973 224.307 40.8132 219.612 41.8795 214.963C43.7771 206.688 46.2829 198.561 49.2998 190.627L49.564 189.936C52.3518 182.685 55.5796 175.589 60.0742 169.219C62.2243 166.171 64.4971 163.408 67.5352 161.211C70.3814 159.154 73.5918 157.672 76.9049 156.54C80.2216 155.407 83.6306 154.647 87.0998 154.175C90.6231 153.695 94.3421 153.401 97.6288 151.955C97.213 151.21 97.5698 150.203 98.2695 149.74C100.624 148.184 102.802 146.159 104.912 144.288ZM180.294 211.967C180.393 211.817 180.627 211.912 180.584 212.089C179.438 216.783 178.363 221.487 177.661 226.27C176.394 234.904 176.627 243.65 176.731 252.348L176.736 252.797C176.789 257.482 176.863 262.167 177.018 266.85C177.096 269.217 177.251 271.607 177.167 273.975C177.121 275.26 176.779 276.475 176.657 277.744C176.551 278.854 176.646 279.98 176.699 281.092C176.734 281.831 175.644 281.799 175.57 281.092L175.475 280.177C175.352 279.019 175.2 277.868 174.82 276.76C174.364 275.427 174.145 274.118 173.987 272.718C173.745 270.573 173.637 268.407 173.543 266.248L173.479 264.754C173.089 255.728 173.102 246.66 173.735 237.644L173.781 237C174.407 228.478 175.494 219.269 180.294 211.967ZM155.881 158.253C155.582 158.13 155.686 157.678 156.018 157.757L156.62 157.9C161.035 158.958 165.369 160.104 169.489 162.072C173.612 164.042 177.102 166.982 179.876 170.597C185.268 177.625 187.508 186.166 189.277 194.698C191.242 204.18 193.032 213.696 195.015 223.174L195.383 224.94C197.218 233.768 198.95 242.601 200.226 251.533L200.318 252.181C201.605 261.367 202.379 270.87 200.975 280.08C200.697 281.902 197.666 281.448 197.785 279.648C198.127 274.444 198.372 269.267 198.135 264.052C197.898 258.835 197.409 253.641 196.68 248.47C196.066 244.118 195.152 239.82 194.342 235.503L194.215 234.821C193.538 231.149 192.839 227.481 192.142 223.813L191.1 218.32C189.538 210.096 187.946 201.864 186.147 193.692L186.041 193.211C184.28 185.348 181.685 177.112 176.404 170.868C171.045 164.532 163.374 161.341 155.881 158.253ZM136.409 241.652C136.538 241.364 136.989 241.396 137.127 241.652C137.67 242.654 137.731 243.933 137.833 245.065L137.844 245.181C137.975 246.562 138.09 247.948 138.161 249.333C138.295 251.962 138.36 254.587 138.351 257.22C138.343 259.917 138.289 262.612 138.143 265.306L138.104 266.027C137.971 268.368 137.748 270.979 136.637 273.026C136.232 273.77 135.133 273.551 134.899 272.799C134.132 270.335 134.526 267.414 134.723 264.891L134.876 262.922C135.027 260.953 135.171 258.984 135.285 257.012C135.442 254.315 135.571 251.616 135.696 248.918C135.736 248.041 135.78 247.165 135.826 246.288L135.897 244.974C135.958 243.874 135.953 242.668 136.409 241.652ZM50.1805 245.143L50.52 244.815C51.5622 243.795 52.8792 242.223 54.4199 242.321C55.0342 242.36 55.4257 242.87 55.2983 243.475C55.0262 244.767 53.7081 245.438 52.7593 246.227C51.7199 247.091 50.7402 248.015 49.7625 248.948C48.8951 249.775 48.0609 250.625 47.2467 251.503L46.9423 251.833C46.6504 252.151 44.5722 254.032 44.7969 254.52L44.8091 254.542C44.8716 254.635 44.7675 254.763 44.6638 254.731C43.7663 254.447 43.8223 253.678 44.1616 252.898C44.8135 251.4 45.9552 250.014 46.9522 248.735C47.9465 247.458 49.0226 246.27 50.1805 245.143V245.143ZM139.661 207.575C138.967 205.934 136.41 205.968 134.959 206.067C131.304 206.314 127.35 207.239 124.098 208.948C120.726 210.719 118.455 213.558 116.423 216.697L116.328 216.845C114.347 219.925 112.44 223.571 109.338 225.688C107.759 226.767 105.914 227.753 103.997 228.179C103.866 228.411 103.653 228.594 103.373 228.66L103.243 228.69C102.697 228.811 101.849 228.944 101.117 228.864C101.122 229.223 101.118 229.579 101.127 229.918C101.153 230.892 101.164 231.869 101.164 232.843C101.164 234.883 101.054 236.928 101.14 238.968C101.215 240.773 101.47 242.659 102.336 244.272C102.971 245.456 103.81 246.239 104.822 246.987C107.312 245.469 110.128 244.543 112.985 243.847C116.441 243.006 119.98 242.445 123.357 241.304C124.982 240.754 126.545 240.036 127.961 239.059C129.464 238.023 130.612 236.62 131.793 235.248L131.977 235.035C133.182 233.652 134.498 232.329 136.201 231.579C137.668 230.934 139.601 230.819 140.884 229.819C141.554 229.296 141.61 228.538 141.681 227.761C140.86 227.878 139.99 227.69 139.171 227.594L138.747 227.544C137.973 227.452 137.217 227.351 136.455 227.154C136.313 227.117 136.313 226.904 136.455 226.867C137.355 226.635 138.248 226.536 139.171 226.427L139.388 226.4C140.224 226.291 141.102 226.125 141.921 226.309C142.068 225.75 142.281 225.215 142.578 224.68C142.997 223.928 143.788 223.076 143.895 222.198C143.927 221.936 143.865 221.626 143.742 221.394L143.699 221.315C143.647 221.222 143.586 221.128 143.496 221.07C143.486 221.082 143.465 221.095 143.419 221.109C142.788 221.308 142.238 220.999 141.946 220.523C140.707 220.677 139.354 220.625 138.191 220.677L137.016 220.734C135.76 220.791 134.448 220.816 133.267 220.563C133.103 220.527 133.053 220.253 133.218 220.182C134.669 219.562 136.428 219.364 137.982 219.125C138.849 218.992 139.723 218.89 140.593 218.773C141.172 218.695 141.787 218.566 142.387 218.535C143.892 216.661 143.081 213.704 140.987 212.897C140.224 213.233 139.538 213.038 138.705 212.966C137.873 212.895 137.039 212.846 136.203 212.85C134.529 212.857 132.756 213.298 131.098 213.108C130.828 213.077 130.578 212.718 130.846 212.499C132.115 211.463 133.933 211.126 135.544 210.905L135.878 210.86C136.418 210.789 137.074 210.686 137.755 210.625C137.909 210.324 138.186 210.097 138.601 210.04C138.724 210.023 138.848 210.014 138.972 210.003L138.97 209.991V209.991C139.983 209.942 139.939 208.231 139.661 207.575ZM70.3507 239.579C70.3328 239.606 70.3133 239.633 70.2924 239.658L70.2603 239.695L70.4268 239.628L70.3507 239.579V239.579ZM157.328 203.908C153.066 203.45 148.799 203.547 144.525 203.67C144.183 204.788 142.993 205.741 141.841 205.777C142.743 207.152 142.837 209.013 142.203 210.471C143.548 211.006 144.706 211.968 145.409 213.338C146.384 215.236 146.256 217.349 145.293 219.103C146.115 219.848 146.601 221.058 146.552 222.198C146.498 223.469 145.74 224.555 145.111 225.608C144.431 226.746 144.408 227.748 144.199 229.023C143.893 230.889 142.636 232.02 141.017 232.727L141.103 233.066C141.52 234.691 142.04 236.405 143.232 237.593C144.766 239.122 147.146 239.108 149.173 239.204L149.271 239.209C151.127 239.302 152.983 239.411 154.838 239.516L156.23 239.594C158.366 239.711 160.418 239.725 162.162 238.313C165.009 236.006 166.961 232.19 168.196 228.811C170.79 221.719 170.821 213.936 169.63 206.549C165.638 205.262 161.496 204.356 157.328 203.908ZM121.89 215.675L121.921 215.677C122.799 215.777 123.401 216.488 123.616 217.331C123.928 218.556 123.775 219.664 124.525 220.77C125.297 221.908 125.771 222.819 125.883 224.224C125.93 224.802 125.908 225.379 126.037 225.945L126.13 226.341C126.229 226.764 126.311 227.171 126.261 227.625C126.216 228.039 126.015 228.362 125.6 228.495C124.247 228.928 123.202 227.93 122.853 226.669C122.551 225.58 122.954 224.282 122.528 223.259C122.292 222.692 121.857 222.218 121.611 221.647C121.367 221.081 121.245 220.49 121.206 219.875C121.132 218.712 122.16 217.314 121.587 216.26C121.464 216.035 121.603 215.668 121.89 215.675ZM103.921 203.67C104.837 203.484 105.876 203.057 106.78 203.412C107.244 203.595 107.474 204.161 107.081 204.555C106.4 205.238 105.41 205.276 104.493 205.437L104.412 205.451C103.327 205.652 102.24 205.843 101.152 206.023C99.1046 206.362 97.0523 206.662 94.9929 206.917C92.8777 207.179 90.7566 207.412 88.6325 207.588L87.8102 207.655C86.0159 207.799 84.149 207.907 82.3885 207.632C82.1326 207.592 82.1738 207.219 82.3885 207.154C84.3171 206.57 86.4328 206.414 88.4267 206.166C90.5466 205.903 92.6628 205.625 94.7736 205.296C96.881 204.966 98.9856 204.613 101.082 204.222C102.03 204.046 102.976 203.862 103.921 203.67ZM136.975 201.795C136.171 201.51 135.287 201.089 134.416 201.23C132.913 201.473 131.577 202.937 130.387 203.901L130.985 203.785C134.039 203.198 138.085 202.565 140.649 204.508C140.656 204.497 140.661 204.486 140.668 204.475C140.875 204.16 141.115 203.915 141.377 203.646C141.402 203.622 141.426 203.598 141.45 203.573L141.591 203.423L141.268 203.311C140.576 203.066 139.756 202.75 139.627 202.704L139.618 202.701C138.736 202.402 137.853 202.106 136.975 201.795ZM111.876 137.74C111.75 136.123 114.267 136.136 114.391 137.74C114.663 141.242 113.875 144.711 112.18 147.782C112.167 147.804 112.154 147.824 112.14 147.845C113.201 148.397 114.274 148.927 115.37 149.4C116.773 150.006 118.202 150.557 119.656 151.025C120.972 151.449 122.593 151.616 123.699 152.497C126.032 154.356 125.156 158.212 124.707 160.712L124.637 161.106C124.413 162.392 124.252 163.712 124.794 164.947C125.373 166.265 126.543 167.243 127.588 168.187L127.799 168.378C128.724 169.221 129.781 170.246 130.459 171.389C131.079 170.108 131.923 169.061 132.816 167.882C133.453 167.041 133 166.763 132.542 165.942C132.102 165.151 131.887 164.308 132.024 163.405C132.278 161.739 133.61 160.536 134.935 159.631C136.5 158.564 138.246 157.773 139.864 156.78C143.188 154.739 146.425 152.406 149.342 149.815C149.422 149.744 149.562 149.838 149.497 149.935C147.193 153.441 144.492 156.47 141.172 159.042C139.826 160.084 138.411 160.949 136.988 161.858L136.578 162.121C136.007 162.491 135.294 162.987 135.035 163.617C134.775 164.251 135.33 164.73 135.628 165.256C136.576 166.924 136.119 168.481 134.995 169.896L134.943 169.961C133.826 171.338 132.98 172.618 132.575 174.377C131.705 178.156 132.917 182.091 134.185 185.638L134.235 185.778C134.921 187.69 135.65 189.588 136.246 191.53L136.41 192.067C136.95 193.855 137.392 195.617 136.786 197.455C136.58 198.08 135.728 198.228 135.374 197.639C134.126 195.565 133.815 193.069 133.032 190.789C132.27 188.566 131.394 186.384 130.657 184.152C129.709 181.279 129.074 178.186 129.418 175.172C129.408 175.154 129.397 175.138 129.389 175.119L129.147 174.591C128.489 173.16 127.853 171.911 126.655 170.77C125.406 169.58 124.05 168.527 123.068 167.087C120.933 163.959 122.253 160.479 122.511 157.059L122.54 156.639C122.587 155.929 122.613 154.964 122.149 154.472C121.628 153.919 120.404 153.778 119.712 153.533C117.924 152.9 116.161 152.162 114.482 151.276C112.884 150.433 111.336 149.501 109.895 148.41L109.165 147.86C108.012 146.99 106.817 146.04 106.044 144.855C105.955 144.719 106.107 144.499 106.268 144.564C107.558 145.088 108.736 145.921 109.942 146.645C109.961 146.601 109.983 146.556 110.008 146.512C111.5 143.809 112.114 140.814 111.876 137.74ZM153.07 156.258C153.583 154.848 155.925 154.957 155.832 156.632C155.76 157.919 155.214 159.08 154.715 160.248L154.661 160.373C154.146 161.59 153.551 162.733 152.838 163.849C151.477 165.981 149.883 167.96 148.18 169.828C146.636 171.521 144.609 172.557 142.274 172.385C141.29 172.312 140.297 172.062 139.435 171.57C138.411 170.986 137.299 169.232 135.992 169.657C135.866 169.698 135.748 169.513 135.857 169.425C137.365 168.21 139.077 170.094 140.521 170.548C142.697 171.232 144.93 170.476 146.331 168.716C147.793 166.879 149.139 164.822 150.367 162.821C150.992 161.805 151.561 160.751 152.053 159.665C152.549 158.568 152.662 157.376 153.07 156.258ZM149.562 147.584C149.499 147.389 149.741 147.204 149.911 147.315C150.903 147.96 151.761 148.813 152.675 149.561C153.69 150.39 154.711 151.203 155.749 152.003C157.261 153.169 155.507 155.316 154.176 154.042C152.354 152.299 150.358 150.02 149.562 147.584ZM144.121 140.761C144.524 139.208 146.905 139.849 146.558 141.384L146.547 141.43C145.889 143.966 146.825 146.547 148.824 148.191L148.897 148.251C150.162 149.263 148.37 151.032 147.119 150.03C144.386 147.842 143.249 144.125 144.121 140.761Z" fill="black"/>
<path fill-rule="evenodd" clip-rule="evenodd" d="M164.804 91.3172C164.02 85.0568 161.557 78.4099 158.966 72.5735C153.141 60.2336 139.804 58.5346 127.848 55.9904C116.05 54.2721 103.557 52.7206 91.9366 56.1489C85.404 57.7499 82.8525 65.5331 83.8835 71.6751C84.4718 75.5025 86.2133 79.1248 87.6983 82.6719C90.6499 89.9563 92.5226 97.7549 92.5258 105.642C92.3232 110.796 91.596 116.678 97.5166 118.861C103.15 121.664 103.626 129.262 110.681 133.572C113.533 139.353 121.304 139.861 126.896 141.202C130.431 141.879 134.005 142.377 137.59 142.699C147.969 144.029 156.271 141.021 161.704 131.772C165.34 126.143 168.047 119.643 167.379 112.821C166.712 105.637 165.603 98.4913 164.804 91.3172Z" fill="white"/>
<path fill-rule="evenodd" clip-rule="evenodd" d="M127.938 40.9933C128.53 40.3216 129.443 40.552 129.997 41.0831C130.357 41.1894 130.707 41.3475 131.037 41.5568C131.783 41.461 132.564 41.461 133.296 41.4879C133.473 41.3883 133.664 41.2998 133.871 41.2237C135.349 40.6828 136.659 40.9576 137.739 41.6817C138.26 41.1892 138.916 40.8802 139.755 40.9269C140.504 40.9688 141.038 41.3213 141.495 41.7857C141.951 41.1277 142.689 40.6583 143.607 40.593C144.891 40.5017 146.125 41.0168 147.148 41.8142C147.744 41.1303 148.557 40.7371 149.462 40.7333C150.058 40.6251 150.687 40.6678 151.255 40.8394C152.08 41.0886 152.804 41.5555 153.381 42.1614C154.293 41.2873 155.41 40.6583 156.698 40.75C158.365 40.8705 159.747 42.0966 160.389 43.6056C161.517 44.0577 162.559 44.7025 163.429 45.6219C163.475 45.6703 163.52 45.721 163.566 45.7719C164.035 45.945 164.477 46.1904 164.866 46.5136C166.097 47.5388 166.372 49.0225 165.964 50.4764C166.021 50.7091 166.07 50.9458 166.114 51.1823C167.268 51.3577 168.316 52.0237 168.911 53.1079C169.727 54.5958 169.566 56.5569 168.683 57.9774C168.304 58.5884 167.822 59.1033 167.28 59.5535C167.892 60.9441 167.599 62.6037 166.612 63.7285C166.372 64.1163 166.076 64.4663 165.744 64.7831C166.111 66.2209 165.459 67.7044 164.157 68.4726L164.046 68.7514C164.027 68.7977 164.008 68.8438 163.989 68.8894C163.974 68.9486 163.957 69.0059 163.939 69.0636C163.908 69.5738 163.74 70.0745 163.407 70.5462C162.724 71.513 161.878 72.1434 161.43 73.272L161.385 73.3906C161.192 73.9246 160.569 74.3015 160.038 74.1366C162.985 80.1899 164.53 86.9254 165.59 93.5263C166.119 96.8194 166.527 100.124 166.858 103.441L167.183 106.744C167.468 109.68 167.722 112.626 167.724 115.572C167.728 122.236 165.823 128.646 161.733 133.949C157.864 138.962 152.39 142.596 146.206 144.026C139.822 145.502 132.333 144.92 126.607 141.543C124.919 140.55 126.398 138.161 128.116 138.961C131.367 140.474 134.671 141.598 138.275 141.85C141.789 142.097 145.311 141.657 148.642 140.507C154.154 138.603 158.844 134.615 161.859 129.648C163.344 127.201 164.42 124.544 164.992 121.737C165.705 118.239 165.598 114.623 165.336 111.08L165.318 110.838C164.8 104.011 164.118 97.1425 163.015 90.3838C162.04 84.407 160.541 78.5513 158.595 72.8252C157.833 72.1539 156.98 71.5985 156.068 71.1767C149.386 70.8975 142.692 70.979 136.019 71.4402C130.328 71.8361 124.664 72.5058 119.044 73.482L118.442 73.5877C117.197 73.8094 115.816 73.9363 114.643 74.4374C113.637 74.8685 113.23 75.697 112.976 76.7155C112.338 79.2919 112.241 82.1115 112.133 84.7534C112.028 87.3359 112.266 89.9399 112.059 92.5139C111.884 94.6676 111.333 96.872 109.737 98.4299C108.903 99.2455 107.876 99.6914 106.913 100.311C106.29 100.71 106.025 101.122 106.106 101.862C106.279 103.481 107.583 105.52 106.118 106.907C105.861 107.15 105.415 107.182 105.161 106.907C104.557 106.25 103.723 105.749 103.006 105.218C102.706 104.999 102.956 104.572 103.296 104.724C103.744 104.925 104.2 105.161 104.667 105.368C103.636 104.519 102.17 104.102 100.949 103.855C100.334 103.732 99.6875 103.696 99.0473 103.754C98.5741 103.98 98.0903 104.189 97.6065 104.394C96.9917 104.652 96.3706 104.886 95.7452 105.109C93.5755 106.877 92.5403 109.754 92.9924 112.567C93.2396 114.12 93.9558 115.809 95.3058 116.716C96.9051 117.79 99.0473 117.329 100.775 118.126C102.394 118.871 103.378 120.379 104.116 121.938L104.423 122.588C105.107 124.026 105.811 125.425 106.746 126.734C107.828 128.249 109.152 129.61 110.597 130.779C111.298 131.345 112.046 131.854 112.818 132.317L113.029 132.442C113.811 132.901 114.371 133.338 114.423 134.308C114.44 134.647 114.227 134.955 113.952 135.131C112.769 135.881 111.592 134.943 110.608 134.287C109.545 133.581 108.529 132.787 107.589 131.92C105.802 130.276 104.255 128.323 103.066 126.203C102.159 124.589 101.644 122.317 100.211 121.065C99.3368 120.302 98.1008 120.296 97.0086 120.156C95.9924 120.026 95.0311 119.814 94.1269 119.313C90.4487 117.27 89.4093 112.322 90.2818 108.499C90.4297 107.854 90.6368 107.226 90.8924 106.622C89.5234 106.85 87.9853 105.434 88.541 104.005C88.5832 103.897 88.6318 103.796 88.6783 103.692C87.7762 103.098 87.0642 102.198 86.7262 101.021C86.5529 100.412 86.5276 99.7971 86.6184 99.2032C86.1811 98.9096 85.8199 98.5057 85.5875 98.0091C84.8607 97.673 84.2163 97.1702 83.8318 96.4516C83.2994 95.4602 83.367 94.5471 83.7727 93.725C83.7156 93.6216 83.6607 93.516 83.6079 93.408C82.1184 92.4634 81.079 90.8358 81.1973 89.0309C81.2353 88.4328 81.3832 87.8938 81.6114 87.4079C81.5924 87.3466 81.5734 87.283 81.5565 87.2217C80.31 86.5877 79.279 85.5459 78.9114 84.1553C78.5438 82.7559 78.9769 81.361 79.8431 80.2873C78.5755 79.3597 77.8128 78.0641 78.2755 76.1047C78.4635 75.3081 78.8417 74.583 79.353 73.9722C79.3508 73.9534 79.3466 73.9344 79.3424 73.9151L79.2238 73.8231C77.6589 72.5878 76.7594 71.0135 77.7199 69.0773C78.1508 68.2068 78.7656 67.6 79.4882 67.2005L79.5241 67.0864V67.0864C79.0065 65.9768 78.8311 64.7446 79.1882 63.4491C79.4797 62.382 80.1706 61.5321 81.0537 60.968C80.9945 60.4902 81.003 59.981 81.098 59.4292C81.2565 58.4973 81.7191 57.6836 82.3952 57.1066C82.4206 56.9839 82.4522 56.8636 82.4882 56.7429C82.7163 56.0055 83.1431 55.2045 83.6375 54.6104C84.0452 54.1179 84.5015 53.9383 85.0593 53.9193C85.0255 53.4651 85.0487 53.0041 85.1417 52.537C85.4269 51.0958 86.3438 49.7409 87.7022 49.1259C88.26 48.8743 88.8473 48.8006 89.4135 48.8617C89.8952 47.8472 90.8353 47.1119 91.991 46.9534C92.441 46.89 92.8593 46.894 93.2438 46.9513C93.4614 46.8496 93.6875 46.7589 93.9241 46.6763C94.0804 46.6214 94.2389 46.5706 94.3973 46.5201C94.9318 45.8565 95.6353 45.3258 96.4572 45.0068C97.4058 44.637 98.3713 44.6748 99.2269 44.9855L99.4994 44.9284V44.9284C99.9262 44.1887 100.606 43.6159 101.652 43.356C102.84 43.0622 104.059 43.4722 104.992 44.2185C104.997 44.2185 105.001 44.2185 105.007 44.2162C105.495 43.1235 106.33 42.3626 107.73 42.4155C108.603 42.4493 109.391 42.8828 109.999 43.4999C110.337 43.4574 110.675 43.4194 111.016 43.3816C111.375 42.9608 111.774 42.5679 112.216 42.2149C112.938 41.6356 113.878 41.6823 114.411 42.4979C114.527 42.6754 114.635 42.8551 114.742 43.0347L115.23 43.0009V43.0009C115.805 42.2253 116.589 41.7011 117.662 41.6591C118.647 41.6187 119.348 42.1008 119.883 42.7748C120.318 42.7642 120.755 42.756 121.192 42.7494C121.702 42.1597 122.302 41.6398 122.986 41.2087C123.51 40.879 124.283 40.9912 124.708 41.4308C124.995 41.7296 125.262 42.0416 125.51 42.3645C126.15 41.6468 127.014 41.174 127.938 40.9933ZM96.8438 108.108C97.8304 107.545 99.1572 108.154 100.112 108.632C101.276 109.213 102.432 110.09 103.144 111.189C104.114 112.685 101.834 113.894 100.814 112.552C100.186 111.726 99.6854 110.893 98.9248 110.17C98.2297 109.507 97.222 109.063 96.8227 108.188C96.8079 108.158 96.8121 108.124 96.8438 108.108ZM97.5375 71.7868L97.5559 71.734C97.8365 70.9662 96.612 70.6352 96.3338 71.3967C95.9121 72.5509 96.3982 73.8056 97.5378 74.304C97.8536 74.4422 98.2145 74.3943 98.4048 74.0766C98.5647 73.8092 98.4906 73.346 98.1775 73.2092C97.5363 72.9287 97.3215 72.4336 97.5375 71.7868V71.7868ZM86.9873 69.6398C87.6002 69.0987 86.7008 68.2045 86.0909 68.7432C85.5217 69.2458 85.0996 69.9285 85.2092 70.7136C85.321 71.5138 85.9242 72.0787 86.5844 72.478C87.2841 72.9013 87.9219 71.8053 87.2241 71.383L87.1457 71.335C86.8528 71.153 86.51 70.9028 86.4604 70.5448C86.4078 70.1643 86.7295 69.8674 86.9873 69.6398ZM90.4677 60.0927L90.5111 60.0607C91.1694 59.5907 90.5371 58.4904 89.8712 58.9657C89.2606 59.4017 88.7709 59.9682 88.7193 60.7493C88.6693 61.5085 89.0555 62.1666 89.5604 62.7007C90.1222 63.2948 91.0175 62.397 90.4568 61.8042C89.9105 61.2264 89.8037 60.5959 90.4677 60.0927V60.0927Z" fill="black"/>
<path fill-rule="evenodd" clip-rule="evenodd" d="M147.453 124.137C147.777 123.573 148.523 123.051 149.206 123.131C152.265 123.49 152.259 127.2 151.078 129.366C150.031 131.287 147.863 132.414 145.694 132.249C143.415 132.076 141.473 130.736 140.619 128.603C140.054 127.192 139.793 124.588 141.296 123.64C141.324 123.622 141.37 123.627 141.392 123.652C142.113 124.491 142.141 125.751 142.772 126.684C143.359 127.553 144.271 128.27 145.339 128.381C146.137 128.464 146.944 128.176 147.256 127.46C147.425 127.072 147.406 126.862 147.342 126.595L147.285 126.363C147.085 125.551 146.995 124.933 147.453 124.137ZM148.27 107.866C149.866 108.836 152.296 111.098 150.58 113.504C148.56 115.624 145.651 113.193 144.218 112.093C142.889 111.241 141.396 113.433 142.629 114.428C152.986 122.099 157.189 108.12 149.077 106.726C148.184 106.572 147.852 107.566 148.27 107.866ZM131.423 101.214C132.402 99.7444 134.637 99.9608 135.177 101.705C135.469 102.65 135.065 103.499 135.086 104.442C135.104 105.239 135.052 106.127 134.807 106.899C134.251 108.659 132.668 109.902 130.796 109.851C128.93 109.8 127.287 108.618 126.505 106.954C125.721 105.284 125.887 103.555 126.46 101.857C126.487 101.775 126.594 101.736 126.658 101.804C127.335 102.524 127.831 103.283 128.343 104.089L128.869 104.915C129.27 105.537 129.854 106.331 130.603 106.281L130.716 106.27C130.924 106.252 130.892 106.293 131.053 106.009C131.127 105.878 131.114 105.634 131.15 105.479L131.162 105.426V105.426L131.155 105.398C131.139 105.323 131.124 105.181 131.111 104.935L131.108 104.881C131.054 103.732 130.729 102.255 131.423 101.214ZM156.245 102.193C156.07 100.313 158.711 99.8954 159.59 101.286C160.048 102.012 160.181 102.923 160.282 103.786L160.33 104.196C160.434 105.082 160.475 106.005 160.09 106.832C159.484 108.134 158.167 108.823 156.745 108.714C155.388 108.609 154.149 107.822 153.496 106.627C152.914 105.56 152.336 103.478 153.043 102.366C153.085 102.298 153.171 102.29 153.229 102.342C153.897 102.935 154.006 104.017 154.403 104.79C154.813 105.587 155.434 106.364 156.376 106.485C157.277 106.601 157.621 106.109 157.391 105.25C157.095 104.141 156.357 103.386 156.245 102.193ZM132.137 90.0386L132.569 89.8731C134.049 89.3137 136.081 88.6671 137.285 89.8712C138.027 90.6137 138.168 91.7074 137.638 92.6135C136.996 93.711 135.845 93.7381 134.733 93.8998C133.468 94.0836 132.181 94.4332 131.004 94.9316C129.677 95.4931 128.446 96.1931 127.24 96.9749C126.094 97.7178 124.951 98.932 123.579 99.1609C123.523 99.1702 123.46 99.1461 123.445 99.0846C123.133 97.7425 123.999 96.4218 124.772 95.3748C125.707 94.1071 126.84 93.0666 128.107 92.1337C129.329 91.2332 130.725 90.5824 132.137 90.0386ZM159.024 94.8102L159.156 94.7871C160.054 94.6376 160.867 94.672 161.544 95.3832C162.06 95.9257 162.259 96.6289 162.013 97.3462C161.786 98.008 161.278 98.6803 160.541 98.8189C158.052 99.2873 155.296 99.2099 152.795 98.8553C151.651 98.6929 150.496 98.4943 149.382 98.1811L148.869 98.0323C147.938 97.7665 146.873 97.4887 146.197 96.8041C145.954 96.5581 146.094 96.206 146.385 96.0921C147.564 95.6301 149.181 95.8759 150.438 95.8397C151.901 95.7979 153.366 95.6882 154.822 95.5371C156.245 95.3891 157.621 95.0676 159.024 94.8102Z" fill="black"/>
<path fill-rule="evenodd" clip-rule="evenodd" d="M129.449 129.598C131.159 125.59 134.892 122.644 139.191 121.566C142.347 120.777 145.66 120.803 148.877 121.116C150.563 121.279 152.371 121.412 153.96 122.038C155.316 122.573 156.422 123.585 157.253 124.772C158.243 126.179 158.916 127.789 159.388 129.439C159.456 129.674 159.519 129.91 159.578 130.148C159.372 131.393 158.936 132.453 157.783 133.235C156.658 134 155.316 134.313 153.978 134.424C153.846 134.361 153.719 134.296 153.603 134.229C151.518 133.035 150.05 130.213 147.419 130.595C145.07 130.936 143.524 133.893 142.127 135.626C137.644 136.149 133.163 134.801 129.515 132.236C129.33 131.359 129.319 130.473 129.449 129.598M162.625 126.557C162.266 125.551 161.814 124.575 161.279 123.657C159.509 120.619 156.791 118.198 153.565 116.814C145.934 113.546 136.059 115.85 129.897 121.211C127.791 123.044 125.663 125.737 125.019 128.634C124.827 128.672 124.645 128.772 124.496 128.913C120.043 126.108 115.458 123.41 111.87 119.523C109.264 116.698 107.452 113.355 106.342 109.682C106.251 109.38 105.764 109.424 105.779 109.759C105.783 109.837 105.787 109.915 105.791 109.993C105.745 109.849 105.525 109.923 105.508 110.063C104.911 114.525 104.164 119.256 104.852 123.741C105.264 126.418 106.479 128.377 108.104 130.493C109.844 132.761 111.815 134.87 113.83 136.893C115.108 138.177 116.444 139.658 118.009 140.6C119.83 141.694 121.896 142.525 123.839 143.369C125.816 144.23 127.822 145.026 129.867 145.716C133.954 147.099 138.178 148.056 142.476 148.475C145.917 148.809 149.85 149.173 153.147 147.878C155.675 146.886 157.715 145.092 159.333 142.933C161.095 140.583 162.488 137.905 163.258 135.082C164.058 132.149 162.793 127.03 162.625 126.557" fill="black"/>
</g>
<defs>
<clipPath id="clip0_81_20954">
<rect width="240" height="275" fill="white"/>
</clipPath>
</defs>
</svg>
