<svg width="240" height="275" viewBox="0 0 240 275" fill="none" xmlns="http://www.w3.org/2000/svg">
<g clip-path="url(#clip0_81_21068)">
<rect width="240" height="275" fill="#E7ECED"/>
<path fill-rule="evenodd" clip-rule="evenodd" d="M152.882 154.95C147.65 150.085 149.33 145.392 147.581 139.463C144.201 132.128 137.228 124.904 129.153 123.339C125.122 120.977 119.852 122.316 117.097 126.019C114.509 126.705 114.424 130.284 113.559 132.402C111.96 136.56 110.738 140.797 109.736 145.117C78.5916 151.604 54.7038 172.817 49.7235 204.992C48.8721 209.668 48.1754 214.375 47.5209 219.082C47.1374 223.137 45.1071 229.572 49.2807 232.196C49.4001 235.104 49.7491 238.042 50.8562 240.78C51.2812 243.509 51.6247 246.255 52.5231 248.885C54.5035 253.44 54.8088 258.435 57.0328 262.975C58.5869 266.324 60.8683 269.013 63.6898 271.355C64.8818 272.4 66.5189 273.533 66.7693 275.168C66.6945 277.633 68.5635 281.195 71.5156 280.037C73.6107 280.825 75.8607 281.03 78.0801 281.014C115.69 279.388 153.379 279.25 190.99 281.069C192.309 281.13 193.562 279.865 193.507 278.551C192.907 264.229 191.427 249.947 189.097 235.803C183.899 206.513 178.346 173.752 152.882 154.95V154.95Z" fill="white"/>
<path fill-rule="evenodd" clip-rule="evenodd" d="M112.644 140.399L112.784 140.011C113.636 137.656 114.679 137.481 114.177 139.764L114.1 140.107C113.665 142.06 113.144 144.079 112.077 145.787C110.237 148.733 105.415 149.826 102.2 150.874C102.21 150.948 102.21 151.022 102.202 151.092C104.167 151.392 106.184 152.339 107.83 153.4C109.336 154.374 110.697 155.467 111.711 156.919L116.672 154.763C118.309 154.053 119.959 153.207 121.738 152.922C124.246 152.521 128.112 153.865 127.816 157.029C127.778 157.456 127.51 157.773 127.18 157.929C127.431 157.908 127.685 157.901 127.936 157.91C129.614 157.967 131.984 159.453 131.108 161.412C130.884 161.917 130.237 161.585 130.186 161.163C129.855 158.384 126.984 159.037 124.992 159.491C123.189 159.901 121.408 160.404 119.665 161.019C117.802 161.676 116 162.513 114.337 163.589C112.622 164.701 111.018 166.049 111.124 168.268C111.128 168.315 111.054 168.338 111.033 168.293C110.148 166.404 111.872 164.411 113.272 163.323C115.3 161.748 117.675 160.615 120.075 159.732C121.309 159.279 122.581 158.922 123.858 158.606L124.153 158.534C124.903 158.352 125.68 158.143 126.462 158.016C126.173 157.945 125.921 157.735 125.809 157.356L125.794 157.303C124.666 152.833 118.619 156.429 116.171 157.508C114.419 158.28 112.647 159.02 110.915 159.838L110.692 159.944C109.349 160.589 107.949 161.35 107.046 162.564C104.731 165.671 106.81 169.866 107.541 173.146C107.75 174.087 107.95 175.084 107.963 176.05C107.973 176.841 107.731 177.587 107.535 178.347L107.42 178.796V178.796C107.522 178.798 107.625 178.904 107.591 179.011C106.77 181.695 105.379 184.24 104.025 186.688C102.643 189.186 101.222 191.671 99.6962 194.083C94.2709 202.659 88.0596 210.756 81.2462 218.274C77.98 221.878 74.4476 225.24 71.2596 228.915C69.7765 230.625 68.3887 232.417 67.2307 234.37C66.6054 235.425 66.0434 236.52 65.5702 237.655L65.4768 237.879C65.0888 238.807 64.7075 239.625 63.9857 240.366C63.6267 240.736 62.9082 240.58 62.7941 240.051C62.2638 237.566 64.0218 234.882 65.2978 232.853C66.6751 230.663 68.285 228.621 69.9962 226.683C70.48 226.134 70.9723 225.593 71.4709 225.058C69.2401 225.671 66.8906 225.834 64.6174 226.235C62.2892 226.645 59.9758 227.134 57.7197 227.844C55.6469 228.495 53.6737 229.355 51.7873 230.433C50.8828 230.951 49.9978 231.519 49.1697 232.155C49.0913 232.214 49.0152 232.278 48.9392 232.339C50.2913 235.738 51.3307 239.263 52.4167 242.748C53.158 245.131 53.8827 247.52 54.6026 249.91L56.2195 255.29C57.3859 259.168 58.3575 263.387 60.4133 266.914C61.3007 268.436 62.5005 269.811 63.8737 270.915C64.5394 271.452 65.264 271.86 66.0159 272.255C66.4892 272.504 66.9075 272.828 67.3469 273.123C67.6362 272.793 68.075 272.589 68.6135 272.675L68.6737 272.686C70.3744 273.02 72.1281 272.417 73.6406 271.674C75.2166 270.896 76.7866 269.983 78.1195 268.833C80.7413 266.569 82.9152 263.748 85.0345 261.026C92.5892 251.312 99.0225 240.673 104.266 229.543C106.93 223.883 109.417 218.128 111.753 212.324C112.922 209.425 114.073 206.519 115.195 203.6L115.343 203.21C116.348 200.531 117.228 197.624 118.843 195.262C118.856 195.241 118.873 195.224 118.892 195.211C118.896 195.144 118.918 195.08 118.951 195.025C119.452 194.224 120.411 193.989 121.242 193.618C122.177 193.197 123.111 192.779 124.045 192.36C124.78 192.03 125.857 191.751 126.409 191.126C127.034 190.422 127.244 189.169 127.548 188.298C128.237 186.33 128.982 184.386 129.728 182.439C130.383 180.73 130.949 178.895 131.868 177.302C132.653 175.942 133.774 175.225 135.07 174.443L135.351 174.273C135.892 173.942 136.47 173.547 136.685 172.929C137.036 171.918 136.256 170.952 135.428 170.471C133.588 169.403 131.384 170.635 129.77 171.576C128.148 172.523 126.565 173.66 124.831 174.393C124.793 174.408 124.765 174.351 124.793 174.326C126.187 173.048 127.891 171.995 129.493 170.956L129.891 170.697C130.953 170.001 132.164 169.323 133.444 169.135C133.178 169.046 133.26 168.702 133.514 168.67C136.032 168.363 138.589 168.757 141.082 168.169C143.306 167.645 145.248 166.387 146.803 164.732C148.269 163.173 149.431 161.368 150.515 159.529C151.144 158.46 151.759 157.382 152.397 156.316C152.492 156.156 152.587 155.978 152.684 155.788C151.543 155.524 150.381 154.674 149.606 154.015C148.402 152.992 147.523 151.61 146.911 150.168C145.474 146.785 145.588 142.915 146.663 139.453C146.729 139.241 147.042 139.231 147.103 139.453C147.929 142.418 148.003 145.633 149.3 148.461C149.819 149.593 150.544 150.612 151.436 151.479C151.888 151.916 152.344 152.284 152.898 152.588C153.491 152.916 154.125 153.023 154.596 153.544C154.624 153.573 154.649 153.603 154.672 153.634C154.948 153.597 155.186 153.637 155.376 153.756L155.416 153.782L155.424 153.77C154.573 153.189 153.717 152.614 152.811 152.106C152.57 151.971 152.746 151.648 152.986 151.69L153.583 151.796C155.575 152.151 157.605 152.554 159.424 153.44C161.442 154.425 163.368 155.562 165.206 156.849C168.827 159.381 172.123 162.372 175.007 165.717C180.327 171.891 184.087 179.313 186.413 187.095C189.32 196.82 190.444 207.034 191.672 217.079C192.258 221.888 192.785 226.706 193.253 231.529L193.379 232.844C193.613 235.326 193.867 237.803 194.105 240.277C194.528 240.941 194.558 241.729 194.308 242.414C194.492 244.42 194.657 246.428 194.788 248.442C195.122 253.639 195.337 258.853 195.43 264.063C195.523 269.347 195.331 274.622 195.269 279.906C195.244 282.129 191.877 282.121 191.824 279.906C191.689 274.068 191.27 268.229 190.972 262.395C190.681 256.701 190.41 251.01 190.062 245.32C190.028 244.779 189.996 244.236 189.967 243.695C189.475 243.882 188.867 243.96 188.351 244.062L188.224 244.088C187.186 244.309 186.146 244.468 185.091 244.564L184.75 244.593C183.793 244.659 178.89 244.764 175.991 244.236C176.222 247.958 176.454 251.68 176.71 255.4C177.001 259.641 177.056 263.89 177.27 268.136C177.377 270.257 177.506 272.365 177.777 274.474C177.9 275.434 178.026 276.396 178.177 277.352L178.254 277.83C178.389 278.652 178.558 279.356 178.21 280.09C178.514 281.03 178.041 282.216 176.794 282.121C168.804 281.522 160.795 281.269 152.784 281.233C138.952 281.167 125.129 281.722 111.304 282.102L107.568 282.203C94.6178 282.558 81.604 282.936 68.714 281.503C68.6864 283.154 65.6019 283.135 65.7666 281.294L65.8071 280.85C65.9927 278.847 66.2333 276.772 66.8547 274.844C66.3392 274.859 65.8216 274.838 65.3357 274.677C64.645 274.451 63.9814 274.041 63.3814 273.635C62.0462 272.735 60.9181 271.625 59.9443 270.344C58.0321 267.831 56.7624 264.853 55.7589 261.88C54.6919 258.71 53.7156 255.504 52.8035 252.287L51.8218 248.803C50.5756 244.372 49.352 239.873 48.6096 235.326C48.5295 235.431 48.4195 235.522 48.2739 235.588C44.3019 237.363 40.9047 233.721 40.2328 230.04C39.8373 227.868 39.93 225.646 39.9633 223.448L39.9667 223.213C40.0005 220.681 40.011 218.149 40.1401 215.619C40.5667 207.161 42.5378 198.965 45.6033 191.086C48.4913 183.669 51.9814 176.194 56.4774 169.606C58.6131 166.478 61.0765 163.473 64.0448 161.095C67.1758 158.591 70.6957 156.686 74.3824 155.135C78.1493 153.55 82.0554 152.297 85.9662 151.113C90.2802 149.807 94.645 148.685 99.0838 147.896C99.4068 147.839 99.7237 147.934 99.9035 148.23C100.06 148.49 100.205 148.756 100.347 149.027C100.953 148.647 101.885 148.554 102.492 148.368C104.395 147.778 107.819 147.425 109.328 146.081C111.048 144.549 111.875 142.507 112.644 140.399ZM48.2695 232.929C48.0014 233.174 47.7328 233.419 47.4563 233.65C47.8173 233.497 48.1448 233.599 48.3857 233.823C48.3436 233.525 48.3054 233.227 48.2695 232.929ZM135.591 175.769C135.181 176.023 134.775 176.276 134.406 176.581C133.077 177.68 132.628 179.474 132.075 181.038L132.04 181.137C131.359 183.031 130.672 184.929 129.952 186.808C129.726 187.398 129.515 188.03 129.289 188.666C132.335 191.595 135.449 194.493 138.709 197.183C144.675 202.106 151.176 206.381 158.084 209.864C161.636 211.656 165.303 213.288 169.077 214.554C170.44 215.011 171.827 215.412 173.237 215.71L173.239 215.689V215.689C173.245 215.638 173.328 215.615 173.336 215.676L173.344 215.733V215.733C173.948 215.858 174.557 215.964 175.168 216.046C176.325 216.2 177.496 216.27 178.664 216.26C179.389 216.253 180.107 216.164 180.821 216.2C177.659 213.349 174.479 210.519 171.291 207.702C165.248 202.359 159.173 197.058 153.086 191.766C150.383 189.416 147.651 187.094 144.96 184.728L142.368 182.438C140.078 180.412 137.802 178.354 135.818 176.038L135.591 175.769ZM108.584 191.477C108.4 191.251 108.679 190.963 108.905 191.156C110.255 192.299 111.781 192.8 113.401 193.415C113.779 193.559 113.75 194.161 113.302 194.155C111.419 194.121 109.723 192.903 108.584 191.477ZM127.497 163.325L127.632 163.271C129.536 162.524 132.005 162.153 133.503 163.885C134.589 165.143 134.866 167.522 133.451 168.619C133.111 168.883 132.39 168.657 132.606 168.127C133.227 166.611 133.358 164.627 131.403 164.044C129.708 163.537 127.726 164.525 126.182 165.212L125.74 165.407C122.73 166.744 119.74 168.364 117.895 171.195C117.846 171.267 117.717 171.221 117.749 171.134C119.222 167.055 123.73 164.859 127.497 163.325ZM105.193 154.59L104.462 154.313C102.6 153.618 100.283 152.912 99.128 154.913C98.6953 155.661 98.323 156.587 98.162 157.448L98.1414 157.566C98.097 157.832 98.0397 158.117 98.2301 158.322C98.5235 158.643 99.4785 158.8 99.863 158.939L102.281 159.818V159.818L103.488 160.258C104.038 160.459 104.747 160.66 105.153 161.101C106.573 159.237 108.831 158.176 110.963 157.244C109.043 156.35 107.181 155.338 105.193 154.59Z" fill="black"/>
<path fill-rule="evenodd" clip-rule="evenodd" d="M110.174 51.5414C142.196 49.9661 163.923 75.2293 164.857 85.3035C165.506 92.2965 165.066 101.623 165.066 107.872C165.066 111.061 166.675 120.757 164.857 125.406C160.812 135.753 156.242 143.858 143.579 143.858C130.917 143.858 111.613 137.293 104.984 128.824C103.774 127.278 88.7348 115.96 88.7348 107.064C88.7348 88.0838 87.3249 52.6655 110.174 51.5414Z" fill="white"/>
<path fill-rule="evenodd" clip-rule="evenodd" d="M88.3285 31.0416C90.1534 30.4709 91.3181 31.2924 92.149 32.5652C92.3322 32.5295 92.5095 32.5318 92.7068 32.5794C92.7556 32.5912 92.8737 32.6358 92.963 32.6709C93.0321 32.6998 93.0945 32.7349 93.1545 32.7721L93.1902 32.7533V32.7533C93.3271 32.6039 93.4709 32.4675 93.6262 32.3576C93.9752 32.1108 94.3348 32.0389 94.676 32.0897L94.834 32.0315V32.0315C96.1849 31.5606 97.6494 31.7792 98.5652 32.9433C98.7425 33.1682 98.8857 33.4186 99.008 33.6828C99.2827 33.7728 99.5404 33.903 99.7625 34.0632C99.9184 33.9899 100.083 33.9282 100.26 33.8827C101.256 33.627 102.303 33.8684 103.115 34.4796C103.511 34.777 103.802 35.1494 104.022 35.5746C104.273 35.6336 104.522 35.7397 104.754 35.8821C104.954 35.7826 105.157 35.6892 105.365 35.6251C106.126 35.3914 106.942 35.3053 107.734 35.3643C109.44 35.4909 111.09 37.4406 109.95 39.1148L109.915 39.1654C109.77 39.3673 109.644 39.5759 109.527 39.7879C109.936 39.9656 110.329 40.2034 110.693 40.5014C112.47 41.9587 112.63 44.2053 112.298 46.3246L112.283 46.4129H112.288C113.232 46.5026 114.047 47.4893 113.49 48.4174L113.462 48.4608C112.707 49.6281 112.06 50.9176 111.338 52.146C109.342 52.866 107.416 53.7528 105.603 54.8274C104.474 55.8169 103.399 56.8631 102.453 58.027C101.981 58.6082 101.547 59.2234 101.149 59.8613C101.467 60.0145 101.862 60.0067 102.195 59.6981C105.156 56.9525 108.735 55.0256 112.545 53.7342C112.819 53.641 112.999 53.4656 113.1 53.2581C114.791 52.776 116.513 52.4021 118.251 52.1375C118.73 51.6808 119.232 51.2441 119.709 50.7893C120.318 50.2089 121.081 50.2174 121.651 50.582C121.934 50.4529 122.224 50.3389 122.518 50.2365L122.7 50.1743C122.776 50.1493 122.849 50.1204 122.924 50.0975C124.963 49.4738 126.829 49.7054 128.835 50.2179L129.092 50.2848C130.027 50.533 130.616 50.4934 131.522 50.2649L131.624 50.2387C132.586 49.9876 133.615 49.8017 134.599 50.0661C135.628 50.3428 136.311 50.9582 137.012 51.7017L137.082 51.7765C137.409 52.1266 137.598 52.1648 138.026 52.1563L138.485 52.1427C140.216 52.0952 141.911 52.1682 143.208 53.5077C143.687 54.003 144.202 54.7041 144.51 55.3439L144.555 55.4394C144.57 55.4705 144.582 55.4965 144.594 55.5197C144.78 55.4897 145.069 55.372 145.207 55.3452C147.094 54.9791 148.668 55.5432 149.88 57.0305C150.145 57.3559 150.545 57.9951 150.822 58.3463C150.919 58.4288 151.011 58.5171 151.098 58.6099C151.553 58.9005 152.197 58.8821 152.707 58.984C154.097 59.2608 155.583 59.7896 156.29 61.1129C156.585 61.6652 156.694 62.2694 156.819 62.873C157.286 63.1801 157.652 63.6227 157.937 64.1018C158.282 64.6835 158.429 65.3959 158.827 65.9452C159.116 66.3443 159.558 66.5573 159.978 66.8012L160.139 66.8955C161.384 67.6373 162.359 68.4605 162.769 69.914L162.805 70.0433C162.871 70.2659 163.105 70.9013 162.901 70.8059C163.076 70.9024 163.374 70.9365 163.534 70.9893C164.397 71.2753 165.149 71.7373 165.609 72.5487C165.959 73.1662 166.022 73.8099 166.123 74.4907L166.165 74.7655C166.176 74.832 166.189 74.9093 166.203 74.9842L166.216 75.0578L166.219 75.0595C166.375 75.1271 166.529 75.2005 166.68 75.2795C167.396 75.7012 167.886 76.4331 167.886 77.2804C167.886 77.6916 167.757 78.0121 167.57 78.298C167.721 78.5271 167.838 78.7712 167.927 79.0432C168.101 79.5744 168.113 80.1551 168.054 80.7047C167.984 81.3641 167.815 81.9645 167.616 82.5943C167.539 82.8374 167.508 83.177 167.392 83.4091C167.606 83.6811 167.733 84.0136 167.693 84.3416C167.637 84.8108 167.423 85.3592 166.998 85.6224C166.79 86.6474 166.343 87.6949 165.903 88.5329C165.852 88.6301 165.791 88.7167 165.724 88.7886C165.785 92.1343 165.54 95.5034 165.523 98.8446C165.504 102.482 165.58 106.122 165.707 109.755C165.92 115.776 166.683 122.002 164.906 127.874C163.452 132.68 160.541 136.805 156.637 139.933C152.64 143.133 147.821 144.985 142.704 145.274C140.101 145.42 137.454 145.124 134.936 144.45L134.667 144.377C132.23 143.707 129.408 142.684 127.615 140.893C126.669 139.946 127.626 137.94 129.014 138.492C130.389 139.039 131.623 139.849 132.988 140.419C134.207 140.929 135.479 141.32 136.767 141.607C139.351 142.188 142.091 142.315 144.717 141.954C154.199 140.656 161.587 132.779 163.045 123.439C163.448 120.853 163.441 118.224 163.413 115.61L163.383 112.747C163.36 110.351 163.352 107.954 163.44 105.559C163.552 102.478 163.769 99.3984 164.061 96.3298L164.213 94.733C164.393 92.8647 164.596 90.9822 164.946 89.1394C164.659 89.1544 162.397 85.2834 161.142 83.1202C160.684 82.7567 160.297 82.305 160.148 81.7206C160.117 81.5987 160.101 81.4757 160.091 81.3524C159.818 80.924 159.531 80.5066 159.227 80.1017L159.161 80.0721C159.11 80.0488 159.071 80.0294 159.047 80.0163C158.385 79.6407 157.832 79.0718 157.454 78.4124C157.326 78.19 157.222 77.9579 157.137 77.7206C156.597 77.1907 156.032 76.6852 155.439 76.2111C155.381 76.1646 155.321 76.1211 155.262 76.0752C154.507 75.7933 153.844 75.3685 153.36 74.7566C153.158 74.6315 152.955 74.5089 152.75 74.3889C152.134 74.3832 151.512 74.2397 150.907 73.9909C149.8 73.5361 148.916 72.6372 147.804 72.2206C146.628 71.7804 145.388 72.7809 144.139 72.6004C143.82 72.5544 143.504 72.4573 143.209 72.3166C142.506 73.0622 141.759 73.7652 140.936 74.3804C139.74 75.2736 138.518 75.6817 137.133 76.0852C136.447 76.7368 135.678 77.3685 134.751 77.4613C132.606 79.1766 130.312 80.6235 127.898 81.9668C127.51 82.1828 127.124 82.2803 126.758 82.2828C126 82.7583 125.174 83.1242 124.301 83.3774C124.027 83.4566 123.745 83.4733 123.468 83.4393L122.71 84.0567V84.0567C122.183 84.4861 121.62 84.6914 121.082 84.7047C120.755 84.9555 120.416 85.1929 120.066 85.4212C119.692 85.6661 119.207 85.7676 118.719 85.738C117.975 86.4667 117.009 86.5432 116.2 86.2076C116.089 86.2727 115.975 86.3344 115.846 86.3951C115.672 86.4777 115.49 86.5474 115.304 86.6039C114.461 87.5131 113.226 87.9899 111.989 87.8652C111.066 88.4312 109.99 88.7256 108.939 88.6595C108.779 89.4651 108.646 90.2738 108.534 91.0851L108.523 91.6795C108.521 91.7758 108.521 91.8509 108.522 91.9003L108.523 91.92C108.626 94.5257 108.682 97.1327 108.784 99.7389L108.793 99.9446C108.909 102.221 109.469 106.373 106.123 106.282C104.877 106.249 103.64 105.33 102.669 104.575L102.532 104.468C102.458 104.411 102.382 104.351 102.305 104.291C101.579 104.196 100.864 104.02 100.131 103.993C99.2271 103.961 98.2764 104.054 97.3954 104.259C95.8405 104.621 94.3363 105.329 93.3222 106.612C93.2335 106.724 93.1511 106.842 93.0729 106.96C93.0011 107.204 92.8785 107.428 92.7159 107.622C91.7567 109.78 92.3104 112.631 93.3708 114.605C94.6342 116.956 96.6335 118.582 99.1475 119.4L99.2736 119.441C100.991 119.978 101.648 121.017 102.582 122.463C103.457 123.82 104.46 125.084 105.538 126.284C107.623 128.607 110.549 130.524 111.762 133.464C112.007 134.056 111.305 134.614 110.762 134.462C108.635 133.863 107.143 132.348 105.597 130.841C104.527 129.798 103.497 128.712 102.532 127.572C102.329 127.665 102.106 127.728 101.874 127.757C100.849 127.882 99.7925 127.83 98.8954 127.277C98.482 127.315 98.0512 127.171 97.7314 126.878C97.4379 126.609 97.1848 126.317 96.971 126.007C96.6461 126.035 96.3271 126.044 96.0226 125.993C95.8758 125.979 95.7336 125.941 95.6033 125.877C95.3611 125.782 95.1315 125.634 94.9206 125.408C94.4935 124.949 94.3297 124.301 94.4085 123.685C94.324 123.668 94.2402 123.646 94.1573 123.618C93.5886 123.425 93.1509 123.043 92.8711 122.522C92.3706 122.242 91.92 121.861 91.5788 121.456C91.1633 120.964 90.8497 120.409 90.6655 119.796C90.4752 119.708 90.2903 119.605 90.1133 119.485C88.8446 118.627 88.1183 117.014 88.6164 115.524L88.6334 115.477C88.6586 115.41 88.7044 115.295 88.7605 115.166C88.7525 115.061 88.744 114.956 88.7383 114.851L88.7208 114.534V114.534L88.4666 114.426V114.426C87.199 113.921 86.3421 113.241 86.1898 111.814C86.1581 111.519 86.2726 111.218 86.4533 110.966L86.4524 110.887V110.887C86.37 110.844 86.2916 110.801 86.2226 110.757C85.5315 110.315 85.1068 109.524 85.1544 108.706C85.198 107.96 85.6111 107.365 86.0755 106.815L86.2082 106.661C86.2192 106.648 86.2315 106.634 86.2447 106.619L85.9377 106.523C85.7385 106.459 85.5561 106.396 85.4248 106.323C84.9169 106.038 84.4864 105.653 84.2208 105.164C84.1821 105.103 84.1428 105.044 84.1073 104.979C83.7645 104.353 83.7197 103.551 83.9409 102.88C83.9671 102.8 84.0009 102.726 84.0355 102.651C83.1017 102.322 82.3828 101.642 82.2961 100.388C82.2621 99.8942 82.3701 99.4028 82.6048 98.982C82.5528 98.6986 82.5421 98.4048 82.5756 98.1142C82.2471 97.8037 81.9919 97.4297 81.8778 96.9733C81.6621 96.1112 82.057 95.291 82.6439 94.5388C82.4267 93.9441 82.4155 93.273 82.6635 92.6743C82.568 92.3754 82.5137 92.0595 82.5108 91.735C82.5042 91.0166 82.7254 90.4166 83.0827 89.9062C82.5805 89.292 82.342 88.4758 82.6386 87.7109C82.8497 87.1673 83.0909 86.67 83.369 86.2093C83.223 85.8589 83.138 85.4664 83.138 85.027C83.138 84.2365 83.4342 83.6103 83.8874 83.0978C83.6907 82.1617 84.0907 81.0217 84.9623 80.6096C85.2909 80.454 85.7307 80.2917 86.2154 80.1653C86.3973 79.5968 86.5872 79.0306 86.7877 78.4684C87.1035 77.5834 87.4433 76.7108 87.8033 75.8483C87.596 76.0298 87.3786 76.1991 87.1538 76.3525C86.4429 77.2567 85.5004 78.04 84.7084 78.5085C83.1383 79.4376 81.3425 78.8864 80.5673 77.3319C79.8389 77.8759 78.9647 78.198 78.0319 78.0879C76.9743 77.963 76.0073 77.2778 75.7433 76.209C75.705 76.0543 75.682 75.8871 75.6797 75.7189C75.0731 76.1509 74.4385 76.5485 73.7423 76.7761C72.8557 77.0661 71.9506 76.3705 71.8335 75.504C71.7873 75.1605 71.8515 74.857 71.9882 74.6007L71.9016 74.5666C71.8872 74.5606 71.8729 74.5543 71.8587 74.5476C71.3937 74.3297 71.0326 73.9302 70.8611 73.4695C69.8542 73.8592 68.7015 73.4025 68.3821 72.2948C68.0018 70.9781 67.9787 69.6445 68.2764 68.3618C67.2095 67.5861 66.5145 66.2821 66.3961 64.9189C66.3097 63.9404 66.5432 63.037 66.9545 62.2018C65.9455 61.8243 65.5986 60.5013 66.0782 59.5481C65.4412 59.1833 65.0259 58.4099 65.0166 57.6571C64.732 57.226 64.6409 56.6707 64.8769 56.0485C65.1881 55.2287 65.8219 54.5429 66.5476 54.005C66.2311 53.4538 65.996 52.8527 65.85 52.2315C65.2488 52.0555 64.7635 51.569 64.6646 50.8383C64.5408 49.9223 65.1435 49.1458 65.9548 48.9408C66.0448 48.6618 66.1547 48.389 66.2905 48.1269C65.8891 47.1758 65.9483 45.9733 66.4659 44.9334C66.9243 44.014 67.6701 43.4518 68.568 43.063C68.3398 42.281 68.6419 41.5011 69.4025 40.9199C70.331 40.2095 71.3493 39.6666 72.4194 39.283C72.3243 38.01 72.8563 36.7064 74.1135 36.2626C74.4497 36.144 74.7995 36.1002 75.1551 36.1017C75.4133 35.5402 75.844 35.0836 76.4062 34.6795C77.2569 34.0683 78.8468 34.4417 79.3185 35.4002L79.3416 35.4495C79.3657 35.5038 79.3916 35.5535 79.4164 35.6061C79.5114 35.1407 79.7337 34.7011 80.0909 34.3407C80.984 33.4398 81.9268 33.4229 82.8342 33.8081C83.0007 33.3952 83.2023 33.0025 83.4473 32.6434C84.337 31.3406 85.8068 31.1747 86.883 31.8802C87.3144 31.5008 87.7959 31.2083 88.3285 31.0416ZM94.6889 109.383C96.4802 108.681 98.6542 108.888 100.425 109.562L100.554 109.613C102.118 110.231 104.659 111.607 104.965 113.367C105.123 114.278 104.257 115.066 103.378 114.586C102.613 114.17 102.184 113.331 101.576 112.722C100.974 112.12 100.3 111.636 99.5649 111.211C98.0311 110.325 96.419 109.981 94.6889 109.725C94.4945 109.698 94.5473 109.438 94.6889 109.383Z" fill="black"/>
<path fill-rule="evenodd" clip-rule="evenodd" d="M143.152 128.274C141.731 127.695 140.464 126.728 139.538 125.493C139.216 125.063 139.132 124.61 139.2 124.195C139.276 123.729 139.551 123.306 139.927 123.023C140.305 122.739 140.777 122.598 141.233 122.67C141.629 122.732 142.024 122.949 142.336 123.399L142.401 123.49C142.952 124.235 143.67 124.847 144.488 125.241C145.276 125.621 146.157 125.798 147.07 125.695C148.807 125.499 150.005 124.559 151.277 123.282C151.435 123.121 151.593 122.955 151.752 122.786C151.852 122.633 151.991 122.534 152.145 122.483C152.317 122.425 152.51 122.429 152.688 122.491C152.859 122.55 153.012 122.664 153.115 122.815C153.213 122.958 153.268 123.135 153.25 123.339C153.134 124.662 152.442 125.842 151.46 126.769C150.37 127.799 148.924 128.511 147.563 128.761C146.063 129.036 144.535 128.839 143.152 128.274V128.274ZM148.27 107.866C149.866 108.836 152.297 111.099 150.58 113.504C148.56 115.624 145.652 113.193 144.218 112.093C142.889 111.241 141.396 113.433 142.629 114.428C152.986 122.099 157.189 108.12 149.077 106.726C148.184 106.572 147.852 107.566 148.27 107.866ZM129.71 98.943C129.886 96.7542 133.219 96.2571 133.55 98.4231C133.847 100.363 133.497 102.146 132.624 103.892C131.789 105.561 129.691 104.783 129.532 103.263C129.32 101.226 129.6 100.305 129.71 98.943ZM155.076 97.974C155.541 97.3653 156.211 96.9498 157.015 97.1846C159.526 97.9186 158.786 101.485 157.904 103.221C157.425 104.163 155.876 104.402 155.176 103.572C154.035 102.219 153.489 99.5158 154.939 98.1826C154.979 98.1137 155.022 98.0442 155.076 97.974ZM132.589 89.3655L132.985 89.296C134.212 89.0837 135.738 88.8798 136.606 89.8666C137.066 90.3899 137.225 91.3625 136.606 91.8634C135.517 92.7448 134.314 92.4032 133.01 92.4778C131.935 92.5395 130.902 92.7175 129.866 93.0136C127.595 93.6631 125.744 94.8487 123.804 96.1507C123.549 96.3214 123.289 95.9957 123.411 95.7576C124.531 93.5631 126.701 91.7605 128.875 90.6617C130.035 90.0752 131.305 89.5887 132.589 89.3655ZM152.787 88.3825L153.091 88.4446C156.394 89.1354 160.686 90.5154 162.251 93.7616C162.311 94.2207 162.248 94.319 162.196 94.3833L162.179 94.4047C162.137 94.4596 162.103 94.5353 161.904 94.5977C161.849 94.5846 161.794 94.5706 161.737 94.5559C161.02 94.3679 160.453 94.1089 159.903 93.8401L159.308 93.5466C158.617 93.2077 157.92 92.8811 157.181 92.64C155.605 92.1256 153.983 91.7632 152.336 91.5697C151.979 91.5278 151.636 91.4073 151.365 91.2008C151.107 91.0047 150.911 90.7333 150.821 90.3726C150.705 89.9057 150.738 89.5522 150.989 89.131C151.177 88.8147 151.446 88.5954 151.756 88.4695C152.071 88.3412 152.43 88.3109 152.787 88.3825Z" fill="black"/>
</g>
<defs>
<clipPath id="clip0_81_21068">
<rect width="240" height="275" fill="white"/>
</clipPath>
</defs>
</svg>
