<svg width="240" height="275" viewBox="0 0 240 275" fill="none" xmlns="http://www.w3.org/2000/svg">
<g clip-path="url(#clip0_81_21038)">
<rect width="240" height="275" fill="#E7ECED"/>
<path fill-rule="evenodd" clip-rule="evenodd" d="M43.0084 273.246C42.7209 273.256 42.8115 273.172 42.9172 273.151C42.9476 273.183 42.978 273.215 43.0084 273.246ZM51.4983 279.56C59.5322 280.513 67.576 279.641 75.5704 278.767C91.7661 277.566 107.848 281.065 124.076 279.998C144.356 279.143 164.691 277.538 184.903 280.243C190.494 280.372 199.411 281.881 197.384 273.223C194.721 250.964 191.16 228.817 187.346 206.729C184.113 194.346 183.879 172.928 175.028 164.317C173.734 163.135 169.092 159.311 167.865 158.798C161.763 156.525 150.764 154.752 146.226 149.935C142.551 143.713 144.261 135.223 138.545 130.214C133.536 126.123 122.603 126.988 117.248 130.06C113.022 132.801 112.36 138.124 109.727 142.061C109.078 143.004 107.535 145.278 106.664 146.012C104.544 148.054 97.0965 150.2 94.9458 150.594C82.8091 153.082 76.7575 154.619 67.2118 162.687C42.2699 188.16 45.8055 233.214 38.904 266.524C38.6216 270.186 36.3963 275.155 40.3664 277.512C43.7858 279.151 47.8062 278.973 51.4983 279.56Z" fill="white"/>
<path fill-rule="evenodd" clip-rule="evenodd" d="M143.444 141.467C143.474 141.38 143.613 141.365 143.634 141.467C143.974 143.024 144.612 144.732 145.259 146.193C145.916 147.672 146.814 149.031 147.948 150.185C150.325 152.603 153.382 153.706 156.735 153.708L156.815 153.71C156.83 153.598 156.848 153.485 156.864 153.372L156.887 153.203C157.193 150.887 159.942 150.954 160.478 152.702C160.751 152.789 161.023 152.876 161.294 152.966L161.348 152.986C161.803 153.159 163.345 153.927 163.628 153.723C164.252 153.275 164.964 153.789 165.2 154.361C165.587 155.299 165.652 156.458 165.777 157.476L165.794 157.607L165.813 157.766C174.633 160.059 179.583 168.887 182.11 177.02C183.479 181.429 184.375 185.977 185.275 190.5C186.238 195.338 187.126 200.188 188.066 205.028C189.919 214.566 191.672 224.126 193.195 233.721L193.637 236.508C195.032 245.331 196.392 254.149 197.535 263.012C198.152 267.791 198.73 272.574 199.288 277.361C199.388 278.215 199.487 279.068 199.585 279.923L199.732 281.205C199.863 282.355 200.085 283.492 199.516 284.568C198.285 286.901 194.554 286.884 194.342 283.896C194.3 283.302 194.501 282.847 194.833 282.53L194.828 282.48C194.825 282.45 194.821 282.428 194.82 282.418C194.71 281.825 194.68 281.197 194.613 280.596C194.465 279.316 194.321 278.035 194.176 276.752C193.895 274.309 193.611 271.866 193.318 269.425C192.724 264.473 192.097 259.527 191.431 254.586L190.772 249.7C188.566 233.414 186.267 217.131 183.242 200.975C182.419 196.576 181.572 192.185 180.703 187.795C179.879 183.638 178.954 179.499 177.572 175.486C175.316 168.93 171.371 162.79 165.895 158.487C165.98 159.309 166.041 160.135 166.119 160.958C166.32 163.069 166.533 165.178 166.749 167.287C167.533 174.93 168.595 182.56 170.408 190.033C171.306 193.736 172.4 197.39 173.733 200.96C174.39 202.718 175.107 204.453 175.892 206.157C176.67 207.841 178.033 209.642 178.115 211.519C178.153 212.388 177.245 213.159 176.404 213.066C176.797 216.524 177.019 220.017 177.253 223.467C177.595 228.463 177.868 233.468 178.267 238.46C178.981 247.402 179.877 256.331 180.815 265.253C181.001 267.021 181.203 268.788 181.403 270.555L181.57 272.039C181.683 273.001 181.854 274.153 181.343 275.006C181.8 276.108 182.112 277.238 182.294 278.418C182.524 279.884 181.686 281.529 179.974 281.465C179.78 281.459 179.585 281.442 179.391 281.421C177.804 281.789 176.222 282.112 174.574 282.123C172.47 282.137 170.361 282.095 168.257 282.08C164.186 282.053 160.115 282.025 156.044 281.992C141.306 281.873 126.561 281.88 111.826 281.643L105.93 281.549C100.525 281.462 95.1188 281.362 89.7164 281.165C85.996 281.03 82.2758 280.892 78.5572 280.742L77.8002 280.714C74.5192 280.594 71.2344 280.533 67.9896 280.03C67.9083 280.016 67.8731 279.932 67.8857 279.858L67.8903 279.838L67.7488 279.806C67.6664 280.161 65.9551 278.669 65.9678 277.678C65.2579 276.754 65.5896 275.279 65.6657 274.21C65.7396 273.168 65.8326 272.124 65.915 271.082C66.0903 268.856 66.2403 266.628 66.4199 264.403C67.1446 255.429 67.7699 246.432 68.1756 237.439C68.3805 232.905 68.5453 228.37 68.7185 223.836C68.7965 221.772 68.9051 219.706 69.1075 217.652L69.1601 217.138C69.3819 215.055 69.3608 212.814 70.1277 210.851C70.1382 210.824 70.1741 210.824 70.1847 210.851C70.9601 212.762 71.034 214.983 71.1903 217.08C71.2178 217.071 71.2453 217.067 71.2748 217.06C72.346 216.551 73.4277 216.093 74.4417 215.463C74.5791 215.378 74.7122 215.289 74.8474 215.203C76.4425 210.321 78.291 205.519 79.9918 200.668C85.4868 184.984 88.5206 168.281 89.1925 151.673C85.0009 154.376 80.4359 156.479 75.9982 158.738L75.5826 158.95C71.2115 161.186 67.0263 163.724 63.9143 167.602C61.2016 170.98 59.4291 175.095 57.7706 179.062C55.9896 183.325 54.384 187.664 52.9157 192.043C49.9368 200.928 47.6298 210.031 45.8298 219.227C44.053 228.302 42.7833 237.445 41.934 246.652C41.5009 251.348 41.1058 256.048 40.7741 260.755C40.6051 263.137 40.4551 265.521 40.3157 267.907C40.2481 269.065 40.1974 270.226 40.1213 271.384C40.0748 272.052 40.0664 272.74 39.8467 273.375C39.6629 273.903 39.3375 274.345 39.0333 274.812C38.4777 275.664 37.0748 275.818 36.553 274.812L36.3271 274.376C36.028 273.796 35.7548 273.212 35.7143 272.542C35.6763 271.908 35.7544 271.246 35.7903 270.61C35.8601 269.323 35.9403 268.034 36.0206 266.747C36.1896 264.039 36.3777 261.332 36.5889 258.627C37.0094 253.208 37.5502 247.803 38.2305 242.41C40.6241 223.467 44.0805 204.623 50.6763 186.645C52.3072 182.2 54.1263 177.791 56.1798 173.524C58.1657 169.399 60.6777 165.504 64.3241 162.663C67.6808 160.048 71.5826 158.297 75.4594 156.598L75.9439 156.386C80.2896 154.486 84.627 152.44 89.165 151.028C89.0636 151.041 88.9643 151.054 88.8779 151.083C88.7784 151.115 88.7194 150.986 88.7807 150.916C89.0382 150.631 89.146 150.337 89.442 150.056C89.6463 149.862 89.8589 149.678 90.0776 149.501L90.3922 149.25C90.968 148.793 91.5733 148.326 92.2981 148.167C93.3229 147.943 93.8258 148.875 93.5382 149.604C93.6861 149.411 94.0833 149.469 94.1868 149.733C97.5587 158.432 99.7727 167.64 104.311 175.86C107.661 181.932 112.157 187.539 118.123 191.206C121.328 193.176 124.996 194.689 128.784 194.928C132.185 195.141 135.458 194.277 138.35 192.491C143.957 189.031 147.619 182.957 150.23 177.071C153.101 170.591 155.15 163.686 156.354 156.686C152.539 156.739 148.512 154.997 145.975 152.159C144.64 150.665 143.645 148.845 143.14 146.905C142.63 144.948 142.793 143.339 143.444 141.467ZM111.435 136.384C111.9 135.553 112.93 135.278 113.773 135.617C114.709 135.993 114.99 136.902 114.857 137.825C114.703 138.907 114.008 140.076 113.467 141.021C112.901 142.01 112.172 142.921 111.418 143.773C109.998 145.379 108.479 146.827 106.677 148.01C104.883 149.187 102.855 150.069 100.77 150.561L100.274 150.677C98.6523 151.048 96.3447 151.473 94.9937 150.591C94.9284 150.549 94.9303 150.462 94.9937 150.42C95.7246 149.91 96.703 149.819 97.5437 149.579C98.4606 149.314 99.3798 149.014 100.256 148.638C101.987 147.894 103.643 146.913 105.118 145.742C106.599 144.568 108.031 143.166 109.022 141.549C109.521 140.738 109.945 139.886 110.353 139.028C110.765 138.168 110.972 137.212 111.435 136.384Z" fill="black"/>
<path fill-rule="evenodd" clip-rule="evenodd" d="M161.862 82.2444C162.092 80.1045 159.588 74.3956 159.648 75.5536C155.634 69.3612 147.799 66.9261 141.04 64.8819C126.69 60.143 115.485 65.8661 105.403 76.0095C99.4508 81.5716 93.7871 87.7847 90.7991 95.4844C84.921 110.173 93.732 126.921 107.131 133.938C108.212 134.524 109.391 135.08 110.42 135.787C115.959 138.988 122.464 140.096 128.636 141.489C140.183 144.129 154.685 142.871 161.49 131.873C166.105 124.068 164.879 114.606 164.518 105.944C163.975 98.3547 163.023 89.7782 161.862 82.2444Z" fill="white"/>
<path fill-rule="evenodd" clip-rule="evenodd" d="M100.14 60.5843C107.621 53.5882 118.678 50.1973 128.788 50.7904C134.263 51.1116 139.54 52.4841 144.489 54.8422C146.036 55.5796 147.544 56.4427 148.935 57.4591C149.873 57.897 150.79 58.3709 151.678 58.8861C156.127 61.4646 159.567 65.3702 161.768 70.003C162.819 72.2142 163.648 74.5459 164.118 76.9484L164.194 77.3439C164.433 78.5495 164.907 80.1378 164.308 81.266C163.911 82.014 163.078 82.4855 162.29 82.4221C162.461 83.1153 162.666 83.8084 162.797 84.506L163.154 86.4082C163.213 86.7252 163.272 87.0422 163.33 87.3592C163.674 89.2487 163.991 91.1359 164.244 93.0401C164.775 97.0053 165.254 100.979 165.677 104.958C165.98 107.805 166.263 110.654 166.539 113.502L166.704 115.211C166.987 118.153 167.208 121.12 167.016 124.075C166.726 128.507 165.364 132.551 162.719 135.841C162.971 136.447 163.056 137.13 163.246 137.884C163.508 138.927 163.85 139.948 164.214 140.961C164.384 141.359 164.555 141.757 164.724 142.156L165.168 143.213V143.213L165.514 143.906C165.889 144.66 166.252 145.425 166.483 146.205C167.977 147.003 169.198 148.306 169.258 150.09C169.311 151.703 168.474 153.41 167.061 154.232C165.666 155.045 164.23 154.725 162.895 154.105C161.731 154.444 160.484 154.487 159.331 154.125C158.443 154.929 157.298 155.484 156.028 155.634C154.114 155.861 152.297 155.325 150.541 154.62L150.419 154.571C150.364 154.549 150.309 154.526 150.256 154.503C148.237 154.406 146.225 153.607 144.793 152.191C144.326 151.732 143.923 151.208 143.597 150.621C142.416 148.484 142.232 145.861 143.394 143.741C143.145 143.752 142.894 143.762 142.644 143.769C139.32 143.863 135.99 143.694 132.674 143.475L131.893 143.422C129.747 143.268 126.583 142.904 126.523 140.243C126.514 139.903 126.865 139.647 127.186 139.738C128.405 140.082 129.603 140.624 130.866 140.818C132.518 141.074 134.229 141.101 135.899 141.194L136.379 141.221C139.744 141.405 143.231 141.518 146.542 140.85C149.014 140.353 151.589 139.448 153.854 138.328C156.028 137.251 158.004 135.841 159.596 134C163.106 129.951 163.57 124.238 163.399 119.115C163.192 112.996 162.474 106.886 162.068 100.776L161.885 98.0308C161.734 95.7417 161.595 93.4495 161.538 91.1593C161.496 89.4875 161.523 87.8115 161.531 86.1398C161.536 85.3049 161.525 84.4659 161.544 83.631C161.555 83.1618 161.61 82.7032 161.65 82.2444C161.464 82.1473 161.291 82.0119 161.135 81.8324C161.012 81.6908 160.917 81.5408 160.851 81.3886C160.063 81.158 159.698 80.8516 159.187 80.1564C158.756 79.571 158.268 79.0299 157.746 78.5227C156.635 77.4448 155.365 76.5635 154.023 75.7961C151.249 74.209 148.211 73.1481 145.148 72.2773C140.458 70.9458 135.586 70.261 130.826 69.1914C129.514 71.0217 128.124 72.7972 126.67 74.5155C122.134 79.8753 116.933 84.6538 111.36 88.9148C110.225 89.7834 109.076 90.6394 107.91 91.4698C106.374 93.8129 104.821 96.1448 103.246 98.461L102.569 99.4527L102.558 99.4717C102.466 99.6133 102.377 99.7549 102.288 99.8965C102.1 100.197 101.889 100.486 101.665 100.767C101.519 100.981 101.371 101.194 101.221 101.408C101.508 101.562 101.77 101.735 101.975 101.928C102.394 102.323 102.324 102.951 101.975 103.352C100.851 104.65 99.0726 102.959 97.7796 102.509C96.3789 102.936 95.2106 104.603 94.6296 105.878C93.793 107.714 93.4571 109.929 93.8352 111.918C94.1815 113.736 95.1155 115.306 96.6683 116.291C96.7233 116.325 96.7822 116.361 96.8395 116.392C96.8416 116.397 96.8416 116.397 96.8437 116.394C96.8965 116.428 96.9514 116.46 97.0064 116.49C97.7352 116.891 98.5359 117.128 99.366 117.185C99.8414 117.219 100.338 117.193 100.813 117.251C101.301 117.307 101.703 117.532 102.172 117.65C102.689 117.783 103.023 118.478 102.698 118.945C102.537 119.176 102.385 119.396 102.222 119.592C102.757 120.222 103.222 120.917 103.642 121.579C104.217 122.485 104.726 123.447 105.191 124.428C105.62 124.992 106.03 125.567 106.427 126.155C108.677 129.49 110.399 133.205 111.457 137.088C112.505 140.928 113.16 145.242 112.19 149.162C111.296 152.768 108.687 155.754 104.825 155.947C104.019 155.986 103.227 155.896 102.481 155.692C100.844 156.703 98.815 157.212 96.9992 157.272C95.53 157.32 93.9219 157.01 92.7221 156.122C91.2988 156.741 89.7548 157.093 88.4122 157.173C86.9099 157.263 85.3376 156.853 84.1129 156.042C82.9476 157.041 81.6901 157.883 80.2613 158.462C77.8042 159.455 74.8803 159.332 72.6303 157.847C70.3761 156.359 69.2289 153.687 69.9176 151.037C70.5514 148.594 72.5437 146.802 74.4155 145.258L74.7854 144.955C76.6369 143.443 78.5067 141.98 79.6951 139.85C80.9564 137.591 81.4169 134.966 81.5416 132.409C81.812 126.778 80.6669 121.199 80.3183 115.598C79.9592 109.813 80.1599 104.011 80.9479 98.2689C82.4796 87.1141 86.5106 76.1788 93.8035 67.4837C94.8586 66.2255 95.9881 65.0263 97.1783 63.8896C98.0881 62.6993 99.0713 61.5836 100.14 60.5843ZM197.149 124.276C197.189 124.278 197.227 124.28 197.263 124.295C197.287 124.305 197.308 124.321 197.326 124.339L197.504 124.517C197.568 124.58 197.563 124.677 197.504 124.741C197.452 124.798 197.359 124.8 197.298 124.756L197.28 124.741L197.096 124.556C197.076 124.535 197.059 124.511 197.05 124.481C197.042 124.451 197.042 124.417 197.039 124.386C197.037 124.329 197.092 124.276 197.149 124.276ZM98.0266 107.008C99.721 106.495 101.753 107.716 102.763 109.006C103.27 109.652 103.414 110.538 102.763 111.174C102.21 111.715 101.128 111.814 100.593 111.174C99.9872 110.445 99.4928 109.435 98.6266 108.968C97.6864 108.46 96.4273 108.587 96.2055 109.823C96.1674 110.033 95.8674 109.963 95.8548 109.775C95.7724 108.524 96.8688 107.357 98.0266 107.008Z" fill="black"/>
<path fill-rule="evenodd" clip-rule="evenodd" d="M143.152 128.274C141.731 127.695 140.464 126.728 139.538 125.493C139.216 125.063 139.132 124.61 139.2 124.195C139.276 123.729 139.551 123.306 139.927 123.023C140.305 122.739 140.777 122.598 141.233 122.67C141.629 122.732 142.024 122.949 142.336 123.399L142.401 123.49C142.952 124.235 143.67 124.847 144.488 125.241C145.276 125.621 146.157 125.798 147.07 125.695C148.807 125.499 150.005 124.559 151.277 123.282C151.435 123.121 151.593 122.955 151.752 122.786C151.852 122.633 151.991 122.534 152.145 122.483C152.317 122.425 152.51 122.429 152.688 122.491C152.859 122.55 153.012 122.664 153.115 122.815C153.213 122.958 153.268 123.135 153.25 123.339C153.134 124.662 152.442 125.842 151.46 126.769C150.37 127.799 148.924 128.511 147.563 128.761C146.063 129.036 144.535 128.839 143.152 128.274V128.274ZM148.27 107.866C149.866 108.836 152.297 111.099 150.58 113.504C148.56 115.624 145.652 113.193 144.218 112.093C142.889 111.241 141.396 113.433 142.629 114.428C152.986 122.099 157.189 108.12 149.077 106.726C148.184 106.572 147.852 107.566 148.27 107.866ZM129.71 98.943C129.886 96.7542 133.219 96.2571 133.55 98.4231C133.847 100.363 133.497 102.146 132.624 103.892C131.789 105.561 129.691 104.783 129.532 103.263C129.32 101.226 129.6 100.305 129.71 98.943ZM155.076 97.974C155.541 97.3653 156.211 96.9498 157.015 97.1846C159.526 97.9186 158.786 101.485 157.904 103.221C157.425 104.163 155.876 104.402 155.176 103.572C154.035 102.219 153.489 99.5158 154.939 98.1826C154.979 98.1137 155.022 98.0442 155.076 97.974ZM132.589 89.3655L132.985 89.296C134.212 89.0837 135.738 88.8798 136.606 89.8666C137.066 90.3899 137.225 91.3625 136.606 91.8634C135.517 92.7448 134.314 92.4032 133.01 92.4778C131.935 92.5395 130.902 92.7175 129.866 93.0136C127.595 93.6631 125.744 94.8487 123.804 96.1507C123.549 96.3214 123.289 95.9957 123.411 95.7576C124.531 93.5631 126.701 91.7605 128.875 90.6617C130.035 90.0752 131.305 89.5887 132.589 89.3655ZM152.787 88.3825L153.091 88.4446C156.394 89.1354 160.686 90.5154 162.251 93.7616C162.311 94.2207 162.248 94.319 162.196 94.3833L162.179 94.4047C162.137 94.4596 162.103 94.5353 161.904 94.5977C161.849 94.5846 161.794 94.5706 161.737 94.5559C161.02 94.3679 160.453 94.1089 159.903 93.8401L159.308 93.5466C158.617 93.2077 157.92 92.8811 157.181 92.64C155.605 92.1256 153.983 91.7632 152.336 91.5697C151.979 91.5278 151.636 91.4073 151.365 91.2008C151.107 91.0047 150.911 90.7333 150.821 90.3726C150.705 89.9057 150.738 89.5522 150.989 89.131C151.177 88.8147 151.446 88.5954 151.756 88.4695C152.071 88.3412 152.43 88.3109 152.787 88.3825Z" fill="black"/>
<path fill-rule="evenodd" clip-rule="evenodd" d="M166.773 116.395C166.491 115.554 165.042 115.627 165.131 116.617C165.233 117.749 164.846 119.011 163.762 119.561C162.627 120.136 161.35 119.619 160.658 118.632C160.056 117.774 159.641 116.841 158.883 116.093C158.179 115.397 157.323 114.86 156.386 114.542C155.656 114.294 154.899 114.228 154.165 114.31C152.335 113.896 150.215 114.837 149.075 116.264C149.002 116.356 148.934 116.45 148.868 116.545C148.755 116.392 148.636 116.239 148.511 116.089C148.188 115.702 147.787 115.619 147.425 115.724C145.363 114.19 142.473 113.987 140.131 115.371C138.254 116.48 136.702 118.115 134.395 118.243C132.567 118.344 130.576 117.3 130.447 115.291C130.38 114.242 128.951 113.367 128.149 114.339C126.463 116.381 126.126 119.094 127.059 121.564C128.043 124.17 130.048 126.005 132.586 127.085C135.328 128.251 138.54 128.656 141.506 128.564C144.462 128.471 147.15 127.334 148.932 124.915C149.145 124.626 149.332 124.333 149.496 124.036C151.226 126.24 153.939 127.166 156.701 127.233C159.591 127.302 163.008 126.795 165.051 124.549C167.021 122.385 167.7 119.167 166.773 116.395" fill="black"/>
</g>
<defs>
<clipPath id="clip0_81_21038">
<rect width="240" height="275" fill="white"/>
</clipPath>
</defs>
</svg>
