<svg width="218" height="62" viewBox="0 0 218 62" fill="none" xmlns="http://www.w3.org/2000/svg">
<path d="M3 32.0852C3.47796 31.906 4.01567 31.4877 4.61313 30.8305C5.21058 30.1733 5.56905 29.6356 5.68855 29.2174C5.44956 29.2174 5.18071 29.3369 4.88198 29.5759C4.58325 29.7551 4.25465 30.0837 3.89618 30.5617C3.53771 30.9799 3.23898 31.4877 3 32.0852ZM2.46229 33.9672C2.40255 34.3257 2.37267 34.6543 2.37267 34.953C2.43242 35.4309 2.58178 35.7595 2.82076 35.9388C3.05975 36.118 3.47796 36.1778 4.07542 36.118C5.56905 35.9388 7.12244 35.3115 8.73556 34.236C10.4084 33.1009 11.693 31.9956 12.5891 30.9202L13.9334 29.3967C14.2919 28.9187 14.7101 28.8589 15.1881 29.2174C15.666 29.5759 15.7258 29.9941 15.3673 30.4721C15.1881 30.7111 14.979 30.9799 14.74 31.2786C14.5607 31.5176 14.0529 32.0553 13.2165 32.8918C12.4398 33.6685 11.6332 34.3854 10.7968 35.0426C10.0201 35.6401 9.00442 36.2375 7.74976 36.835C6.55485 37.4324 5.38982 37.7909 4.25465 37.9104C3.17924 38.0299 2.3428 37.8208 1.74535 37.2831C1.08815 36.7453 0.6998 36.0284 0.580309 35.1322C0.520564 34.3555 0.640055 33.4892 0.938782 32.5333C1.29725 31.1591 1.92458 29.9642 2.82076 28.9486C3.71695 27.8731 4.70275 27.3653 5.77816 27.4251C6.31587 27.4848 6.73409 27.6939 7.03282 28.0524C7.39129 28.4109 7.54065 28.8291 7.48091 29.307C7.42116 30.3227 6.82371 31.3981 5.68855 32.5333C4.55338 33.6087 3.47796 34.0867 2.46229 33.9672ZM14.3731 29.1278C14.6121 29.0083 14.8511 29.0083 15.0901 29.1278C15.329 29.1875 15.4784 29.3369 15.5381 29.5759C15.9564 30.5916 16.7032 32.0255 17.7786 33.8776L22.7972 29.307C23.2752 28.8888 23.6934 28.9187 24.0519 29.3967C24.4701 29.8149 24.4701 30.2032 24.0519 30.5617L18.6748 35.4907C19.332 36.5064 19.8099 37.0441 20.1087 37.1038C21.1841 37.2233 22.7673 36.596 24.8584 35.2218C27.0093 33.7879 28.6523 32.5632 29.7874 31.5475C30.9823 30.5318 31.8188 29.785 32.2967 29.307C32.715 28.8888 33.1332 28.8888 33.5514 29.307C33.9696 29.7253 33.9696 30.1435 33.5514 30.5617C33.3124 30.8007 32.9838 31.1293 32.5656 31.5475C32.2071 31.9657 31.4304 32.6827 30.2355 33.6983C29.1004 34.6543 27.9951 35.5206 26.9197 36.2973C25.8442 37.0142 24.6493 37.6415 23.3349 38.1792C22.0205 38.7767 20.8854 39.0157 19.9294 38.8962C19.0333 38.7767 18.1072 38.0896 17.1513 36.835L12.043 41.4951C11.5651 41.9133 11.1469 41.8835 10.7884 41.4055C10.3702 40.9873 10.3702 40.5989 10.7884 40.2405L16.1655 35.3115C15.2693 33.7581 14.5225 32.0852 13.925 30.2928C13.686 29.7551 13.8354 29.3668 14.3731 29.1278ZM34.8152 30.2928C34.5762 30.1733 34.4567 29.9642 34.4567 29.6655C33.9787 29.8447 33.4111 30.5916 32.7539 31.906C32.0967 33.2204 31.798 34.3257 31.8578 35.2218C31.8578 35.5803 31.9175 35.8193 32.037 35.9388C32.0967 35.9985 32.2162 36.0284 32.3955 36.0284C33.4709 35.9687 34.845 35.3413 36.5179 34.1464C38.1908 32.9515 39.4156 31.9657 40.1922 31.189C41.0287 30.3526 41.5963 29.7253 41.895 29.307C42.3132 28.8888 42.7314 28.8888 43.1496 29.307C43.6276 29.6655 43.6575 30.0837 43.2393 30.5617C43.1198 30.7409 42.9107 30.9799 42.6119 31.2786C42.3132 31.5774 41.7456 32.1449 40.9092 32.9814C40.0728 33.8178 39.2363 34.5646 38.3999 35.2218C37.6232 35.8193 36.6673 36.3869 35.5321 36.9246C34.4567 37.4623 33.441 37.761 32.4851 37.8208C31.7681 37.8805 31.2006 37.6714 30.7823 37.1934C30.3641 36.6557 30.1251 36.0284 30.0654 35.3115C30.0056 33.9373 30.4239 32.3839 31.32 30.6513C32.1565 28.9187 33.1722 27.9926 34.3671 27.8731C35.6815 27.7537 36.3685 28.1719 36.4283 29.1278C36.4283 29.4863 36.2789 29.8447 35.9802 30.2032C35.6217 30.5617 35.2334 30.5916 34.8152 30.2928ZM51.4302 1.79425C51.6692 1.25655 52.0576 1.10718 52.5953 1.34616C53.133 1.5254 53.3122 1.91374 53.133 2.5112C53.133 2.5112 50.8328 9.05333 46.2324 22.1376C42.7074 32.832 41.0345 39.165 41.2138 41.1366C43.8426 40.3599 48.6819 36.4167 55.7319 29.307C56.1501 28.8888 56.5683 28.8888 56.9866 29.307C57.4048 29.7253 57.4048 30.1435 56.9866 30.5617C56.9866 30.5617 55.1942 32.3242 51.6095 35.8492C46.7701 40.3301 43.275 42.7199 41.1241 43.0186C40.5864 43.0784 40.1981 42.929 39.9591 42.5705C39.6604 42.2121 39.4811 41.8237 39.4214 41.4055C39.0032 37.6415 42.5282 25.7522 49.9963 5.73745L45.4258 14.1616C45.6648 13.5044 47.6364 9.44167 51.3406 1.97349C51.4004 1.854 51.4302 1.79425 51.4302 1.79425ZM55.5814 29.4863C55.8801 28.9486 56.2983 28.7992 56.836 29.0382C57.3737 29.2772 57.4932 29.6655 57.1945 30.2032C56.2983 32.2943 55.8203 33.7581 55.7606 34.5945C56.4178 34.2958 57.314 33.6685 58.4491 32.7125C59.6441 31.7566 60.6597 30.8903 61.4962 30.1136L62.7508 28.8589C63.2288 28.381 63.6769 28.381 64.0951 28.8589C64.3341 29.1577 64.3938 29.4863 64.2743 29.8447C64.0951 30.1435 63.886 30.7409 63.647 31.6371C63.408 32.4735 63.1989 33.4593 63.0197 34.5945C62.9002 35.6699 63.0495 36.2674 63.4678 36.3869C64.3042 36.8051 65.9771 35.9985 68.4864 33.9672C70.9957 31.9358 72.7582 30.3825 73.7739 29.307C74.1921 28.8888 74.6103 28.8888 75.0285 29.307C75.4467 29.7253 75.4766 30.1435 75.1181 30.5617C74.9986 30.6214 74.8791 30.7409 74.7597 30.9202C74.6402 31.0397 74.3713 31.3085 73.9531 31.7267C73.5946 32.1449 73.2063 32.5632 72.7881 32.9814C72.3698 33.3399 71.862 33.7879 71.2645 34.3257C70.6671 34.8634 70.0995 35.3413 69.5618 35.7595C69.0241 36.118 68.3968 36.5362 67.6798 37.0142C67.0226 37.4324 66.4252 37.7311 65.8875 37.9104C65.3497 38.0299 64.7523 38.1494 64.0951 38.2689C63.4976 38.3883 63.0197 38.2987 62.6612 38C61.2273 37.2831 60.839 35.4608 61.4962 32.5333C60.7195 33.2502 60.0623 33.8178 59.5246 34.236C59.0466 34.6543 58.4193 35.1023 57.6426 35.5803C56.9256 36.0583 56.2983 36.357 55.7606 36.4765C55.3424 36.5362 54.954 36.4466 54.5956 36.2076C54.2371 35.9089 54.028 35.5803 53.9682 35.2218C53.9085 34.6244 54.028 33.8477 54.3267 32.8918C54.5657 31.9358 54.8345 31.1293 55.1333 30.4721L55.5814 29.4863ZM75.8505 38.9858C73.4607 40.6587 72.1463 41.7938 71.9073 42.3913C71.9073 42.451 71.9073 42.5108 71.9073 42.5705C72.445 42.7498 73.2814 42.3315 74.4166 41.3159C75.0738 40.7184 75.5219 40.121 75.7609 39.5235C75.8206 39.3443 75.8505 39.165 75.8505 38.9858ZM76.9259 36.118C80.6301 33.8477 84.7525 31.5176 89.2932 29.1278C89.8309 28.8888 90.2193 29.0382 90.4582 29.5759C90.757 30.0539 90.6673 30.4422 90.1894 30.7409C85.4097 33.1905 81.1977 35.5803 77.5532 37.9104C77.613 38.2091 77.6428 38.5078 77.6428 38.8066C77.7026 40.2405 77.0753 41.525 75.7609 42.6601C74.5062 43.7953 73.2814 44.3629 72.0865 44.3629C71.5488 44.3629 71.1007 44.1837 70.7422 43.8252C70.324 43.4667 70.1149 42.9887 70.1149 42.3913C70.1149 41.8536 70.4136 41.2263 71.0111 40.5093C71.6085 39.8521 72.1761 39.3144 72.7138 38.8962C73.2515 38.5377 74.1477 37.9403 75.4024 37.1038C75.2829 36.8648 74.9543 36.3869 74.4166 35.6699C73.9386 34.953 73.5503 34.236 73.2515 33.5191C72.9528 32.8021 72.8333 32.0255 72.8931 31.189C72.9528 30.2928 73.371 29.4863 74.1477 28.7693C74.8647 27.9926 75.492 27.4848 76.0297 27.2458C76.6272 26.9471 76.9856 26.7977 77.1051 26.7977C77.6428 26.5587 78.0312 26.7081 78.2702 27.2458C78.5091 27.7835 78.3598 28.1719 77.8221 28.4109C77.6428 28.4706 77.3441 28.62 76.9259 28.8589C76.5674 29.0979 76.1193 29.4564 75.5816 29.9344C75.0439 30.4123 74.7452 30.8604 74.6854 31.2786C74.6257 31.8163 74.6854 32.3242 74.8647 32.8021C75.1037 33.2801 75.4323 33.8477 75.8505 34.5049C76.3284 35.1621 76.6869 35.6998 76.9259 36.118ZM89.1028 29.5759C89.4015 29.0382 89.8197 28.8888 90.3574 29.1278C90.8951 29.3668 91.0146 29.7551 90.7159 30.2928C90.6561 30.4721 90.5068 30.8903 90.2678 31.5475C90.0288 32.1449 89.7898 32.8918 89.5509 33.7879C89.3119 34.6244 89.2223 35.192 89.282 35.4907C89.8197 35.4907 90.7756 34.953 92.1498 33.8776C93.5239 32.7424 94.6591 31.7566 95.5553 30.9202C96.4515 30.0837 97.019 29.546 97.258 29.307C97.6762 28.8888 98.0945 28.8888 98.5127 29.307C98.9906 29.7253 99.0205 30.1435 98.6023 30.5617C98.1243 31.0397 97.5269 31.667 96.8099 32.4437C96.093 33.1606 94.8981 34.1464 93.2252 35.4011C91.6121 36.6557 90.2977 37.2831 89.282 37.2831C88.6845 37.2831 88.2365 37.0441 87.9377 36.5661C87.639 36.0881 87.4896 35.5803 87.4896 35.0426C87.4896 33.6685 88.0273 31.8462 89.1028 29.5759ZM90.0886 22.9441C89.9691 22.3467 90.2081 21.9882 90.8055 21.8687L93.7629 21.2414C94.3604 21.1219 94.7188 21.3609 94.8383 21.9583C94.9578 22.5558 94.7188 22.9143 94.1214 23.0338L91.164 23.6611C90.925 23.7208 90.686 23.691 90.447 23.5715C90.2678 23.3922 90.1483 23.1831 90.0886 22.9441ZM108.088 29.1278C111.135 30.4422 114.66 30.4422 118.663 29.1278C119.2 28.8888 119.559 29.0681 119.738 29.6655C119.917 30.2032 119.738 30.5617 119.2 30.7409C114.72 32.2943 110.746 32.2943 107.281 30.7409C106.086 32.6528 104.473 34.5646 102.442 36.4765C100.47 38.3286 98.887 39.1352 97.6921 38.8962C97.3336 38.8364 97.0648 38.6871 96.8855 38.4481C96.6466 38.2689 96.4673 38.0299 96.3478 37.7311C96.2283 37.3727 96.1387 37.0441 96.079 36.7453C96.0192 36.3869 95.9894 35.9985 95.9894 35.5803C95.9894 35.1023 96.0192 34.6841 96.079 34.3257C96.079 33.9672 96.1387 33.549 96.2582 33.071C96.318 32.593 96.3777 32.2346 96.4375 31.9956C96.4972 31.7566 96.5868 31.4579 96.7063 31.0994C96.7661 30.6812 96.7959 30.4721 96.7959 30.4721C96.8557 30.1733 96.9154 29.9344 96.9752 29.7551C97.1544 29.1577 97.5129 28.9486 98.0506 29.1278C98.648 29.2473 98.8571 29.5759 98.6779 30.1136C98.6779 30.3526 98.5883 30.9202 98.4091 31.8163C98.2298 32.7125 98.0805 33.7581 97.961 34.953C97.8415 36.0881 97.8713 36.8051 98.0506 37.1038C98.7675 37.0441 99.9923 36.1778 101.725 34.5049C103.517 32.832 104.862 31.2786 105.758 29.8447C104.682 28.9486 104.443 28.142 105.041 27.4251C105.399 27.0068 105.937 26.7977 106.654 26.7977C107.072 26.7977 107.431 26.9471 107.729 27.2458C108.088 27.4848 108.267 27.8134 108.267 28.2316C108.267 28.5303 108.207 28.8291 108.088 29.1278ZM118.874 32.0852C119.351 31.906 119.889 31.4877 120.487 30.8305C121.084 30.1733 121.443 29.6356 121.562 29.2174C121.323 29.2174 121.054 29.3369 120.755 29.5759C120.457 29.7551 120.128 30.0837 119.77 30.5617C119.411 30.9799 119.112 31.4877 118.874 32.0852ZM118.336 33.9672C118.276 34.3257 118.246 34.6543 118.246 34.953C118.306 35.4309 118.455 35.7595 118.694 35.9388C118.933 36.118 119.351 36.1778 119.949 36.118C121.443 35.9388 122.996 35.3115 124.609 34.236C126.282 33.1009 127.566 31.9956 128.463 30.9202L129.807 29.3967C130.165 28.9187 130.584 28.8589 131.062 29.2174C131.54 29.5759 131.599 29.9941 131.241 30.4721C131.062 30.7111 130.852 30.9799 130.613 31.2786C130.434 31.5176 129.926 32.0553 129.09 32.8918C128.313 33.6685 127.507 34.3854 126.67 35.0426C125.894 35.6401 124.878 36.2375 123.623 36.835C122.428 37.4324 121.263 37.7909 120.128 37.9104C119.053 38.0299 118.216 37.8208 117.619 37.2831C116.962 36.7453 116.573 36.0284 116.454 35.1322C116.394 34.3555 116.514 33.4892 116.812 32.5333C117.171 31.1591 117.798 29.9642 118.694 28.9486C119.59 27.8731 120.576 27.3653 121.652 27.4251C122.189 27.4848 122.608 27.6939 122.906 28.0524C123.265 28.4109 123.414 28.8291 123.354 29.307C123.295 30.3227 122.697 31.3981 121.562 32.5333C120.427 33.6087 119.351 34.0867 118.336 33.9672ZM154.371 17.8359C155.566 14.3707 156.492 11.2639 157.15 8.51562C156.194 11.2042 155.268 14.3109 154.371 17.8359ZM149.084 30.8305C149.024 30.8305 148.964 30.8305 148.905 30.8305C148.247 30.8305 147.62 31.0397 147.023 31.4579C146.306 31.9358 145.708 32.6229 145.23 33.5191C144.693 34.4153 144.364 35.192 144.245 35.8492C144.065 36.5064 144.035 36.9246 144.155 37.1038C144.155 37.1038 144.185 37.1038 144.245 37.1038C144.663 37.1038 145.35 36.5362 146.306 35.4011C147.202 34.2659 148.128 32.7424 149.084 30.8305ZM152.041 28.9486C151.862 29.785 151.743 30.5617 151.683 31.2786C151.563 32.4735 151.504 33.5191 151.504 34.4153C151.504 35.2517 151.533 35.9089 151.593 36.3869C151.713 36.8648 151.802 37.1337 151.862 37.1934C152.639 37.4922 153.953 36.9843 155.805 35.6699C157.657 34.2958 159.181 33.0411 160.376 31.906C161.571 30.7111 162.377 29.8447 162.796 29.307C162.855 29.307 163.124 29.3967 163.602 29.5759C164.14 29.7551 164.409 29.8746 164.409 29.9344C164.409 30.1136 164.319 30.3227 164.14 30.5617C163.961 30.8007 163.662 31.1591 163.244 31.6371C162.825 32.1151 162.049 32.9216 160.914 34.0568C159.778 35.1322 158.673 36.0583 157.598 36.835C156.582 37.6117 155.447 38.239 154.192 38.7169C152.997 39.1949 151.982 39.2248 151.145 38.8066C150.01 38.3286 149.532 36.596 149.711 33.6087C147.68 37.1337 145.858 38.8962 144.245 38.8962C143.587 38.8962 143.109 38.6572 142.811 38.1792C142.452 37.7013 142.273 37.1636 142.273 36.5661C142.273 35.0127 142.93 33.3697 144.245 31.6371C145.499 29.9045 147.053 29.0382 148.905 29.0382C149.263 29.0382 149.532 29.2174 149.711 29.5759C149.89 29.2174 150.07 28.8291 150.249 28.4109C150.548 26.738 150.876 24.9755 151.235 23.1234C154.162 9.62091 156.552 2.80993 158.404 2.69044C159.181 2.63069 159.599 3.10865 159.659 4.12433C159.719 5.49847 159.181 8.12727 158.046 12.0107C156.97 15.8344 155.656 19.8075 154.103 23.9299C153.386 25.7223 152.699 27.3952 152.041 28.9486ZM163.16 28.2316C163.936 27.1562 164.474 26.2899 164.773 25.6327C164.534 25.7522 164.295 25.8717 164.056 25.9912C163.578 26.2899 163.249 26.6782 163.07 27.1562C162.891 27.6342 162.921 27.9926 163.16 28.2316ZM164.773 29.0382C165.609 29.1577 166.625 29.0979 167.82 28.8589C168.059 28.7992 168.268 28.8589 168.447 29.0382C168.686 29.2174 168.806 29.4265 168.806 29.6655C168.865 29.785 168.865 29.9344 168.806 30.1136C168.686 30.2928 168.477 30.8305 168.178 31.7267C167.939 32.5632 167.67 33.5788 167.372 34.7737C167.073 35.9687 166.983 36.7453 167.103 37.1038C168.298 37.0441 169.911 36.3271 171.942 34.953C173.974 33.5191 175.497 32.3541 176.513 31.4579C177.588 30.5019 178.335 29.785 178.753 29.307C179.171 28.8888 179.59 28.8888 180.008 29.307C180.486 29.7253 180.516 30.1435 180.097 30.5617C179.858 30.8007 179.56 31.0994 179.201 31.4579C178.843 31.8163 178.096 32.4735 176.961 33.4295C175.885 34.3854 174.84 35.2517 173.824 36.0284C172.808 36.7453 171.673 37.4025 170.419 38C169.164 38.5975 168.029 38.8962 167.013 38.8962C165.818 38.8962 165.251 38.0896 165.31 36.4765C165.31 35.2218 165.729 33.3399 166.565 30.8305C165.37 30.95 164.355 30.8604 163.518 30.5617C163.1 30.6812 162.771 30.6513 162.532 30.4721C162.413 30.3526 162.293 30.1435 162.174 29.8447C161.517 29.1875 161.218 28.4407 161.278 27.6043C161.278 26.7081 161.576 25.9314 162.174 25.2742C162.831 24.4975 163.667 24.0196 164.683 23.8403C165.818 23.6013 166.475 23.9897 166.655 25.0054C166.774 25.7821 166.147 27.1263 164.773 29.0382ZM181.68 29.4863C181.501 29.0681 181.113 28.8589 180.515 28.8589H180.605C180.844 29.0979 181.202 29.307 181.68 29.4863ZM179.888 30.5617C180.008 31.2189 179.769 31.6072 179.171 31.7267C178.992 31.7865 178.753 32.0852 178.454 32.6229C178.155 33.1009 178.006 33.5788 178.006 34.0568C178.006 34.3555 178.066 34.5646 178.185 34.6841C178.245 34.7439 178.394 34.7737 178.633 34.7737C179.171 34.7737 179.739 34.4451 180.336 33.7879C180.934 33.071 181.352 32.2644 181.591 31.3683C180.934 31.1293 180.366 30.8604 179.888 30.5617ZM183.562 30.024C186.251 30.5019 189.417 30.1733 193.062 29.0382C193.659 28.9187 194.048 29.1577 194.227 29.7551C194.406 30.2928 194.197 30.6513 193.6 30.8305C189.716 31.9657 186.311 32.2943 183.383 31.8163C183.025 33.0113 182.427 34.0867 181.591 35.0426C180.754 35.9985 179.798 36.5064 178.723 36.5661C177.946 36.5661 177.349 36.3271 176.931 35.8492C176.453 35.3712 176.214 34.7737 176.214 34.0568C176.214 33.2204 176.453 32.3839 176.931 31.5475C177.409 30.6513 178.036 30.1136 178.813 29.9344C178.932 29.9344 178.962 29.9344 178.902 29.9344C179.022 29.9344 179.082 29.9344 179.082 29.9344C178.245 28.9784 178.215 28.1719 178.992 27.5147C179.291 27.2757 179.649 27.1263 180.067 27.0666C181.143 26.9471 181.979 27.1861 182.577 27.7835C183.234 28.381 183.562 29.1278 183.562 30.024ZM192.636 29.6655C192.756 29.1278 193.114 28.9486 193.712 29.1278C194.309 29.2473 194.518 29.6058 194.339 30.2032L188.962 48.8438C190.336 46.0955 191.471 43.8252 192.367 42.0328C193.264 40.2405 194.369 38.2091 195.683 35.9388C196.998 33.6685 198.222 31.9358 199.358 30.7409C200.493 29.546 201.508 28.8888 202.405 28.7693C203.241 28.7096 203.928 28.8291 204.466 29.1278C205.063 29.3668 205.452 29.785 205.631 30.3825C205.87 30.9202 206.019 31.428 206.079 31.906C206.198 32.3242 206.258 32.8918 206.258 33.6087C206.258 34.2659 206.258 34.6543 206.258 34.7737C206.318 35.192 206.378 35.4608 206.437 35.5803C206.497 35.6401 206.676 35.6401 206.975 35.5803C207.812 35.4608 209.007 34.8335 210.56 33.6983C212.173 32.5632 213.368 31.6371 214.145 30.9202C214.981 30.2032 215.549 29.6655 215.847 29.307C216.266 28.8888 216.684 28.8888 217.102 29.307C217.52 29.7253 217.52 30.1435 217.102 30.5617C216.684 31.0397 216.116 31.6371 215.399 32.3541C214.682 33.0113 213.428 33.9672 211.635 35.2218C209.903 36.4765 208.409 37.1934 207.154 37.3727C206.318 37.4922 205.691 37.3129 205.272 36.835C204.854 36.2973 204.615 35.6699 204.555 34.953C204.496 34.5348 204.436 34.0568 204.376 33.5191C204.376 32.9216 204.346 32.4735 204.287 32.1748C204.287 31.8761 204.227 31.5774 204.107 31.2786C204.048 30.9799 203.898 30.8007 203.659 30.7409C203.42 30.6214 203.062 30.5617 202.584 30.5617C201.449 30.6812 199.388 33.3697 196.4 38.6273C193.473 43.9447 191.113 48.5451 189.32 52.4285C187.528 56.3717 186.303 59.0603 185.646 60.4942C185.467 60.9124 185.138 61.0916 184.66 61.0319C184.003 60.9124 183.764 60.524 183.943 59.8668L192.636 29.6655Z" fill="#CFF800"/>
</svg>
