<svg width="359" height="474" viewBox="0 0 359 474" fill="none" xmlns="http://www.w3.org/2000/svg">
<path d="M20.6801 450.958C15.1747 450.506 10.0048 447.875 6.43214 443.649C2.91316 439.486 1.19507 434.035 1.58856 428.605C1.64898 427.77 1.71861 426.936 1.78363 426.101C1.97045 423.702 2.15733 421.302 2.34415 418.903C2.63859 415.122 2.93302 411.341 3.2274 407.561C3.61797 402.546 4.00859 397.53 4.39916 392.515C4.87659 386.384 5.35407 380.253 5.8315 374.123C6.37838 367.1 6.92526 360.078 7.4722 353.055C8.07877 345.266 8.68541 337.476 9.29199 329.687C9.94804 321.263 10.6041 312.839 11.2601 304.415C11.9517 295.534 12.6434 286.653 13.335 277.771C14.0481 268.615 14.7611 259.459 15.4742 250.302C16.2004 240.978 16.9266 231.653 17.6527 222.328C18.3779 213.017 19.103 203.705 19.8282 194.394C20.5381 185.278 21.2481 176.161 21.958 167.045C22.6427 158.253 23.3272 149.463 24.0119 140.671C24.6625 132.317 25.3131 123.963 25.9637 115.608C26.561 107.939 27.1583 100.269 27.7556 92.5995C28.2911 85.723 28.8266 78.8466 29.3621 71.9702C29.826 66.0132 30.2899 60.0563 30.7539 54.0986C31.129 49.2823 31.504 44.466 31.8791 39.6498C32.156 36.0948 32.4328 32.5398 32.7096 28.9856C32.8767 26.8402 33.0438 24.6948 33.2108 22.5501C33.3257 21.0738 33.4224 19.6045 33.7286 18.1492C34.8568 12.7872 38.1213 8.002 42.7039 5.00646C46.5711 2.4784 51.1803 1.35047 55.7745 1.69434C57.3347 1.81121 58.8943 1.9373 60.4542 2.05878C64.0901 2.34193 67.7268 2.62515 71.3628 2.9083C76.768 3.32924 82.1732 3.75018 87.5792 4.17118C94.4193 4.70387 101.26 5.23661 108.1 5.76929C116.026 6.38655 123.952 7.00374 131.878 7.621C140.581 8.29882 149.286 8.97669 157.99 9.6545C167.199 10.3717 176.408 11.0889 185.617 11.806C194.905 12.5294 204.193 13.2527 213.48 13.9759C222.572 14.684 231.665 15.3921 240.756 16.1001C249.374 16.7712 257.991 17.4422 266.608 18.1133C274.33 18.7147 282.053 19.3161 289.775 19.9175C296.328 20.4278 302.88 20.9381 309.433 21.4484C314.514 21.8441 319.596 22.2399 324.678 22.6356C327.907 22.8871 331.137 23.1386 334.366 23.3901C335.671 23.4918 336.984 23.5638 338.286 23.7062C343.741 24.3018 348.833 27.1172 352.253 31.4129C355.524 35.5216 357.099 40.768 356.719 46.0012C356.654 46.8987 356.579 47.7956 356.509 48.6927C356.319 51.1401 356.128 53.5866 355.938 56.0339C355.639 59.8738 355.34 63.713 355.041 67.553C354.646 72.6127 354.252 77.6725 353.858 82.7323C353.381 88.8651 352.903 94.998 352.426 101.131C351.873 108.222 351.321 115.313 350.769 122.405C350.16 130.22 349.552 138.036 348.943 145.851C348.287 154.272 347.631 162.693 346.976 171.113C346.281 180.033 345.586 188.953 344.892 197.872C344.178 207.037 343.464 216.202 342.751 225.367C342.026 234.668 341.302 243.969 340.577 253.271C339.851 262.605 339.124 271.938 338.397 281.271C337.688 290.378 336.978 299.485 336.269 308.592C335.586 317.367 334.902 326.143 334.219 334.918C333.57 343.251 332.921 351.583 332.272 359.916C331.677 367.558 331.082 375.201 330.487 382.842C329.954 389.685 329.421 396.527 328.888 403.371C328.428 409.273 327.969 415.176 327.509 421.078C327.136 425.864 326.764 430.648 326.391 435.434C326.118 438.937 325.846 442.44 325.573 445.944C325.411 448.024 325.249 450.104 325.087 452.184C324.96 453.816 324.835 455.432 324.449 457.032C323.16 462.386 319.74 467.082 315.045 469.948C311.277 472.247 306.876 473.234 302.489 472.903C300.841 472.779 299.192 472.647 297.544 472.518C293.834 472.229 290.125 471.941 286.415 471.652C280.965 471.227 275.517 470.803 270.067 470.379C263.161 469.841 256.255 469.303 249.349 468.765C241.387 468.145 233.425 467.525 225.463 466.905C216.736 466.225 208.008 465.546 199.281 464.866C190.061 464.148 180.84 463.43 171.62 462.712C162.334 461.989 153.047 461.265 143.761 460.542C134.683 459.835 125.606 459.128 116.528 458.421C107.96 457.754 99.3916 457.087 90.8237 456.42C83.1177 455.82 75.4118 455.219 67.7058 454.619C61.2047 454.113 54.7035 453.607 48.2024 453.1C43.1967 452.711 38.1903 452.321 33.1847 451.931C30.0204 451.685 26.8561 451.438 23.6918 451.192C22.6879 451.114 21.684 451.036 20.6801 450.958Z" stroke="black" stroke-width="1.5" stroke-miterlimit="10" stroke-linecap="round" stroke-linejoin="round"/>
<path d="M187.686 20.018C187.807 18.2651 185.632 17.2432 184.381 18.5008C183.137 19.7512 184.16 21.9456 185.916 21.7987C186.856 21.7204 187.604 20.9532 187.686 20.018Z" stroke="black" stroke-width="1.5" stroke-miterlimit="10" stroke-linecap="round" stroke-linejoin="round"/>
<path d="M199.874 20.9767C199.978 19.2638 197.439 19.0648 197.307 20.7768C197.177 22.4876 199.734 22.6894 199.874 20.9767Z" stroke="black" stroke-width="1.5" stroke-miterlimit="10" stroke-linecap="round" stroke-linejoin="round"/>
<mask id="mask0_84_24130" style="mask-type:alpha" maskUnits="userSpaceOnUse" x="17" y="17" width="324" height="440">
<path d="M23.9425 435.068C21.4868 434.875 19.2848 433.3 18.3117 431.035C17.7764 429.788 17.738 428.514 17.841 427.192C17.9633 425.622 18.0856 424.051 18.2079 422.481C18.4373 419.534 18.6667 416.588 18.8962 413.642C19.2218 409.462 19.5473 405.281 19.8729 401.1C20.2836 395.827 20.6942 390.554 21.1049 385.281C21.5896 379.056 22.0743 372.832 22.5591 366.608C23.1068 359.574 23.6546 352.54 24.2024 345.506C24.8022 337.805 25.4019 330.103 26.0017 322.401C26.6407 314.197 27.2796 305.993 27.9185 297.788C28.5892 289.175 29.26 280.563 29.9306 271.951C30.6184 263.12 31.3061 254.289 31.9938 245.458C32.6914 236.5 33.3891 227.541 34.0868 218.582C34.7814 209.663 35.4761 200.743 36.1707 191.823C36.8513 183.084 37.5319 174.344 38.2125 165.605C38.868 157.188 39.5235 148.77 40.179 140.353C40.7985 132.399 41.4179 124.445 42.0374 116.49C42.6097 109.141 43.182 101.792 43.7544 94.4426C44.2686 87.84 44.7827 81.2375 45.2969 74.635C45.742 68.9203 46.187 63.2056 46.632 57.491C46.9969 52.8064 47.3617 48.121 47.7266 43.4365C47.9995 39.9311 48.2726 36.425 48.5456 32.9196C48.7173 30.7141 48.889 28.5095 49.0608 26.304C49.1212 25.5284 49.1663 24.75 49.2429 23.9756C49.484 21.5142 51.0522 19.3355 53.3466 18.3835C54.6935 17.8248 56.0404 17.8616 57.4504 17.9714C59.6988 18.1465 61.9479 18.3217 64.1963 18.4968C68.2957 18.816 72.3952 19.1353 76.4947 19.4545C82.1463 19.8947 87.7979 20.3348 93.4503 20.775C100.356 21.3128 107.262 21.8506 114.167 22.3884C122.029 23.0006 129.891 23.6128 137.751 24.225C146.27 24.8884 154.789 25.5518 163.308 26.2153C172.185 26.9066 181.063 27.5979 189.941 28.2893C198.854 28.9834 207.766 29.6775 216.679 30.3716C225.381 31.0493 234.082 31.7269 242.784 32.4046C250.927 33.0388 259.071 33.6729 267.215 34.3072C274.55 34.8784 281.886 35.4497 289.221 36.0209C295.425 36.5041 301.628 36.9872 307.832 37.4703C312.607 37.8421 317.381 38.2139 322.155 38.5857C325.201 38.8229 328.247 39.0602 331.293 39.2974C332.399 39.3835 333.516 39.4311 334.619 39.5618C337.078 39.8538 339.224 41.5244 340.101 43.8433C340.557 45.0496 340.551 46.2611 340.453 47.5156C340.326 49.1438 340.199 50.7719 340.073 52.4001C339.839 55.3981 339.605 58.3968 339.372 61.3948C339.044 65.6082 338.716 69.8216 338.388 74.0341C337.975 79.3283 337.563 84.6233 337.151 89.9174C336.664 96.1717 336.177 102.426 335.69 108.68C335.14 115.739 334.59 122.799 334.04 129.858C333.439 137.58 332.838 145.302 332.236 153.025C331.594 161.268 330.952 169.513 330.31 177.757C329.639 186.381 328.967 195.005 328.295 203.629C327.605 212.491 326.915 221.354 326.225 230.217C325.527 239.177 324.829 248.137 324.131 257.096C323.437 266.012 322.743 274.927 322.049 283.842C321.369 292.572 320.689 301.301 320.009 310.03C319.355 318.432 318.701 326.834 318.046 335.235C317.43 343.146 316.814 351.057 316.198 358.967C315.629 366.271 315.06 373.575 314.492 380.879C313.98 387.454 313.468 394.028 312.956 400.603C312.513 406.285 312.071 411.966 311.628 417.648C311.266 422.295 310.904 426.943 310.543 431.59C310.272 435.061 310.002 438.532 309.732 442.003C309.564 444.157 309.396 446.311 309.228 448.465C309.166 449.271 309.134 450.087 309.031 450.889C308.714 453.348 307.011 455.48 304.681 456.328C303.362 456.809 302.059 456.727 300.699 456.621C298.371 456.439 296.043 456.258 293.714 456.077C289.547 455.752 285.38 455.428 281.212 455.103C275.522 454.66 269.833 454.217 264.143 453.774C257.217 453.234 250.293 452.695 243.367 452.156C235.478 451.541 227.589 450.927 219.7 450.313C211.164 449.648 202.628 448.983 194.092 448.318C185.208 447.627 176.322 446.935 167.438 446.243C158.503 445.547 149.568 444.851 140.634 444.155C131.947 443.479 123.26 442.802 114.573 442.126C106.433 441.492 98.2922 440.858 90.1516 440.224C82.8564 439.656 75.5603 439.088 68.2651 438.52C62.1124 438.04 55.9605 437.561 49.8079 437.082C45.0968 436.715 40.3864 436.348 35.6753 435.982C32.7047 435.75 29.7332 435.519 26.7626 435.287C25.8228 435.214 24.8823 435.141 23.9425 435.068Z" fill="#E7ECED"/>
</mask>
<g mask="url(#mask0_84_24130)">
</g>
<g clip-path="url(#clip0_84_24130)">
<rect x="49.6699" y="17.2564" width="292" height="419" rx="8" transform="rotate(4.45301 49.6699 17.2564)" fill="#E7ECED"/>
<path fill-rule="evenodd" clip-rule="evenodd" d="M235.244 324.581C233 323.58 230.85 322.458 228.933 320.906C223.43 316.111 220.13 309.283 217.013 302.815C212.645 293.42 209.781 283.549 208.064 273.35C207.326 268.968 207.35 263.956 205.209 259.956C200.306 251.546 184.026 251.318 175.315 252.049C169.476 252.618 167.784 258.96 166.105 263.62C164.707 267.491 163.683 271.437 162.768 275.445C161.271 276.269 159.605 276.903 158.021 277.445C140.921 281.256 137.247 290.505 129.728 304.649C117.297 325.088 87.4115 331.143 81.0341 355.982C76.894 372.386 83.7672 388.658 91.033 403.129C97.6263 418.831 107.908 426.922 125.459 424.7C141.942 422.334 157.985 417.478 174.266 414.028C182.122 412.736 190.202 408.415 198.177 410.762C214.594 415.809 231.624 418.907 248.785 419.754C272.751 422.597 274.541 399.563 273.462 381.533C273.896 353.64 261.258 334.723 235.244 324.581V324.581Z" fill="white"/>
<path fill-rule="evenodd" clip-rule="evenodd" d="M233.723 364.873C235.628 366.356 237.161 368.498 238.353 370.72C232.736 369.691 227.136 368.573 221.556 367.362C222.331 366.948 223.112 366.545 223.909 366.17C226.811 364.822 230.777 362.582 233.723 364.873ZM138.341 374.255C137.335 373.769 137.057 372.159 136.723 371.222C135.676 368.284 134.744 365.307 133.763 362.347C138.435 361.403 142.993 360.306 147.782 359.981C152.932 359.633 158.113 359.855 163.238 360.422C173.62 361.572 183.8 364.073 193.891 366.691C203.971 369.305 214.055 371.849 224.241 374.021C234.221 376.15 244.26 377.921 254.328 379.573C256.284 379.895 259.512 380.857 261.216 379.434C262.565 378.306 262.782 376.05 261.29 374.932C260.361 374.235 258.946 374.116 257.841 373.885C256.449 373.595 255.047 373.365 253.639 373.161C253.066 373.079 252.492 372.999 251.919 372.919C256.682 371.537 261.589 370.964 266.585 371.619C266.735 373.362 267.876 375.232 268.465 376.705C269.494 379.278 270.251 381.859 270.666 384.601C271.534 390.333 271.136 396.181 270.32 401.895C269.608 406.656 268.467 411.896 264.441 414.994C261.392 417.339 257.299 417.977 253.547 417.985C249.187 417.995 244.815 417.281 240.563 416.367C234.599 415.084 228.628 413.537 222.832 411.635C211.605 407.951 200.982 402.654 191.331 395.842C186.624 392.52 182.172 388.849 177.389 385.634C172.516 382.357 167.265 379.7 161.677 377.87C155.424 375.821 148.811 374.639 142.23 374.512C141.088 374.49 139.413 374.774 138.341 374.255ZM131.178 370.798C131.679 373.02 131.999 375.537 133.287 377.471C134.562 379.388 136.649 380.192 138.85 380.526C141.503 380.927 144.213 381.013 146.88 381.321C152.349 381.951 157.69 383.262 162.807 385.302C167.575 387.203 171.927 389.928 176.092 392.899C179.943 395.647 183.662 398.565 187.515 401.305C186.401 401.714 185.296 402.163 184.19 402.544C181.871 403.341 179.542 404.104 177.203 404.842C172.593 406.297 167.966 407.707 163.304 408.989C153.902 411.573 144.383 413.73 134.785 415.45C130.207 416.271 125.55 417.284 120.874 417.115C116.727 416.966 112.989 415.501 109.847 412.789C103.329 407.162 98.4004 399.39 94.5178 391.799C92.2111 387.29 90.2578 382.588 88.715 377.764C87.9346 375.324 87.2469 372.855 86.6488 370.365C86.3683 369.196 86.1074 368.022 85.8656 366.844C85.7591 366.326 85.659 365.807 85.5602 365.287C92.7979 363.684 100.103 362.297 107.509 361.788C111.463 361.516 115.447 361.533 119.396 361.883C121.356 362.057 123.308 362.315 125.244 362.669C126.286 362.86 127.321 363.082 128.349 363.336C128.774 363.441 129.208 363.581 129.646 363.693C130.143 366.064 130.646 368.434 131.178 370.798ZM278.042 372.961C278.483 372.221 278.703 371.477 278.905 370.65C279.059 370.019 279.405 369.141 279.227 368.293C279.029 367.343 278.355 366.454 277.887 365.62C277.37 364.699 276.853 363.777 276.337 362.855C275.306 361.011 274.277 359.165 273.25 357.318C269.056 349.776 264.896 342.215 260.728 334.659C257.029 327.953 253.406 321.196 249.573 314.566C246.295 308.897 242.678 303.29 237.944 298.711C231.958 292.921 224.534 289.835 216.728 287.27C215.929 286.302 214.807 285.72 213.558 285.723C211.96 283.601 210.674 282.107 210.239 279.533C210.031 278.301 210.39 274.912 209.267 274.104C207.932 273.146 207.112 274.213 206.627 275.451C205.004 279.591 206.044 285.409 209.127 289.923C207.302 294.773 204.846 301.678 201.134 305.388C197.159 309.362 192.018 310.294 186.575 309.958C176.195 309.318 166.138 304.665 158.75 297.384C156.504 295.171 154.448 292.734 152.616 290.17C151.242 288.247 149.667 285.321 148.646 283.123C148.71 282.302 147.806 281.369 157.74 281.475C167.674 281.582 169.475 268.133 169.838 266.312C170.133 264.833 171.072 262.575 170.113 261.276C169.706 260.724 168.795 260.569 168.201 260.876C167.08 261.456 166.597 263.123 166.171 264.248C165.575 265.824 163.256 275.71 160.249 276.641C158.842 277.077 157.275 276.965 155.823 276.953C154.03 276.939 152.235 276.891 150.442 276.959C149.781 276.985 149.05 277.141 148.403 277.096C147.982 277.068 147.564 276.83 147.169 276.655C145.835 276.064 144.435 276.32 143.007 276.4C130.379 277.103 117.213 279.928 106.017 285.982C96.1487 291.319 88.8496 299.531 83.6872 309.395C78.4196 319.461 74.9883 330.523 71.9842 341.441C70.9779 345.1 70.061 348.782 69.2314 352.485C68.4297 356.062 67.4912 359.71 67.0509 363.353C66.8766 364.794 67.1182 366.164 67.5481 367.527C68.0322 369.06 69.4046 369.757 70.7107 370.557C73.5776 372.314 76.6351 373.741 79.8149 374.831C81.517 378.586 82.894 382.456 83.9324 386.443C83.3584 387.388 83.2336 388.856 83.0635 389.805C82.6408 392.167 82.3529 394.553 82.1454 396.943C81.7293 401.733 81.6451 406.545 81.4987 411.349C81.3502 416.222 80.6216 435.436 80.5638 437.784C80.519 439.609 80.1909 442.141 81.0242 443.828C82.3047 446.423 85.9481 446.622 87.7892 444.743C128.944 456.984 207.828 460.406 239.866 458.354C244.034 458.088 242.689 458.639 243.818 457.681C244.666 456.961 245.439 455.676 245.741 454.619C246.143 453.207 245.775 451.873 245.043 450.648C244.273 449.361 244.269 447.372 244.061 445.897C243.568 442.408 244.364 427.316 244.139 425.619C244.069 425.091 244.005 424.532 243.918 423.972C249.688 424.975 255.744 425.446 261.424 423.936C264.646 423.08 267.704 421.579 270.148 419.287C273.106 416.511 274.915 412.867 276.001 409.001C277.401 404.016 278.023 398.788 278.227 393.625C278.426 387.52 277.895 381.273 275.822 375.492C276.707 374.791 277.47 373.922 278.042 372.961Z" fill="black"/>
<path fill-rule="evenodd" clip-rule="evenodd" d="M165.13 145.671C181.937 146.061 197.13 142.515 208.091 153.953C208.091 153.953 228.256 141.209 231.014 146.876C232.862 150.673 229.527 155.317 229.971 159.859C234.451 169.066 232.998 183.946 233.019 187.461C233.069 196.321 235.127 229.806 234.514 237.672C234.201 241.687 230.071 251.945 227.554 257.636C221.949 270.304 212.671 276.259 198.303 275.14C183.935 274.021 161.418 260.189 154.727 248.944C154.14 247.959 149.666 250.352 145.575 245.277C141.144 239.78 139.225 229.802 139.679 223.979C140.254 216.59 135.876 211.093 137.169 201.678C140.055 180.651 147.146 145.254 165.13 145.671Z" fill="white"/>
<path fill-rule="evenodd" clip-rule="evenodd" d="M165.172 120.966C165.39 120.97 165.61 120.998 165.829 121.037C166.07 121.066 166.309 121.108 166.547 121.175C167.759 121.507 168.805 122.243 169.583 123.225C169.605 123.251 169.622 123.279 169.641 123.305C170.016 123.636 170.359 124.004 170.663 124.391C170.726 124.34 170.786 124.289 170.851 124.238C171.038 124.097 171.233 123.965 171.435 123.842C172.289 123.219 173.266 122.793 174.298 122.588L174.439 122.562C174.466 122.556 174.493 122.552 174.52 122.549C175.256 122.366 176.02 122.303 176.779 122.364C177.69 122.406 178.589 122.626 179.412 123.042C180.386 123.538 181.211 124.264 181.885 125.113C182.338 125.544 182.726 126.009 183.135 126.519C183.98 127.576 184.618 128.785 184.979 130.09C185.029 130.273 185.07 130.46 185.106 130.647C186.24 130.605 187.376 130.6 188.508 130.642C189.781 130.664 191.05 130.736 192.316 130.878C195.805 131.264 199.177 132.147 202.401 133.533C203.05 133.781 203.676 134.081 204.273 134.437C205.218 134.901 206.101 135.466 206.923 136.131L207.629 136.628C207.983 136.877 208.337 137.13 208.679 137.387C209.494 138.004 210.259 138.683 210.978 139.407C211.739 140.126 212.451 140.9 213.123 141.706C213.306 141.924 213.481 142.144 213.654 142.365C215.267 143.404 216.672 144.684 217.959 146.179C219.114 145.629 220.305 145.142 221.527 144.721C222.787 144.288 224.377 143.864 225.683 143.605C226.855 143.374 228.006 143.242 229.169 143.169C229.699 143.119 230.231 143.089 230.764 143.069L230.742 143.075V143.075C231.117 143.064 231.489 143.058 231.866 143.056L231.855 143.052V143.052C232.016 143.052 232.179 143.051 232.339 143.052L232.729 143.051V143.051C232.847 143.05 232.995 143.336 232.999 143.432L233.004 143.532V143.532C233.084 143.637 233.155 143.752 233.206 143.823C233.276 143.823 233.345 143.823 233.414 143.825C233.623 143.823 233.833 144.211 233.944 144.361L234.045 144.499C234.159 144.66 234.271 144.844 234.277 145.036C234.326 146.148 234.368 147.263 234.398 148.376C234.378 149.216 234.269 150.041 234.067 150.851C233.901 151.639 233.733 152.427 233.565 153.213C233.351 153.758 233.141 154.302 232.93 154.846C232.847 155.054 232.756 155.258 232.668 155.462C232.135 156.83 231.53 158.154 230.834 159.43C231.23 159.942 231.595 160.469 231.93 161.011C232.013 161.11 232.096 161.208 232.173 161.311C232.2 161.275 232.237 161.244 232.275 161.228C232.407 161.182 232.495 161.255 232.566 161.371C233.341 162.235 233.876 163.214 234.17 164.308L234.362 164.882C234.394 164.978 234.425 165.073 234.456 165.169C234.693 166 234.86 166.846 234.986 167.7C235.105 168.373 235.176 169.052 235.202 169.734C235.626 171.705 235.926 173.71 236.203 175.687C236.246 175.998 236.193 176.269 236.077 176.494L236.308 176.757V176.757L236.703 177.216C237.365 177.987 238.039 178.797 238.506 179.69C238.99 180.617 239.322 181.594 239.701 182.567L239.783 182.774V182.774L239.95 183.188C240.131 183.641 240.216 183.89 240.365 184.432C240.613 185.336 240.714 186.233 240.721 187.171C240.732 188.537 240.601 190.014 239.908 191.229C239.904 191.24 239.898 191.248 239.893 191.255C239.527 192.453 238.769 193.531 237.696 194.174C237.462 194.362 237.214 194.527 236.953 194.653C236.327 194.959 235.774 194.947 235.133 194.733L235.052 194.706C234.971 194.678 234.899 194.654 234.828 194.632C234.928 194.728 234.973 194.836 234.807 194.898C234.648 194.96 234.506 194.992 234.375 194.998C234.425 195.074 234.424 195.151 234.302 195.206C234.037 195.321 233.827 195.348 233.617 195.294L233.633 195.666C233.764 198.487 234.032 199.063 234.071 202.085C234.013 205.171 234.061 208.257 234.219 211.339L234.269 212.458C234.432 216.006 234.648 219.583 235.131 223.099C235.393 224.639 235.601 226.186 235.758 227.739C236.058 228.935 236.238 230.149 236.295 231.377C236.419 232.631 236.473 233.891 236.463 235.156C236.706 235.985 236.791 236.814 236.718 237.647C236.67 238.77 236.546 239.886 236.34 240.989C236.184 242.141 235.935 243.276 235.594 244.392C235.247 245.933 234.718 247.407 234.015 248.821C233.415 250.414 232.712 251.968 231.931 253.48C230.72 255.822 229.31 257.975 227.732 260.082C226.253 262.059 224.684 263.951 222.925 265.686C220.65 267.929 218.099 269.947 215.346 271.603C213.773 272.587 212.127 273.452 210.42 274.169C208.331 275.047 206.219 275.821 203.995 276.28C202.607 276.568 201.205 276.731 199.792 276.83C197.017 277.022 194.18 276.739 191.458 276.049C189.697 275.672 187.979 275.121 186.37 274.4C185.049 273.806 183.796 273.145 182.549 272.412C181.908 272.039 181.294 271.617 180.71 271.152C179.727 270.4 178.817 269.565 177.979 268.656C177.704 268.38 177.437 268.1 177.177 267.808C177.051 267.678 177.139 267.506 177.299 267.476L177.347 267.474V267.474C177.29 267.413 177.231 267.352 177.174 267.289C177.162 267.278 177.152 267.264 177.143 267.249C177.116 267.221 177.086 267.192 177.061 267.163C176.965 267.065 177.084 266.871 177.178 266.83C177.214 266.814 177.259 266.815 177.309 266.824C177.3 266.813 177.292 266.804 177.282 266.796C177.272 266.787 177.271 266.765 177.276 266.744L177.238 266.71V266.71C177.112 266.579 177.195 266.41 177.358 266.377C177.437 266.359 177.565 266.381 177.696 266.421L177.746 266.436L177.662 266.344C177.514 266.194 177.576 266.044 177.776 266.012C177.922 266.031 178.065 266.063 178.206 266.109L178.311 266.146C178.363 266.164 178.412 266.184 178.464 266.204C178.38 266.114 178.296 266.028 178.215 265.939C178.133 265.855 178.243 265.642 178.326 265.603C178.44 265.55 178.646 265.652 178.739 265.731C178.978 265.777 179.289 265.907 179.398 266.017C179.695 266.35 180.004 266.671 180.319 266.984C180.518 267.064 180.706 267.164 180.845 267.303C181.198 267.699 181.57 268.075 181.95 268.441L182.243 268.678C182.292 268.717 182.341 268.756 182.39 268.793C182.948 269.181 183.506 269.567 184.061 269.955C186.137 270.843 188.213 271.731 190.287 272.617L190.562 272.723V272.723L192.611 273.139V273.139C193.96 273.389 195.323 273.487 196.695 273.436C197.714 273.529 198.733 273.507 199.746 273.377C201.46 273.222 203.152 272.929 204.813 272.466C206.725 271.933 208.566 271.179 210.369 270.353C211.018 270.053 211.658 269.732 212.288 269.388C212.493 269.265 212.698 269.14 212.903 269.011C214.255 268.152 215.556 267.225 216.817 266.236C217.409 265.772 217.981 265.285 218.536 264.778C218.617 264.704 218.694 264.633 218.772 264.559C219.305 264.061 219.824 263.543 220.323 263.005L220.794 262.55V262.55C222.711 260.512 224.446 258.293 226.031 255.994C227.603 253.715 228.941 251.292 230.051 248.763C230.416 247.86 230.744 246.94 231.03 246.006C231.512 244.894 231.861 243.744 232.074 242.558C232.132 242.328 232.182 242.096 232.232 241.865L232.279 241.498C232.286 241.437 232.293 241.376 232.299 241.315C232.381 240.948 232.455 240.579 232.518 240.21C232.569 239.838 232.611 239.464 232.643 239.09L232.793 236.791V236.791C232.79 236.719 232.788 236.644 232.789 236.569L232.77 236.057C232.724 235.001 232.707 233.945 232.661 232.889C232.661 232.883 232.662 232.875 232.66 232.867C232.643 232.473 232.623 232.076 232.595 231.679C232.584 231.443 232.565 231.206 232.549 230.97L232.514 230.556V230.556C232.446 229.836 232.352 229.119 232.225 228.406L232.168 228.101L231.887 225.742L231.545 223.415C231.327 221.857 231.165 220.292 231.063 218.719C230.853 216.208 230.701 213.698 230.595 211.182C230.588 211.061 230.582 210.938 230.578 210.817C230.452 208.481 230.413 206.143 230.451 203.803C230.435 201.495 230.503 199.186 230.653 196.882C230.658 196.778 230.734 196.699 230.82 196.657L230.847 196.214C230.868 195.822 230.824 196.291 230.856 195.844L230.946 194.616C230.955 194.514 230.961 194.443 230.964 194.438C229.537 194.426 228.589 194.271 227.224 194.092L226.993 194.062C225.741 193.906 224.504 193.671 223.28 193.367C223.269 193.43 223.223 193.472 223.151 193.48C223.023 193.475 222.903 193.466 222.781 193.459L222.813 193.635V193.635C222.808 193.723 222.764 193.776 222.677 193.793L222.322 193.781C221.847 193.764 221.372 193.737 220.908 193.636C220.49 193.548 220.086 193.417 219.686 193.269C219.437 193.207 219.184 193.128 218.926 193.033C218.267 192.787 217.618 192.475 216.957 192.215C216.278 192.015 215.58 191.913 214.834 192.031C214.044 192.153 213.362 192.434 212.565 192.169C212.406 192.117 212.254 192.044 212.103 191.968L211.958 191.946C211.934 191.942 211.909 191.937 211.884 191.932C211.046 191.744 210.333 191.149 209.548 190.799C209.272 190.708 208.991 190.704 208.709 190.797L208.638 190.822L208.354 191C208.237 191.119 208.12 191.239 208.004 191.36L207.831 191.541C207.514 191.877 207.181 192.175 206.788 192.379C206.304 192.761 205.749 192.963 205.107 192.929C204.743 192.912 204.388 192.807 204.046 192.668C202.691 192.974 201.269 192.946 199.98 192.445C199.463 192.324 198.962 192.144 198.488 191.885C198.265 191.763 198.043 191.623 197.831 191.47C196.868 191.791 195.945 192.245 195.01 192.627L194.799 192.713C193.843 193.099 192.791 193.467 191.755 193.319C190.45 193.131 189.175 192.856 187.907 192.535C187.896 192.535 187.883 192.531 187.873 192.527L187.698 192.484V192.484L187.064 192.321V192.321L186.553 192.185V192.185L186.28 192.265C184.089 192.905 181.707 193.351 179.612 192.621C178.689 192.435 177.839 192.053 177.092 191.458C177.067 191.438 177.042 191.417 177.017 191.394C176.897 191.32 176.786 191.24 176.688 191.155L176.667 191.135V191.135L176.648 191.116L176.638 191.11C175.514 190.483 174.934 189.289 175.15 188.019C175.11 187.607 175.144 187.209 175.257 186.79C174.842 187.209 174.42 187.623 173.992 188.033C172.42 189.651 170.874 191.307 169.427 193.043L169.095 193.445C168.299 194.401 167.551 195.395 166.851 196.425C166.144 197.441 165.422 198.446 164.68 199.435C163.746 200.318 162.839 201.226 161.96 202.16L161.585 202.562L160.315 203.988C159.424 204.892 158.664 205.896 158.041 207.001C157.54 207.782 157.071 208.582 156.641 209.406C156.504 209.654 156.372 209.905 156.243 210.157C155.789 211.145 155.393 212.156 155.062 213.206C154.804 213.965 154.6 214.739 154.454 215.528L154.407 215.792C154.351 216.103 154.302 216.414 154.265 216.726C154.338 216.778 154.398 216.828 154.443 216.876L154.631 216.961V216.961L154.784 217.019C155.023 217.114 155.433 217.304 155.317 217.489L154.728 218.427V218.427C154.777 218.487 154.796 218.547 154.757 218.608C154.363 219.237 153.967 219.866 153.57 220.495C153.558 220.518 153.538 220.535 153.518 220.547C153.803 220.705 154.078 220.876 154.339 221.059C154.848 221.42 155.212 221.819 155.542 222.278C155.907 222.536 156.249 222.814 156.566 223.127C156.952 223.6 157.281 224.112 157.551 224.659C157.799 225.175 157.993 225.709 158.131 226.262C158.189 226.552 158.203 226.85 158.177 227.15C157.679 229.392 155.205 227.637 155.17 227.434C154.921 226.036 154.579 225.139 153.74 224.048L153.717 224.03V224.03C153.204 223.755 152.696 223.483 152.161 223.259C152.077 223.269 151.991 223.273 151.905 223.279C151.99 223.423 151.932 223.552 151.737 223.56C150.887 223.66 150.039 223.639 149.195 223.501L147.918 223.218V223.218C147.367 223.381 146.835 223.605 146.328 223.881L146.16 223.975L146.129 223.994C144.806 224.898 143.741 226.154 142.969 227.552C142.901 227.677 142.834 227.803 142.77 227.93L142.676 228.122L142.67 228.132C141.546 231.446 142.025 235.217 143.358 238.406C144.109 239.845 144.899 241.261 145.731 242.654L146.547 243.911V243.911C147.044 244.458 147.53 245.016 148.001 245.587C148.075 245.673 148.153 245.759 148.232 245.843C148.489 246.042 148.753 246.22 149.025 246.375C149.131 246.42 149.24 246.464 149.349 246.502C149.87 246.804 150.428 246.986 151.024 247.049C151.809 247.163 152.583 247.13 153.341 246.952L153.493 246.915L153.605 246.884C154.029 246.657 154.428 246.365 154.813 246.016C154.899 245.94 155.048 245.952 155.215 246.01C155.315 245.922 155.416 245.828 155.512 245.726C155.578 245.664 155.674 245.669 155.744 245.725C155.999 245.716 156.651 246.157 156.457 246.347C156.424 246.393 156.384 246.432 156.349 246.475C156.463 246.545 156.577 246.624 156.678 246.704C157.224 246.902 158.004 247.522 157.924 247.685L157.915 247.697C157.767 247.931 157.583 248.123 157.364 248.269L157.29 248.317L157.125 248.413C157.334 248.569 157.508 248.742 157.406 248.846C157.357 248.925 157.306 249.002 157.247 249.069C157.655 249.662 158.06 250.26 158.463 250.857C158.834 251.859 159.316 252.804 159.909 253.692C160.388 254.643 160.986 255.51 161.702 256.297C161.761 256.366 161.823 256.432 161.882 256.498C162.418 256.963 162.983 257.403 163.574 257.83L163.829 258.012C163.963 258.108 164.191 258.233 164.064 258.428C164.049 258.454 164.031 258.474 164.011 258.488C164.382 258.774 164.767 259.047 165.166 259.302L165.204 259.33C165.354 259.443 165.553 259.642 165.317 259.773C165.115 259.886 164.635 259.501 164.408 259.323C164.363 259.32 164.311 259.303 164.259 259.283C164.336 259.331 164.411 259.383 164.487 259.434L164.602 259.51C164.691 259.572 165.124 259.911 164.796 260.014C164.638 260.014 164.498 259.963 164.372 259.863C164.221 259.774 164.073 259.679 163.929 259.582C163.975 259.669 163.969 259.751 163.832 259.794C163.787 259.793 163.742 259.787 163.697 259.778C163.995 260.002 164.302 260.213 164.62 260.414L164.671 260.451C164.804 260.553 165.015 260.744 164.84 260.88C164.644 261.03 164.167 260.64 164.043 260.551L163.673 260.289V260.289C163.643 260.3 163.611 260.303 163.576 260.303C163.687 260.384 163.79 260.469 163.904 260.548L164.06 260.649C164.255 260.777 164.528 260.984 164.41 261.161C164.291 261.336 163.993 261.161 163.802 261.027L163.598 260.877C163.589 260.871 163.58 260.864 163.57 260.858L163.559 260.889C163.557 260.895 163.554 260.9 163.551 260.905C163.437 261.07 163.196 260.937 163.031 260.824L162.899 260.729C162.674 260.568 162.452 260.41 162.232 260.25L161.902 260.01L161.897 260.009C160.755 259.196 159.703 258.394 158.732 257.388C158.151 256.787 157.614 256.158 157.111 255.491C156.098 254.154 155.383 252.659 154.7 251.136C154.689 251.111 154.712 251.051 154.749 250.988C154.676 250.8 154.605 250.61 154.535 250.415C153.699 250.58 152.78 250.575 151.943 250.454C151.493 250.389 151.054 250.275 150.619 250.121C149.219 249.814 147.904 249.063 146.785 248.198C146.715 248.145 146.652 248.086 146.587 248.034C146.122 247.722 145.685 247.368 145.275 246.969C144.475 246.197 143.721 245.347 143.044 244.469C142.557 243.79 142.101 243.089 141.679 242.367C141.248 241.653 140.812 240.938 140.377 240.223C139.185 237.993 138.507 235.48 138.364 232.955C138.271 232.021 138.259 231.082 138.35 230.155C138.415 229.484 138.543 228.81 138.725 228.143C138.654 228.063 138.583 227.983 138.512 227.9C138.464 227.97 138.417 228.02 138.393 227.992L137.831 227.335C137.433 226.866 137.169 226.523 136.726 225.781C136.023 224.596 135.529 223.316 135.192 221.981C134.948 221.027 134.821 219.954 134.818 218.925C134.805 218.753 134.792 218.578 134.784 218.401C134.722 217.005 134.982 215.692 135.298 214.344C135.318 214.255 135.368 214.203 135.431 214.178C135.455 214.071 135.482 213.961 135.509 213.852C133.894 211.853 132.803 209.511 133.117 206.809C133.216 205.958 133.457 205.13 133.853 204.37L133.901 204.284V204.284C132.45 203.944 131.365 202.822 130.59 201.476C130.517 201.409 130.446 201.341 130.379 201.274C128.918 199.816 127.981 197.84 127.394 195.784C126.952 194.582 126.696 193.314 126.647 192.017C126.643 191.924 126.644 191.832 126.643 191.74C126.438 189.679 126.505 187.617 126.831 185.607C126.564 184.326 126.366 183.029 126.265 181.709C126.217 181.08 126.199 180.454 126.197 179.828L126.195 179.794L126.195 179.681L126.195 179.401C126.195 179.354 126.195 179.308 126.196 179.262C126.19 173.54 127.898 168.042 130.412 162.938C130.632 162.478 130.858 162.021 131.09 161.567L131.335 161.093V161.093C133.711 157.854 137.096 155.348 140.008 152.649C141.013 151.719 139.631 150.096 138.623 151.03C136.688 152.823 134.63 154.525 132.747 156.376C132.44 156.374 132.134 156.359 131.83 156.32C131.301 156.252 130.793 156.127 130.304 155.952C129.073 155.672 127.978 155.082 127.005 154.264C125.676 153.514 124.594 152.211 124.6 150.623C124.599 150.462 124.614 150.306 124.637 150.15C124.57 149.367 124.747 148.567 125.129 147.846C125.201 147.646 125.288 147.449 125.394 147.257C125.703 146.686 126.18 146.151 126.739 145.807C126.753 145.8 126.764 145.796 126.775 145.789C126.835 145.735 126.893 145.68 126.958 145.632C127.055 145.557 127.156 145.487 127.263 145.424C126.95 144.806 126.673 144.176 126.447 143.509C126.202 142.784 126.103 142.061 126.077 141.303C126.065 141.003 126.075 140.707 126.093 140.412C126.087 140.275 126.088 140.136 126.088 139.997C126.103 138.941 126.31 137.859 126.78 136.907C126.815 136.836 126.858 136.764 126.898 136.69C126.99 136.472 127.09 136.256 127.208 136.046C127.666 135.24 128.279 134.575 129.012 134.047C129.413 133.701 129.856 133.402 130.332 133.156C130.613 133.009 130.93 132.885 131.261 132.787C131.858 132.529 132.615 132.311 133.214 132.336C133.286 132.339 133.349 132.352 133.419 132.357C133.593 130.837 133.919 129.193 134.629 127.86C135.058 126.886 135.653 126.038 136.494 125.459C136.99 125.016 137.586 124.671 138.312 124.472L138.441 124.438L138.49 124.429C139.149 124.17 139.844 124.101 140.547 124.159C141.371 124.18 142.196 124.4 142.881 124.832C143.023 124.923 143.175 125.034 143.318 125.152C143.45 124.932 143.595 124.711 143.76 124.492C144.336 123.711 145.01 123.045 145.778 122.45C145.869 122.38 145.967 122.318 146.064 122.251C146.436 121.962 146.828 121.699 147.231 121.463C148.102 120.954 149.041 120.597 150.013 120.395C151.142 120.075 152.315 119.977 153.471 120.107L153.71 120.135V120.135C153.762 120.145 153.815 120.151 153.866 120.158C155.01 120.322 156.122 120.692 157.172 121.201C158.261 121.732 159.16 122.478 159.984 123.316C160.214 123.046 160.471 122.793 160.78 122.561C160.868 122.496 160.961 122.439 161.048 122.379C161.117 122.32 161.188 122.264 161.262 122.209C161.6 121.954 161.953 121.739 162.336 121.552C162.767 121.343 163.223 121.21 163.691 121.142C164.171 121.019 164.67 120.959 165.172 120.966ZM151.19 229.998C151.237 229.999 153.625 231.113 154.804 231.804L154.862 231.839C156.221 232.649 156.861 233.207 158.061 234.206C158.141 234.274 158.221 234.373 158.214 234.464C158.112 235.774 157.669 237.353 156.622 236.557C156.47 236.442 156.318 236.329 156.164 236.217L155.932 236.051L155.923 236.053C155.926 236.054 155.929 236.051 155.932 236.049C153.645 234.399 151.198 233.054 148.585 232.025C148.407 231.945 149.923 230.001 150.289 230.144C150.08 230.042 151.154 229.997 151.19 229.998ZM180.924 174.059C179.315 174.105 177.705 174.149 176.096 174.189C175.07 174.226 174.042 174.25 173.015 174.259C171.474 174.254 169.94 174.153 168.429 173.824C167.893 173.708 167.37 173.56 166.855 173.389C166.476 173.624 166.085 173.842 165.686 174.049L161.218 176.946V176.946C158.216 178.948 155.266 181.088 152.572 183.493C147.868 187.695 143.91 192.732 141.224 198.444C141.013 198.547 140.84 198.743 140.763 199.058C140.182 201.439 138.86 203.55 138.257 205.92C137.663 208.254 138.051 210.308 139.391 212.299C139.678 212.725 140.329 212.754 140.749 212.515C140.828 212.704 141.23 212.728 141.434 211.934C142.151 211.27 142.774 210.564 143.23 209.665C143.565 209.003 143.128 208.492 142.56 208.354C142.866 207.512 143.202 206.681 143.571 205.861C144.663 203.424 145.992 201.118 147.604 198.984C149.022 197.107 150.619 195.5 152.326 193.897C152.346 193.874 152.379 193.869 152.413 193.867L152.768 193.531V193.531C152.817 193.484 152.91 193.496 153.011 193.531C153.118 193.435 153.222 193.336 153.331 193.241C153.437 193.142 153.544 193.182 153.598 193.272C153.768 193.248 154.06 193.452 154.148 193.518C154.299 193.637 154.34 193.76 154.193 193.901C154.167 193.926 154.141 193.95 154.115 193.972C154.292 194.064 154.465 194.181 154.598 194.293C155.081 194.44 155.736 194.95 155.606 195.077C155.333 195.32 155.068 195.569 154.805 195.824C155.006 195.989 155.132 196.146 155.072 196.205C153.951 197.216 152.905 198.296 151.933 199.452C151.195 200.313 150.518 201.217 149.902 202.165C148.991 203.505 148.199 204.893 147.481 206.328C147.378 206.547 147.278 206.766 147.181 206.986C146.107 209.384 145.249 211.892 144.767 214.478L144.742 214.652C144.617 215.588 144.401 218.101 144.257 218.693C144.822 219.028 145.413 219.323 146.032 219.574C146.149 219.618 146.269 219.659 146.389 219.698C146.46 219.674 146.533 219.656 146.607 219.64C147.21 219.449 147.834 219.327 148.464 219.293C148.889 219.27 149.309 219.284 149.727 219.328L149.905 219.349C150.091 219.369 150.273 219.397 150.457 219.43C150.455 219.323 150.458 219.219 150.458 219.112C150.408 219.073 150.372 219.023 150.374 218.958C150.342 217.754 150.433 216.559 150.645 215.373C150.773 214.756 150.915 214.142 151.064 213.528C151.207 213.026 151.366 212.534 151.535 212.042C151.99 210.662 152.556 209.325 153.219 208.025C155.105 204.317 157.65 201.04 160.207 197.783C162.073 195.404 163.853 192.962 165.774 190.63C167.409 188.645 169.116 186.697 170.918 184.86C172.717 183.027 174.604 181.274 176.617 179.674C176.942 179.418 177.268 179.171 177.6 178.927C179.503 177.473 181.539 176.314 183.652 175.186C183.733 175.142 183.867 175.208 183.974 175.312L184.314 175.138C184.371 175.109 184.428 175.081 184.485 175.053C184.538 175.025 184.59 175.083 184.616 175.13C184.759 175.069 184.903 175.011 185.046 174.953C185.153 174.879 185.263 174.81 185.371 174.738C183.884 174.547 182.402 174.319 180.924 174.059ZM201.026 157.816C199.839 157.481 198.63 157.352 197.4 157.438C196.884 157.473 196.37 157.523 195.859 157.592C196.923 158.677 197.743 160.023 198.225 161.536C198.746 163.171 196.122 163.654 195.609 162.042C195.114 160.487 194.044 159.241 192.697 158.439C192.381 158.585 192.073 158.745 191.777 158.926C191.387 159.195 191.017 159.489 190.666 159.817C189.899 160.53 189.172 161.504 188.668 162.485C188.46 163.024 188.294 163.583 188.171 164.161C188.145 164.293 188.118 164.427 188.095 164.561C187.619 167.289 188.196 170.023 189.364 172.494L189.417 172.499V172.499C190.675 171.939 191.981 171.486 193.316 171.138C194.412 170.519 195.543 169.955 196.702 169.455C199.165 168.391 201.738 167.624 204.364 167.167L204.667 167.115C205.286 167.008 205.908 166.919 206.532 166.847L206.906 166.806L206.912 166.807L206.903 166.408V166.408C206.816 164.839 206.321 163.349 205.638 161.956C205.127 160.903 204.317 159.804 203.394 158.904L203.389 158.901C202.96 158.611 202.505 158.363 202.033 158.151L201.855 158.073L201.026 157.816ZM168.835 152.935C166.347 152.503 163.838 152.332 161.315 152.341C159.664 152.376 158.018 152.474 156.376 152.635C155.264 152.738 154.168 152.92 153.085 153.167L153.595 154.436C154.447 156.551 155.324 158.654 156.394 160.671C156.946 161.711 157.555 162.707 158.228 163.67C158.68 164.357 159.185 165 159.748 165.599C159.892 165.806 160.048 166.002 160.207 166.193C160.722 166.709 161.285 167.169 161.909 167.563C162.401 167.983 162.92 168.357 163.465 168.693L163.671 168.817L165.603 169.736C165.707 169.774 165.812 169.813 165.918 169.85L166.077 169.904L166.374 169.991L166.611 169.886C166.651 169.868 166.691 169.851 166.731 169.835C166.798 169.805 166.838 169.875 166.847 169.924C166.851 169.943 166.841 169.969 166.826 169.994L167.128 169.86V169.86C167.611 170.101 168.128 170.305 168.688 170.456C168.941 170.524 169.196 170.581 169.452 170.632L169.484 170.658C169.49 170.663 169.495 170.667 169.501 170.673L169.783 170.695V170.695C171.753 171.041 173.787 170.945 175.797 170.743C178.624 170.68 181.453 170.587 184.278 170.515C184.332 170.514 184.351 170.539 184.348 170.576L184.522 170.574V170.574C184.774 170.567 185.033 171.006 184.833 171.143C184.977 171.245 185.113 171.387 185.214 171.496L185.279 171.495C184.952 170.711 184.716 169.9 184.568 169.063L184.404 167.666V167.666C184.369 167.148 184.369 166.598 184.403 166.058C184.404 165.81 184.409 165.578 184.424 165.376C184.439 165.185 184.457 164.994 184.48 164.804C183.968 164.544 183.447 164.312 182.912 164.107C181.373 163.795 179.837 163.483 178.298 163.173C177.363 163.135 176.426 163.129 175.488 163.16C174.427 163.171 173.366 163.209 172.306 163.27C172.207 163.273 172.042 163.127 171.947 162.964L171.494 162.991V162.991C171.258 163.002 171.05 162.515 171.365 162.444C171.48 162.408 171.595 162.375 171.71 162.343L171.882 162.297L171.785 162.3C171.753 162.301 171.714 162.289 171.67 162.27C171.421 162.282 171.171 162.295 170.925 162.305C170.612 162.32 170.714 161.917 170.939 161.838L171.046 161.807C170.872 161.678 170.734 161.353 170.969 161.268L171.001 161.259C171.11 161.225 171.217 161.198 171.326 161.166C171.321 161.132 171.323 161.099 171.336 161.071L170.893 161.093V161.093C170.853 161.095 171.065 160.83 171.161 160.782L171.177 160.776L171.392 160.728C171.431 160.64 171.617 160.454 171.676 160.441C172.465 160.259 173.199 160.097 173.961 159.988C174.002 159.946 174.047 159.915 174.096 159.908C174.572 159.833 175.052 159.782 175.53 159.744C175.566 159.699 175.6 159.667 175.638 159.667C176.82 159.61 177.997 159.667 179.17 159.838C179.394 159.877 179.618 159.919 179.841 159.965C180.271 160.047 180.699 160.142 181.122 160.257C182.186 160.526 183.216 160.889 184.212 161.348L184.441 161.456C184.691 161.572 184.938 161.692 185.182 161.821C185.345 161.377 185.539 160.943 185.762 160.52C185.798 160.437 185.836 160.357 185.877 160.278L185.631 160.103V160.103C185.567 160.205 185.447 160.279 185.376 160.228C183.627 158.839 181.756 157.649 179.762 156.66C178.649 156.06 177.504 155.536 176.323 155.081C175.736 154.84 175.141 154.618 174.543 154.403C174.243 154.315 173.942 154.227 173.636 154.15C172.073 153.596 170.472 153.191 168.835 152.935ZM229.328 161.886C229.074 162.256 228.811 162.621 228.534 162.98C227.191 164.723 225.617 166.335 223.868 167.711C224.293 167.743 224.717 167.793 225.133 167.864C225.851 167.989 226.55 168.164 227.227 168.386C227.287 168.346 227.351 168.328 227.399 168.367L227.569 168.506V168.506C229.019 169.021 230.361 169.757 231.555 170.697L231.545 170.529C231.544 170.501 231.542 170.473 231.539 170.445C231.585 170.12 231.616 169.794 231.631 169.469C231.52 167.534 231.006 165.721 230.402 163.879C230.39 163.843 230.404 163.799 230.429 163.755C230.101 163.113 229.737 162.488 229.328 161.886ZM230.843 146.863C230.28 146.92 229.72 147.008 229.16 147.127C228.12 147.201 227.103 147.394 226.112 147.704C224.75 148.071 223.422 148.518 222.097 148.997C219.523 149.929 217.081 151.171 214.825 152.721C214.682 152.814 214.543 152.91 214.405 153.006C213.897 153.38 213.402 153.774 212.928 154.194C212.43 154.658 211.929 155.121 211.43 155.587C210.822 156.133 210.132 156.616 209.572 157.213C209.459 157.335 209.357 157.472 209.264 157.609L209.556 157.735V157.735C209.801 157.84 209.722 158.309 209.478 158.221C209.395 158.19 209.317 158.155 209.24 158.117C209.271 158.165 209.292 158.212 209.294 158.252C209.3 158.381 209.188 158.548 209.035 158.491C208.964 158.467 208.895 158.435 208.825 158.4C208.798 158.48 208.775 158.561 208.769 158.641C208.782 158.647 208.795 158.654 208.811 158.658C208.981 158.733 209.289 159.032 209.323 159.221C209.349 159.368 209.214 159.512 209.061 159.457C208.947 159.416 208.836 159.36 208.729 159.298C208.797 159.376 208.85 159.457 208.85 159.524C208.851 159.647 208.732 159.811 208.589 159.76C208.323 159.664 208.115 159.533 207.945 159.376C207.892 159.436 207.819 159.481 207.765 159.461L207.664 159.421V159.421C207.69 159.449 207.714 159.479 207.737 159.508L207.771 159.552C208.442 160.4 209.014 161.326 209.453 162.309C209.479 162.284 209.511 162.262 209.55 162.236C209.805 162.053 210.067 161.876 210.329 161.704L210.409 161.644V161.644L210.49 161.585L209.921 161.725L209.934 161.712C209.978 161.665 210.113 161.507 210.174 161.455L210.189 161.444C211.004 160.822 211.88 160.307 212.815 159.905C213.426 159.573 214.062 159.302 214.722 159.089C216.304 158.499 217.903 158.081 219.54 157.707C219.785 157.648 220.031 157.584 220.276 157.528C220.346 157.51 220.357 157.54 220.343 157.587L220.471 157.56V157.56C220.7 157.505 221.049 157.928 220.883 158.099C220.969 158.181 221.052 158.271 221.124 158.354L221.176 158.416L221.242 158.402C221.436 158.359 221.733 158.679 221.92 158.905L222.058 159.075C222.162 159.206 222.366 159.476 222.084 159.553L221.733 159.643V159.643C221.738 159.713 221.704 159.769 221.595 159.8C221.472 159.831 221.352 159.864 221.232 159.898C221.298 159.965 221.363 160.035 221.426 160.105L221.52 160.211C221.631 160.343 221.895 160.636 221.634 160.736L221.601 160.746L221.266 160.838C221.301 160.937 221.283 161.026 221.135 161.068C219.178 161.567 217.257 162.182 215.371 162.903C213.95 163.551 212.466 164.002 210.921 164.253C210.793 164.283 210.537 164.073 210.44 163.876L210.209 163.925C210.17 163.933 210.131 163.941 210.093 163.948L210.055 163.953V163.953C210.28 164.732 210.426 165.568 210.481 166.371C210.489 166.444 210.494 166.52 210.496 166.592C210.795 166.591 211.092 166.593 211.39 166.6C213.457 166.651 215.534 166.88 217.579 167.285C218.451 166.853 219.296 166.371 220.109 165.842C220.357 165.679 220.602 165.511 220.846 165.341C222.309 164.258 223.653 163.019 224.865 161.663C225.986 160.407 226.982 159.042 227.842 157.597C228.611 156.238 229.269 154.815 229.799 153.334C230.284 151.98 230.519 150.644 230.726 149.22C230.776 148.989 230.815 148.757 230.852 148.525L230.858 148.425V148.425L230.858 148.376C230.871 147.872 230.86 147.366 230.843 146.863ZM209.999 163.128C209.936 163.145 209.87 163.161 209.805 163.175C209.836 163.26 209.864 163.343 209.892 163.427L209.897 163.426V163.426L210.163 163.248V163.248C210.112 163.22 210.053 163.178 209.999 163.128ZM230.764 143.069C231.256 142.928 231.62 142.922 231.855 143.052C231.492 143.051 231.128 143.057 230.764 143.069Z" fill="black"/>
<path fill-rule="evenodd" clip-rule="evenodd" d="M205.72 255.228C203.991 254.361 202.492 253.023 201.448 251.382C201.085 250.811 201.025 250.233 201.15 249.719C201.291 249.141 201.679 248.637 202.18 248.318C202.682 247.998 203.289 247.868 203.856 248.003C204.348 248.119 204.823 248.431 205.171 249.027L205.245 249.146C205.864 250.136 206.707 250.975 207.697 251.55C208.65 252.104 209.741 252.413 210.899 252.373C213.102 252.296 214.7 251.233 216.425 249.755C216.639 249.568 216.854 249.375 217.07 249.178C217.211 248.996 217.395 248.886 217.594 248.836C217.816 248.781 218.059 248.804 218.276 248.899C218.486 248.991 218.667 249.148 218.781 249.348C218.89 249.537 218.942 249.765 218.9 250.019C218.624 251.669 217.639 253.084 216.314 254.152C214.842 255.338 212.955 256.091 211.219 256.271C209.306 256.47 207.405 256.073 205.72 255.228V255.228ZM214.152 230.102C216.063 231.476 218.898 234.555 216.505 237.407C213.758 239.872 210.338 236.534 208.644 235.013C207.056 233.813 204.964 236.419 206.417 237.789C218.689 248.436 225.341 231.294 215.278 228.748C214.17 228.468 213.656 229.684 214.152 230.102ZM191.688 217.079C192.124 214.347 196.362 214.049 196.567 216.802C196.751 219.267 196.137 221.471 194.868 223.579C193.655 225.593 191.093 224.41 191.043 222.486C190.974 219.908 191.417 218.778 191.688 217.079ZM223.676 218.346C224.32 217.627 225.204 217.171 226.191 217.544C229.277 218.712 227.997 223.118 226.719 225.211C226.024 226.348 224.053 226.496 223.255 225.386C221.953 223.574 221.53 220.126 223.484 218.594C223.54 218.511 223.602 218.428 223.676 218.346ZM196.244 205.333L196.75 205.285C198.313 205.139 200.251 205.032 201.246 206.356C201.774 207.058 201.878 208.295 201.051 208.864C199.596 209.864 198.116 209.317 196.469 209.283C195.112 209.255 193.795 209.378 192.464 209.648C189.545 210.241 187.102 211.549 184.535 212.994C184.198 213.183 183.903 212.749 184.079 212.462C185.702 209.816 188.607 207.764 191.448 206.598C192.964 205.975 194.608 205.488 196.244 205.333ZM221.736 206.077L222.112 206.184C226.198 207.375 231.46 209.529 233.109 213.758C233.139 214.341 233.05 214.458 232.98 214.534L232.956 214.559C232.898 214.624 232.848 214.715 232.592 214.774C232.524 214.752 232.455 214.73 232.386 214.705C231.502 214.399 230.814 214.018 230.15 213.627L229.43 213.2C228.594 212.707 227.75 212.229 226.845 211.853C224.913 211.053 222.909 210.439 220.858 210.035C220.413 209.947 219.993 209.762 219.672 209.477C219.368 209.205 219.147 208.845 219.07 208.383C218.969 207.786 219.046 207.345 219.402 206.841C219.669 206.462 220.03 206.213 220.431 206.085C220.84 205.955 221.294 205.952 221.736 206.077Z" fill="black"/>
</g>
<path d="M23.9425 435.068C21.4868 434.875 19.2848 433.3 18.3117 431.035C17.7764 429.788 17.738 428.514 17.841 427.192C17.9633 425.622 18.0856 424.051 18.2079 422.481C18.4373 419.534 18.6667 416.588 18.8962 413.642C19.2218 409.462 19.5473 405.281 19.8729 401.1C20.2836 395.827 20.6942 390.554 21.1049 385.281C21.5896 379.056 22.0743 372.832 22.5591 366.608C23.1068 359.574 23.6546 352.54 24.2024 345.506C24.8022 337.805 25.4019 330.103 26.0017 322.401C26.6407 314.197 27.2796 305.993 27.9185 297.788C28.5892 289.175 29.26 280.563 29.9306 271.951C30.6184 263.12 31.3061 254.289 31.9938 245.458C32.6914 236.5 33.3891 227.541 34.0868 218.582C34.7814 209.663 35.4761 200.743 36.1707 191.823C36.8513 183.084 37.5319 174.344 38.2125 165.605C38.868 157.188 39.5235 148.77 40.179 140.353C40.7985 132.399 41.4179 124.445 42.0374 116.49C42.6097 109.141 43.182 101.792 43.7544 94.4426C44.2686 87.84 44.7827 81.2375 45.2969 74.635C45.742 68.9203 46.187 63.2056 46.632 57.491C46.9969 52.8064 47.3617 48.121 47.7266 43.4365C47.9995 39.9311 48.2726 36.425 48.5456 32.9196C48.7173 30.7141 48.889 28.5095 49.0608 26.304C49.1212 25.5284 49.1663 24.75 49.2429 23.9756C49.484 21.5142 51.0522 19.3355 53.3466 18.3835C54.6935 17.8248 56.0404 17.8616 57.4504 17.9714C59.6988 18.1465 61.9479 18.3217 64.1963 18.4968C68.2957 18.816 72.3952 19.1353 76.4947 19.4545C82.1463 19.8947 87.7979 20.3348 93.4503 20.775C100.356 21.3128 107.262 21.8506 114.167 22.3884C122.029 23.0006 129.891 23.6128 137.751 24.225C146.27 24.8884 154.789 25.5518 163.308 26.2153C172.185 26.9066 181.063 27.5979 189.941 28.2893C198.854 28.9834 207.766 29.6775 216.679 30.3716C225.381 31.0493 234.082 31.7269 242.784 32.4046C250.927 33.0388 259.071 33.6729 267.215 34.3072C274.55 34.8784 281.886 35.4497 289.221 36.0209C295.425 36.5041 301.628 36.9872 307.832 37.4703C312.607 37.8421 317.381 38.2139 322.155 38.5857C325.201 38.8229 328.247 39.0602 331.293 39.2974C332.399 39.3835 333.516 39.4311 334.619 39.5618C337.078 39.8538 339.224 41.5244 340.101 43.8433C340.557 45.0496 340.551 46.2611 340.453 47.5156C340.326 49.1438 340.199 50.7719 340.073 52.4001C339.839 55.3981 339.605 58.3968 339.372 61.3948C339.044 65.6082 338.716 69.8216 338.388 74.0341C337.975 79.3283 337.563 84.6233 337.151 89.9174C336.664 96.1717 336.177 102.426 335.69 108.68C335.14 115.739 334.59 122.799 334.04 129.858C333.439 137.58 332.838 145.302 332.236 153.025C331.594 161.268 330.952 169.513 330.31 177.757C329.639 186.381 328.967 195.005 328.295 203.629C327.605 212.491 326.915 221.354 326.225 230.217C325.527 239.177 324.829 248.137 324.131 257.096C323.437 266.012 322.743 274.927 322.049 283.842C321.369 292.572 320.689 301.301 320.009 310.03C319.355 318.432 318.701 326.834 318.046 335.235C317.43 343.146 316.814 351.057 316.198 358.967C315.629 366.271 315.06 373.575 314.492 380.879C313.98 387.454 313.468 394.028 312.956 400.603C312.513 406.285 312.071 411.966 311.628 417.648C311.266 422.295 310.904 426.943 310.543 431.59C310.272 435.061 310.002 438.532 309.732 442.003C309.564 444.157 309.396 446.311 309.228 448.465C309.166 449.271 309.134 450.087 309.031 450.889C308.714 453.348 307.011 455.48 304.681 456.328C303.362 456.809 302.059 456.727 300.699 456.621C298.371 456.439 296.043 456.258 293.714 456.077C289.547 455.752 285.38 455.428 281.212 455.103C275.522 454.66 269.833 454.217 264.143 453.774C257.217 453.234 250.293 452.695 243.367 452.156C235.478 451.541 227.589 450.927 219.7 450.313C211.164 449.648 202.628 448.983 194.092 448.318C185.208 447.627 176.322 446.935 167.438 446.243C158.503 445.547 149.568 444.851 140.634 444.155C131.947 443.479 123.26 442.802 114.573 442.126C106.433 441.492 98.2922 440.858 90.1516 440.224C82.8564 439.656 75.5603 439.088 68.2651 438.52C62.1124 438.04 55.9605 437.561 49.8079 437.082C45.0968 436.715 40.3864 436.348 35.6753 435.982C32.7047 435.75 29.7332 435.519 26.7626 435.287C25.8228 435.214 24.8823 435.141 23.9425 435.068Z" stroke="black" stroke-width="1.5" stroke-miterlimit="10" stroke-linecap="round" stroke-linejoin="round"/>
<defs>
<clipPath id="clip0_84_24130">
<rect x="49.6699" y="17.2564" width="292" height="419" rx="8" transform="rotate(4.45301 49.6699 17.2564)" fill="white"/>
</clipPath>
</defs>
</svg>
