<svg width="138" height="60" viewBox="0 0 138 60" fill="none" xmlns="http://www.w3.org/2000/svg">
<path d="M2.08962 26.2316C2.86631 25.1562 3.40402 24.2899 3.70275 23.6327C3.46376 23.7522 3.22478 23.8717 2.9858 23.9912C2.50784 24.2899 2.17924 24.6782 2 25.1562C1.82076 25.6342 1.85064 25.9926 2.08962 26.2316ZM3.70275 27.0382C4.53918 27.1577 5.55485 27.0979 6.74976 26.8589C6.98875 26.7992 7.19785 26.8589 7.37709 27.0382C7.61607 27.2174 7.73556 27.4265 7.73556 27.6655C7.79531 27.785 7.79531 27.9344 7.73556 28.1136C7.61607 28.2928 7.40696 28.8305 7.10824 29.7267C6.86925 30.5632 6.6004 31.5788 6.30167 32.7737C6.00295 33.9687 5.91333 34.7453 6.03282 35.1038C7.22773 35.0441 8.84085 34.3271 10.8722 32.953C12.9035 31.5191 14.4271 30.3541 15.4427 29.4579C16.5181 28.5019 17.265 27.785 17.6832 27.307C18.1014 26.8888 18.5196 26.8888 18.9378 27.307C19.4158 27.7253 19.4457 28.1435 19.0275 28.5617C18.7885 28.8007 18.4897 29.0994 18.1313 29.4579C17.7728 29.8163 17.026 30.4735 15.8908 31.4295C14.8154 32.3854 13.7699 33.2517 12.7542 34.0284C11.7385 34.7453 10.6033 35.4025 9.34869 36C8.09404 36.5975 6.95887 36.8962 5.9432 36.8962C4.74829 36.8962 4.18071 36.0896 4.24045 34.4765C4.24045 33.2218 4.65867 31.3399 5.49511 28.8305C4.3002 28.95 3.28453 28.8604 2.44809 28.5617C2.02987 28.6812 1.70127 28.6513 1.46229 28.4721C1.3428 28.3526 1.22331 28.1435 1.10382 27.8447C0.446618 27.1875 0.147891 26.4407 0.207636 25.6043C0.207636 24.7081 0.506364 23.9314 1.10382 23.2742C1.76102 22.4975 2.59745 22.0196 3.61313 21.8403C4.74829 21.6013 5.40549 21.9897 5.58473 23.0054C5.70422 23.7821 5.07689 25.1263 3.70275 27.0382ZM20.6105 27.4863C20.4312 27.0681 20.0429 26.8589 19.4454 26.8589H19.5351C19.774 27.0979 20.1325 27.307 20.6105 27.4863ZM18.8181 28.5617C18.9376 29.2189 18.6986 29.6072 18.1012 29.7267C17.9219 29.7865 17.6829 30.0852 17.3842 30.6229C17.0855 31.1009 16.9361 31.5788 16.9361 32.0568C16.9361 32.3555 16.9959 32.5646 17.1154 32.6841C17.1751 32.7439 17.3245 32.7737 17.5635 32.7737C18.1012 32.7737 18.6687 32.4451 19.2662 31.7879C19.8637 31.071 20.2819 30.2644 20.5209 29.3683C19.8637 29.1293 19.2961 28.8604 18.8181 28.5617ZM22.4925 28.024C25.181 28.5019 28.3475 28.1733 31.992 27.0382C32.5894 26.9187 32.9778 27.1577 33.157 27.7551C33.3363 28.2928 33.1271 28.6513 32.5297 28.8305C28.6462 29.9657 25.2407 30.2943 22.3132 29.8163C21.9547 31.0113 21.3573 32.0867 20.5209 33.0426C19.6844 33.9985 18.7285 34.5064 17.6531 34.5661C16.8764 34.5661 16.2789 34.3271 15.8607 33.8492C15.3827 33.3712 15.1438 32.7737 15.1438 32.0568C15.1438 31.2204 15.3827 30.3839 15.8607 29.5475C16.3387 28.6513 16.966 28.1136 17.7427 27.9344C17.8622 27.9344 17.8921 27.9344 17.8323 27.9344C17.9518 27.9344 18.0115 27.9344 18.0115 27.9344C17.1751 26.9784 17.1452 26.1719 17.9219 25.5147C18.2207 25.2757 18.5791 25.1263 18.9973 25.0666C20.0728 24.9471 20.9092 25.1861 21.5067 25.7835C22.1639 26.381 22.4925 27.1278 22.4925 28.024ZM33.3587 27.307C33.5379 27.4863 33.6275 27.6954 33.6275 27.9344C33.6275 28.1733 33.5379 28.3825 33.3587 28.5617C33.2392 28.7409 33.0301 28.8305 32.7313 28.8305C32.4326 28.8305 32.0144 29.2189 31.4767 29.9956C30.8792 30.7723 30.461 31.6386 30.222 32.5945C29.9233 33.7894 29.983 34.4167 30.4013 34.4765C31.0585 34.6557 32.0443 33.7894 33.3587 31.8776C34.7328 29.906 35.629 28.4422 36.0472 27.4863C36.3459 26.8888 36.794 26.7693 37.3915 27.1278C37.75 27.3668 37.8694 27.6954 37.75 28.1136C37.6305 28.7708 37.5408 29.5176 37.4811 30.3541C37.4214 32.8634 38.2877 34.1479 40.08 34.2076C41.0957 34.2076 42.4997 33.6102 44.2921 32.4153C46.1442 31.1606 47.5482 30.1151 48.5041 29.2786C49.5198 28.3825 50.2069 27.7253 50.5654 27.307C50.9836 26.8888 51.4018 26.8888 51.82 27.307C52.298 27.7253 52.3278 28.1435 51.9096 28.5617C51.6706 28.7409 51.3719 29.0098 51.0134 29.3683C50.7147 29.7267 50.0575 30.3541 49.0418 31.2502C48.0859 32.0867 47.1599 32.8335 46.2637 33.4907C45.3675 34.1479 44.322 34.7453 43.127 35.2831C41.9321 35.761 40.8866 36 39.9904 36C37.5408 35.9403 36.1368 34.5064 35.7784 31.6983C33.5678 35.1636 31.626 36.6871 29.9532 36.2689C28.3998 35.8506 27.892 34.4765 28.4297 32.1464C28.7284 30.8918 29.296 29.7267 30.1324 28.6513C30.9091 27.5759 31.7754 27.0382 32.7313 27.0382C33.0301 27.0382 33.2392 27.1278 33.3587 27.307ZM57.1019 15.8359C58.2968 12.3707 59.2228 9.26391 59.88 6.51562C58.9241 9.20416 57.9981 12.3109 57.1019 15.8359ZM51.8144 28.8305C51.7547 28.8305 51.6949 28.8305 51.6352 28.8305C50.978 28.8305 50.3506 29.0397 49.7532 29.4579C49.0362 29.9358 48.4388 30.6229 47.9608 31.5191C47.4231 32.4153 47.0945 33.192 46.975 33.8492C46.7958 34.5064 46.7659 34.9246 46.8854 35.1038C46.8854 35.1038 46.9153 35.1038 46.975 35.1038C47.3932 35.1038 48.0803 34.5362 49.0362 33.4011C49.9324 32.2659 50.8585 30.7424 51.8144 28.8305ZM54.7718 26.9486C54.5926 27.785 54.4731 28.5617 54.4133 29.2786C54.2938 30.4735 54.2341 31.5191 54.2341 32.4153C54.2341 33.2517 54.264 33.9089 54.3237 34.3869C54.4432 34.8648 54.5328 35.1337 54.5926 35.1934C55.3693 35.4922 56.6837 34.9843 58.5358 33.6699C60.3879 32.2958 61.9114 31.0411 63.1063 29.906C64.3012 28.7111 65.1078 27.8447 65.526 27.307C65.5857 27.307 65.8546 27.3967 66.3325 27.5759C66.8703 27.7551 67.1391 27.8746 67.1391 27.9344C67.1391 28.1136 67.0495 28.3227 66.8703 28.5617C66.691 28.8007 66.3923 29.1591 65.9741 29.6371C65.5559 30.1151 64.7792 30.9216 63.644 32.0568C62.5088 33.1322 61.4035 34.0583 60.3281 34.835C59.3125 35.6117 58.1773 36.239 56.9226 36.7169C55.7277 37.1949 54.7121 37.2248 53.8756 36.8066C52.7405 36.3286 52.2625 34.596 52.4417 31.6087C50.4104 35.1337 48.5881 36.8962 46.975 36.8962C46.3178 36.8962 45.8399 36.6572 45.5411 36.1792C45.1827 35.7013 45.0034 35.1636 45.0034 34.5661C45.0034 33.0127 45.6606 31.3697 46.975 29.6371C48.2297 27.9045 49.7831 27.0382 51.6352 27.0382C51.9936 27.0382 52.2625 27.2174 52.4417 27.5759C52.621 27.2174 52.8002 26.8291 52.9794 26.4109C53.2782 24.738 53.6068 22.9755 53.9652 21.1234C56.8928 7.62091 59.2826 0.809926 61.1347 0.690435C61.9114 0.630691 62.3296 1.10865 62.3893 2.12433C62.4491 3.49847 61.9114 6.12727 60.7762 10.0107C59.7008 13.8344 58.3864 17.8075 56.833 21.9299C56.1161 23.7223 55.429 25.3952 54.7718 26.9486ZM65.2627 27.6655C65.442 27.0681 65.8004 26.8888 66.3382 27.1278C66.9356 27.307 67.1148 27.6655 66.8759 28.2032L65.8004 31.4295C66.0992 31.1905 66.6369 30.6827 67.4136 29.906C68.25 29.1293 68.8773 28.5617 69.2956 28.2032C69.7735 27.8447 70.3112 27.4265 70.9087 26.9486C71.5659 26.4109 72.1036 26.0225 72.5218 25.7835C72.9998 25.5445 73.3881 25.4251 73.6868 25.4251C75.3 25.4251 75.7182 26.9784 74.9415 30.0852C77.5703 27.9941 79.4822 26.8589 80.6771 26.6797C82.0512 26.5602 83.0071 27.0681 83.5448 28.2032C84.0826 29.2786 84.3514 30.4138 84.3514 31.6087C84.4112 32.8036 84.5008 33.4011 84.6203 33.4011C85.5762 33.4608 86.8607 32.953 88.4738 31.8776C90.087 30.8021 91.3118 29.8761 92.1482 29.0994C92.9846 28.3227 93.5821 27.7253 93.9406 27.307C94.299 26.8888 94.6874 26.8888 95.1056 27.307C95.5836 27.6655 95.6134 28.0837 95.1952 28.5617C95.0757 28.7409 94.8666 28.9799 94.5679 29.2786C94.2692 29.5774 93.6717 30.1449 92.7755 30.9814C91.9391 31.7581 91.1026 32.4451 90.2662 33.0426C89.4895 33.6401 88.5336 34.1778 87.3984 34.6557C86.323 35.0739 85.3372 35.2532 84.441 35.1934C83.3656 35.0739 82.6785 34.6557 82.3798 33.9388C82.0811 33.1621 82.0213 32.3555 82.2006 31.5191C82.3798 30.6827 82.3798 29.9657 82.2006 29.3683C82.0811 28.7111 81.633 28.4123 80.8563 28.4721C80.3783 28.5318 79.3328 29.1293 77.7197 30.2644C76.1065 31.3996 74.7324 32.5049 73.5972 33.5803C73.3582 33.879 73.0595 33.9687 72.701 33.8492C72.0438 33.6102 71.8646 33.192 72.1633 32.5945C73.179 30.3839 73.6271 28.6513 73.5076 27.3967C72.9102 27.7551 71.8347 28.5916 70.2814 29.906C68.7877 31.2204 67.4136 32.4153 66.1589 33.4907L64.3666 35.1038C64.1276 35.3428 63.8288 35.4324 63.4704 35.3727C62.8729 35.1934 62.6937 34.8051 62.9327 34.2076L65.2627 27.6655ZM95.6713 27.307C95.8505 27.4863 95.9402 27.6954 95.9402 27.9344C95.9402 28.1733 95.8505 28.3825 95.6713 28.5617C95.5518 28.7409 95.3427 28.8305 95.044 28.8305C94.7452 28.8305 94.327 29.2189 93.7893 29.9956C93.1919 30.7723 92.7736 31.6386 92.5347 32.5945C92.2359 33.7894 92.2957 34.4167 92.7139 34.4765C93.3711 34.6557 94.3569 33.7894 95.6713 31.8776C97.0454 29.906 97.9416 28.4422 98.3598 27.4863C98.6586 26.8888 99.1067 26.7693 99.7041 27.1278C100.063 27.3668 100.182 27.6954 100.063 28.1136C99.9431 28.7708 99.8535 29.5176 99.7937 30.3541C99.734 32.8634 100.6 34.1479 102.393 34.2076C103.408 34.2076 104.812 33.6102 106.605 32.4153C108.457 31.1606 109.861 30.1151 110.817 29.2786C111.832 28.3825 112.52 27.7253 112.878 27.307C113.296 26.8888 113.714 26.8888 114.133 27.307C114.611 27.7253 114.64 28.1435 114.222 28.5617C113.983 28.7409 113.685 29.0098 113.326 29.3683C113.027 29.7267 112.37 30.3541 111.354 31.2502C110.399 32.0867 109.473 32.8335 108.576 33.4907C107.68 34.1479 106.635 34.7453 105.44 35.2831C104.245 35.761 103.199 36 102.303 36C99.8535 35.9403 98.4495 34.5064 98.091 31.6983C95.8804 35.1636 93.9387 36.6871 92.2658 36.2689C90.7124 35.8506 90.2046 34.4765 90.7423 32.1464C91.041 30.8918 91.6086 29.7267 92.445 28.6513C93.2217 27.5759 94.088 27.0382 95.044 27.0382C95.3427 27.0382 95.5518 27.1278 95.6713 27.307ZM112.783 27.6655C112.902 27.1278 113.261 26.9486 113.858 27.1278C114.456 27.2473 114.665 27.6058 114.486 28.2032L109.108 46.8438C110.483 44.0955 111.618 41.8252 112.514 40.0328C113.41 38.2405 114.515 36.2091 115.83 33.9388C117.144 31.6685 118.369 29.9358 119.504 28.7409C120.639 27.546 121.655 26.8888 122.551 26.7693C123.388 26.7096 124.075 26.8291 124.612 27.1278C125.21 27.3668 125.598 27.785 125.777 28.3825C126.016 28.9202 126.166 29.428 126.226 29.906C126.345 30.3242 126.405 30.8918 126.405 31.6087C126.405 32.2659 126.405 32.6543 126.405 32.7737C126.464 33.192 126.524 33.4608 126.584 33.5803C126.644 33.6401 126.823 33.6401 127.122 33.5803C127.958 33.4608 129.153 32.8335 130.706 31.6983C132.32 30.5632 133.514 29.6371 134.291 28.9202C135.128 28.2032 135.695 27.6655 135.994 27.307C136.412 26.8888 136.83 26.8888 137.249 27.307C137.667 27.7253 137.667 28.1435 137.249 28.5617C136.83 29.0397 136.263 29.6371 135.546 30.3541C134.829 31.0113 133.574 31.9672 131.782 33.2218C130.049 34.4765 128.556 35.1934 127.301 35.3727C126.464 35.4922 125.837 35.3129 125.419 34.835C125.001 34.2973 124.762 33.6699 124.702 32.953C124.642 32.5348 124.583 32.0568 124.523 31.5191C124.523 30.9216 124.493 30.4735 124.433 30.1748C124.433 29.8761 124.373 29.5774 124.254 29.2786C124.194 28.9799 124.045 28.8007 123.806 28.7409C123.567 28.6214 123.208 28.5617 122.73 28.5617C121.595 28.6812 119.534 31.3697 116.547 36.6273C113.619 41.9447 111.259 46.5451 109.467 50.4285C107.675 54.3717 106.45 57.0603 105.793 58.4942C105.613 58.9124 105.285 59.0916 104.807 59.0319C104.15 58.9124 103.911 58.524 104.09 57.8668L112.783 27.6655Z" fill="#CFF800"/>
</svg>
