<svg width="240" height="275" viewBox="0 0 240 275" fill="none" xmlns="http://www.w3.org/2000/svg">
<g clip-path="url(#clip0_81_20972)">
<rect width="240" height="275" fill="#E7ECED"/>
<path fill-rule="evenodd" clip-rule="evenodd" d="M127.586 126.829C133.741 127.133 143.324 129.773 143.803 131.46C144.551 134.094 142.944 143.97 145.633 149.289C146.779 151.557 151.131 151.354 152.818 152.092C158.461 154.563 175.166 159.249 178.61 165.15C179.99 167.514 188.471 196.847 192.977 211.812C193.485 213.5 194.058 215.06 194.682 216.505L194.911 215.382C196.749 206.337 197.667 200.862 197.667 198.956C197.667 195.977 195.292 183.41 197.667 180.215C200.019 177.051 205.685 174.464 208.234 174.412L208.311 174.412C209.984 174.412 211.437 173.888 212.668 172.841L214.473 171.933C223.654 167.324 229.018 164.796 230.565 164.349C233.034 163.635 237.235 165.156 235.134 167.439C233.734 168.962 230.215 171.655 224.577 175.518L222.452 177.208L222.708 177.342C225.456 178.789 227.071 180.007 227.554 180.995C228.053 182.015 227.814 183.22 226.837 184.612L226.985 184.757C228.22 185.969 228.838 186.782 228.838 187.196V189.219C230.066 191.019 230.373 192.52 229.759 193.722C229.145 194.924 228.171 195.966 226.837 196.847C225.854 199.434 224.684 201.274 223.326 202.369C221.968 203.464 219.622 204.376 216.286 205.104L213.267 212.324L210.821 222.468L209.589 233.786L209.947 234.045C211.605 235.254 212.668 236.15 212.668 237.076C212.668 238.518 205.976 272.435 195.564 273.953C193.312 274.281 181.634 272.671 177.799 269.551L177.856 269.888C178.758 275.339 178.567 278.17 177.283 278.38C161.504 280.968 116.691 281.768 42.8429 280.779C42.4035 241.569 44.3902 215.456 48.803 202.439C60.0889 169.149 72.5322 157.778 76.8854 156.805C80.6986 155.952 93.9216 150.687 97.6179 149.289C100.031 148.377 100.548 145.642 103.297 145.642L103.52 145.644C106.179 145.67 108.537 146.146 109.861 144.778C113.338 141.188 112.366 136.218 113.809 131.46C114.603 128.838 120.034 126.456 127.586 126.829Z" fill="white"/>
<path fill-rule="evenodd" clip-rule="evenodd" d="M110.677 136.23C111.039 135.514 111.997 135.607 112.63 135.932C114.528 137.32 112.542 140.01 112.017 141.704C110.667 144.989 108.321 148.2 105.084 149.735C105.352 153.001 105.656 156.259 105.768 159.535C109.908 164.672 116.887 166.547 123.083 167.989C132.814 170.681 143.797 165.165 147.081 155.543C143.343 153.418 142.134 147.855 143.249 143.974C143.346 143.701 143.769 143.581 143.919 143.885C144.942 145.991 144.806 148.56 145.969 150.641C157.139 151.711 171.554 155.927 178.871 164.963C182.114 169.484 183.398 175.363 184.995 180.603C188.403 191.404 191.118 202.425 194.46 213.237L194.854 211.191C195.934 205.556 196.915 199.843 196.186 194.112L196.173 193.838C195.935 189.277 194.508 180.803 198.043 177.724C201.241 175.279 205.874 173.315 209.887 174.441C217.029 171.262 223.192 165.909 230.798 163.824C233.139 163.342 236.507 163.912 235.953 167.089C234.42 172.645 227.999 174.802 223.609 177.667C226.423 178.43 229.853 181.853 227.655 184.838C227.636 184.891 227.619 184.931 227.602 184.963C229.385 185.753 229.634 187.74 229.197 189.444C229.153 189.894 229.034 189.507 229.299 189.915C231.31 191.813 230.421 197.104 227.391 197.282C227.589 199.789 225.979 202.224 223.941 203.591C221.743 205.064 218.566 205.128 216.747 207.144C212.476 214.678 211.002 223.573 210.536 232.201C213.352 233.255 215.878 236.407 213.32 239.082C213.27 239.088 213.219 239.094 213.168 239.098C211.685 243.057 211.113 247.277 210.328 251.411C209.122 258.466 205.978 264.943 201.962 270.82C197.319 278.599 184.833 277.366 178.543 272.346C178.569 273.663 178.785 274.972 178.364 276.245C177.741 277.618 176.224 277.025 176.074 275.672C172.749 277.543 171.965 271.368 175.662 272.348C175.377 267.884 175.213 263.413 175.079 258.942C170.894 260.297 170.714 253.351 174.994 254.74L174.989 252.82C174.958 238.097 175.12 223.324 177.062 208.717C177.242 207.624 177.546 206.567 177.724 205.481C177.743 205.369 177.918 205.4 177.919 205.508C178.219 225.958 176.883 246.452 178.277 266.91C179.438 267.264 179.9 268.596 180.76 269.372C182.667 271.134 185.265 271.991 187.805 272.29C194.919 273.288 197.99 271.115 201.157 264.929C199.729 265.885 197.798 264.198 198.669 262.686L198.696 262.64C199.601 261.039 202.155 261.999 201.831 263.792C205.016 258.69 206.683 252.937 207.914 247.1L208.081 246.403C208.679 243.924 209.456 241.085 210.893 238.842C202.129 236.608 193.556 229.8 192.185 220.46C189.96 227.453 186.945 234.29 184.072 241.091C183.185 243.456 182.815 245.999 181.543 248.193C181.248 248.7 180.498 248.569 180.33 248.034C179.186 242.918 182.653 238.052 184.452 233.446C185.922 230.844 190.14 218.958 192.755 218.929C189.816 206.044 185.897 193.254 182.164 180.529C178.554 163.347 171.199 160.034 155.616 154.624C158.427 168.952 171.259 182.822 164.431 197.851L164.265 198.241C163.566 199.898 162.986 201.568 163.474 203.386C163.947 205.151 165.024 206.683 165.887 208.271C170.705 217.236 167.388 227.707 165.525 237.044C163.172 247.993 160.847 258.953 158.414 269.886C157.934 272.067 157.623 274.313 156.899 276.427C156.525 277.517 154.66 277.414 154.78 276.142C155.01 273.673 155.703 271.266 156.211 268.842C159.24 253.147 163.339 237.637 165.945 221.873C167.621 210.204 161.021 208.411 161.268 200.871C162.165 197.015 164.539 193.574 164.403 189.465C164.931 176.886 155.772 166.508 154.641 154.275L152.645 153.562C151.647 153.205 150.65 152.845 149.657 152.476C154.886 189.066 153.298 226.455 150.684 263.226C150.15 264.923 150.658 276.775 148.419 275.723C148.306 276.385 147.954 277.037 147.189 277.033C140.245 277.097 133.298 277.207 126.354 277.29C123.014 276.982 118.422 278.257 115.581 276.329C112.301 275.393 111.924 266.506 111.047 263.338L110.705 261.034C105.131 223.391 100.143 184.971 104.149 146.955C98.5748 147.169 97.4242 153.187 97.0108 157.57C95.977 167.242 89.7303 175.571 89.4307 185.354C89.4053 187.727 89.8532 190.027 90.8016 192.206C93.3178 197.545 97.6695 203.718 94.417 209.681C90.5705 214.323 90.9034 215.544 92.3149 221.281C96.2861 240.246 102.881 258.478 109.155 276.763C107.792 283.87 99.5927 257.486 98.8213 255.497C95.1919 257.322 93.2094 251.264 97.3722 250.832C94.6984 241.879 92.2378 232.859 90.1891 223.739L90.1349 223.482C89.2299 219.269 87.4499 214.335 90.4558 210.597C98.2063 202.757 85.3353 193.992 86.9588 184.494C85.5569 185.534 83.4347 184.44 83.4666 182.693C83.403 180.727 86.0434 179.719 87.314 181.22C88.6203 173.513 93.1653 166.785 94.5406 159.102L94.6027 158.741C95.0688 156.025 95.2002 153.168 96.5335 150.692C94.7185 151.872 92.7856 152.825 90.7976 153.666C94.3522 156.636 87.4688 159.347 88.0384 154.759C68.5452 160.401 64.1392 168.268 56.9821 186.337C58.319 185.037 60.6091 186.719 59.8088 188.376C59.1704 190.122 56.3852 189.611 56.3863 187.751L56.0601 188.529C51.7201 198.91 47.77 209.544 45.7849 220.654C49.679 220.104 48.6875 226.329 45.1593 224.574C43.7434 234.455 43.721 244.475 43.894 254.436C47.1786 252.713 47.2775 258.568 43.9257 256.898C44.0483 265.06 44.2278 273.223 44.3631 281.385C44.3905 283.122 41.7116 283.114 41.6694 281.385C41.3565 268.843 40.7863 256.279 41.0574 243.733C40.8024 221.959 47.0597 200.972 56.3829 181.466C64.6323 159.007 76.0272 156.453 96.9919 149.923C98.9272 147.049 103.062 144.331 106.435 146.136C108.322 143.088 109.281 139.477 110.677 136.23ZM74.758 214.505C74.8362 214.229 75.2312 214.298 75.2439 214.571C75.4193 218.094 75.2629 221.64 75.0221 225.179C74.8761 227.339 74.6967 229.496 74.5446 231.642C74.1411 237.302 73.8157 242.968 73.5686 248.639C73.6552 248.603 73.7439 248.571 73.8369 248.546C74.2636 248.429 74.6906 248.429 75.1172 248.546C75.4977 248.652 75.8304 248.838 76.117 249.106L76.1777 249.165C76.4122 249.382 76.5791 249.64 76.6763 249.938C76.8148 250.203 76.8848 250.487 76.8847 250.79L76.8831 250.866C76.8812 251.301 76.7735 251.705 76.5538 252.081C76.3404 252.443 76.0531 252.73 75.6918 252.946C75.3157 253.164 74.912 253.271 74.477 253.273C74.4305 253.278 74.3838 253.282 74.3376 253.284C74.0141 253.297 73.7122 253.229 73.4331 253.083L73.3911 253.071V253.071C73.2855 255.947 73.1988 258.826 73.1355 261.704C73.0784 264.213 73.0024 266.722 72.9517 269.23L72.9281 270.485V270.485L72.8821 273.259C72.8672 274.399 72.8745 275.491 72.4869 276.567L72.4404 276.691C72.1615 277.409 71.9441 278.409 71.1979 278.809C70.6024 279.128 69.7995 279.01 69.4573 278.388C69.17 277.868 69.4191 277.12 69.8439 276.769C69.8355 276.746 69.8228 276.725 69.8122 276.702C69.7467 276.511 69.6472 276.332 69.5883 276.139C69.4021 275.531 69.4531 274.882 69.451 274.25C69.451 273.134 69.4888 272.018 69.5186 270.904C69.5841 268.533 69.6601 266.164 69.7529 263.794C70.0669 255.847 70.6582 247.899 71.3354 239.973L71.5652 237.298C71.8714 233.741 72.1883 230.18 72.6369 226.641C72.6578 226.472 72.6791 226.303 72.7024 226.134C72.4615 226.013 72.2376 225.847 72.0599 225.661C71.3482 224.913 70.9164 223.795 70.5116 222.832L70.4186 222.613C69.9791 221.586 69.5735 220.546 69.3643 219.443L69.3443 219.341C69.2489 218.871 69.0606 218.039 69.5587 217.811C69.8186 217.693 69.9831 217.777 70.0679 218.037C70.0786 218.071 70.0698 218.109 70.051 218.139C70.2559 218.453 70.577 218.747 70.7798 219.039L71.474 220.032V220.032L71.8172 220.531C72.2524 221.171 72.7172 221.784 73.1967 222.389C73.5747 219.734 74.0376 217.09 74.758 214.505ZM103.224 273.66C104.093 272.98 105.506 273.349 105.506 274.605C105.506 275.867 104.091 276.23 103.224 275.55L103.181 275.518V275.518L103.14 275.484C102.668 275.115 102.652 274.156 103.104 273.756L103.14 273.726C103.167 273.702 103.195 273.681 103.224 273.66ZM65.3984 271.207L65.473 271.208C65.866 271.208 66.2315 271.308 66.5716 271.507C66.7195 271.619 66.8653 271.733 67.0131 271.847C67.2836 272.117 67.4695 272.439 67.573 272.809L67.6514 273.387V273.387C67.6617 273.688 67.6005 273.967 67.4631 274.227C67.3744 274.497 67.2244 274.732 67.0131 274.928C66.8146 275.142 66.5822 275.292 66.3119 275.378C66.0735 275.504 65.8194 275.568 65.5476 275.568L65.473 275.567C65.0781 275.567 64.7124 275.467 64.3723 275.269C64.2244 275.157 64.0786 275.042 63.9307 274.928C63.6624 274.658 63.4744 274.336 63.3711 273.967C63.3455 273.774 63.3204 273.58 63.2927 273.387C63.2824 273.087 63.3455 272.809 63.4807 272.548C63.5695 272.278 63.7195 272.044 63.9307 271.847C64.1296 271.633 64.3617 271.483 64.6322 271.397C64.8704 271.271 65.1263 271.207 65.3984 271.207V271.207ZM164.296 267.189L164.85 267.263V267.263C165.38 267.383 165.806 267.774 166.092 268.22C166.244 268.459 166.326 268.717 166.339 268.994C166.4 269.268 166.387 269.545 166.301 269.822C166.237 270.093 166.113 270.329 165.929 270.53C165.866 270.63 165.792 270.72 165.707 270.801C165.534 271.09 165.272 271.28 165.001 271.475C164.773 271.621 164.526 271.699 164.26 271.712C164.085 271.758 163.907 271.758 163.73 271.712C163.465 271.699 163.218 271.621 162.99 271.475C162.855 271.371 162.72 271.266 162.587 271.162C162.469 271.025 162.358 270.883 162.255 270.735C162.185 270.572 162.118 270.412 162.05 270.251C161.925 269.864 161.987 269.522 162.054 269.135C162.065 269.07 162.082 269.011 162.105 268.947L162.151 268.824C162.272 268.503 162.337 268.394 162.553 268.114L162.635 268.005C162.676 267.95 162.718 267.896 162.766 267.848C162.901 267.709 163.094 267.592 163.246 267.472C163.571 267.284 163.922 267.191 164.296 267.189ZM92.5671 265.835L92.6376 265.836C92.9439 265.838 93.2314 265.914 93.4974 266.069L93.8439 266.337V266.337C94.0552 266.55 94.2009 266.8 94.2833 267.09C94.3023 267.241 94.3237 267.394 94.3446 267.544C94.3531 267.778 94.3047 267.998 94.1967 268.203C94.1293 268.415 94.0108 268.596 93.8439 268.753C93.6899 268.918 93.5059 269.036 93.2946 269.106C93.1102 269.202 92.9119 269.252 92.7011 269.253L92.6376 269.252C92.3291 269.252 92.0418 269.173 91.7756 269.019L91.4291 268.753V268.753C91.2178 268.539 91.0721 268.288 90.9897 267.998C90.9707 267.846 90.9495 267.696 90.9284 267.544C90.92 267.309 90.9685 267.09 91.0763 266.887C91.146 266.675 91.2622 266.491 91.4291 266.337C91.5833 266.17 91.7671 266.052 91.9784 265.984C92.1628 265.887 92.3575 265.838 92.5671 265.835V265.835ZM78.6244 265.137C79.0658 265.132 79.5139 265.257 79.8751 265.513C80.2258 265.762 80.4918 266.031 80.6632 266.434C80.7096 266.544 80.7559 266.652 80.7963 266.762C80.9779 267.246 81.0118 267.732 80.7603 268.205C80.5174 268.664 79.9934 268.865 79.5242 269.002C79.1272 269.12 78.6772 269.139 78.2822 268.998C78.0857 268.928 77.8934 268.854 77.716 268.746C77.3843 268.541 77.2047 268.298 76.9829 267.998C76.8096 267.702 76.723 267.381 76.723 267.039C76.723 266.694 76.8096 266.375 76.9829 266.077C77.3228 265.496 77.9526 265.141 78.6244 265.137ZM56.2299 265.544C56.7879 265.544 57.2778 265.802 57.6139 266.237C57.9539 266.679 58.0785 267.229 57.9285 267.776C57.7701 268.355 57.2907 268.863 56.6968 269.008C56.2576 269.116 55.8982 269.112 55.4609 269.038C55.0912 268.975 54.8083 268.755 54.525 268.526C54.2018 268.262 54.1025 267.781 54.1553 267.392C54.206 267.003 54.3858 266.749 54.6583 266.519L54.6602 266.512L54.5588 266.591C54.597 266.557 54.6349 266.521 54.6731 266.485C54.6856 266.464 54.6961 266.441 54.7067 266.417C54.863 266.151 55.0743 265.942 55.3384 265.785C55.6151 265.625 55.9109 265.544 56.2299 265.544ZM186.284 259.143C186.59 259.06 186.899 259.06 187.205 259.143C187.431 259.196 187.628 259.299 187.795 259.453C187.964 259.564 188.102 259.705 188.207 259.88L188.24 259.939C188.481 260.35 188.519 260.819 188.416 261.275C188.287 261.839 187.767 262.353 187.205 262.486L187.186 262.49V262.49L187.167 262.495C186.939 262.567 186.709 262.577 186.481 262.524C186.25 262.514 186.037 262.446 185.841 262.319C185.591 262.159 185.382 261.952 185.222 261.702C185.095 261.503 185.027 261.29 185.016 261.059C184.976 260.907 184.976 260.755 185.016 260.603C185.027 260.373 185.095 260.159 185.222 259.961L185.492 259.612V259.612L185.519 259.589V259.589C185.735 259.373 185.99 259.225 186.284 259.143ZM165.014 247.958C167.783 247.958 167.779 252.257 165.014 252.257C162.244 252.257 162.248 247.958 165.014 247.958ZM63.6093 247.415C63.9011 247.349 64.1926 247.362 64.4821 247.453C64.6574 247.527 64.8307 247.601 65.0039 247.672L65.4476 248.015V248.015C65.53 248.085 65.5701 248.161 65.6462 248.26L65.7412 248.385C65.8787 248.569 65.8819 248.608 66.0328 249C66.1342 249.376 66.1342 249.752 66.0328 250.129C65.984 250.31 65.9102 250.482 65.8152 250.64C65.7283 250.792 65.6243 250.926 65.5072 251.049L65.4476 251.109C65.249 251.323 65.0145 251.473 64.7441 251.561C64.5729 251.661 64.3891 251.709 64.1926 251.709C63.9011 251.775 63.6093 251.762 63.3201 251.671C63.1448 251.597 62.9715 251.523 62.7981 251.452L62.3546 251.109L62.0124 250.665L61.9032 250.405V250.405L61.7926 250.143L61.7145 249.562C61.7039 249.26 61.7652 248.981 61.9023 248.719C61.9551 248.535 62.0483 248.372 62.1833 248.237C62.2807 248.072 62.4114 247.941 62.5764 247.844C62.7114 247.708 62.8743 247.616 63.0581 247.563C63.2293 247.463 63.4131 247.415 63.6093 247.415ZM200.599 244.344C200.83 244.336 201.045 244.384 201.244 244.49C201.314 244.513 201.381 244.542 201.447 244.576C201.702 244.726 201.905 244.929 202.055 245.183C202.178 245.378 202.245 245.587 202.256 245.813C202.302 246.017 202.298 246.222 202.242 246.426L202.224 246.487C202.178 246.654 202.108 246.808 202.015 246.95C202.006 246.967 201.996 246.984 201.983 246.998C201.842 247.223 201.654 247.406 201.421 247.544C201.164 247.692 200.887 247.768 200.587 247.77C199.989 247.77 199.473 247.447 199.159 246.95C199.114 246.88 199.089 246.791 199.057 246.719C199.03 246.652 198.985 246.565 198.962 246.487C198.882 246.187 198.882 245.887 198.962 245.587C199.015 245.367 199.114 245.175 199.264 245.012C199.385 244.828 199.543 244.682 199.74 244.576C199.983 244.434 200.245 244.358 200.523 244.346L200.599 244.344ZM83.6587 242.241C83.9512 242.161 84.2421 242.155 84.5327 242.223L84.6054 242.241C84.8375 242.296 85.0385 242.402 85.2115 242.558C85.4037 242.685 85.5582 242.852 85.6699 243.059C85.8307 243.336 85.911 243.636 85.9129 243.957C85.911 244.278 85.8307 244.579 85.6699 244.855C85.5115 245.124 85.2981 245.335 85.03 245.494L84.7976 245.606V245.606C84.6032 245.728 84.3962 245.794 84.172 245.804C84.0223 245.844 83.872 245.844 83.7244 245.804C83.572 245.804 83.4305 245.766 83.2997 245.69C83.1561 245.65 83.0333 245.578 82.9277 245.472C82.7439 245.354 82.6004 245.198 82.4948 245.001L82.3234 244.597V244.597L82.2645 244.149V244.149L82.3234 243.704V243.704L82.4166 243.484V243.484C82.5009 243.181 82.6532 242.919 82.8749 242.697C83.0967 242.477 83.3587 242.325 83.6587 242.241ZM188.431 238.676C188.739 238.578 189.045 238.565 189.352 238.633C189.558 238.633 189.753 238.686 189.933 238.792C190.129 238.847 190.298 238.944 190.442 239.088C190.693 239.25 190.89 239.466 191.035 239.734L191.268 240.286V240.286C191.407 240.643 191.356 241.169 191.272 241.529C191.202 241.824 191.067 242.083 190.866 242.302C190.765 242.473 190.63 242.609 190.458 242.71C190.263 242.888 190.037 243.015 189.781 243.09L189.711 243.109L189.685 243.116C189.681 243.118 189.677 243.118 189.673 243.118C189.671 243.12 189.666 243.12 189.664 243.12C189.563 243.145 189.459 243.16 189.352 243.164C189.045 243.232 188.739 243.22 188.431 243.122C188.249 243.046 188.065 242.968 187.881 242.89C187.725 242.772 187.57 242.651 187.414 242.53C187.294 242.374 187.173 242.218 187.053 242.063C186.884 241.799 186.793 241.512 186.781 241.205C186.725 241 186.725 240.797 186.781 240.592C186.781 240.383 186.833 240.191 186.937 240.011C187.03 239.724 187.188 239.477 187.414 239.267C187.57 239.147 187.725 239.026 187.881 238.908C188.065 238.83 188.249 238.752 188.431 238.676ZM53.6843 231.109C54.0031 231.022 54.3223 231.022 54.6413 231.109L55.07 231.289V231.289C55.2813 231.403 55.4484 231.557 55.5751 231.754C55.7357 231.927 55.8432 232.132 55.8982 232.367C56.023 232.688 56.0082 233.197 55.9089 233.525C55.797 233.897 55.6237 234.193 55.3554 234.472C54.9096 234.932 54.2249 235.066 53.6188 234.926C53.4517 234.888 53.2932 234.814 53.1496 234.723C52.6913 234.44 52.3829 233.945 52.385 233.398C52.385 233.339 52.3892 233.28 52.3977 233.221C52.3681 233.1 52.3573 232.975 52.3618 232.844L52.4251 232.367V232.367L52.4292 232.354C52.5139 232.052 52.666 231.79 52.8876 231.568C53.0926 231.365 53.3316 231.218 53.6047 231.13L53.6737 231.109H53.6843ZM213.105 183.651C212.528 178.917 210.358 173.824 203.739 176.604L203.248 176.788C201.61 177.408 199.702 178.223 198.705 179.656C198.018 180.643 198.25 182.556 198.156 183.708C197.724 187.453 197.956 191.192 198.405 194.922C198.985 203.663 197.148 212.72 193.491 220.664C197.151 226.589 202.05 232.116 208.733 234.586C209.016 227.849 210.335 221.236 211.738 214.662L211.793 214.375C212.354 211.411 212.635 208.369 214.581 205.903C218.54 201.604 223.985 204.037 226.59 197.13C226.043 196.853 226.345 195.907 227.004 196.089C229.289 196.494 229.66 192.257 228.096 191.236C226.467 190.242 228.107 188.408 227.414 187.085C227.027 186.514 226.193 186.495 225.814 185.838C224.812 183.418 229.83 181.867 223.929 179.139C222.721 178.71 221.371 178.976 220.153 178.971C218.361 179.139 216.936 180.402 215.298 180.799C217.082 185.421 212.58 189.872 208.516 186.18C206.305 188.271 203.832 193.037 209.207 190.815C211.838 189.059 214.103 186.788 217.157 185.707L217.222 185.687C218.355 185.315 223.316 182.904 223.07 184.991C221.212 186.785 218.147 186.764 215.995 188.22C213.011 189.6 211.103 192.945 207.531 192.899C206.708 197.901 212.382 194.857 214.495 193.478L215.081 193.16C218.061 191.549 221.086 190.057 224.562 190.037C225.521 190.031 225.517 191.511 224.562 191.523C220.032 191.552 216.346 194.384 212.551 196.49C212.178 199.41 216.452 198.131 218.074 197.701C219.774 197.462 222.505 195.622 223.994 196.594C224.576 198.09 222.014 197.978 221.122 198.432C225.194 200.389 221.627 201.62 220.535 198.614L220.215 198.723C217.489 199.64 210.878 201.526 211.664 196.906C210.666 197.348 209.45 197.612 208.347 197.367C205.597 201.436 201.211 199.861 207.586 197.088C206.15 196.42 205.67 193.839 207.05 192.878C202.032 192.572 205.757 187.304 207.834 185.549C207.638 185.351 207.448 185.149 207.271 184.944C206.074 185.515 204.815 185.861 203.469 185.984C202.18 186.1 201.893 183.906 203.165 183.727C204.527 183.534 205.782 183.171 206.982 182.486C208.801 181.7 209.421 185.076 211.242 185.195C212.234 185.392 212.906 184.521 213.105 183.651ZM170.856 227.208C171.295 227.208 171.686 227.392 172.005 227.683C172.324 227.975 172.461 228.412 172.48 228.831C172.488 229.055 172.442 229.264 172.341 229.458C172.275 229.659 172.163 229.832 172.005 229.981C171.709 230.274 171.272 230.456 170.856 230.456C170.416 230.456 170.025 230.272 169.706 229.981C169.387 229.687 169.25 229.251 169.231 228.831C169.222 228.609 169.269 228.4 169.37 228.205C169.429 228.024 169.526 227.864 169.66 227.728L169.706 227.683C170.002 227.387 170.439 227.208 170.856 227.208ZM184.171 217.184L184.241 217.185C184.613 217.188 184.958 217.28 185.279 217.466C185.418 217.574 185.557 217.68 185.695 217.788C185.95 218.045 186.126 218.348 186.223 218.697C186.322 219.06 186.322 219.426 186.223 219.789C186.189 219.999 186.111 220.201 185.989 220.377C185.807 220.679 185.566 220.922 185.262 221.102C184.947 221.286 184.607 221.376 184.241 221.378C183.876 221.376 183.536 221.286 183.221 221.102C182.917 220.922 182.676 220.679 182.496 220.377C182.372 220.201 182.293 219.999 182.26 219.789C182.16 219.426 182.16 219.06 182.26 218.697C182.35 218.373 182.507 218.089 182.734 217.844L182.788 217.788C182.974 217.587 183.193 217.445 183.449 217.363C183.674 217.245 183.914 217.185 184.171 217.184ZM82.5514 217.297C82.708 217.255 82.8622 217.255 83.0185 217.297C83.2509 217.308 83.4683 217.378 83.6693 217.505C83.7876 217.597 83.9059 217.688 84.0242 217.779L84.1273 217.903C84.3478 218.172 84.3534 218.218 84.5226 218.627C84.5925 218.855 84.6031 219.083 84.5524 219.312C84.5524 219.466 84.5122 219.61 84.436 219.743C84.3939 219.889 84.3221 220.015 84.2143 220.121C84.1381 220.25 84.0369 220.353 83.9078 220.43C83.7432 220.58 83.5488 220.683 83.3249 220.736L82.8705 220.797V220.797C82.8115 220.789 82.7502 220.78 82.6911 220.774C82.6198 220.772 82.5505 220.764 82.4827 220.751L82.4141 220.736V220.736L82.3516 220.719C82.2689 220.695 82.1883 220.663 82.1101 220.622C81.9622 220.58 81.8333 220.506 81.7233 220.396C81.5333 220.273 81.3812 220.108 81.2714 219.903L81.2418 219.836V219.836C81.2016 219.764 81.1678 219.69 81.1423 219.61C81.0707 219.483 81.0347 219.348 81.0326 219.202C80.9906 219.008 80.9934 218.815 81.0437 218.623L81.0622 218.559L81.2249 218.172C81.3094 218.041 81.3981 217.908 81.512 217.8C81.5806 217.739 81.7484 217.608 81.8428 217.543L81.9007 217.505V217.505C82.1016 217.378 82.3193 217.308 82.5514 217.297ZM57.0813 214.275C57.3855 213.077 58.9574 212.698 59.813 213.554C60.6684 214.411 60.2905 215.983 59.0928 216.287L58.9553 216.321V216.321C57.7975 216.615 56.7539 215.569 57.0475 214.411L57.0813 214.275V214.275ZM202.089 204.5C202.081 204.382 202.233 204.34 202.309 204.409C203.327 205.322 203.976 206.417 205.212 207.125C206.454 207.835 207.734 207.778 209.029 208.237C209.469 208.393 209.471 208.981 209.029 209.135C206.579 209.991 202.275 207.089 202.089 204.5ZM86.9377 204.314C87.2104 204.23 87.4851 204.217 87.7576 204.278C87.9435 204.278 88.1166 204.325 88.275 204.418C88.4504 204.466 88.6006 204.555 88.7292 204.682C88.8837 204.773 89.0062 204.897 89.099 205.052C89.2809 205.25 89.4034 205.483 89.4666 205.749L89.5384 206.297V206.297L89.4666 206.844V206.844C89.3968 207.007 89.3271 207.172 89.2595 207.334L89.0708 207.59C88.9178 207.794 88.8933 207.796 88.5222 208.072C88.2858 208.222 88.0302 208.304 87.7576 208.315C87.5757 208.366 87.394 208.366 87.2104 208.315C87.0266 208.315 86.8532 208.269 86.6928 208.176C86.5194 208.127 86.3675 208.038 86.2384 207.911C86.0147 207.765 85.8393 207.573 85.7102 207.334C85.6405 207.172 85.571 207.007 85.5034 206.844L85.4292 206.297V206.297L85.5034 205.749V205.749L85.5074 205.732V205.732C85.6046 205.39 85.7781 205.092 86.0271 204.84L86.4372 204.523V204.523C86.5976 204.42 86.7645 204.367 86.9377 204.314ZM185.56 204.724C186.145 204.563 186.787 204.732 187.216 205.162C187.645 205.591 187.814 206.231 187.653 206.817C187.495 207.387 187.037 207.85 186.464 208.004C186.293 208.051 186.12 208.076 185.944 208.068C185.65 208.066 185.376 207.991 185.12 207.844L184.791 207.588V207.588C184.63 207.44 184.518 207.265 184.453 207.062C184.349 206.867 184.303 206.658 184.311 206.432L184.309 206.392C184.303 206.311 184.313 206.231 184.339 206.153C184.339 206.07 184.351 205.99 184.372 205.912C184.527 205.341 184.991 204.88 185.56 204.724ZM59.399 199.001C59.587 198.994 59.7624 199.032 59.925 199.119C60.0962 199.174 60.2419 199.267 60.3645 199.402C60.4997 199.525 60.5926 199.673 60.6476 199.842C60.7342 200.005 60.7722 200.18 60.7659 200.368C60.7659 200.615 60.7025 200.846 60.58 201.057C60.5081 201.15 60.4363 201.243 60.3645 201.334C60.1955 201.505 59.9948 201.621 59.7624 201.687L59.6272 201.733V201.733C59.4286 201.805 59.2342 201.81 59.0272 201.782C58.8095 201.753 58.6086 201.693 58.4314 201.558C58.2579 201.457 58.1208 201.319 58.0194 201.146L57.9032 200.871V200.871C57.8779 200.778 57.8673 200.639 57.861 200.541C57.861 200.527 57.861 200.514 57.8588 200.499C57.8588 200.417 57.8842 200.216 57.9051 200.134C57.9518 199.96 58.0467 199.795 58.1546 199.656C58.2476 199.51 58.3743 199.396 58.5307 199.311L58.5446 199.301V199.301L58.5603 199.29C58.6086 199.256 58.6595 199.223 58.7103 199.187C58.9215 199.064 59.1518 199.001 59.399 199.001ZM168.495 197.5C168.833 197.5 169.148 197.587 169.44 197.756C169.45 197.76 169.461 197.764 169.469 197.769C169.748 197.933 169.97 198.156 170.135 198.434C170.304 198.724 170.388 199.037 170.388 199.371C170.388 199.707 170.304 200.017 170.135 200.307C169.97 200.586 169.748 200.808 169.469 200.973C169.461 200.979 169.45 200.983 169.44 200.987C169.148 201.157 168.833 201.241 168.495 201.243C168.16 201.241 167.845 201.157 167.553 200.987C166.983 200.654 166.625 200.03 166.625 199.371C166.625 198.711 166.983 198.088 167.553 197.756C167.845 197.587 168.16 197.5 168.495 197.5ZM80.7599 195.056L80.8174 195.055C81.0413 195.046 81.2503 195.093 81.4425 195.197C81.6433 195.262 81.8186 195.374 81.9667 195.533L82.2752 195.79V195.79L82.3647 195.863C82.3794 195.875 82.394 195.888 82.408 195.9C82.6153 196.109 82.7568 196.355 82.8371 196.638C82.8625 196.801 82.8834 196.961 82.9005 197.124C82.9468 197.547 82.6977 197.98 82.423 198.28C82.2752 198.439 82.0996 198.551 81.897 198.618C81.7026 198.72 81.4913 198.766 81.2672 198.758C80.8087 198.718 80.3737 198.62 80.0442 198.265C80.0059 198.223 79.97 198.179 79.9322 198.134L79.6681 197.83V197.83C79.4674 197.627 79.3278 197.388 79.2519 197.113C79.2306 196.968 79.2118 196.824 79.1928 196.68C79.1735 196.247 79.3848 195.841 79.6681 195.533C79.9297 195.247 80.3733 195.072 80.7599 195.056ZM70.0957 190.606C72.2926 190.606 72.2884 194.015 70.0957 194.015C67.9004 194.015 67.9046 190.606 70.0957 190.606ZM180.564 185.826L180.633 185.827C180.997 185.829 181.336 185.92 181.651 186.104L182.061 186.419V186.419C182.311 186.673 182.484 186.969 182.581 187.311C182.604 187.49 182.627 187.67 182.653 187.848C182.663 188.127 182.604 188.387 182.477 188.628C182.397 188.877 182.258 189.095 182.061 189.279C181.877 189.475 181.662 189.615 181.411 189.695C181.17 189.822 180.91 189.881 180.633 189.87C180.268 189.868 179.927 189.777 179.613 189.594C179.475 189.488 179.34 189.382 179.203 189.279C178.973 189.045 178.807 188.774 178.709 188.465L178.685 188.387L178.611 187.848C178.601 187.571 178.66 187.311 178.786 187.07C178.867 186.819 179.006 186.603 179.203 186.419C179.387 186.222 179.604 186.083 179.854 186.003C180.074 185.887 180.311 185.827 180.564 185.826ZM170.668 179.445C170.864 179.438 171.046 179.478 171.217 179.567C171.392 179.624 171.544 179.723 171.673 179.861C171.946 180.079 172.113 180.514 172.113 180.867C172.113 181.22 171.946 181.655 171.673 181.873C171.496 182.048 171.287 182.171 171.046 182.238L170.668 182.289V182.289C170.3 182.306 169.926 182.114 169.664 181.873C169.611 181.824 169.56 181.776 169.508 181.729C169.269 181.509 169.166 181.182 169.151 180.867C169.144 180.7 169.18 180.544 169.256 180.398C169.305 180.246 169.389 180.117 169.508 180.005C169.56 179.958 169.611 179.91 169.664 179.861C169.949 179.597 170.283 179.464 170.668 179.445ZM233.367 168.076C234.755 166.384 233.947 165.18 231.861 165.599C228.267 166.085 224.885 168.357 221.72 169.986C218.266 171.812 214.705 173.317 211.182 175.032C212.636 175.925 213.717 177.323 214.543 178.918C216.192 177.666 218.3 177.067 220.357 176.989C224.09 173.412 230.272 172.593 233.367 168.076ZM69.3564 173.692C69.7328 173.694 70.0855 173.782 70.4159 173.959L70.4864 173.998L70.9385 174.349C71.1583 174.552 71.3125 174.793 71.4033 175.07C71.5428 175.336 71.6061 175.625 71.5956 175.934C71.6061 176.243 71.5428 176.53 71.4033 176.796C71.3125 177.075 71.1583 177.314 70.9385 177.517C70.8139 177.68 70.6533 177.807 70.4611 177.9C70.2813 177.974 70.104 178.05 69.9245 178.126C69.7238 178.189 69.4914 178.198 69.2738 178.208C68.8787 178.206 68.5113 178.107 68.1686 177.908L67.7252 177.566V177.566C67.5118 177.367 67.3595 177.132 67.2707 176.86C67.145 176.62 67.0813 176.363 67.0813 176.089L67.0829 176.014C67.0829 175.998 67.0829 175.978 67.0852 175.959C67.1104 175.761 67.1381 175.562 67.1651 175.364C67.235 175.072 67.3681 174.816 67.5667 174.6C67.6174 174.499 67.685 174.417 67.7719 174.349C68.0505 174.07 68.3799 173.88 68.7604 173.772C68.959 173.747 69.1576 173.719 69.3564 173.692ZM167.383 168.092L167.447 168.093C167.732 168.093 167.996 168.165 168.242 168.306C168.349 168.389 168.455 168.471 168.561 168.554C168.757 168.75 168.892 168.983 168.966 169.249L169.023 169.667V169.667C169.03 169.885 168.985 170.086 168.886 170.274C168.823 170.468 168.715 170.638 168.561 170.781C168.419 170.935 168.25 171.043 168.054 171.107C167.868 171.206 167.665 171.25 167.447 171.242C167.164 171.242 166.898 171.17 166.653 171.026C166.547 170.946 166.439 170.864 166.334 170.781C166.156 170.601 166.027 170.391 165.95 170.152L165.93 170.086L165.873 169.667C165.865 169.45 165.909 169.249 166.008 169.061C166.072 168.865 166.182 168.695 166.334 168.554C166.477 168.399 166.647 168.292 166.841 168.228C167.01 168.139 167.191 168.094 167.383 168.092V168.092ZM81.7049 165.803L81.7786 165.804C82.199 165.806 82.5898 165.912 82.9532 166.123C83.1095 166.244 83.2661 166.364 83.4222 166.487C83.7117 166.776 83.9102 167.119 84.0224 167.514L84.1046 168.131V168.131C84.1173 168.452 84.0497 168.75 83.9039 169.027C83.8112 169.317 83.6504 169.566 83.4222 169.777C83.2133 170.004 82.9638 170.164 82.6743 170.257C82.3976 170.403 82.0997 170.471 81.7786 170.458C81.3581 170.458 80.9673 170.352 80.6039 170.141C80.4478 170.02 80.2915 169.898 80.133 169.777C79.8455 169.486 79.6469 169.143 79.5349 168.75L79.4525 168.131V168.131C79.4398 167.812 79.5074 167.512 79.6532 167.235C79.7462 166.948 79.9067 166.696 80.133 166.487C80.3443 166.259 80.5934 166.098 80.8828 166.005C81.1383 165.87 81.4117 165.804 81.7049 165.803ZM159.933 159.992C160.125 159.941 160.317 159.941 160.509 159.992C160.797 160.004 161.065 160.091 161.314 160.25L161.752 160.588V160.588C161.758 160.594 161.764 160.601 161.771 160.609C162.035 160.875 162.218 161.19 162.32 161.552L162.396 162.12V162.12C162.407 162.414 162.345 162.689 162.212 162.942C162.133 163.186 162.002 163.398 161.821 163.582L161.752 163.65C161.555 163.862 161.325 164.012 161.056 164.098C160.888 164.198 160.704 164.246 160.509 164.246C160.222 164.312 159.933 164.299 159.645 164.208C159.474 164.134 159.301 164.062 159.128 163.991L159.073 163.959C158.42 163.602 158.016 162.854 158.016 162.12C158.016 161.387 158.42 160.636 159.073 160.279C159.092 160.271 159.109 160.26 159.128 160.25C159.377 160.091 159.645 160.004 159.933 159.992Z" fill="black"/>
<path fill-rule="evenodd" clip-rule="evenodd" d="M157.905 48.8271C146.609 45.5104 107.76 48.9101 106.799 49.6285C105.227 50.9353 97.5805 55.0817 96.3907 56.0283C85.6319 67.4357 95.8884 84.376 95.0991 98.1374C95.1494 103.019 93.0701 107.476 92.1143 112.172C91.7108 114.633 91.7997 117.178 93.0819 119.388C95.3361 123.336 100.097 124.136 103.968 125.728C105.895 126.558 107.695 127.734 109.345 129.022C120.454 138.853 126.638 145.585 142.848 143.367C142.931 144.142 143.616 144.902 144.466 144.556C146.456 143.746 148.432 142.886 150.44 142.117C150.869 143.151 152.101 143.447 152.936 142.533L152.941 142.54C156.657 139.524 159.02 135.401 160.776 130.987C162.004 128.44 163.01 125.783 163.778 123.047C163.865 122.738 163.854 122.461 163.775 122.223C167.322 109.998 168.634 97.1128 167.7 84.4197C167.511 81.8009 167.017 79.1474 167.138 76.5176C167.248 74.1416 168.271 71.8941 169.051 69.6812C173.074 60.2742 166.925 51.7889 157.905 48.8271Z" fill="white"/>
<path fill-rule="evenodd" clip-rule="evenodd" d="M159.326 33.5531L159.446 33.4597C160.749 32.4375 161.977 31.0979 163.813 31.6002C165.32 32.0124 166.08 33.2593 166.403 34.7663C166.862 34.2865 167.308 33.7898 167.743 33.2762C168.926 31.8813 171.569 32.6041 171.922 34.3816C172.636 37.9619 172.672 41.6055 171.977 45.1922C171.871 45.7353 171.746 46.2764 171.601 46.8111C172.393 45.8241 173.13 44.7948 173.791 43.7106C174.508 42.5334 176.126 43.1167 176.238 44.3742C176.267 44.6997 176.284 45.0294 176.289 45.3612C176.794 45.5388 177.142 46.0587 177.009 46.697C176.274 50.2096 175.342 53.6736 174.222 57.0785C176.022 56.1232 178.04 55.5568 179.939 56.231C182.956 57.3046 183.675 60.5975 183.085 63.4317C182.344 66.9951 180.011 69.9772 177.003 71.9322C176.646 72.469 176.293 73.0101 175.957 73.5617C175.951 75.1194 175.667 76.6728 175.097 78.1163C174.455 79.7374 173.322 81.1386 171.928 82.2038C171.438 83.2714 170.14 84.0512 169.001 83.8351L168.941 83.8228L168.939 83.8249C169.23 84.8689 169.482 85.9236 169.699 86.9803C171.384 95.1676 170.531 103.69 168.994 111.831L168.945 112.091C167.565 119.336 165.96 126.839 162.839 133.566C160.017 139.649 155.232 144.998 148.393 146.325C140.348 147.887 131.443 145.412 124.524 141.285C122.016 139.788 124.315 135.845 126.812 137.366C130.416 139.56 134.331 141.092 138.472 141.9C142.342 142.652 146.671 142.908 150.383 141.348C155.553 139.175 158.625 133.868 160.568 128.872C161.713 125.924 162.571 122.88 163.37 119.824C164.398 115.895 165.358 111.941 166.078 107.942C167.42 100.484 167.855 92.7375 166.435 85.2578C165.983 82.8717 165.343 80.4707 164.508 78.1628C164.377 78.0001 164.253 77.8183 164.141 77.6196C163.268 76.0895 162.666 74.35 162.017 72.6952C161.449 71.7082 160.828 70.7592 160.169 69.8314C159.183 69.0737 158.245 68.2636 157.385 67.3797C159.882 65.762 162.086 63.7369 163.671 61.1571C163.933 60.7317 163.767 60.3251 163.457 60.0957C162.191 61.6802 160.552 63.0221 158.828 64.2109C157.945 64.9676 156.994 65.6473 155.997 66.2615C155.285 66.4024 154.565 66.4992 153.867 66.5787C151.879 66.8048 149.88 66.7203 147.903 66.4561C143.627 65.8855 125.543 60.9031 117.92 62.8399C116.332 63.2434 115.583 64.6681 114.742 66.0059C114.013 67.1696 113.085 68.1329 111.972 68.926L111.848 69.0135C109.672 70.5204 105.297 75.2876 103.457 79.5425C101.083 85.0359 98.802 101.498 99.852 101.64C102.598 102.012 104.12 103.457 106.357 105.009C106.505 105.11 106.418 105.385 106.228 105.315C104.751 104.782 103.154 104.467 101.605 104.21C100.205 103.975 98.7301 103.933 97.378 104.434C95.3034 105.203 94.2914 106.942 93.8752 108.904C93.7125 109.671 93.6407 110.472 93.6322 111.264L93.6311 111.494C93.6322 113.993 94.0979 116.763 95.9118 118.607C96.683 119.391 97.7287 119.919 98.8231 120.065C100.021 120.226 100.76 119.685 101.861 119.404C103.129 119.08 104.117 119.915 103.999 121.004C104.267 121.238 104.527 121.485 104.785 121.737L104.785 121.738L104.787 121.739C104.956 121.815 105.117 121.917 105.263 122.039C105.501 122.242 105.702 122.464 105.863 122.703C106.22 122.773 106.562 122.971 106.843 123.335C107.422 124.081 107.956 124.835 108.453 125.605C109.342 126.549 110.227 127.496 111.1 128.458C112.15 129.614 113.173 130.796 114.202 131.971L114.717 132.558C115.272 133.19 115.826 133.822 116.379 134.456L116.545 134.642C117.101 135.266 117.528 135.726 117.588 136.624C117.63 137.29 116.914 137.742 116.32 137.59C115.405 137.354 114.98 136.635 114.432 135.922L113.603 134.859V134.859L112.824 133.858C112.437 133.359 112.046 132.862 111.658 132.366C111.541 133.281 110.574 134.018 109.691 134.059L109.485 134.067C107.411 134.136 104.891 133.843 103.313 132.38C102.603 133.097 101.72 133.661 100.632 133.999C98.1597 134.769 95.633 133.406 94.6337 131.332C92.6963 132.163 90.5076 132.33 88.4139 131.719C87.2063 131.365 86.7887 129.859 87.6302 128.938L87.6682 128.897L87.6779 128.886C87.5042 128.661 87.4087 128.384 87.3933 128.083C87.3745 127.717 87.6409 127.33 87.586 126.988C87.3764 125.687 85.2544 126.651 84.5801 126.933C84.4512 126.987 84.3303 127.012 84.2175 127.016C83.1749 127.32 82.041 125.95 82.5872 124.818C83.8104 122.291 85.0041 119.744 86.2421 117.22C86.0858 117.273 85.9252 117.322 85.7668 117.362C83.5421 117.933 80.8442 116.838 81.3576 114.156C81.4759 113.526 82.0463 113.095 82.6125 112.9C83.7153 112.52 84.5435 112.795 85.3928 112.44C86.3499 112.042 87.3491 111.313 88.19 110.626C89.0879 109.895 89.8632 109.073 90.5499 108.181C90.8245 106.885 91.2999 105.647 92.0604 104.582C92.1069 104.518 92.1534 104.455 92.202 104.393C87.3245 103.23 87.9631 98.4314 85.8117 94.1787L85.6299 93.8262C84.1687 90.9815 82.8939 87.7743 83.6308 84.535C83.7618 83.9623 83.952 83.4149 84.197 82.9034C83.8062 82.952 83.4132 82.9964 83.0224 83.0408C82.1245 83.1422 81.2118 81.984 81.5689 81.1323C81.7569 80.6863 81.9639 80.2552 82.1879 79.8367C82.809 78.6827 83.5717 77.6344 84.4696 76.6876C82.9611 76.6474 81.4506 76.6474 79.959 76.4741C78.5499 76.3114 77.0689 75.5399 77.1123 73.9147C77.1559 72.365 78.515 71.192 79.7752 70.436C81.0156 68.7856 82.5889 67.414 84.3684 66.3946C84.0163 66.3154 83.6597 66.2568 83.2971 66.2207L83.1153 66.2046C82.0991 66.1243 81.1865 65.8453 80.2653 65.4205C79.4414 65.0401 79.4541 63.8861 79.9928 63.3049C81.7345 61.4213 84.3441 62.0347 86.3746 63.114C86.2332 62.9346 86.0783 62.7617 85.9096 62.5963L85.8067 62.4979C84.8091 61.5686 86.3063 60.0773 87.3006 61.0035C87.6147 61.2962 87.8961 61.6143 88.1471 61.9514L88.171 61.9015V61.9015C89.4846 59.236 91.4059 56.8502 93.6789 54.9384L94.2132 54.4941C98.3121 51.0688 99.5769 49.4453 105.028 49.9497C104.796 48.9591 104.818 47.8447 104.871 46.9284L104.878 46.8048C105.087 43.3598 106.357 39.2363 109.716 37.6892C110.589 37.2898 111.577 37.9428 111.345 38.9425C111.182 39.6506 110.984 40.3396 110.736 41.0095C111.47 40.2381 112.255 39.5174 113.088 38.8538C116.481 36.1485 121.015 33.8215 125.475 34.5824C127.925 35.003 129.848 36.5416 131.899 37.8266C133.961 39.1201 136.264 39.8873 138.679 40.1641C142.053 40.553 145.439 40.162 148.775 39.5449C151.067 38.5452 153.292 37.3743 155.464 36.1126C156.799 35.3369 158.098 34.4894 159.326 33.5531ZM99.4239 108.377C100.138 108.194 100.939 108.196 101.655 108.375C103.503 108.84 105.223 110.387 105.331 112.338C105.379 113.219 104.67 114.063 103.846 114.289C102.912 114.547 102.109 114.09 101.564 113.359C100.979 112.577 100.833 111.729 100.117 111.019L99.9517 110.858C99.3429 110.276 98.4223 109.523 97.5774 109.658C97.4527 109.677 97.3598 109.508 97.4865 109.44C98.1753 109.064 98.6274 108.58 99.4239 108.377ZM109.026 99.1901C109.352 98.9238 109.783 99.2362 109.629 99.6191L109.617 99.6466C109.231 100.462 109.685 101.42 110.154 102.103C110.557 102.692 109.795 103.252 109.258 102.999C107.75 102.282 107.828 100.162 109.026 99.1901ZM114.54 74.6797C114.512 74.481 114.777 74.3986 114.844 74.5951C115.97 77.8647 116.293 80.7602 116.11 84.2179L116.092 84.5247C115.893 87.8552 115.31 91.3802 113.296 94.1154C112.829 94.7474 111.874 94.3754 112.028 93.5807C112.647 90.3999 113.836 87.3797 114.299 84.1608C114.783 80.7961 115 78.0465 114.54 74.6797ZM104.022 86.564C104.187 85.6912 105.529 84.7929 106.207 85.67C106.435 85.968 106.167 86.3337 105.892 86.4436C105.634 86.545 105.404 86.4055 105.15 86.4562C104.945 86.4977 104.795 86.6256 104.696 86.8006L104.675 86.8388C104.476 87.2192 103.952 86.936 104.022 86.564ZM103.473 79.6106C103.955 78.7187 105.064 78.1502 106.012 78.706C106.325 78.8899 106.202 79.4246 105.822 79.4077L105.597 79.3986C104.921 79.3739 104.244 79.3876 103.676 79.8156C103.549 79.9107 103.41 79.7311 103.473 79.6106ZM105.166 55.2529C102.464 54.0376 99.7773 55.1347 97.571 56.8458C97.3885 56.9874 97.2999 57.1527 97.2805 57.3188C98.7535 56.745 100.322 56.3688 101.821 56.0583C103.047 55.8043 104.284 55.6329 105.523 55.5653C105.454 55.4408 105.34 55.3309 105.166 55.2529Z" fill="black"/>
<path fill-rule="evenodd" clip-rule="evenodd" d="M143.152 128.274C141.731 127.695 140.464 126.728 139.538 125.493C139.216 125.063 139.132 124.61 139.2 124.195C139.276 123.729 139.551 123.306 139.927 123.023C140.305 122.739 140.777 122.598 141.233 122.67C141.629 122.732 142.024 122.949 142.336 123.399L142.401 123.49C142.952 124.235 143.67 124.847 144.488 125.241C145.276 125.621 146.157 125.798 147.07 125.695C148.807 125.499 150.005 124.559 151.277 123.282C151.435 123.121 151.593 122.955 151.752 122.786C151.852 122.633 151.991 122.534 152.145 122.483C152.317 122.425 152.51 122.429 152.688 122.491C152.859 122.55 153.012 122.664 153.115 122.815C153.213 122.958 153.268 123.135 153.25 123.339C153.134 124.662 152.442 125.842 151.46 126.769C150.37 127.799 148.924 128.511 147.563 128.761C146.063 129.036 144.535 128.839 143.152 128.274V128.274ZM148.27 107.866C149.866 108.836 152.297 111.099 150.58 113.504C148.56 115.624 145.652 113.193 144.218 112.093C142.889 111.241 141.396 113.433 142.629 114.428C152.986 122.099 157.189 108.12 149.077 106.726C148.184 106.572 147.852 107.566 148.27 107.866ZM129.71 98.943C129.886 96.7542 133.219 96.2571 133.55 98.4231C133.847 100.363 133.497 102.146 132.624 103.892C131.789 105.561 129.691 104.783 129.532 103.263C129.32 101.226 129.6 100.305 129.71 98.943ZM155.076 97.974C155.541 97.3653 156.211 96.9498 157.015 97.1846C159.526 97.9186 158.786 101.485 157.904 103.221C157.425 104.163 155.876 104.402 155.176 103.572C154.035 102.219 153.489 99.5158 154.939 98.1826C154.979 98.1137 155.022 98.0442 155.076 97.974ZM132.589 89.3655L132.985 89.296C134.212 89.0837 135.738 88.8798 136.606 89.8666C137.066 90.3899 137.225 91.3625 136.606 91.8634C135.517 92.7448 134.314 92.4032 133.01 92.4778C131.935 92.5395 130.902 92.7175 129.866 93.0136C127.595 93.6631 125.744 94.8487 123.804 96.1507C123.549 96.3214 123.289 95.9957 123.411 95.7576C124.531 93.5631 126.701 91.7605 128.875 90.6617C130.035 90.0752 131.305 89.5887 132.589 89.3655ZM152.787 88.3825L153.091 88.4446C156.394 89.1354 160.686 90.5154 162.251 93.7616C162.311 94.2207 162.248 94.319 162.196 94.3833L162.179 94.4047C162.137 94.4596 162.103 94.5353 161.904 94.5977C161.849 94.5846 161.794 94.5706 161.737 94.5559C161.02 94.3679 160.453 94.1089 159.903 93.8401L159.308 93.5466C158.617 93.2077 157.92 92.8811 157.181 92.64C155.605 92.1256 153.983 91.7632 152.336 91.5697C151.979 91.5278 151.636 91.4073 151.365 91.2008C151.107 91.0047 150.911 90.7333 150.821 90.3726C150.705 89.9057 150.738 89.5522 150.989 89.131C151.177 88.8147 151.446 88.5954 151.756 88.4695C152.071 88.3412 152.43 88.3109 152.787 88.3825Z" fill="black"/>
</g>
<defs>
<clipPath id="clip0_81_20972">
<rect width="240" height="275" fill="white"/>
</clipPath>
</defs>
</svg>
