<svg width="240" height="275" viewBox="0 0 240 275" fill="none" xmlns="http://www.w3.org/2000/svg">
<g clip-path="url(#clip0_81_21092)">
<rect width="240" height="275" fill="#E7ECED"/>
<path fill-rule="evenodd" clip-rule="evenodd" d="M198.116 286.313C202.199 286.116 200.557 278.971 200.264 276.348C197.031 266.764 197.791 256.308 196.52 246.263C195.728 236.886 194.71 227.538 193.854 218.168C192.173 199.148 180.099 160.427 166.321 154.2C164.586 146.582 157.417 139.47 148.348 139.47C142.162 132.145 134.716 126.99 125.166 128.031C121.22 128.21 117.392 132.398 113.611 133.206C111.494 133.498 92.7034 132.747 88.9395 134.983C86.3176 136.33 83.9508 138.818 84.7217 141.987C85.9517 145.825 82.1292 141.672 74.1554 145.769C57.8955 155.538 67.6117 168.607 68.0423 169.012C57.8955 183.135 49.0268 194.593 44.9233 211.855C42.2639 224.672 42.5633 237.902 40.335 250.784C39.5483 255.25 38.3413 259.564 37.0352 263.902C35.6197 269.578 34.9315 283.727 34.1512 283.853C32.73 284.207 34.9726 287.126 36.4785 287.128C78.2301 294.056 120.64 287.415 162.615 286.33C174.445 285.919 186.287 285.824 198.116 286.313Z" fill="white"/>
<path fill-rule="evenodd" clip-rule="evenodd" d="M134.836 170.259C134.855 170.067 135.113 170.068 135.133 170.259L135.427 173.105C135.786 176.582 136.131 180.052 136.382 183.545C136.694 187.901 136.902 192.255 137.003 196.621C137.354 211.825 137.423 227.037 137.453 242.244C139.509 242.102 141.565 241.965 143.622 241.832C145.018 241.742 146.413 241.655 147.809 241.57L151.369 241.354V241.354L152.834 241.264C153.824 241.203 154.949 240.954 155.641 241.831C155.919 242.182 156.058 242.639 155.799 243.056C155.203 244.018 154.288 243.984 153.252 244.026C152.275 244.065 151.299 244.104 150.322 244.142C148.228 244.223 146.135 244.3 144.041 244.358C141.843 244.42 139.647 244.47 137.45 244.508C137.428 250.928 137.162 257.34 136.875 263.753L136.745 266.639C136.394 274.443 136.016 282.254 135.479 290.048C135.435 290.686 134.533 290.685 134.489 290.048C133.884 281.271 133.485 272.475 133.09 263.686C132.803 257.314 132.636 250.94 132.557 244.565C132.266 244.566 131.976 244.57 131.686 244.572C123.44 244.607 115.197 244.643 106.952 244.566C106.966 244.582 106.979 244.599 106.989 244.62C107.585 246.029 107.642 247.827 107.627 249.34C107.611 251.074 107.377 252.787 106.978 254.474C105.547 260.516 101.857 265.928 97.6549 270.402L97.5176 270.547C96.5264 271.595 95.3891 272.648 94.7804 273.983C94.1587 275.345 93.9429 276.939 93.6361 278.404L93.6003 278.572L92.4007 284.115C92.0196 285.876 91.9114 288.443 90.5183 289.713C89.2186 290.899 87.4968 290.28 86.8852 288.754C86.4075 287.563 86.8833 286.255 87.1661 285.064L89.3826 275.744C89.7468 274.224 90.1447 272.694 90.9307 271.328C91.7359 269.93 92.9162 268.916 94.1207 267.879C96.4013 265.915 98.495 263.666 100.266 261.231C102.036 258.797 103.548 256.114 104.609 253.293C105.14 251.881 105.575 250.414 105.876 248.935C106.161 247.531 106.158 246.077 106.464 244.689C106.485 244.593 106.566 244.527 106.658 244.498C106.636 244.436 106.67 244.352 106.757 244.347L113.5 243.913C119.494 243.527 125.488 243.13 131.476 242.677L132.534 242.6V242.6C132.452 234.094 132.522 225.587 132.676 217.078C132.816 209.275 132.819 201.47 133.051 193.668C133.167 189.796 133.415 185.933 133.692 182.069C133.975 178.117 134.428 174.199 134.836 170.259ZM71.5203 215.501C71.4485 215.068 71.9933 214.8 72.2445 215.196C75.1159 219.724 76.5003 224.641 77.0838 229.94C77.5993 234.616 77.4474 239.359 77.1907 244.048C76.9169 249.048 76.5975 254.048 76.2745 259.045L75.7782 266.71V266.71L74.5328 285.923C74.4436 287.298 74.1318 288.547 72.9489 289.186C72.7991 289.311 72.643 289.424 72.4611 289.521C71.822 289.863 70.9744 289.69 70.6049 289.034L70.753 289.131C70.8821 289.213 70.7372 289.099 70.3182 288.791L69.9626 288.331V288.331C69.7043 287.943 69.5393 287.561 69.4729 287.099C69.3698 286.381 69.5033 285.594 69.5502 284.873L70.3666 272.274V272.274C71.0014 262.479 71.7428 252.688 72.3016 242.888C72.5619 238.321 72.7442 233.749 72.6208 229.174C72.4978 224.624 72.2661 219.997 71.5203 215.501ZM96.36 131.161L96.5193 131.134C102.222 130.186 108.424 130.364 113.636 133.114C113.679 133.137 113.66 133.208 113.611 133.206L111.934 133.139C106.623 132.931 101.328 132.808 96.1059 134.056L95.5713 134.185C93.6906 134.644 91.7267 135.206 90.2161 136.448C88.7723 137.636 88.0534 139.468 87.3621 141.155L87.2697 141.378C86.5683 143.044 85.6806 144.624 84.1433 145.665C82.1521 147.014 79.7573 146.849 77.4742 147.032C73.4542 147.356 70.1675 150.27 68.5323 153.837C67.5421 155.996 67.1197 158.417 67.0361 160.779C66.9932 161.981 66.9871 163.231 67.1472 164.425C67.1983 164.807 67.6703 166.198 67.9109 166.165C68.4456 166.091 68.9345 166.37 69.1012 166.797C70.4221 165.521 71.7809 164.281 73.1835 163.086C76.6798 160.107 80.4457 157.408 84.4116 155.088C87.4384 153.317 90.6311 151.563 93.9372 150.237C93.6752 150.231 93.4169 150.283 93.1669 150.413C93.0575 150.47 92.9487 150.333 93.0351 150.242C94.0764 149.146 95.3238 148.99 96.5812 149.282C96.8495 149.197 97.1181 149.114 97.3876 149.036C97.5218 148.997 97.5885 149.182 97.4791 149.253L97.1702 149.451V149.451C98.542 149.91 99.8888 150.814 100.955 151.527C104.018 153.575 106.714 156.078 109.447 158.535L109.944 158.98C112.35 161.129 114.816 163.217 117.55 164.941C118.98 165.843 120.483 166.678 122.059 167.298C123.411 167.831 125.612 168.167 126.246 169.596C126.808 170.28 126.573 171.153 125.914 171.613C124.802 172.837 122.579 172.046 121.254 171.537C119.657 170.922 118.11 170.183 116.634 169.317C113.77 167.635 111.128 165.543 108.668 163.318C106.098 160.994 103.675 158.525 101.175 156.128C100.092 155.089 99.0344 154.027 97.9499 152.99L97.4052 152.473C96.8516 151.954 96.063 151.145 95.2198 150.655C93.6313 151.603 92.0183 152.511 90.4441 153.484C88.2467 154.841 86.114 156.296 84.0142 157.799C79.9718 160.693 76.1411 163.934 72.5848 167.408C66.0625 173.778 60.5058 181.053 55.6515 188.756L55.2829 189.343C52.5244 193.752 49.9158 198.303 48.0661 203.174C46.031 208.535 45.0412 214.173 44.5035 219.863C43.9699 225.513 43.7899 231.191 43.1935 236.836C42.5818 242.625 41.3768 248.286 40.0061 253.937L39.6792 255.277C38.4389 260.337 37.1588 265.398 36.5212 270.578C36.1809 273.345 35.9761 276.15 36.0224 278.939C36.0689 281.745 36.5096 284.488 36.8651 287.265C37.0014 288.328 35.9552 289.216 35.0191 289.357C33.9425 289.518 33.0175 288.831 32.6829 287.831C31.6397 284.712 31.4501 281.264 31.4829 277.991C31.5158 274.667 31.9399 271.365 32.5365 268.099C33.7099 261.674 35.5206 255.383 37.0354 249.035C38.3704 243.44 39.2664 237.836 39.7494 232.104C40.2507 226.157 40.5509 220.191 41.4655 214.287C42.3682 208.459 44.0668 202.892 46.6285 197.578C48.9609 192.739 51.8683 188.185 54.9165 183.77C58.6181 178.41 62.6835 173.309 67.2279 168.661C66.8197 168.644 66.4006 168.512 66.0156 168.272C64.838 167.537 64.2896 166.099 64.121 164.787C63.7263 161.717 63.8216 158.511 64.6109 155.509C65.8842 150.667 69.1889 146.364 73.9783 144.619C75.2111 144.169 76.5216 144.005 77.828 143.973C79.0678 143.942 80.4218 144.104 81.618 143.711C83.522 143.085 84.3381 140.841 85.053 139.141L85.0859 139.063C86.0026 136.896 87.1029 135.038 89.0884 133.685C91.2067 132.242 93.8608 131.585 96.36 131.161V131.161ZM150.55 139.731C152.263 139.136 154.406 139.676 156.082 140.195C157.949 140.774 159.675 141.841 161.154 143.108C162.715 144.443 164.004 146.093 164.916 147.935L165.003 148.113C165.835 149.822 166.783 152.168 166.363 154.046C166.351 154.099 166.337 154.151 166.322 154.2C169.722 155.875 172.862 157.972 175.597 160.631C178.781 163.726 181.478 167.248 183.759 171.053C192.821 186.166 194.416 204.317 195.487 221.552L195.753 225.922C196.335 235.359 197.015 244.773 198.781 254.08L198.91 254.751C200.799 264.495 203.502 274.313 203.228 284.309C203.146 287.304 198.722 287.283 198.593 284.309C198.11 273.113 195.499 262.303 193.73 251.283C190.618 231.893 192.178 211.904 187.768 192.708C186.038 185.175 183.358 177.868 179.53 171.144C177.64 167.822 175.476 164.613 172.943 161.747C170.762 159.281 168.497 156.908 165.949 154.835C165.135 155.651 163.508 155.235 163.083 154.046C162.791 153.229 162.876 152.273 162.689 151.417C162.515 150.622 162.275 149.835 161.956 149.087C161.319 147.596 160.384 146.164 159.305 144.957C158.14 143.652 156.8 142.569 155.301 141.674C153.792 140.773 152.141 140.504 150.55 139.845C150.496 139.823 150.491 139.751 150.55 139.731ZM157.208 243.355C157.211 243.276 157.303 243.239 157.361 243.292C157.961 243.845 158.325 244.638 158.767 245.319C159.277 246.103 159.812 246.872 160.374 247.62C161.499 249.12 162.752 250.534 164.014 251.919C165.188 253.207 166.44 254.44 167.738 255.603C169.145 256.863 170.721 257.988 171.999 259.383C174.666 262.294 175.097 266.291 175.659 270.043L175.721 270.449C176.064 272.675 176.371 274.908 176.648 277.144C176.783 278.232 176.918 279.32 177.027 280.411L177.061 280.756C177.159 281.823 177.185 282.906 176.573 283.839C175.917 284.837 174.425 285.187 173.539 284.23C172.015 282.586 172.301 279.667 172.103 277.552C171.939 275.804 171.753 274.057 171.545 272.313L171.439 271.442C171.194 269.458 170.995 267.435 170.542 265.485C170.142 263.769 169.38 262.473 168.129 261.23C166.87 259.977 165.561 258.808 164.398 257.459C163.165 256.028 162.053 254.494 161.051 252.892C160.193 251.523 159.506 250.032 158.877 248.544L158.772 248.296C158.164 246.844 157.161 244.954 157.208 243.355ZM179.204 180.997C179.217 180.795 179.516 180.791 179.521 180.997C179.558 182.739 179.595 184.48 179.631 186.222C179.921 200.256 179.742 214.323 181.15 228.309C181.814 234.903 183.036 241.401 184.45 247.871C185.174 251.182 185.934 254.485 186.655 257.796C187.358 261.023 188.112 264.266 188.67 267.523C189.218 270.724 189.709 273.95 189.929 277.192L189.956 277.615C190.051 279.186 190.504 281.496 189.639 282.888C188.703 284.396 186.909 284.423 185.905 282.984C184.963 281.632 185.197 279.228 185.031 277.615C184.862 275.973 184.683 274.328 184.479 272.689C184.083 269.492 183.56 266.302 183.017 263.127C181.885 256.514 180.244 249.985 179.032 243.383C177.79 236.618 176.908 229.804 176.87 222.916C176.833 215.97 177.568 209.037 177.939 202.106C178.316 195.066 178.745 188.032 179.204 180.997ZM112.933 137.346C113.31 136.077 114.639 135.284 115.936 135.64C117.124 135.967 118.105 137.41 117.641 138.645C117.134 139.992 116.248 141.14 115.501 142.365C114.811 143.496 113.804 144.387 113.101 145.498L113.876 146.334C114.263 146.75 114.652 147.165 115.045 147.572L116.396 148.972C117.448 150.059 118.507 151.142 119.595 152.192C122.796 155.281 126.048 158.268 129.633 160.913C130.449 161.515 131.272 162.114 132.117 162.674L132.433 162.883C133.013 163.263 133.66 163.637 134.361 163.572C136.063 163.416 137.602 161.607 138.772 160.481L138.833 160.423C141.733 157.662 144.418 154.645 146.765 151.4C147.286 150.679 147.791 149.946 148.283 149.204C147.148 147.878 147.419 145.289 147.356 143.681C147.312 142.55 147.309 141.419 147.302 140.287L147.299 140.059C147.286 139.326 147.253 138.624 147.728 138.021C147.755 137.986 147.813 137.987 147.848 138.005C148.499 138.347 148.699 138.918 148.977 139.559L149.006 139.625C149.344 140.394 149.668 141.171 149.995 141.944C150.338 142.754 150.653 143.576 150.971 144.395C151.119 144.777 151.261 145.159 151.399 145.544C151.484 145.79 151.571 146.035 151.66 146.279L151.682 146.298C151.8 146.398 151.9 146.504 151.987 146.614C152.35 146.795 152.638 147.126 152.774 147.613C153.069 148.672 152.459 149.536 151.915 150.376C149.705 153.792 147.186 157.046 144.385 159.999C142.994 161.465 141.531 162.866 140.008 164.195L139.742 164.426C138.374 165.602 136.888 166.716 135.061 166.991C132.922 167.313 131.181 166.249 129.544 165.024L129.381 164.901C127.829 163.726 126.308 162.509 124.835 161.236C121.831 158.642 118.973 155.856 116.437 152.8C113.97 149.827 111.531 146.503 110.01 142.926C109.918 142.708 110.161 142.48 110.352 142.662C111.095 143.369 111.81 144.115 112.516 144.87C112.536 143.758 112.331 142.637 112.445 141.518C112.584 140.158 112.544 138.656 112.933 137.346Z" fill="black"/>
<path fill-rule="evenodd" clip-rule="evenodd" d="M166.991 109.396C165.666 99.8335 162.636 90.5493 162.201 80.8437C161.942 76.6905 161.683 72.537 161.425 68.3833C161.327 65.7892 157.958 64.914 156.671 67.2122C153.747 63.9676 148.51 64.4455 144.515 64.5439C120.995 65.3777 98.6438 81.2861 90.57 103.467C90.3759 103.996 90.4346 104.559 90.6541 105.062C86.8908 117.617 100.2 125.7 109.277 131.298C112.959 135.191 117.287 138.425 122.174 140.64C127.796 143.285 134.054 144.761 140.266 144.902C141.629 144.933 142.448 143.83 142.547 142.689C144.529 142.227 147.92 142.76 148.968 140.729C160.918 135.536 168.705 122.375 166.991 109.396V109.396Z" fill="white"/>
<path fill-rule="evenodd" clip-rule="evenodd" d="M161.399 75.4847C161.365 75.1746 161.813 75.1651 161.905 75.4162C162.662 77.4805 163.448 79.5306 164.048 81.647C164.626 83.6868 165.043 85.7728 165.465 87.8499C166.164 91.2971 166.766 94.7696 167.264 98.2532C168.327 97.4222 169.719 97.3465 171.029 97.9933C171.644 98.2966 171.879 99.0986 171.731 99.7209C171.613 100.22 171.468 100.717 171.295 101.203C171.666 101.532 171.981 101.937 172.21 102.403C172.814 103.629 172.619 104.915 172.078 106.085C172.119 106.154 172.16 106.225 172.199 106.299C172.982 107.82 172.563 109.183 171.99 110.668C171.562 111.778 171.801 113.029 170.877 113.868C170.555 114.9 170.073 115.861 169.372 116.728C169.212 117.02 168.974 117.255 168.69 117.428C168.619 119.057 168.447 120.682 168.124 122.292C166.868 128.543 162.881 134.113 157.947 138.042C153.118 141.886 147.447 144.183 141.328 144.926C138.357 145.287 135.381 145.173 132.434 144.658L132.067 144.593C129.348 144.099 126.057 143.282 124.177 141.23C123.188 140.151 123.766 137.776 125.514 138C126.44 138.119 127.246 138.267 128.119 138.609C128.799 138.876 129.48 139.133 130.178 139.351C131.516 139.767 132.899 140.092 134.287 140.272C137.18 140.646 140.187 140.547 143.046 139.982C148.246 138.956 153.299 136.589 157.245 133.025C161.832 128.882 164.521 123.519 164.917 117.335C165.357 110.447 164.562 103.394 163.902 96.5415C163.559 92.9771 163.123 89.4199 162.599 85.8776C162.086 82.4165 161.778 78.9603 161.399 75.4847ZM120.803 53.2433L121.025 53.2091C129.856 51.8647 139.148 51.9601 147.448 55.6059C149.039 56.3052 150.596 57.1485 152.062 58.1271C153.113 58.0174 154.169 57.9284 155.206 57.9138C156.512 57.8967 157.786 58.5751 157.946 59.8961C159.169 60.0482 160.296 60.4984 161.016 61.399C161.297 61.7496 161.485 62.1554 161.58 62.5781C162.332 62.7558 163.069 63.0283 163.769 63.3876C164.618 63.8251 165.108 65.0424 164.808 65.943C164.739 66.1474 164.66 66.3466 164.572 66.5414L164.504 66.6867L164.544 66.7417C165.222 67.8323 164.751 69.2631 163.712 69.9141C162.932 70.4023 162.062 70.7912 161.166 70.9793C161.24 71.3386 161.308 71.7 161.362 72.0656C161.384 72.2138 161.194 72.3194 161.109 72.1734C161.109 72.1734 161.43 73.1731 161.914 74.2744C162.104 74.7075 161.496 75.0921 161.263 74.6547C160.646 73.488 160.264 72.2918 159.704 71.0892C159.187 71.0554 158.671 70.937 158.174 70.7109C157.849 70.5629 157.602 70.3135 157.425 70.0155C157.414 70.0282 157.408 70.043 157.397 70.0578C155.73 72.203 152.472 72.9554 149.954 73.6338C147.25 74.3632 144.482 74.8132 141.704 75.145C136.853 75.722 131.965 75.8298 127.091 76.054C126.768 76.0686 126.446 76.0849 126.123 76.1005C124.144 77.8378 121.594 78.9174 118.979 79.2456C117.653 79.4117 116.086 79.3695 114.6 79.0309C114.062 79.5804 113.382 79.9874 112.64 80.1965C112.507 82.9649 110.963 85.5861 108.631 87.114L108.672 87.2785C109.252 89.6426 109.244 92.2267 107.166 93.8698C106.885 94.0921 106.577 94.2828 106.254 94.4408L106.325 94.6041C107.398 97.1138 107.741 99.8859 105.723 101.968C104.905 102.812 103.469 102.612 102.855 101.644L102.825 101.595C102.791 101.537 102.755 101.482 102.719 101.425C102.665 101.537 102.581 101.631 102.457 101.684C101.69 102.014 101.384 101.771 100.684 101.431C100.038 101.114 99.3554 100.877 98.6584 100.693C98.0899 100.545 97.5237 100.439 96.9533 100.378C93.3491 101.756 91.0209 105.983 91.5744 109.95C91.8744 112.11 93.0598 114.249 95.1258 115.145C96.03 115.538 97.0927 115.703 98.0709 115.57C99.3955 115.39 100.414 114.556 101.785 115.033C102.326 115.221 102.664 115.646 102.693 116.227C102.742 117.14 102.419 117.825 101.874 118.332C102.835 119.135 103.61 120.251 104.445 121.141C105.489 122.255 106.547 123.369 107.675 124.396C108.74 125.37 109.873 126.275 111.072 127.078L111.198 127.161C112.702 128.141 114.596 129.01 114.668 131.058C114.691 131.675 114.317 132.241 113.81 132.556C111.915 133.731 109.853 132.188 108.368 131.058C107.77 130.603 107.189 130.132 106.629 129.644C106.255 129.673 105.848 129.612 105.423 129.424C105.15 129.306 104.884 129.166 104.622 129.018C103.771 129.232 102.968 129.044 102.307 128.598C101.354 128.832 100.344 128.86 99.4864 128.672C98.7028 128.498 98.0033 128.128 97.4265 127.632C96.2223 128.016 94.885 127.945 93.6977 127.215C92.9857 126.778 92.43 126.154 92.1279 125.425C91.9741 125.184 91.8757 124.903 91.8683 124.594L91.8681 124.476C90.8329 124.5 89.7955 124.144 88.9948 123.325C88.2596 122.572 87.9007 121.634 87.8603 120.68C86.8188 120.385 85.866 119.778 85.1413 118.842C83.9413 117.29 83.781 115.373 84.3979 113.661C84.3575 113.571 84.3216 113.478 84.2899 113.385C83.3329 112.034 82.7012 110.405 82.7519 108.771C82.7582 108.517 82.792 108.268 82.8427 108.021C81.9005 107.52 81.2075 106.64 81.1336 105.522C81.0765 104.645 81.3913 103.787 81.9596 103.138C81.6829 102.477 81.5603 101.758 81.6448 101.04C81.7315 100.302 81.9913 99.6616 82.3718 99.1271C82.3631 98.9327 82.3737 98.7359 82.4054 98.5351C82.3674 98.3386 82.3357 98.1357 82.319 97.9288C82.1392 95.6629 83.7026 93.6804 85.6061 92.6342C86.1068 92.3595 86.6477 92.1354 87.1885 91.9452C87.5815 91.8057 88.173 91.7592 88.5195 91.5035C88.5047 91.4929 88.6484 91.3072 88.6737 91.2076C88.7012 91.085 88.7308 90.9646 88.7458 90.8399C88.8026 90.3157 88.7603 89.7768 88.7498 89.2505C88.7033 86.8622 88.7772 84.4634 89.0286 82.0878C89.4955 77.6833 90.6472 73.3739 92.8906 69.5252C94.773 66.3 97.3505 63.5757 100.306 61.3163C106.193 56.8182 113.54 54.3725 120.803 53.2433ZM93.52 108.018C92.7536 106.176 96.3615 106.158 97.3154 106.245L97.3435 106.248C99.4906 106.462 102.847 107.495 103.726 109.662C104.089 110.559 103.013 111.532 102.152 111.237C101.309 110.948 100.836 110.328 100.159 109.785C99.9816 109.643 99.7965 109.51 99.6081 109.382C99.7073 109.698 99.8662 109.99 100.087 110.208L100.139 110.257C101.178 111.191 99.3195 112.658 98.6299 111.422C98.2627 110.764 98.1157 110.042 98.2302 109.295C98.2642 109.074 98.3234 108.873 98.4093 108.68C98.3409 108.646 98.2735 108.609 98.2042 108.576L98.0805 108.518C97.2535 108.143 93.7248 106.669 93.7534 107.987C93.7566 108.133 93.5675 108.133 93.52 108.018Z" fill="black"/>
<path fill-rule="evenodd" clip-rule="evenodd" d="M143.152 128.274C141.731 127.695 140.464 126.728 139.538 125.493C139.216 125.063 139.132 124.61 139.2 124.195C139.276 123.729 139.551 123.306 139.927 123.023C140.305 122.739 140.777 122.598 141.233 122.67C141.629 122.732 142.024 122.949 142.336 123.399L142.401 123.49C142.952 124.235 143.67 124.847 144.488 125.241C145.276 125.621 146.157 125.798 147.07 125.695C148.807 125.499 150.005 124.559 151.277 123.282C151.435 123.121 151.593 122.955 151.752 122.786C151.852 122.633 151.991 122.534 152.145 122.483C152.317 122.425 152.51 122.429 152.688 122.491C152.859 122.55 153.012 122.664 153.115 122.815C153.213 122.958 153.268 123.135 153.25 123.339C153.134 124.662 152.442 125.842 151.46 126.769C150.37 127.799 148.924 128.511 147.563 128.761C146.063 129.036 144.535 128.839 143.152 128.274V128.274ZM148.27 107.866C149.866 108.836 152.297 111.099 150.58 113.504C148.56 115.624 145.652 113.193 144.218 112.093C142.889 111.241 141.396 113.433 142.629 114.428C152.986 122.099 157.189 108.12 149.077 106.726C148.184 106.572 147.852 107.566 148.27 107.866ZM129.71 98.943C129.886 96.7542 133.219 96.2571 133.55 98.4231C133.847 100.363 133.497 102.146 132.624 103.892C131.789 105.561 129.691 104.783 129.532 103.263C129.32 101.226 129.6 100.305 129.71 98.943ZM155.076 97.974C155.541 97.3653 156.211 96.9498 157.015 97.1846C159.526 97.9186 158.786 101.485 157.904 103.221C157.425 104.163 155.876 104.402 155.176 103.572C154.035 102.219 153.489 99.5158 154.939 98.1826C154.979 98.1137 155.022 98.0442 155.076 97.974ZM132.589 89.3655L132.985 89.296C134.212 89.0837 135.738 88.8798 136.606 89.8666C137.066 90.3899 137.225 91.3625 136.606 91.8634C135.517 92.7448 134.314 92.4032 133.01 92.4778C131.935 92.5395 130.902 92.7175 129.866 93.0136C127.595 93.6631 125.744 94.8487 123.804 96.1507C123.549 96.3214 123.289 95.9957 123.411 95.7576C124.531 93.5631 126.701 91.7605 128.875 90.6617C130.035 90.0752 131.305 89.5887 132.589 89.3655ZM152.787 88.3825L153.091 88.4446C156.394 89.1354 160.686 90.5154 162.251 93.7616C162.311 94.2207 162.248 94.319 162.196 94.3833L162.179 94.4047C162.137 94.4596 162.103 94.5353 161.904 94.5977C161.849 94.5846 161.794 94.5706 161.737 94.5559C161.02 94.3679 160.453 94.1089 159.903 93.8401L159.308 93.5466C158.617 93.2077 157.92 92.8811 157.181 92.64C155.605 92.1256 153.983 91.7632 152.336 91.5697C151.979 91.5278 151.636 91.4073 151.365 91.2008C151.107 91.0047 150.911 90.7333 150.821 90.3726C150.705 89.9057 150.738 89.5522 150.989 89.131C151.177 88.8147 151.446 88.5954 151.756 88.4695C152.071 88.3412 152.43 88.3109 152.787 88.3825Z" fill="black"/>
<path fill-rule="evenodd" clip-rule="evenodd" d="M148.85 138.659C148.85 138.659 139.472 140.038 135.274 138.089C131.089 136.147 127.018 134.268 123.222 131.695C119.332 129.059 116.032 125.929 113.677 121.923C111.486 118.195 109.665 114.239 107.831 110.314C107.724 110.085 106.671 107.804 106.299 107.04C105.727 105.854 104.053 106.226 104.053 108.067C104.053 109.907 103.971 123.846 107.186 129.329C110.087 134.281 115.003 137.742 119.888 140.762C125.292 144.101 132.471 147.711 138.919 148.665C144.754 149.528 151.413 147.105 155.639 143.113C160.056 138.938 161.307 133.265 163.586 127.833C164.096 126.619 162.291 125.886 161.761 127.081C160.764 129.329 148.85 138.659 148.85 138.659Z" fill="black"/>
<path fill-rule="evenodd" clip-rule="evenodd" d="M166.076 104.71C165.478 106.336 164.569 108.03 163.457 109.399C158.958 113.21 154.587 111.1 152.367 105.934C151.524 102.284 153.763 98.3522 156.136 95.667C159.563 92.2311 165.155 94.0343 166.731 98.1189C166.827 98.6481 166.884 99.176 166.912 99.7023C166.879 101.412 166.673 102.874 166.076 104.498M122.833 101.429C128.76 94.3773 139.847 94.0002 139.564 104.854C138.291 118.593 116.853 115.221 122.833 101.429ZM167.94 95.5464C167.732 95.1945 167.501 94.854 167.25 94.5283C167.157 94.4729 167.103 93.9818 166.762 93.9454C162.193 88.9028 154.166 91.7639 151.266 96.7885C150.736 97.4238 150.304 98.1676 149.985 98.9534C147.128 98.429 143.796 98.5309 141.138 99.6107C138.503 92.7266 130.525 92.1119 125.267 95.0533C121.997 96.6623 119.876 100.032 116.696 101.883C109.219 102.421 101.195 100.745 93.8534 102.622C88.0634 103.826 92.9035 106.759 93.8745 104.801C100.796 102.756 108.997 104.484 116.183 104.023C116.931 105.288 118.364 106.323 119.792 106.279C121.334 119.957 141.274 117.689 141.962 105.53C142.743 104.295 143.713 103.114 145.102 102.346C145.634 102.235 146.147 102.092 146.617 101.871C147.419 101.758 148.655 102.098 149.393 102.766C151.922 117.944 166.49 116.177 169.094 102.88C169.145 102.827 169.29 102.629 169.401 102.311C170.292 101.132 172.474 100.694 172.125 98.704C171.815 96.7137 169.303 96.7373 167.94 95.5464Z" fill="black"/>
</g>
<defs>
<clipPath id="clip0_81_21092">
<rect width="240" height="275" fill="white"/>
</clipPath>
</defs>
</svg>
