<svg width="240" height="275" viewBox="0 0 240 275" fill="none" xmlns="http://www.w3.org/2000/svg">
<g clip-path="url(#clip0_81_21008)">
<rect width="240" height="275" fill="#E7ECED"/>
<path fill-rule="evenodd" clip-rule="evenodd" d="M114.34 135.723C119.555 131.751 132.648 129.964 138.214 133.789C143.712 137.631 144.311 143.843 146.873 149.557C149.29 148.417 153.281 150.05 153.982 152.294C154.851 153.352 154.89 156.325 155.49 157.747C181.569 161.9 185.528 182.24 188.667 205.332C192.82 228.764 202.247 252.145 198.155 276.257C198.688 277.029 199.108 277.78 199.497 278.671C200.429 280.256 199.229 282.501 197.35 282.414C194.918 282.2 192.51 281.908 190.067 281.817C183.294 281.582 176.514 281.61 169.739 281.696L168.815 281.708C134.667 282.133 100.521 282.971 66.3716 283.194C65.1327 283.195 64.5262 282.084 64.6916 280.987C65.0248 278.78 65.3339 276.571 65.6565 274.363C57.5793 276.497 48.9925 277.034 40.9382 274.587C40.3747 274.013 42.251 274.324 42.5486 274.237C35.1361 269.17 37.3498 258.495 38.0064 250.807C42.0894 224.462 43.5287 195.313 59.3039 172.832C66.1284 163.658 76.1339 156.394 87.6308 154.76L87.9498 154.716C91.3115 154.267 95.0581 154.123 97.9973 152.294C101.303 149.653 102.712 144.775 106.19 144.73C107.338 144.715 108.9 146.168 110.581 147.155C110.707 144.984 111.876 143.152 112.134 141.469L112.155 141.325C112.425 139.363 112.056 137.598 114.34 135.723ZM170.387 206.028C163.058 200.935 144.125 203.494 143.692 203.779C142.738 204.407 142.327 204.463 141.811 205.278C141.301 205.346 140.792 205.416 140.283 205.488C139.263 205.822 140.019 207.077 141.198 206.629C140.489 209.688 142.575 211.864 143.406 214.888C143.676 215.87 143.416 217.636 143.406 218.64C143.487 219.919 144.901 221.43 144.665 222.714C143.827 227.276 139.281 231.727 141.198 236.152C142.467 238.652 146.286 239.926 148.825 240.776C154.086 242.795 163.251 240.7 166.308 236.152C167.938 233.727 169.827 227.609 170.799 225.711L171.014 222.701C171.546 215.218 172.018 207.162 170.387 206.028Z" fill="white"/>
<path fill-rule="evenodd" clip-rule="evenodd" d="M104.912 144.288C105.418 143.84 106.167 144.403 105.846 145.009C105.123 146.37 104.382 147.659 103.412 148.862C102.824 149.592 102.194 150.282 101.556 150.964C103.194 152.381 104.599 154.141 105.925 155.791C107.622 157.9 109.225 160.099 111.13 162.029C113.008 163.933 115.084 165.264 117.595 166.151L118.102 166.327C120.624 167.213 123.32 168.409 124.741 170.798C125.021 171.269 124.457 171.851 123.982 171.557C121.512 170.027 118.61 169.719 115.921 168.708C113.323 167.732 111.059 166.229 109.058 164.31C107.061 162.395 105.384 160.216 103.634 158.083C101.904 155.974 100.042 154.172 97.9957 152.388C94.8382 154.513 91.234 155.438 87.5691 156.346L87.1691 156.445C83.4998 157.354 79.8502 158.409 76.4078 159.992C73.3727 161.387 70.3875 163.053 67.9152 165.323C65.2909 167.733 63.2483 170.81 61.3788 173.819C57.197 180.552 54.257 187.928 51.6688 195.394C48.9768 203.159 46.7251 211.08 44.9073 219.095C43.9828 223.172 43.232 227.278 42.6149 231.413C42.3178 233.404 42.054 235.4 41.8222 237.4C41.5748 239.536 41.518 241.733 40.863 243.786C40.5823 244.666 39.9193 245.032 39.2557 245L39.1209 246.687C38.9422 248.935 38.7756 251.184 38.7193 253.446C38.626 257.208 38.6683 260.959 38.9388 264.712L38.9771 265.224C39.1896 267.964 39.6645 271.042 41.7238 273.048C43.8563 275.125 47.1358 275.779 50.0101 275.816C56.7045 275.903 63.1486 272.739 69.0726 269.963C75.1735 267.104 81.1078 263.931 86.8999 260.489C89.8497 258.736 92.7675 256.925 95.6481 255.061C97.0617 254.146 98.4654 253.216 99.8585 252.271C100.656 251.729 101.413 251.136 102.225 250.655C101.827 250.284 101.649 249.702 101.983 249.193C99.6343 247.153 98.657 243.515 98.5427 240.57C98.4504 238.194 98.8 235.824 99.0759 233.47C99.2152 232.282 99.3871 231.097 99.5657 229.916C99.6362 229.449 99.6901 228.949 99.7725 228.456C93.4317 231.942 86.9133 235.047 80.2222 237.804C76.7925 239.218 73.3188 240.489 69.7972 241.654L69.0834 241.889C65.7467 242.982 62.3301 244.014 58.8806 244.638C58.6961 244.672 58.5464 244.399 58.7433 244.313C62.1049 242.829 65.583 241.577 68.9952 240.21L69.5559 239.982V239.982C69.4915 239.978 69.4247 239.969 69.355 239.953C67.3539 239.47 65.3684 238.725 63.4057 238.098C61.5842 237.516 59.5376 237.151 57.835 236.273C57.704 236.205 57.7773 236.023 57.905 236.014C59.8186 235.881 61.896 236.439 63.7723 236.768L64.4771 236.891C65.6579 237.099 66.8649 237.323 68.0399 237.615C68.0823 237.222 68.3023 236.826 68.6152 236.594C72.0582 234.043 71.7085 228.892 72.0768 225.093L72.3498 222.272C72.8301 217.336 73.3383 212.4 74.1102 207.501C74.1514 207.24 74.556 207.315 74.5577 207.562C74.5975 213.635 74.1392 219.68 73.9095 225.743L73.874 226.738C73.747 230.48 73.6475 234.365 71.2919 237.244C71.6213 237.051 72.0666 237.051 72.3335 237.369C72.6614 237.759 72.8507 238.197 72.8447 238.627C74.9733 237.735 77.0925 236.819 79.2014 235.884C85.9816 232.879 92.6196 229.516 99.0821 225.878C99.7776 225.486 100.439 225.794 100.783 226.31L100.832 226.303C100.84 226.302 100.849 226.301 100.858 226.301L100.907 226.299C100.909 226.299 100.911 226.299 100.912 226.299C101.822 225.799 103.061 226.155 103.842 226.884C103.865 226.906 103.885 226.93 103.905 226.953C104.893 226.509 105.816 225.91 106.654 225.151C108.367 223.597 109.819 221.676 111.085 219.749C113.415 216.2 115.395 212.254 118.543 209.333C121.101 206.96 124.272 205.482 127.599 204.555C127.585 204.458 127.622 204.354 127.689 204.285C127.86 204.11 127.982 204.049 128.203 204.156C128.22 204.164 128.231 204.176 128.238 204.189L128.562 203.634C128.74 203.333 128.922 203.029 128.985 202.95C129.362 202.474 129.751 202.002 130.146 201.54C130.815 200.757 131.577 199.985 132.46 199.442C134.393 198.254 136.426 198.926 138.413 199.576C139.614 199.968 140.811 200.373 142.009 200.772L142.133 200.812C143.027 201.099 144.073 201.351 144.472 202.298C144.631 202.673 144.655 203.062 144.581 203.439C153.071 201.28 162.5 202.272 170.785 204.807C171.103 204.905 171.42 205.166 171.487 205.51C172.436 210.38 172.859 215.374 172.43 220.326C172.059 224.602 171.112 228.791 169.328 232.705L169.226 232.926C167.55 236.553 164.892 241.025 160.833 242.162C158.382 242.848 155.671 242.444 153.171 242.318C150.742 242.195 148.259 242.178 145.852 241.796C143.709 241.455 141.831 240.494 140.507 238.751C139.364 237.247 138.763 235.429 138.27 233.621C138.044 233.693 137.82 233.77 137.6 233.856C136.668 234.22 135.88 234.807 135.166 235.498C133.66 236.957 132.492 238.729 130.916 240.121C129.49 241.382 127.864 242.362 126.121 243.116C122.508 244.678 118.632 245.302 114.81 246.129L114.543 246.187C111.666 246.819 108.73 247.594 106.19 249.093C106.141 249.534 105.94 249.949 105.618 250.221C106.066 250.642 106.255 251.308 105.862 251.933C104.762 253.679 102.869 254.672 101.169 255.788L101.058 255.861C99.3857 256.97 97.6987 258.057 95.998 259.122C92.5406 261.288 89.0109 263.334 85.4314 265.29C79.6742 268.437 73.7933 271.405 67.806 274.097C68.1654 275.866 68.0341 277.689 68.3042 279.47L68.3456 279.724C68.461 280.385 68.3051 280.937 67.8501 281.369L67.802 281.413L67.8028 281.407L67.7602 281.447L67.7459 281.459L67.7507 281.455C67.6982 281.503 67.6441 281.548 67.5889 281.586L67.5187 281.631V281.631C67.0805 281.897 66.5163 281.894 66.0676 281.659L66.0164 281.631L65.9302 281.582C65.3373 281.24 64.9285 280.395 65.1745 279.724C65.7789 278.074 66.0073 276.312 66.5654 274.651L66.1226 274.849V274.849L65.539 275.104C59.2267 277.834 52.2151 280.134 45.3375 278.272C42.2986 277.45 39.4583 275.709 37.9378 272.873C36.4416 270.082 36.2302 266.841 36.1507 263.736C36.0527 259.904 36.258 256.014 36.7632 252.214C37.1023 249.664 37.5123 247.066 38.1449 244.542C37.8195 244.255 37.5804 243.843 37.5172 243.333C37.2187 240.922 37.7411 238.416 38.061 236.019C38.3735 233.677 38.7187 231.34 39.1091 229.011C39.8973 224.307 40.8132 219.612 41.8795 214.963C43.7771 206.688 46.2829 198.561 49.2998 190.627L49.564 189.936C52.3518 182.685 55.5796 175.589 60.0742 169.219C62.2243 166.171 64.4971 163.408 67.5352 161.211C70.3814 159.154 73.5918 157.672 76.9049 156.54C80.2216 155.407 83.6306 154.647 87.0998 154.175C90.6231 153.695 94.3421 153.401 97.6288 151.955C97.213 151.21 97.5698 150.203 98.2695 149.74C100.624 148.184 102.802 146.159 104.912 144.288ZM180.294 211.967C180.393 211.817 180.627 211.912 180.584 212.089C179.438 216.783 178.363 221.487 177.661 226.27C176.394 234.904 176.627 243.65 176.731 252.348L176.736 252.797C176.789 257.482 176.863 262.167 177.018 266.85C177.096 269.217 177.251 271.607 177.167 273.975C177.121 275.26 176.779 276.475 176.657 277.744C176.551 278.854 176.646 279.98 176.699 281.092C176.734 281.831 175.644 281.799 175.57 281.092L175.475 280.177C175.352 279.019 175.2 277.868 174.82 276.76C174.364 275.427 174.145 274.118 173.987 272.718C173.745 270.573 173.637 268.407 173.543 266.248L173.479 264.754C173.089 255.728 173.102 246.66 173.735 237.644L173.781 237C174.407 228.478 175.494 219.269 180.294 211.967ZM155.881 158.253C155.582 158.13 155.686 157.678 156.018 157.757L156.62 157.9C161.035 158.958 165.369 160.104 169.489 162.072C173.612 164.042 177.102 166.982 179.876 170.597C185.268 177.625 187.508 186.166 189.277 194.698C191.242 204.18 193.032 213.696 195.015 223.174L195.383 224.94C197.218 233.768 198.95 242.601 200.226 251.533L200.318 252.181C201.605 261.367 202.379 270.87 200.975 280.08C200.697 281.902 197.666 281.448 197.785 279.648C198.127 274.444 198.372 269.267 198.135 264.052C197.898 258.835 197.409 253.641 196.68 248.47C196.066 244.118 195.152 239.82 194.342 235.503L194.215 234.821C193.538 231.149 192.839 227.481 192.142 223.813L191.1 218.32C189.538 210.096 187.946 201.864 186.147 193.692L186.041 193.211C184.28 185.348 181.685 177.112 176.404 170.868C171.045 164.532 163.374 161.341 155.881 158.253ZM136.409 241.652C136.538 241.364 136.989 241.396 137.127 241.652C137.67 242.654 137.731 243.933 137.833 245.065L137.844 245.181C137.975 246.562 138.09 247.948 138.161 249.333C138.295 251.962 138.36 254.587 138.351 257.22C138.343 259.917 138.289 262.612 138.143 265.306L138.104 266.027C137.971 268.368 137.748 270.979 136.637 273.026C136.232 273.77 135.133 273.551 134.899 272.799C134.132 270.335 134.526 267.414 134.723 264.891L134.876 262.922C135.027 260.953 135.171 258.984 135.285 257.012C135.442 254.315 135.571 251.616 135.696 248.918C135.736 248.041 135.78 247.165 135.826 246.288L135.897 244.974C135.958 243.874 135.953 242.668 136.409 241.652ZM50.1805 245.143L50.52 244.815C51.5622 243.795 52.8792 242.223 54.4199 242.321C55.0342 242.36 55.4257 242.87 55.2983 243.475C55.0262 244.767 53.7081 245.438 52.7593 246.227C51.7199 247.091 50.7402 248.015 49.7625 248.948C48.8951 249.775 48.0609 250.625 47.2467 251.503L46.9423 251.833C46.6504 252.151 44.5722 254.032 44.7969 254.52L44.8091 254.542C44.8716 254.635 44.7675 254.763 44.6638 254.731C43.7663 254.447 43.8223 253.678 44.1616 252.898C44.8135 251.4 45.9552 250.014 46.9522 248.735C47.9465 247.458 49.0226 246.27 50.1805 245.143V245.143ZM139.661 207.575C138.967 205.934 136.41 205.968 134.959 206.067C131.304 206.314 127.35 207.239 124.098 208.948C120.726 210.719 118.455 213.558 116.423 216.697L116.328 216.845C114.347 219.925 112.44 223.571 109.338 225.688C107.759 226.767 105.914 227.753 103.997 228.179C103.866 228.411 103.653 228.594 103.373 228.66L103.243 228.69C102.697 228.811 101.849 228.944 101.117 228.864C101.122 229.223 101.118 229.579 101.127 229.918C101.153 230.892 101.164 231.869 101.164 232.843C101.164 234.883 101.054 236.928 101.14 238.968C101.215 240.773 101.47 242.659 102.336 244.272C102.971 245.456 103.81 246.239 104.822 246.987C107.312 245.469 110.128 244.543 112.985 243.847C116.441 243.006 119.98 242.445 123.357 241.304C124.982 240.754 126.545 240.036 127.961 239.059C129.464 238.023 130.612 236.62 131.793 235.248L131.977 235.035C133.182 233.652 134.498 232.329 136.201 231.579C137.668 230.934 139.601 230.819 140.884 229.819C141.554 229.296 141.61 228.538 141.681 227.761C140.86 227.878 139.99 227.69 139.171 227.594L138.747 227.544C137.973 227.452 137.217 227.351 136.455 227.154C136.313 227.117 136.313 226.904 136.455 226.867C137.355 226.635 138.248 226.536 139.171 226.427L139.388 226.4C140.224 226.291 141.102 226.125 141.921 226.309C142.068 225.75 142.281 225.215 142.578 224.68C142.997 223.928 143.788 223.076 143.895 222.198C143.927 221.936 143.865 221.626 143.742 221.394L143.699 221.315C143.647 221.222 143.586 221.128 143.496 221.07C143.486 221.082 143.465 221.095 143.419 221.109C142.788 221.308 142.238 220.999 141.946 220.523C140.707 220.677 139.354 220.625 138.191 220.677L137.016 220.734C135.76 220.791 134.448 220.816 133.267 220.563C133.103 220.527 133.053 220.253 133.218 220.182C134.669 219.562 136.428 219.364 137.982 219.125C138.849 218.992 139.723 218.89 140.593 218.773C141.172 218.695 141.787 218.566 142.387 218.535C143.892 216.661 143.081 213.704 140.987 212.897C140.224 213.233 139.538 213.038 138.705 212.966C137.873 212.895 137.039 212.846 136.203 212.85C134.529 212.857 132.756 213.298 131.098 213.108C130.828 213.077 130.578 212.718 130.846 212.499C132.115 211.463 133.933 211.126 135.544 210.905L135.878 210.86C136.418 210.789 137.074 210.686 137.755 210.625C137.909 210.324 138.186 210.097 138.601 210.04C138.724 210.023 138.848 210.014 138.972 210.003L138.97 209.991V209.991C139.983 209.942 139.939 208.231 139.661 207.575ZM70.3507 239.579C70.3328 239.606 70.3133 239.633 70.2924 239.658L70.2603 239.695L70.4268 239.628L70.3507 239.579V239.579ZM157.328 203.908C153.066 203.45 148.799 203.547 144.525 203.67C144.183 204.788 142.993 205.741 141.841 205.777C142.743 207.152 142.837 209.013 142.203 210.471C143.548 211.006 144.706 211.968 145.409 213.338C146.384 215.236 146.256 217.349 145.293 219.103C146.115 219.848 146.601 221.058 146.552 222.198C146.498 223.469 145.74 224.555 145.111 225.608C144.431 226.746 144.408 227.748 144.199 229.023C143.893 230.889 142.636 232.02 141.017 232.727L141.103 233.066C141.52 234.691 142.04 236.405 143.232 237.593C144.766 239.122 147.146 239.108 149.173 239.204L149.271 239.209C151.127 239.302 152.983 239.411 154.838 239.516L156.23 239.594C158.366 239.711 160.418 239.725 162.162 238.313C165.009 236.006 166.961 232.19 168.196 228.811C170.79 221.719 170.821 213.936 169.63 206.549C165.638 205.262 161.496 204.356 157.328 203.908ZM121.89 215.675L121.921 215.677C122.799 215.777 123.401 216.488 123.616 217.331C123.928 218.556 123.775 219.664 124.525 220.77C125.297 221.908 125.771 222.819 125.883 224.224C125.93 224.802 125.908 225.379 126.037 225.945L126.13 226.341C126.229 226.764 126.311 227.171 126.261 227.625C126.216 228.039 126.015 228.362 125.6 228.495C124.247 228.928 123.202 227.93 122.853 226.669C122.551 225.58 122.954 224.282 122.528 223.259C122.292 222.692 121.857 222.218 121.611 221.647C121.367 221.081 121.245 220.49 121.206 219.875C121.132 218.712 122.16 217.314 121.587 216.26C121.464 216.035 121.603 215.668 121.89 215.675ZM103.921 203.67C104.837 203.484 105.876 203.057 106.78 203.412C107.244 203.595 107.474 204.161 107.081 204.555C106.4 205.238 105.41 205.276 104.493 205.437L104.412 205.451C103.327 205.652 102.24 205.843 101.152 206.023C99.1046 206.362 97.0523 206.662 94.9929 206.917C92.8777 207.179 90.7566 207.412 88.6325 207.588L87.8102 207.655C86.0159 207.799 84.149 207.907 82.3885 207.632C82.1326 207.592 82.1738 207.219 82.3885 207.154C84.3171 206.57 86.4328 206.414 88.4267 206.166C90.5466 205.903 92.6628 205.625 94.7736 205.296C96.881 204.966 98.9856 204.613 101.082 204.222C102.03 204.046 102.976 203.862 103.921 203.67ZM136.975 201.795C136.171 201.51 135.287 201.089 134.416 201.23C132.913 201.473 131.577 202.937 130.387 203.901L130.985 203.785C134.039 203.198 138.085 202.565 140.649 204.508C140.656 204.497 140.661 204.486 140.668 204.475C140.875 204.16 141.115 203.915 141.377 203.646C141.402 203.622 141.426 203.598 141.45 203.573L141.591 203.423L141.268 203.311C140.576 203.066 139.756 202.75 139.627 202.704L139.618 202.701C138.736 202.402 137.853 202.106 136.975 201.795ZM111.876 137.74C111.75 136.123 114.267 136.136 114.391 137.74C114.663 141.242 113.875 144.711 112.18 147.782C112.167 147.804 112.154 147.824 112.14 147.845C113.201 148.397 114.274 148.927 115.37 149.4C116.773 150.006 118.202 150.557 119.656 151.025C120.972 151.449 122.593 151.616 123.699 152.497C126.032 154.356 125.156 158.212 124.707 160.712L124.637 161.106C124.413 162.392 124.252 163.712 124.794 164.947C125.373 166.265 126.543 167.243 127.588 168.187L127.799 168.378C128.724 169.221 129.781 170.246 130.459 171.389C131.079 170.108 131.923 169.061 132.816 167.882C133.453 167.041 133 166.763 132.542 165.942C132.102 165.151 131.887 164.308 132.024 163.405C132.278 161.739 133.61 160.536 134.935 159.631C136.5 158.564 138.246 157.773 139.864 156.78C143.188 154.739 146.425 152.406 149.342 149.815C149.422 149.744 149.562 149.838 149.497 149.935C147.193 153.441 144.492 156.47 141.172 159.042C139.826 160.084 138.411 160.949 136.988 161.858L136.578 162.121C136.007 162.491 135.294 162.987 135.035 163.617C134.775 164.251 135.33 164.73 135.628 165.256C136.576 166.924 136.119 168.481 134.995 169.896L134.943 169.961C133.826 171.338 132.98 172.618 132.575 174.377C131.705 178.156 132.917 182.091 134.185 185.638L134.235 185.778C134.921 187.69 135.65 189.588 136.246 191.53L136.41 192.067C136.95 193.855 137.392 195.617 136.786 197.455C136.58 198.08 135.728 198.228 135.374 197.639C134.126 195.565 133.815 193.069 133.032 190.789C132.27 188.566 131.394 186.384 130.657 184.152C129.709 181.279 129.074 178.186 129.418 175.172C129.408 175.154 129.397 175.138 129.389 175.119L129.147 174.591C128.489 173.16 127.853 171.911 126.655 170.77C125.406 169.58 124.05 168.527 123.068 167.087C120.933 163.959 122.253 160.479 122.511 157.059L122.54 156.639C122.587 155.929 122.613 154.964 122.149 154.472C121.628 153.919 120.404 153.778 119.712 153.533C117.924 152.9 116.161 152.162 114.482 151.276C112.884 150.433 111.336 149.501 109.895 148.41L109.165 147.86C108.012 146.99 106.817 146.04 106.044 144.855C105.955 144.719 106.107 144.499 106.268 144.564C107.558 145.088 108.736 145.921 109.942 146.645C109.961 146.601 109.983 146.556 110.008 146.512C111.5 143.809 112.114 140.814 111.876 137.74ZM153.07 156.258C153.583 154.848 155.925 154.957 155.832 156.632C155.76 157.919 155.214 159.08 154.715 160.248L154.661 160.373C154.146 161.59 153.551 162.733 152.838 163.849C151.477 165.981 149.883 167.96 148.18 169.828C146.636 171.521 144.609 172.557 142.274 172.385C141.29 172.312 140.297 172.062 139.435 171.57C138.411 170.986 137.299 169.232 135.992 169.657C135.866 169.698 135.748 169.513 135.857 169.425C137.365 168.21 139.077 170.094 140.521 170.548C142.697 171.232 144.93 170.476 146.331 168.716C147.793 166.879 149.139 164.822 150.367 162.821C150.992 161.805 151.561 160.751 152.053 159.665C152.549 158.568 152.662 157.376 153.07 156.258ZM149.562 147.584C149.499 147.389 149.741 147.204 149.911 147.315C150.903 147.96 151.761 148.813 152.675 149.561C153.69 150.39 154.711 151.203 155.749 152.003C157.261 153.169 155.507 155.316 154.176 154.042C152.354 152.299 150.358 150.02 149.562 147.584ZM144.121 140.761C144.524 139.208 146.905 139.849 146.558 141.384L146.547 141.43C145.889 143.966 146.825 146.547 148.824 148.191L148.897 148.251C150.162 149.263 148.37 151.032 147.119 150.03C144.386 147.842 143.249 144.125 144.121 140.761Z" fill="black"/>
<path fill-rule="evenodd" clip-rule="evenodd" d="M133.581 60.2716C165.38 61.2787 167.297 76.3885 167.297 101.728C167.297 127.068 150.802 143.036 144.728 145.824C138.654 148.612 122.66 160.588 108.227 155.069C93.7937 149.551 97.9733 126.234 97.9733 116.215C97.9733 106.197 101.783 59.2645 133.581 60.2716Z" fill="white"/>
<path fill-rule="evenodd" clip-rule="evenodd" d="M146.481 137.502C140.641 140.763 133.955 140.89 127.674 138.837C123.907 137.61 120.453 135.712 117.22 133.442C114.408 131.465 111.898 129.274 109.412 126.947C107.365 122.43 105.542 117.922 104.688 113.008C103.923 108.597 103.822 104.017 104.709 99.615C111.271 94.215 117.793 88.7706 124.306 83.3095C127.623 80.528 130.948 77.7616 134.314 75.0392C136.023 73.657 137.715 72.2536 139.418 70.865C139.699 70.6368 139.978 70.4085 140.259 70.1803C143.774 72.7545 147.543 74.9612 151.034 77.5775C152.861 78.9492 154.638 80.4096 156.33 81.9459C157.217 82.7514 158.084 83.582 158.929 84.4337C159.702 85.2117 160.448 86.3274 161.544 86.6214C161.694 86.6613 161.836 86.6698 161.969 86.6508C163.435 99.4924 164.477 113.359 158.196 125.021C155.455 130.109 151.57 134.657 146.481 137.502ZM108.493 142.221C107.689 141.484 108.887 140.292 109.688 141.025C114.717 145.634 121.292 148.077 127.934 149.208C129.005 149.391 128.548 151.02 127.484 150.838C120.55 149.658 113.735 147.025 108.493 142.221ZM102.458 149.292C101.498 148.777 102.353 147.318 103.311 147.832C107.229 149.935 111.527 151.027 115.887 151.765C116.959 151.946 116.501 153.575 115.437 153.395C110.93 152.632 106.507 151.465 102.458 149.292ZM118.405 78.0618C121.657 75.1428 125.151 72.3655 128.842 70.0218C132.577 67.6505 136.657 66.2323 141.066 66.1985C140.757 66.4458 140.464 66.7205 140.166 66.976C139.334 67.6885 138.503 68.405 137.673 69.1193C136.012 70.5502 134.347 71.9787 132.708 73.433C129.48 76.2989 126.241 79.15 123.019 82.0223C116.827 87.5427 110.768 93.1835 104.84 98.9874C104.872 98.8457 104.905 98.7041 104.939 98.5627C106.902 90.3622 112.24 83.5968 118.405 78.0618ZM143.893 66.5556C143.914 66.4922 143.929 66.4307 143.937 66.3717C152.398 67.475 159.465 73.7033 161.802 81.9039C161.599 82.1871 161.487 82.5231 161.529 82.8801C161.55 83.06 161.571 83.2417 161.593 83.4214C161.303 83.1341 161.005 82.8655 160.752 82.6098C159.909 81.7559 159.045 80.9251 158.157 80.1156C156.343 78.461 154.458 76.9139 152.472 75.4704C149.018 72.9595 145.278 70.6516 141.161 69.4469C141.431 69.225 141.702 69.003 141.974 68.7832C142.788 68.1215 143.542 67.5764 143.893 66.5556ZM159.062 57.7867C153.867 52.1077 146.673 47.9484 139.097 46.5027C131.863 45.1205 124.374 46.0314 117.54 48.7177C103.239 54.3396 91.9548 66.7017 86.671 81.0268C83.5907 89.373 82.5809 98.5224 83.5064 107.357C84.4274 116.151 87.0745 125.233 91.8914 132.715C92.333 133.4 92.8168 134.057 93.3238 134.693C93.0978 137.276 92.2358 139.808 90.8795 142.01C90.8066 142.128 90.7297 142.244 90.6536 142.36C89.2648 143.4 87.8241 144.377 86.4177 145.384C85.1989 146.258 83.9926 147.154 82.8464 148.121C81.7645 149.034 80.5081 150.051 79.7757 151.284C79.1755 152.293 78.9304 153.666 79.7497 154.629C80.7369 155.789 82.4098 155.38 83.7471 155.38C83.8616 155.38 83.9759 155.383 84.0902 155.384C84.4918 155.636 84.9055 155.865 85.3062 156.077C89.3562 158.225 93.421 160.349 97.49 162.462C105.594 166.674 113.665 171.056 121.936 174.934C125.768 176.733 129.871 178.305 134.164 178.299C138.191 178.292 141.831 176.692 144.975 174.26C148.558 171.489 151.554 167.97 154.46 164.521C155.622 163.14 156.761 161.744 157.879 160.328C160.025 159.611 162.155 159.402 164.069 160.784C165.605 161.894 167.629 160.385 167.665 158.719C167.677 158.128 167.652 157.544 167.589 156.969C167.204 153.418 165.467 150.206 163.511 147.226C162.442 145.596 161.316 143.996 160.184 142.411C159.917 142.037 159.656 141.663 159.402 141.283C163.951 134.583 167.559 127.154 169.777 119.391C172.108 111.222 172.9 102.752 172.38 94.2869C171.582 81.3142 168.024 67.5849 159.062 57.7867Z" fill="black"/>
<path fill-rule="evenodd" clip-rule="evenodd" d="M143.152 128.274C141.731 127.695 140.464 126.728 139.538 125.493C139.216 125.063 139.132 124.61 139.2 124.195C139.276 123.729 139.551 123.306 139.927 123.023C140.305 122.739 140.777 122.598 141.233 122.67C141.629 122.732 142.024 122.949 142.336 123.399L142.401 123.49C142.952 124.235 143.67 124.847 144.488 125.241C145.276 125.621 146.157 125.798 147.07 125.695C148.807 125.499 150.005 124.559 151.277 123.282C151.435 123.121 151.593 122.955 151.752 122.786C151.852 122.633 151.991 122.534 152.145 122.483C152.317 122.425 152.51 122.429 152.688 122.491C152.859 122.55 153.012 122.664 153.115 122.815C153.213 122.958 153.268 123.135 153.25 123.339C153.134 124.662 152.442 125.842 151.46 126.769C150.37 127.799 148.924 128.511 147.563 128.761C146.063 129.036 144.535 128.839 143.152 128.274V128.274ZM148.27 107.866C149.866 108.836 152.297 111.099 150.58 113.504C148.56 115.624 145.652 113.193 144.218 112.093C142.889 111.241 141.396 113.433 142.629 114.428C152.986 122.099 157.189 108.12 149.077 106.726C148.184 106.572 147.852 107.566 148.27 107.866ZM129.71 98.943C129.886 96.7542 133.219 96.2571 133.55 98.4231C133.847 100.363 133.497 102.146 132.624 103.892C131.789 105.561 129.691 104.783 129.532 103.263C129.32 101.226 129.6 100.305 129.71 98.943ZM155.076 97.974C155.541 97.3653 156.211 96.9498 157.015 97.1846C159.526 97.9186 158.786 101.485 157.904 103.221C157.425 104.163 155.876 104.402 155.176 103.572C154.035 102.219 153.489 99.5158 154.939 98.1826C154.979 98.1137 155.022 98.0442 155.076 97.974ZM132.589 89.3655L132.985 89.296C134.212 89.0837 135.738 88.8798 136.606 89.8666C137.066 90.3899 137.225 91.3625 136.606 91.8634C135.517 92.7448 134.314 92.4032 133.01 92.4778C131.935 92.5395 130.902 92.7175 129.866 93.0136C127.595 93.6631 125.744 94.8487 123.804 96.1507C123.549 96.3214 123.289 95.9957 123.411 95.7576C124.531 93.5631 126.701 91.7605 128.875 90.6617C130.035 90.0752 131.305 89.5887 132.589 89.3655ZM152.787 88.3825L153.091 88.4446C156.394 89.1354 160.686 90.5154 162.251 93.7616C162.311 94.2207 162.248 94.319 162.196 94.3833L162.179 94.4047C162.137 94.4596 162.103 94.5353 161.904 94.5977C161.849 94.5846 161.794 94.5706 161.737 94.5559C161.02 94.3679 160.453 94.1089 159.903 93.8401L159.308 93.5466C158.617 93.2077 157.92 92.8811 157.181 92.64C155.605 92.1256 153.983 91.7632 152.336 91.5697C151.979 91.5278 151.636 91.4073 151.365 91.2008C151.107 91.0047 150.911 90.7333 150.821 90.3726C150.705 89.9057 150.738 89.5522 150.989 89.131C151.177 88.8147 151.446 88.5954 151.756 88.4695C152.071 88.3412 152.43 88.3109 152.787 88.3825Z" fill="black"/>
<path fill-rule="evenodd" clip-rule="evenodd" d="M167.178 109.153C164.613 111.805 160.332 112.566 156.919 111.144C148.156 107.481 152.445 96.0577 159.203 92.99C160.047 92.7795 161.175 92.28 162.203 92.1668C162.296 92.1211 162.498 92.2532 162.744 92.1283C170.195 92.9606 171.892 104.532 167.178 109.153M138.915 109.832C136.039 113.649 130.69 114.827 126.32 113.052C117.687 109.651 120.749 99.5213 126.656 95.55C139.133 90.8599 144.285 102.794 138.915 109.832M120.201 101.374C120.193 101.37 120.185 101.369 120.177 101.365C120.222 101.345 120.268 101.325 120.313 101.304C120.299 101.343 120.282 101.381 120.268 101.42C120.246 101.404 120.226 101.386 120.201 101.374M173.117 97.248C172.413 97.2494 171.395 97.3653 170.812 97.8541C169.374 93.003 164.067 88.5133 159.451 91.7871C155.816 92.9565 153.119 95.55 151.586 98.9979C148.822 97.3532 144.476 98.0555 142.079 100.231C140.509 95.0417 136.646 93.2247 132.048 92.9565C127.029 92.1341 122.027 97.0102 120.466 100.922C119.168 100.774 117.229 100.361 116.008 101.162C108.084 99.0833 94.2299 97.9372 92.619 99.0922C91.471 99.5329 90.841 102.244 92.4445 102.39C93.8418 102.191 92.2814 100.404 93.6899 100.209C101.195 99.7432 108.48 101.255 115.906 101.89C116.569 102.782 118.711 103.08 119.854 102.722C118.054 109.357 121.939 113.872 127.76 115.224C136.775 117.295 144.617 109.229 142.26 100.838C144.991 99.479 148.132 99.5373 151.106 100.253C146.135 118.554 175.598 117.733 170.997 98.4812C174.059 100.005 174.724 97.5555 173.117 97.248" fill="black"/>
</g>
<defs>
<clipPath id="clip0_81_21008">
<rect width="240" height="275" fill="white"/>
</clipPath>
</defs>
</svg>
