<svg width="240" height="275" viewBox="0 0 240 275" fill="none" xmlns="http://www.w3.org/2000/svg">
<g clip-path="url(#clip0_81_20990)">
<rect width="240" height="275" fill="#E7ECED"/>
<path fill-rule="evenodd" clip-rule="evenodd" d="M188.18 197.386C187.516 195.563 188.485 193.744 189.023 191.98C190.933 185.864 193.018 179.747 195.969 174.043C197.087 172.134 195.248 169.794 193.117 170.332C189.47 170.843 185.708 170.436 182.055 170.21C180.718 166.752 177.152 165.317 174.345 163.325C171.16 161.337 168.061 159.052 164.749 157.309C164.564 155.661 162.568 155.253 161.346 156.431C157.993 154.344 153.971 154.732 150.375 153.364C147.644 148.947 147.439 144.302 146.715 140.041C146.4 138.183 146.735 136.391 145.466 134.735C141.204 128.738 124.363 126.137 118.153 129.691C114.811 127.606 114.73 131.383 114.199 133.714C113.609 134.88 113.29 136.201 113.389 137.592C109.798 145.094 101.584 148.485 94.2283 151.233C93.3055 150.344 91.9866 150.457 91.1086 151.192C84.7325 152.578 78.5443 155.016 73.2022 158.822C67.1329 160.598 62.8585 165.536 59.7676 170.831C59.4271 171.389 59.3468 171.958 59.4463 172.481C49.9416 186.419 45.4052 203.105 44.7681 219.957C38.6559 223.627 47.6732 256.593 49.7724 263.437C49.7745 263.436 49.7766 263.435 49.7787 263.434C51.1405 265.846 52.6868 272.729 56.095 272.196C58.4329 274.841 62.1586 274.321 65.3312 274.524C64.8144 276.507 65.0683 278.776 65.6833 280.735C66.4107 283.067 69.9803 283.146 70.4865 280.603C102.08 286.744 134.497 281.845 166.446 282.766C175.683 282.832 184.92 283.118 194.135 283.776C195.433 283.869 196.749 282.542 196.66 281.25C194.679 260.163 192.818 232.423 190.603 211.543C190.077 206.781 189.662 201.967 188.18 197.386Z" fill="white"/>
<path fill-rule="evenodd" clip-rule="evenodd" d="M114.721 130.993C114.811 130.745 115.181 130.778 115.188 131.056C115.333 136.985 113.858 144.23 109.115 148.235C106.681 150.291 103.462 151.232 100.506 152.313L100.173 152.436L94.9507 154.382C93.5656 154.898 92.0715 155.692 90.8481 154.963C91.8381 157.419 92.6692 159.942 93.8749 162.309C95.3757 165.256 97.1903 167.951 99.4112 170.403C108.21 180.117 122.134 183.08 134.63 180.234C141.065 178.768 147.326 175.99 151.716 170.924C155.052 167.073 156.969 161.905 157.421 156.807C157.289 156.828 157.15 156.827 157.008 156.796C155.427 156.451 153.831 155.603 152.44 154.772L152.306 154.692C150.967 153.885 149.572 152.962 148.611 151.709C147.657 150.465 146.656 146.408 146.656 146.408C146.383 144.883 146.127 141.845 146.171 140.304C146.175 140.159 146.82 140.073 146.889 140.224C147.485 141.532 147.678 144.408 148.138 145.769L148.231 146.041C148.722 147.464 149.143 149.195 150.162 150.345C152.074 152.504 154.959 153.418 157.534 154.5C157.719 152.06 161.615 152.117 161.565 154.662C161.563 154.8 161.556 154.938 161.552 155.075C161.859 155.244 162.154 155.437 162.43 155.624L162.7 155.807C163.72 156.501 164.748 157.161 165.834 157.749C167.937 158.89 170.163 159.794 172.317 160.828C174.497 161.876 176.535 163.123 178.439 164.617C179.333 165.318 180.19 166.064 181.003 166.858L181.223 167.076C181.997 167.847 183.004 168.709 183.445 169.722C183.542 169.945 184.029 170.465 184.293 170.482C188.387 170.751 192.472 171.13 196.54 171.698C197.593 171.845 198.009 172.388 197.62 173.266C196.282 176.284 191.045 188.336 189.652 191.57C189.815 193.946 189.595 196.743 189.742 199.12C189.956 202.588 190.237 206.055 190.574 209.513C191.778 221.885 193.603 234.197 195.253 246.515C196.079 252.679 196.831 258.853 197.574 265.028C197.95 268.149 198.268 271.272 198.513 274.406C198.615 275.712 198.708 277.019 198.789 278.326L198.86 279.486C198.957 280.945 199.18 282.338 198.277 283.591C197.868 284.159 196.934 284.479 196.395 283.833C195.719 283.022 195.468 282.416 195.403 281.35C195.353 280.534 195.342 279.715 195.304 278.898C195.224 277.128 195.123 275.358 195.005 273.59C194.769 270.055 194.5 266.521 194.187 262.991C193.094 250.616 191.015 238.334 189.632 225.989C188.935 219.766 188.44 213.531 188.177 207.273C188.046 204.148 187.999 201.023 188.029 197.896C188.041 196.727 188.096 195.564 188.177 194.404C186.104 199.113 183.926 203.777 181.649 208.378L181.109 209.468C179.665 212.377 178.183 215.296 176.449 218.038L176.151 218.506C175.448 219.62 174.488 221.376 173.206 221.727C172.314 221.972 171.223 221.8 170.308 221.782C169.399 221.765 168.49 221.761 167.583 221.724C166.564 221.683 165.593 221.549 164.609 221.284C164.446 221.24 164.291 221.192 164.15 221.131C163.159 222.754 161.475 223.99 159.753 224.71C158.373 225.287 156.928 225.682 155.48 226.048L154.968 226.177C153.416 226.563 151.64 226.747 150.765 228.247L150.561 228.595C149.91 229.701 149.286 230.673 148.208 231.466C147.049 232.32 145.675 232.857 144.306 233.275C142.905 233.703 141.471 234.03 140.048 234.381L139.66 234.478C138.721 234.713 137.773 234.929 136.84 235.184C136.441 235.294 136.036 235.406 135.645 235.54C135.187 235.698 134.855 235.943 134.494 236.21C134.169 237.344 132.782 237.96 131.642 237.881C131.043 237.84 130.506 237.637 130.017 237.339C129.164 238.065 128.224 238.716 127.354 239.389C126.136 240.332 124.913 241.268 123.684 242.195C121.149 244.107 118.594 245.993 116.013 247.842C111.432 251.125 106.751 254.257 101.991 257.273C100.006 258.53 98.0079 259.786 95.9901 261.011L96.2055 261.091L96.6326 261.252C97.6422 261.629 98.7672 262.239 98.9629 263.417C99.1179 264.352 98.5961 264.996 97.6737 265.11C96.5774 265.245 95.7243 264.471 95.0417 263.731C94.7405 263.405 94.4033 263.102 94.1147 262.766C93.997 262.629 93.9066 262.471 93.8269 262.305C91.8356 263.479 89.8231 264.613 87.7786 265.674L87.2669 265.938C82.1971 268.531 77.2625 271.372 72.1496 273.892C70.8159 274.55 69.1898 275.261 67.4948 275.746C67.9445 277.49 67.9376 279.405 67.949 281.175C67.9598 282.9 65.2194 282.892 65.2773 281.175L65.3052 280.346C65.3551 278.951 65.4366 277.504 65.7672 276.148C60.7732 276.976 55.7842 275.176 54.8553 274.635C53.83 274.038 52.8993 273.084 52.1248 272.199C50.4674 270.303 49.3173 268.032 48.2969 265.747C46.1111 260.853 44.5625 255.621 43.4303 250.389C39.2563 231.1 41.0517 210.455 47.8302 191.965C49.5237 187.345 51.5231 182.827 53.8143 178.473L54.0988 177.934C56.3852 173.628 58.9263 169.338 62.1541 165.674C65.5162 161.857 69.6636 158.889 74.1793 156.585C76.383 155.46 78.6505 154.486 80.9681 153.622C81.3404 153.483 81.7152 153.359 82.0908 153.24C84.506 151.7 87.4372 150.226 90.3693 150.284C90.5686 150.288 90.73 150.363 90.8504 150.477C90.9917 150.502 91.1331 150.532 91.2746 150.573C91.5871 150.664 91.9171 151.007 91.8723 151.359L91.8571 151.476C91.8488 151.533 91.8384 151.588 91.8205 151.642C91.9253 151.658 92.0282 151.683 92.129 151.717C94.9344 150.924 97.6946 149.712 100.432 148.735L101.056 148.514C103.349 147.711 105.701 146.923 107.582 145.332C109.453 143.749 110.86 141.699 111.877 139.483C113.13 136.753 113.692 133.796 114.721 130.993ZM170.888 274.99C171.444 274.577 172.101 275.056 172.308 275.568C172.991 277.247 172.654 279.856 171.692 281.341C170.695 282.879 168.309 282.272 168.251 280.409C168.191 278.466 169.32 276.158 170.888 274.99ZM176.626 228.622C176.676 228.404 177.015 228.406 177.065 228.622C177.528 230.593 177.517 232.715 177.653 234.735L177.669 234.959C177.831 237.187 177.968 239.421 178.066 241.652C178.258 246.043 178.487 250.434 178.743 254.822C178.871 256.997 179.007 259.173 179.153 261.347C179.609 261.093 180.078 260.87 180.565 260.673C181.294 260.378 182.004 260.344 182.788 260.352C183.742 260.362 184.461 261.202 184.334 262.137C184.197 263.155 183.3 263.592 182.369 263.447C181.338 263.285 180.303 263.035 179.262 262.931C179.378 264.613 179.498 266.294 179.625 267.974C179.793 270.199 180.013 272.42 180.167 274.646C180.182 274.858 180.198 275.07 180.214 275.284C180.835 274.961 181.494 274.795 182.241 274.592L182.435 274.537C183.52 274.226 184.68 273.795 185.684 274.524C186.359 275.015 186.494 275.822 185.935 276.469C185.087 277.451 183.833 277.261 182.662 277.21L182.032 277.187C181.439 277.164 180.891 277.126 180.342 276.976C180.443 278.426 180.496 279.881 180.318 281.31C180.222 282.082 179.206 282.284 178.937 281.496C178.235 279.438 178.09 277.218 177.833 275.062C177.593 273.049 177.447 271.02 177.289 268.998L177.242 268.391C176.888 263.942 176.605 259.489 176.399 255.031C176.192 250.572 176.068 246.115 176.018 241.652C175.996 239.626 176.029 237.592 176.108 235.566L176.134 234.959C176.225 232.875 176.161 230.664 176.626 228.622ZM83.7897 275.318C83.8167 275.034 84.0447 274.68 84.3837 274.724C84.6962 274.765 85.0182 274.745 85.3273 274.797C85.7352 274.864 86.0635 275.106 86.443 275.257C87.0597 275.504 87.7319 275.631 88.3647 275.833C89.5518 276.212 90.1987 277.462 89.7071 278.63C89.1901 279.857 87.891 280.136 86.7685 279.621C85.8838 279.215 85.2243 278.566 84.6294 277.815L84.4608 277.601C84.2044 277.278 83.9135 276.918 83.8059 276.528C83.7013 276.147 83.7529 275.706 83.7897 275.318ZM141.465 269.549C142.944 269.34 144.207 269.846 145.575 270.323L145.686 270.361C147.079 270.842 149.11 271.175 149.824 272.601C150.255 273.46 149.92 274.602 148.907 274.857C147.302 275.259 145.863 274.086 144.536 273.296L144.467 273.255C143.186 272.504 141.864 271.873 141.046 270.579C140.828 270.234 141.017 269.612 141.465 269.549ZM89.8487 151.913C89.2563 152.045 88.6639 152.163 88.0721 152.275C85.8211 153.482 83.6362 154.735 81.312 155.81C78.8461 156.951 76.3893 158.13 74.0469 159.51C69.3148 162.299 65.4137 165.925 62.1902 170.369C56.622 178.047 52.4801 186.9 49.5158 195.884C48.7542 198.192 48.0726 200.526 47.4697 202.879C48.5357 201.893 49.7978 201.286 51.2131 200.767C51.8129 200.547 52.5595 200.92 52.8636 201.439C53.0002 201.672 53.0774 201.903 53.0632 202.177C53.0317 202.781 52.6388 203.467 51.9902 203.587C50.4781 203.866 49.0079 204.408 47.55 204.886C47.329 204.958 47.139 204.931 46.9874 204.846C45.54 210.979 44.6345 217.238 44.3138 223.535C44.0425 228.866 44.2098 234.239 44.8001 239.563C45.2537 239.359 45.6974 239.168 46.1947 239.052C46.8397 238.902 47.4741 238.719 48.1033 238.513C49.9189 237.917 50.7471 240.916 48.8913 241.373C48.2007 241.543 47.5058 241.684 46.8021 241.788C46.1888 241.878 45.6462 241.838 45.068 241.744C45.5097 245.065 46.1131 248.362 46.8817 251.613L47.0513 252.324C48.0497 256.475 49.2133 260.665 50.896 264.589C51.7214 266.513 52.8143 268.341 54.1637 269.945C54.8267 270.734 55.5625 271.411 56.3649 272.052C57.0329 272.585 59.3037 273.742 61.993 273.742C64.6824 273.742 65.4105 273.488 66.7673 273.021C69.4506 272.097 71.9983 270.622 74.5147 269.308L74.775 269.173C75.8877 268.597 76.9962 268.012 78.1018 267.423C77.9621 266.295 78.2066 265.348 78.7939 264.307C79.4288 263.18 81.0018 263.741 81.1188 264.894L81.1225 264.938C81.1402 265.197 81.1838 265.462 81.2379 265.726C88.6303 261.675 95.8662 257.34 102.987 252.823C107.574 249.914 112.112 246.917 116.584 243.833C118.819 242.291 121.035 240.721 123.229 239.121C124.378 238.283 125.522 237.438 126.661 236.585C127.135 236.23 127.601 235.857 128.076 235.5C127.96 235.356 127.848 235.212 127.739 235.069C125.964 232.744 124.812 229.973 124.238 227.114C123.892 225.389 123.724 223.598 123.673 221.839L123.651 221.074C123.616 219.786 123.607 218.437 123.844 217.189C123.521 217.366 123.191 217.541 122.862 217.727C121.682 218.396 120.5 219.063 119.317 219.728C116.948 221.057 114.571 222.372 112.164 223.633C107.865 225.886 103.524 228.029 99.0659 229.95L96.8965 230.885C93.1315 232.506 89.3357 234.096 85.4212 235.301C83.2132 235.98 80.9886 236.56 78.7489 237.078L79.6546 238.14C80.2688 238.859 80.2795 239.892 79.4947 240.498C78.7231 241.093 77.6879 240.845 77.1739 240.054L76.2369 238.613C76.0367 238.304 75.923 238.016 75.8586 237.712C74.8269 237.928 73.7925 238.135 72.7553 238.335L70.7946 238.71C67.9949 239.25 65.2803 240.321 62.7777 241.691C61.9078 242.167 61.6654 241.242 62.5871 240.597C65.2824 238.712 68.4263 237.646 71.6701 236.75L71.8295 236.707C73.0195 236.381 74.2075 236.041 75.3929 235.689C75.2626 235.217 75.1874 234.727 75.2024 234.188C75.2357 232.985 75.342 231.779 75.4058 230.577C75.5398 228.055 75.7107 225.541 75.9109 223.024C75.9879 222.055 76.074 221.082 76.1727 220.111C75.537 219.77 74.9888 219.317 74.28 219.094L74.1604 219.06C73.4024 218.855 73.6582 217.878 74.3315 217.794C74.9414 217.719 75.5484 217.754 76.1497 217.883C76.2429 217.903 76.331 217.926 76.415 217.951C76.5255 217.051 76.6481 216.154 76.7873 215.261C77.1555 212.903 77.416 210.418 78.1825 208.152C78.2393 207.985 78.4884 207.925 78.5807 208.1C79.6958 210.222 79.7346 212.826 79.8602 215.189L79.8758 215.471C80.0239 218.049 80.0324 220.652 79.9846 223.234C79.9356 225.894 79.8445 228.548 79.7252 231.206C79.6772 232.277 79.6791 233.387 79.4968 234.411C86.1323 232.253 92.6505 229.67 98.8983 226.611C103.306 224.454 107.675 222.21 111.994 219.882C114.158 218.716 116.333 217.569 118.495 216.398C119.252 215.988 120.009 215.576 120.766 215.164L121.9 214.545C122.962 213.965 123.848 213.388 125.085 213.348C125.454 213.336 125.784 213.508 126.019 213.77C126.684 213.298 127.452 213.009 128.258 213.016C129.472 211.339 130.704 209.676 131.985 208.049L132.931 206.844C134.57 204.766 136.305 202.656 138.394 201.074C139.326 200.369 140.352 199.839 141.421 199.402C141.169 199.34 140.923 199.216 140.704 199.013C139.682 198.065 139.541 196.305 139.334 194.983C139.119 193.612 139.202 192.385 139.414 191.018C139.497 190.487 140.376 190.377 140.591 190.865C141.043 191.893 141.522 192.879 141.934 193.919L142.055 194.233C142.497 195.404 143.438 196.635 143.376 197.905C143.359 198.254 143.242 198.557 143.062 198.801C143.96 198.503 144.871 198.237 145.767 197.959C148.589 197.087 151.422 196.239 154.298 195.563C155.064 195.383 155.833 195.215 156.606 195.062C157.01 193.14 157.6 191.253 158.296 189.4C157.637 189.062 157.211 188.496 156.644 187.993C156.113 187.522 155.749 186.948 155.296 186.407C154.884 185.915 155.115 185.025 155.856 185.054L156.066 185.063C156.833 185.099 157.576 185.178 158.272 185.536L158.52 185.664C158.86 185.841 159.232 186.043 159.564 186.282C159.997 185.285 160.447 184.297 160.903 183.319L161.494 182.055C163.026 178.763 164.554 175.347 166.478 172.282C167.333 170.92 168.471 170.069 170.104 169.938C171.787 169.802 173.535 169.977 175.22 170.037C177.173 170.107 179.125 170.19 181.076 170.293C180.575 169.769 180.119 169.186 179.617 168.683C178.783 167.849 177.903 167.058 176.977 166.328C175.144 164.882 173.13 163.691 171.037 162.665C168.944 161.639 166.79 160.744 164.825 159.476C163.582 158.674 162.47 157.665 161.456 156.573C160.818 163.46 157.493 169.86 152.499 174.668C147.311 179.661 140.142 182.404 133.128 183.571C125.975 184.761 118.509 184.324 111.666 181.837C108.137 180.554 104.753 178.722 101.735 176.423C101.702 176.623 101.662 176.821 101.584 177.007C101.479 177.256 101.35 177.469 101.202 177.688L100.939 178.073C100.773 178.315 100.604 178.555 100.416 178.779C99.9598 179.323 99.3135 179.561 98.6174 179.558C97.2845 179.554 96.275 178.246 96.6338 176.953C96.8592 176.141 97.3415 175.652 98.0945 175.333C98.3324 175.233 98.575 175.149 98.8189 175.066L99.0021 175.004C99.2486 174.919 99.4933 174.839 99.747 174.792C98.318 173.53 96.9921 172.158 95.8048 170.677C92.0807 166.034 88.4076 159.53 89.6526 153.363C89.6742 153.258 89.7695 153.191 89.8721 153.174C89.9444 152.741 90.1747 152.323 90.4901 152.041C90.2778 151.985 90.0638 151.942 89.8487 151.913ZM128.519 258.538C129.256 258.127 130.018 259.102 129.419 259.704L128.524 260.6C127.693 261.435 126.885 262.279 126.174 263.23L126.002 263.463C125.042 264.769 124.019 266.282 122.447 266.77C120.545 267.361 118.717 265.043 119.819 263.35C120.781 261.871 122.633 261.313 124.23 260.701C125.741 260.122 127.106 259.323 128.519 258.538ZM67.1663 251.71C67.5996 251.143 68.7294 251.442 68.4334 252.245C67.472 254.852 67.0801 258.408 64.6518 260.141C63.8684 260.699 62.6377 260.443 61.9927 259.797C61.2598 259.064 61.2305 258.032 61.6496 257.137C62.1608 256.046 63.4182 255.255 64.2995 254.424L64.3786 254.348C65.3268 253.427 66.3522 252.776 67.1663 251.71ZM168.657 254.712C169.43 254.378 171.446 253.73 172.043 254.497C172.071 254.525 172.095 254.556 172.114 254.59C172.261 254.845 172.283 255.204 172.114 255.456C171.418 256.503 170.693 257.284 169.704 258.029L169.593 258.112C168.515 258.904 167.503 259.835 166.19 260.192C164.37 260.688 163.099 258.408 164.377 257.078C165.407 256.005 166.979 255.449 168.343 254.851L168.657 254.712ZM95.5825 239.812C95.278 239.261 95.9 238.586 96.4633 238.93C98.0699 239.913 99.9416 240.65 101.746 241.179C102.477 241.393 103.136 242.134 103.081 242.933L103.073 243.054C103.051 243.336 103.012 243.617 102.833 243.851C102.204 244.674 101.305 244.991 100.345 244.504C98.2052 243.419 96.7404 241.905 95.5825 239.812ZM142.543 238.145C142.503 237.913 142.673 237.735 142.908 237.779C144.266 238.037 145.52 238.693 146.686 239.447C147.311 239.852 147.914 240.296 148.538 240.704C149.309 241.209 149.597 241.625 149.711 242.551C149.786 243.162 149.216 243.72 148.693 243.888C147.268 244.348 145.635 242.84 144.67 241.859L144.626 241.815C143.616 240.785 142.782 239.566 142.543 238.145ZM183.324 236.544C183.014 235.708 184.081 235.014 184.779 235.425C185.435 235.812 186.148 236.132 186.768 236.575C187.337 236.983 187.856 237.465 188.402 237.907L188.672 238.12C189.674 238.926 191.326 240.917 189.895 242.073C188.532 243.172 186.725 241.768 185.81 240.741L185.747 240.669C185.22 240.06 184.572 239.4 184.19 238.689C183.83 238.021 183.587 237.254 183.324 236.544ZM169.885 171.818C168.178 172.15 167.482 174.257 166.764 175.631C165.067 178.873 163.507 182.175 161.941 185.481C161.458 186.497 160.989 187.522 160.515 188.545C160.486 188.625 160.449 188.704 160.405 188.782C159.434 190.873 158.434 192.95 157.266 194.934C158.335 194.734 159.41 194.563 160.489 194.429C160.435 193.413 161.13 192.053 161.474 191.197L161.503 191.125C161.932 190.028 162.382 188.301 163.486 187.732C163.854 187.543 164.248 187.78 164.276 188.186C164.36 189.392 163.18 190.774 162.603 191.798C162.254 192.418 161.915 193.04 161.583 193.669C161.459 193.905 161.355 194.136 161.228 194.344C161.784 194.283 162.341 194.23 162.9 194.191L163.264 194.166C165.335 194.029 167.534 193.99 169.405 195.012C171.141 195.959 172.029 197.982 171.075 199.824C169.887 202.119 167.271 202.423 164.97 202.609C162.096 202.84 159.216 203.259 156.363 203.667C153.411 204.09 150.632 205.178 147.725 205.738C147.454 205.79 147.286 205.436 147.534 205.285C149.827 203.888 152.615 203.12 155.179 202.337L155.387 202.273C156.778 201.846 158.137 201.358 159.576 201.115C160.972 200.88 162.378 200.69 163.786 200.545L163.923 200.532C165.474 200.402 169.431 200.446 169.264 198.149C169.153 196.628 166.683 196.366 165.555 196.348C160.384 196.265 155.177 197.638 150.263 199.109L149.166 199.438C147.154 200.044 145.139 200.667 143.164 201.377C140.927 202.181 139.164 203.435 137.535 205.152C135.728 207.056 133.978 209.002 132.104 210.842C130.922 212.001 129.725 213.14 128.519 214.27C128.246 214.623 128.028 215.007 127.877 215.505C127.622 216.347 127.681 217.129 127.777 217.993C128.02 220.176 128.074 222.382 128.378 224.558C128.66 226.574 129.055 228.665 129.892 230.535C130.223 231.275 130.654 232.003 131.146 232.653L131.542 233.169C131.715 233.393 131.908 233.638 132.111 233.868C132.409 233.505 132.84 233.268 133.341 233.328C134.405 233.453 135.242 233.423 136.286 233.178C137.095 232.989 137.897 232.767 138.701 232.562C140.282 232.159 141.876 231.792 143.44 231.329L143.709 231.248C144.875 230.89 146.041 230.442 147.011 229.689C148.138 228.815 148.485 227.553 149.32 226.461C151.102 224.131 154.955 224.18 157.563 223.542C159.78 223 161.913 222.144 163.447 220.535L163.536 220.439C163.468 220.152 163.578 219.828 163.845 219.679L163.903 219.647C164.007 219.589 164.119 219.565 164.229 219.567C164.371 219.358 164.509 219.142 164.634 218.912C164.736 218.722 164.993 218.862 164.959 219.049C164.939 219.161 164.911 219.27 164.885 219.379C166.371 218.997 168.003 219.07 169.511 219.071L171.469 219.064C171.808 219.06 172.313 219.043 172.358 219.022L172.404 219.002C172.526 218.949 172.353 219.036 172.438 218.923C172.532 218.798 172.624 218.672 172.715 218.544C173.04 218.09 173.347 217.622 173.647 217.15C170.369 217.986 166.972 218.506 163.625 218.939C160.033 219.405 156.394 219.728 152.771 219.731C151.772 219.732 151.781 218.223 152.771 218.186C156.608 218.039 160.425 217.836 164.236 217.344C166.207 217.089 168.17 216.77 170.121 216.396C170.875 216.252 171.626 216.099 172.376 215.938L172.938 215.815C173.291 215.737 174.287 215.625 174.773 215.299C174.869 215.135 174.964 214.971 175.059 214.807C175.012 214.231 173.549 214.308 173.206 214.307C172.233 214.305 171.26 214.313 170.286 214.316C168.34 214.321 166.395 214.304 164.448 214.289C160.56 214.257 156.657 214.121 152.772 214.287C151.829 214.328 151.334 212.815 152.266 212.417C156.381 210.659 160.949 210.277 165.343 209.737C167.654 209.453 169.966 209.125 172.224 208.55L172.783 208.408C174.202 208.044 175.769 207.6 176.964 206.733C175.168 206.006 172.935 206.089 171.074 205.986L170.931 205.978C168.324 205.818 165.713 205.736 163.101 205.732C157.757 205.725 152.412 205.914 147.074 206.168C146.94 206.174 146.912 205.962 147.043 205.934C152.529 204.737 158.105 204.16 163.72 204.071C166.334 204.029 168.951 204.066 171.563 204.182L172.522 204.226C174.749 204.322 177.221 204.348 179.085 205.694C179.369 205.899 179.519 206.161 179.542 206.438C182.042 201.454 184.35 196.365 186.668 191.31C188.47 187.38 190.205 183.417 192.072 179.517L192.677 178.256C193.487 176.572 194.316 174.889 195.237 173.266C191.793 172.806 188.33 172.486 184.865 172.241C181.707 172.018 171.405 171.524 169.885 171.818ZM168.36 225.839C168.753 225.62 169.355 225.798 169.451 226.283C169.523 226.643 169.646 227.044 169.646 227.413C169.646 227.855 169.488 228.335 169.404 228.768C169.21 229.763 168.972 230.571 168.466 231.457C168.15 232.011 167.511 232.387 166.869 232.373C166.361 232.361 165.911 232.225 165.562 231.831C165.144 231.359 164.857 230.666 165.086 230.031C165.687 228.368 166.79 226.711 168.36 225.839ZM85.0577 224.179C85.9767 222.569 88.1551 221.13 90.056 221.272C92.9105 221.486 93.4929 225.331 90.7293 226.248C89.0774 226.797 86.8048 226.234 85.3598 225.331C84.9702 225.088 84.8274 224.583 85.0577 224.179ZM55.7215 218.678C55.5127 218.374 55.8577 218.028 56.1687 218.096C56.8585 218.247 57.6022 218.314 58.2778 218.519C58.9697 218.73 59.6394 219.079 60.3248 219.319C61.7606 219.822 63.2941 220.075 64.6837 220.682C65.2391 220.925 65.676 221.73 65.6246 222.323L65.6115 222.462C65.5808 222.756 65.5298 223.013 65.3652 223.282C64.923 224.005 64.0469 224.378 63.22 224.155C61.686 223.743 60.187 222.684 58.8791 221.804L58.6374 221.644C58.0659 221.267 57.4515 220.873 56.991 220.389C56.5103 219.882 56.1153 219.251 55.7215 218.678ZM108.453 212.821C108.276 212.185 109.068 211.765 109.529 212.195C110.45 213.054 111.414 213.85 112.316 214.731L112.377 214.791C113.023 215.441 113.964 216.693 113.123 217.533C112.046 218.611 110.546 217.012 109.968 216.179C109.236 215.122 108.796 214.057 108.453 212.821ZM178.975 207.562C177.608 209.01 175.502 209.676 173.647 210.228C171.448 210.882 169.183 211.272 166.915 211.594C164.723 211.904 162.549 212.181 160.392 212.537C162.024 212.558 163.655 212.57 165.282 212.599C167.16 212.633 169.036 212.674 170.912 212.728C172.279 212.768 173.882 212.58 175.181 213.088C175.415 213.18 175.634 213.307 175.825 213.461C176.916 211.519 177.963 209.55 178.975 207.562ZM94.6498 194.015C96.0767 193.562 97.4185 192.96 98.9312 193.117C99.3332 193.158 99.6212 193.549 99.4017 193.936C98.6848 195.198 97.5191 195.911 96.3716 196.755L96.2705 196.83C95.0145 197.764 93.6659 198.616 92.3001 199.383C89.9485 200.703 87.8411 196.924 90.2159 195.816C91.645 195.148 93.146 194.493 94.6498 194.015ZM120.34 190.735C122.523 190.879 124.705 190.976 126.89 191.065C129.422 191.167 128.571 195.065 126.456 194.276C124.367 193.497 122.277 192.727 120.169 192C119.527 191.779 119.579 190.724 120.299 190.733L120.34 190.735ZM64.3484 183.801C64.9142 183.762 65.4849 183.885 66.0515 183.94L66.6544 183.999C67.8973 184.122 69.0626 184.275 70.2479 184.781C72.4349 185.715 71.2603 189.232 69.0648 189.151C67.442 189.091 66.0544 188.394 64.6842 187.583C63.4863 186.873 62.7519 185.985 61.943 184.871C61.6751 184.502 62.0484 184.089 62.4132 184.052C63.0559 183.986 63.7056 183.846 64.3484 183.801ZM173.979 176.619C173.617 178.878 172.719 180.995 171.365 182.839C170.685 183.765 169.491 183.8 168.817 182.839C167.863 181.479 168.451 179.92 169.169 178.614L169.382 178.232C169.704 177.658 170.198 176.821 170.762 176.244L170.772 176.185C171.074 173.819 174.352 174.291 173.979 176.619ZM85.683 162.121C86.2272 161.63 87.2295 161.778 87.4061 162.576C87.6533 163.693 87.8037 164.953 87.6419 166.087C87.5542 166.702 87.5212 167.392 87.2795 167.965C87.0197 168.581 86.5198 169.055 86.0489 169.519C85.1088 170.443 83.1269 170.138 82.875 168.68L82.8431 168.502C82.7164 167.812 82.5544 167.075 82.7419 166.392C82.8835 165.876 83.1999 165.35 83.4617 164.872L83.5169 164.77C84.0412 163.793 84.8586 162.863 85.683 162.121ZM162.181 164.498L162.378 164.5C163.897 164.53 166.674 164.9 166.689 166.778C166.692 167.221 166.365 167.679 165.926 167.781C165.018 167.992 164.431 167.455 163.783 166.913C163.254 166.469 162.637 166.115 161.997 165.861C161.304 165.585 161.35 164.497 162.181 164.498Z" fill="black"/>
<path fill-rule="evenodd" clip-rule="evenodd" d="M119.872 55.5158C151.894 53.9405 166.344 76.4954 167.279 86.5695C167.928 93.5626 163.798 101.623 163.798 107.872C163.798 111.061 167.701 117.909 165.884 122.558C161.839 132.906 153.274 144.389 142.36 144.389C131.446 144.389 117.242 147.409 105.182 130.135C104.051 128.514 89.7386 119.302 88.3481 110.549C84.8847 88.745 97.0235 56.6399 119.872 55.5158Z" fill="white"/>
<path fill-rule="evenodd" clip-rule="evenodd" d="M118.363 41.4791C119.508 40.1687 121.441 39.6446 123.159 39.746C125.654 39.894 127.824 41.4347 130.306 41.5488C132.909 41.6693 135.421 40.7668 138.03 41.1853C139.629 41.4432 141.214 42.185 142.238 43.4362C145.788 42.4196 149.641 43.7659 151.902 46.7058C154.691 46.2725 157.724 48.1199 158.578 50.8081C162.121 50.9222 165.465 53.7691 165.86 57.3367C167.276 57.7108 168.505 58.6874 169.26 59.9786C170.136 61.4749 170.282 63.1911 170.124 64.8777C171.791 65.7294 172.638 67.5597 172.86 69.4957C174.383 70.6327 175.044 72.6765 174.733 74.6061C175.9 75.2634 176.502 76.7936 176.495 78.1589C176.489 79.4334 176.151 80.5622 176.627 81.792C177.05 82.8874 177.202 83.8003 176.969 84.9477L176.945 85.0595C176.904 85.2466 176.87 85.426 176.839 85.6029C177.154 85.8798 177.421 86.2268 177.621 86.6305C178.352 88.1057 178.243 89.7883 177.686 91.2844C177.93 92.2372 177.899 93.2436 177.538 94.1594C178.213 95.1327 178.569 96.3264 178.464 97.5649C178.347 98.9516 177.714 100.193 176.754 101.111C177.01 103.005 176.24 105.052 174.848 106.386C175.046 107.519 174.875 108.708 174.255 109.783C173.813 110.549 173.218 111.12 172.532 111.517C172.554 112.15 172.469 112.797 172.258 113.445C171.966 114.345 171.472 115.173 170.82 115.841C171.209 118.326 169.722 121.083 167.104 121.781C166.884 121.839 166.674 121.866 166.473 121.87C166.213 124.26 165.645 126.617 164.766 128.856C162.531 134.556 158.466 139.539 153.165 142.648C150.543 144.185 147.598 145.237 144.592 145.677C142.429 145.994 140.348 145.916 138.176 145.7C135.45 145.427 132.712 145.02 130.063 144.318L129.637 144.205C128.539 143.91 127.381 143.571 126.429 142.978C125.364 142.314 124.811 141.291 124.566 140.087C124.429 139.416 124.854 138.695 125.588 138.681L125.635 138.681C125.795 138.685 125.955 138.678 126.116 138.668L126.237 138.66H126.243C126.252 138.658 126.256 138.658 126.264 138.658C126.336 138.647 126.406 138.626 126.476 138.616C127.283 138.48 127.989 138.615 128.747 138.867L128.842 138.899C130.118 139.338 131.383 139.746 132.702 140.049C134.064 140.359 135.444 140.607 136.828 140.801L136.965 140.818L137.007 140.824L137.029 140.826V140.826C137.033 140.826 137.037 140.826 137.041 140.828L137.449 140.879V140.879C137.77 140.917 138.091 140.951 138.412 140.985C139.004 141.044 139.595 141.091 140.187 141.124C150.398 141.699 158.973 133.657 161.561 124.016C162.499 120.526 162.56 117.045 162.283 113.562C162.195 113.309 162.142 113.027 162.144 112.719C162.144 112.558 162.153 112.4 162.163 112.239C161.819 108.87 161.221 105.499 160.847 102.118C160.41 98.1675 160.167 94.1943 160.255 90.2186C160.3 88.2551 160.509 86.3107 160.783 84.3665L160.883 83.668V83.668C159.642 83.4256 158.488 82.8367 157.569 81.9844C155.575 83.1362 152.994 83.2383 151.026 82.022C148.82 83.4057 145.739 83.5312 143.518 82.1784C142.175 83.1371 140.484 83.5507 138.824 83.1867C138.077 83.0232 137.334 82.6691 136.698 82.179C136.244 82.2591 135.784 82.2902 135.327 82.2663L135.233 82.3191V82.3191C134.178 82.875 133.01 83.2408 131.809 83.2001C130.919 83.17 130.002 82.9944 129.153 82.6622C128.247 83.2096 127.255 83.5832 126.193 83.7172C124.643 83.9127 122.97 83.5697 121.681 82.6901C119.325 84.0326 116.428 84.2393 113.885 83.3372C113.364 84.2196 112.643 84.9805 111.8 85.567C111.951 86.1084 111.999 86.6859 111.947 87.2411C111.862 88.1549 111.633 88.9744 111.258 89.7103C111.653 90.532 111.772 91.541 111.551 92.5538C111.236 93.9981 110.396 95.2546 109.308 96.2332C109.212 98.5382 107.948 100.699 105.892 101.9C105.788 101.961 105.684 102.01 105.581 102.055C105.49 102.179 105.382 102.288 105.258 102.381C103.95 103.589 101.88 103.493 100.241 102.81C100.209 102.812 100.178 102.814 100.146 102.815C99.5603 102.83 99.1612 102.602 98.9243 102.266C98.6858 102.278 98.449 102.304 98.2105 102.348C97.3398 102.511 96.3849 102.824 95.5969 103.23C93.5518 104.282 92.6053 106.142 92.3222 108.378C92.014 110.817 92.7152 113.302 94.602 114.953C95.5187 115.756 96.6912 116.259 97.8828 116.47C99.199 116.705 100.606 116.128 101.578 117.259C101.772 117.483 101.905 117.796 101.8 118.098C101.47 119.04 100.927 119.402 100.078 119.533C101.305 120.989 102.564 122.397 103.959 123.705C105.467 125.123 107.026 126.497 108.387 128.061C109.826 129.716 111.125 131.47 112.027 133.478C112.543 134.632 112.957 135.822 113.403 137.003L113.482 137.209C113.98 138.464 114.641 139.674 113.876 140.985C113.572 141.501 112.883 141.999 112.249 141.917C110.464 141.689 109.866 140.482 109.317 138.909C108.903 137.722 108.586 136.5 108.14 135.323C108.057 135.105 107.966 134.889 107.87 134.675C106.841 134.962 105.709 134.734 104.791 134.147C103.809 134.582 102.722 134.799 101.672 134.781C100.265 134.756 98.9807 134.365 97.8762 133.66C97.7883 133.637 97.7 133.614 97.6124 133.589C95.9322 134.233 93.9644 134.118 92.4431 133.075C91.4579 132.399 90.7844 131.497 90.4016 130.493C89.1287 130.469 87.8695 130.017 86.9575 129.114C86.12 128.285 85.6305 127.215 85.4852 126.103C84.3895 125.886 83.3624 125.356 82.5568 124.463C81.8841 123.718 81.4753 122.768 81.3372 121.783C80.0028 121.402 78.7994 120.53 78.1422 119.315C77.5305 118.184 77.4422 116.956 77.7414 115.84L77.6638 115.728V115.728C76.2893 115.009 75.2404 113.831 75.1326 112.148C75.1022 111.669 75.1538 111.189 75.2837 110.736C75.2368 110.229 75.2668 109.722 75.3997 109.232C73.5511 107.433 72.8814 104.544 73.8849 102.156C72.0786 100.211 71.6011 97.1361 72.9257 94.8283C72.0173 93.7291 71.5504 92.3278 71.6286 90.8315C71.7257 88.9634 72.5814 87.3315 73.606 85.8204C72.8455 84.9792 72.4398 83.8062 72.4696 82.6734C72.5117 81.0312 73.3842 79.6172 74.4767 78.4464C73.5236 75.5551 74.5884 72.4187 76.9272 70.5884C76.4539 69.8085 76.2786 68.8426 76.433 67.8641C76.7032 66.1542 77.9856 64.9897 79.3694 64.0682C79.08 63.1258 79.156 62.109 79.6166 61.1347C80.2314 59.8349 81.3912 59.0106 82.6018 58.3131C82.9145 55.4303 86.1342 52.9681 88.8342 54.456C88.1645 52.3108 90.0936 49.9944 92.3119 49.7492C93.3976 46.4564 97.1433 44.3809 100.511 45.1989C102.233 42.8444 105.438 41.9379 108.159 42.948C111.151 40.6548 114.862 40.3146 118.363 41.4791ZM97.0526 106.133C99.1547 106.019 100.731 107.735 101.838 109.306C102.877 110.779 100.211 112.334 99.4336 110.711C99.1547 110.132 98.8378 109.519 98.4132 109.012C98.3419 109.112 98.2789 109.215 98.2162 109.321L98.1533 109.428C98.1069 109.507 98.0583 109.587 98.0181 109.669C98.0223 109.684 97.959 109.879 97.9569 109.887C97.7836 110.413 97.4054 110.751 96.8902 110.933C96.2245 111.166 95.5949 110.665 95.3815 110.077C95.0416 109.139 95.8315 108.321 96.6533 107.949C95.8463 107.818 95.0519 108.093 94.4688 108.714C94.3888 108.801 94.2533 108.731 94.2493 108.623C94.1815 107.15 95.7216 106.205 97.0526 106.133Z" fill="black"/>
<path fill-rule="evenodd" clip-rule="evenodd" d="M153.708 116.647C154.02 116.239 154.781 118.017 154.936 118.234L154.943 118.244C155.62 119.064 156.173 120.318 156.251 121.37C156.253 121.402 156.253 121.432 156.253 121.463C157.338 121.314 158.424 121.162 159.509 120.996C159.928 120.68 160.515 120.778 161.083 121.065C162.35 121.705 161.734 123.737 160.369 123.705C156.678 123.617 152.908 124.091 149.248 124.518C147.365 124.737 145.487 124.97 143.614 125.268C141.864 125.546 140.076 125.939 138.305 126.015C138.208 126.019 138.168 125.875 138.255 125.83C139.816 125.028 141.599 124.543 143.285 124.073C145.109 123.564 146.946 123.087 148.796 122.684C150.457 122.323 152.126 122.052 153.798 121.809C153.786 121.776 153.773 121.742 153.762 121.707C153.55 120.995 153.556 120.178 153.511 119.428L153.484 119.03C153.443 118.343 153.402 117.047 153.708 116.647ZM148.271 107.866C149.866 108.836 152.297 111.098 150.581 113.503C148.56 115.624 145.652 113.193 144.219 112.093C142.89 111.241 141.396 113.433 142.629 114.428C152.986 122.099 157.19 108.12 149.078 106.726C148.184 106.572 147.853 107.566 148.271 107.866ZM122.62 99.3277C125.275 98.9225 127.994 98.876 130.676 99.01C132.071 99.0796 133.464 99.1831 134.853 99.3209C135.579 99.393 136.304 99.4737 137.027 99.5644C137.546 99.6295 138.347 99.9267 138.84 99.7914C140.347 99.3786 141.777 100.805 141.362 102.314C140.95 103.812 139.183 104.207 138.047 103.307C137.508 103.117 136.966 102.937 136.421 102.769C136.38 102.941 136.319 103.111 136.233 103.275C136.136 103.459 136.043 103.644 135.954 103.832C135.973 103.802 135.827 104.152 135.823 104.162L135.707 104.467C135.503 104.993 135.275 105.492 134.723 105.764C133.963 106.139 132.772 105.932 132.465 105.039C131.985 104.099 132.303 102.786 132.577 101.813L132.599 101.738C129.286 100.95 125.918 100.359 122.62 99.557C122.512 99.5308 122.501 99.3459 122.62 99.3277ZM162.02 95.7926C162.193 95.4474 162.584 95.4459 162.816 95.7702C163.333 96.4899 162.175 97.5208 161.692 97.9997L161.644 98.0481C160.558 99.1505 159.233 100.039 157.92 100.842C157.644 101.011 157.365 101.171 157.084 101.33C157.136 101.434 157.183 101.541 157.222 101.65C157.421 102.212 157.424 102.883 157.245 103.45C156.872 104.634 155.879 105.58 154.592 105.579C153.913 105.578 153.109 104.936 153.201 104.187C153.234 103.921 153.26 103.637 153.301 103.354C152.396 103.655 151.284 103.302 150.708 102.555C149.907 101.517 150.127 99.816 151.354 99.1714C152.255 98.6976 153.251 98.5779 154.227 98.3275C155.197 98.0794 156.159 97.7943 157.108 97.4758C158.044 97.1617 158.975 96.8252 159.905 96.4928C160.365 96.3281 160.82 96.1764 161.288 96.0369C161.497 95.9747 161.798 95.8114 162.02 95.7926Z" fill="black"/>
<path fill-rule="evenodd" clip-rule="evenodd" d="M157 133.092C156.263 132.851 155.538 132.57 154.811 132.299C151.091 130.43 146.597 130.091 142.695 131.665C140.78 132.438 138.995 133.826 137.073 134.736C136.617 134.906 136.157 135.061 135.691 135.191C135.406 135.091 135.121 134.986 134.838 134.88C132.8 134.112 130.883 133.164 129.022 132.121C128.823 131.841 128.617 131.569 128.396 131.308C129.742 131.117 131.061 130.799 132.254 130.471C135.917 129.467 139.37 127.832 143.02 126.783C146.42 125.805 150.108 125.27 153.522 126.485C155.143 127.062 156.569 128.072 158.145 128.753C158.96 129.104 159.939 129.448 160.891 129.499C160.277 130.972 159.499 132.348 158.437 133.494C157.951 133.39 157.469 133.244 157 133.092ZM164.927 121.554C164.6 121.825 163.254 122.7 162.818 123.222C162.705 123.179 162.593 123.135 162.481 123.09C162.289 122.854 162.006 122.75 161.718 122.757C159.705 121.82 157.912 120.496 156.313 118.837C155.176 117.659 154.012 116.427 152.493 115.744C150.704 114.937 148.944 115.309 147.064 115.432C145.063 115.565 143.088 114.996 141.089 115.269C139.627 115.47 138.258 116.089 137.075 116.962C134.66 118.744 132.995 121.246 130.955 123.404C128.639 125.851 125.791 127.415 122.624 128.214C122.586 128.189 122.546 128.163 122.506 128.14C120.171 126.027 118.063 123.641 116.198 121.098C114.376 118.615 109.574 107.436 108.414 106.456C107.933 106.048 107.405 105.872 106.9 105.887C105.985 105.908 105.14 106.544 104.762 107.546C104.119 109.25 104.44 111.452 104.491 113.234C104.555 115.415 104.698 117.594 104.926 119.764C105.152 121.91 105.452 124.048 105.826 126.172C106.014 127.246 106.224 128.318 106.454 129.385C106.526 129.721 106.617 130.021 106.726 130.3C106.838 130.826 106.959 131.351 107.088 131.87C107.929 135.275 109.255 138.684 111.788 141.197C114.425 143.816 118.008 145.555 121.336 147.111C124.505 148.593 127.826 149.909 131.233 150.941C134.193 152.283 137.362 153.344 140.544 153.902C144.047 154.517 147.729 154.555 151.112 153.337C152.774 152.739 154.346 151.904 155.772 150.865C157.794 149.814 159.613 148.371 161.102 146.46C163.77 143.036 165.043 138.881 165.601 134.596C165.743 133.499 166.279 129.296 166.322 128.641C166.458 126.528 166.594 124.415 166.73 122.301C166.794 121.304 165.571 121.019 164.927 121.554Z" fill="black"/>
</g>
<defs>
<clipPath id="clip0_81_20990">
<rect width="240" height="275" fill="white"/>
</clipPath>
</defs>
</svg>
