<svg width="240" height="275" viewBox="0 0 240 275" fill="none" xmlns="http://www.w3.org/2000/svg">
<g clip-path="url(#clip0_81_21062)">
<rect width="240" height="275" fill="#E7ECED"/>
<path fill-rule="evenodd" clip-rule="evenodd" d="M200.257 272.088C199.92 265.825 199.506 259.567 199.01 253.314C198.022 240.859 196.729 228.395 194.577 216.083C192.454 203.935 189.483 192.123 185.202 180.548C183.216 175.177 181.066 170.596 177.946 165.768C174.996 161.204 171.231 158.111 166.541 155.355C162.315 152.873 157.406 148.565 153.353 145.785C151.661 144.625 148.18 144.702 147.019 142.985C145.5 140.737 146.485 137.296 144.953 135.056C143.203 132.494 140.75 130.503 137.984 129.057C134.965 127.012 131.409 126.087 127.844 126.214C122.587 125.895 117.292 127.57 113.917 131.85C112.233 133.987 111.249 136.451 111.113 139.18C111.078 139.89 111.306 140.45 111.681 140.854C111.459 141.152 111.237 141.45 111.017 141.749C110.327 140.726 108.713 140.182 107.638 140.955C104.12 143.481 100.318 145.489 96.3045 146.962C95.3656 146.517 94.229 146.723 93.4247 147.449C93.0983 147.743 92.752 147.995 92.3901 148.208C90.9022 148.612 89.3912 148.949 87.8578 149.21C87.3778 149.291 86.9711 149.564 86.6627 149.931C86.2057 149.504 85.5776 149.299 84.8762 149.566C76.7772 152.655 69.1289 157.453 63.3155 163.953C56.8748 171.154 53.492 180.112 50.9166 189.29C48.1287 199.225 46.3471 209.407 44.8507 219.606C43.3344 229.941 41.841 240.316 40.7977 250.71C40.2106 256.559 39.9867 262.461 40.2525 268.337C40.3849 271.273 40.653 274.199 41.08 277.108C41.1795 277.788 41.2836 278.572 41.4514 279.354C40.9416 279.255 40.3344 279.686 40.4377 280.376C41.1573 285.182 46.9659 286.582 50.972 287.136C57.5248 288.041 64.1118 288.543 70.7276 288.581C77.2289 288.619 83.7292 288.202 90.217 287.828C96.8686 287.445 103.52 287.06 110.171 286.67C136.82 285.107 163.471 283.561 190.12 281.997C192.555 281.854 195.335 281.661 197.42 280.248C200.279 278.311 200.426 275.234 200.257 272.088V272.088Z" fill="white"/>
<path fill-rule="evenodd" clip-rule="evenodd" d="M70.3425 218.33C70.25 218.157 70.4647 218.001 70.6071 218.126C73.8422 220.966 75.5359 225.527 75.8911 229.743C76.2673 234.214 75.7339 238.843 75.53 243.311C75.3031 248.289 75.0992 253.269 74.8223 258.244C74.5411 263.292 74.2381 268.338 73.9785 273.387L73.3943 284.745V284.745C73.3322 285.955 73.4668 287.444 73.0024 288.573C72.2828 290.325 70.1454 290.053 69.6962 288.59L69.6821 288.542L69.6411 288.573C69.2448 287.254 69.5414 285.688 69.6086 284.324L70.2206 271.915V271.915C70.653 263.144 71.0387 254.373 71.5032 245.603L71.6611 242.68C71.8782 238.745 72.0447 234.82 72.1784 230.886L72.2218 229.575C72.3487 225.625 72.248 221.896 70.3425 218.33ZM148.767 145.517C150.57 145.346 151.931 145.944 153.567 146.573C154.28 146.847 154.955 147.164 155.639 147.492C156.495 147.903 157.045 148.629 157.572 149.397L157.854 149.81C160.05 153.028 161.526 156.74 163.193 160.243C165.142 164.341 167.11 168.43 169.018 172.547L169.959 174.576C170.43 175.59 170.899 176.605 171.361 177.623L172.16 179.395C172.962 181.192 173.682 183.094 172.538 184.947C171.475 186.672 169.59 188.006 168.097 189.338C166.852 190.451 165.606 191.562 164.36 192.674C166.936 195.254 168.664 198.502 169.681 201.986C171.124 201.384 172.887 201.268 174.379 201.008C176.469 200.644 176.725 203.808 174.753 203.77C173.296 203.741 171.588 203.89 170.094 203.583C170.353 204.728 170.542 205.89 170.662 207.055C171.289 213.162 169.917 219.305 168.487 225.213L168.369 225.698C166.815 232.094 165.342 238.506 164.024 244.955C162.702 251.417 161.514 257.906 160.459 264.417C159.386 271.045 158.626 277.709 157.809 284.371C157.686 285.379 157.051 286.244 155.938 286.244C155.01 286.244 153.949 285.377 154.066 284.371C154.908 277.116 156.103 269.899 157.29 262.693C159.335 250.284 161.909 237.983 164.869 225.763L165.386 223.635C166.718 218.115 167.927 212.428 167.259 206.735C166.714 202.099 164.777 197.156 160.947 194.277L160.831 194.19C159.936 193.534 159.592 192.279 160.473 191.415C161.034 190.865 161.595 190.316 162.157 189.767L165.528 186.474L166.207 185.809C166.774 185.256 167.343 184.706 167.93 184.172C168.285 183.85 169.247 183.235 169.317 182.704C169.363 182.358 168.953 181.75 168.787 181.431L168.026 179.895V179.895C167.594 179.019 167.176 178.136 166.754 177.255C165.879 175.43 164.993 173.61 164.137 171.776L158.999 160.762V160.762C157.55 157.655 156.258 154.374 154.363 151.502L153.99 150.942C153.678 150.47 153.402 150.016 153.205 149.44C153.016 148.885 152.778 148.276 152.427 147.802C151.607 146.691 150.038 146.061 148.725 145.828C148.535 145.795 148.604 145.532 148.767 145.517ZM109.249 142.624C109.363 142.624 109.38 142.787 109.275 142.819C107.691 143.295 106.178 144.064 104.944 145.173C104.353 145.704 103.758 146.307 103.393 147.022C103.254 147.295 103.177 147.584 103.12 147.884L103.102 147.984C103.008 148.525 102.873 148.826 102.598 149.26L102.551 149.333C100.982 151.757 99.8824 154.449 98.877 157.145L96.6874 163.023V163.023L94.4993 168.902C93.7943 170.796 93.0889 172.69 92.3837 174.584C91.9941 175.63 91.5935 176.671 91.1932 177.713C91.0199 178.164 90.8336 178.612 90.6752 179.069C90.6534 179.131 90.5841 179.507 90.5321 179.598L90.5499 179.63V179.63C90.9912 180.372 92.1682 180.993 92.8354 181.532L95.1327 183.39V183.39C96.7706 184.715 98.4507 186.003 100.039 187.387C101.037 188.256 100.416 189.813 99.3035 190.176C97.4385 190.783 95.6112 191.511 93.774 192.199C93.0319 192.476 92.2592 192.718 91.5257 193.024L91.0792 193.217C90.9048 193.296 90.9887 193.295 90.9956 193.617C91.0026 193.955 91.0983 194.307 91.1533 194.638C91.7721 198.381 92.428 202.118 93.1204 205.848C95.5694 219.039 98.4952 232.133 101.832 245.127C103.518 251.688 105.325 258.218 107.048 264.77C108.766 271.304 111.027 277.745 113.186 284.145C113.795 285.95 110.934 286.727 110.34 284.93C107.852 277.403 105.576 269.81 103.226 262.24C99.0496 248.79 95.7589 235.048 92.8485 221.272C91.4059 214.445 90.0866 207.591 88.8916 200.716C88.6654 199.414 88.4435 198.112 88.2262 196.809L87.9095 194.892C87.6924 193.526 87.5688 192.103 88.6303 191.021C89.6668 189.966 91.4463 189.592 92.8103 189.097L92.9093 189.061C93.7772 188.737 94.6514 188.424 95.5223 188.103C94.2395 187.092 92.9725 186.06 91.6928 185.05C90.6606 184.236 89.6121 183.437 88.5946 182.604C87.7556 181.917 87.0716 181.035 86.9841 179.917C86.8949 178.775 87.3842 177.715 87.7788 176.667L87.8167 176.566C88.2042 175.52 88.5927 174.475 88.9911 173.433L91.4566 166.982V166.982C93.0234 162.884 94.524 158.752 96.1719 154.685C96.8239 153.075 97.5344 151.491 98.374 149.97C98.7787 149.237 99.2129 148.519 99.6847 147.826C100.213 147.05 100.693 146.671 101.512 146.243C102.822 145.558 103.85 144.409 105.165 143.703C106.456 143.01 107.784 142.64 109.249 142.624ZM113.501 135.312C113.551 135.226 113.683 135.264 113.685 135.362C113.719 137.399 113.235 139.48 112.938 141.495C112.639 143.516 112.543 145.649 112.11 147.649C112.101 147.742 112.083 147.834 112.058 147.924L112.037 147.993V147.993C111.855 148.553 111.38 149.028 110.798 149.176C110.981 150.192 111.153 151.209 111.298 152.231C111.548 153.989 111.775 155.749 111.999 157.51L112.267 159.623C112.52 161.614 112.766 163.606 113.009 165.599C113.627 165.857 114.258 166.071 114.905 166.256C116.393 166.682 117.917 166.855 119.453 167.006C122.581 167.313 125.733 167.455 128.872 167.629L129.545 167.667C133.074 167.869 136.622 167.905 140.142 167.543C141.887 167.363 143.619 167.062 145.321 166.635C146.186 166.418 147.027 166.094 147.89 165.881C148.177 165.811 148.432 165.649 148.719 165.475C148.847 165.314 149.025 165.192 149.258 165.145L149.321 165.134V165.134L149.384 165.125L149.405 165.115L149.404 165.122C149.58 165.098 149.748 165.099 149.906 165.12C149.969 163.567 150.037 162.013 150.123 160.46C150.353 156.289 150.987 151.938 150.14 147.803C150.112 147.664 150.301 147.615 150.35 147.745C152.011 152.122 151.824 156.909 151.908 161.516C151.99 166.021 151.94 170.53 151.918 175.036C152.241 175.173 152.528 175.36 152.756 175.621C153.212 176.143 153.343 177.05 152.756 177.554C152.497 177.778 152.209 177.933 151.904 178.04C151.888 181.955 151.86 185.87 151.821 189.786C152.565 190.361 152.634 191.726 151.793 192.294C151.652 204.972 151.422 217.651 151.231 230.328L150.831 256.923V256.923C150.778 260.467 150.69 264.01 150.658 267.553L150.683 267.563V267.563L150.772 267.604C150.921 267.674 151.143 267.788 151.189 267.904C151.201 267.934 151.204 267.955 151.202 267.97C151.447 268.005 151.688 268.12 151.898 268.319C152.415 268.81 152.31 269.55 151.898 270.05L151.788 270.184V270.184C151.531 270.496 151.044 270.616 150.646 270.553C150.65 272.764 150.664 274.976 150.657 277.187C150.655 277.863 150.644 278.538 150.633 279.213L150.605 280.833C150.586 281.757 150.504 282.932 149.558 283.347C148.491 283.815 147.533 283.432 147.101 282.347C146.984 282.053 147.009 281.78 147.052 281.489C147.039 281.053 146.97 280.547 146.979 280.142L147.014 278.454V278.454C147.02 278.193 147.03 277.933 147.038 277.673L147.007 277.676V277.676C143.214 277.86 139.394 277.77 135.594 277.768L133.905 277.77C132.495 277.771 131.082 277.764 129.674 277.71L129.146 277.688C128.092 277.638 126.984 277.622 125.891 277.528C126.03 278.65 126.16 279.773 126.276 280.897C126.386 281.963 125.287 282.868 124.306 282.868C123.141 282.868 122.474 281.952 122.335 280.897C121.677 275.918 121.407 270.893 120.778 265.912C120.215 261.45 119.726 256.977 119.23 252.507L119.064 251.017C117.247 234.748 115.483 218.473 113.796 202.19L113.01 194.578C112.217 186.906 111.418 179.233 110.745 171.55C110.36 167.158 110.006 162.764 109.672 158.367C109.427 155.137 109.273 151.924 109.173 148.701C108.778 148.294 108.58 147.701 108.755 147.088C108.857 146.73 108.976 146.374 109.102 146.019C109.094 145.67 109.086 145.322 109.079 144.972C109.073 144.642 109.408 144.472 109.677 144.526C110.165 143.344 110.702 142.172 111.151 141.002C111.877 139.107 112.475 137.065 113.501 135.312ZM72.9592 155.792C80.5477 151.034 89.5807 147.611 98.6278 147.979C98.8336 147.988 98.8915 148.301 98.6779 148.349C93.8521 149.427 88.9733 150.74 84.4047 152.651C79.8227 154.567 75.4659 157.148 71.5856 160.249C64.4261 165.971 58.8613 173.413 55.1971 181.802C53.0508 186.716 51.5464 191.905 50.2327 197.095C48.8426 202.587 47.6969 208.139 46.7443 213.725C44.8627 224.757 43.7673 235.912 43.1844 247.085C42.5914 258.451 42.8358 269.825 42.4129 281.193C42.3398 283.162 39.5257 283.124 39.3827 281.193C38.4244 268.269 38.9553 255.138 39.8415 242.223C40.6384 230.612 42.0301 219.026 44.271 207.603L44.4662 206.613C46.5611 196.044 49.0879 185.219 54.1524 175.648C58.4762 167.476 65.1514 160.687 72.9592 155.792ZM178.337 206.304C178.377 206.191 178.526 206.192 178.566 206.304C179.431 208.726 179.462 211.46 179.692 214.014L179.71 214.21C179.931 216.539 180.097 218.871 180.251 221.205L180.309 222.08C180.928 231.601 181.703 241.112 182.87 250.583C184.033 260.019 185.606 269.389 187.306 278.74C187.496 279.781 187.035 280.842 185.943 281.142C184.981 281.406 183.746 280.813 183.543 279.778C182.487 274.411 181.633 269.036 180.872 263.622C179.531 254.089 178.53 244.511 177.887 234.905C177.564 230.081 177.365 225.258 177.286 220.424C177.25 218.18 177.308 215.932 177.428 213.691L177.456 213.174C177.588 210.883 177.575 208.488 178.337 206.304ZM96.3384 266.949C96.4398 266.894 96.5653 267.007 96.5011 267.112C95.0317 269.501 93.0439 271.561 91.1227 273.591C89.1141 275.713 87.1553 277.899 85.1062 279.98C83.6256 281.483 81.244 279.058 82.8065 277.679C85.0035 275.741 87.2998 273.899 89.5358 272.003L90.5137 271.174C92.3471 269.625 94.2349 268.089 96.3384 266.949ZM166.129 265.753C166.019 265.544 166.27 265.374 166.44 265.513C167.625 266.477 168.688 267.627 169.832 268.645C170.966 269.652 172.141 270.593 173.349 271.509C174.562 272.43 175.801 273.314 177.074 274.15C178.13 274.844 179.218 275.399 180.323 275.975C180.835 276.041 181.309 276.293 181.689 276.769C182.289 277.523 182.352 278.944 181.52 279.598L181.371 279.716V279.716C180.4 280.479 179.247 280.572 178.291 279.716C177.223 278.759 176.214 277.707 175.189 276.697L174.881 276.395C173.78 275.324 172.705 274.218 171.692 273.062L170.774 272.019C169.073 270.077 167.301 267.985 166.129 265.753ZM160.669 153.836C160.472 153.705 160.594 153.353 160.837 153.437L161.284 153.592C163.149 154.24 165.068 154.959 166.761 155.957C168.581 157.03 170.261 158.308 171.867 159.679C175.189 162.516 178.016 166.005 180.418 169.642C185.239 176.939 188.22 185.297 190.626 193.66C193.193 202.576 195.168 211.684 196.782 220.819C198.421 230.101 199.685 239.468 200.517 248.858C200.926 253.483 201.201 258.112 201.339 262.753C201.41 265.141 201.408 267.527 201.388 269.916C201.383 270.53 201.387 271.144 201.394 271.758L201.417 273.601C201.43 274.765 201.569 275.989 201.293 277.127C200.847 278.959 197.82 278.617 197.919 276.745C197.828 276.122 197.824 275.478 197.848 274.833C197.834 274.75 197.818 274.666 197.801 274.579C197.751 274.332 197.793 274.102 197.891 273.906C197.906 273.596 197.92 273.289 197.925 272.986C197.945 271.756 197.944 270.532 197.91 269.302C197.838 266.71 197.735 264.117 197.631 261.526C197.423 256.348 197.134 251.168 196.714 246.002C195.254 228.023 192.171 209.941 186.994 192.643C184.589 184.61 181.273 176.725 176.519 169.784C174.408 166.703 172.027 163.856 169.387 161.215C166.731 158.556 163.803 155.912 160.669 153.836ZM124.841 269.74L125.2 272.337C125.379 273.635 125.557 274.934 125.725 276.234C126.871 276.077 128.042 276.011 129.146 275.913C131.078 275.742 133.023 275.659 134.961 275.579C138.968 275.414 142.995 275.127 147.007 275.147C147.048 275.147 147.087 275.15 147.125 275.153L147.324 270.03V270.03L144.506 270.026V270.026C142.118 270.022 139.731 270.002 137.343 269.981C135.193 269.963 133.042 269.96 130.891 269.915L129.97 269.893C128.34 269.849 126.539 269.94 124.841 269.74ZM147.561 262.304C147.446 262.318 147.329 262.329 147.204 262.334C146.646 262.358 146.084 262.342 145.525 262.346C144.336 262.357 143.146 262.365 141.957 262.364C139.578 262.364 137.199 262.379 134.821 262.407C132.372 262.437 129.925 262.479 127.476 262.484C126.29 262.486 125.107 262.455 123.921 262.422C124.113 264.108 124.314 265.793 124.535 267.474C126.377 267.225 128.358 267.35 130.158 267.333L130.392 267.33C132.848 267.288 135.307 267.319 137.765 267.322C140.293 267.325 142.821 267.333 145.349 267.354L147.426 267.371V267.371L147.43 267.266V267.266C147.491 265.614 147.53 263.959 147.561 262.304ZM123.008 254.238C123.238 256.228 123.454 258.222 123.674 260.215C123.821 260.192 123.969 260.173 124.12 260.157C125.308 260.033 126.494 259.926 127.686 259.852C130.063 259.705 132.44 259.627 134.821 259.563C137.269 259.497 139.718 259.447 142.167 259.413C143.357 259.396 144.545 259.398 145.735 259.406C146.293 259.41 146.857 259.392 147.414 259.429C147.481 259.434 147.544 259.441 147.607 259.448L147.649 256.456C147.656 255.957 147.664 255.458 147.672 254.96C145.833 255.073 143.963 255.03 142.126 255.031L141.702 255.032C139.393 255.042 137.084 255.011 134.775 254.963C132.393 254.913 130.017 254.835 127.639 254.682C126.676 254.621 125.72 254.539 124.762 254.433L124.283 254.378C123.866 254.329 123.437 254.289 123.008 254.238ZM147.862 245.793C143.433 246.145 139.028 246.292 134.587 246.336L133.921 246.341C129.997 246.371 126.04 246.533 122.107 246.429C122.342 248.469 122.577 250.509 122.813 252.548C123.376 252.522 123.942 252.522 124.493 252.502C125.613 252.461 126.729 252.451 127.849 252.449C130.158 252.443 132.467 252.463 134.775 252.459C137.155 252.454 139.533 252.414 141.912 252.369C143.841 252.333 145.79 252.187 147.724 252.193L147.862 245.793V245.793ZM148.049 237.091C147.536 237.262 146.93 237.273 146.266 237.303L144.551 237.389C143.757 237.428 142.962 237.464 142.167 237.493C139.517 237.59 136.868 237.681 134.218 237.765C131.502 237.852 128.774 237.902 126.058 237.816C124.728 237.774 123.409 237.704 122.082 237.593C121.754 237.566 121.42 237.548 121.085 237.524C121.394 240.227 121.704 242.929 122.015 245.631C125.929 245.15 129.874 244.851 133.784 244.354L137.319 243.902C140.853 243.451 144.383 243.009 147.93 242.635L148.049 237.091V237.091ZM148.238 228.293C147.485 228.479 146.627 228.47 145.903 228.515L145.77 228.525C144.399 228.629 143.026 228.681 141.653 228.715C138.961 228.781 136.268 228.814 133.575 228.831L131.956 228.841C129.798 228.853 127.641 228.859 125.482 228.808C124.097 228.776 122.715 228.708 121.332 228.639C120.917 228.618 120.493 228.604 120.068 228.583C120.357 231.142 120.65 233.7 120.941 236.258C121.396 236.186 121.853 236.131 122.288 236.057C123.403 235.869 124.516 235.718 125.64 235.583C128.073 235.292 130.518 235.082 132.963 234.905C135.472 234.723 137.984 234.569 140.494 234.393L142.271 234.268C142.864 234.226 143.456 234.187 144.049 234.15C145.061 234.088 146.238 234.158 147.242 233.938C147.514 233.825 147.816 233.799 148.118 233.863L148.238 228.293V228.293ZM148.466 217.995C148.205 218.326 147.816 218.499 147.352 218.559C144.935 218.873 142.456 218.923 140.019 219.071L139.59 219.098C137.073 219.264 134.555 219.394 132.037 219.528C129.45 219.665 126.863 219.777 124.274 219.868C123.175 219.906 122.071 219.91 120.97 219.896L120.498 219.889C120.046 219.882 119.573 219.883 119.098 219.867C119.361 222.26 119.626 224.652 119.895 227.044C120.379 226.991 120.862 226.951 121.331 226.901C122.714 226.755 124.096 226.61 125.482 226.501C128.108 226.294 130.737 226.169 133.368 226.039C136.06 225.906 138.754 225.817 141.446 225.691C142.752 225.63 144.057 225.554 145.358 225.434C146.271 225.35 147.354 225.04 148.306 225.154C148.358 222.767 148.412 220.381 148.466 217.995ZM148.678 208.769C148.637 208.833 148.589 208.895 148.53 208.952C147.466 210.004 146.155 209.923 144.745 210.033L144.658 210.04C143.277 210.156 141.894 210.267 140.511 210.367C137.745 210.566 134.975 210.706 132.205 210.831C129.371 210.958 126.519 211.046 123.682 210.988C121.865 210.951 119.963 210.957 118.11 210.78C118.394 213.415 118.68 216.05 118.969 218.684C119.49 218.586 120.014 218.511 120.511 218.432C121.763 218.235 123.016 218.037 124.275 217.892C126.79 217.603 129.307 217.332 131.827 217.087C133.983 216.878 136.138 216.666 138.295 216.475L139.59 216.363C142.164 216.146 144.77 215.789 147.352 215.736C147.778 215.727 148.259 215.959 148.503 216.325C148.56 213.806 148.619 211.288 148.678 208.769ZM148.857 201.301C148.2 201.381 147.491 201.335 146.885 201.355C145.351 201.405 143.817 201.452 142.284 201.497L133.081 201.769V201.769C129.947 201.861 126.803 201.93 123.668 201.886C122.29 201.866 120.905 201.864 119.526 201.789L119.067 201.761C118.5 201.724 117.804 201.718 117.124 201.649L117.926 209.086V209.086C119.77 208.819 121.671 208.72 123.499 208.563L123.89 208.529C126.586 208.283 129.296 208.121 131.997 207.938C134.769 207.75 137.536 207.522 140.303 207.289C141.686 207.173 143.069 207.057 144.451 206.93L144.622 206.913C145.928 206.776 147.155 206.486 148.312 207.256C148.481 207.369 148.613 207.519 148.704 207.688C148.755 205.559 148.804 203.43 148.857 201.301ZM149.071 192.622C143.466 192.847 137.861 193.019 132.252 193.094C129.095 193.136 125.942 193.106 122.785 193.04C121.416 193.012 120.036 192.946 118.668 192.841L118.156 192.8C117.505 192.745 116.822 192.705 116.142 192.64C116.423 195.197 116.702 197.754 116.979 200.312C117.648 200.188 118.347 200.13 118.934 200.055L119.067 200.037C120.524 199.837 121.995 199.72 123.459 199.591C126.31 199.34 129.176 199.178 132.035 199.04C134.962 198.899 137.891 198.78 140.819 198.65L143.748 198.519C144.236 198.497 144.724 198.476 145.212 198.455C145.909 198.426 146.606 198.398 147.303 198.369C147.647 198.354 148.005 198.308 148.349 198.326L148.447 198.312C148.492 198.307 148.532 198.302 148.569 198.298C148.662 198.227 148.763 198.168 148.87 198.123L148.935 198.097L149.071 192.622ZM115.223 184.397C115.483 186.699 115.741 189.001 115.995 191.304C116.794 191.212 117.603 191.162 118.366 191.093C119.905 190.955 121.452 190.834 122.995 190.763L126.081 190.62C128.137 190.525 130.194 190.433 132.252 190.358C137.885 190.152 143.518 189.916 149.147 189.629C149.187 188.067 149.228 186.505 149.27 184.944C148.999 185.233 148.609 185.424 148.096 185.422C142.186 185.407 136.271 185.441 130.362 185.344C127.404 185.295 124.449 185.223 121.495 185.071C120.049 184.997 118.595 184.846 117.161 184.647C116.549 184.562 115.879 184.502 115.223 184.397ZM114.277 176.194C114.555 178.552 114.828 180.911 115.096 183.27C115.83 183.139 116.588 183.069 117.273 182.976C118.744 182.776 120.224 182.616 121.706 182.533C124.589 182.37 127.474 182.287 130.362 182.226C136.271 182.101 142.186 182.101 148.096 182.055C148.651 182.05 149.063 182.27 149.334 182.598C149.375 181.126 149.418 179.653 149.463 178.18C148.892 178.12 148.326 178.035 147.802 177.998C146.193 177.886 144.582 177.783 142.971 177.691C139.61 177.498 136.245 177.333 132.881 177.187C129.516 177.04 126.15 176.897 122.784 176.772L121.312 176.719C118.971 176.632 116.591 176.522 114.277 176.194ZM113.219 167.314C113.508 169.702 113.793 172.091 114.077 174.48L114.163 175.219V175.219C116.978 174.671 119.945 174.511 122.784 174.39C126.151 174.247 129.511 174.173 132.881 174.184C136.247 174.194 139.608 174.273 142.971 174.413C144.652 174.482 146.332 174.562 148.012 174.653C148.474 174.678 149.015 174.665 149.572 174.673C149.585 174.298 149.595 173.922 149.608 173.547C149.659 172.027 149.709 170.506 149.761 168.986C148.625 169.57 147.148 169.805 146.006 170.054L145.876 170.083C143.991 170.506 142.066 170.781 140.142 170.949C136.363 171.278 132.545 171.155 128.77 170.836L128.109 170.779C124.794 170.492 121.357 170.127 118.143 169.307C116.612 168.916 115.03 168.369 113.658 167.576C113.515 167.494 113.368 167.406 113.219 167.314ZM145.138 138.935C145.171 138.806 145.364 138.776 145.428 138.897C145.874 139.745 146.041 140.764 146.35 141.673C146.684 142.65 146.995 143.634 147.363 144.6C148.132 146.617 149.039 148.555 150.12 150.424C151.191 152.274 148.193 153.595 147.405 151.569C146.591 149.479 145.922 147.318 145.518 145.109C145.32 144.031 145.144 142.939 145.087 141.844C145.038 140.903 144.906 139.852 145.138 138.935Z" fill="black"/>
<path fill-rule="evenodd" clip-rule="evenodd" d="M167.025 97.8958C166.941 93.1612 166.848 88.3318 166.144 83.6432C165.456 79.0595 163.564 74.9161 160.312 71.5876C153.405 64.5173 143.393 62.7903 134.074 61.2078L118.14 58.5018C113.279 57.6765 108.093 56.3573 103.182 57.5277C100.762 58.1045 98.7065 59.4445 96.8282 61.0298C95.0176 62.5579 93.071 64.1988 91.8441 66.2546C90.6152 68.3134 90.1925 70.72 89.7929 73.0484C89.3423 75.6736 88.9922 78.3193 88.7436 80.9713C88.2452 86.2847 88.1772 91.638 88.5387 96.9623C88.7138 99.5448 88.9925 102.12 89.3482 104.684C89.5246 105.955 89.7241 107.223 89.9493 108.487C90.0156 108.859 90.0661 109.272 90.1341 109.689C89.6315 111.119 89.3459 112.599 89.3689 114.074C89.4368 118.418 93.1016 121.152 96.7963 122.621C98.9385 123.472 101.178 124.05 103.283 125.002C105.497 126.002 107.004 127.624 108.518 129.473C111.406 133.002 114.664 136.173 118.385 138.819C126.273 144.428 136.264 147.081 145.836 145.067C148.132 144.584 150.449 143.834 152.513 142.703C154.693 141.51 156.331 139.78 157.708 137.736C160.263 133.94 162.095 129.665 163.482 125.315C164.896 120.878 165.9 116.433 166.447 111.806C166.992 107.195 167.107 102.536 167.025 97.8958V97.8958Z" fill="white"/>
<path fill-rule="evenodd" clip-rule="evenodd" d="M116.179 42.0088C122.772 41.1015 131.873 44.0505 135.157 49.9966C150.834 46.2992 170.607 46.1781 183.529 58.4865C197.012 73.087 180.076 92.3379 168.847 96.6782C169.664 100.653 168.39 126.118 159.37 137.476C152.211 147.1 135.54 151.542 127.826 140.047L127.766 139.952C126.94 138.624 127.652 138.667 128.5 139.654C136.054 146.3 146.324 146.413 154.238 139.4C169.071 126.582 167.542 95.1518 160.484 76.9691C140.386 74.7609 118.867 80.8548 104.986 95.9894L105.925 101.643C106.084 102.606 106.266 103.568 106.405 104.534C106.494 105.154 106.503 105.77 106.075 106.271C104.658 107.926 102.272 105.439 100.308 104.45C99.7283 104.368 99.1475 104.337 98.5779 104.377C89.1432 105.593 91.0021 123.902 101.372 120.693C102.243 120.15 102.991 120.315 103.329 121.103C105.801 123.368 107.431 127.407 111.537 131.298C112.986 132.757 114.304 133.978 115.934 135.149C116.891 136.117 119.78 137.105 118.864 138.762C117.133 142.533 106.922 130.688 105.117 127.412C99.4604 129.646 93.1921 128.888 87.3305 128.341C56.4072 126.733 60.5354 94.1238 85.8824 73.5359C90.6537 70.022 95.9179 67.1555 101.39 64.9496C102.137 64.6485 101.811 63.4214 101.053 63.7268C97.4322 65.1866 93.9026 66.9241 90.5379 68.9351L90.5328 67.7328C90.5279 65.7078 90.5597 63.5996 90.9113 61.7494C91.087 60.4673 91.3826 59.098 91.8377 58.0679C92.4003 54.9096 101.213 44.0691 116.179 42.0088ZM98.165 108.581C98.6425 108.127 99.5338 108.668 99.9589 108.654C101.046 108.803 102.079 109.262 102.884 109.829C103.416 110.127 103.788 110.407 104.1 110.664L104.108 110.662C104.106 110.662 104.103 110.664 104.1 110.665L104.13 110.685C104.583 111.007 106.243 112.823 105.194 112.334C105.116 112.233 105.036 112.135 104.955 112.039C104.947 112.052 104.935 112.065 104.92 112.078L104.979 112.165C105.871 113.507 104.332 112.093 104.095 111.718C104.084 111.727 104.071 111.733 104.059 111.74L104.367 112.115C104.41 112.168 104.444 112.211 104.472 112.247L104.537 112.31C105.568 113.323 105.6 114.235 104.402 112.737C104.45 112.808 104.487 112.882 104.493 112.949L104.564 113.039C105.504 114.251 104.739 113.821 104.272 113.303L104.233 113.259L104.241 113.271C104.675 113.94 103.813 113.47 103.661 113.112L103.654 113.096C103.488 112.96 103.386 112.808 103.351 112.77L103.345 112.764C102.536 111.935 101.365 111.234 100.369 110.916C100.225 110.888 100.079 110.866 99.9316 110.85C99.3331 110.717 98.728 110.625 98.1166 110.576C98.0418 110.567 97.966 110.512 97.9094 110.441C96.9848 110.41 97.2702 110.031 97.6538 109.96L97.6605 109.959L97.5844 109.953C96.9911 109.895 96.5859 109.682 97.1858 109.551L97.2618 109.536C97.2525 109.521 97.2443 109.507 97.2363 109.492C96.7225 109.436 97.0578 108.936 97.343 109.057C97.223 108.665 97.7714 108.861 97.8399 108.802C97.892 108.744 97.9569 108.693 97.9943 108.69C98.1595 108.574 98.0794 108.584 98.165 108.581ZM101.309 102.226L101.189 102.297C101.091 102.353 100.991 102.391 100.891 102.413C101.033 102.474 101.173 102.539 101.312 102.609C101.31 102.524 101.308 102.438 101.308 102.353L101.309 102.226Z" fill="black"/>
<path fill-rule="evenodd" clip-rule="evenodd" d="M148.318 128.112C146.761 128.563 145.091 128.603 143.504 128.138C142.066 127.715 140.588 126.785 139.529 125.555C138.588 124.463 137.979 123.135 138.003 121.717C138.006 121.555 138.064 121.42 138.153 121.315C138.248 121.202 138.382 121.125 138.526 121.091C138.673 121.056 138.829 121.069 138.962 121.129C139.082 121.183 139.185 121.276 139.249 121.412C139.412 121.626 139.574 121.836 139.737 122.041C141.045 123.658 142.313 124.866 144.28 125.299C145.348 125.534 146.414 125.43 147.393 125.071C148.44 124.687 149.387 124.012 150.129 123.148C150.464 122.757 150.86 122.598 151.247 122.595C151.685 122.592 152.119 122.796 152.445 123.122C152.766 123.442 152.981 123.878 153.001 124.333C153.018 124.733 152.888 125.15 152.541 125.522C151.399 126.749 149.919 127.648 148.318 128.112ZM148.27 107.866C149.865 108.836 152.296 111.099 150.58 113.504C148.56 115.624 145.651 113.193 144.218 112.093C142.889 111.241 141.396 113.433 142.629 114.428C152.986 122.099 157.189 108.12 149.077 106.726C148.184 106.572 147.852 107.566 148.27 107.866ZM133.346 103.598C132.834 103.27 132.23 103.157 131.562 103.461C131.04 103.699 130.123 104.491 129.486 105.533C129.05 106.245 128.74 107.081 128.805 107.952C128.82 108.154 128.745 108.303 128.627 108.413C128.534 108.5 128.4 108.564 128.242 108.584C128.108 108.601 127.958 108.586 127.836 108.548C127.604 108.475 127.481 108.325 127.435 108.202C126.988 107.016 127.181 105.692 127.681 104.498C128.356 102.886 129.583 101.537 130.386 101.101C131.761 100.356 133.383 100.322 134.76 101.081C135.932 101.727 136.664 102.77 137.393 103.833C137.548 104.059 137.702 104.283 137.861 104.504C138.179 104.945 138.211 105.383 138.088 105.759C137.951 106.175 137.603 106.526 137.167 106.71C136.764 106.88 136.297 106.904 135.883 106.729C135.534 106.582 135.213 106.294 135.01 105.807C134.669 104.985 134.099 104.079 133.346 103.598V103.598ZM159.388 105.425C159.037 105.608 158.762 105.663 158.372 105.546C158.157 105.481 157.944 105.357 157.777 105.191C157.612 105.025 157.493 104.82 157.447 104.592C157.333 104.029 157.025 103.502 156.586 103.159C156.212 102.866 155.738 102.71 155.214 102.798C154.647 102.892 154.108 103.256 153.736 103.684C153.612 103.827 153.515 103.99 153.417 104.152C153.234 104.454 153.056 104.735 152.803 104.957C152.708 105.042 152.563 105.1 152.424 105.1C152.367 105.1 152.309 105.091 152.254 105.074C151.691 104.508 151.582 104.079 151.6 103.653C151.62 103.206 151.795 102.754 152.08 102.332C152.747 101.343 154.014 100.532 154.868 100.348C156.039 100.096 157.201 100.398 158.133 101.052C159.092 101.725 159.803 102.77 160.024 103.948C160.078 104.231 160.055 104.537 159.947 104.803C159.842 105.062 159.658 105.284 159.388 105.425ZM135.928 93.0476C135.225 93.7323 134.394 93.8383 133.553 93.9327C133.085 93.9856 132.712 94.0282 132.345 94.1111C131.336 94.3389 130.339 94.6821 129.429 95.1764C128.477 95.6931 127.441 96.3163 126.695 97.1146C126.517 97.3045 126.35 97.5038 126.183 97.7036C126.03 97.8858 125.883 98.0611 125.728 98.2302C125.55 98.4244 125.381 98.628 125.213 98.831C125.109 99.0023 125.089 99.0445 125.068 99.0883C125.036 99.1542 125 99.228 124.958 99.3071C124.9 99.4155 124.833 99.5341 124.763 99.6417C124.646 99.8383 124.583 99.8924 124.529 99.9166C124.439 99.9567 124.354 99.9765 124.271 99.9658C124.193 99.9558 124.12 99.9185 124.048 99.8574C123.687 99.5526 123.581 99.0523 123.592 98.5213C123.608 97.7155 123.905 96.8233 124.179 96.2748C124.816 95.0004 125.699 93.6756 126.761 92.7245C127.973 91.6388 129.299 90.8169 130.822 90.2505C131.768 89.8984 132.864 89.5752 133.895 89.616C134.637 89.6454 135.345 89.8661 135.93 90.4172C136.29 90.7555 136.462 91.2367 136.462 91.7176C136.462 92.2081 136.283 92.7014 135.928 93.0476ZM160.817 99.3173C160.772 99.3906 160.71 99.441 160.641 99.4714C160.569 99.5031 160.489 99.5123 160.412 99.4993C160.335 99.4863 160.261 99.4514 160.203 99.3981C160.148 99.347 160.106 99.2792 160.087 99.1962C159.62 97.1471 158.715 95.6225 156.782 94.6393C155.831 94.1557 154.738 93.8484 153.703 93.6034C153.402 93.5322 153.084 93.486 152.764 93.4393C151.761 93.2928 150.751 93.125 150.097 92.3139C149.703 91.8253 149.537 91.2004 149.631 90.629C149.719 90.0909 150.033 89.5976 150.605 89.3019C152.027 88.5662 153.794 89.2881 155.231 89.9031C155.337 89.9487 155.442 89.9935 155.544 90.0367C156.949 90.6298 158.23 91.4128 159.283 92.5325C160.119 93.4207 160.893 94.7339 161.205 96.0848C161.464 97.2087 161.403 98.356 160.817 99.3173Z" fill="black"/>
<path fill-rule="evenodd" clip-rule="evenodd" d="M148.502 116.101C146.153 115.042 141.934 115.966 140.402 116.333C136.841 117.187 133.259 119.034 132.152 121.926C130.904 125.186 133.394 126.212 133.76 126.044C136.225 126.218 139.16 124.668 141.743 124.267C143.841 123.94 146.053 123.654 148.017 122.539C149.452 123.329 152.692 123.755 155.307 124.446C157.534 125.033 158.499 126.307 160.563 126.036C163.038 125.712 162.025 120.506 159.267 118.397C156.249 116.088 151.144 115.152 148.502 116.101ZM153.155 138.361C151.099 138.863 150.961 134.356 150.731 132.763C150.551 131.519 149.536 128.311 146.964 128.45C144.391 128.588 143.424 131.276 143.555 132.947C143.64 134.032 144.638 139.523 141.451 140.218C139.419 140.21 137.068 140.073 134.931 139.679C132.416 139.109 129.146 137.114 128.282 141.043C127.971 142.457 139.049 146.658 143.965 147.038C148.951 148.049 154.784 146.495 158.334 142.679C159.141 141.811 161.415 138.208 161.578 137.326C161.918 135.471 161.13 134.278 158.836 134.931C157.215 135.797 154.476 138.039 153.155 138.361Z" fill="black"/>
<path fill-rule="evenodd" clip-rule="evenodd" d="M163.096 111.465C159.925 112.993 155.502 110.74 153.37 108.379C152.594 107.52 151.995 105.061 152.294 103.502C153.102 99.279 156.14 96.7445 159.348 95.879C163.794 94.679 168.268 97.7191 167.746 101.307C167.252 104.707 166.502 109.638 163.096 111.465M141.515 103.353C141.261 107.955 137.567 111.983 133.151 113.177C126.037 115.163 122.521 110.16 120.928 104.77C120.77 104.235 120.398 102.6 121.396 101.198C125.322 95.6829 134.874 96.623 139.645 98.1371C141.042 99.473 141.613 101.401 141.515 103.353M166.541 95.4156C166.539 95.4183 166.537 95.4206 166.535 95.4234C166.518 95.4134 166.502 95.4033 166.486 95.3936C166.504 95.4012 166.523 95.4077 166.541 95.4156M172.494 95.9475C172.08 91.2618 157.384 93.056 155.666 93.44C150.976 94.8197 146.926 98.5733 141.683 96.9233C136.251 90.8653 117.958 92.6026 114.123 95.6886C113.397 95.4037 112.514 95.5565 111.579 95.8253C106.776 95.6518 84.8497 97.3081 89.3345 103.44C90.0152 103.913 90.6952 103.432 90.7141 102.459C114.094 94.0164 111.827 101.924 114.6 101.001C115.023 101.123 115.465 101.2 115.852 101.281C117.998 101.972 118.726 101.758 119.009 104.168C120.951 122.778 145.723 116.355 143.692 101.09C145.703 100.98 147.463 100.11 149.59 100.959C151.067 115.339 162.634 115.919 166.115 110.935C168.74 107.475 167.699 102.254 171.308 99.5318C172.732 100.724 172.824 96.6997 172.494 95.9475" fill="black"/>
</g>
<defs>
<clipPath id="clip0_81_21062">
<rect width="240" height="275" fill="white"/>
</clipPath>
</defs>
</svg>
