<svg width="240" height="275" viewBox="0 0 240 275" fill="none" xmlns="http://www.w3.org/2000/svg">
<g clip-path="url(#clip0_81_21086)">
<rect width="240" height="275" fill="#E7ECED"/>
<path fill-rule="evenodd" clip-rule="evenodd" d="M194.636 251.934C193.785 247.123 193.004 242.299 192.295 237.465C191.958 235.17 191.629 232.872 191.334 230.571C191.127 228.959 190.812 227.115 191.909 225.921C193.452 224.241 194.853 222.802 195.042 220.395C195.22 218.13 194.454 215.661 193.975 213.462C192.971 208.851 191.722 204.297 190.341 199.787C188.938 195.204 187.399 190.664 185.838 186.133C184.379 181.897 182.977 177.623 181.076 173.558C177.47 165.845 171.369 160.133 163.828 156.319C161.953 155.37 158.127 151.984 156.168 151.226C154.367 150.529 154.373 152.564 152.601 151.797C151.183 151.184 149.864 150.367 149.07 148.998C148.209 147.512 146.048 145.433 145.719 143.703C145.022 140.036 145.777 136.914 143.161 134.154C140.838 131.703 137.716 130.024 134.486 129.123C127.38 127.14 117.903 128.526 113.615 135.132C111.568 138.287 110.852 142.1 108.089 144.674C105.676 146.922 106.216 148.459 103.091 149.618C102.914 149.684 98.1164 148.654 97.9394 148.72C94.5206 147.988 91.2531 150.037 88.1166 151.226C83.4406 152.998 78.9888 155.304 74.8063 158.046C66.3727 163.574 59.1495 170.752 53.1945 178.875C47.1903 187.064 42.5316 196.244 39.2145 205.838C38.4089 208.168 37.6853 210.527 37.0471 212.909C36.6898 214.241 36.3081 215.624 36.7431 216.989C37.0989 218.105 37.8903 218.936 38.8196 219.606C40.0794 220.514 42.6064 221.105 42.5572 222.931C42.5196 224.32 42.0487 225.781 41.8188 227.153C41.5452 228.788 41.3204 230.431 41.0956 232.073C40.0731 239.544 39.2772 247.057 38.9253 254.592C38.5788 262.011 38.2913 269.581 38.8057 276.998C38.8397 277.487 38.9855 277.936 39.2206 278.315C39.0011 278.399 38.9842 278.809 39.2574 278.867C39.4488 278.907 39.6398 278.948 39.8312 278.988C40.2288 279.289 40.7246 279.474 41.2953 279.492C41.6821 279.504 42.0687 279.522 42.4551 279.541C46.5328 280.394 50.6099 281.2 54.7408 281.81C59.7622 282.551 64.7984 283.155 69.8502 283.647C80.2308 284.656 90.5297 284.321 100.924 283.777C111.302 283.234 121.675 283.107 132.064 283.377C142.462 283.648 152.856 284.1 163.257 284.285C174.876 284.492 186.478 284.175 198.064 283.251C199.652 283.124 200.635 281.86 200.322 280.281C198.445 270.825 196.318 261.432 194.636 251.934Z" fill="white"/>
<path fill-rule="evenodd" clip-rule="evenodd" d="M94.6985 148.487C95.773 148.44 96.8686 148.614 97.9406 148.72C98.034 148.729 98.0694 148.873 97.9642 148.895C96.0458 149.296 94.1483 149.845 92.2641 150.402L91.4574 150.64C89.3327 151.269 87.2703 151.918 85.2134 152.756C81.114 154.428 77.2205 156.684 73.6372 159.276C59.8389 169.256 49.8523 184.366 43.5501 200.01C41.8387 204.259 40.3885 208.613 39.2139 213.041C38.9282 214.118 38.6595 215.199 38.4047 216.284C38.3299 216.602 38.004 217.417 38.1827 217.742C38.3407 218.03 38.9551 218.208 39.2405 218.357L40.2041 218.857C42.0837 219.826 45.2147 221.419 45.5287 221.575L46.0183 221.816C54.0276 225.744 62.5855 229.075 71.5985 229.305L71.669 228.535V228.535C72.0709 224.278 72.5982 219.999 73.7492 215.873C73.8111 215.651 74.0931 215.726 74.1189 215.923C74.7601 220.808 74.5551 225.73 74.3314 230.637C73.9353 239.328 73.4092 248.015 72.9417 256.703C72.7076 261.049 72.4051 265.392 72.1319 269.735C71.8583 274.088 71.7698 278.545 71.1451 282.861C71.0059 283.823 69.8794 284.346 69.0263 284.245C68.0823 284.132 67.3562 283.301 67.3518 282.347C67.3404 279.833 67.6562 277.288 67.8318 274.78C67.9985 272.397 68.1774 270.015 68.3608 267.633C69.0309 258.94 69.8018 250.257 70.5149 241.568C70.7675 238.486 71.0405 235.407 71.3215 232.328C61.7737 232.02 52.8537 228.482 44.3443 224.349C44.2211 227.146 43.9237 229.939 43.6357 232.725C42.8318 240.5 42.123 248.271 41.5925 256.07C41.3247 260.009 41.1297 263.953 40.9598 267.897C40.8763 269.836 40.8083 271.775 40.7561 273.714C40.7387 274.361 40.7229 275.007 40.7089 275.654L40.6799 277.135C40.6562 278.073 40.5608 278.943 39.7714 279.626C38.9697 280.32 37.8867 280.357 37.0932 279.626C36.0309 278.647 36.2187 277.314 36.2502 276C36.2764 274.892 36.3079 273.783 36.3444 272.675C36.4178 270.459 36.5113 268.243 36.6252 266.028C37.0237 258.285 37.8199 250.573 38.8604 242.892L39.2665 239.927C40.025 234.415 40.8578 228.778 42.5534 223.468C41.8932 223.139 41.2349 222.809 40.5791 222.476C39.4159 221.887 38.2131 221.334 37.0824 220.684C36.1854 220.168 35.4117 219.46 35.162 218.416C34.8835 217.253 35.3093 215.98 35.5923 214.845L35.6168 214.745C35.8942 213.602 36.193 212.464 36.5082 211.331C37.7863 206.737 39.3668 202.232 41.2165 197.837C44.92 189.038 49.7004 180.679 55.5396 173.121C60.7957 166.317 67.0049 160.148 74.2822 155.52C77.8399 153.258 81.6313 151.4 85.641 150.087C87.5151 149.473 89.5543 148.939 91.5166 148.72C92.575 148.601 93.6349 148.533 94.6985 148.487ZM113.736 134.545C115.013 133.173 117.55 134.592 116.937 136.409C115.495 140.682 113.198 144.58 109.615 147.388C106.246 150.028 102.228 151.742 97.9021 151.376C97.8687 151.373 97.8397 151.365 97.8142 151.353L98.187 151.858C101.114 155.819 104.202 159.726 107.924 162.963C115.507 169.56 125.831 173.117 135.801 170.586C143.645 168.595 150.556 162.39 152.588 154.482C152.297 154.613 151.95 154.658 151.57 154.575C149.944 154.222 148.334 152.511 147.286 151.284C146.151 149.957 145.265 148.524 144.616 146.904C143.427 143.94 143.046 140.123 144.669 137.252C144.869 136.898 145.331 137.096 145.37 137.442L145.432 137.981C145.745 140.672 146.135 143.276 147.403 145.729C148.024 146.929 148.768 148.101 149.674 149.107C150.158 149.644 150.684 150.158 151.251 150.609C151.804 151.049 152.473 151.367 152.968 151.871L153.059 151.968L153.061 151.95C153.187 150.885 153.934 150.415 154.664 150.445C155.372 150.473 156.202 150.785 156.524 150.934L156.554 150.948C161.488 153.317 166.032 156.405 170.308 159.832C179.151 166.917 185.776 176.179 188.986 187.087C190.562 192.44 191.466 197.956 192.42 203.446L193.008 206.81C193.899 211.879 194.894 217.047 196.905 221.762C197.425 222.981 197.024 224.125 195.748 224.605C194.156 225.204 192.557 225.784 190.956 226.357C191.742 229.73 192.222 233.221 192.811 236.611C194.063 243.818 195.597 250.979 196.912 258.176C197.585 261.856 198.191 265.549 198.863 269.229C199.187 271.002 199.524 272.771 199.853 274.543C200.029 275.498 200.19 276.456 200.359 277.413L200.388 277.572C200.485 278.076 200.606 278.598 200.467 279.103C200.309 279.679 199.86 280.086 199.459 280.499C199.128 280.839 198.651 280.841 198.247 280.656L198.113 280.594C197.391 280.256 196.825 279.919 196.568 279.103C196.406 278.587 196.348 278.005 196.242 277.474C196.038 276.454 195.845 275.433 195.663 274.409C195.299 272.36 194.943 270.31 194.596 268.258L194.271 266.337C193.158 259.716 192.101 253.054 191.566 246.363C191.329 243.394 191.078 240.428 190.824 237.461L190.634 235.236C190.393 232.42 190.098 229.533 190.057 226.678L189.099 227.018V227.018L184.428 228.67V228.67C183.27 229.08 181.795 229.919 180.549 229.766C179.939 229.691 179.474 229.499 179.114 229.15C179.545 235.223 180.127 241.285 180.903 247.316C181.609 252.804 182.392 258.285 183.316 263.74C183.774 266.442 184.244 269.141 184.755 271.833C185.011 273.179 185.275 274.523 185.546 275.866C185.682 276.536 185.843 277.206 185.948 277.882C186.069 278.655 185.856 279.131 185.424 279.768C185.07 280.29 184.36 280.559 183.785 280.198C183.023 279.72 182.625 279.305 182.401 278.435C182.198 277.643 182.074 276.817 181.916 276.016C181.625 274.537 181.344 273.057 181.073 271.574C180.505 268.473 179.982 265.364 179.514 262.246C177.867 251.263 176.823 240.187 176.295 229.094C176.034 223.62 175.954 218.142 176 212.663C176.024 209.855 176.115 207.038 176.314 204.237C176.515 201.401 176.933 198.622 177.307 195.813C177.32 195.715 177.46 195.709 177.465 195.813C177.642 198.962 177.919 202.107 178.055 205.264C178.185 208.277 178.242 211.294 178.345 214.307C178.48 218.268 178.668 222.232 178.917 226.192C179.367 225.7 180.046 225.416 180.725 225.527C181.708 225.32 182.767 224.804 183.705 224.49L187.24 223.309V223.309C189.099 222.688 190.957 222.071 192.822 221.473C191.155 215.861 190.013 210.165 189.037 204.387L188.602 201.788C187.741 196.672 186.813 191.554 185.253 186.601C183.614 181.392 181.16 176.55 177.905 172.165C174.696 167.844 170.793 164.039 166.774 160.48C163.333 157.433 159.652 154.682 156.142 151.719C156.179 151.915 156.187 152.131 156.154 152.369C155.408 157.832 152.559 162.92 148.589 166.704C140.613 174.307 128.805 175.884 118.597 172.319C108.721 168.871 99.9902 160.704 96.9055 150.598C96.8527 150.425 97.0842 150.356 97.1772 150.483C97.3483 150.718 97.5203 150.952 97.6925 151.187C97.6809 151.094 97.7292 150.992 97.8442 150.948C101.443 149.558 104.978 147.586 107.676 144.797C108.99 143.437 110.138 141.897 111.044 140.236C111.478 139.44 111.868 138.616 112.179 137.764L112.258 137.544C112.635 136.477 112.95 135.39 113.736 134.545Z" fill="black"/>
<path fill-rule="evenodd" clip-rule="evenodd" d="M132.798 46.281C144.794 46.281 159.819 59.9704 164.216 65.7957C167.913 70.6934 167.39 95.9246 167.39 110.892C167.39 114.022 165.975 119.947 165.462 122.941C163.58 133.913 155.383 143.115 139.158 143.115C125.946 143.115 115.78 138.929 105.948 128.222C103.705 125.779 92.7515 134.524 90.5113 131.375C84.6599 131.375 79.7671 76.6821 91.2556 60.2775C102.744 43.8728 120.802 46.281 132.798 46.281Z" fill="white"/>
<path fill-rule="evenodd" clip-rule="evenodd" d="M96.7438 50.1334C103.676 43.8246 112.91 40.7896 122.227 41.0136C127.052 41.1299 131.861 42.0492 136.418 43.6238C138.697 44.4143 140.905 45.4456 143.016 46.6123C143.776 47.0317 144.477 47.5232 145.152 48.0452L145.321 48.1763H145.323C147.133 48.8272 148.749 49.996 150.216 51.3634C153.154 51.1288 156.116 51.393 158.958 52.2997C162.913 53.5636 166.574 55.8779 169.145 59.1644C172.14 62.9905 173.136 67.6315 172.781 72.4225L172.715 73.2364C172.364 77.4686 171.734 82.9122 168.262 85.6931C167.998 85.9044 167.706 86.0651 167.404 86.1623C169.642 89.9962 171.478 94.2528 172.576 98.5516C176.77 114.971 173.546 132.095 168.503 147.921C168.089 149.225 166.118 150.092 165.114 148.817C163.323 146.539 160.72 144.801 157.792 144.476C155.985 144.275 154.187 144.639 152.48 143.819C151.811 143.495 151.164 142.967 150.699 142.324C147.818 143.417 144.714 143.933 141.636 143.806C136.585 143.599 131.185 141.849 127.709 138.011C127.152 137.395 127.01 136.703 127.139 136.079C127.575 135.924 128.022 135.808 128.483 135.736C132.89 138.334 137.748 140.07 142.969 140.179C145.985 140.242 148.928 139.82 151.374 137.936C151.903 137.528 152.39 137.076 152.84 136.591C157.954 133.3 161.56 127.71 163.274 121.722C164.871 116.138 164.675 110.324 164.126 104.596L163.836 101.574C163.413 97.1378 163.021 92.6884 162.912 88.2335L162.945 88.2318V88.2318C164.025 88.1621 164.033 86.4706 162.945 86.541C160.131 86.7232 157.338 86.2614 154.533 86.4626C154.51 85.136 154.414 83.8152 154.024 82.5357C153.802 81.8046 152.529 81.6605 152.395 82.5357C152.214 83.7066 152.148 84.8709 152.129 86.0471C147.931 85.9913 143.736 85.6379 139.538 85.7831C138.763 84.9567 138.517 83.4914 138.154 82.4721C138.102 82.322 138.049 82.1741 137.994 82.024C137.675 83.4807 137.224 84.9054 136.631 86.3001L135.601 86.3036C129.758 86.331 123.797 86.5057 118.092 87.7195C117.695 87.4149 117.459 86.8836 117.395 86.4011C116.981 83.2613 116.391 80.205 115.344 77.2129L115.194 76.7908C115.182 76.7558 115.169 76.7185 115.156 76.6794C114.384 77.9249 113.464 79.0858 112.46 80.1669C111.869 80.8041 111.248 81.4134 110.612 82.0054C109.993 82.6923 109.354 83.3689 108.735 84.0579C108.759 84.1832 108.78 84.3104 108.797 84.44C108.987 85.8698 109.007 87.3198 108.868 88.7551C108.617 91.3499 107.885 93.8501 106.708 96.1632L106.671 96.3948C106.492 97.4787 106.238 98.5989 105.645 99.4152C106.385 100.245 106.956 101.237 107.287 102.339C107.581 103.32 106.225 104.17 105.521 103.367C104.963 102.729 104.342 102.202 103.66 101.781C103.617 101.839 103.539 101.868 103.452 101.819C101.552 100.764 98.3262 101.084 96.429 102.077C94.0692 103.311 93.148 105.845 93.41 108.413C93.6614 110.867 94.7347 113.735 96.8157 114.993C97.7706 115.57 98.5142 115.618 99.5283 115.341C99.8526 115.253 100.255 114.983 100.427 114.849L100.597 114.713C101.262 114.187 101.881 113.827 102.666 113.813C103.468 113.563 104.275 113.91 104.582 114.752L104.601 114.807C104.745 115.236 105.006 115.775 104.949 116.43C104.89 117.131 104.569 117.77 104.09 118.283C104.007 118.372 103.918 118.461 103.828 118.543C112.088 127.49 113.149 141.43 108.913 152.607C108.729 153.097 108.533 153.581 108.328 154.061C107.62 155.705 104.895 155.196 104.548 153.566C104.445 153.078 104.33 152.592 104.206 152.11C103.977 151.219 103.714 150.337 103.418 149.468L103.306 149.143C103.054 148.424 102.82 147.699 102.566 146.98L102.541 146.898C102.531 146.866 102.521 146.828 102.509 146.786L102.08 147.722V147.722L100.777 150.548C100.167 151.867 98.2289 151.15 98.1568 149.879L98.1551 149.836C98.1488 149.601 98.1403 149.369 98.1255 149.138C98.0326 147.412 97.7347 145.733 97.2614 144.091L97.0907 144.304C94.5483 147.448 91.5645 150.395 87.4713 151.121C86.4445 151.303 85.2826 150.229 85.9882 149.191C86.2797 148.762 86.5607 148.323 86.8269 147.877C86.5966 147.769 86.379 147.657 86.1783 147.543C84.6255 146.67 83.3326 145.427 82.2635 144.017C79.9966 141.029 79.1854 137.267 78.9868 133.585C78.7755 129.694 79.1178 125.592 80.1804 121.838C80.641 120.215 81.2642 118.657 81.9847 117.146C81.934 117.011 81.8854 116.876 81.8368 116.74C81.0593 114.572 80.4213 112.355 79.891 110.112C78.822 105.585 78.2473 100.915 78.1776 96.2627C78.0509 87.9292 79.4875 79.4625 82.515 71.6911C85.6417 63.6767 90.3445 55.9561 96.7438 50.1334ZM92.8505 122.994C92.2763 122.09 90.8397 122.905 91.3728 123.816L91.3927 123.848C92.3033 125.283 92.7301 126.915 93.254 128.515C93.5899 129.544 95.223 129.104 94.8829 128.065L94.7703 127.717C94.2489 126.095 93.7733 124.446 92.8505 122.994ZM97.8507 105.731L98.2321 105.546C99.4353 104.972 100.49 104.581 101.911 105.082C103.815 105.752 105.853 107.885 104.567 109.954C104.094 110.717 103.253 111.021 102.387 110.842C100.926 110.539 100.549 109.223 99.8084 108.143L99.6809 107.96C99.2291 107.307 98.6578 106.404 97.9056 106.148C97.7345 106.088 97.6626 105.822 97.8507 105.731ZM98.9241 61.8002L99.047 61.69C99.8646 60.9672 98.6646 59.7752 97.8512 60.4938C94.1287 63.7845 92.8357 68.9351 90.9047 73.3249C90.4716 74.3119 91.9272 75.1742 92.3646 74.1787C94.2065 69.9899 95.4292 64.9791 98.9241 61.8002V61.8002ZM143.658 60.3607C142.685 59.9222 141.834 61.3382 142.77 61.8045L142.805 61.8211C146.092 63.3069 147.49 66.6716 148.83 69.7953C149.257 70.7929 150.712 69.9327 150.29 68.9436L150.048 68.3831C148.65 65.1639 147.02 61.8827 143.658 60.3607ZM148.81 58.3274C147.779 57.9703 147.338 59.6019 148.36 59.9591C151.147 60.9292 153.059 63.0215 154.671 65.414C155.275 66.3101 156.739 65.4647 156.129 64.5602C154.257 61.783 152.034 59.4518 148.81 58.3274Z" fill="black"/>
<path fill-rule="evenodd" clip-rule="evenodd" d="M143.152 128.274C141.731 127.695 140.464 126.728 139.538 125.493C139.216 125.063 139.132 124.61 139.2 124.195C139.276 123.729 139.551 123.306 139.927 123.023C140.305 122.739 140.777 122.598 141.233 122.67C141.629 122.732 142.024 122.949 142.336 123.399L142.401 123.49C142.952 124.235 143.67 124.847 144.488 125.241C145.276 125.621 146.157 125.798 147.07 125.695C148.807 125.499 150.005 124.559 151.277 123.282C151.435 123.121 151.593 122.955 151.752 122.786C151.852 122.633 151.991 122.534 152.145 122.483C152.317 122.425 152.51 122.429 152.688 122.491C152.859 122.55 153.012 122.664 153.115 122.815C153.213 122.958 153.268 123.135 153.25 123.339C153.134 124.662 152.442 125.842 151.46 126.769C150.37 127.799 148.924 128.511 147.563 128.761C146.063 129.036 144.535 128.839 143.152 128.274V128.274ZM148.27 107.866C149.866 108.836 152.297 111.099 150.58 113.504C148.56 115.624 145.652 113.193 144.218 112.093C142.889 111.241 141.396 113.433 142.629 114.428C152.986 122.099 157.189 108.12 149.077 106.726C148.184 106.572 147.852 107.566 148.27 107.866ZM129.71 98.943C129.886 96.7542 133.219 96.2571 133.55 98.4231C133.847 100.363 133.497 102.146 132.624 103.892C131.789 105.561 129.691 104.783 129.532 103.263C129.32 101.226 129.6 100.305 129.71 98.943ZM155.076 97.974C155.541 97.3653 156.211 96.9498 157.015 97.1846C159.526 97.9186 158.786 101.485 157.904 103.221C157.425 104.163 155.876 104.402 155.176 103.572C154.035 102.219 153.489 99.5158 154.939 98.1826C154.979 98.1137 155.022 98.0442 155.076 97.974ZM132.589 89.3655L132.985 89.296C134.212 89.0837 135.738 88.8798 136.606 89.8666C137.066 90.3899 137.225 91.3625 136.606 91.8634C135.517 92.7448 134.314 92.4032 133.01 92.4778C131.935 92.5395 130.902 92.7175 129.866 93.0136C127.595 93.6631 125.744 94.8487 123.804 96.1507C123.549 96.3214 123.289 95.9957 123.411 95.7576C124.531 93.5631 126.701 91.7605 128.875 90.6617C130.035 90.0752 131.305 89.5887 132.589 89.3655ZM152.787 88.3825L153.091 88.4446C156.394 89.1354 160.686 90.5154 162.251 93.7616C162.311 94.2207 162.248 94.319 162.196 94.3833L162.179 94.4047C162.137 94.4596 162.103 94.5353 161.904 94.5977C161.849 94.5846 161.794 94.5706 161.737 94.5559C161.02 94.3679 160.453 94.1089 159.903 93.8401L159.308 93.5466C158.617 93.2077 157.92 92.8811 157.181 92.64C155.605 92.1256 153.983 91.7632 152.336 91.5697C151.979 91.5278 151.636 91.4073 151.365 91.2008C151.107 91.0047 150.911 90.7333 150.821 90.3726C150.705 89.9057 150.738 89.5522 150.989 89.131C151.177 88.8147 151.446 88.5954 151.756 88.4695C152.071 88.3412 152.43 88.3109 152.787 88.3825Z" fill="black"/>
<path fill-rule="evenodd" clip-rule="evenodd" d="M214.506 97.1141C211.127 100.198 213.298 107.925 214.616 105.836C214.812 103.902 215.416 100.196 217.376 99.4457C231.791 98.8307 228.814 134.487 201.962 130.098C184.854 128.943 166.784 104.157 150.695 119.241C133.215 104.996 113.477 126.351 95.4764 129.276C80.8408 134.011 58.9696 125.316 62.9082 107.267C63.8921 101.97 71.2138 95.9113 75.6979 101.286C77.0226 102.563 75.3398 107.239 76.7325 106.273C78.9005 103.876 78.3356 100.05 76.332 97.6636C73.0134 93.7118 67.0979 95.4406 63.6567 98.2315C48.1322 113.51 66.8306 136.573 85.5443 135.05C106.051 137.559 133.939 109.049 148.035 122.899C149.472 124.311 152.173 124.312 153.423 122.9C165.407 109.362 188.536 137.03 205.242 135.054C223.01 136.673 237.23 115.22 226.975 100.052C224.42 96.1956 218.279 93.2891 214.506 97.1141Z" fill="black"/>
</g>
<defs>
<clipPath id="clip0_81_21086">
<rect width="240" height="275" fill="white"/>
</clipPath>
</defs>
</svg>
