<svg width="240" height="275" viewBox="0 0 240 275" fill="none" xmlns="http://www.w3.org/2000/svg">
<g clip-path="url(#clip0_81_20960)">
<rect width="240" height="275" fill="#E7ECED"/>
<path fill-rule="evenodd" clip-rule="evenodd" d="M49.162 285.363C50.276 287.056 52.4672 286.796 53.408 285.485C64.1205 287.982 75.1029 286.998 85.9643 286.385C116.571 285.14 147.351 289.045 177.834 284.959C181.068 284.313 184.831 284.622 187.477 282.378C191.709 277.417 190.798 269.885 190.124 263.842C184.72 229.78 177.038 195.406 173.206 161.125C172.992 157.859 174.337 153.802 175.543 150.732C175.841 150.161 177.723 149.602 178.7 148.943C181.698 146.79 181.212 142.932 178.613 140.668C170.198 134.734 158.484 136.808 149.557 138.997C147.846 132.569 145.923 128.342 142.666 127.923C136.467 127.126 121.428 124.691 116.795 127.923C114.579 129.469 113.157 134.917 111.562 137.571C99.9279 137.365 76.316 121.794 71.4617 139.328C67.5177 139.6 63.6114 143.045 64.3658 147.179C59.2508 151.7 63.2852 158.48 63.2144 164.108C62.542 176.049 56.0831 186.728 53.396 198.263C47.2538 220.636 40.3018 261.331 47.9199 283.169C47.756 283.083 47.3979 283.212 47.6298 283.394C48.4924 283.637 48.6046 284.724 49.162 285.363Z" fill="white"/>
<path fill-rule="evenodd" clip-rule="evenodd" d="M182.916 279.674C181.488 268.199 180.494 254.346 180.483 242.776C180.482 241.686 182.172 241.688 182.173 242.776C182.184 254.346 183.178 268.199 184.606 279.674C184.741 280.753 183.049 280.739 182.916 279.674M172.332 208.524C170.124 209.875 167.225 208.938 165.04 208.043C164.045 207.636 164.483 206.001 165.489 206.413C167.152 207.094 169.583 208.096 171.338 207.146C173.089 206.199 173.168 203.592 173.181 201.872C173.19 200.783 174.879 200.783 174.871 201.872C174.854 204.212 174.541 207.172 172.332 208.524M168.246 261.035C166.018 259.893 164.118 258.332 162.588 256.35C161.923 255.488 163.392 254.647 164.047 255.496C165.394 257.241 167.148 258.575 169.099 259.576C170.068 260.073 169.212 261.531 168.246 261.035M157.539 202.026C153.717 217.347 151.153 232.942 149.896 248.684C149.64 251.879 149.46 255.071 149.359 258.264C149.258 259.097 149.16 259.932 149.07 260.767C148.725 263.924 148.461 267.133 148.484 270.311C148.495 271.738 148.539 273.158 148.636 274.58C148.467 274.105 148.311 273.627 148.159 273.152C147.848 272.177 147.643 271.167 147.327 270.199C147.065 269.398 146.727 268.631 146.412 267.855V267.853C146.507 264.677 146.291 261.47 146.182 258.309C146.04 254.213 145.865 250.121 145.774 246.023C145.592 237.827 145.683 229.624 145.979 221.432C146.572 204.926 148.072 188.498 149.585 172.059C150.005 167.487 150.458 162.918 150.77 158.338C151.085 153.709 151.212 149.072 151.248 144.431C151.25 144.097 150.743 144.009 150.65 144.332C150.567 143.231 150.422 142.132 150.179 141.068C153.823 143.393 157.666 145.403 161.433 147.517C163.417 148.631 165.392 149.763 167.437 150.761C168.561 151.31 169.696 151.816 170.853 152.293C172.053 152.788 173.201 153.468 174.521 153.124C174.635 153.094 174.743 153.052 174.846 152.997C174.696 153.282 174.546 153.566 174.403 153.853C173.904 154.844 173.429 155.84 172.968 156.844C172.846 156.934 172.738 157.059 172.653 157.222C172.429 157.659 172.212 158.101 172.001 158.549C171.958 158.509 171.916 158.469 171.874 158.429C171.696 158.262 171.451 158.513 171.608 158.695C171.679 158.777 171.749 158.858 171.819 158.94C170.441 161.905 169.322 165.023 168.168 168.067C166.751 171.807 165.407 175.576 164.141 179.369C161.646 186.832 159.445 194.392 157.539 202.026M102.899 257.627C95.8554 261.401 89.2731 265.911 82.9423 270.775C82.0792 271.438 81.2384 269.968 82.0892 269.315C88.42 264.451 95.0025 259.941 102.046 256.167C103.006 255.653 103.859 257.113 102.899 257.627M79.1083 213.43C78.7422 213.403 78.3864 213.19 78.2934 212.809C77.7228 210.472 77.276 207.926 77.8067 205.543C78.0433 204.479 79.6724 204.932 79.4364 205.992C79.0179 207.872 79.3504 209.904 79.785 211.778C85.9284 212.047 91.9895 209.842 97.8672 208.361C98.9241 208.094 99.3705 209.726 98.3165 209.991C92.0816 211.562 85.6324 213.913 79.1083 213.43M201.411 275.77C201.417 275.756 201.424 275.739 201.428 275.724C201.789 274.629 201.798 273.357 201.838 272.209C201.908 270.168 201.834 268.122 201.65 266.086C201.261 261.802 200.424 257.588 199.425 253.409C197.446 245.133 194.648 237.081 193.129 228.692C190.148 212.226 190.856 195.081 185.006 179.198C182.574 172.596 179.101 166.249 174.381 161.003C174.726 159.955 175.062 158.904 175.389 157.85C175.962 156.015 176.547 154.121 176.9 152.232C176.908 152.181 176.919 152.128 176.925 152.076C178.934 151.209 180.762 149.575 181.074 147.403C181.21 146.464 181.053 145.424 180.648 144.518C181.476 143.753 182.008 142.759 181.881 141.428C181.645 138.921 178.719 138.276 176.682 137.786C174.367 137.23 171.965 137.076 169.596 137.338C168.401 137.469 167.217 137.689 166.062 138.019C165.058 138.304 163.966 138.598 163.161 139.287C163.066 139.367 163.144 139.523 163.258 139.523C164.887 139.517 166.51 138.919 168.155 138.841C169.879 138.76 171.599 138.902 173.289 139.257C174.941 139.604 176.589 140.111 178.091 140.895C178.514 141.117 179.133 141.267 178.636 141.715C178.273 142.043 177.559 142.07 177.092 142.119C176.059 142.227 175.167 142.831 175.036 143.934C174.92 144.909 175.501 146.012 176.536 146.232C176.593 146.245 176.646 146.259 176.693 146.278C176.72 146.331 176.762 146.375 176.758 146.304C176.758 146.304 176.76 146.301 176.76 146.304C176.786 146.458 176.794 146.519 176.794 146.53C176.788 146.517 176.777 146.464 176.769 146.422C176.775 146.46 176.788 146.521 176.805 146.612C176.781 146.513 176.8 146.756 176.781 146.794C176.232 147.808 174.608 148.094 173.661 148.531C173.477 148.616 173.319 148.715 173.184 148.827C172.96 148.749 172.731 148.671 172.501 148.584C171.367 148.159 170.234 147.747 169.085 147.364C166.867 146.623 164.621 145.961 162.403 145.217C158.203 143.81 154.142 142.032 150.02 140.422C149.889 139.936 149.737 139.46 149.558 138.997C149.522 138.9 149.348 138.868 149.329 138.997C149.266 139.407 149.215 139.819 149.173 140.234C149.156 140.272 149.152 140.314 149.16 140.354C148.922 142.763 148.985 145.23 148.862 147.637C148.71 150.638 148.286 153.618 148.165 156.622V156.677C147.722 159.24 147.32 161.812 146.957 164.393C146.549 164.266 146.082 164.292 145.605 164.547C142.229 166.35 138.434 167.354 134.617 167.578C132.694 167.69 130.791 167.627 128.879 167.405C127.622 167.261 126.384 166.999 125.143 166.75C125.796 164.013 126.498 161.288 127.29 158.592C127.943 156.374 128.67 154.168 129.567 152.035C130.474 149.882 131.602 147.825 132.652 145.737C133.136 144.771 132.565 143.294 131.308 143.395C130.936 143.425 130.565 143.448 130.191 143.465C126.553 143.639 122.769 143.233 119.177 142.871C115.089 142.457 110.946 142.028 106.894 141.354C106.594 141.305 106.472 141.713 106.767 141.812C108.69 142.459 110.589 143.19 112.56 143.674C114.589 144.175 116.629 144.632 118.687 144.989C120.658 145.329 122.638 145.615 124.624 145.856C125.919 146.014 127.229 146.094 128.532 146.2C126.777 149.007 125.566 152.173 124.512 155.29C123.158 159.293 122.162 163.412 121.189 167.523C119.105 176.334 117.388 185.234 116.044 194.189C115.081 200.61 114.301 207.056 113.716 213.519C113.543 211.556 113.331 209.599 113.093 207.644C112.294 201.153 111.128 194.705 109.569 188.354C109.708 188.109 109.774 187.815 109.727 187.53C109.446 185.784 108.707 184.264 108.058 182.645C107.414 180.384 106.719 178.137 105.971 175.907C105.122 172.87 104.169 169.88 102.95 166.959C102.018 164.733 100.955 162.565 99.7723 160.462C98.3589 157.522 96.8061 154.646 95.1012 151.896C95.0125 151.64 94.8688 151.401 94.6639 151.201C94.3533 150.71 94.0385 150.226 93.7174 149.746C93.5082 149.434 92.9082 149.624 93.0667 150.021C93.1406 150.207 93.2146 150.393 93.2906 150.577C86.3463 148.84 79.5371 151.496 72.9223 153.458C71.2533 153.954 69.5674 154.403 67.8561 154.726C66.5104 154.98 64.9427 155.288 63.6012 155.009C62.7033 154.823 62.3061 154.415 62.7434 153.456C63.1956 152.463 64.4294 151.809 65.5005 151.37C65.904 151.283 66.3012 151.129 66.6836 150.896C67.5751 150.355 67.966 149.227 67.5456 148.265C67.1632 147.396 66.0477 146.648 65.0611 147.045C64.9195 147.102 64.7801 147.157 64.6406 147.212C64.6258 147.191 64.6089 147.162 64.5942 147.119C64.4526 146.733 64.3913 147.196 64.4526 146.642C64.554 145.737 65.5111 144.915 66.166 144.397C67.7949 143.106 70.1484 142.151 72.2505 142.639C72.4089 142.675 72.5674 142.719 72.7237 142.774C74.8892 143.524 75.9435 140.405 74.2132 139.242C74.1075 139.173 73.9744 139.084 73.8287 138.98C73.1082 138.479 72.054 137.636 72.3413 136.875C72.6963 135.931 74.7899 135.387 75.5822 135.066C78.447 133.904 81.542 133.244 84.6308 133.109C87.7385 132.974 90.8864 133.316 93.8843 134.155C95.3547 134.565 96.8653 135.189 98.2554 135.819C99.504 136.383 102.221 137.129 102.394 138.71C102.432 139.059 102.929 139.177 103.036 138.796C103.888 135.761 100.584 133.802 98.4033 132.549C96.973 131.724 95.3505 131.211 93.7808 130.706C92.2766 130.22 90.7406 129.863 89.173 129.647C85.8075 129.186 82.4019 129.245 79.0639 129.892C76.0237 130.482 72.6413 131.488 70.1843 133.445C68.6758 134.645 67.9935 136.556 68.5998 138.42C68.6209 138.481 68.642 138.545 68.6632 138.606C65.9484 139.092 63.3794 140.648 61.6618 142.816C60.2505 144.598 59.5111 147.077 60.7744 149.151C60.7216 149.189 60.6688 149.229 60.6181 149.271C59.4139 150.235 58.5181 151.634 58.2519 153.164C57.7301 156.182 59.5533 158.293 62.1033 159.101C61.4716 159.718 60.8653 160.373 60.2716 161.028C58.9427 162.497 57.673 164.097 56.5533 165.729C54.2843 169.034 52.3449 172.634 50.6484 176.26C47.1604 183.708 44.9611 191.725 43.7949 199.853C43.2075 203.949 42.8146 208.066 42.6646 212.2C42.4913 216.914 42.6667 221.629 42.5758 226.344C42.4871 230.875 41.9864 235.297 40.9744 239.714C40.0047 243.939 38.7118 248.079 37.5413 252.249C36.2209 256.945 34.7674 261.621 34.0702 266.463C33.7174 268.927 33.4639 271.398 33.6604 273.889C33.8589 276.428 34.7801 278.598 35.6294 280.959C35.8449 281.562 36.5019 281.804 37.028 281.676C37.1463 282.806 37.573 283.91 38.2089 284.865C39.5589 286.89 41.6378 288.181 44.0188 288.65C46.7019 289.176 49.4674 289.052 52.1843 288.954C55.1315 288.849 58.0808 288.754 61.028 288.631C64.1135 288.504 67.1989 288.373 70.2844 288.241C70.1824 285.077 70.0607 281.915 69.9232 278.752C69.1793 261.658 68.0078 244.553 67.9768 227.435C67.917 227.4 67.8582 227.359 67.802 227.304C66.413 225.961 64.7076 225.079 63.1054 224.027C62.1986 223.432 63.0462 221.969 63.9585 222.568C65.3093 223.454 66.717 224.241 67.9829 225.234C67.9903 223.453 68.0059 221.671 68.0412 219.889C68.0627 218.801 69.7529 218.801 69.7313 219.889C69.6253 225.259 69.6608 230.631 69.7823 236.001C70.1754 253.403 71.4113 270.773 71.9742 288.169C80.2558 287.815 88.538 287.458 96.8209 287.156C103.558 286.911 110.296 286.666 117.033 286.42C118.446 286.37 119.241 285.359 119.414 284.038C119.731 281.608 119.135 279.095 117.787 277.051C117.648 276.84 117.483 276.652 117.299 276.491C117.331 275.035 117.39 273.576 117.308 272.12C117.185 269.897 117.001 267.674 116.841 265.452C116.515 261.003 116.264 256.546 116.165 252.087C115.962 243.168 116.11 234.24 116.615 225.334C117.627 207.54 119.982 189.861 123.838 172.456C124.119 171.188 124.402 169.92 124.696 168.654C127.693 170.212 131.34 170.771 134.617 170.793C138.724 170.818 142.74 169.873 146.45 168.155C146.424 168.347 146.399 168.538 146.376 168.73C145.341 176.973 144.468 185.232 143.708 193.502C142.191 209.99 141.261 226.545 141.39 243.106C141.426 247.695 141.601 252.268 141.819 256.85C142.041 261.511 142.381 266.435 143.678 270.931C143.822 271.427 144.141 271.713 144.508 271.816C144.527 272.471 144.57 273.129 144.616 273.775C144.766 275.878 145.195 280.247 146.112 282.153C147.005 284.013 148.495 285.488 150.394 286.3C152.807 287.329 155.416 287.033 157.964 286.868C169.043 286.146 180.113 285.178 191.186 284.328C192.728 284.21 194.27 284.093 195.81 283.973C197.181 283.867 198.599 283.774 199.816 283.062C201.2 282.253 202.279 278.277 201.802 276.633C201.715 276.333 201.584 276.037 201.411 275.77" fill="black"/>
<path fill-rule="evenodd" clip-rule="evenodd" d="M167.025 97.8958C166.941 93.1612 166.848 88.3318 166.144 83.6432C165.456 79.0595 163.564 74.9161 160.312 71.5876C153.405 64.5173 143.393 62.7903 134.074 61.2078L118.14 58.5018C113.279 57.6765 108.093 56.3573 103.182 57.5277C100.762 58.1045 98.7065 59.4445 96.8282 61.0298C95.0176 62.5579 93.071 64.1988 91.8441 66.2546C90.6152 68.3134 90.1925 70.72 89.7929 73.0484C89.3423 75.6736 88.9922 78.3193 88.7436 80.9713C88.2452 86.2847 88.1772 91.638 88.5387 96.9623C88.7138 99.5448 88.9925 102.12 89.3482 104.684C89.5246 105.955 89.7241 107.223 89.9493 108.487C90.0156 108.859 90.0661 109.272 90.1341 109.689C89.6315 111.119 89.3459 112.599 89.3689 114.074C89.4368 118.418 93.1016 121.152 96.7963 122.621C98.9385 123.472 101.178 124.05 103.283 125.002C105.497 126.002 107.004 127.624 108.518 129.473C111.406 133.002 114.664 136.173 118.385 138.819C126.273 144.428 136.264 147.081 145.836 145.067C148.132 144.584 150.449 143.834 152.513 142.703C154.693 141.51 156.331 139.78 157.708 137.736C160.263 133.94 162.095 129.665 163.482 125.315C164.896 120.878 165.9 116.433 166.447 111.806C166.992 107.195 167.107 102.536 167.025 97.8958V97.8958Z" fill="white"/>
<path fill-rule="evenodd" clip-rule="evenodd" d="M116.179 42.0088C122.772 41.1015 131.873 44.0505 135.157 49.9966C150.834 46.2992 170.607 46.1781 183.529 58.4865C197.012 73.087 180.076 92.3379 168.847 96.6782C169.664 100.653 168.39 126.118 159.37 137.476C152.211 147.1 135.54 151.542 127.826 140.047L127.766 139.952C126.94 138.624 127.652 138.667 128.5 139.654C136.054 146.3 146.324 146.413 154.238 139.4C169.071 126.582 167.542 95.1518 160.484 76.9691C140.386 74.7609 118.867 80.8548 104.986 95.9894L105.925 101.643C106.084 102.606 106.266 103.568 106.405 104.534C106.494 105.154 106.503 105.77 106.075 106.271C104.658 107.926 102.272 105.439 100.308 104.45C99.7283 104.368 99.1475 104.337 98.5779 104.377C89.1432 105.593 91.0021 123.902 101.372 120.693C102.243 120.15 102.991 120.315 103.329 121.103C105.801 123.368 107.431 127.407 111.537 131.298C112.986 132.757 114.304 133.978 115.934 135.149C116.891 136.117 119.78 137.105 118.864 138.762C117.133 142.533 106.922 130.688 105.117 127.412C99.4604 129.646 93.1921 128.888 87.3305 128.341C56.4072 126.733 60.5354 94.1238 85.8824 73.5359C90.6537 70.022 95.9179 67.1555 101.39 64.9496C102.137 64.6485 101.811 63.4214 101.053 63.7268C97.4322 65.1866 93.9026 66.9241 90.5379 68.9351L90.5328 67.7328C90.5279 65.7078 90.5597 63.5996 90.9113 61.7494C91.087 60.4673 91.3826 59.098 91.8377 58.0679C92.4003 54.9096 101.213 44.0691 116.179 42.0088ZM98.165 108.581C98.6425 108.127 99.5338 108.668 99.9589 108.654C101.046 108.803 102.079 109.262 102.884 109.829C103.416 110.127 103.788 110.407 104.1 110.664L104.108 110.662C104.106 110.662 104.103 110.664 104.1 110.665L104.13 110.685C104.583 111.007 106.243 112.823 105.194 112.334C105.116 112.233 105.036 112.135 104.955 112.039C104.947 112.052 104.935 112.065 104.92 112.078L104.979 112.165C105.871 113.507 104.332 112.093 104.095 111.718C104.084 111.727 104.071 111.733 104.059 111.74L104.367 112.115C104.41 112.168 104.444 112.211 104.472 112.247L104.537 112.31C105.568 113.323 105.6 114.235 104.402 112.737C104.45 112.808 104.487 112.882 104.493 112.949L104.564 113.039C105.504 114.251 104.739 113.821 104.272 113.303L104.233 113.259L104.241 113.271C104.675 113.94 103.813 113.47 103.661 113.112L103.654 113.096C103.488 112.96 103.386 112.808 103.351 112.77L103.345 112.764C102.536 111.935 101.365 111.234 100.369 110.916C100.225 110.888 100.079 110.866 99.9316 110.85C99.3331 110.717 98.728 110.625 98.1166 110.576C98.0418 110.567 97.966 110.512 97.9094 110.441C96.9848 110.41 97.2702 110.031 97.6538 109.96L97.6605 109.959L97.5844 109.953C96.9911 109.895 96.5859 109.682 97.1858 109.551L97.2618 109.536C97.2525 109.521 97.2443 109.507 97.2363 109.492C96.7225 109.436 97.0578 108.936 97.343 109.057C97.223 108.665 97.7714 108.861 97.8399 108.802C97.892 108.744 97.9569 108.693 97.9943 108.69C98.1595 108.574 98.0794 108.584 98.165 108.581ZM101.309 102.226L101.189 102.297C101.091 102.353 100.991 102.391 100.891 102.413C101.033 102.474 101.173 102.539 101.312 102.609C101.31 102.524 101.308 102.438 101.308 102.353L101.309 102.226Z" fill="black"/>
<path fill-rule="evenodd" clip-rule="evenodd" d="M143.152 128.274C141.731 127.695 140.464 126.728 139.538 125.493C139.216 125.063 139.132 124.61 139.2 124.195C139.276 123.729 139.551 123.306 139.927 123.023C140.305 122.739 140.777 122.598 141.233 122.67C141.629 122.732 142.024 122.949 142.336 123.399L142.401 123.49C142.952 124.235 143.67 124.847 144.488 125.241C145.276 125.621 146.157 125.798 147.07 125.695C148.807 125.499 150.005 124.559 151.277 123.282C151.435 123.121 151.593 122.955 151.752 122.786C151.852 122.633 151.991 122.534 152.145 122.483C152.317 122.425 152.51 122.429 152.688 122.491C152.859 122.55 153.012 122.664 153.115 122.815C153.213 122.958 153.268 123.135 153.25 123.339C153.134 124.662 152.442 125.842 151.46 126.769C150.37 127.799 148.924 128.511 147.563 128.761C146.063 129.036 144.535 128.839 143.152 128.274V128.274ZM148.27 107.866C149.866 108.836 152.297 111.099 150.58 113.504C148.56 115.624 145.652 113.193 144.218 112.093C142.889 111.241 141.396 113.433 142.629 114.428C152.986 122.099 157.189 108.12 149.077 106.726C148.184 106.572 147.852 107.566 148.27 107.866ZM129.71 98.943C129.886 96.7542 133.219 96.2571 133.55 98.4231C133.847 100.363 133.497 102.146 132.624 103.892C131.789 105.561 129.691 104.783 129.532 103.263C129.32 101.226 129.6 100.305 129.71 98.943ZM155.076 97.974C155.541 97.3653 156.211 96.9498 157.015 97.1846C159.526 97.9186 158.786 101.485 157.904 103.221C157.425 104.163 155.876 104.402 155.176 103.572C154.035 102.219 153.489 99.5158 154.939 98.1826C154.979 98.1137 155.022 98.0442 155.076 97.974ZM132.589 89.3655L132.985 89.296C134.212 89.0837 135.738 88.8798 136.606 89.8666C137.066 90.3899 137.225 91.3625 136.606 91.8634C135.517 92.7448 134.314 92.4032 133.01 92.4778C131.935 92.5395 130.902 92.7175 129.866 93.0136C127.595 93.6631 125.744 94.8487 123.804 96.1507C123.549 96.3214 123.289 95.9957 123.411 95.7576C124.531 93.5631 126.701 91.7605 128.875 90.6617C130.035 90.0752 131.305 89.5887 132.589 89.3655ZM152.787 88.3825L153.091 88.4446C156.394 89.1354 160.686 90.5154 162.251 93.7616C162.311 94.2207 162.248 94.319 162.196 94.3833L162.179 94.4047C162.137 94.4596 162.103 94.5353 161.904 94.5977C161.849 94.5846 161.794 94.5706 161.737 94.5559C161.02 94.3679 160.453 94.1089 159.903 93.8401L159.308 93.5466C158.617 93.2077 157.92 92.8811 157.181 92.64C155.605 92.1256 153.983 91.7632 152.336 91.5697C151.979 91.5278 151.636 91.4073 151.365 91.2008C151.107 91.0047 150.911 90.7333 150.821 90.3726C150.705 89.9057 150.738 89.5522 150.989 89.131C151.177 88.8147 151.446 88.5954 151.756 88.4695C152.071 88.3412 152.43 88.3109 152.787 88.3825Z" fill="black"/>
<path fill-rule="evenodd" clip-rule="evenodd" d="M169.07 112.228C168.37 111.288 167.111 110.053 165.838 110.12C165.675 110.128 165.614 110.305 165.712 110.424C166.129 110.933 166.698 111.295 167.115 111.814C167.609 112.429 167.965 113.17 168.197 113.92C168.533 115.009 168.626 116.241 168.326 117.349C167.797 119.301 166.125 120.732 164.3 121.462C162.493 122.185 160.32 122.432 158.612 121.373C156.09 119.808 153.951 117.553 150.782 117.509C150.041 117.498 149.518 117.838 149.207 118.323C148.894 117.855 148.379 117.525 147.656 117.516C144.103 117.476 141.451 119.923 138.469 121.448C136.454 122.479 133.846 122.159 131.767 121.478C129.806 120.836 127.677 119.546 126.937 117.509C126.529 116.384 126.62 115.071 127.039 113.962C127.315 113.233 127.741 112.529 128.268 111.956C128.814 111.362 129.532 110.988 130.091 110.424C130.205 110.309 130.115 110.13 129.965 110.12C127.589 109.959 125.444 112.797 124.995 114.856C124.553 116.883 125.212 118.906 126.545 120.453C129.257 123.599 134.277 124.636 138.184 123.712C141.346 122.964 144.35 121.241 147.656 121.488C148.38 121.542 148.901 121.24 149.215 120.782C149.529 121.254 150.052 121.562 150.782 121.491C153.863 121.193 156.613 123.376 159.604 123.909C161.985 124.333 164.557 123.761 166.598 122.477C168.731 121.136 170.232 118.984 170.331 116.419C170.388 114.943 169.955 113.416 169.07 112.228" fill="black"/>
</g>
<defs>
<clipPath id="clip0_81_20960">
<rect width="240" height="275" fill="white"/>
</clipPath>
</defs>
</svg>
