<svg width="240" height="275" viewBox="0 0 240 275" fill="none" xmlns="http://www.w3.org/2000/svg">
<g clip-path="url(#clip0_81_21026)">
<rect width="240" height="275" fill="#E7ECED"/>
<path fill-rule="evenodd" clip-rule="evenodd" d="M194.636 251.934C193.785 247.123 193.004 242.299 192.295 237.465C191.958 235.17 191.629 232.872 191.334 230.571C191.127 228.959 190.812 227.115 191.909 225.921C193.452 224.241 194.853 222.802 195.042 220.395C195.22 218.13 194.454 215.661 193.975 213.462C192.971 208.851 191.722 204.297 190.341 199.787C188.938 195.204 187.399 190.664 185.838 186.133C184.379 181.897 182.977 177.623 181.076 173.558C177.47 165.845 171.369 160.133 163.828 156.319C161.953 155.37 158.127 151.984 156.168 151.226C154.367 150.529 154.373 152.564 152.601 151.797C151.183 151.184 149.864 150.367 149.07 148.998C148.209 147.512 146.048 145.433 145.719 143.703C145.022 140.036 145.777 136.914 143.161 134.154C140.838 131.703 137.716 130.024 134.486 129.123C127.38 127.14 117.903 128.526 113.615 135.132C111.568 138.287 110.852 142.1 108.089 144.674C105.676 146.922 106.216 148.459 103.091 149.618C102.914 149.684 98.1164 148.654 97.9394 148.72C94.5206 147.988 91.2531 150.037 88.1166 151.226C83.4406 152.998 78.9888 155.304 74.8063 158.046C66.3727 163.574 59.1495 170.752 53.1945 178.875C47.1903 187.064 42.5316 196.244 39.2145 205.838C38.4089 208.168 37.6853 210.527 37.0471 212.909C36.6898 214.241 36.3081 215.624 36.7431 216.989C37.0989 218.105 37.8903 218.936 38.8196 219.606C40.0794 220.514 42.6064 221.105 42.5572 222.931C42.5196 224.32 42.0487 225.781 41.8188 227.153C41.5452 228.788 41.3204 230.431 41.0956 232.073C40.0731 239.544 39.2772 247.057 38.9253 254.592C38.5788 262.011 38.2913 269.581 38.8057 276.998C38.8397 277.487 38.9855 277.936 39.2206 278.315C39.0011 278.399 38.9842 278.809 39.2574 278.867C39.4488 278.907 39.6398 278.948 39.8312 278.988C40.2288 279.289 40.7246 279.474 41.2953 279.492C41.6821 279.504 42.0687 279.522 42.4551 279.541C46.5328 280.394 50.6099 281.2 54.7408 281.81C59.7622 282.551 64.7984 283.155 69.8502 283.647C80.2308 284.656 90.5297 284.321 100.924 283.777C111.302 283.234 121.675 283.107 132.064 283.377C142.462 283.648 152.856 284.1 163.257 284.285C174.876 284.492 186.478 284.175 198.064 283.251C199.652 283.124 200.635 281.86 200.322 280.281C198.445 270.825 196.318 261.432 194.636 251.934Z" fill="white"/>
<path fill-rule="evenodd" clip-rule="evenodd" d="M94.6985 148.487C95.773 148.44 96.8686 148.614 97.9406 148.72C98.034 148.729 98.0694 148.873 97.9642 148.895C96.0458 149.296 94.1483 149.844 92.2641 150.401L91.4574 150.64C89.3327 151.269 87.2703 151.918 85.2134 152.756C81.114 154.428 77.2205 156.684 73.6372 159.275C59.8389 169.256 49.8523 184.366 43.5501 200.01C41.8387 204.259 40.3885 208.613 39.2139 213.041C38.9282 214.118 38.6595 215.199 38.4047 216.284C38.3299 216.602 38.004 217.417 38.1827 217.742C38.3407 218.03 38.9551 218.208 39.2405 218.357L40.2041 218.857C42.0837 219.826 45.2147 221.419 45.5287 221.575L46.0183 221.816C54.0276 225.744 62.5855 229.075 71.5985 229.305L71.669 228.535V228.535C72.0709 224.278 72.5982 219.999 73.7492 215.873C73.8111 215.651 74.0931 215.726 74.1189 215.923C74.7601 220.808 74.5551 225.73 74.3314 230.637C73.9353 239.328 73.4092 248.015 72.9417 256.702C72.7076 261.048 72.4051 265.391 72.1319 269.735C71.8583 274.087 71.7698 278.544 71.1451 282.861C71.0059 283.823 69.8794 284.346 69.0263 284.245C68.0823 284.132 67.3562 283.301 67.3518 282.347C67.3404 279.833 67.6562 277.288 67.8318 274.78C67.9985 272.397 68.1774 270.015 68.3608 267.633C69.0309 258.94 69.8018 250.257 70.5149 241.568C70.7675 238.486 71.0405 235.407 71.3215 232.328C61.7737 232.02 52.8537 228.482 44.3443 224.348C44.2211 227.146 43.9237 229.939 43.6357 232.725C42.8318 240.499 42.123 248.271 41.5925 256.07C41.3247 260.009 41.1297 263.953 40.9598 267.897C40.8763 269.836 40.8083 271.774 40.7561 273.714C40.7387 274.36 40.7229 275.007 40.7089 275.654L40.6799 277.135C40.6562 278.073 40.5608 278.943 39.7714 279.626C38.9697 280.32 37.8867 280.357 37.0932 279.626C36.0309 278.647 36.2187 277.314 36.2502 276C36.2764 274.891 36.3079 273.783 36.3444 272.675C36.4178 270.459 36.5113 268.243 36.6252 266.028C37.0237 258.285 37.8199 250.573 38.8604 242.892L39.2665 239.927C40.025 234.415 40.8578 228.777 42.5534 223.468C41.8932 223.139 41.2349 222.808 40.5791 222.476C39.4159 221.887 38.2131 221.334 37.0824 220.684C36.1854 220.168 35.4117 219.46 35.162 218.416C34.8835 217.252 35.3093 215.98 35.5923 214.845L35.6168 214.745C35.8942 213.602 36.193 212.464 36.5082 211.331C37.7863 206.737 39.3668 202.232 41.2165 197.837C44.92 189.038 49.7004 180.679 55.5396 173.121C60.7957 166.317 67.0049 160.147 74.2822 155.52C77.8399 153.258 81.6313 151.4 85.641 150.087C87.5151 149.473 89.5543 148.939 91.5166 148.72C92.575 148.601 93.6349 148.533 94.6985 148.487ZM113.736 134.544C115.013 133.173 117.55 134.592 116.937 136.408C115.495 140.682 113.198 144.58 109.615 147.388C106.246 150.027 102.228 151.742 97.9021 151.376C97.8687 151.373 97.8397 151.364 97.8142 151.352L98.187 151.858C101.114 155.819 104.202 159.725 107.924 162.963C115.507 169.559 125.831 173.117 135.801 170.586C143.645 168.595 150.556 162.39 152.588 154.482C152.297 154.613 151.95 154.658 151.57 154.575C149.944 154.222 148.334 152.511 147.286 151.284C146.151 149.957 145.265 148.524 144.616 146.904C143.427 143.94 143.046 140.123 144.669 137.252C144.869 136.898 145.331 137.096 145.37 137.442L145.432 137.981C145.745 140.672 146.135 143.275 147.403 145.729C148.024 146.929 148.768 148.101 149.674 149.106C150.158 149.644 150.684 150.158 151.251 150.609C151.804 151.049 152.473 151.366 152.968 151.871L153.059 151.967L153.061 151.95C153.187 150.885 153.934 150.415 154.664 150.445C155.372 150.473 156.202 150.785 156.524 150.934L156.554 150.948C161.488 153.317 166.032 156.405 170.308 159.831C179.151 166.917 185.776 176.179 188.986 187.086C190.562 192.44 191.466 197.956 192.42 203.446L193.008 206.81C193.899 211.879 194.894 217.047 196.905 221.762C197.425 222.981 197.024 224.125 195.748 224.605C194.156 225.204 192.557 225.784 190.956 226.356C191.742 229.73 192.222 233.221 192.811 236.611C194.063 243.818 195.597 250.979 196.912 258.176C197.585 261.856 198.191 265.549 198.863 269.229C199.187 271.001 199.524 272.771 199.853 274.543C200.029 275.498 200.19 276.456 200.359 277.413L200.388 277.572C200.485 278.076 200.606 278.598 200.467 279.103C200.309 279.679 199.86 280.086 199.459 280.499C199.128 280.839 198.651 280.841 198.247 280.656L198.113 280.594C197.391 280.256 196.825 279.919 196.568 279.103C196.406 278.587 196.348 278.005 196.242 277.473C196.038 276.454 195.845 275.433 195.663 274.409C195.299 272.36 194.943 270.31 194.596 268.258L194.271 266.337C193.158 259.715 192.101 253.054 191.566 246.362C191.329 243.394 191.078 240.428 190.824 237.461L190.634 235.236C190.393 232.42 190.098 229.533 190.057 226.678L189.099 227.018V227.018L184.428 228.67V228.67C183.27 229.08 181.795 229.919 180.549 229.766C179.939 229.691 179.474 229.499 179.114 229.15C179.545 235.223 180.127 241.285 180.903 247.316C181.609 252.804 182.392 258.285 183.316 263.74C183.774 266.442 184.244 269.141 184.755 271.832C185.011 273.179 185.275 274.523 185.546 275.866C185.682 276.536 185.843 277.206 185.948 277.882C186.069 278.655 185.856 279.131 185.424 279.768C185.07 280.29 184.36 280.559 183.785 280.198C183.023 279.72 182.625 279.305 182.401 278.434C182.198 277.643 182.074 276.817 181.916 276.016C181.625 274.537 181.344 273.056 181.073 271.574C180.505 268.473 179.982 265.364 179.514 262.246C177.867 251.263 176.823 240.187 176.295 229.093C176.034 223.62 175.954 218.142 176 212.663C176.024 209.854 176.115 207.038 176.314 204.237C176.515 201.401 176.933 198.622 177.307 195.813C177.32 195.714 177.46 195.709 177.465 195.813C177.642 198.962 177.919 202.107 178.055 205.264C178.185 208.276 178.242 211.293 178.345 214.307C178.48 218.268 178.668 222.232 178.917 226.192C179.367 225.7 180.046 225.415 180.725 225.526C181.708 225.32 182.767 224.804 183.705 224.49L187.24 223.309V223.309C189.099 222.688 190.957 222.071 192.822 221.473C191.155 215.861 190.013 210.165 189.037 204.387L188.602 201.788C187.741 196.672 186.813 191.554 185.253 186.6C183.614 181.392 181.16 176.55 177.905 172.165C174.696 167.844 170.793 164.039 166.774 160.48C163.333 157.433 159.652 154.682 156.142 151.719C156.179 151.915 156.187 152.131 156.154 152.369C155.408 157.832 152.559 162.92 148.589 166.704C140.613 174.307 128.805 175.884 118.597 172.319C108.721 168.871 99.9902 160.704 96.9055 150.597C96.8527 150.425 97.0842 150.356 97.1772 150.483C97.3483 150.718 97.5203 150.952 97.6925 151.187C97.6809 151.094 97.7292 150.992 97.8442 150.948C101.443 149.557 104.978 147.586 107.676 144.797C108.99 143.437 110.138 141.897 111.044 140.235C111.478 139.44 111.868 138.616 112.179 137.764L112.258 137.544C112.635 136.477 112.95 135.389 113.736 134.544Z" fill="black"/>
<path fill-rule="evenodd" clip-rule="evenodd" d="M111.129 50.584L112.954 52.7549C111.944 53.4672 110.99 54.1829 110.093 54.9021L110.092 54.8999C114.248 52.1874 118.85 50.584 123.822 50.584C133.399 50.584 152.851 58.8133 157.248 64.7491C159.43 67.6949 163.485 76.7381 165.589 86.5696C167.279 94.4691 169.793 116.786 167.279 125.172C164.062 135.905 153.477 145.824 142.563 145.824C131.649 145.824 114.704 137.942 102.645 120.668C102.093 119.878 95.7606 118.962 91.2431 115.997L92.4292 129.069L93.3306 136.673L93.1317 137.214C89.8963 145.967 87.3324 150.534 85.4401 150.914C83.5092 151.302 79.5768 148.135 73.643 141.415L72.8848 138.231C70.959 130.11 69.9961 125.751 69.9961 125.153L69.9974 125.045C70.0258 123.67 70.4991 115.891 70.5089 113.797L70.509 82.4191C76.8906 61.1957 82.9804 50.584 88.7785 50.584H111.129Z" fill="white"/>
<path fill-rule="evenodd" clip-rule="evenodd" d="M96.009 43.3561C97.8853 42.6291 100.059 42.7664 101.84 43.8612C105.337 43.7112 108.814 45.757 110.637 48.7434C110.675 48.7857 110.716 48.828 110.751 48.8702L111.138 49.3207C111.504 49.7509 111.89 50.2251 112.195 50.7147C110.698 50.7489 109.45 51.3595 108.579 52.5928C107.958 53.4727 109.381 54.3089 110.017 53.4766L110.039 53.4462C110.562 52.7058 111.351 52.419 112.23 52.404C112.482 52.3998 112.673 52.3032 112.809 52.1608C112.862 52.3571 112.911 52.5556 112.955 52.7549C117.379 51.0334 122.149 50.5775 126.899 50.9859C126.691 51.3232 126.517 51.6846 126.383 52.0644C126.231 52.4949 126.555 52.9892 126.973 53.1042C127.425 53.2285 127.834 52.9634 127.997 52.5538L128.012 52.5137C128.195 51.9963 128.493 51.5523 128.893 51.208C131.13 51.5113 133.35 51.9936 135.516 52.6154C138.12 53.3633 140.698 54.2762 143.221 55.3213C142.793 55.4889 142.424 55.7721 142.166 56.2449C141.65 57.1886 143.068 58.0339 143.606 57.1317L143.625 57.0983C143.678 57.0016 143.725 56.9434 143.759 56.9103L143.771 56.899L143.846 56.8648L143.984 56.825V56.825L144.038 56.812C144.084 56.8014 144.104 56.8021 144.227 56.7952C144.392 56.7859 144.556 56.7868 144.721 56.7866C145.108 56.7864 145.355 56.5706 145.467 56.2946C146.711 56.8565 147.94 57.4483 149.147 58.0682L149.434 58.2168C153.16 60.1641 156.689 62.7214 158.736 66.4842C158.872 66.7357 158.914 67.0104 158.88 67.2725C159.317 67.7967 159.74 68.3377 160.146 68.8872C161.384 70.5696 162.29 72.4823 163.148 74.3781C164.874 78.1909 166.036 82.1072 166.942 86.1905C167.819 90.1258 168.527 94.1034 169.184 98.081C169.913 102.5 170.519 106.958 170.646 111.44C170.87 119.432 169.308 127.469 164.823 134.197C160.822 140.199 154.797 144.965 147.651 146.491C140.384 148.042 132.694 146.529 126.966 141.685C126.043 140.905 126.17 139.33 126.966 138.531C127.868 137.631 129.199 137.756 130.118 138.531C135.512 143.094 143.363 143.798 149.861 141.473C155.87 139.322 160.577 134.359 163.465 128.786C166.989 121.989 167.582 114.182 167.041 106.662C166.746 102.532 166.131 98.4361 165.497 94.3465L165.114 91.8848C164.697 89.2184 164.259 86.5556 163.687 83.9163L163.553 83.3015C162.854 80.1187 162.035 76.8544 160.769 73.8624C160.106 72.2921 159.307 70.7788 158.49 69.2846C158.331 68.995 158.168 68.7012 158.001 68.4053C157.777 68.4835 157.522 68.4962 157.253 68.4117C154.944 67.6931 152.572 67.2112 150.157 67.0506C149.057 66.977 147.955 66.9656 146.855 67.0085C144.971 66.8988 143.034 67.0645 141.24 67.6424C141.064 67.4917 140.886 67.3442 140.708 67.1966C140.66 67.1928 140.612 67.1878 140.564 67.1782C140.106 67.0882 139.785 66.7627 139.591 66.3517C139.58 66.3299 139.571 66.3081 139.563 66.2863C139.333 66.1107 139.101 65.9378 138.868 65.7673C138.298 65.915 137.799 65.4409 137.665 64.9214C137.538 64.8359 137.409 64.753 137.281 64.6691C137.181 64.6936 137.081 64.7139 136.984 64.7211C136.565 64.7513 136.16 64.6871 135.788 64.4869C135.317 64.2335 135.017 63.8248 134.816 63.3604C134.104 63.4042 133.384 63.1732 132.748 62.7555C132.232 62.4167 131.836 61.949 131.443 61.4821C126.652 59.3443 121.444 58.0822 116.223 57.7588C115.709 57.8577 115.198 57.9754 114.694 58.1124C114.575 58.1449 114.405 58.2088 114.21 58.2853C115.374 58.1445 116.553 58.1306 117.749 58.3028C123.422 59.1235 127.841 63.3729 131.644 67.3841C132.548 67.2013 133.463 68.3732 132.626 69.1493L126.098 75.2005V75.2005C126.258 75.8772 125.482 76.5442 124.803 76.3817C123.663 76.1078 122.522 75.8415 121.379 75.5796C120.188 76.1564 118.69 76.0577 117.609 75.2216C117.559 75.1827 117.449 75.1206 117.354 75.0589C117.266 75.1322 117.146 75.2058 117.099 75.237C116.715 75.4915 116.246 75.5663 115.797 75.4949C115.336 75.4215 114.919 75.1872 114.559 74.8953C114.331 74.7094 113.798 73.9336 113.501 73.8765L113.472 73.8732C113.67 73.8789 113.034 74.4705 112.863 74.5928C112.464 74.8775 112.023 75.0272 111.527 74.9726C110.662 74.8774 109.918 74.0889 109.495 73.3607L109.463 73.3049L109.45 73.2702L109.439 73.3077C109.437 73.3143 109.434 73.3214 109.431 73.3294C109.368 73.5008 109.169 73.6957 109.034 73.8155C108.648 74.1564 108.171 74.3062 107.662 74.2173C107.23 74.1422 106.868 73.8815 106.576 73.566L106.531 73.5158C106.445 73.4184 105.876 72.6547 105.966 72.4717L105.976 72.4563L105.948 72.4504C105.602 72.5353 105.312 72.4502 105.1 72.272C103.914 72.012 102.743 71.7092 101.61 71.3241C101.521 71.5735 101.434 71.8229 101.35 72.0744C101.969 72.4569 102.541 73.0022 103.067 73.3911C104.065 74.1266 105.062 74.8621 106.057 75.5997L110 78.5092V78.5092L110.45 78.3881V78.3881C111.027 78.2333 111.521 78.5688 111.732 79.0817L111.75 79.1261C111.834 79.3508 111.935 79.5585 112.053 79.7574C113.039 79.7181 113.873 80.3234 114.143 81.1916C114.387 81.1861 114.632 81.1954 114.884 81.2231C115.572 81.2987 116.037 81.8102 115.912 82.5126L115.902 82.5607L115.886 82.6389C116.285 82.8084 116.574 83.1358 116.638 83.6308C116.745 83.7916 116.832 83.9666 116.887 84.1615C117.175 85.1726 116.614 86.4225 116.316 87.3912L116.293 87.467C116.102 88.1036 115.903 88.7372 115.703 89.3704L115.203 90.9426C113.818 95.3243 112.468 99.9442 113.589 104.538C113.828 105.51 112.585 105.95 112.046 105.189C110.74 103.347 109.329 101.611 107.848 99.9445L107.776 99.9331V99.9331C106.738 99.7245 106.335 98.9913 105.859 98.244C105.579 98.3266 105.277 98.3461 104.985 98.2899C104.563 98.2085 104.185 97.9673 103.887 97.6628C103.634 97.4045 103.402 96.7421 103.103 96.5779C102.729 96.3727 101.977 96.6661 101.531 96.6001C101.168 96.5466 100.828 96.4219 100.5 96.2653C99.8949 97.0898 99.4941 98.0591 99.3959 99.104C99.3576 99.5013 99.2393 99.8374 99.0682 100.116C99.6978 100.093 100.329 100.137 100.953 100.254C103.26 100.683 104.914 102.107 105.844 104.229C105.884 104.322 105.763 104.398 105.708 104.31C104.329 102.185 101.327 102.078 99.1464 102.826C96.8309 103.621 95.5316 105.66 95.0691 107.987C94.5621 110.538 95.2126 113.288 96.6008 115.46C97.2449 116.471 98.124 117.392 99.2921 117.764C100.68 118.206 101.963 117.415 103.384 117.823C104.352 118.1 104.779 119.036 104.603 119.973C104.534 120.34 104.405 120.662 104.232 120.941C104.743 121.955 105.216 122.999 105.818 123.959C106.748 125.44 107.872 126.666 109.097 127.903C110.363 129.179 111.651 130.43 113.006 131.614C114.303 132.749 115.79 133.556 117.151 134.596C118.106 135.325 118.579 136.348 118.108 137.519C117.719 138.487 116.409 139.311 115.348 138.874C113.318 138.037 111.541 136.612 109.923 135.146C108.423 133.784 107.117 132.157 106.131 130.39C105.2 128.724 104.514 126.833 103.936 125.01L103.864 124.783C103.591 123.917 103.304 122.942 103.118 121.959C102.005 122.568 100.494 122.657 99.3029 122.492C97.3781 122.228 95.6224 121.258 94.2957 119.844C93.6773 119.186 93.1307 118.435 92.6588 117.622C92.7016 118.117 92.7272 118.596 92.7547 119.032C93.8577 120.241 94.3001 121.985 93.9086 123.576C94.8314 124.526 95.09 125.953 94.6083 127.167C95.6184 128.169 95.5804 129.764 95.1437 131.213C96.3378 132.548 96.4508 134.628 95.5185 136.134L95.4904 136.242V136.242C96.4318 137.818 96.2195 139.855 95.0399 141.246C95.8455 142.809 95.7209 144.912 93.7077 145.518C92.974 145.739 92.2628 145.551 91.7307 145.139C92.2166 147.557 92.434 150.012 91.786 152.44C91.528 153.404 90.5858 154.108 89.595 154.108C88.7668 154.108 88.1647 153.692 87.7487 153.079C87.7973 154.298 87.7233 155.524 87.4635 156.76C87.3067 157.507 86.6144 158.089 85.8794 158.27C86.1445 158.569 86.2502 159.001 85.996 159.452C84.9183 161.36 82.3145 160.569 82.1385 158.74C81.4031 158.191 81.0612 157.29 80.9197 156.315C80.7135 154.895 80.6387 153.498 80.405 152.095L80.3157 152.179V152.179L80.2696 152.218L80.2548 152.32C80.1209 153.013 79.73 153.499 79.2228 153.788C79.3331 154.997 79.129 156.229 78.3621 157.147C77.8512 157.759 76.981 158 76.235 157.868C76.1881 157.87 76.1402 157.87 76.0903 157.863C74.4008 157.639 73.4233 156.035 73.868 154.564C73.1877 153.73 72.9012 152.672 73.1026 151.626C71.7862 150.754 71.813 148.839 72.2689 147.3C70.8889 146.211 70.3698 144.174 71.0632 142.555C69.8195 141.01 69.6464 138.857 70.4915 137.097C69.1231 135.973 69.1309 133.802 70.4881 132.651C69.7654 131.216 69.3295 129.496 70.0519 128.183C69.5423 127.62 69.2626 126.818 69.3215 126.044C69.4079 124.906 70.1604 124.119 71.0942 123.595L71.1589 123.24V123.24C71.3782 123.267 71.6119 123.206 71.8178 123.008C72.0217 122.812 72.2315 122.654 72.4485 122.524C72.6942 122.521 72.9057 122.411 73.0544 122.243C73.4613 122.104 73.8988 122.043 74.3841 122.038C75.4322 122.026 75.4692 120.458 74.4938 120.357C74.3397 120.201 74.1276 120.104 73.8976 120.104L73.7174 120.104C73.2962 120.108 72.871 120.134 72.4802 120.302C72.2262 120.41 72.0304 120.574 71.8869 120.775C71.8601 121.078 71.6953 121.38 71.3385 121.629C70.9263 121.918 70.3626 121.951 69.9215 121.691C69.304 121.325 69.2976 120.755 69.3688 120.136C69.5247 118.78 68.7456 117.504 68.9311 116.117C69.0133 115.504 69.2173 114.975 69.5501 114.547C68.8485 113.497 68.7247 112.14 69.2649 110.987C68.1395 109.776 67.9449 107.909 68.6626 106.451C68.6729 106.416 68.6809 106.38 68.6921 106.345C68.7733 106.097 68.885 105.874 69.0082 105.66C68.3782 104.568 68.3828 103.228 69.0232 102.141C68.0533 101.01 68.0224 99.2101 68.885 97.9914C68.8901 97.8904 68.9007 97.7894 68.9093 97.6884C68.5134 96.6601 68.6085 95.4912 69.1107 94.535C68.9315 94.1218 68.7933 93.6769 68.705 93.2031C68.4788 91.9815 68.5952 90.7937 68.9332 89.6017C68.9879 89.4136 69.0492 89.2255 69.1147 89.0374C69.1257 88.2209 69.1567 87.4081 69.1977 86.5967C69.0371 85.9099 69.0112 85.1551 69.0076 84.4543L69.0066 84C68.9987 82.8436 68.9182 81.1505 69.649 80.1676C69.1797 79.1058 69.3726 77.768 70.1558 76.9264C69.6061 75.9806 69.4907 74.8192 70.0432 73.7698C70.1319 73.601 70.2348 73.4437 70.3476 73.2949C70.302 72.3339 70.5042 71.3429 71.0161 70.3878C71.3486 69.766 71.8453 69.2277 72.4358 68.797C72.4259 68.6695 72.4197 68.5423 72.4219 68.417C72.4322 67.8577 72.5562 67.2962 72.765 66.7722C72.3904 66.1327 72.2167 65.4118 72.4358 64.6349C72.6809 63.7556 73.3254 62.999 74.1302 62.5721C74.195 61.7432 74.3245 60.9191 74.5096 60.106C74.015 59.0043 74.4088 57.5502 75.5266 56.9011C75.3809 56.0206 75.5123 55.1076 76.1528 54.4199C76.3956 54.1593 76.6816 53.9617 76.9895 53.8306C76.8412 52.9453 77.0085 52.0242 77.6205 51.3033C78.1204 50.7147 78.8611 50.3571 79.6149 50.3045C79.9052 48.7646 81.3758 47.6131 82.9273 47.7049C83.1213 47.0268 83.5846 46.4357 84.3033 46.136C84.4873 46.0593 84.6733 46.0088 84.8585 45.9807C86.1202 44.7075 87.9986 43.8445 89.6247 43.4026C91.2559 42.9611 92.9094 42.9183 94.3098 43.4317L94.4119 43.4702L94.5259 43.4554C95.0205 43.4005 95.5147 43.3688 96.009 43.3561ZM83.6142 147.707C83.1785 147.571 82.6926 147.868 82.5745 148.298C82.4499 148.752 82.7275 149.201 83.1648 149.338C83.7096 149.508 84.282 149.55 84.8499 149.551C85.3064 149.551 85.6949 149.162 85.6949 148.705C85.6949 148.246 85.3081 147.86 84.8499 147.86C84.388 147.859 84.047 147.842 83.6142 147.707ZM79.7386 138.729C79.0872 138.73 78.5286 138.886 78.0457 139.342C77.7237 139.647 77.7157 140.235 78.0457 140.538C78.379 140.844 78.8626 140.862 79.2047 140.57L79.2706 140.511C79.2785 140.504 79.2847 140.498 79.2896 140.494C79.3171 140.476 79.3448 140.458 79.3739 140.442L79.3188 140.478C79.2768 140.509 79.3742 140.459 79.4288 140.436L79.446 140.429L79.4515 140.428L79.4952 140.424C79.5761 140.42 79.6574 140.42 79.7386 140.42C80.1805 140.42 80.6039 140.032 80.5836 139.575C80.5629 139.117 80.2122 138.729 79.7386 138.729ZM92.0295 133.366C92.9443 132.805 92.1272 131.369 91.2098 131.886L91.1766 131.906C90.7063 132.194 90.1279 132.155 89.5951 132.156C88.5077 132.156 88.5058 133.847 89.5951 133.846L89.7751 133.846C90.5562 133.84 91.3462 133.785 92.0295 133.366ZM84.8312 127.195C84.1401 127.064 83.366 126.948 82.6388 127.028L82.5181 127.043H82.2943C82.1 127.043 81.9117 127.121 81.7607 127.244C81.5215 127.343 81.295 127.476 81.0884 127.655C80.2651 128.369 81.4649 129.561 82.2836 128.851C82.329 128.812 82.3818 128.779 82.4405 128.752L82.4855 128.733H83.3895C83.4717 128.733 83.5518 128.716 83.6298 128.692C83.9232 128.732 84.1966 128.79 84.3819 128.825C85.445 129.025 85.9005 127.396 84.8312 127.195ZM84.0594 110.967C82.7348 110.352 81.2677 110.357 80.0426 111.21C79.1665 111.821 79.9803 113.26 80.8639 112.691L80.8955 112.67C81.0053 112.594 81.1181 112.53 81.2322 112.472C81.8542 112.652 82.4802 112.66 83.0815 112.439L83.1598 112.409L83.2065 112.427C84.1868 112.882 85.0462 111.425 84.0594 110.967ZM98.4836 108.318C97.1454 108.168 97.1347 106.053 98.4836 106.204C101.332 106.524 103.916 107.791 105.809 109.966C106.689 110.977 105.239 112.457 104.342 111.491L104.315 111.46C102.81 109.731 100.779 108.575 98.4836 108.318ZM83.4923 97.4603C83.1948 97.4277 82.898 97.4115 82.6058 97.4256C81.904 97.4595 81.0492 97.9278 81.3572 98.7741C81.6042 99.4521 82.4137 99.4789 82.8135 99.1173C82.9797 99.1213 83.1458 99.1323 83.3112 99.1492C83.7525 99.1946 84.1897 99.2788 84.6247 99.3646C85.6871 99.5736 86.142 97.9443 85.074 97.734L84.6017 97.6405C84.4425 97.6094 84.2819 97.5789 84.1206 97.551C84.0241 97.503 83.9206 97.4706 83.8099 97.4624L83.754 97.4603H83.4923ZM75.0953 84.3429L74.9961 84.3294C73.569 84.1467 71.2781 84.3148 71.1049 86.1321C71.0092 87.1386 72.4627 87.2018 72.7496 86.3412C73.8034 86.1512 74.8659 86.1148 75.9125 86.2302C76.3118 85.8244 76.315 85.0443 75.6503 84.8497C75.5565 84.5973 75.3607 84.3811 75.0953 84.3429ZM107.717 81.2734C107.387 80.9705 106.846 80.9304 106.522 81.2734C106.335 81.4708 106.178 81.6902 106.055 81.9315L105.973 82.0945C105.959 82.1216 105.944 82.1485 105.93 82.175C105.902 82.2243 105.871 82.2712 105.841 82.319L105.82 82.3389C105.812 82.3471 105.803 82.357 105.791 82.369C105.487 82.6905 105.449 83.2499 105.791 83.5646C106.121 83.8675 106.662 83.9077 106.987 83.5646C107.173 83.3672 107.329 83.1481 107.453 82.9065L107.535 82.7437C107.549 82.7167 107.563 82.6898 107.578 82.6632C107.606 82.6138 107.637 82.5669 107.667 82.5191L107.701 82.4855C107.706 82.4805 107.711 82.475 107.717 82.469C108.021 82.1478 108.059 81.5881 107.717 81.2734ZM90.3869 79.0718C89.1962 78.2276 87.7803 78.1883 86.6857 79.2039C85.8958 79.9369 87.0564 81.1113 87.8529 80.4245L87.8808 80.3995C87.9098 80.3724 87.9391 80.3487 87.9683 80.3261C88.1111 80.4479 88.2926 80.525 88.5001 80.5252C88.5543 80.5254 88.6084 80.5252 88.6625 80.5264L88.7436 80.5292L88.7872 80.5328L88.7927 80.5339L88.8307 80.55C88.9002 80.5814 88.9961 80.6298 88.8645 80.5474C88.8939 80.5628 88.9213 80.581 88.9492 80.5988L88.9978 80.6429C89.3164 80.9443 89.8676 80.9841 90.1839 80.6508C90.7439 80.4614 91.0412 79.5353 90.3869 79.0718ZM102.029 76.3021L102.05 76.2953C103.094 75.997 102.65 74.3652 101.601 74.6647C100.487 74.9828 99.9554 76.0194 99.7327 77.0813C99.6391 77.5279 99.8637 77.9952 100.323 78.1213C100.743 78.2365 101.268 77.9797 101.363 77.5308C101.429 77.2151 101.505 76.9473 101.626 76.6988L101.699 76.5569C101.733 76.4922 101.745 76.4815 101.86 76.3809C101.879 76.364 101.967 76.323 102.029 76.3021ZM84.3442 67.7865L84.1809 67.7493C83.1638 67.5264 81.8137 67.41 81.1995 68.4187C80.6396 69.3376 82.052 70.1741 82.6336 69.3055C82.6424 69.3052 82.6526 69.3053 82.6645 69.3063L82.6836 69.3084L82.9443 69.2873C83.2691 69.285 83.5798 69.3425 83.8948 69.4171C84.9524 69.6675 85.4039 68.0376 84.3442 67.7865ZM120.858 61.2866C121.629 60.5163 120.434 59.3202 119.664 60.0912C119.054 60.7006 118.467 61.3141 118.071 62.0883C117.863 62.4945 117.965 63.0056 118.374 63.245C118.752 63.4659 119.322 63.3496 119.53 62.9417C119.874 62.2707 120.307 61.8391 120.858 61.2866ZM111.141 59.2644C110.381 59.715 109.888 60.4573 109.589 61.3164C109.439 61.7476 109.76 62.2411 110.179 62.3563C110.63 62.4802 111.042 62.2161 111.204 61.8059L111.219 61.7658C111.299 61.536 111.427 61.2647 111.585 61.0599C111.72 60.8851 111.931 60.7101 112.089 60.652C112.47 60.512 112.74 60.1667 112.705 59.7634C112.078 59.9801 111.497 59.7195 111.141 59.2644ZM88.3676 55.5869C87.6001 54.8743 86.5704 54.7798 85.64 55.2112C85.2257 55.4031 85.1219 56.0006 85.3368 56.3679C85.5853 56.7929 86.0773 56.8639 86.4929 56.6712C86.3862 56.7206 86.5788 56.6553 86.6621 56.6314C86.6727 56.6364 86.8122 56.63 86.8604 56.6307L86.9182 56.6344C86.9187 56.6348 86.9045 56.6345 86.8757 56.6336C86.9162 56.6427 86.9563 56.6537 86.9958 56.6663L87.0462 56.6837C87.0208 56.6784 87.135 56.7529 87.1667 56.7776L87.1725 56.7823C87.969 57.5219 89.1671 56.329 88.3676 55.5869Z" fill="black"/>
<path fill-rule="evenodd" clip-rule="evenodd" d="M149.689 120.752C150.414 119.473 152.577 119.681 152.908 121.173C153.578 124.198 149.972 126.992 147.233 127.062C144.512 127.131 141.458 124.813 141.852 121.886C141.949 121.162 142.916 121.25 143.246 121.704L143.374 121.878C144.269 123.081 145.45 124.326 147.111 124.033C147.8 123.912 148.425 123.481 148.841 122.928C149.343 122.259 149.288 121.461 149.689 120.752ZM132.383 98.6196C132.752 98.5179 133.124 98.5573 133.451 98.6963C134.18 98.8301 134.79 99.4388 135.004 100.134C135.021 100.194 135.04 100.253 135.061 100.312L135.093 100.4L135.006 100.177C135.046 100.396 135.225 100.627 135.289 100.847C135.368 101.118 135.387 101.425 135.36 101.723C135.592 101.726 135.824 101.734 136.056 101.754L136.28 101.774C137.531 101.89 138.905 102.104 139.647 103.185C140.063 103.793 139.672 104.887 138.907 105.004C137.729 105.185 136.714 104.533 135.539 104.402C134.429 104.278 133.268 104.349 132.172 104.55C129.91 104.963 127.832 105.881 125.627 106.456L125.327 106.532V106.532L125.328 106.531C124.95 106.622 124.521 106.097 124.895 105.789C126.661 104.338 128.922 103.162 131.149 102.446C130.825 101.929 130.724 101.249 130.946 100.695C130.98 100.58 131.023 100.468 131.068 100.357L131.162 100.128V100.128C131.171 100.02 131.192 99.9131 131.222 99.8085L131.226 99.7765V99.7765L131.229 99.7784V99.7784C131.395 99.2393 131.828 98.7726 132.383 98.6196ZM154.913 98.7031C155.396 98.2197 156.075 98.2911 156.579 98.6716L156.646 98.724V98.724C157.121 98.9351 157.514 99.3965 157.772 99.8241C158.04 100.268 158.218 100.72 158.225 101.209C159.394 101.213 160.514 101.564 161.373 102.508C161.65 102.813 161.839 103.283 161.687 103.696L161.596 103.942V103.942C161.308 104.722 160.012 105.172 159.571 104.254L159.551 104.209C159.083 103.119 157.287 103.234 156.332 103.345C155.666 103.423 155.009 103.589 154.366 103.774C154.14 103.839 153.916 103.91 153.691 103.983L153.467 104.055C153.348 104.094 152.725 104.432 153.112 104.352C153.216 104.331 153.295 104.482 153.189 104.533C152.727 104.754 152.234 104.314 152.265 103.818C152.318 102.957 153.686 102.484 154.344 102.187L154.383 102.169C154.635 102.053 154.9 101.941 155.172 101.837C155.019 101.609 154.892 101.355 154.787 101.083C154.687 100.826 154.621 100.576 154.584 100.303C154.548 100.169 154.548 100.036 154.584 99.9021L154.59 99.8638V99.8638C154.571 99.7755 154.562 99.6842 154.563 99.5922L154.56 99.5565H154.563C154.576 99.2346 154.704 98.9121 154.913 98.7031ZM147.196 107.877C149.052 108.45 152.113 110.013 151.146 112.425C149.796 114.639 146.215 113.012 144.48 112.296C142.921 111.779 142.109 113.965 143.617 114.624C156.073 119.554 156.027 106.543 147.648 106.734C146.725 106.755 146.696 107.686 147.196 107.877ZM130.716 90.9122L131.033 90.8198C132.677 90.3432 134.356 89.5202 135.817 90.8043C136.39 91.3086 136.508 92.3565 136.098 92.9855C135.163 94.4186 133.777 94.1997 132.268 94.3218C131.118 94.4148 129.986 94.7526 128.913 95.1746C128.037 95.5198 127.223 96.0057 126.456 96.5476C125.701 97.0804 125.186 97.9133 124.412 98.3929C124.129 98.5687 123.801 98.3878 123.7 98.1027C123.339 97.0914 123.948 95.8315 124.464 94.9698C125.094 93.9186 126.051 93.0588 127.079 92.4083C128.206 91.6958 129.451 91.2844 130.716 90.9122V90.9122ZM154.682 89.824C157.462 89.8231 160.137 91.37 161.692 93.6376C162.22 94.408 161.833 95.5492 161.074 95.9929C160.223 96.4908 159.314 96.1322 158.753 95.4187L158.72 95.3755C157.828 94.1875 156.678 93.2519 155.316 92.6428C154.651 92.3454 153.916 92.1042 153.197 91.9819L152.964 91.942C152.638 91.8874 152.261 91.8353 151.966 91.8863C151.808 91.907 151.663 91.9592 151.53 92.0387C151.594 92.1791 151.428 92.3481 151.275 92.264C150.584 91.8844 150.669 91.2073 151.239 90.681C152.047 89.9364 153.639 89.8242 154.682 89.824Z" fill="black"/>
</g>
<defs>
<clipPath id="clip0_81_21026">
<rect width="240" height="275" fill="white"/>
</clipPath>
</defs>
</svg>
