<svg width="240" height="275" viewBox="0 0 240 275" fill="none" xmlns="http://www.w3.org/2000/svg">
<g clip-path="url(#clip0_81_20978)">
<rect width="240" height="275" fill="#E7ECED"/>
<path fill-rule="evenodd" clip-rule="evenodd" d="M198.116 286.313C202.199 286.116 200.557 278.971 200.264 276.348C197.031 266.764 197.791 256.308 196.52 246.263C195.728 236.886 194.71 227.538 193.854 218.168C192.173 199.148 180.099 160.427 166.321 154.2C164.586 146.582 157.417 139.47 148.348 139.47C142.162 132.145 134.716 126.99 125.166 128.031C121.22 128.21 117.392 132.398 113.611 133.206C111.494 133.498 92.7034 132.747 88.9395 134.983C86.3176 136.33 83.9508 138.818 84.7217 141.987C85.9517 145.825 82.1292 141.672 74.1554 145.769C57.8955 155.538 67.6117 168.607 68.0423 169.012C57.8955 183.135 49.0268 194.593 44.9233 211.855C42.2639 224.672 42.5633 237.902 40.335 250.784C39.5483 255.25 38.3413 259.564 37.0352 263.902C35.6197 269.578 34.9315 283.727 34.1512 283.853C32.73 284.207 34.9726 287.126 36.4785 287.128C78.2301 294.056 120.64 287.415 162.615 286.33C174.445 285.919 186.287 285.824 198.116 286.313Z" fill="white"/>
<path fill-rule="evenodd" clip-rule="evenodd" d="M134.836 170.259C134.855 170.067 135.113 170.068 135.133 170.259L135.427 173.105C135.786 176.582 136.131 180.052 136.382 183.545C136.694 187.901 136.902 192.255 137.003 196.621C137.354 211.825 137.423 227.037 137.453 242.244C139.509 242.102 141.565 241.965 143.622 241.832C145.018 241.742 146.413 241.655 147.809 241.57L151.369 241.354V241.354L152.834 241.264C153.824 241.203 154.949 240.954 155.641 241.831C155.919 242.182 156.058 242.639 155.799 243.056C155.203 244.018 154.288 243.984 153.252 244.026C152.275 244.065 151.299 244.104 150.322 244.142C148.228 244.223 146.135 244.3 144.041 244.358C141.843 244.42 139.647 244.47 137.45 244.508C137.428 250.928 137.162 257.34 136.875 263.753L136.745 266.639C136.394 274.443 136.016 282.254 135.479 290.048C135.435 290.686 134.533 290.685 134.489 290.048C133.884 281.271 133.485 272.475 133.09 263.686C132.803 257.314 132.636 250.94 132.557 244.565C132.266 244.566 131.976 244.57 131.686 244.572C123.44 244.607 115.197 244.643 106.952 244.566C106.966 244.582 106.979 244.599 106.989 244.62C107.585 246.029 107.642 247.827 107.627 249.34C107.611 251.074 107.377 252.787 106.978 254.474C105.547 260.516 101.857 265.928 97.6549 270.402L97.5176 270.547C96.5264 271.595 95.3891 272.648 94.7804 273.983C94.1587 275.345 93.9429 276.939 93.6361 278.404L93.6003 278.572L92.4007 284.115C92.0196 285.876 91.9114 288.443 90.5183 289.713C89.2186 290.899 87.4968 290.28 86.8852 288.754C86.4075 287.563 86.8833 286.255 87.1661 285.064L89.3826 275.744C89.7468 274.224 90.1447 272.694 90.9307 271.328C91.7359 269.93 92.9162 268.916 94.1207 267.879C96.4013 265.915 98.495 263.666 100.266 261.231C102.036 258.797 103.548 256.114 104.609 253.293C105.14 251.881 105.575 250.414 105.876 248.935C106.161 247.531 106.158 246.077 106.464 244.689C106.485 244.593 106.566 244.527 106.658 244.498C106.636 244.436 106.67 244.352 106.757 244.347L113.5 243.913C119.494 243.527 125.488 243.13 131.476 242.677L132.534 242.6V242.6C132.452 234.094 132.522 225.587 132.676 217.078C132.816 209.275 132.819 201.47 133.051 193.668C133.167 189.796 133.415 185.933 133.692 182.069C133.975 178.117 134.428 174.199 134.836 170.259ZM71.5203 215.501C71.4485 215.068 71.9933 214.8 72.2445 215.196C75.1159 219.724 76.5003 224.641 77.0838 229.94C77.5993 234.616 77.4474 239.359 77.1907 244.048C76.9169 249.048 76.5975 254.048 76.2745 259.045L75.7782 266.71V266.71L74.5328 285.923C74.4436 287.298 74.1318 288.547 72.9489 289.186C72.7991 289.311 72.643 289.424 72.4611 289.521C71.822 289.863 70.9744 289.69 70.6049 289.034L70.753 289.131C70.8821 289.213 70.7372 289.099 70.3182 288.791L69.9626 288.331V288.331C69.7043 287.943 69.5393 287.561 69.4729 287.099C69.3698 286.381 69.5033 285.594 69.5502 284.873L70.3666 272.274V272.274C71.0014 262.479 71.7428 252.688 72.3016 242.888C72.5619 238.321 72.7442 233.749 72.6208 229.174C72.4978 224.624 72.2661 219.997 71.5203 215.501ZM96.36 131.161L96.5193 131.134C102.222 130.186 108.424 130.364 113.636 133.114C113.679 133.137 113.66 133.208 113.611 133.206L111.934 133.139C106.623 132.931 101.328 132.808 96.1059 134.056L95.5713 134.185C93.6906 134.644 91.7267 135.206 90.2161 136.448C88.7723 137.636 88.0534 139.468 87.3621 141.155L87.2697 141.378C86.5683 143.044 85.6806 144.624 84.1433 145.665C82.1521 147.014 79.7573 146.849 77.4742 147.032C73.4542 147.356 70.1675 150.27 68.5323 153.837C67.5421 155.996 67.1197 158.417 67.0361 160.779C66.9932 161.981 66.9871 163.231 67.1472 164.425C67.1983 164.807 67.6703 166.198 67.9109 166.165C68.4456 166.091 68.9345 166.37 69.1012 166.797C70.4221 165.521 71.7809 164.281 73.1835 163.086C76.6798 160.107 80.4457 157.408 84.4116 155.088C87.4384 153.317 90.6311 151.563 93.9372 150.237C93.6752 150.231 93.4169 150.283 93.1669 150.413C93.0575 150.47 92.9487 150.333 93.0351 150.242C94.0764 149.146 95.3238 148.99 96.5812 149.282C96.8495 149.197 97.1181 149.114 97.3876 149.036C97.5218 148.997 97.5885 149.182 97.4791 149.253L97.1702 149.451V149.451C98.542 149.91 99.8888 150.814 100.955 151.527C104.018 153.575 106.714 156.078 109.447 158.535L109.944 158.98C112.35 161.129 114.816 163.217 117.55 164.941C118.98 165.843 120.483 166.678 122.059 167.298C123.411 167.831 125.612 168.167 126.246 169.596C126.808 170.28 126.573 171.153 125.914 171.613C124.802 172.837 122.579 172.046 121.254 171.537C119.657 170.922 118.11 170.183 116.634 169.317C113.77 167.635 111.128 165.543 108.668 163.318C106.098 160.994 103.675 158.525 101.175 156.128C100.092 155.089 99.0344 154.027 97.9499 152.99L97.4052 152.473C96.8516 151.954 96.063 151.145 95.2198 150.655C93.6313 151.603 92.0183 152.511 90.4441 153.484C88.2467 154.841 86.114 156.296 84.0142 157.799C79.9718 160.693 76.1411 163.934 72.5848 167.408C66.0625 173.778 60.5058 181.053 55.6515 188.756L55.2829 189.343C52.5244 193.752 49.9158 198.303 48.0661 203.174C46.031 208.535 45.0412 214.173 44.5035 219.863C43.9699 225.513 43.7899 231.191 43.1935 236.836C42.5818 242.625 41.3768 248.286 40.0061 253.937L39.6792 255.277C38.4389 260.337 37.1588 265.398 36.5212 270.578C36.1809 273.345 35.9761 276.15 36.0224 278.939C36.0689 281.745 36.5096 284.488 36.8651 287.265C37.0014 288.328 35.9552 289.216 35.0191 289.357C33.9425 289.518 33.0175 288.831 32.6829 287.831C31.6397 284.712 31.4501 281.264 31.4829 277.991C31.5158 274.667 31.9399 271.365 32.5365 268.099C33.7099 261.674 35.5206 255.383 37.0354 249.035C38.3704 243.44 39.2664 237.836 39.7494 232.104C40.2507 226.157 40.5509 220.191 41.4655 214.287C42.3682 208.459 44.0668 202.892 46.6285 197.578C48.9609 192.739 51.8683 188.185 54.9165 183.77C58.6181 178.41 62.6835 173.309 67.2279 168.661C66.8197 168.644 66.4006 168.512 66.0156 168.272C64.838 167.537 64.2896 166.099 64.121 164.787C63.7263 161.717 63.8216 158.511 64.6109 155.509C65.8842 150.667 69.1889 146.364 73.9783 144.619C75.2111 144.169 76.5216 144.005 77.828 143.973C79.0678 143.942 80.4218 144.104 81.618 143.711C83.522 143.085 84.3381 140.841 85.053 139.141L85.0859 139.063C86.0026 136.896 87.1029 135.038 89.0884 133.685C91.2067 132.242 93.8608 131.585 96.36 131.161V131.161ZM150.55 139.731C152.263 139.136 154.406 139.676 156.082 140.195C157.949 140.774 159.675 141.841 161.154 143.108C162.715 144.443 164.004 146.093 164.916 147.935L165.003 148.113C165.835 149.822 166.783 152.168 166.363 154.046C166.351 154.099 166.337 154.151 166.322 154.2C169.722 155.875 172.862 157.972 175.597 160.631C178.781 163.726 181.478 167.248 183.759 171.053C192.821 186.166 194.416 204.317 195.487 221.552L195.753 225.922C196.335 235.359 197.015 244.773 198.781 254.08L198.91 254.751C200.799 264.495 203.502 274.313 203.228 284.309C203.146 287.304 198.722 287.283 198.593 284.309C198.11 273.113 195.499 262.303 193.73 251.283C190.618 231.893 192.178 211.904 187.768 192.708C186.038 185.175 183.358 177.868 179.53 171.144C177.64 167.822 175.476 164.613 172.943 161.747C170.762 159.281 168.497 156.908 165.949 154.835C165.135 155.651 163.508 155.235 163.083 154.046C162.791 153.229 162.876 152.273 162.689 151.417C162.515 150.622 162.275 149.835 161.956 149.087C161.319 147.596 160.384 146.164 159.305 144.957C158.14 143.652 156.8 142.569 155.301 141.674C153.792 140.773 152.141 140.504 150.55 139.845C150.496 139.823 150.491 139.751 150.55 139.731ZM157.208 243.355C157.211 243.276 157.303 243.239 157.361 243.292C157.961 243.845 158.325 244.638 158.767 245.319C159.277 246.103 159.812 246.872 160.374 247.62C161.499 249.12 162.752 250.534 164.014 251.919C165.188 253.207 166.44 254.44 167.738 255.603C169.145 256.863 170.721 257.988 171.999 259.383C174.666 262.294 175.097 266.291 175.659 270.043L175.721 270.449C176.064 272.675 176.371 274.908 176.648 277.144C176.783 278.232 176.918 279.32 177.027 280.411L177.061 280.756C177.159 281.823 177.185 282.906 176.573 283.839C175.917 284.837 174.425 285.187 173.539 284.23C172.015 282.586 172.301 279.667 172.103 277.552C171.939 275.804 171.753 274.057 171.545 272.313L171.439 271.442C171.194 269.458 170.995 267.435 170.542 265.485C170.142 263.769 169.38 262.473 168.129 261.23C166.87 259.977 165.561 258.808 164.398 257.459C163.165 256.028 162.053 254.494 161.051 252.892C160.193 251.523 159.506 250.032 158.877 248.544L158.772 248.296C158.164 246.844 157.161 244.954 157.208 243.355ZM179.204 180.997C179.217 180.795 179.516 180.791 179.521 180.997C179.558 182.739 179.595 184.48 179.631 186.222C179.921 200.256 179.742 214.323 181.15 228.309C181.814 234.903 183.036 241.401 184.45 247.871C185.174 251.182 185.934 254.485 186.655 257.796C187.358 261.023 188.112 264.266 188.67 267.523C189.218 270.724 189.709 273.95 189.929 277.192L189.956 277.615C190.051 279.186 190.504 281.496 189.639 282.888C188.703 284.396 186.909 284.423 185.905 282.984C184.963 281.632 185.197 279.228 185.031 277.615C184.862 275.973 184.683 274.328 184.479 272.689C184.083 269.492 183.56 266.302 183.017 263.127C181.885 256.514 180.244 249.985 179.032 243.383C177.79 236.618 176.908 229.804 176.87 222.916C176.833 215.97 177.568 209.037 177.939 202.106C178.316 195.066 178.745 188.032 179.204 180.997ZM112.933 137.346C113.31 136.077 114.639 135.284 115.936 135.64C117.124 135.967 118.105 137.41 117.641 138.645C117.134 139.992 116.248 141.14 115.501 142.365C114.811 143.496 113.804 144.387 113.101 145.498L113.876 146.334C114.263 146.75 114.652 147.165 115.045 147.572L116.396 148.972C117.448 150.059 118.507 151.142 119.595 152.192C122.796 155.281 126.048 158.268 129.633 160.913C130.449 161.515 131.272 162.114 132.117 162.674L132.433 162.883C133.013 163.263 133.66 163.637 134.361 163.572C136.063 163.416 137.602 161.607 138.772 160.481L138.833 160.423C141.733 157.662 144.418 154.645 146.765 151.4C147.286 150.679 147.791 149.946 148.283 149.204C147.148 147.878 147.419 145.289 147.356 143.681C147.312 142.55 147.309 141.419 147.302 140.287L147.299 140.059C147.286 139.326 147.253 138.624 147.728 138.021C147.755 137.986 147.813 137.987 147.848 138.005C148.499 138.347 148.699 138.918 148.977 139.559L149.006 139.625C149.344 140.394 149.668 141.171 149.995 141.944C150.338 142.754 150.653 143.576 150.971 144.395C151.119 144.777 151.261 145.159 151.399 145.544C151.484 145.79 151.571 146.035 151.66 146.279L151.682 146.298C151.8 146.398 151.9 146.504 151.987 146.614C152.35 146.795 152.638 147.126 152.774 147.613C153.069 148.672 152.459 149.536 151.915 150.376C149.705 153.792 147.186 157.046 144.385 159.999C142.994 161.465 141.531 162.866 140.008 164.195L139.742 164.426C138.374 165.602 136.888 166.716 135.061 166.991C132.922 167.313 131.181 166.249 129.544 165.024L129.381 164.901C127.829 163.726 126.308 162.509 124.835 161.236C121.831 158.642 118.973 155.856 116.437 152.8C113.97 149.827 111.531 146.503 110.01 142.926C109.918 142.708 110.161 142.48 110.352 142.662C111.095 143.369 111.81 144.115 112.516 144.87C112.536 143.758 112.331 142.637 112.445 141.518C112.584 140.158 112.544 138.656 112.933 137.346Z" fill="black"/>
<path fill-rule="evenodd" clip-rule="evenodd" d="M163.535 85.4321C161.623 77.3683 157.442 69.8641 150.75 63.7993C130.61 43.8804 93.6248 54.692 93.7923 84.7084C93.07 88.2143 92.7768 91.8191 93.0159 95.3945C93.1148 96.92 93.7748 99.049 92.8881 100.422C90.888 102.99 89.7256 104.884 90.4064 108.3C90.9751 111.284 93.0045 113.397 95.7434 114.521C97.386 114.992 98.9445 116.019 99.553 117.585C103.209 124.281 105.918 129.851 111.682 134.415C113.169 135.59 128.424 142.637 133.45 142.637C148.165 142.637 166.712 137.304 167.019 120.861C167.073 117.25 166.439 113.596 166.042 110.013C165.074 101.836 165.416 93.3636 163.535 85.4321Z" fill="white"/>
<path fill-rule="evenodd" clip-rule="evenodd" d="M163.204 81.3989C163.209 81.2991 163.352 81.2767 163.379 81.3752C163.926 83.3165 164.236 85.2941 164.664 87.2655C165.076 89.1645 165.465 91.069 165.788 92.9847C166.399 96.6001 166.914 100.225 167.393 103.859L167.512 104.768C168.344 111.163 169.718 117.825 168.516 124.257C167.491 129.746 164.053 134.169 159.623 137.412C155.429 140.483 150.343 142.454 145.293 143.574C139.873 144.777 133.449 145.136 129.039 141.16C127.274 139.568 129.68 136.409 131.595 137.846C136.092 141.219 141.813 140.224 146.888 138.882L147.041 138.841C151.495 137.655 155.978 135.856 159.514 132.821C163.423 129.466 165.356 124.81 165.579 119.703C165.705 116.833 165.437 113.967 165.149 111.115L165.117 110.798C164.786 107.536 164.438 104.275 164.118 101.012C163.825 98.0365 163.573 95.0435 163.44 92.0546L163.377 90.547C163.248 87.5076 163.073 84.4237 163.204 81.3989ZM110.463 56.1442C117.781 52.3329 126.191 50.9688 134.335 52.2479C142.164 53.4776 149.349 57.519 154.72 63.314C157.342 66.1434 159.669 69.4161 161.156 72.9915C161.895 74.7677 162.474 76.6206 162.782 78.5236C162.94 79.502 163.096 80.5156 163.126 81.5075C163.153 82.4258 162.883 83.2871 162.915 84.2206C162.92 84.3666 162.697 84.3947 162.663 84.2548C162.408 83.2139 161.795 82.4269 161.411 81.4382C161.123 80.6999 160.797 79.9792 160.465 79.2607L160.18 78.645C159.353 76.8555 158.363 75.1395 157.384 73.4297C155.413 69.9859 152.885 66.8563 149.923 64.2154C144.724 59.5788 138.054 56.5859 131.093 56.047C123.867 55.4873 116.539 57.2102 110.368 61.0268C104.198 64.8431 99.532 70.7757 97.1096 77.6064C95.8874 81.0533 95.2124 84.6448 95.0554 88.2965C94.976 90.1449 95.0501 92.0088 95.1796 93.8537L95.244 94.7335C95.3193 95.7885 95.371 96.8395 95.2134 97.869C96.3264 97.5217 97.493 97.3778 98.6639 97.5496C100.404 97.8049 101.443 98.5184 102.224 100.074C102.264 100.155 102.183 100.236 102.102 100.195C101.09 99.6904 99.4529 99.9562 98.3814 100.221C97.2663 100.497 96.262 100.976 95.3144 101.624C93.5615 102.822 92.1874 104.679 91.8503 106.809C91.5243 108.867 92.3687 110.95 93.7872 112.425C94.5173 113.185 95.3901 113.841 96.3672 114.25C97.553 114.747 98.7268 114.732 99.776 115.552C100.425 116.059 100.268 116.927 99.8279 117.49C102.041 119.918 104.004 122.574 106.218 125.012C107.243 126.141 108.261 127.273 109.244 128.439L109.611 128.878C110.593 130.063 112.154 131.315 112.603 132.805C112.882 133.732 111.889 134.945 110.886 134.523C109.347 133.874 108.248 132.188 107.209 130.894L107.141 130.81C106.05 129.47 105.082 128.054 104.197 126.571L103.906 126.083C102.305 123.39 100.718 120.597 99.6974 117.638C99.63 117.707 99.5586 117.771 99.4834 117.824C98.0129 118.87 95.8753 118.066 94.4068 117.387C93.0205 116.745 91.7495 115.781 90.7589 114.618C88.6044 112.09 87.6112 108.816 88.3308 105.535C88.9403 102.755 90.866 100.052 93.3906 98.6457C92.2253 97.3036 91.7427 95.4944 91.4216 93.7256C91.0117 91.4678 90.93 89.1539 91.0413 86.8644C91.2634 82.3041 92.4365 77.8089 94.2501 73.633C97.4947 66.1611 103.231 59.9111 110.463 56.1442ZM95.061 106.004C96.5969 105.716 98.0283 105.647 99.5097 106.297C101.117 107.002 102.247 108.167 103.299 109.532C104.495 111.085 101.429 112.781 100.656 110.72L100.634 110.656C100.427 110.046 100.056 109.456 99.5861 108.913C99.4452 109.129 99.2568 109.319 99.0354 109.428C98.7673 109.56 98.3578 109.469 98.2934 109.126C98.222 108.746 98.301 108.285 98.5203 107.963L98.5503 107.919V107.919C97.4847 107.062 96.2029 106.435 95.061 106.233C94.9469 106.213 94.9482 106.025 95.061 106.004Z" fill="black"/>
<path fill-rule="evenodd" clip-rule="evenodd" d="M143.152 128.274C141.731 127.695 140.464 126.728 139.538 125.493C139.216 125.063 139.132 124.61 139.2 124.195C139.276 123.729 139.551 123.306 139.927 123.023C140.305 122.739 140.777 122.598 141.233 122.67C141.629 122.732 142.024 122.949 142.336 123.399L142.401 123.49C142.952 124.235 143.67 124.847 144.488 125.241C145.276 125.621 146.157 125.798 147.07 125.695C148.807 125.499 150.005 124.559 151.277 123.282C151.435 123.121 151.593 122.955 151.752 122.786C151.852 122.633 151.991 122.534 152.145 122.483C152.317 122.425 152.51 122.429 152.688 122.491C152.859 122.55 153.012 122.664 153.115 122.815C153.213 122.958 153.268 123.135 153.25 123.339C153.134 124.662 152.442 125.842 151.46 126.769C150.37 127.799 148.924 128.511 147.563 128.761C146.063 129.036 144.535 128.839 143.152 128.274V128.274ZM148.27 107.866C149.866 108.836 152.297 111.099 150.58 113.504C148.56 115.624 145.652 113.193 144.218 112.093C142.889 111.241 141.396 113.433 142.629 114.428C152.986 122.099 157.189 108.12 149.077 106.726C148.184 106.572 147.852 107.566 148.27 107.866ZM129.71 98.943C129.886 96.7542 133.219 96.2571 133.55 98.4231C133.847 100.363 133.497 102.146 132.624 103.892C131.789 105.561 129.691 104.783 129.532 103.263C129.32 101.226 129.6 100.305 129.71 98.943ZM155.076 97.974C155.541 97.3653 156.211 96.9498 157.015 97.1846C159.526 97.9186 158.786 101.485 157.904 103.221C157.425 104.163 155.876 104.402 155.176 103.572C154.035 102.219 153.489 99.5158 154.939 98.1826C154.979 98.1137 155.022 98.0442 155.076 97.974ZM132.589 89.3655L132.985 89.296C134.212 89.0837 135.738 88.8798 136.606 89.8666C137.066 90.3899 137.225 91.3625 136.606 91.8634C135.517 92.7448 134.314 92.4032 133.01 92.4778C131.935 92.5395 130.902 92.7175 129.866 93.0136C127.595 93.6631 125.744 94.8487 123.804 96.1507C123.549 96.3214 123.289 95.9957 123.411 95.7576C124.531 93.5631 126.701 91.7605 128.875 90.6617C130.035 90.0752 131.305 89.5887 132.589 89.3655ZM152.787 88.3825L153.091 88.4446C156.394 89.1354 160.686 90.5154 162.251 93.7616C162.311 94.2207 162.248 94.319 162.196 94.3833L162.179 94.4047C162.137 94.4596 162.103 94.5353 161.904 94.5977C161.849 94.5846 161.794 94.5706 161.737 94.5559C161.02 94.3679 160.453 94.1089 159.903 93.8401L159.308 93.5466C158.617 93.2077 157.92 92.8811 157.181 92.64C155.605 92.1256 153.983 91.7632 152.336 91.5697C151.979 91.5278 151.636 91.4073 151.365 91.2008C151.107 91.0047 150.911 90.7333 150.821 90.3726C150.705 89.9057 150.738 89.5522 150.989 89.131C151.177 88.8147 151.446 88.5954 151.756 88.4695C152.071 88.3412 152.43 88.3109 152.787 88.3825Z" fill="black"/>
<path fill-rule="evenodd" clip-rule="evenodd" d="M152.745 131.525C150.777 129.772 148.572 126.246 145.745 129.036C145.046 129.824 144.763 131.591 143.694 131.937C142.274 132.398 140.867 130.895 140.383 129.741C138.404 123.33 146.587 121.571 151.249 122.607C153.526 123.543 155.204 127.309 155.305 129.274C155.371 130.595 154.253 132.538 152.745 131.525M167.588 121.643C167.569 121.557 167.542 121.481 167.51 121.411C166.64 121.082 165.951 121.417 165.526 122.044C165.54 122.2 165.586 122.358 165.615 122.512C165.287 123.204 164.991 124.06 164.546 124.658C164.458 124.665 164.367 124.656 164.28 124.63C156.904 125.401 160.505 117.68 153.024 115.763C147.24 114.808 136.788 115.902 134.06 121.923C131.909 131.541 120.969 124.84 117.377 119.838C113.544 115.285 111.066 109.722 108.676 104.325C108.171 103.182 106.596 103.999 106.767 105.095C104.558 109.527 104.632 114.851 104.085 119.707C103.154 129.394 102.248 142.979 111.245 148.894C122.968 162.15 152.241 166.827 165.761 154.648C170.442 144.581 169.865 132.3 167.588 121.643" fill="black"/>
</g>
<defs>
<clipPath id="clip0_81_20978">
<rect width="240" height="275" fill="white"/>
</clipPath>
</defs>
</svg>
