<svg width="240" height="275" viewBox="0 0 240 275" fill="none" xmlns="http://www.w3.org/2000/svg">
<g clip-path="url(#clip0_81_21044)">
<rect width="240" height="275" fill="#E7ECED"/>
<path fill-rule="evenodd" clip-rule="evenodd" d="M41.0856 260.27C40.4531 266.071 39.0203 272.461 41.7516 277.934C40.0314 278.011 41.4268 278.509 42.3551 278.68C42.8852 279.09 43.5976 279.253 44.2675 279.196C47.7459 279.931 51.3366 280.198 54.8683 280.614C98.9637 284.278 143.355 283.305 187.532 281.726C188.969 281.664 189.933 280.62 190.043 279.213C191.662 258.518 192.468 237.758 192.427 216.999C191.708 209.703 197.219 212.55 194.279 202.937C191.916 192.798 188.417 182.928 183.956 173.524C180.872 167.404 177.967 160.965 173.267 155.89C171.781 155.685 170.517 154.209 169.262 153.385C167.991 153.137 167.048 152.057 165.76 151.725C163.305 151.087 157.811 149.728 155.72 151.362C155.637 151.339 155.554 151.32 155.471 151.297C155.062 151.751 154.5 151.41 154.194 151.002C153.15 150.191 148.583 150.107 148.065 148.862C145.363 146.41 144.64 141.251 144.64 138.232C143.63 137.096 143.56 137.307 142.189 136.707C140.844 135.011 139.22 133.533 137.407 132.368C127.205 125.666 112.4 132.728 110.011 144.376C106.236 147.367 102.35 150.405 97.7252 151.963C95.4685 150.802 92.8975 150.431 90.5024 150.429C88.717 150.364 86.2498 149.331 85.0895 151.211C65.569 157.603 53.7879 176.196 45.4107 193.813C44.2365 196.321 42.8318 198.947 43.1911 201.805C43.4381 205.227 47.1509 207.264 46.4493 210.891C45.4295 220.868 44.2694 230.835 43.2078 240.809C42.5003 247.296 41.793 253.783 41.0856 260.27Z" fill="white"/>
<path fill-rule="evenodd" clip-rule="evenodd" d="M183.891 212.676C182.629 213.133 180.86 213.578 179.957 214.611C179.853 213.649 179.748 212.686 179.642 211.724C182.287 211.661 184.937 211.638 187.584 211.564C186.335 211.87 185.1 212.238 183.891 212.676M178.081 273.216C177.171 273.225 176.257 273.288 175.348 273.324C173.596 273.392 171.844 273.459 170.092 273.524C166.518 273.658 162.944 273.787 159.37 273.912C152.291 274.158 145.212 274.385 138.133 274.594C123.973 275.011 109.807 275.263 95.6492 275.739C91.7215 275.871 87.794 275.974 83.8699 276.188C81.8365 276.299 79.7935 276.394 77.7698 276.63C76.0625 276.828 74.3796 277.164 72.6818 277.413C72.7957 275.2 72.9024 272.987 73.0133 270.774C73.1183 268.68 73.2163 266.587 73.3137 264.492C79.941 264.839 86.5761 264.979 93.2122 265.039C100.232 265.101 107.249 265.276 114.269 265.289C128.167 265.317 142.065 265.142 155.962 265.002C159.893 264.963 163.824 264.923 167.754 264.884C169.719 264.864 171.685 264.844 173.65 264.824C174.631 264.815 175.618 264.835 176.598 264.795C177.644 264.751 178.28 264.454 179.039 263.75C179.444 263.374 179.461 262.609 179.039 262.237C178.43 261.698 177.864 261.285 177.019 261.225C176.19 261.165 175.324 261.247 174.492 261.258C172.667 261.282 170.842 261.306 169.018 261.33C165.508 261.376 161.999 261.422 158.489 261.468C151.47 261.561 144.451 261.655 137.432 261.762C130.553 261.867 123.674 261.945 116.796 262.118C109.774 262.295 102.76 262.615 95.739 262.84C88.266 263.08 80.7968 263.367 73.3408 263.928C73.5199 260.047 73.6849 256.164 73.8402 252.282C88.6448 253.088 103.46 253.662 118.289 253.687C133.738 253.713 149.187 253.449 164.631 253.046C166.807 252.989 168.984 252.931 171.159 252.863C172.282 252.828 173.406 252.795 174.529 252.754C175.354 252.724 176.203 252.689 176.949 252.294C178.422 251.515 178.676 249.239 176.929 248.616C175.973 248.276 174.96 248.608 174.727 249.47C174.656 249.477 174.588 249.483 174.529 249.485C173.686 249.517 172.844 249.54 172.002 249.567C170.177 249.625 168.352 249.684 166.527 249.741C163.157 249.847 159.787 249.944 156.417 250.034C149.537 250.216 142.656 250.365 135.775 250.479C122.15 250.706 108.526 250.916 94.9034 251.228C87.888 251.388 80.8748 251.597 73.8603 251.774C74.0278 247.554 74.1861 243.334 74.3287 239.113C74.3454 238.618 74.3635 238.123 74.3815 237.628C75.3867 237.849 76.416 237.972 77.44 238.117C79.217 238.368 80.9994 238.554 82.784 238.743C86.1466 239.098 89.5201 239.315 92.8951 239.502C99.7759 239.881 106.659 240.149 113.546 240.359C127.172 240.774 140.814 240.865 154.445 240.818C161.846 240.793 169.293 240.89 176.691 240.567C177.147 240.692 177.617 240.679 178.072 240.531C178.445 247.129 178.839 253.726 179.226 260.323C179.487 264.775 179.718 269.241 180.039 273.694C179.412 273.385 178.835 273.21 178.081 273.216M49.8134 206.181C48.5154 205.545 47.0839 204.966 45.9379 204.066C44.6853 203.082 44.3777 201.926 44.7627 200.382C44.7914 200.267 44.8252 200.152 44.8552 200.037C54.0857 200.06 63.2927 199.653 72.5192 199.434C81.8932 199.212 91.2637 199.025 100.64 198.972C119.34 198.867 138.037 199.288 156.728 199.814C163.459 200.003 170.19 200.189 176.921 200.373C176.768 202.015 176.827 203.697 176.792 205.327C176.761 206.759 176.769 208.193 176.791 209.627C173.269 209.618 169.749 209.542 166.227 209.502C157.508 209.404 148.794 209.654 140.077 209.854C122.644 210.253 105.207 210.567 87.7776 211.092C83.0437 211.234 78.2794 211.309 73.5238 211.512C73.3603 210.738 73.1788 209.969 72.9741 209.204C72.6487 207.989 72.2815 206.741 71.3087 205.897C71.262 205.856 71.1973 205.874 71.1764 205.932C70.8069 206.956 70.9003 207.999 71.0084 209.072C71.094 209.92 71.1519 210.771 71.1948 211.622C68.2377 211.777 65.2867 211.996 62.3511 212.324C61.5117 211.909 60.672 211.495 59.8309 211.083C56.4922 209.448 53.1525 207.815 49.8134 206.181M156.975 236.684C150.088 236.74 143.2 236.746 136.313 236.702C122.681 236.614 109.053 236.279 95.4233 236.008C91.63 235.933 87.8418 235.858 84.0478 235.858C82.0837 235.858 80.113 235.871 78.1509 235.956C76.9161 236.01 75.6641 236.018 74.435 236.166C74.5833 232.194 74.7377 228.218 74.7328 224.243C87.7355 226.213 100.878 226.754 114.009 227.142C127.312 227.535 140.619 227.738 153.928 227.758C157.71 227.763 161.492 227.755 165.275 227.733C167.095 227.722 168.917 227.708 170.737 227.691C171.716 227.682 172.701 227.701 173.679 227.66C174.713 227.617 175.338 227.372 176.06 226.636C176.43 226.259 176.449 225.61 176.06 225.235C174.771 223.99 173.254 224.26 171.578 224.281C169.897 224.302 168.216 224.32 166.535 224.335C163.173 224.366 159.811 224.385 156.449 224.394C149.866 224.411 143.282 224.385 136.698 224.318C123.392 224.182 110.09 223.886 96.7873 223.574C89.4331 223.402 82.0803 223.45 74.732 223.806C74.7293 223.146 74.7231 222.486 74.7102 221.827C74.6619 219.328 74.4185 216.829 74.0378 214.357C77.639 214.345 81.2401 214.268 84.8251 214.222C93.5426 214.11 102.258 213.934 110.975 213.759C119.621 213.586 128.267 213.412 136.914 213.239C145.555 213.066 154.222 213.053 162.853 212.587C167.51 212.335 172.169 211.992 176.831 211.812C176.84 212.24 176.849 212.669 176.858 213.096C176.97 218.347 177.175 223.593 177.44 228.839C177.567 231.359 177.701 233.879 177.839 236.399C177.772 236.393 177.704 236.389 177.634 236.388C170.752 236.343 163.858 236.629 156.975 236.684M47.9957 191.081C48.7841 189.052 49.6406 187.036 50.5664 185.048C54.4968 186.157 58.6894 186.73 62.7457 187.111C67.0641 187.517 71.3908 187.745 75.7269 187.834C84.2752 188.008 92.8235 187.603 101.363 187.25C118.927 186.524 136.489 185.994 154.069 185.96C158.979 185.95 163.888 185.973 168.798 186.029C171.252 186.056 173.707 186.09 176.161 186.132C177.423 186.153 178.685 186.177 179.948 186.203C180.507 186.215 181.072 186.256 181.63 186.239C182.377 186.217 182.923 185.992 183.616 185.722C184.412 185.412 184.881 184.08 183.888 183.639C182.896 183.198 182.1 182.94 180.999 182.916C179.807 182.891 178.615 182.867 177.423 182.845C175.249 182.805 173.075 182.772 170.901 182.745C166.483 182.69 162.065 182.667 157.646 182.667C148.949 182.668 140.253 182.771 131.558 182.976C114.103 183.386 96.6876 184.604 79.239 185.126C74.4297 185.27 69.6113 185.298 64.8018 185.154C60.1434 185.014 55.4948 184.622 50.8421 184.457C52.4492 181.067 54.2676 177.767 56.3194 174.628C64.0757 174.901 71.8153 174.699 79.5732 174.463C83.6441 174.339 87.715 174.213 91.7855 174.074C93.8209 174.004 95.8562 173.934 97.8916 173.864C98.8742 173.831 99.8568 173.797 100.839 173.763C101.898 173.727 103.012 173.796 104.04 173.517C104.226 173.467 104.374 173.359 104.485 173.221C107.222 174.63 110.116 175.741 113.092 176.564C119.552 178.351 126.5 179.021 133.182 178.471C138.543 178.03 143.887 176.702 148.601 174.103C159.248 175.083 170.043 174.622 180.712 174.553C181.732 174.546 182.156 173.612 181.985 172.841C185.409 180.223 187.677 188.226 189.8 196.01C191.12 200.848 192.293 205.715 193.41 210.601C193.363 210.605 193.317 210.609 193.271 210.613C193.4 210.078 193.109 209.447 192.377 209.43C188.059 209.331 183.727 209.579 179.408 209.619C179.286 208.539 179.165 207.457 179.037 206.377C178.862 204.905 178.653 203.437 178.475 201.965C178.411 201.432 178.351 200.916 178.277 200.41C181.697 200.503 185.117 200.597 188.537 200.687C190.757 200.746 190.753 197.307 188.537 197.239C169.744 196.664 150.949 196.082 132.149 195.763C113.338 195.443 94.4621 195.246 75.6652 196.211C65.4219 196.737 55.2039 197.439 45.088 199.173C45.8737 196.43 46.9698 193.722 47.9957 191.081M63.992 164.953C64.3323 165.208 64.4414 165.369 64.9501 165.458C65.5017 165.555 66.069 165.586 66.6259 165.64C67.8174 165.757 69.0119 165.801 70.2075 165.857C72.5948 165.971 74.9819 166.091 77.3709 166.163C82.1133 166.307 86.9572 166.511 91.6974 166.3C92.8571 166.249 93.3846 165.292 93.2792 164.421C94.1682 165.522 95.1402 166.556 96.1754 167.499C97.8398 169.014 99.6364 170.357 101.53 171.542C100.302 171.587 99.0506 171.741 97.8909 171.791C95.9257 171.875 93.9605 171.96 91.9953 172.044C87.854 172.222 83.7132 172.413 79.5726 172.607C71.9092 172.965 64.2721 173.411 56.638 174.142C58.8183 170.864 61.2605 167.772 63.992 164.953M188.718 180.874C185.481 171.983 181.306 162.747 173.794 156.641C169.933 153.502 165.631 151.33 160.759 150.302C160.609 150.27 160.55 150.483 160.696 150.531C169.121 153.296 175.355 160.613 179.573 168.111C180.337 169.47 181.045 170.861 181.715 172.273C181.497 172.007 181.163 171.83 180.712 171.838C170.749 172.005 160.67 171.837 150.73 172.81C150.983 172.641 151.237 172.472 151.486 172.295C154.201 170.359 156.645 167.99 158.664 165.307C159.881 165.615 161.162 165.691 162.403 165.809C164.059 165.966 165.727 166.038 167.389 166.128C169.048 166.217 170.714 166.225 172.375 166.265C173.517 166.293 175.749 166.483 175.75 164.736C175.751 162.987 173.517 163.172 172.375 163.195C170.714 163.227 169.049 163.232 167.389 163.31C165.798 163.385 164.197 163.445 162.61 163.587C161.643 163.674 160.647 163.731 159.674 163.885C161.257 161.522 162.518 158.947 163.359 156.232C163.444 155.958 163.472 155.703 163.458 155.467C163.815 155.09 164.043 154.573 164.043 154.1C164.043 152.976 163.167 152.317 162.143 152.199C158.09 151.736 153.624 151.075 150.358 148.41C148.884 147.207 147.699 145.784 146.583 144.254C145.329 142.534 144.859 140.367 144.854 138.261C144.854 138.143 144.658 138.107 144.64 138.232C144.026 142.501 144.911 147.374 147.974 150.573C150.981 153.713 155.066 154.89 159.211 155.577C157.502 160.461 154.681 164.75 150.72 168.124C146.307 171.883 140.72 173.893 135.025 174.652C128.88 175.47 122.439 175.072 116.396 173.736C110.575 172.449 104.88 170.146 100.143 166.472C97.7523 164.618 95.5534 162.432 93.6374 160.094C92.0561 158.163 90.8436 156.011 89.4862 153.943C94.5505 155.332 100.673 153.434 104.916 150.754C107.414 149.176 109.603 147.205 111.401 144.861C112.288 143.705 113.077 142.484 113.728 141.179C114.067 140.5 114.371 139.802 114.651 139.097C114.824 138.661 114.993 138.214 114.993 137.736C114.992 137.383 114.904 137.055 114.727 136.75C114.364 136.365 114.292 136.253 114.51 136.415C114.154 135.685 113.123 135.499 112.464 135.878C112.219 136.02 111.641 136.293 111.357 136.75C111.165 137.059 111.061 137.429 110.938 137.768C110.744 138.303 110.549 138.832 110.305 139.347C109.739 140.544 109.06 141.687 108.285 142.761C106.869 144.724 105.05 146.499 103.068 147.884C100.987 149.338 98.7442 150.527 96.3119 151.27C93.7429 152.054 91.2 152.288 88.5495 152.575C88.5212 152.536 88.4937 152.496 88.4654 152.457C88.4143 152.387 88.3038 152.409 88.2993 152.502C88.2972 152.547 88.2983 152.591 88.297 152.635C87.9191 152.812 87.8878 153.345 88.3088 153.55C88.465 156.003 89.523 158.418 90.6759 160.541C91.1561 161.425 91.6986 162.281 92.2864 163.109C92.1125 163.042 91.9171 163 91.6978 162.992C86.9559 162.81 82.1132 163.044 77.3713 163.218C75.0522 163.303 72.7357 163.433 70.4185 163.557C69.2242 163.621 68.0269 163.662 66.8369 163.785C66.2417 163.847 65.643 163.896 65.051 163.985C65.0081 163.992 64.9682 163.998 64.9306 164.005C66.3951 162.562 67.9388 161.195 69.5686 159.92C74.9149 155.736 81.0552 152.327 87.6066 150.473C87.6687 150.456 87.6596 150.35 87.591 150.357C74.5604 151.69 63.7061 159.904 56.1131 170.218C51.9 175.942 48.7046 182.277 45.955 188.81C44.5691 192.103 43.2577 195.455 42.1595 198.856C41.6014 200.585 41.3498 202.418 42.1492 204.114C42.7623 205.415 43.8936 206.382 45.0795 207.15C45.1583 207.201 45.2394 207.249 45.3191 207.299C44.1068 211.524 43.2947 215.859 42.5155 220.181C41.6692 224.876 40.9308 229.591 40.2966 234.32C39.029 243.771 38.058 253.243 37.634 262.773C37.5167 265.408 37.4384 268.046 37.4041 270.684C37.387 272.004 37.3946 273.324 37.4126 274.643C37.4331 276.12 37.2332 277.786 37.9847 279.104C38.9888 280.865 40.9391 280.259 41.7968 279.055C41.8093 279.071 41.8222 279.088 41.8348 279.104C41.9126 278.951 41.9776 278.799 42.0332 278.646C42.1255 278.443 42.1857 278.231 42.2077 278.014C42.3693 277.196 42.3085 276.366 42.3019 275.477C42.2924 274.227 42.2996 272.976 42.3032 271.726C42.3102 269.365 42.337 267.006 42.4042 264.645C42.5388 259.927 42.8016 255.212 43.161 250.505C43.875 241.155 44.9284 231.848 45.8299 222.516C46.2888 217.765 46.8423 213.001 46.9378 208.224C48.0505 208.811 49.1988 209.342 50.3094 209.907C52.3701 210.957 54.4306 212.006 56.4911 213.055C58.4895 214.073 60.4908 215.084 62.493 216.095C64.5119 217.114 66.5172 218.461 68.7886 218.711C70.0027 218.845 70.4422 217.209 69.7268 216.445C68.7926 215.447 67.552 214.827 66.3049 214.246C67.9619 214.307 69.621 214.339 71.2809 214.352C71.3037 216.442 71.23 218.535 71.1252 220.62C70.8674 225.734 70.5091 230.838 70.1698 235.946C69.4646 246.565 68.782 257.19 68.2494 267.819C68.1191 270.422 67.9885 273.025 67.8579 275.629C67.7946 276.894 67.7065 278.161 67.6705 279.428C67.6304 280.849 67.6653 282.63 68.98 283.508C69.9087 284.127 70.9082 283.835 71.6054 282.983C72.5377 281.844 72.5362 280.193 72.6112 278.795C72.6286 278.472 72.644 278.148 72.6607 277.825C74.0846 278.01 75.4982 278.265 76.9283 278.404C78.675 278.575 80.4328 278.675 82.1872 278.72C85.7646 278.812 89.3362 278.845 92.9147 278.845C99.9964 278.845 107.077 278.724 114.158 278.61C128.32 278.381 142.48 277.985 156.637 277.545C160.561 277.423 164.486 277.295 168.41 277.162C170.443 277.093 172.475 277.022 174.507 276.95C176.431 276.881 178.532 277.13 180.225 276.131C180.274 276.739 180.324 277.347 180.378 277.955C180.479 279.106 181.288 280.095 182.517 280.095C183.671 280.095 184.663 279.116 184.656 277.955C184.225 267.454 183.291 256.953 182.552 246.47C181.873 236.842 181.237 227.2 180.266 217.594C180.542 217.772 180.878 217.882 181.275 217.884C182.543 217.889 183.809 217.102 184.996 216.684C186.193 216.262 187.41 215.897 188.643 215.598C189.374 215.42 190.107 215.272 190.842 215.145C190.753 216.648 190.776 218.164 190.748 219.662C190.705 221.964 190.634 224.264 190.578 226.566C190.468 231.1 190.429 235.635 190.342 240.17C190.168 249.312 189.88 258.448 189.392 267.579C189.258 270.088 189.107 272.596 188.939 275.103C188.851 276.426 188.758 277.749 188.66 279.071C188.564 280.371 188.34 281.752 188.83 282.998C188.845 282.989 188.861 282.98 188.876 282.971C189.217 284.044 190.717 284.559 191.426 283.338C192.53 281.434 192.275 278.706 192.402 276.565C192.538 274.267 192.66 271.969 192.769 269.669C192.985 265.07 193.135 260.47 193.222 255.866C193.396 246.657 193.367 237.435 192.804 228.24C192.65 225.726 192.434 223.216 192.213 220.708C192.047 218.827 191.956 216.895 191.662 215.013C193.097 214.802 194.542 214.679 196.001 214.643C197.413 214.608 198.324 213.333 198.025 211.985C195.68 201.421 192.419 191.036 188.718 180.874" fill="black"/>
<path fill-rule="evenodd" clip-rule="evenodd" d="M104.036 43.6481C117.349 42.921 129.144 39.179 138.515 47.5538C138.515 47.5538 153.675 36.2281 156.204 40.5417C157.899 43.432 155.549 47.3122 156.179 50.8788C160.288 57.8873 160.056 69.75 160.288 72.53C160.874 79.5369 164.563 105.904 164.563 112.166C164.563 115.362 161.929 123.732 160.288 128.39C156.637 138.758 149.668 144.042 138.238 144.042C126.808 144.042 108.152 134.486 102.169 126.001C101.645 125.257 98.2541 127.426 94.7074 123.663C90.8651 119.586 88.7336 111.81 88.7336 107.175C88.7336 101.293 84.9336 97.2139 85.3756 89.6847C86.3627 72.87 89.7905 44.426 104.036 43.6481Z" fill="white"/>
<path fill-rule="evenodd" clip-rule="evenodd" d="M102.547 24.0986C102.72 24.0881 102.896 24.0965 103.071 24.1137C103.263 24.1221 103.455 24.1409 103.648 24.1792C104.626 24.3671 105.498 24.8849 106.175 25.614C106.194 25.6331 106.208 25.6544 106.225 25.6732C106.542 25.912 106.836 26.1828 107.1 26.47C107.146 26.4256 107.191 26.3814 107.239 26.3371C107.379 26.2143 107.525 26.098 107.677 25.9883C108.313 25.4423 109.06 25.0453 109.863 24.8195L109.973 24.7898C109.994 24.7834 110.015 24.7792 110.036 24.775C110.607 24.585 111.207 24.4877 111.811 24.4896C112.534 24.4664 113.258 24.585 113.934 24.8637C114.735 25.1958 115.432 25.7197 116.017 26.3497C116.402 26.6625 116.738 27.0068 117.093 27.3854C117.826 28.1693 118.405 29.0865 118.77 30.097C118.821 30.2386 118.865 30.3842 118.905 30.53C119.799 30.4267 120.697 30.3527 121.595 30.3166C122.603 30.2555 123.61 30.2341 124.62 30.2682C127.403 30.3588 130.124 30.8494 132.758 31.7476C133.286 31.9038 133.8 32.1025 134.294 32.3477C135.07 32.6562 135.803 33.0493 136.494 33.5249L137.082 33.874C137.378 34.0498 137.673 34.2278 137.96 34.4104C138.642 34.8481 139.289 35.3383 139.901 35.8666C140.548 36.3889 141.158 36.9574 141.739 37.5532C141.897 37.7145 142.049 37.8778 142.2 38.0423C143.539 38.7653 144.729 39.691 145.838 40.7951C146.718 40.2887 147.629 39.8297 148.57 39.4215C149.539 39.001 150.771 38.5677 151.787 38.2826C152.7 38.0268 153.602 37.8514 154.517 37.7223C154.933 37.6504 155.351 37.5934 155.772 37.5448L155.755 37.5513V37.5513C156.051 37.5194 156.344 37.4919 156.642 37.4666L156.634 37.4644V37.4644C156.76 37.4541 156.889 37.4433 157.016 37.4349L157.325 37.4097V37.4097C157.417 37.4012 157.553 37.6187 157.561 37.6948L157.572 37.773V37.773C157.641 37.8514 157.705 37.9381 157.749 37.9909C157.804 37.9865 157.859 37.9825 157.914 37.9801C158.079 37.9656 158.269 38.2591 158.366 38.3711L158.454 38.4744C158.554 38.5948 158.654 38.7335 158.67 38.8847C158.778 39.762 158.879 40.641 158.972 41.5203C159.008 42.186 158.972 42.8454 158.863 43.4985C158.78 44.1325 158.696 44.7666 158.611 45.3985C158.476 45.8426 158.343 46.2864 158.21 46.73C158.157 46.8993 158.098 47.0661 158.041 47.2331C157.703 48.3481 157.307 49.4336 156.835 50.4855C157.179 50.8664 157.5 51.2612 157.799 51.6689C157.87 51.7422 157.942 51.8151 158.009 51.8912C158.028 51.8618 158.055 51.8344 158.085 51.8194C158.186 51.775 158.26 51.8278 158.324 51.9147C158.989 52.5506 159.473 53.2927 159.773 54.14L159.96 54.5819C159.991 54.6558 160.022 54.7297 160.052 54.8036C160.291 55.4463 160.475 56.1057 160.627 56.7734C160.763 57.2988 160.86 57.8314 160.923 58.3697C161.38 59.9027 161.74 61.4709 162.081 63.018C162.134 63.2614 162.109 63.4787 162.031 63.6638L162.23 63.8579V63.8579L162.57 64.1966C163.141 64.7664 163.724 65.3653 164.148 66.0432C164.588 66.747 164.911 67.4994 165.27 68.2457L165.348 68.4042V68.4042L165.506 68.7221C165.677 69.0692 165.759 69.261 165.91 69.6806C166.162 70.3803 166.297 71.0839 166.36 71.826C166.453 72.9058 166.441 74.083 165.967 75.0869C165.965 75.0954 165.961 75.1019 165.957 75.108C165.741 76.0783 165.209 76.9785 164.4 77.5534C164.227 77.7163 164.041 77.8621 163.842 77.9782C163.365 78.2582 162.928 78.2832 162.408 78.1537L162.342 78.1367C162.277 78.1198 162.217 78.105 162.16 78.0923C162.245 78.162 162.287 78.2447 162.16 78.3037C162.038 78.3628 161.928 78.3967 161.825 78.4093C161.869 78.4664 161.873 78.5277 161.78 78.5784C161.577 78.6862 161.413 78.7202 161.244 78.6904L161.279 78.9842C161.556 81.2077 161.804 81.6474 162.021 84.0357C162.165 86.4808 162.393 88.9198 162.708 91.3484L162.816 92.2309C163.164 95.0278 163.554 97.8452 164.153 100.597C164.455 101.799 164.715 103.011 164.934 104.23C165.245 105.158 165.463 106.107 165.583 107.075C165.758 108.06 165.879 109.053 165.948 110.055C166.191 110.695 166.31 111.346 166.303 112.01C166.335 112.902 166.305 113.792 166.21 114.677C166.158 115.599 166.031 116.512 165.83 117.416C165.651 118.657 165.323 119.855 164.854 121.018C164.478 122.315 164.017 123.588 163.494 124.832C162.68 126.76 161.698 128.55 160.58 130.315C159.532 131.97 158.408 133.563 157.124 135.045C155.463 136.96 153.57 138.714 151.496 140.193C150.313 141.069 149.064 141.855 147.758 142.527C146.161 143.351 144.539 144.093 142.808 144.594C141.729 144.906 140.63 145.122 139.519 145.287C137.336 145.61 135.076 145.562 132.881 145.183C131.465 144.993 130.073 144.663 128.757 144.192C127.675 143.803 126.644 143.357 125.613 142.854C125.083 142.599 124.572 142.303 124.082 141.971C123.258 141.436 122.486 140.832 121.768 140.164C121.534 139.963 121.305 139.758 121.082 139.542C120.974 139.447 121.033 139.306 121.158 139.272L121.196 139.268V139.268C121.147 139.223 121.096 139.179 121.048 139.132C121.037 139.124 121.029 139.114 121.02 139.103C120.997 139.082 120.972 139.061 120.951 139.04C120.868 138.968 120.951 138.807 121.022 138.769C121.05 138.754 121.086 138.752 121.126 138.756C121.117 138.748 121.111 138.741 121.103 138.735C121.094 138.729 121.092 138.712 121.094 138.695L121.063 138.67V138.67C120.955 138.574 121.01 138.435 121.136 138.399C121.198 138.38 121.3 138.39 121.407 138.413L121.447 138.422L121.375 138.355C121.248 138.245 121.289 138.122 121.445 138.084C121.562 138.091 121.677 138.107 121.791 138.135L121.876 138.158C121.918 138.169 121.958 138.181 122.001 138.194C121.929 138.128 121.857 138.065 121.787 138C121.717 137.938 121.791 137.763 121.855 137.727C121.941 137.678 122.11 137.746 122.189 137.803C122.381 137.824 122.634 137.909 122.727 137.989C122.983 138.234 123.247 138.469 123.515 138.697C123.678 138.748 123.832 138.815 123.951 138.917C124.255 139.208 124.572 139.483 124.895 139.75L125.141 139.919C125.182 139.947 125.223 139.974 125.265 140.001C125.729 140.274 126.194 140.544 126.657 140.817C128.353 141.392 130.05 141.967 131.744 142.54L131.968 142.607V142.607L133.614 142.81V142.81C134.696 142.924 135.779 142.918 136.861 142.793C137.672 142.804 138.477 142.723 139.27 142.558C140.615 142.33 141.936 141.994 143.22 141.525C144.699 140.986 146.108 140.276 147.484 139.511C147.978 139.234 148.464 138.94 148.941 138.63C149.096 138.52 149.25 138.407 149.404 138.293C150.42 137.53 151.392 136.717 152.328 135.856C152.767 135.453 153.19 135.032 153.598 134.597C153.657 134.533 153.714 134.472 153.771 134.409C154.162 133.982 154.54 133.54 154.901 133.084L155.246 132.695V132.695C156.636 130.964 157.872 129.102 158.983 127.185C160.086 125.285 160.994 123.285 161.717 121.216C161.949 120.479 162.152 119.731 162.321 118.974C162.634 118.065 162.839 117.133 162.934 116.182C162.965 115.996 162.991 115.81 163.016 115.624L163.031 115.331C163.033 115.282 163.034 115.233 163.035 115.184C163.077 114.889 163.113 114.592 163.141 114.297C163.158 113.999 163.168 113.701 163.17 113.403L163.147 111.574V111.574C163.141 111.517 163.134 111.458 163.13 111.399L163.084 110.996C162.982 110.163 162.904 109.328 162.803 108.495C162.803 108.491 162.803 108.484 162.801 108.478C162.763 108.167 162.722 107.855 162.676 107.542C162.653 107.356 162.623 107.17 162.596 106.984L162.543 106.659V106.659C162.445 106.093 162.326 105.532 162.182 104.975L162.118 104.737L161.751 102.888L161.336 101.068C161.068 99.8487 160.844 98.6208 160.667 97.3822C160.346 95.4084 160.071 93.4321 159.832 91.4475C159.82 91.3524 159.807 91.2552 159.796 91.1601C159.553 89.3194 159.378 87.472 159.264 85.6185C159.11 83.7926 159.021 81.9621 158.998 80.1299C158.996 80.0473 159.051 79.9799 159.116 79.9416L159.11 79.5893C159.102 79.2777 159.097 79.6516 159.094 79.2963L159.09 78.319C159.09 78.2376 159.091 78.1809 159.093 78.1768C157.964 78.2549 157.205 78.1909 156.115 78.1335L155.93 78.124C154.931 78.0777 153.938 77.9678 152.951 77.8028C152.947 77.8537 152.913 77.8894 152.856 77.9C152.755 77.9042 152.66 77.9042 152.563 77.9065L152.598 78.0437V78.0437C152.601 78.1137 152.569 78.1578 152.501 78.1768L152.219 78.1895C151.843 78.2053 151.466 78.2128 151.092 78.162C150.756 78.1179 150.429 78.0395 150.103 77.9465C149.903 77.9127 149.698 77.8664 149.489 77.807C148.952 77.6527 148.42 77.4456 147.881 77.2809C147.332 77.1645 146.774 77.1266 146.191 77.2659C145.574 77.4118 145.052 77.6759 144.405 77.5153C144.277 77.4838 144.152 77.4352 144.027 77.3843L143.912 77.3762C143.892 77.3745 143.872 77.3724 143.852 77.3695C143.178 77.2725 142.578 76.8455 141.936 76.6171C141.712 76.5625 141.489 76.5763 141.272 76.667L141.217 76.6913L141.004 76.8498C140.918 76.9511 140.833 77.0534 140.749 77.1561L140.624 77.3103C140.394 77.5956 140.148 77.8514 139.851 78.0374C139.491 78.3692 139.065 78.5636 138.555 78.5763C138.266 78.5847 137.979 78.5235 137.7 78.4349C136.648 78.7604 135.522 78.8259 134.472 78.5089C134.055 78.4453 133.648 78.3335 133.257 78.1578C133.073 78.0754 132.889 77.9782 132.712 77.8704C131.97 78.1834 131.269 78.5995 130.553 78.9591L130.391 79.0401C129.66 79.4048 128.85 79.7604 128.022 79.7072C126.978 79.6394 125.953 79.5001 124.931 79.3245C124.922 79.3245 124.912 79.3224 124.903 79.3203L124.763 79.2968V79.2968L124.251 79.207V79.207L123.839 79.1302V79.1302L123.628 79.211C121.934 79.852 120.079 80.352 118.377 79.9036C117.636 79.8129 116.941 79.5633 116.313 79.1385C116.292 79.1237 116.271 79.1089 116.25 79.092C116.151 79.0413 116.058 78.9844 115.975 78.9231L115.958 78.9093V78.9093L115.941 78.8954L115.933 78.8912C115.005 78.4645 114.473 77.5555 114.566 76.537C114.509 76.2134 114.511 75.8964 114.575 75.5584C114.272 75.9154 113.964 76.2686 113.651 76.6192C112.508 77.9969 111.388 79.4021 110.35 80.865L110.113 81.2036C109.542 82.0086 109.012 82.8416 108.522 83.6994C108.025 84.5469 107.516 85.3862 106.99 86.2147C106.306 86.9709 105.645 87.7452 105.007 88.5385L104.736 88.8796L103.819 90.0864C103.17 90.856 102.632 91.6971 102.207 92.61C101.858 93.259 101.537 93.9205 101.248 94.599C101.155 94.8038 101.066 95.0109 100.979 95.218C100.682 96.0275 100.43 96.852 100.234 97.7035C100.076 98.3198 99.9625 98.9447 99.8952 99.5782L99.8745 99.7897C99.8492 100.039 99.8301 100.288 99.8196 100.538C99.8808 100.574 99.9316 100.61 99.9696 100.645L100.124 100.701V100.701L100.249 100.738C100.443 100.798 100.779 100.923 100.698 101.077L100.291 101.855V101.855C100.333 101.899 100.352 101.945 100.325 101.996C100.052 102.518 99.7773 103.04 99.5027 103.562C99.4942 103.581 99.4794 103.596 99.4647 103.607C99.6992 103.714 99.9273 103.833 100.145 103.962C100.57 104.215 100.882 104.509 101.172 104.851C101.476 105.033 101.763 105.232 102.034 105.46C102.367 105.811 102.659 106.196 102.906 106.612C103.134 107.005 103.32 107.415 103.464 107.844C103.527 108.07 103.557 108.305 103.555 108.544C103.299 110.349 101.235 109.112 101.195 108.954C100.912 107.863 100.586 107.174 99.8555 106.363L99.8365 106.35V106.35C99.4139 106.164 98.9956 105.98 98.5583 105.836C98.4928 105.849 98.4252 105.858 98.3576 105.868C98.4337 105.976 98.3956 106.082 98.2414 106.1C97.5759 106.232 96.9041 106.267 96.228 106.21L95.2013 106.065V106.065C94.7754 106.228 94.3683 106.438 93.9846 106.688L93.8576 106.773L93.8344 106.789C92.8435 107.586 92.0787 108.645 91.5548 109.799C91.5083 109.902 91.4637 110.006 91.421 110.11L91.3583 110.268L91.3541 110.277C90.6696 112.967 91.2801 115.922 92.5308 118.363C93.2132 119.456 93.9252 120.527 94.6689 121.578L95.3914 122.523V122.523C95.8182 122.924 96.2365 123.336 96.6442 123.759C96.7076 123.822 96.7752 123.886 96.8428 123.947C97.0583 124.088 97.278 124.213 97.502 124.319C97.5886 124.348 97.6773 124.376 97.7661 124.399C98.197 124.606 98.6492 124.716 99.1245 124.729C99.7524 124.771 100.362 124.697 100.951 124.51L101.068 124.471L101.155 124.439C101.476 124.234 101.774 123.979 102.057 123.678C102.12 123.613 102.239 123.613 102.374 123.649C102.448 123.573 102.522 123.492 102.591 123.406C102.64 123.353 102.716 123.351 102.775 123.391C102.976 123.368 103.519 123.677 103.377 123.839C103.354 123.877 103.325 123.911 103.299 123.947C103.394 123.995 103.489 124.05 103.574 124.108C104.017 124.231 104.673 124.674 104.62 124.807L104.613 124.818C104.511 125.012 104.377 125.175 104.213 125.304L104.157 125.346L104.032 125.433C104.208 125.543 104.355 125.669 104.282 125.758C104.248 125.824 104.212 125.887 104.17 125.944C104.529 126.388 104.886 126.836 105.241 127.284C105.596 128.054 106.035 128.772 106.559 129.438C106.996 130.161 107.522 130.81 108.137 131.389C108.188 131.439 108.241 131.488 108.291 131.537C108.744 131.871 109.218 132.185 109.712 132.486L109.925 132.615C110.036 132.682 110.225 132.767 110.136 132.929C110.125 132.95 110.113 132.967 110.098 132.98C110.408 133.183 110.729 133.375 111.061 133.553L111.093 133.572C111.218 133.652 111.388 133.798 111.209 133.916C111.057 134.018 110.653 133.743 110.463 133.616C110.427 133.616 110.385 133.606 110.343 133.593C110.406 133.627 110.469 133.663 110.532 133.699L110.628 133.752C110.702 133.796 111.065 134.037 110.812 134.138C110.687 134.149 110.573 134.117 110.467 134.045C110.343 133.984 110.22 133.919 110.1 133.851C110.142 133.916 110.142 133.982 110.036 134.024C110.001 134.026 109.965 134.024 109.929 134.02C110.178 134.179 110.434 134.326 110.698 134.466L110.74 134.493C110.852 134.565 111.03 134.703 110.901 134.821C110.755 134.952 110.353 134.673 110.25 134.61L109.941 134.426V134.426C109.918 134.436 109.893 134.44 109.865 134.443C109.958 134.5 110.045 134.561 110.14 134.616L110.269 134.686C110.431 134.776 110.66 134.923 110.577 135.07C110.494 135.216 110.248 135.096 110.089 135.002L109.918 134.896C109.91 134.891 109.903 134.886 109.895 134.882L109.888 134.908C109.887 134.912 109.885 134.916 109.882 134.92C109.803 135.058 109.604 134.968 109.466 134.888L109.356 134.821C109.169 134.708 108.983 134.596 108.799 134.484L108.524 134.314H108.52C107.567 133.741 106.686 133.17 105.855 132.435C105.359 131.995 104.896 131.53 104.457 131.033C103.574 130.038 102.917 128.899 102.283 127.737C102.272 127.717 102.287 127.669 102.313 127.616C102.243 127.472 102.175 127.326 102.108 127.176C101.457 127.358 100.73 127.411 100.06 127.367C99.7013 127.343 99.3463 127.28 98.9935 127.185C97.8675 127.028 96.7816 126.515 95.8435 125.9C95.7844 125.862 95.7316 125.819 95.6766 125.782C95.29 125.564 94.9224 125.31 94.5738 125.021C93.8935 124.458 93.2449 123.833 92.6555 123.18C92.2287 122.673 91.8252 122.146 91.447 121.601C91.0625 121.062 90.6738 120.523 90.2851 119.984C89.2055 118.293 88.5147 116.347 88.2463 114.358C88.1154 113.625 88.0477 112.883 88.0625 112.143C88.0731 111.608 88.1323 111.067 88.2358 110.528C88.1745 110.469 88.1132 110.41 88.052 110.349C88.0182 110.408 87.9844 110.45 87.9632 110.429L87.479 109.944C87.1355 109.597 86.9051 109.343 86.5097 108.782C85.8801 107.888 85.4111 106.906 85.0625 105.87C84.8111 105.131 84.6442 104.289 84.5787 103.476C84.5576 103.34 84.5365 103.203 84.5196 103.063C84.3844 101.962 84.509 100.908 84.6759 99.8212C84.6865 99.7496 84.7224 99.7052 84.771 99.6817C84.7832 99.5957 84.7978 99.5074 84.8122 99.4192C83.4127 97.9372 82.4056 96.1511 82.4878 93.9941C82.5136 93.3144 82.653 92.6444 82.9192 92.0188L82.9516 91.9482V91.9482C81.7835 91.7686 80.8568 90.9477 80.1607 89.9302C80.099 89.8814 80.0392 89.8322 79.9818 89.7831C78.737 88.7196 77.8739 87.2138 77.283 85.6231C76.8599 84.6995 76.5795 83.7125 76.4606 82.6887C76.4521 82.6156 76.447 82.5431 76.4405 82.4704C76.1515 80.8517 76.078 79.2167 76.2115 77.606C75.9214 76.609 75.6854 75.5946 75.5238 74.5564C75.4478 74.0621 75.3949 73.5673 75.3548 73.0727L75.3506 73.0455L75.3442 72.9565L75.3264 72.7347C75.3236 72.6979 75.321 72.6613 75.3189 72.6247C74.9618 68.0975 75.9738 63.6423 77.647 59.4491C77.7928 59.072 77.9433 58.6958 78.0986 58.3227L78.2633 57.9329V57.9329C79.9429 55.2234 82.465 53.0319 84.6011 50.7174C85.3382 49.9189 84.1461 48.7201 83.4062 49.5218C81.9869 51.0595 80.4643 52.5324 79.0896 54.1131C78.8468 54.1309 78.6037 54.1374 78.3611 54.1254C77.9386 54.104 77.5287 54.0366 77.1316 53.9286C76.1407 53.7828 75.2386 53.3833 74.4189 52.7958C73.3224 52.2845 72.3865 51.3206 72.2935 50.063C72.283 49.9362 72.2851 49.8115 72.2935 49.687C72.1921 49.0718 72.283 48.4274 72.5407 47.8333C72.5851 47.6705 72.6421 47.5099 72.7139 47.3514C72.9231 46.8801 73.2675 46.428 73.6879 46.1213C73.6985 46.115 73.7069 46.111 73.7154 46.1044C73.7597 46.0582 73.802 46.0114 73.8506 45.9694C73.9224 45.9037 73.9985 45.8426 74.0787 45.7855C73.7935 45.3161 73.5358 44.8344 73.3161 44.3206C73.0773 43.7627 72.9548 43.1965 72.8872 42.5981C72.8597 42.3614 72.8492 42.1268 72.8449 41.8924C72.8323 41.7844 72.8238 41.6745 72.8154 41.5646C72.7625 40.7277 72.8597 39.8592 73.1724 39.077C73.1956 39.0181 73.2252 38.9587 73.2527 38.8974C73.3118 38.7199 73.3773 38.5425 73.4576 38.369C73.7703 37.7033 74.2139 37.139 74.7611 36.6761C75.0569 36.3781 75.3886 36.1139 75.7499 35.8899C75.9632 35.7567 76.2062 35.6384 76.4618 35.5412C76.9182 35.3002 77.5034 35.0804 77.9787 35.0637C78.0358 35.0614 78.0865 35.0679 78.1414 35.0679C78.1858 33.8546 78.3421 32.5336 78.8217 31.4346C79.1006 30.638 79.5189 29.93 80.1485 29.4204C80.5136 29.0392 80.9635 28.7296 81.525 28.5272L81.6252 28.4926L81.6632 28.4821C82.1682 28.2369 82.7132 28.1397 83.2731 28.142C83.9259 28.108 84.5914 28.2308 85.1597 28.5307C85.278 28.5941 85.4048 28.6723 85.5252 28.7568C85.6161 28.575 85.7175 28.3912 85.8337 28.2075C86.2414 27.5542 86.7337 26.9857 87.3041 26.4679C87.3717 26.4066 87.4456 26.3516 87.5175 26.2927C87.7942 26.0412 88.0879 25.8087 88.3921 25.5973C89.0492 25.1406 89.7696 24.8005 90.5259 24.5805C91.3991 24.2577 92.3205 24.1079 93.2421 24.1394L93.433 24.1475V24.1475C93.4752 24.1515 93.5175 24.1536 93.5576 24.1557C94.4724 24.2151 95.3745 24.4391 96.2365 24.7771C97.1301 25.1302 97.8865 25.6648 98.59 26.2777C98.7548 26.0496 98.9428 25.8338 99.1731 25.6309C99.2386 25.5741 99.3083 25.5231 99.3738 25.4703C99.4245 25.4196 99.4773 25.371 99.5323 25.3224C99.7837 25.1004 100.05 24.9081 100.341 24.7369C100.669 24.5448 101.022 24.4117 101.387 24.3292C101.759 24.2022 102.15 24.124 102.547 24.0986ZM98.2058 111.228C98.2432 111.226 100.2 111.96 101.175 112.434L101.223 112.458C102.347 113.016 102.887 113.417 103.897 114.134C103.965 114.182 104.035 114.256 104.035 114.328C104.035 115.372 103.781 116.648 102.904 116.083C102.778 116.001 102.65 115.921 102.521 115.842L102.328 115.725L102.321 115.727C102.323 115.727 102.326 115.725 102.328 115.723C100.418 114.559 98.4002 113.646 96.2706 112.993C96.1248 112.94 97.2044 111.308 97.5023 111.399C97.3311 111.331 98.1773 111.229 98.2058 111.228ZM118.272 65.1355C117.002 65.2714 115.732 65.4052 114.462 65.536C113.653 65.629 112.842 65.7114 112.03 65.7812C110.811 65.8723 109.592 65.8868 108.378 65.7199C107.947 65.6609 107.524 65.5762 107.106 65.4726C106.821 65.6818 106.525 65.8784 106.223 66.0667L102.868 68.6344V68.6344C100.618 70.4036 98.4164 72.2781 96.4347 74.3472C92.9737 77.9621 90.1548 82.1912 88.3825 86.8758C88.2217 86.9707 88.0975 87.1362 88.0561 87.39C87.743 89.3102 86.8273 91.0614 86.4965 92.9737C86.1707 94.8573 86.604 96.4585 87.7867 97.9514C88.0392 98.2704 88.5563 98.2534 88.8737 98.0381C88.9474 98.1831 89.2668 98.1769 89.379 97.5365C89.9049 96.967 90.3547 96.3699 90.6593 95.6306C90.8837 95.0862 90.5066 94.7087 90.049 94.6345C90.2391 93.9497 90.4535 93.2711 90.6946 92.5996C91.4087 90.6043 92.3171 88.6981 93.4601 86.9101C94.4657 85.3374 95.6298 83.9679 96.8805 82.5941C96.8953 82.5751 96.9206 82.5689 96.9481 82.5647L97.208 82.2771V82.2771C97.2439 82.2369 97.3178 82.2411 97.4002 82.2623C97.4784 82.1798 97.5544 82.0953 97.6347 82.0129C97.7129 81.9283 97.7995 81.9537 97.8481 82.0213C97.9812 81.9917 98.2242 82.1355 98.2981 82.1822C98.4249 82.2665 98.465 82.3616 98.3573 82.4821C98.3382 82.5034 98.3192 82.5245 98.3002 82.5434C98.446 82.6049 98.5897 82.6871 98.7016 82.7676C99.0925 82.854 99.6418 83.2176 99.5467 83.3256C99.346 83.5346 99.1516 83.7483 98.9594 83.9657C99.1284 84.0843 99.2382 84.2003 99.1939 84.2513C98.3699 85.1197 97.6094 86.0393 96.9122 87.0134C96.3819 87.7405 95.9023 88.4971 95.4735 89.2854C94.8354 90.4014 94.2946 91.549 93.815 92.7283C93.7474 92.9082 93.6819 93.0876 93.6185 93.2673C92.9171 95.2307 92.3932 97.2681 92.1713 99.3436L92.1621 99.4836C92.1208 100.231 92.1046 102.233 92.0277 102.71C92.4946 102.941 92.9805 103.137 93.4854 103.298C93.5805 103.326 93.6777 103.351 93.7749 103.374C93.8298 103.351 93.8868 103.332 93.9439 103.315C94.4087 103.127 94.8946 102.991 95.3911 102.926C95.7257 102.882 96.0586 102.866 96.3914 102.876L96.534 102.882C96.6819 102.886 96.8277 102.896 96.9756 102.911C96.9671 102.827 96.9629 102.744 96.9566 102.66C96.9143 102.632 96.8826 102.594 96.8805 102.543C96.7812 101.592 96.7791 100.641 96.8742 99.6902C96.9375 99.1935 97.0115 98.699 97.0918 98.2046C97.1742 97.7986 97.2692 97.3994 97.3728 96.9997C97.6474 95.8798 98.0129 94.7869 98.4566 93.7177C99.7199 90.6677 101.53 87.918 103.352 85.1831C104.68 83.1861 105.938 81.1442 107.313 79.1808C108.483 77.509 109.713 75.8626 111.025 74.2986C112.335 72.7369 113.719 71.234 115.212 69.8435C115.453 69.6214 115.696 69.4058 115.943 69.1926C117.359 67.9245 118.897 66.8823 120.498 65.8596C120.559 65.8194 120.669 65.8638 120.76 65.9397L121.018 65.7808C121.062 65.7544 121.105 65.7283 121.149 65.703C121.189 65.6778 121.233 65.7199 121.257 65.7558C121.366 65.6987 121.476 65.644 121.586 65.5888C121.666 65.5242 121.749 65.4629 121.83 65.399C120.642 65.3392 119.456 65.2505 118.272 65.1355ZM133.166 51.0458C132.207 50.8537 131.243 50.826 130.276 50.9697C129.87 51.0291 129.467 51.1006 129.066 51.187C129.975 51.9796 130.706 52.9938 131.18 54.1611C131.693 55.4229 129.648 55.9667 129.143 54.7231C128.656 53.5235 127.733 52.6033 126.619 52.0516C126.378 52.1863 126.144 52.3321 125.921 52.4936C125.63 52.7303 125.355 52.986 125.097 53.2671C124.535 53.8781 124.02 54.6937 123.682 55.5011C123.551 55.9407 123.454 56.393 123.392 56.8579C123.38 56.9636 123.367 57.0714 123.357 57.1792C123.148 59.3665 123.773 61.4946 124.849 63.3777L124.891 63.3783V63.3783C125.851 62.8575 126.856 62.4188 127.89 62.0614C128.719 61.5036 129.578 60.9877 130.464 60.5206C132.345 59.5275 134.333 58.7618 136.381 58.2382L136.618 58.1789C137.1 58.0556 137.587 57.947 138.076 57.852L138.369 57.7966H138.373L138.342 57.4814V57.4814C138.177 56.245 137.693 55.0974 137.068 54.0366C136.599 53.2356 135.891 52.4156 135.105 51.7604L135.101 51.7581C134.744 51.5552 134.369 51.3873 133.983 51.2486L133.838 51.198L133.166 51.0458ZM107.413 49.1671C105.418 48.9788 103.424 48.9978 101.43 49.1606C100.126 49.2897 98.831 49.4691 97.5422 49.6974C96.6697 49.8475 95.8141 50.0588 94.9732 50.3211L95.4542 51.2941C96.258 52.9145 97.0813 54.5243 98.0514 56.0548C98.5521 56.8432 99.0951 57.5937 99.6866 58.3142C100.086 58.8298 100.525 59.3077 101.007 59.7471C101.134 59.9016 101.269 60.0474 101.406 60.1888C101.846 60.565 102.319 60.8947 102.837 61.1674C103.252 61.4698 103.685 61.7341 104.137 61.9657L104.307 62.051L105.892 62.6595C105.976 62.6835 106.061 62.7074 106.147 62.7302L106.276 62.7633L106.517 62.8138L106.698 62.7156C106.728 62.6994 106.758 62.6835 106.789 62.668C106.84 62.6407 106.876 62.6935 106.887 62.7314C106.891 62.7464 106.884 62.7673 106.874 62.7884L107.105 62.6635V62.6635C107.502 62.8248 107.923 62.9537 108.375 63.0387C108.579 63.0769 108.784 63.1063 108.99 63.1315L109.017 63.1498C109.022 63.153 109.026 63.1565 109.031 63.1606H109.255V63.1606C110.835 63.313 112.437 63.1116 114.014 62.8282C116.245 62.6037 118.476 62.3562 120.706 62.1248C120.748 62.1208 120.765 62.1396 120.765 62.1694L120.902 62.1567V62.1567C121.101 62.1354 121.333 62.4672 121.183 62.5879C121.304 62.6595 121.42 62.7633 121.506 62.8436L121.557 62.8392C121.251 62.2389 121.014 61.6112 120.845 60.9584L120.63 59.8633V59.8633C120.57 59.4554 120.537 59.0203 120.53 58.591C120.515 58.3945 120.505 58.2108 120.505 58.05C120.505 57.8978 120.507 57.7456 120.513 57.5937C120.093 57.4201 119.666 57.2682 119.231 57.139C117.995 56.9871 116.761 56.8347 115.525 56.6846C114.784 56.7121 114.042 56.765 113.303 56.8474C112.464 56.9214 111.627 57.0165 110.793 57.1306C110.715 57.139 110.575 57.0334 110.491 56.9108L110.134 56.9596V56.9596C109.948 56.9829 109.754 56.6107 109.999 56.5346C110.087 56.4994 110.176 56.466 110.265 56.4339L110.398 56.3866L110.322 56.3951C110.296 56.3974 110.265 56.3909 110.229 56.3784C110.032 56.4035 109.836 56.4289 109.642 56.4522C109.395 56.4829 109.451 56.1578 109.624 56.0813L109.707 56.0506C109.561 55.9595 109.432 55.7102 109.613 55.6287L109.637 55.6194C109.722 55.5858 109.804 55.5581 109.889 55.5264C109.882 55.4992 109.882 55.4736 109.891 55.4506L109.542 55.4947V55.4947C109.51 55.4989 109.662 55.2764 109.735 55.2324L109.747 55.2263L109.914 55.1756C109.939 55.1037 110.075 54.9452 110.121 54.9306C110.734 54.7381 111.304 54.565 111.9 54.4316C111.93 54.3957 111.963 54.3682 112.001 54.3598C112.373 54.271 112.749 54.2013 113.125 54.1423C113.151 54.1041 113.176 54.0768 113.206 54.0745C114.137 53.9561 115.071 53.9286 116.009 53.9923C116.189 54.0089 116.368 54.0282 116.548 54.0512C116.892 54.0895 117.237 54.1381 117.579 54.2036C118.436 54.3508 119.273 54.5745 120.089 54.8763L120.277 54.9473C120.482 55.0236 120.684 55.1037 120.885 55.1906C120.987 54.8292 121.113 54.4739 121.263 54.1254C121.287 54.0576 121.312 53.9923 121.339 53.9267L121.134 53.8039V53.8039C121.09 53.8885 120.999 53.954 120.94 53.9183C119.472 52.927 117.919 52.1005 116.282 51.441C115.365 51.0352 114.427 50.691 113.465 50.4033C112.986 50.2492 112.502 50.1097 112.016 49.9766C111.773 49.9257 111.53 49.8749 111.283 49.8327C110.013 49.4903 108.723 49.2686 107.413 49.1671ZM155.795 52.5219C155.617 52.83 155.432 53.1352 155.235 53.4362C154.28 54.8985 153.135 56.2708 151.836 57.4673C152.175 57.4664 152.513 57.4793 152.846 57.5106C153.422 57.5649 153.985 57.6604 154.534 57.7942C154.579 57.7585 154.629 57.7405 154.669 57.7689L154.812 57.868V57.868C155.99 58.1861 157.096 58.6861 158.098 59.3561L158.081 59.2238C158.077 59.2017 158.074 59.1797 158.07 59.1576C158.087 58.8977 158.091 58.6375 158.083 58.3797C157.876 56.8558 157.358 55.4525 156.767 54.0324C156.755 54.0049 156.763 53.9692 156.781 53.9328C156.482 53.445 156.155 52.9733 155.795 52.5219ZM156.068 40.5417C155.626 40.622 155.189 40.7256 154.754 40.8545C153.936 40.9773 153.144 41.1929 152.379 41.4991C151.325 41.8732 150.302 42.3086 149.284 42.7695C147.306 43.6655 145.451 44.7985 143.763 46.1638C143.656 46.246 143.552 46.3308 143.449 46.4153C143.071 46.7427 142.703 47.0851 142.354 47.4465C141.989 47.8438 141.621 48.2414 141.256 48.6406C140.808 49.11 140.292 49.5347 139.887 50.0419C139.804 50.1455 139.732 50.2596 139.667 50.3739L139.906 50.4561V50.4561C140.106 50.5238 140.073 50.9 139.874 50.845C139.806 50.826 139.743 50.8028 139.68 50.7776C139.707 50.8135 139.726 50.8495 139.73 50.881C139.743 50.9824 139.665 51.1221 139.54 51.0862C139.483 51.0712 139.426 51.05 139.369 51.0268C139.352 51.0923 139.34 51.1578 139.34 51.2212C139.35 51.2255 139.361 51.2297 139.373 51.232C139.513 51.2806 139.775 51.4981 139.813 51.6463C139.842 51.7604 139.745 51.8828 139.621 51.8489C139.528 51.8236 139.437 51.7855 139.348 51.7433C139.407 51.8005 139.454 51.8618 139.458 51.9147C139.466 52.0119 139.382 52.1491 139.266 52.1176C139.05 52.0582 138.877 51.9675 138.733 51.8534C138.695 51.9039 138.64 51.944 138.596 51.9316L138.513 51.9062V51.9062C138.536 51.9272 138.557 51.9493 138.577 51.9711L138.606 52.0032C139.19 52.633 139.699 53.3305 140.106 54.081C140.125 54.0597 140.149 54.0406 140.178 54.0174C140.368 53.8568 140.565 53.7004 140.761 53.5484L140.821 53.4964V53.4964L140.882 53.4446L140.44 53.5905L140.45 53.579C140.481 53.5391 140.578 53.4058 140.624 53.3614L140.635 53.3516C141.241 52.8087 141.902 52.3477 142.616 51.9717C143.079 51.6714 143.565 51.4178 144.074 51.2085C145.289 50.6442 146.527 50.2154 147.799 49.8181C147.989 49.7568 148.179 49.6913 148.369 49.6319C148.424 49.6129 148.435 49.6361 148.426 49.6741L148.525 49.6446V49.6446C148.703 49.5875 149.005 49.9003 148.885 50.0461C148.957 50.1053 149.029 50.1712 149.091 50.2331L149.136 50.2786L149.187 50.2638C149.338 50.2172 149.592 50.4526 149.754 50.6194L149.873 50.7457C149.964 50.8429 150.142 51.0437 149.924 51.1221L149.651 51.2149V51.2149C149.66 51.2698 149.637 51.3163 149.552 51.348C149.457 51.3797 149.364 51.4136 149.271 51.4476C149.328 51.4968 149.383 51.5479 149.437 51.5997L149.518 51.6777C149.614 51.7754 149.841 51.9907 149.641 52.0858L149.616 52.0962L149.356 52.1892C149.39 52.2653 149.381 52.3374 149.267 52.3794C147.75 52.8951 146.269 53.4998 144.822 54.1867C143.738 54.7867 142.593 55.235 141.387 55.5285C141.287 55.5605 141.072 55.4104 140.983 55.2603L140.803 55.3134C140.773 55.3221 140.743 55.3306 140.713 55.3383L140.683 55.3449V55.3449C140.909 55.9472 141.076 56.6001 141.169 57.232C141.18 57.2891 141.188 57.3485 141.194 57.4055C141.431 57.3863 141.666 57.3694 141.902 57.3569C143.54 57.2701 145.196 57.3229 146.837 57.5173C147.501 57.1221 148.139 56.6889 148.749 56.2199C148.935 56.0759 149.119 55.928 149.301 55.7779C150.391 54.8311 151.378 53.7682 152.252 52.6204C153.061 51.5573 153.765 50.416 154.356 49.22C154.88 48.0975 155.313 46.9308 155.641 45.7261C155.941 44.625 156.044 43.5534 156.121 42.4143C156.146 42.2283 156.163 42.0425 156.178 41.8563L156.176 41.7766V41.7766L156.173 41.7379C156.152 41.3387 156.112 40.939 156.068 40.5417ZM140.588 54.6959C140.539 54.7128 140.489 54.7297 140.438 54.7445C140.467 54.81 140.495 54.8736 140.522 54.9389L140.526 54.9376V54.9376L140.725 54.7804V54.7804C140.683 54.7614 140.634 54.732 140.588 54.6959ZM155.772 37.5448C156.152 37.4032 156.439 37.3757 156.634 37.4645C156.346 37.4856 156.059 37.5131 155.772 37.5448Z" fill="black"/>
<path fill-rule="evenodd" clip-rule="evenodd" d="M143.152 128.274C141.731 127.695 140.464 126.728 139.538 125.493C139.216 125.063 139.132 124.61 139.2 124.195C139.276 123.729 139.551 123.306 139.927 123.023C140.305 122.739 140.777 122.598 141.233 122.67C141.629 122.732 142.024 122.949 142.336 123.399L142.401 123.49C142.952 124.235 143.67 124.847 144.488 125.241C145.276 125.621 146.157 125.798 147.07 125.695C148.807 125.499 150.005 124.559 151.277 123.282C151.435 123.121 151.593 122.955 151.752 122.786C151.852 122.633 151.991 122.534 152.145 122.483C152.317 122.425 152.51 122.429 152.688 122.491C152.859 122.55 153.012 122.664 153.115 122.815C153.213 122.958 153.268 123.135 153.25 123.339C153.134 124.662 152.442 125.842 151.46 126.769C150.37 127.799 148.924 128.511 147.563 128.761C146.063 129.036 144.535 128.839 143.152 128.274V128.274ZM148.27 107.866C149.866 108.836 152.297 111.099 150.58 113.504C148.56 115.624 145.652 113.193 144.218 112.093C142.889 111.241 141.396 113.433 142.629 114.428C152.986 122.099 157.189 108.12 149.077 106.726C148.184 106.572 147.852 107.566 148.27 107.866ZM129.71 98.943C129.886 96.7542 133.219 96.2571 133.55 98.4231C133.847 100.363 133.497 102.146 132.624 103.892C131.789 105.561 129.691 104.783 129.532 103.263C129.32 101.226 129.6 100.305 129.71 98.943ZM155.076 97.974C155.541 97.3653 156.211 96.9498 157.015 97.1846C159.526 97.9186 158.786 101.485 157.904 103.221C157.425 104.163 155.876 104.402 155.176 103.572C154.035 102.219 153.489 99.5158 154.939 98.1826C154.979 98.1137 155.022 98.0442 155.076 97.974ZM132.589 89.3655L132.985 89.296C134.212 89.0837 135.738 88.8798 136.606 89.8666C137.066 90.3899 137.225 91.3625 136.606 91.8634C135.517 92.7448 134.314 92.4032 133.01 92.4778C131.935 92.5395 130.902 92.7175 129.866 93.0136C127.595 93.6631 125.744 94.8487 123.804 96.1507C123.549 96.3214 123.289 95.9957 123.411 95.7576C124.531 93.5631 126.701 91.7605 128.875 90.6617C130.035 90.0752 131.305 89.5887 132.589 89.3655ZM152.787 88.3825L153.091 88.4446C156.394 89.1354 160.686 90.5154 162.251 93.7616C162.311 94.2207 162.248 94.319 162.196 94.3833L162.179 94.4047C162.137 94.4596 162.103 94.5353 161.904 94.5977C161.849 94.5846 161.794 94.5706 161.737 94.5559C161.02 94.3679 160.453 94.1089 159.903 93.8401L159.308 93.5466C158.617 93.2077 157.92 92.8811 157.181 92.64C155.605 92.1256 153.983 91.7632 152.336 91.5697C151.979 91.5278 151.636 91.4073 151.365 91.2008C151.107 91.0047 150.911 90.7333 150.821 90.3726C150.705 89.9057 150.738 89.5522 150.989 89.131C151.177 88.8147 151.446 88.5954 151.756 88.4695C152.071 88.3412 152.43 88.3109 152.787 88.3825Z" fill="black"/>
<path fill-rule="evenodd" clip-rule="evenodd" d="M157 133.092C156.263 132.851 155.538 132.57 154.811 132.299C151.091 130.43 146.597 130.091 142.695 131.665C140.78 132.438 138.995 133.826 137.073 134.736C136.617 134.906 136.157 135.061 135.691 135.191C135.406 135.091 135.121 134.986 134.838 134.88C132.8 134.112 130.883 133.164 129.022 132.121C128.823 131.841 128.617 131.569 128.396 131.308C129.742 131.117 131.061 130.799 132.254 130.471C135.917 129.467 139.37 127.832 143.02 126.783C146.42 125.805 150.108 125.27 153.522 126.485C155.143 127.062 156.569 128.072 158.145 128.753C158.96 129.104 159.939 129.448 160.891 129.499C160.277 130.972 159.499 132.348 158.437 133.494C157.951 133.39 157.469 133.244 157 133.092ZM164.927 121.554C164.6 121.825 163.254 122.7 162.818 123.222C162.705 123.179 162.593 123.135 162.481 123.09C162.289 122.854 162.006 122.75 161.718 122.757C159.705 121.82 157.912 120.496 156.313 118.837C155.176 117.659 154.012 116.427 152.493 115.744C150.704 114.937 148.944 115.309 147.064 115.432C145.063 115.565 143.088 114.996 141.089 115.269C139.627 115.47 138.258 116.089 137.075 116.962C134.66 118.744 132.995 121.246 130.955 123.404C128.639 125.851 125.791 127.415 122.624 128.214C122.586 128.189 122.546 128.163 122.506 128.14C120.171 126.027 118.063 123.641 116.198 121.098C114.376 118.615 109.574 107.436 108.414 106.456C107.933 106.048 107.405 105.872 106.9 105.887C105.985 105.908 105.14 106.544 104.762 107.546C104.119 109.25 104.44 111.452 104.491 113.234C104.555 115.415 104.698 117.594 104.926 119.764C105.152 121.91 105.452 124.048 105.826 126.172C106.014 127.246 106.224 128.318 106.454 129.385C106.526 129.721 106.617 130.021 106.726 130.3C106.838 130.826 106.959 131.351 107.088 131.87C107.929 135.275 109.255 138.684 111.788 141.197C114.425 143.816 118.008 145.555 121.336 147.111C124.505 148.593 127.826 149.909 131.233 150.941C134.193 152.283 137.362 153.344 140.544 153.902C144.047 154.517 147.729 154.555 151.112 153.337C152.774 152.739 154.346 151.904 155.772 150.865C157.794 149.814 159.613 148.371 161.102 146.46C163.77 143.036 165.043 138.881 165.601 134.596C165.743 133.499 166.279 129.296 166.322 128.641C166.458 126.528 166.594 124.415 166.73 122.301C166.794 121.304 165.571 121.019 164.927 121.554Z" fill="black"/>
</g>
<defs>
<clipPath id="clip0_81_21044">
<rect width="240" height="275" fill="white"/>
</clipPath>
</defs>
</svg>
