<svg width="103" height="40" viewBox="0 0 103 40" fill="none" xmlns="http://www.w3.org/2000/svg">
<path d="M4.9716 30.2928C4.73262 30.1733 4.61313 29.9642 4.61313 29.6655C4.13516 29.8447 3.56758 30.5916 2.91038 31.906C2.25318 33.2204 1.95445 34.3257 2.0142 35.2218C2.0142 35.5803 2.07395 35.8193 2.19344 35.9388C2.25318 35.9985 2.37267 36.0284 2.55191 36.0284C3.62733 35.9687 5.00147 35.3413 6.67435 34.1464C8.34722 32.9515 9.572 31.9657 10.3487 31.189C11.1851 30.3526 11.7527 29.7253 12.0514 29.307C12.4697 28.8888 12.8879 28.8888 13.3061 29.307C13.7841 29.6655 13.8139 30.0837 13.3957 30.5617C13.2762 30.7409 13.0671 30.9799 12.7684 31.2786C12.4697 31.5774 11.9021 32.1449 11.0656 32.9814C10.2292 33.8178 9.39276 34.5646 8.55633 35.2218C7.77964 35.8193 6.82371 36.3869 5.68855 36.9246C4.61313 37.4623 3.59745 37.761 2.64153 37.8208C1.92458 37.8805 1.357 37.6714 0.938782 37.1934C0.520564 36.6557 0.281582 36.0284 0.221836 35.3115C0.162091 33.9373 0.580309 32.3839 1.47649 30.6513C2.31293 28.9187 3.3286 27.9926 4.52351 27.8731C5.83791 27.7537 6.52498 28.1719 6.58473 29.1278C6.58473 29.4863 6.43536 29.8447 6.13664 30.2032C5.77816 30.5617 5.38982 30.5916 4.9716 30.2928ZM12.8041 28.2316C13.5808 27.1562 14.1185 26.2899 14.4172 25.6327C14.1782 25.7522 13.9393 25.8717 13.7003 25.9912C13.2223 26.2899 12.8937 26.6782 12.7145 27.1562C12.5352 27.6342 12.5651 27.9926 12.8041 28.2316ZM14.4172 29.0382C15.2537 29.1577 16.2693 29.0979 17.4642 28.8589C17.7032 28.7992 17.9123 28.8589 18.0916 29.0382C18.3305 29.2174 18.45 29.4265 18.45 29.6655C18.5098 29.785 18.5098 29.9344 18.45 30.1136C18.3305 30.2928 18.1214 30.8305 17.8227 31.7267C17.5837 32.5632 17.3149 33.5788 17.0161 34.7737C16.7174 35.9687 16.6278 36.7453 16.7473 37.1038C17.9422 37.0441 19.5553 36.3271 21.5867 34.953C23.618 33.5191 25.1415 32.3541 26.1572 31.4579C27.2326 30.5019 27.9794 29.785 28.3977 29.307C28.8159 28.8888 29.2341 28.8888 29.6523 29.307C30.1303 29.7253 30.1601 30.1435 29.7419 30.5617C29.5029 30.8007 29.2042 31.0994 28.8457 31.4579C28.4873 31.8163 27.7405 32.4735 26.6053 33.4295C25.5299 34.3854 24.4843 35.2517 23.4687 36.0284C22.453 36.7453 21.3178 37.4025 20.0632 38C18.8085 38.5975 17.6733 38.8962 16.6577 38.8962C15.4628 38.8962 14.8952 38.0896 14.9549 36.4765C14.9549 35.2218 15.3731 33.3399 16.2096 30.8305C15.0147 30.95 13.999 30.8604 13.1626 30.5617C12.7443 30.6812 12.4157 30.6513 12.1768 30.4721C12.0573 30.3526 11.9378 30.1435 11.8183 29.8447C11.1611 29.1875 10.8624 28.4407 10.9221 27.6043C10.9221 26.7081 11.2208 25.9314 11.8183 25.2742C12.4755 24.4975 13.3119 24.0196 14.3276 23.8403C15.4628 23.6013 16.12 23.9897 16.2992 25.0054C16.4187 25.7821 15.7914 27.1263 14.4172 29.0382ZM28.9053 32.0852C29.3832 31.906 29.9209 31.4877 30.5184 30.8305C31.1158 30.1733 31.4743 29.6356 31.5938 29.2174C31.3548 29.2174 31.086 29.3369 30.7872 29.5759C30.4885 29.7551 30.1599 30.0837 29.8014 30.5617C29.443 30.9799 29.1442 31.4877 28.9053 32.0852ZM28.3675 33.9672C28.3078 34.3257 28.2779 34.6543 28.2779 34.953C28.3377 35.4309 28.487 35.7595 28.726 35.9388C28.965 36.118 29.3832 36.1778 29.9807 36.118C31.4743 35.9388 33.0277 35.3115 34.6408 34.236C36.3137 33.1009 37.5982 31.9956 38.4944 30.9202L39.8387 29.3967C40.1971 28.9187 40.6154 28.8589 41.0933 29.2174C41.5713 29.5759 41.631 29.9941 41.2726 30.4721C41.0933 30.7111 40.8842 30.9799 40.6452 31.2786C40.466 31.5176 39.9582 32.0553 39.1217 32.8918C38.345 33.6685 37.5385 34.3854 36.702 35.0426C35.9253 35.6401 34.9097 36.2375 33.655 36.835C32.4601 37.4324 31.2951 37.7909 30.1599 37.9104C29.0845 38.0299 28.2481 37.8208 27.6506 37.2831C26.9934 36.7453 26.6051 36.0284 26.4856 35.1322C26.4258 34.3555 26.5453 33.4892 26.844 32.5333C27.2025 31.1591 27.8298 29.9642 28.726 28.9486C29.6222 27.8731 30.608 27.3653 31.6834 27.4251C32.2211 27.4848 32.6393 27.6939 32.9381 28.0524C33.2965 28.4109 33.4459 28.8291 33.3862 29.307C33.3264 30.3227 32.729 31.3981 31.5938 32.5333C30.4586 33.6087 29.3832 34.0867 28.3675 33.9672ZM41.6226 29.307C41.8019 29.4863 41.8915 29.6954 41.8915 29.9344C41.8915 30.1733 41.8019 30.3825 41.6226 30.5617C41.5031 30.7409 41.294 30.8305 40.9953 30.8305C40.6966 30.8305 40.2784 31.2189 39.7407 31.9956C39.1432 32.7723 38.725 33.6386 38.486 34.5945C38.1873 35.7894 38.247 36.4167 38.6652 36.4765C39.3224 36.6557 40.3082 35.7894 41.6226 33.8776C42.9968 31.906 43.893 30.4422 44.3112 29.4863C44.6099 28.8888 45.058 28.7693 45.6555 29.1278C46.0139 29.3668 46.1334 29.6954 46.0139 30.1136C45.8944 30.7708 45.8048 31.5176 45.7451 32.3541C45.6853 34.8634 46.5516 36.1479 48.344 36.2076C49.3597 36.2076 50.7637 35.6102 52.5561 34.4153C54.4082 33.1606 55.8122 32.1151 56.7681 31.2786C57.7838 30.3825 58.4709 29.7253 58.8293 29.307C59.2475 28.8888 59.6658 28.8888 60.084 29.307C60.5619 29.7253 60.5918 30.1435 60.1736 30.5617C59.9346 30.7409 59.6359 31.0098 59.2774 31.3683C58.9787 31.7267 58.3215 32.3541 57.3058 33.2502C56.3499 34.0867 55.4238 34.8335 54.5277 35.4907C53.6315 36.1479 52.5859 36.7453 51.391 37.2831C50.1961 37.761 49.1506 38 48.2544 38C45.8048 37.9403 44.4008 36.5064 44.0423 33.6983C41.8317 37.1636 39.89 38.6871 38.2171 38.2689C36.6638 37.8506 36.1559 36.4765 36.6936 34.1464C36.9924 32.8918 37.5599 31.7267 38.3964 30.6513C39.1731 29.5759 40.0394 29.0382 40.9953 29.0382C41.294 29.0382 41.5031 29.1278 41.6226 29.307ZM69.0402 1.07731C69.2792 0.539598 69.6675 0.390235 70.2052 0.629217C70.7429 0.868199 70.8923 1.25655 70.6533 1.79425C69.3987 4.72178 68.0245 8.06753 66.5309 11.8315L86.9638 12.19C87.2028 12.19 87.4119 12.2796 87.5912 12.4588C87.7704 12.6381 87.86 12.8472 87.86 13.0861C87.86 13.3251 87.7704 13.5342 87.5912 13.7135C87.4119 13.8927 87.2028 13.9823 86.9638 13.9823L65.9036 13.6239C61.2434 25.6327 59.1523 33.1307 59.6303 36.118C59.69 36.596 59.7797 36.8947 59.8991 37.0142C60.0186 37.1337 60.1979 37.1636 60.4369 37.1038C61.9305 36.8648 63.6332 36.118 65.5451 34.8634C67.4569 33.549 68.9805 32.3242 70.1156 31.189C71.3105 29.9941 71.908 29.3668 71.908 29.307C72.2665 28.8888 72.6548 28.8888 73.073 29.307C73.551 29.6655 73.5809 30.0837 73.1626 30.5617C72.6847 31.0994 72.0275 31.7865 71.191 32.6229C70.4143 33.4593 68.9207 34.6543 66.7101 36.2076C64.5593 37.7013 62.5877 38.5975 60.7953 38.8962C59.9589 39.0157 59.3017 38.8364 58.8237 38.3585C58.3458 37.8805 58.047 37.2233 57.9275 36.3869C57.3898 33.1009 59.1523 26.0808 63.215 15.3266L44.6641 13.2654C44.0666 13.2056 43.7679 12.9069 43.7679 12.3692C43.7679 12.1302 43.8575 11.9211 44.0367 11.7419C44.216 11.5626 44.4251 11.473 44.6641 11.473L64.5593 11.8315C65.9334 8.30651 67.4271 4.72178 69.0402 1.07731ZM63.215 15.3266C63.3943 14.7291 63.6034 14.1616 63.8423 13.6239L50.2204 13.355L63.215 15.3266ZM73.6835 29.4863C73.5043 29.0681 73.116 28.8589 72.5185 28.8589H72.6081C72.8471 29.0979 73.2056 29.307 73.6835 29.4863ZM71.8912 30.5617C72.0107 31.2189 71.7717 31.6072 71.1742 31.7267C70.995 31.7865 70.756 32.0852 70.4573 32.6229C70.1586 33.1009 70.0092 33.5788 70.0092 34.0568C70.0092 34.3555 70.0689 34.5646 70.1884 34.6841C70.2482 34.7439 70.3975 34.7737 70.6365 34.7737C71.1742 34.7737 71.7418 34.4451 72.3393 33.7879C72.9367 33.071 73.3549 32.2644 73.5939 31.3683C72.9367 31.1293 72.3691 30.8604 71.8912 30.5617ZM75.5655 30.024C78.2541 30.5019 81.4206 30.1733 85.065 29.0382C85.6625 28.9187 86.0508 29.1577 86.2301 29.7551C86.4093 30.2928 86.2002 30.6513 85.6028 30.8305C81.7193 31.9657 78.3138 32.2943 75.3863 31.8163C75.0278 33.0113 74.4304 34.0867 73.5939 35.0426C72.7575 35.9985 71.8016 36.5064 70.7261 36.5661C69.9494 36.5661 69.352 36.3271 68.9338 35.8492C68.4558 35.3712 68.2168 34.7737 68.2168 34.0568C68.2168 33.2204 68.4558 32.3839 68.9338 31.5475C69.4117 30.6513 70.0391 30.1136 70.8158 29.9344C70.9352 29.9344 70.9651 29.9344 70.9054 29.9344C71.0249 29.9344 71.0846 29.9344 71.0846 29.9344C70.2482 28.9784 70.2183 28.1719 70.995 27.5147C71.2937 27.2757 71.6522 27.1263 72.0704 27.0666C73.1458 26.9471 73.9823 27.1861 74.5797 27.7835C75.2369 28.381 75.5655 29.1278 75.5655 30.024ZM85.3563 28.2316C86.133 27.1562 86.6707 26.2899 86.9694 25.6327C86.7304 25.7522 86.4915 25.8717 86.2525 25.9912C85.7745 26.2899 85.4459 26.6782 85.2667 27.1562C85.0874 27.6342 85.1173 27.9926 85.3563 28.2316ZM86.9694 29.0382C87.8059 29.1577 88.8215 29.0979 90.0164 28.8589C90.2554 28.7992 90.4645 28.8589 90.6438 29.0382C90.8828 29.2174 91.0022 29.4265 91.0022 29.6655C91.062 29.785 91.062 29.9344 91.0022 30.1136C90.8828 30.2928 90.6736 30.8305 90.3749 31.7267C90.1359 32.5632 89.8671 33.5788 89.5684 34.7737C89.2696 35.9687 89.18 36.7453 89.2995 37.1038C90.4944 37.0441 92.1075 36.3271 94.1389 34.953C96.1702 33.5191 97.6937 32.3541 98.7094 31.4579C99.7848 30.5019 100.532 29.785 100.95 29.307C101.368 28.8888 101.786 28.8888 102.205 29.307C102.682 29.7253 102.712 30.1435 102.294 30.5617C102.055 30.8007 101.756 31.0994 101.398 31.4579C101.039 31.8163 100.293 32.4735 99.1575 33.4295C98.0821 34.3854 97.0365 35.2517 96.0209 36.0284C95.0052 36.7453 93.87 37.4025 92.6154 38C91.3607 38.5975 90.2256 38.8962 89.2099 38.8962C88.015 38.8962 87.4474 38.0896 87.5071 36.4765C87.5071 35.2218 87.9254 33.3399 88.7618 30.8305C87.5669 30.95 86.5512 30.8604 85.7148 30.5617C85.2966 30.6812 84.968 30.6513 84.729 30.4721C84.6095 30.3526 84.49 30.1435 84.3705 29.8447C83.7133 29.1875 83.4146 28.4407 83.4743 27.6043C83.4743 26.7081 83.773 25.9314 84.3705 25.2742C85.0277 24.4975 85.8641 24.0196 86.8798 23.8403C88.015 23.6013 88.6722 23.9897 88.8514 25.0054C88.9709 25.7821 88.3436 27.1263 86.9694 29.0382Z" fill="#CFF800"/>
</svg>
