<svg width="401" height="501" viewBox="0 0 401 501" fill="none" xmlns="http://www.w3.org/2000/svg">
<path d="M101.159 497.851C95.7208 498.818 90.0511 497.592 85.5189 494.416C81.0548 491.288 78.0035 486.455 76.9997 481.105C76.8451 480.282 76.6996 479.457 76.5496 478.633C76.1186 476.266 75.6874 473.898 75.2564 471.531C74.5771 467.8 73.8978 464.069 73.2186 460.339C72.3175 455.39 71.4163 450.44 70.5152 445.491C69.4137 439.441 68.312 433.391 67.2105 427.341C65.9488 420.411 64.6871 413.482 63.4252 406.551C62.0257 398.865 60.6261 391.178 59.2267 383.492C57.713 375.179 56.1994 366.866 54.686 358.553C53.0902 349.789 51.4945 341.025 49.8988 332.261C48.2536 323.226 46.6085 314.19 44.9634 305.155C43.288 295.953 41.6125 286.751 39.9371 277.55C38.2641 268.361 36.5911 259.173 34.9181 249.984C33.2801 240.988 31.6422 231.992 30.0042 222.996C28.4246 214.321 26.8452 205.646 25.2656 196.971C23.7646 188.726 22.2635 180.482 20.7625 172.238C19.3844 164.67 18.0064 157.102 16.6284 149.533C15.3929 142.747 14.1574 135.962 12.9218 129.176C11.8515 123.298 10.7812 117.419 9.71079 111.54C8.84544 106.787 7.98008 102.035 7.11473 97.2819C6.476 93.7739 5.83726 90.2658 5.19867 86.7585C4.81319 84.6414 4.42772 82.5243 4.04238 80.4079C3.77712 78.9511 3.49595 77.5057 3.42099 76.0204C3.14472 70.548 5.08119 65.0886 8.74853 61.0236C11.8433 57.5931 16.0126 55.3272 20.5426 54.4883C22.081 54.2035 23.6212 53.9278 25.1605 53.6475C28.7485 52.9942 32.3372 52.3408 35.9252 51.6875C41.259 50.7163 46.5929 49.7452 51.9276 48.7738C58.6774 47.5449 65.428 46.3157 72.1779 45.0868C79.9993 43.6627 87.8201 42.2387 95.6415 40.8146C104.23 39.2508 112.82 37.6868 121.409 36.123C130.496 34.4683 139.584 32.8137 148.672 31.1591C157.837 29.4903 167.003 27.8214 176.167 26.1528C185.139 24.5192 194.112 22.8855 203.084 21.252C211.587 19.7037 220.09 18.1555 228.594 16.6072C236.214 15.2196 243.835 13.8322 251.456 12.4446C257.922 11.2673 264.388 10.09 270.854 8.91266C275.868 7.99964 280.883 7.08662 285.897 6.1736C289.084 5.59335 292.271 5.0131 295.458 4.43285C296.746 4.19832 298.033 3.93341 299.329 3.73905C304.755 2.9241 310.397 4.34809 314.799 7.62984C319.009 10.7687 321.871 15.4399 322.837 20.5971C323.003 21.4816 323.16 22.3678 323.321 23.2532C323.76 25.6682 324.2 28.0824 324.64 30.4975C325.33 34.2867 326.02 38.0752 326.709 41.8645C327.619 46.8575 328.528 51.8505 329.437 56.8435C330.539 62.8954 331.641 68.9474 332.743 74.9993C334.017 81.9972 335.291 88.9944 336.565 95.9923C337.969 103.705 339.373 111.418 340.778 119.13C342.291 127.439 343.804 135.749 345.316 144.058C346.919 152.86 348.522 161.662 350.124 170.464C351.771 179.508 353.418 188.552 355.064 197.596C356.736 206.774 358.407 215.953 360.078 225.132C361.755 234.342 363.432 243.552 365.109 252.763C366.745 261.75 368.381 270.736 370.018 279.723C371.594 288.382 373.171 297.042 374.748 305.702C376.245 313.925 377.742 322.147 379.239 330.37C380.612 337.911 381.986 345.453 383.358 352.993C384.588 359.746 385.817 366.498 387.047 373.251C388.107 379.075 389.168 384.9 390.228 390.725C391.088 395.447 391.948 400.169 392.808 404.891C393.437 408.348 394.067 411.805 394.696 415.262C395.07 417.315 395.444 419.367 395.817 421.42C396.111 423.03 396.402 424.625 396.437 426.271C396.555 431.776 394.446 437.189 390.637 441.157C387.58 444.341 383.576 446.418 379.249 447.217C377.624 447.516 375.996 447.809 374.37 448.105C370.709 448.772 367.048 449.438 363.388 450.105C358.01 451.084 352.633 452.063 347.255 453.042C340.44 454.283 333.625 455.524 326.81 456.764C318.953 458.195 311.097 459.625 303.24 461.056C294.628 462.624 286.015 464.192 277.403 465.76C268.305 467.417 259.206 469.074 250.108 470.73C240.944 472.399 231.78 474.067 222.616 475.736C213.658 477.367 204.7 478.998 195.742 480.629C187.287 482.168 178.832 483.708 170.377 485.247C162.773 486.632 155.169 488.016 147.564 489.401C141.149 490.569 134.734 491.737 128.318 492.905C123.379 493.804 118.438 494.704 113.499 495.603C110.376 496.172 107.254 496.74 104.131 497.309C103.141 497.49 102.15 497.67 101.159 497.851Z" stroke="#3273E3" stroke-width="1.5" stroke-miterlimit="10" stroke-linecap="round" stroke-linejoin="round"/>
<path d="M152.766 38.5723C152.436 36.8465 150.073 36.4128 149.184 37.9478C148.3 39.474 149.848 41.3352 151.508 40.7454C152.398 40.4299 152.926 39.4973 152.766 38.5723Z" stroke="#3273E3" stroke-width="1.5" stroke-miterlimit="10" stroke-linecap="round" stroke-linejoin="round"/>
<path d="M164.795 36.3915C164.459 34.7088 161.954 35.1636 162.263 36.8527C162.573 38.5402 165.097 38.0833 164.795 36.3915Z" stroke="#3273E3" stroke-width="1.5" stroke-miterlimit="10" stroke-linecap="round" stroke-linejoin="round"/>
<mask id="mask0_84_24559" style="mask-type:alpha" maskUnits="userSpaceOnUse" x="19" y="19" width="362" height="463">
<path d="M100.263 481.654C97.8393 482.094 95.3085 481.132 93.7899 479.19C92.9544 478.121 92.5924 476.899 92.355 475.595C92.0728 474.045 91.7906 472.495 91.5085 470.945C90.979 468.038 90.4498 465.131 89.9204 462.223C89.1693 458.098 88.4182 453.973 87.667 449.847C86.7195 444.643 85.7721 439.44 84.8246 434.236C83.7063 428.094 82.5879 421.952 81.4696 415.81C80.2058 408.869 78.942 401.928 77.6782 394.987C76.2944 387.387 74.9106 379.786 73.5268 372.186C72.0527 364.09 70.5787 355.994 69.1045 347.898C67.5571 339.399 66.0096 330.9 64.4622 322.402C62.8755 313.687 61.2888 304.973 59.7023 296.259C58.0926 287.418 56.483 278.578 54.8734 269.737C53.2708 260.936 51.6681 252.133 50.0655 243.331C48.4952 234.707 46.9249 226.083 45.3548 217.459C43.8424 209.153 42.33 200.847 40.8176 192.54C39.3885 184.691 37.9594 176.842 36.5302 168.993C35.2097 161.741 33.8893 154.489 32.5688 147.236C31.3825 140.72 30.1962 134.205 29.0099 127.69C27.9831 122.05 26.9563 116.411 25.9296 110.772C25.0879 106.149 24.246 101.526 23.4043 96.9028C22.7745 93.4437 22.1446 89.9838 21.5147 86.5247C21.1185 84.3483 20.7224 82.1727 20.3261 79.9964C20.1867 79.231 20.0319 78.4668 19.9085 77.6985C19.5141 75.2569 20.4749 72.7504 22.4507 71.2449C23.6106 70.3612 24.9224 70.0534 26.3138 69.8001C28.5325 69.3961 30.752 68.992 32.9707 68.588C37.016 67.8515 41.0614 67.1149 45.1068 66.3783C50.6838 65.3629 56.2609 64.3475 61.8387 63.3319C68.6533 62.0911 75.4678 60.8503 82.2824 59.6096C90.0402 58.197 97.7981 56.7845 105.555 55.3721C113.961 53.8416 122.368 52.311 130.774 50.7803C139.535 49.1853 148.295 47.5903 157.056 45.9951C165.851 44.3937 174.646 42.7923 183.442 41.1909C192.028 39.6275 200.615 38.0641 209.201 36.5007C217.238 35.0375 225.274 33.5743 233.311 32.111C240.549 30.793 247.787 29.4751 255.026 28.1571C261.148 27.0424 267.27 25.9279 273.392 24.8131C278.103 23.9554 282.814 23.0976 287.525 22.2398C290.531 21.6925 293.537 21.1451 296.543 20.5978C297.634 20.3991 298.727 20.1603 299.826 20.0056C302.278 19.661 304.78 20.7291 306.219 22.7477C306.967 23.798 307.27 24.971 307.495 26.209C307.788 27.8156 308.08 29.4223 308.373 31.0289C308.912 33.9874 309.45 36.9466 309.989 39.905C310.746 44.0628 311.503 48.2206 312.26 52.3776C313.211 57.6019 314.163 62.8269 315.114 68.0513C316.238 74.223 317.361 80.3948 318.485 86.5666C319.753 93.5326 321.022 100.499 322.29 107.465C323.678 115.085 325.065 122.705 326.453 130.326C327.934 138.461 329.415 146.596 330.896 154.731C332.446 163.242 333.995 171.752 335.545 180.262C337.137 189.008 338.73 197.753 340.322 206.5C341.932 215.341 343.542 224.183 345.151 233.024C346.753 241.822 348.355 250.619 349.957 259.417C351.525 268.032 353.094 276.645 354.662 285.26C356.172 293.55 357.681 301.841 359.191 310.132C360.612 317.938 362.034 325.745 363.455 333.551C364.767 340.759 366.08 347.966 367.392 355.174C368.573 361.662 369.754 368.149 370.936 374.637C371.957 380.244 372.977 385.851 373.998 391.457C374.833 396.043 375.668 400.629 376.503 405.215C377.127 408.64 377.751 412.065 378.374 415.491C378.761 417.617 379.148 419.741 379.535 421.867C379.68 422.663 379.858 423.46 379.963 424.262C380.283 426.72 379.179 429.216 377.143 430.63C375.99 431.431 374.71 431.684 373.368 431.928C371.07 432.347 368.773 432.765 366.474 433.183C362.362 433.932 358.25 434.681 354.137 435.43C348.523 436.452 342.909 437.474 337.294 438.496C330.46 439.741 323.626 440.985 316.792 442.229C309.007 443.647 301.222 445.064 293.437 446.482C285.014 448.015 276.591 449.549 268.167 451.083C259.4 452.679 250.632 454.275 241.865 455.872C233.048 457.477 224.231 459.083 215.414 460.688C206.842 462.249 198.27 463.809 189.698 465.37C181.665 466.833 173.631 468.295 165.598 469.758C158.399 471.069 151.2 472.38 144.001 473.691C137.929 474.796 131.858 475.901 125.787 477.007C121.138 477.853 116.49 478.7 111.841 479.546C108.909 480.08 105.977 480.614 103.046 481.147C102.118 481.316 101.19 481.485 100.263 481.654Z" fill="#E7ECED"/>
</mask>
<g mask="url(#mask0_84_24559)">
</g>
<g clip-path="url(#clip0_84_24559)">
<rect x="18.6074" y="71.0927" width="292" height="419" rx="8" transform="rotate(-10.3191 18.6074 71.0927)" fill="#E7ECED"/>
<path fill-rule="evenodd" clip-rule="evenodd" d="M276.408 320.942C273.983 320.547 271.618 320.01 269.368 318.998C262.825 315.764 257.893 310.004 253.23 304.544C246.611 296.574 241.324 287.759 237.063 278.335C235.233 274.286 233.978 269.434 230.888 266.111C224.003 259.23 208.203 263.16 199.966 266.088C194.465 268.127 194.446 274.691 194.011 279.625C193.646 283.725 193.662 287.801 193.799 291.91C192.562 293.088 191.112 294.126 189.718 295.054C174.156 303.1 172.962 312.98 169.297 328.573C162.488 351.507 135.135 364.981 135.302 390.626C135.481 407.543 146.276 421.524 156.991 433.664C167.37 447.166 179.375 452.368 195.779 445.745C211.115 439.254 225.389 430.468 240.252 422.981C247.519 419.729 254.23 413.49 262.54 413.726C279.701 414.42 296.958 413.074 313.768 409.517C337.667 406.155 333.525 383.426 327.885 366.268C321.192 339.186 304.148 324.117 276.408 320.942V320.942Z" fill="white"/>
<path fill-rule="evenodd" clip-rule="evenodd" d="M285.211 360.291C287.432 361.239 289.46 362.919 291.179 364.763C285.486 365.201 279.786 365.547 274.081 365.799C274.725 365.202 275.378 364.613 276.052 364.047C278.515 362.004 281.778 358.826 285.211 360.291ZM195.374 393.683C194.278 393.469 193.598 391.983 193.036 391.162C191.275 388.589 189.614 385.948 187.911 383.336C192.188 381.231 196.316 379.008 200.864 377.473C205.754 375.823 210.821 374.717 215.921 373.959C226.253 372.423 236.734 372.246 247.16 372.204C257.573 372.162 267.972 372.05 278.376 371.554C288.568 371.068 298.727 370.221 308.883 369.251C310.856 369.063 314.223 369.171 315.508 367.36C316.525 365.926 316.159 363.689 314.432 362.988C313.356 362.551 311.958 362.796 310.83 362.856C309.41 362.93 307.995 363.065 306.583 363.227C306.007 363.293 305.432 363.362 304.857 363.431C309.111 360.881 313.71 359.075 318.708 358.435C319.297 360.082 320.876 361.599 321.822 362.873C323.472 365.098 324.863 367.401 325.963 369.947C328.265 375.268 329.371 381.024 330.038 386.757C330.564 391.543 330.797 396.9 327.693 400.922C325.344 403.967 321.549 405.628 317.923 406.592C313.709 407.714 309.3 408.138 304.955 408.338C298.861 408.619 292.693 408.645 286.603 408.284C274.808 407.585 263.186 405.171 252.117 401.045C246.719 399.033 241.478 396.618 236.033 394.729C230.485 392.803 224.731 391.573 218.861 391.227C212.291 390.841 205.597 391.384 199.2 392.939C198.09 393.209 196.543 393.911 195.374 393.683ZM187.567 392.166C188.618 394.186 189.569 396.539 191.307 398.081C193.029 399.61 195.252 399.855 197.465 399.616C200.133 399.327 202.775 398.72 205.432 398.337C210.882 397.553 216.38 397.458 221.848 398.126C226.944 398.748 231.846 400.274 236.631 402.085C241.056 403.76 245.395 405.633 249.82 407.3C248.847 407.979 247.893 408.696 246.921 409.346C244.882 410.708 242.824 412.039 240.751 413.349C236.664 415.932 232.55 418.476 228.368 420.904C219.936 425.8 211.281 430.312 202.439 434.423C198.222 436.384 193.977 438.55 189.413 439.58C185.365 440.493 181.377 440.03 177.647 438.208C169.91 434.429 163.162 428.17 157.473 421.821C154.092 418.048 151.005 414 148.283 409.729C146.906 407.569 145.612 405.357 144.399 403.101C143.829 402.042 143.278 400.973 142.743 399.896C142.509 399.422 142.279 398.946 142.051 398.469C148.641 395.073 155.351 391.87 162.383 389.489C166.137 388.218 169.993 387.218 173.901 386.55C175.84 386.218 177.794 385.971 179.756 385.819C180.812 385.738 181.869 385.688 182.928 385.672C183.366 385.665 183.821 385.69 184.273 385.687C185.359 387.853 186.449 390.016 187.567 392.166ZM330.128 356.811C330.366 355.983 330.388 355.207 330.373 354.356C330.361 353.707 330.472 352.77 330.084 351.995C329.649 351.127 328.771 350.439 328.106 349.753C327.371 348.994 326.637 348.234 325.903 347.474C324.435 345.953 322.969 344.431 321.505 342.907C315.527 336.683 309.577 330.434 303.62 324.19C298.334 318.649 293.107 313.038 287.71 307.605C283.095 302.959 278.168 298.46 272.423 295.239C265.159 291.166 257.193 290.075 248.991 289.585C247.972 288.853 246.738 288.576 245.532 288.898C243.445 287.254 241.821 286.137 240.744 283.759C240.229 282.621 239.712 279.252 238.419 278.758C236.884 278.171 236.364 279.412 236.211 280.733C235.697 285.15 238.186 290.51 242.318 294.089C241.79 299.244 241.176 306.547 238.532 311.081C235.702 315.937 230.968 318.15 225.619 319.213C215.419 321.24 204.509 319.305 195.508 314.148C192.772 312.581 190.163 310.749 187.738 308.737C185.918 307.228 183.65 304.801 182.102 302.935C181.954 302.125 180.842 301.453 190.475 299.023C200.108 296.593 198.42 283.13 198.307 281.276C198.215 279.771 198.548 277.348 197.289 276.336C196.755 275.907 195.835 275.989 195.338 276.438C194.402 277.284 194.36 279.019 194.235 280.215C194.06 281.891 194.339 292.042 191.669 293.709C190.419 294.49 188.876 294.781 187.469 295.139C185.731 295.583 183.983 295.994 182.268 296.517C181.635 296.71 180.968 297.048 180.331 297.17C179.916 297.249 179.452 297.126 179.025 297.058C177.584 296.826 176.296 297.431 174.935 297.872C162.904 301.772 150.893 307.86 141.611 316.569C133.43 324.246 128.466 334.047 125.989 344.901C123.462 355.978 122.965 367.549 122.844 378.873C122.804 382.667 122.856 386.462 122.998 390.253C123.135 393.917 123.158 397.684 123.661 401.318C123.86 402.756 124.443 404.019 125.206 405.227C126.065 406.586 127.569 406.91 129.036 407.351C132.256 408.319 135.577 408.919 138.929 409.163C141.533 412.359 143.851 415.75 145.871 419.34C145.557 420.4 145.811 421.852 145.888 422.813C146.082 425.205 146.412 427.585 146.821 429.949C147.64 434.687 148.785 439.361 149.869 444.044C150.968 448.794 155.162 467.558 155.705 469.844C156.127 471.62 156.455 474.151 157.691 475.571C159.591 477.753 163.165 477.017 164.466 474.73C207.381 476.073 284.531 459.268 314.987 449.116C318.949 447.795 317.789 448.671 318.637 447.457C319.273 446.545 319.693 445.105 319.715 444.006C319.744 442.538 319.048 441.342 318.028 440.344C316.955 439.296 316.444 437.374 315.867 436C314.501 432.752 311.422 417.957 310.772 416.373C310.569 415.88 310.365 415.357 310.139 414.837C315.973 414.335 321.949 413.247 327.057 410.339C329.953 408.689 332.528 406.458 334.306 403.618C336.459 400.18 337.279 396.195 337.343 392.18C337.427 387.003 336.695 381.789 335.575 376.745C334.211 370.791 332.105 364.885 328.626 359.824C329.303 358.921 329.82 357.885 330.128 356.811Z" fill="black"/>
<path fill-rule="evenodd" clip-rule="evenodd" d="M162.994 165.824C179.345 161.915 193.131 154.612 206.647 162.878C206.647 162.878 222.896 145.414 227.007 150.19C229.762 153.39 227.722 158.731 229.309 163.01C235.989 170.77 238.378 185.529 239.294 188.922C241.602 197.476 252.13 229.33 253.543 237.092C254.264 241.054 252.886 252.026 251.903 258.171C249.714 271.849 242.261 279.974 228.082 282.555C213.903 285.137 188.604 277.503 179.267 268.336C178.448 267.532 174.732 270.988 169.483 267.123C163.796 262.937 159.397 253.779 158.351 248.033C157.023 240.741 151.388 236.542 150.237 227.109C147.666 206.041 145.498 170.005 162.994 165.824Z" fill="white"/>
<path fill-rule="evenodd" clip-rule="evenodd" d="M156.736 141.925C156.948 141.872 157.168 141.843 157.389 141.825C157.63 141.792 157.872 141.772 158.12 141.776C159.375 141.788 160.575 142.233 161.578 142.984C161.606 143.003 161.629 143.026 161.654 143.046C162.101 143.27 162.527 143.54 162.919 143.836C162.967 143.77 163.012 143.706 163.062 143.64C163.207 143.456 163.362 143.279 163.526 143.109C164.192 142.288 165.029 141.627 165.974 141.166L166.104 141.104C166.129 141.091 166.154 141.081 166.179 141.071C166.844 140.707 167.566 140.451 168.316 140.317C169.207 140.125 170.133 140.108 171.035 140.301C172.103 140.532 173.086 141.024 173.954 141.673C174.502 141.974 174.996 142.325 175.522 142.714C176.608 143.52 177.533 144.526 178.215 145.696C178.31 145.86 178.397 146.031 178.48 146.203C179.565 145.873 180.663 145.578 181.768 145.331C183.005 145.027 184.25 144.773 185.51 144.587C188.982 144.071 192.469 144.065 195.939 144.583C196.63 144.657 197.311 144.788 197.98 144.98C199.012 145.187 200.01 145.509 200.974 145.943L201.783 146.243C202.189 146.394 202.596 146.548 202.993 146.709C203.938 147.098 204.851 147.559 205.73 148.076C206.65 148.577 207.535 149.144 208.391 149.752C208.623 149.916 208.849 150.084 209.072 150.254C210.897 150.848 212.581 151.727 214.207 152.845C215.184 152.018 216.211 151.243 217.285 150.525C218.393 149.785 219.823 148.969 221.02 148.386C222.094 147.863 223.173 147.442 224.279 147.075C224.779 146.892 225.285 146.727 225.796 146.572L225.776 146.584V146.584C226.136 146.477 226.494 146.377 226.858 146.278L226.847 146.278V146.278C227.002 146.236 227.159 146.194 227.315 146.155L227.692 146.054V146.054C227.805 146.022 228.022 146.261 228.049 146.354L228.08 146.448V146.448C228.184 146.53 228.283 146.623 228.35 146.678C228.417 146.66 228.484 146.643 228.552 146.628C228.753 146.572 229.055 146.893 229.201 147.01L229.333 147.119C229.484 147.245 229.64 147.395 229.694 147.578C230.026 148.642 230.35 149.708 230.664 150.777C230.858 151.594 230.963 152.42 230.974 153.254C231.015 154.059 231.053 154.864 231.091 155.667C231.023 156.248 230.958 156.828 230.893 157.408C230.866 157.63 230.83 157.85 230.797 158.07C230.63 159.528 230.384 160.964 230.036 162.374C230.549 162.768 231.036 163.185 231.498 163.623C231.603 163.698 231.709 163.772 231.809 163.852C231.826 163.811 231.854 163.771 231.888 163.745C232.003 163.667 232.107 163.716 232.205 163.809C233.174 164.448 233.942 165.258 234.505 166.241L234.837 166.746C234.892 166.831 234.947 166.916 235.001 167.001C235.442 167.743 235.819 168.519 236.159 169.313C236.446 169.933 236.687 170.571 236.887 171.225C237.799 173.022 238.6 174.884 239.372 176.725C239.493 177.015 239.511 177.29 239.456 177.537L239.747 177.733V177.733L240.245 178.076C241.082 178.653 241.94 179.264 242.62 180.009C243.324 180.782 243.894 181.642 244.508 182.486L244.64 182.665V182.665L244.908 183.023C245.199 183.415 245.344 183.634 245.626 184.12C246.096 184.931 246.423 185.772 246.669 186.678C247.028 187.996 247.278 189.458 246.917 190.809C246.917 190.82 246.913 190.829 246.909 190.838C246.861 192.089 246.404 193.325 245.53 194.221C245.351 194.462 245.154 194.685 244.934 194.873C244.406 195.328 243.868 195.458 243.194 195.415L243.109 195.409C243.024 195.403 242.947 195.398 242.873 195.395C242.994 195.462 243.065 195.555 242.921 195.657C242.782 195.758 242.654 195.825 242.528 195.864C242.596 195.924 242.615 195.999 242.511 196.083C242.284 196.263 242.087 196.342 241.871 196.343L241.981 196.7C242.827 199.393 243.234 199.882 244.042 202.794C244.772 205.793 245.605 208.765 246.544 211.704L246.878 212.774C247.94 216.163 249.061 219.567 250.424 222.843C251.07 224.266 251.666 225.708 252.214 227.171C252.809 228.251 253.293 229.378 253.661 230.551C254.1 231.732 254.474 232.936 254.787 234.162C255.233 234.902 255.526 235.682 255.668 236.506C255.909 237.604 256.073 238.714 256.155 239.834C256.297 240.988 256.346 242.148 256.301 243.315C256.359 244.894 256.223 246.453 255.904 248C255.73 249.694 255.446 251.375 255.077 253.036C254.503 255.61 253.688 258.051 252.7 260.491C251.774 262.779 250.739 265.008 249.48 267.135C247.853 269.884 245.9 272.486 243.661 274.789C242.391 276.141 241.019 277.398 239.551 278.526C237.756 279.908 235.911 281.194 233.877 282.206C232.609 282.838 231.295 283.353 229.953 283.809C227.319 284.702 224.504 285.152 221.696 285.179C219.897 285.263 218.095 285.169 216.356 284.882C214.927 284.644 213.547 284.324 212.154 283.933C211.439 283.736 210.738 283.485 210.055 283.184C208.912 282.707 207.819 282.133 206.777 281.467C206.441 281.271 206.112 281.068 205.785 280.851C205.63 280.758 205.672 280.569 205.819 280.499L205.865 280.485V280.485C205.795 280.441 205.722 280.397 205.651 280.351C205.636 280.343 205.623 280.332 205.61 280.32C205.577 280.299 205.54 280.279 205.509 280.258C205.391 280.187 205.457 279.969 205.537 279.906C205.568 279.881 205.612 279.871 205.663 279.867C205.651 279.858 205.641 279.852 205.629 279.846C205.617 279.84 205.611 279.819 205.61 279.798L205.565 279.774V279.774C205.41 279.68 205.446 279.495 205.595 279.422C205.668 279.384 205.797 279.373 205.934 279.378L205.986 279.38L205.882 279.313C205.699 279.205 205.722 279.044 205.907 278.962C206.053 278.944 206.2 278.938 206.347 278.946L206.458 278.956C206.513 278.959 206.566 278.966 206.621 278.972C206.517 278.907 206.414 278.845 206.312 278.779C206.212 278.719 206.264 278.485 206.335 278.426C206.431 278.347 206.656 278.392 206.766 278.445C207.009 278.428 207.343 278.475 207.476 278.554C207.849 278.8 208.229 279.031 208.614 279.254C208.827 279.28 209.033 279.329 209.203 279.428C209.646 279.721 210.102 279.99 210.563 280.247L210.906 280.401C210.963 280.427 211.02 280.451 211.078 280.475C211.716 280.708 212.354 280.939 212.989 281.172C215.223 281.501 217.458 281.831 219.689 282.159L219.982 282.192V282.192L222.069 282.071V282.071C223.437 281.969 224.78 281.716 226.094 281.317C227.102 281.147 228.083 280.865 229.028 280.482C230.646 279.895 232.208 279.181 233.696 278.309C235.409 277.306 236.996 276.108 238.53 274.849C239.081 274.394 239.617 273.92 240.139 273.427C240.306 273.256 240.472 273.082 240.637 272.906C241.726 271.731 242.748 270.502 243.714 269.225C244.168 268.625 244.598 268.008 245.005 267.376C245.064 267.284 245.121 267.196 245.178 267.104C245.566 266.486 245.936 265.854 246.281 265.206L246.62 264.646V264.646C247.954 262.186 249.067 259.599 250.012 256.971C250.952 254.367 251.627 251.683 252.057 248.955C252.178 247.988 252.261 247.015 252.3 246.039C252.483 244.841 252.527 243.64 252.43 242.439C252.427 242.201 252.417 241.965 252.406 241.729L252.358 241.362C252.35 241.301 252.341 241.24 252.33 241.179C252.316 240.803 252.294 240.428 252.261 240.055C252.215 239.682 252.161 239.31 252.096 238.94L251.655 236.679V236.679C251.634 236.61 251.613 236.538 251.594 236.465L251.445 235.976C251.131 234.966 250.846 233.949 250.532 232.94C250.531 232.934 250.53 232.926 250.526 232.919C250.409 232.542 250.288 232.164 250.16 231.786C250.089 231.561 250.01 231.337 249.934 231.113L249.795 230.721V230.721C249.546 230.042 249.272 229.373 248.967 228.716L248.835 228.435L247.962 226.226L247.037 224.064C246.429 222.612 245.874 221.141 245.374 219.645C244.53 217.271 243.744 214.883 243 212.477C242.962 212.362 242.925 212.244 242.89 212.129C242.173 209.902 241.539 207.651 240.979 205.379C240.375 203.15 239.852 200.901 239.41 198.635C239.389 198.533 239.441 198.437 239.514 198.375L239.427 197.94C239.347 197.555 239.425 198.02 239.341 197.58L239.116 196.369C239.098 196.268 239.086 196.198 239.087 196.192C237.704 196.544 236.748 196.636 235.383 196.811L235.152 196.841C233.902 197.01 232.645 197.098 231.384 197.116C231.39 197.18 231.356 197.232 231.288 197.258C231.163 197.286 231.045 197.307 230.925 197.332L231.001 197.494V197.494C231.019 197.58 230.99 197.642 230.91 197.681L230.563 197.761C230.1 197.865 229.634 197.96 229.159 197.981C228.732 198.002 228.308 197.979 227.884 197.937C227.627 197.941 227.362 197.93 227.089 197.903C226.389 197.833 225.682 197.697 224.976 197.614C224.269 197.594 223.568 197.673 222.876 197.977C222.144 198.297 221.556 198.743 220.718 198.69C220.551 198.68 220.386 198.648 220.219 198.613L220.074 198.629C220.05 198.631 220.025 198.633 219.999 198.634C219.141 198.666 218.3 198.272 217.452 198.134C217.161 198.117 216.888 198.184 216.639 198.346L216.577 198.388L216.348 198.633C216.265 198.778 216.182 198.924 216.101 199.07L215.981 199.29C215.759 199.695 215.513 200.068 215.186 200.366C214.815 200.858 214.329 201.196 213.701 201.326C213.344 201.402 212.973 201.391 212.607 201.344C211.376 201.985 209.994 202.321 208.62 202.165C208.089 202.18 207.558 202.134 207.033 202.004C206.787 201.944 206.537 201.865 206.292 201.771C205.443 202.327 204.667 203.001 203.86 203.608L203.678 203.745C202.852 204.363 201.928 204.986 200.889 205.107C199.579 205.259 198.276 205.318 196.968 205.331C196.958 205.333 196.944 205.333 196.933 205.332L196.753 205.335V205.335L196.099 205.339V205.339L195.569 205.337V205.337L195.326 205.485C193.37 206.662 191.181 207.701 188.969 207.529C188.029 207.584 187.11 207.432 186.236 207.047C186.207 207.033 186.177 207.02 186.147 207.004C186.012 206.963 185.884 206.914 185.768 206.856L185.743 206.843V206.843L185.72 206.83L185.709 206.826C184.462 206.507 183.596 205.5 183.482 204.217C183.338 203.828 183.269 203.435 183.271 203.002C182.977 203.512 182.674 204.02 182.365 204.525C181.258 206.491 180.185 208.486 179.229 210.534L179.01 211.008C178.484 212.134 178.015 213.287 177.6 214.461C177.176 215.624 176.734 216.779 176.268 217.925C175.59 219.017 174.945 220.126 174.333 221.253L174.073 221.738L173.208 223.441C172.577 224.541 172.099 225.706 171.778 226.933C171.492 227.817 171.243 228.709 171.037 229.616C170.968 229.891 170.905 230.167 170.844 230.444C170.657 231.515 170.532 232.593 170.48 233.693C170.423 234.493 170.424 235.293 170.483 236.094L170.505 236.361C170.53 236.675 170.563 236.989 170.606 237.3C170.69 237.331 170.761 237.364 170.816 237.4L171.02 237.434V237.434L171.183 237.451C171.438 237.482 171.883 237.561 171.818 237.77L171.488 238.827V238.827C171.55 238.872 171.584 238.925 171.562 238.994C171.341 239.703 171.118 240.412 170.896 241.122C170.889 241.147 170.874 241.168 170.858 241.185C171.174 241.266 171.483 241.361 171.782 241.471C172.367 241.69 172.821 241.983 173.257 242.343C173.675 242.499 174.077 242.681 174.464 242.902C174.957 243.262 175.405 243.673 175.806 244.133C176.178 244.569 176.501 245.035 176.776 245.535C176.906 245.801 176.995 246.085 177.047 246.382C177.137 248.677 174.297 247.61 174.212 247.423C173.614 246.135 173.055 245.354 171.965 244.513L171.939 244.502V244.502C171.373 244.367 170.812 244.233 170.237 244.154C170.159 244.184 170.077 244.21 169.996 244.238C170.114 244.355 170.091 244.495 169.904 244.553C169.108 244.866 168.283 245.062 167.431 245.144L166.125 245.195V245.195C165.633 245.494 165.176 245.846 164.756 246.242L164.618 246.376L164.593 246.402C163.543 247.614 162.834 249.099 162.444 250.648C162.41 250.786 162.378 250.925 162.348 251.064L162.306 251.274L162.303 251.286C162.061 254.776 163.485 258.301 165.588 261.044C166.681 262.245 167.806 263.412 168.966 264.546L170.075 265.555V265.555C170.695 265.956 171.307 266.372 171.908 266.804C172.001 266.869 172.1 266.932 172.197 266.993C172.496 267.119 172.797 267.225 173.099 267.305C173.213 267.322 173.329 267.336 173.445 267.345C174.026 267.504 174.612 267.539 175.204 267.447C175.992 267.357 176.732 267.128 177.42 266.763L177.557 266.688L177.657 266.629C178.009 266.302 178.321 265.918 178.605 265.482C178.669 265.387 178.815 265.36 178.991 265.374C179.066 265.263 179.139 265.147 179.206 265.023C179.255 264.947 179.348 264.927 179.431 264.964C179.675 264.89 180.418 265.15 180.279 265.383C180.259 265.435 180.23 265.484 180.206 265.534C180.335 265.573 180.466 265.62 180.583 265.672C181.161 265.724 182.074 266.125 182.038 266.302L182.033 266.317C181.949 266.581 181.821 266.813 181.646 267.011L181.586 267.075L181.451 267.211C181.693 267.308 181.905 267.431 181.834 267.558C181.807 267.647 181.776 267.734 181.737 267.814C182.283 268.283 182.827 268.758 183.368 269.233C183.982 270.107 184.689 270.898 185.489 271.605C186.195 272.402 186.994 273.088 187.887 273.667C187.962 273.719 188.038 273.767 188.112 273.816C188.75 274.128 189.408 274.41 190.089 274.672L190.381 274.783C190.536 274.841 190.788 274.904 190.715 275.125C190.706 275.154 190.694 275.178 190.679 275.197C191.11 275.379 191.552 275.544 192.003 275.69L192.047 275.707C192.22 275.777 192.464 275.919 192.269 276.107C192.103 276.267 191.54 276.017 191.276 275.903C191.231 275.911 191.176 275.908 191.121 275.902C191.207 275.929 191.293 275.96 191.38 275.99L191.511 276.034C191.612 276.072 192.118 276.288 191.826 276.472C191.674 276.513 191.525 276.499 191.378 276.434C191.209 276.386 191.043 276.333 190.878 276.276C190.945 276.348 190.96 276.429 190.838 276.505C190.794 276.516 190.749 276.522 190.704 276.524C191.049 276.665 191.399 276.79 191.758 276.903L191.817 276.927C191.972 276.991 192.224 277.122 192.09 277.298C191.939 277.493 191.378 277.238 191.235 277.183L190.811 277.024V277.024C190.785 277.043 190.754 277.054 190.721 277.063C190.849 277.112 190.97 277.169 191.1 277.215L191.277 277.273C191.498 277.348 191.815 277.479 191.745 277.68C191.675 277.879 191.343 277.786 191.124 277.705L190.888 277.612C190.877 277.608 190.867 277.604 190.857 277.601L190.854 277.634C190.853 277.639 190.852 277.645 190.849 277.651C190.782 277.84 190.515 277.773 190.326 277.705L190.174 277.647C189.917 277.549 189.661 277.452 189.407 277.354L189.027 277.206L189.022 277.207C187.711 276.712 186.489 276.204 185.293 275.479C184.578 275.046 183.899 274.574 183.242 274.058C181.922 273.023 180.85 271.76 179.801 270.462C179.784 270.44 179.791 270.377 179.811 270.306C179.692 270.143 179.575 269.978 179.457 269.807C178.691 270.179 177.801 270.409 176.961 270.505C176.51 270.557 176.055 270.559 175.596 270.521C174.164 270.581 172.701 270.19 171.398 269.639C171.316 269.605 171.241 269.565 171.165 269.53C170.636 269.348 170.123 269.117 169.625 268.836C168.654 268.293 167.708 267.664 166.83 266.987C166.186 266.455 165.566 265.894 164.974 265.303C164.376 264.722 163.772 264.142 163.168 263.561C161.447 261.709 160.151 259.452 159.369 257.047C159.041 256.168 158.79 255.263 158.641 254.343C158.533 253.677 158.485 252.993 158.491 252.302C158.402 252.242 158.313 252.183 158.223 252.121C158.194 252.202 158.162 252.262 158.131 252.24L157.421 251.748C156.917 251.396 156.573 251.133 155.956 250.527C154.973 249.561 154.17 248.449 153.504 247.244C153.025 246.384 152.628 245.379 152.363 244.385C152.306 244.222 152.249 244.056 152.197 243.887C151.78 242.553 151.697 241.217 151.659 239.833C151.656 239.741 151.69 239.678 151.745 239.638C151.741 239.529 151.739 239.416 151.737 239.303C149.667 237.782 148.014 235.796 147.629 233.103C147.508 232.255 147.529 231.393 147.718 230.557L147.743 230.462V230.462C146.253 230.503 144.918 229.695 143.825 228.591C143.738 228.544 143.652 228.497 143.57 228.449C141.786 227.412 140.375 225.74 139.283 223.901C138.55 222.852 137.979 221.692 137.601 220.449C137.574 220.361 137.551 220.272 137.526 220.183C136.802 218.242 136.342 216.232 136.144 214.205C135.559 213.034 135.038 211.83 134.603 210.58C134.397 209.984 134.22 209.382 134.058 208.778L134.047 208.746L134.019 208.637L133.947 208.366C133.935 208.321 133.924 208.276 133.913 208.231C132.448 202.7 132.698 196.948 133.827 191.372C133.923 190.871 134.024 190.371 134.133 189.873L134.249 189.353V189.353C135.721 185.615 138.355 182.328 140.482 178.977C141.217 177.82 139.467 176.603 138.73 177.764C137.317 179.991 135.76 182.161 134.412 184.431C134.115 184.508 133.815 184.571 133.511 184.611C132.982 184.68 132.458 184.689 131.941 184.645C130.679 184.688 129.47 184.396 128.321 183.853C126.845 183.467 125.466 182.483 125.067 180.945C125.026 180.79 125 180.635 124.982 180.479C124.718 179.739 124.685 178.92 124.871 178.125C124.889 177.913 124.923 177.701 124.977 177.489C125.13 176.857 125.455 176.219 125.907 175.744C125.919 175.734 125.928 175.727 125.938 175.717C125.982 175.649 126.024 175.582 126.075 175.519C126.149 175.421 126.23 175.328 126.316 175.239C125.857 174.722 125.428 174.183 125.04 173.596C124.617 172.958 124.338 172.284 124.119 171.557C124.031 171.27 123.965 170.981 123.907 170.692C123.867 170.561 123.832 170.426 123.796 170.292C123.542 169.266 123.466 168.168 123.678 167.128C123.693 167.049 123.717 166.969 123.737 166.887C123.77 166.653 123.811 166.419 123.872 166.185C124.109 165.29 124.532 164.49 125.107 163.792C125.406 163.356 125.758 162.954 126.156 162.594C126.39 162.381 126.665 162.18 126.96 162.001C127.472 161.6 128.148 161.195 128.734 161.067C128.804 161.051 128.869 161.048 128.937 161.035C128.718 159.521 128.614 157.848 128.961 156.377C129.127 155.327 129.486 154.355 130.152 153.581C130.519 153.026 131.007 152.54 131.658 152.163L131.774 152.097L131.819 152.075C132.39 151.657 133.044 151.414 133.739 151.29C134.542 151.101 135.395 151.103 136.167 151.346C136.329 151.398 136.503 151.466 136.672 151.544C136.744 151.298 136.828 151.047 136.931 150.793C137.289 149.891 137.771 149.075 138.362 148.304C138.432 148.213 138.511 148.128 138.587 148.039C138.874 147.665 139.185 147.31 139.515 146.98C140.227 146.265 141.044 145.681 141.933 145.237C142.943 144.64 144.052 144.246 145.203 144.077L145.441 144.044V144.044C145.494 144.039 145.547 144.032 145.598 144.026C146.746 143.893 147.915 143.967 149.061 144.191C150.249 144.427 151.308 144.919 152.319 145.52C152.472 145.2 152.657 144.89 152.896 144.586C152.965 144.501 153.04 144.422 153.109 144.342C153.161 144.267 153.215 144.195 153.272 144.122C153.534 143.791 153.821 143.492 154.144 143.214C154.507 142.902 154.914 142.657 155.349 142.472C155.782 142.231 156.249 142.046 156.736 141.925ZM171.017 250.917C171.063 250.906 173.656 251.374 174.972 251.742L175.037 251.761C176.557 252.199 177.319 252.574 178.733 253.234C178.828 253.279 178.931 253.355 178.948 253.444C179.183 254.738 179.157 256.377 177.941 255.874C177.766 255.802 177.589 255.731 177.412 255.663L177.145 255.562L177.138 255.566C177.141 255.565 177.143 255.562 177.145 255.559C174.513 254.547 171.804 253.871 169.015 253.542C168.822 253.51 169.793 251.243 170.183 251.288C169.955 251.243 170.982 250.926 171.017 250.917ZM185.505 189.245C183.961 189.701 182.416 190.153 180.87 190.602C179.887 190.9 178.899 191.186 177.909 191.455C176.417 191.844 174.908 192.137 173.364 192.205C172.816 192.229 172.272 192.219 171.73 192.185C171.423 192.509 171.101 192.819 170.769 193.121L167.186 197.062V197.062C164.795 199.764 162.487 202.584 160.496 205.597C157.018 210.86 154.476 216.74 153.335 222.947C153.157 223.101 153.04 223.334 153.046 223.658C153.091 226.11 152.35 228.487 152.372 230.933C152.393 233.341 153.292 235.228 155.096 236.812C155.481 237.15 156.119 237.013 156.464 236.674C156.588 236.837 156.983 236.757 156.977 235.938C157.501 235.113 157.924 234.271 158.135 233.286C158.291 232.561 157.738 232.178 157.153 232.189C157.235 231.297 157.347 230.408 157.495 229.521C157.93 226.886 158.627 224.318 159.641 221.843C160.534 219.666 161.669 217.705 162.91 215.72C162.924 215.693 162.954 215.68 162.987 215.668L163.245 215.253V215.253C163.28 215.195 163.373 215.184 163.48 215.191C163.558 215.071 163.634 214.949 163.715 214.829C163.792 214.707 163.906 214.718 163.981 214.791C164.14 214.725 164.473 214.848 164.576 214.889C164.752 214.965 164.823 215.074 164.717 215.247C164.698 215.278 164.679 215.309 164.66 215.336C164.855 215.38 165.051 215.449 165.208 215.524C165.713 215.543 166.476 215.869 166.383 216.025C166.181 216.329 165.988 216.638 165.799 216.951C166.035 217.06 166.197 217.179 166.154 217.252C165.328 218.514 164.592 219.826 163.947 221.191C163.453 222.212 163.029 223.259 162.675 224.333C162.135 225.86 161.724 227.405 161.395 228.975C161.352 229.214 161.311 229.451 161.273 229.688C160.846 232.28 160.656 234.925 160.849 237.548L160.869 237.723C160.987 238.659 161.418 241.145 161.431 241.754C162.062 241.934 162.709 242.068 163.372 242.153C163.496 242.166 163.622 242.175 163.748 242.182C163.811 242.141 163.877 242.104 163.944 242.07C164.478 241.732 165.051 241.455 165.652 241.261C166.057 241.131 166.466 241.037 166.881 240.973L167.06 240.948C167.244 240.92 167.427 240.9 167.614 240.885C167.584 240.782 167.561 240.681 167.534 240.578C167.475 240.553 167.427 240.513 167.413 240.451C167.075 239.294 166.858 238.116 166.761 236.915C166.728 236.285 166.708 235.655 166.696 235.024C166.706 234.502 166.734 233.986 166.772 233.467C166.86 232.017 167.067 230.579 167.376 229.154C168.255 225.087 169.88 221.27 171.522 217.468C172.72 214.692 173.818 211.877 175.081 209.132C176.156 206.795 177.309 204.477 178.584 202.241C179.856 200.01 181.233 197.834 182.772 195.773C183.021 195.443 183.274 195.121 183.532 194.801C185.002 192.909 186.675 191.27 188.43 189.64C188.497 189.577 188.644 189.607 188.773 189.68L189.058 189.425C189.106 189.382 189.154 189.34 189.202 189.299C189.246 189.259 189.311 189.301 189.348 189.34C189.471 189.245 189.595 189.152 189.719 189.059C189.804 188.96 189.892 188.866 189.978 188.768C188.491 188.963 187 189.12 185.505 189.245ZM200.801 168.415C199.568 168.393 198.366 168.576 197.198 168.973C196.709 169.138 196.224 169.318 195.748 169.516C197.054 170.293 198.189 171.385 199.041 172.725C199.962 174.174 197.548 175.309 196.641 173.882C195.765 172.505 194.413 171.572 192.906 171.14C192.638 171.362 192.381 171.595 192.141 171.846C191.833 172.205 191.55 172.584 191.293 172.991C190.734 173.875 190.279 175.003 190.042 176.08C189.978 176.654 189.96 177.237 189.989 177.827C189.997 177.961 190.006 178.098 190.017 178.234C190.252 180.992 191.508 183.489 193.267 185.581L193.32 185.572V185.572C194.393 184.71 195.541 183.939 196.743 183.262C197.645 182.383 198.595 181.55 199.587 180.771C201.698 179.114 203.99 177.716 206.413 176.605L206.693 176.478C207.264 176.216 207.843 175.971 208.428 175.743L208.779 175.608L208.785 175.607L208.674 175.224V175.224C208.191 173.728 207.332 172.415 206.316 171.241C205.554 170.354 204.491 169.497 203.368 168.862L203.362 168.861C202.874 168.69 202.37 168.566 201.86 168.482L201.668 168.452L200.801 168.415ZM168.43 171.902C165.914 172.119 163.444 172.593 161.007 173.246C159.419 173.7 157.853 174.215 156.306 174.789C155.257 175.172 154.243 175.628 153.259 176.143L154.076 177.24C155.439 179.067 156.823 180.877 158.372 182.555C159.171 183.42 160.014 184.227 160.911 184.987C161.522 185.536 162.175 186.029 162.872 186.465C163.064 186.628 163.265 186.778 163.467 186.922C164.097 187.29 164.759 187.591 165.462 187.812C166.045 188.094 166.642 188.323 167.255 188.508L167.486 188.576L169.589 188.972C169.699 188.983 169.81 188.993 169.922 189.002L170.089 189.014L170.399 189.022L170.601 188.86C170.635 188.833 170.669 188.806 170.704 188.78C170.761 188.735 170.817 188.792 170.839 188.837C170.848 188.854 170.845 188.882 170.836 188.91L171.095 188.703V188.703C171.623 188.813 172.175 188.878 172.755 188.881C173.017 188.883 173.278 188.873 173.538 188.858L173.576 188.874C173.583 188.877 173.589 188.88 173.596 188.884L173.874 188.834V188.834C175.868 188.666 177.81 188.054 179.702 187.347C182.419 186.565 185.131 185.754 187.845 184.963C187.896 184.949 187.921 184.968 187.928 185.005L188.096 184.959V184.959C188.337 184.887 188.7 185.246 188.541 185.43C188.707 185.491 188.875 185.594 189 185.674L189.062 185.657C188.547 184.982 188.111 184.257 187.754 183.486L187.24 182.177V182.177C187.074 181.685 186.934 181.153 186.829 180.622C186.767 180.382 186.712 180.157 186.676 179.957C186.642 179.769 186.61 179.579 186.583 179.39C186.023 179.269 185.459 179.177 184.89 179.116C183.323 179.206 181.758 179.296 180.191 179.389C179.277 179.591 178.369 179.824 177.47 180.093C176.447 180.374 175.43 180.681 174.421 181.011C174.326 181.039 174.129 180.94 173.996 180.807L173.564 180.948V180.948C173.339 181.019 173.014 180.601 173.301 180.452C173.403 180.388 173.505 180.327 173.608 180.267L173.763 180.178L173.67 180.206C173.639 180.214 173.599 180.213 173.551 180.206C173.313 180.282 173.075 180.357 172.839 180.43C172.54 180.524 172.537 180.108 172.734 179.974L172.83 179.917C172.628 179.838 172.413 179.558 172.618 179.416L172.646 179.399C172.743 179.338 172.839 179.285 172.937 179.227C172.923 179.194 172.917 179.163 172.922 179.132L172.5 179.266V179.266C172.461 179.278 172.599 178.968 172.679 178.897L172.694 178.887L172.889 178.786C172.904 178.691 173.036 178.464 173.091 178.436C173.807 178.059 174.476 177.715 175.185 177.415C175.213 177.364 175.249 177.322 175.294 177.303C175.736 177.109 176.186 176.938 176.64 176.78C176.662 176.727 176.688 176.687 176.724 176.678C177.853 176.32 179.005 176.075 180.183 175.942C180.41 175.923 180.637 175.906 180.865 175.894C181.3 175.863 181.739 175.846 182.178 175.85C183.275 175.839 184.364 175.927 185.444 176.117L185.693 176.162C185.964 176.211 186.234 176.264 186.502 176.327C186.546 175.856 186.624 175.387 186.731 174.921C186.744 174.831 186.761 174.745 186.78 174.657L186.498 174.551V174.551C186.463 174.666 186.365 174.768 186.283 174.737C184.238 173.84 182.125 173.166 179.945 172.718C178.716 172.422 177.475 172.207 176.218 172.068C175.588 171.985 174.956 171.921 174.323 171.866C174.011 171.858 173.698 171.85 173.382 171.853C171.729 171.716 170.078 171.732 168.43 171.902ZM229.206 165.133C229.054 165.556 228.893 165.976 228.717 166.393C227.862 168.422 226.751 170.382 225.411 172.158C225.831 172.081 226.253 172.02 226.674 171.984C227.399 171.921 228.12 171.912 228.832 171.954C228.879 171.9 228.937 171.866 228.993 171.892L229.193 171.983V171.983C230.726 172.111 232.211 172.481 233.605 173.085L233.553 172.925C233.544 172.899 233.535 172.872 233.525 172.846C233.488 172.52 233.434 172.196 233.366 171.878C232.765 170.036 231.806 168.413 230.752 166.786C230.732 166.755 230.733 166.709 230.746 166.66C230.266 166.123 229.754 165.612 229.206 165.133ZM226.839 150.22C226.31 150.42 225.791 150.647 225.28 150.905C224.293 151.242 223.359 151.688 222.48 152.24C221.256 152.942 220.086 153.713 218.927 154.514C216.676 156.072 214.631 157.895 212.845 159.969C212.73 160.095 212.621 160.224 212.511 160.352C212.116 160.843 211.737 161.351 211.387 161.877C211.023 162.452 210.657 163.028 210.293 163.606C209.844 164.289 209.3 164.932 208.911 165.652C208.832 165.799 208.769 165.957 208.714 166.113L209.028 166.161V166.161C209.293 166.2 209.336 166.674 209.077 166.651C208.989 166.642 208.905 166.628 208.821 166.611C208.863 166.649 208.894 166.69 208.907 166.728C208.945 166.851 208.88 167.041 208.717 167.025C208.643 167.019 208.568 167.006 208.492 166.99C208.485 167.075 208.484 167.159 208.499 167.238C208.513 167.241 208.527 167.243 208.543 167.243C208.727 167.272 209.101 167.483 209.182 167.658C209.244 167.793 209.151 167.966 208.989 167.952C208.868 167.942 208.747 167.915 208.627 167.883C208.713 167.941 208.785 168.006 208.802 168.071C208.834 168.189 208.761 168.378 208.609 168.366C208.329 168.341 208.093 168.267 207.889 168.158C207.853 168.23 207.794 168.292 207.737 168.286L207.629 168.273V168.273C207.661 168.294 207.692 168.317 207.722 168.34L207.766 168.373C208.631 169.022 209.42 169.771 210.096 170.61C210.114 170.579 210.139 170.55 210.17 170.515C210.37 170.273 210.578 170.034 210.788 169.802L210.85 169.724V169.724L210.914 169.646L210.399 169.926L210.408 169.91C210.438 169.853 210.529 169.666 210.575 169.601L210.586 169.586C211.216 168.776 211.932 168.055 212.733 167.428C213.239 166.951 213.785 166.527 214.369 166.153C215.749 165.179 217.188 164.367 218.676 163.588C218.898 163.469 219.119 163.345 219.341 163.228C219.405 163.192 219.423 163.218 219.421 163.267L219.538 163.208V163.208C219.745 163.098 220.191 163.417 220.074 163.625C220.178 163.682 220.281 163.748 220.372 163.81L220.438 163.857L220.498 163.827C220.675 163.735 221.044 163.969 221.282 164.139L221.459 164.269C221.593 164.369 221.859 164.578 221.606 164.724L221.289 164.901V164.901C221.312 164.967 221.294 165.03 221.196 165.088C221.085 165.149 220.978 165.212 220.87 165.275C220.951 165.323 221.031 165.374 221.111 165.426L221.229 165.505C221.369 165.604 221.699 165.82 221.472 165.983L221.444 166.001L221.142 166.175C221.201 166.262 221.207 166.353 221.075 166.431C219.31 167.413 217.609 168.497 215.969 169.676C214.76 170.664 213.441 171.479 212.01 172.115C211.895 172.177 211.593 172.04 211.449 171.874L211.238 171.98C211.203 171.998 211.167 172.015 211.132 172.031L211.096 172.046V172.046C211.513 172.742 211.867 173.514 212.125 174.276C212.151 174.344 212.175 174.416 212.196 174.485C212.485 174.408 212.772 174.334 213.063 174.265C215.074 173.788 217.141 173.479 219.221 173.349C219.955 172.71 220.648 172.028 221.3 171.309C221.498 171.089 221.693 170.864 221.884 170.637C223.023 169.217 224.007 167.676 224.833 166.056C225.596 164.555 226.212 162.981 226.675 161.365C227.072 159.855 227.346 158.311 227.48 156.744C227.604 155.311 227.49 153.959 227.328 152.53C227.317 152.293 227.296 152.059 227.272 151.825L227.252 151.727V151.727L227.24 151.679C227.124 151.189 226.984 150.703 226.839 150.22ZM210.832 171.263C210.775 171.295 210.716 171.328 210.657 171.357C210.708 171.432 210.756 171.505 210.805 171.579L210.809 171.577V171.577L211.021 171.337V171.337C210.964 171.323 210.897 171.297 210.832 171.263ZM225.796 146.572C226.236 146.31 226.586 146.212 226.847 146.278C226.495 146.369 226.145 146.468 225.796 146.572Z" fill="black"/>
<path fill-rule="evenodd" clip-rule="evenodd" d="M230.176 261.41C228.284 261.012 226.493 260.101 225.065 258.779C224.569 258.32 224.363 257.777 224.353 257.248C224.342 256.653 224.589 256.067 224.991 255.631C225.395 255.193 225.949 254.913 226.531 254.898C227.037 254.886 227.576 255.066 228.065 255.553L228.166 255.65C229.018 256.449 230.046 257.045 231.15 257.349C232.213 257.642 233.347 257.662 234.456 257.328C236.567 256.693 237.841 255.257 239.132 253.388C239.291 253.153 239.45 252.911 239.608 252.666C239.698 252.453 239.849 252.3 240.028 252.201C240.228 252.092 240.469 252.052 240.704 252.088C240.93 252.124 241.145 252.23 241.307 252.393C241.46 252.549 241.569 252.756 241.592 253.012C241.746 254.678 241.155 256.297 240.146 257.668C239.025 259.19 237.392 260.399 235.759 261.016C233.961 261.696 232.02 261.797 230.176 261.41V261.41ZM231.923 234.964C234.121 235.806 237.648 238.06 236.061 241.428C234.033 244.512 229.875 242.156 227.849 241.117C226.008 240.361 224.649 243.415 226.404 244.369C240.985 251.536 243.046 233.263 232.667 233.368C231.524 233.38 231.337 234.686 231.923 234.964ZM206.881 228.099C206.606 225.347 210.628 223.978 211.528 226.587C212.334 228.924 212.303 231.212 211.613 233.574C210.954 235.831 208.175 235.34 207.636 233.493C206.912 231.016 207.052 229.811 206.881 228.099ZM238.135 221.168C238.574 220.309 239.312 219.642 240.362 219.752C243.643 220.094 243.53 224.68 242.827 227.031C242.446 228.307 240.578 228.953 239.522 228.083C237.801 226.663 236.514 223.437 238.012 221.457C238.045 221.363 238.084 221.267 238.135 221.168ZM208.292 215.58L208.768 215.405C210.243 214.864 212.089 214.267 213.389 215.294C214.078 215.838 214.494 217.008 213.84 217.768C212.688 219.106 211.118 218.955 209.516 219.342C208.196 219.661 206.955 220.115 205.737 220.716C203.065 222.034 201.036 223.921 198.923 225.973C198.645 226.242 198.25 225.897 198.347 225.575C199.241 222.602 201.527 219.878 203.976 218.025C205.284 217.037 206.749 216.147 208.292 215.58ZM233.131 209.799L233.521 209.808C237.776 209.917 243.413 210.658 246.086 214.327C246.264 214.882 246.208 215.019 246.159 215.11L246.143 215.14C246.103 215.218 246.078 215.319 245.845 215.441C245.774 215.438 245.702 215.433 245.628 215.427C244.696 215.356 243.934 215.164 243.192 214.955L242.386 214.725C241.453 214.462 240.514 214.214 239.543 214.082C237.471 213.801 235.377 213.718 233.291 213.851C232.838 213.879 232.385 213.808 232.002 213.613C231.638 213.428 231.333 213.136 231.14 212.709C230.891 212.157 230.853 211.712 231.068 211.133C231.23 210.698 231.515 210.366 231.871 210.14C232.233 209.91 232.672 209.791 233.131 209.799Z" fill="black"/>
<g clip-path="url(#clip1_84_24559)">
<rect width="322.657" height="369.711" transform="translate(10.1475 122.727) rotate(-10.5294)" fill="#E7ECED"/>
<path fill-rule="evenodd" clip-rule="evenodd" d="M301.586 318.962C294.295 301.311 277.899 289.611 258.09 285.946C254.163 284.595 249.114 276.607 244.044 275.915C243.232 275.804 244.815 277.595 244.394 277.798C242.895 278.521 241.133 278.895 239.101 277.668C235.469 275.476 232.986 267.561 230.411 264.254C216.829 246.812 193.279 259.002 193.901 280.958C191.853 282.912 188.806 284.863 186.496 286.56C184.118 288.306 182.387 291.788 179.898 293.381C177.676 294.802 173.589 294.848 171.326 296.147C160.918 302.124 152.404 308.807 146.867 320.171C145.7 322.568 144.426 325.484 143.404 327.876C137.659 337.652 134.336 348.03 131.542 359.021C123.982 391.162 126.538 424.719 129.296 457.323C130.409 462.91 129.581 479.131 135.575 480.795C135.31 481.196 135.556 481.858 136.164 481.739C150.07 479.009 164.202 477.673 178.369 477.548C185.205 477.488 192.085 477.87 198.875 476.88C212.851 474.183 226.358 469.245 240.745 468.868C257.545 465.745 277.871 461.46 296.428 457.268C313.77 453.349 331.614 451.602 348.312 445.424C349.638 444.954 349.995 443.164 349.487 442.023C346.091 435.022 343.686 427.613 341.147 420.273C340.473 415.387 339.129 410.406 336.499 406.228C326.159 376.643 314.534 347.502 301.586 318.962Z" fill="white"/>
<path fill-rule="evenodd" clip-rule="evenodd" d="M303.39 360.04C303.354 361.899 303.171 363.786 302.799 365.61C302.441 367.369 301.717 369.021 301.331 370.766C301.279 371.001 301.159 371.194 301.001 371.354L301.139 371.783V371.783L301.273 372.213C302.168 375.119 303.103 378.008 303.989 380.915L304.427 382.37C306.235 388.447 308.417 394.422 310.371 400.455C312.283 406.362 314.21 412.267 316.191 418.153C318.234 424.221 320.293 430.277 322.5 436.289C323.431 438.828 324.382 441.361 325.352 443.888L326.098 445.822C330.112 446.032 332.158 451.195 328.613 453.9C327.003 455.124 324.682 455.333 322.957 454.2C321.164 453.019 320.611 450.39 319.889 448.473L319.206 446.693C314.086 433.309 309.273 419.703 305.629 405.842C304.689 402.263 303.791 398.673 302.97 395.065C302.196 391.672 301.627 388.241 300.939 384.832L300.748 383.903C299.989 380.273 299.38 376.62 298.797 372.957C298.726 372.511 298.663 372.063 298.602 371.612C298.446 371.485 298.32 371.323 298.249 371.157L298.156 370.937C297.921 370.371 297.935 369.655 298.309 369.149C298.043 366.629 297.838 364.101 297.447 361.607C297.415 361.402 297.709 361.353 297.763 361.548C298.32 363.63 299.043 365.686 299.766 367.74C301.568 365.641 302.613 362.54 303.1 360.016C303.135 359.833 303.395 359.848 303.39 360.04ZM234.892 270.631C235.543 272.174 236.507 273.49 237.689 274.66C238.253 275.22 238.869 275.724 239.568 276.111C240.167 276.442 240.811 276.611 241.433 276.88C242.214 276.605 243.111 276.753 243.785 277.241L243.535 276.391C243.455 276.117 243.908 275.975 244.012 276.236C248.746 288.108 253.266 300.027 257.502 312.083L259.367 317.409L261.119 322.408C264.034 330.739 266.905 339.075 269.473 347.536C272.897 358.827 276.124 370.186 279.063 381.616C282.02 393.127 284.674 404.702 287.192 416.318C287.825 419.246 288.464 422.171 289.101 425.098L289.043 421.467C288.984 417.836 288.912 414.203 288.755 410.574C288.198 397.582 287.265 384.568 285.592 371.672C284.063 359.87 281.634 347.995 276.547 337.166C275.266 334.442 273.827 331.793 272.211 329.253C270.642 326.782 268.719 324.578 267.076 322.161C265.167 319.349 264.227 316.535 264.305 313.11C264.374 310.127 264.93 307.228 264.571 304.238C263.906 298.685 261.134 293.703 257.72 289.37C256.82 288.228 255.887 287.11 254.925 286.008C252.016 282.679 248.849 279.539 245.616 276.565C245.442 276.407 245.699 276.148 245.879 276.271C248.675 278.167 251.685 279.983 254.284 282.139C255.548 283.187 256.791 284.265 257.987 285.387C268.79 285.191 279.007 290.046 286.764 297.523C295.566 306.008 301.287 317.126 306.056 328.236C311.358 340.583 316.227 353.131 321.245 365.597C326.439 378.495 331.619 391.396 336.829 404.288C339.417 410.688 342.005 417.089 344.59 423.492C345.901 426.734 347.243 429.962 348.618 433.18C349.324 434.829 350.056 436.47 350.735 438.13C351.499 440.003 351.356 441.318 350.304 442.993C349.917 443.614 349.147 443.749 348.491 443.579L348.286 443.525L348.088 443.471C347.273 443.243 346.617 442.971 346.001 442.241C345.323 441.439 345.057 440.46 344.696 439.495C344.031 437.72 343.369 435.944 342.704 434.167C341.709 431.508 340.673 428.864 339.628 426.224L334.395 413.028C333 409.51 331.603 405.992 330.203 402.477C325.2 389.904 320.194 377.335 315.189 364.766C310.383 352.697 305.846 340.489 300.711 328.556L300.42 327.884L300.126 327.214C295.609 316.944 290.155 307.211 282.07 299.3C275.849 293.217 267.855 288.238 259.219 286.571C259.937 287.282 260.637 288.013 261.314 288.765C265.566 293.489 269.124 299.374 269.745 305.825C270.048 308.977 269.436 312.243 270.129 315.349C270.748 318.106 272.919 320.226 274.555 322.421C278.267 327.396 281.298 332.853 283.664 338.589C288.414 350.107 290.698 362.443 292.091 374.773C293.606 388.176 294.271 401.734 294.665 415.212C294.866 422.125 294.711 429.047 294.891 435.952C294.978 439.358 294.874 442.791 294.857 446.198L294.85 447.826C294.844 448.73 294.832 449.632 294.791 450.53L294.763 451.068L294.78 451.16C294.892 451.796 294.816 452.353 294.615 452.824C294.461 454.121 294.208 455.405 293.791 456.671C293.576 457.318 293.167 457.734 292.679 457.95C292.384 459.221 291.387 460.342 289.996 460.596L271.695 463.925C261.064 465.857 250.429 467.762 239.796 469.677C237.113 470.162 234.425 470.609 231.734 471.037C229.211 471.434 226.748 471.58 224.207 471.728C221.338 471.898 219.45 470.194 219.348 467.314C219.325 466.679 219.311 466.046 219.292 465.414C218.768 465.702 218.087 465.739 217.556 465.384L217.058 465.05C216.366 464.58 215.738 464.109 215.224 463.407C214.694 462.685 214.228 461.904 213.74 461.157C212.687 459.549 211.653 457.932 210.636 456.303C208.601 453.046 206.563 449.775 204.618 446.463C200.768 439.904 197.19 433.185 193.891 426.33C188.007 414.101 183.042 401.443 178.989 388.495L178.021 385.409L177.737 384.497C176.18 379.476 174.703 374.357 173.991 369.19C173.543 365.956 173.439 362.631 174.081 359.414C174.673 356.446 175.94 353.765 177.103 350.994L177.236 350.674L177.368 350.348C178.37 347.841 179.063 345.286 178.613 342.552C178.157 339.777 176.852 337.236 175.471 334.816L175.128 334.219L174.899 333.825C171.99 328.832 168.831 323.964 168.468 318.011C167.936 309.243 171.846 301.369 177.39 294.827C171.793 297.058 166.463 300.401 161.922 304.228C156.56 308.75 151.998 314.251 148.287 320.192C141.273 331.42 137.132 344.097 134.201 356.937C131.131 370.374 129.563 384.147 129.009 397.909C128.453 411.749 128.936 425.615 130.071 439.415C130.634 446.284 131.348 453.142 132.155 459.986C132.57 463.493 133.042 466.995 133.417 470.503C133.791 474.008 134.323 477.539 134.105 481.06C134.002 482.7 131.376 483.353 130.771 481.679C129.423 477.941 128.858 473.921 128.309 469.984L128.259 469.627C127.709 465.706 127.213 461.778 126.759 457.842C125.83 449.798 125.087 441.731 124.573 433.648C122.763 405.275 123.806 376.521 131.209 348.938C134.693 335.947 139.858 322.993 148.438 312.486C152.523 307.486 157.38 303.199 162.829 299.736C167.702 296.637 172.866 294.639 178.462 293.602C180.869 290.929 183.534 288.495 186.246 286.334C186.41 286.203 186.643 286.402 186.521 286.581C186.456 286.671 186.395 286.763 186.331 286.851C186.676 286.81 187.057 286.903 187.434 287.177C188.756 288.131 189.958 289.407 191.072 290.758C192.638 292.109 194.155 293.523 195.715 294.857C198.212 296.994 200.75 299.086 203.31 301.153C207.609 304.628 212.01 308.004 216.536 311.187L217.291 311.716C219.634 313.347 222.075 315.367 224.7 316.515L224.84 316.575C225.943 317.033 226.662 317.02 227.323 315.906C227.923 314.893 228.37 313.764 228.844 312.682L228.954 312.433C231.386 306.972 233.541 301.378 235.376 295.691C236.213 293.102 236.981 290.49 237.683 287.864L237.891 287.076C238.27 285.63 238.706 284.199 238.967 282.734C239.028 282.391 239.085 282.048 239.141 281.708C237.167 280.881 235.34 278.637 234.483 276.773C233.591 274.838 233.464 272.705 234.034 270.678C234.142 270.296 234.739 270.275 234.892 270.631ZM163.445 369.292C164.637 377.059 165.926 384.816 166.997 392.599L167.361 395.257C168.045 395.783 168.513 396.45 168.434 397.5C168.402 397.902 168.161 398.305 167.806 398.504L168.142 400.975C169.652 412.094 171.064 423.208 171.952 434.414C173.065 448.438 173.948 462.481 174.833 476.521C174.957 478.51 173.892 480.303 171.736 480.409C169.555 480.516 168.348 478.825 168.269 476.842C167.958 469.065 167.605 461.29 167.117 453.52L166.561 444.667C165.87 433.601 165.21 422.53 164.761 411.453C164.574 406.824 164.412 402.192 164.253 397.56L163.959 397.297C162.755 396.217 161.524 395.172 160.302 394.115C157.953 392.078 155.633 390.055 153.423 387.877C153.312 387.767 153.454 387.55 153.597 387.622C156.38 388.975 159.054 390.477 161.748 392.009L164.107 393.356C163.833 385.352 163.547 377.348 163.132 369.35C163.121 369.15 163.412 369.081 163.445 369.292ZM184.898 288.857C183.684 290.518 182.432 292.156 181.205 293.812L180.756 294.421L180.31 295.031C178.164 297.988 176.145 301.026 174.614 304.369C171.802 310.507 170.757 317.547 173.577 323.879C175.915 329.123 179.864 333.536 181.723 339.012C182.654 341.754 182.983 344.624 182.416 347.483C181.837 350.4 180.538 353.049 179.438 355.788C177.049 361.741 177.675 367.67 179.157 373.776C180.706 380.153 182.643 386.46 184.743 392.674C188.996 405.264 194.162 417.546 200.18 429.395C203.193 435.329 206.516 441.067 209.832 446.832C211.483 449.701 213.3 452.465 215.153 455.207C216.129 456.65 217.12 458.081 218.122 459.507C217.45 457.355 217.03 455.095 216.495 452.931C215.728 449.831 214.912 446.746 214.115 443.654C212.496 437.381 210.922 431.092 209.391 424.796C203.938 402.342 198.807 379.808 194.651 357.076C192.573 345.708 190.693 334.304 189.072 322.862C188.308 317.475 187.759 312.053 187.168 306.64L187.04 305.481C186.505 300.624 186.037 295.743 185.882 290.859C185.576 290.412 185.297 289.953 185.064 289.473L184.979 289.292L185.016 289.291C184.955 289.149 184.917 289.003 184.898 288.857ZM193.998 266.969C194.004 266.832 194.193 266.809 194.249 266.923C195.598 269.562 195.876 272.69 195.683 275.633C195.581 277.227 195.308 278.806 194.911 280.354L194.772 280.896C194.431 282.214 194.025 283.583 193.061 284.545C192.659 284.946 191.839 285.119 191.316 284.869L191.048 284.734C191.003 284.711 190.959 284.688 190.916 284.663C190.42 284.382 190.059 283.626 190.16 283.064C190.419 281.614 191.393 280.404 191.97 279.048C192.48 277.844 192.898 276.595 193.202 275.322C193.854 272.568 193.857 269.773 193.998 266.969Z" fill="black"/>
<path fill-rule="evenodd" clip-rule="evenodd" d="M194.781 157.396C207.283 155.073 223.411 158.348 224.709 158.232L224.744 158.227C225.415 158.103 228.408 159.614 233.724 162.76L230.567 173.345L231.039 173.653C233.299 175.136 235.248 176.509 236.786 177.59C249.345 186.422 259.118 228.444 259.378 243.684C259.638 258.924 257.719 274.241 236.273 278.227C214.828 282.213 188.571 273.748 184.149 270.414C181.201 268.191 178.21 267.419 175.177 268.099C175.022 267.964 174.868 267.829 174.715 267.695L174.254 267.714C169.913 267.888 166.731 267.626 164.709 266.931C160.757 265.572 154.85 255.664 154.415 253.321C153.984 251.001 144.979 235.215 144.53 233.451L144.519 233.402C144.241 231.909 135.3 226.471 134.895 224.291C134.49 222.112 132.969 222.531 133.087 214.563L133.116 212.224C133.241 203.74 133.942 189.602 145.119 181.437C157.402 172.465 182.153 159.744 194.781 157.396Z" fill="white"/>
<path fill-rule="evenodd" clip-rule="evenodd" d="M142.981 181.52C148.379 173.129 184.505 154.988 204.256 153.739L204.849 153.706C206.427 153.615 208.001 153.629 209.575 153.753C214.632 153.984 219.956 154.768 224.492 156.888C228.271 158.609 239.527 160.475 237.558 167.181C239.117 169.151 240.048 171.77 239.669 174.066C239.709 174.827 239.608 175.554 239.446 176.318C242.584 179.495 245.298 183.243 247.602 186.859C252.189 196.186 255.808 206.107 257.925 216.099C262.306 235.015 264.45 258.186 250.138 273.605C241.56 283.284 225.896 286.467 212.822 278.873C212.042 278.235 208.654 276.75 209.591 276.205C209.948 276.465 210.313 276.715 210.682 276.959C210.661 276.928 210.652 276.895 210.651 276.858L210.307 276.646C209.658 276.236 208.802 275.626 209.647 275.619C209.691 275.655 209.737 275.684 209.783 275.718C209.976 275.79 210.123 275.856 210.24 275.916L210.3 275.948L210.281 275.935C209.716 275.52 209.339 275.06 210.104 275.256L210.205 275.284C210.58 275.556 210.956 275.812 211.337 276.059C211.325 276.024 211.324 275.987 211.336 275.944L210.98 275.708C210.632 275.474 210.676 275.464 210.777 275.204C209.987 274.442 211.254 274.746 211.4 275.074C212.099 274.765 212.998 276.02 213.5 276.1C237.118 288.151 264.484 268.476 255.768 224.281L255.599 223.416C252.825 209.282 248.929 194.95 240.691 183.219C239.893 182.09 239.032 181.008 238.116 179.976C237.471 179.194 236.796 178.441 236.087 177.717C234.508 177.88 232.919 177.881 231.324 177.721C230.779 177.686 230.239 177.636 229.693 177.561C222.263 179.366 215.007 181.176 207.559 182.997L205.235 183.581C198.935 185.176 192.462 187.059 188.05 191.96C183.669 196.491 184.963 203.578 181.374 208.325C175.989 213.655 176.645 217.437 176.604 223.824C177.556 228.456 182.034 234.611 176.485 237.666C177.747 238.904 176.229 238.478 176.027 238C176.016 238.005 176.006 238.01 175.997 238.011C177.194 239.499 175.693 238.701 175.479 238.191C175.406 238.185 175.327 238.147 175.244 238.091C176.408 239.372 174.772 238.627 174.809 238.348C172.584 236.008 168.946 236.257 166.566 237.429C166.553 237.53 166.443 237.559 166.364 237.521C156.12 241.82 162.983 263.415 173.525 259.245C173.975 259.062 174.006 259.289 174.103 259.293C173.727 258.676 174.489 258.814 174.508 258.955L174.551 258.945C174.585 258.935 174.57 258.934 174.597 258.938C174.101 257.626 175.841 259.337 175.748 259.438C175.785 259.405 175.83 259.383 175.871 259.369L175.799 259.249C175.458 258.683 175.525 258.933 175.462 258.584C175.21 258.185 175.233 258.376 175.221 258.088C175.736 257.509 176.178 258.893 176.398 258.959C175.964 258.543 176.165 258.099 176.539 258.3C179.966 263.026 184.054 267.306 188.88 270.378C189.396 270.65 189.916 270.914 190.449 271.156C192.482 272.355 195.348 272.837 197.236 273.883C197.241 273.905 197.235 273.935 197.223 273.966L197.267 273.993V273.993L197.312 274.022L197.932 274.19C198.126 274.301 198.307 274.432 198.473 274.584C198.646 274.722 198.806 274.88 198.948 275.053C199.044 275.278 198.945 275.398 198.703 275.338C198.599 275.323 198.494 275.302 198.39 275.284C198.397 275.291 198.4 275.297 198.407 275.301C198.448 275.344 198.759 275.806 198.494 275.771L198.462 275.765C198.315 275.74 198.168 275.71 198.025 275.681C198.221 275.85 198.405 276.038 198.568 276.196C198.731 276.313 198.846 276.465 198.915 276.649C198.929 276.756 198.879 276.812 198.77 276.817C198.598 276.794 198.429 276.768 198.258 276.739L198.32 276.817C198.474 277.018 198.703 277.36 198.396 277.289C198.138 277.258 197.888 277.215 197.636 277.164C197.623 277.207 197.587 277.228 197.502 277.206C196.707 277.079 195.926 276.889 195.165 276.635C194.477 276.306 193.785 275.987 193.095 275.661C192.459 275.424 191.835 275.144 191.227 274.812C187.272 273.187 183.641 270.863 180.589 268.09C177.147 272.406 168.315 270.536 162.725 268.697C157.776 267.045 155.157 262.775 153.78 257.904C151.592 251.407 145.716 250.136 143.374 235.425C143.367 235.429 143.358 235.431 143.347 235.433C143.138 235.411 142.931 235.369 142.73 235.302C142.527 235.247 142.331 235.174 142.142 235.076L141.886 234.832V234.832C141.769 234.793 141.663 234.749 141.579 234.701L141.55 234.756C141.458 234.922 141.497 234.691 141.496 234.647L141.053 234.231C140 233.24 138.84 232.124 137.898 231.235L137.882 231.281C137.871 231.316 137.866 231.34 137.876 231.349C135.613 229.114 133.358 226.326 132.333 223.411C131.352 221.202 131.125 218.779 131.207 216.548C131.874 208.666 135.47 190.441 142.981 181.52ZM210.72 276.224L210.59 276.145L210.711 276.25C210.774 276.304 210.838 276.352 210.935 276.394C210.926 276.376 210.922 276.356 210.92 276.333C210.855 276.301 210.788 276.264 210.72 276.224ZM204.871 157.523C191.562 158.831 179.215 164.113 167.365 169.93L166.549 170.338C159.819 173.688 152.643 176.911 147.444 182.37C140.247 190.359 137.815 201.394 135.789 211.541C133.791 219.171 136.95 226.77 142.836 230.745C142.449 225.78 142.453 220.889 142.961 215.944C143.113 215.158 142.851 214.959 143.454 214.748C146.739 227.208 143.858 237.401 155.776 250.678C161.052 257.006 157.425 263.029 169.309 264.667L169.633 264.726C172.128 265.173 174.804 265.394 176.996 264.478L176.73 264.183C176.457 263.879 176.363 263.724 176.639 263.521C176.628 263.506 176.614 263.491 176.599 263.474C176.267 263.056 175.942 262.63 175.628 262.198C175.542 262.245 175.454 262.285 175.363 262.328C175.446 262.431 175.475 262.544 175.31 262.615C174.734 262.941 174.118 263.143 173.463 263.223L173.323 263.239C172.583 263.33 172.098 263.282 171.663 263.235C171.523 263.238 171.382 263.241 171.242 263.238C169.863 263.19 168.321 262.704 167.275 262.132C155.834 258.175 153.183 237.961 165.587 233.698C163.506 221.047 165.546 198.672 173.258 184.815C180.194 172.098 203.842 162.75 221.228 161.265C221.492 161.301 221.756 161.338 222.021 161.376C224.698 161.12 227.427 161.828 230.164 161.883C228.008 160.816 225.685 160.27 223.324 159.878C218.417 158.001 213.095 157.481 208.024 157.359C206.967 157.298 205.917 157.352 204.871 157.523ZM166.885 243.93C167.501 243.43 167.49 243.804 167.628 243.671C172.486 242.351 178.609 245.683 182.036 248.773C181.86 249.039 181.146 248.479 181.023 248.392C181.012 248.408 180.997 248.422 180.982 248.431L181.079 248.525C182.494 249.922 179.928 248.446 179.648 248.095C179.615 248.122 179.581 248.139 179.538 248.139C179.745 248.279 180.365 248.628 180.517 248.931L180.681 249.023C182.236 249.922 182.285 250.807 180.459 249.459C180.509 249.528 180.536 249.595 180.522 249.655L180.581 249.681C181.426 250.065 182.313 251.409 180.47 250.202C180.836 251.266 178.73 249.47 178.678 249.495C175.28 247.718 170.493 246.265 166.718 246.652L166.587 246.661C165.888 246.7 165.528 246.558 165.684 246.067C164.807 246.023 164.927 245.572 165.327 245.512C164.662 245.232 165.126 244.76 165.497 244.841C165.139 244.23 166.168 244.49 166.238 244.383C166.589 243.532 166.84 244.141 166.885 243.93ZM148.997 205.248C151.205 203.939 158.687 205.237 158.767 208.784C158.581 209.636 157.566 210.293 156.711 209.99L155.577 209.501C153.605 208.652 151.832 207.915 149.759 207.241C148.639 206.922 147.997 205.924 148.997 205.248ZM161.527 197.627L160.501 197.201C154.962 194.886 147.071 191.284 160.393 194.052C161.917 194.395 163.858 194.405 164.878 195.606C166.548 197.859 163.396 198.617 161.527 197.627ZM159.386 183.017C158.71 181.586 163.969 182.435 165.49 182.634L165.724 182.676C167.217 182.937 168.908 183.122 169.967 184.172C171.255 185.656 169.338 186.369 167.972 185.845C165.151 184.668 162.163 183.94 159.386 183.017ZM170.622 173.679C167.283 171.163 175.25 172.687 176.513 173.286L176.549 173.304C177.488 173.734 177.553 175.025 176.842 175.54C174.631 175.995 172.654 174.448 170.622 173.679ZM182.633 168.01C177.632 165.658 183.724 166.086 185.974 166.954C187.575 167.912 186.539 170.225 182.633 168.01Z" fill="black"/>
<path fill-rule="evenodd" clip-rule="evenodd" d="M222.851 245.698C223.935 242.837 228.435 248.515 228.99 249.532C229.482 250.433 229.871 251.377 230.161 252.352C231.423 252.398 232.68 252.165 233.877 251.696C235.656 250.999 236.599 249.798 238.043 248.648C239.041 247.854 240.565 248.285 241.322 249.154C242.213 250.177 242.003 251.45 241.271 252.472C239.884 254.41 236.63 255.4 234.345 255.379C233.035 255.367 231.79 255.108 230.639 254.609C230.656 254.739 230.676 254.869 230.689 254.999L230.711 255.225C230.876 257.058 230.803 259.415 229.622 260.847C227.685 263.196 224.167 260.024 226.039 257.69L226.098 257.619C227.275 256.242 227.019 253.181 226.636 251.54C226.387 250.469 225.987 249.412 225.455 248.446L225.346 248.255C225.19 247.983 223.559 245.435 223.22 245.861L223.204 245.884C223.074 246.114 222.762 245.932 222.851 245.698ZM232.627 228.874C234.974 229.764 238.743 232.157 237.065 235.758C234.916 239.057 230.474 236.558 228.31 235.456C226.343 234.656 224.908 237.92 226.783 238.933C242.357 246.528 244.478 227.018 233.413 227.168C232.195 227.184 232.001 228.58 232.627 228.874ZM207.907 221.207C209.9 220.458 212.106 220.579 214.036 221.468L214.182 221.537C216.049 222.433 218.279 224.202 217.722 226.45C217.498 227.352 216.389 227.693 215.6 227.449C214.286 227.044 213.782 225.539 212.555 224.883C211.548 224.345 210.29 224.139 209.181 224.451C206.575 225.184 205.431 228.102 205.027 230.509C204.975 230.817 204.573 231.007 204.35 230.729C201.734 227.46 204.373 222.535 207.907 221.207ZM240.662 213.702C244.549 212.643 249.931 215.878 249.666 220.24C249.54 222.333 246.563 222.827 245.675 220.982C245.186 219.967 245.039 219.015 244.105 218.27C243.334 217.655 242.352 217.397 241.395 217.643C240.339 217.914 239.452 218.631 238.843 219.522C238.292 220.326 238.072 221.394 237.483 222.124C237.338 222.304 237.108 222.356 236.909 222.231C235.496 221.343 235.789 218.891 236.338 217.588C237.124 215.722 238.692 214.239 240.662 213.702ZM199.015 215.211C201.131 212.498 205.33 209.477 208.95 209.946C211.031 210.215 212.475 213.221 210.47 214.631C208.148 216.265 205.134 216.336 202.774 218.02C201.783 218.728 200.881 219.549 200.298 220.617C199.838 221.458 199.412 222.533 198.629 223.114C198.424 223.267 198.118 223.326 197.899 223.155C195.615 221.37 197.639 216.976 199.015 215.211ZM234.555 205.071C236.038 204.341 237.776 204.027 239.418 204.008C241.059 203.988 242.795 204.347 244.271 205.067L244.443 205.152C246.058 205.956 248.037 207.196 248.298 209.105C248.516 210.699 247.054 212.076 245.465 211.514C244.171 211.057 243.369 209.806 242.212 209.089C241.257 208.498 240.188 208.09 239.088 207.87C237.867 207.625 236.688 207.623 235.464 207.829C234.521 207.988 233.633 208.473 232.729 208.743C232.834 208.884 232.092 208.947 231.649 208.886C231.315 208.812 231.24 208.421 231.3 208.147C231.598 206.79 233.388 205.645 234.555 205.071Z" fill="black"/>
</g>
</g>
<path d="M100.263 481.654C97.8393 482.094 95.3085 481.132 93.7899 479.19C92.9544 478.121 92.5924 476.899 92.355 475.595C92.0728 474.045 91.7906 472.495 91.5085 470.945C90.979 468.038 90.4498 465.131 89.9204 462.223C89.1693 458.098 88.4182 453.973 87.667 449.847C86.7195 444.643 85.7721 439.44 84.8246 434.236C83.7063 428.094 82.5879 421.952 81.4696 415.81C80.2058 408.869 78.942 401.928 77.6782 394.987C76.2944 387.387 74.9106 379.786 73.5268 372.186C72.0527 364.09 70.5787 355.994 69.1045 347.898C67.5571 339.399 66.0096 330.9 64.4622 322.402C62.8755 313.687 61.2888 304.973 59.7023 296.259C58.0926 287.418 56.483 278.578 54.8734 269.737C53.2708 260.936 51.6681 252.133 50.0655 243.331C48.4952 234.707 46.9249 226.083 45.3548 217.459C43.8424 209.153 42.33 200.847 40.8176 192.54C39.3885 184.691 37.9594 176.842 36.5302 168.993C35.2097 161.741 33.8893 154.489 32.5688 147.236C31.3825 140.72 30.1962 134.205 29.0099 127.69C27.9831 122.05 26.9563 116.411 25.9296 110.772C25.0879 106.149 24.246 101.526 23.4043 96.9028C22.7745 93.4437 22.1446 89.9838 21.5147 86.5247C21.1185 84.3483 20.7224 82.1727 20.3261 79.9964C20.1867 79.231 20.0319 78.4668 19.9085 77.6985C19.5141 75.2569 20.4749 72.7504 22.4507 71.2449C23.6106 70.3612 24.9224 70.0534 26.3138 69.8001C28.5325 69.3961 30.752 68.992 32.9707 68.588C37.016 67.8515 41.0614 67.1149 45.1068 66.3783C50.6838 65.3629 56.2609 64.3475 61.8387 63.3319C68.6533 62.0911 75.4678 60.8503 82.2824 59.6096C90.0402 58.197 97.7981 56.7845 105.555 55.3721C113.961 53.8416 122.368 52.311 130.774 50.7803C139.535 49.1853 148.295 47.5903 157.056 45.9951C165.851 44.3937 174.646 42.7923 183.442 41.1909C192.028 39.6275 200.615 38.0641 209.201 36.5007C217.238 35.0375 225.274 33.5743 233.311 32.111C240.549 30.793 247.787 29.4751 255.026 28.1571C261.148 27.0424 267.27 25.9279 273.392 24.8131C278.103 23.9554 282.814 23.0976 287.525 22.2398C290.531 21.6925 293.537 21.1451 296.543 20.5978C297.634 20.3991 298.727 20.1603 299.826 20.0056C302.278 19.661 304.78 20.7291 306.219 22.7477C306.967 23.798 307.27 24.971 307.495 26.209C307.788 27.8156 308.08 29.4223 308.373 31.0289C308.912 33.9874 309.45 36.9466 309.989 39.905C310.746 44.0628 311.503 48.2206 312.26 52.3776C313.211 57.6019 314.163 62.8269 315.114 68.0513C316.238 74.223 317.361 80.3948 318.485 86.5666C319.753 93.5326 321.022 100.499 322.29 107.465C323.678 115.085 325.065 122.705 326.453 130.326C327.934 138.461 329.415 146.596 330.896 154.731C332.446 163.242 333.995 171.752 335.545 180.262C337.137 189.008 338.73 197.753 340.322 206.5C341.932 215.341 343.542 224.183 345.151 233.024C346.753 241.822 348.355 250.619 349.957 259.417C351.525 268.032 353.094 276.645 354.662 285.26C356.172 293.55 357.681 301.841 359.191 310.132C360.612 317.938 362.034 325.745 363.455 333.551C364.767 340.759 366.08 347.966 367.392 355.174C368.573 361.662 369.754 368.149 370.936 374.637C371.957 380.244 372.977 385.851 373.998 391.457C374.833 396.043 375.668 400.629 376.503 405.215C377.127 408.64 377.751 412.065 378.374 415.491C378.761 417.617 379.148 419.741 379.535 421.867C379.68 422.663 379.858 423.46 379.963 424.262C380.283 426.72 379.179 429.216 377.143 430.63C375.99 431.431 374.71 431.684 373.368 431.928C371.07 432.347 368.773 432.765 366.474 433.183C362.362 433.932 358.25 434.681 354.137 435.43C348.523 436.452 342.909 437.474 337.294 438.496C330.46 439.741 323.626 440.985 316.792 442.229C309.007 443.647 301.222 445.064 293.437 446.482C285.014 448.015 276.591 449.549 268.167 451.083C259.4 452.679 250.632 454.275 241.865 455.872C233.048 457.477 224.231 459.083 215.414 460.688C206.842 462.249 198.27 463.809 189.698 465.37C181.665 466.833 173.631 468.295 165.598 469.758C158.399 471.069 151.2 472.38 144.001 473.691C137.929 474.796 131.858 475.901 125.787 477.007C121.138 477.853 116.49 478.7 111.841 479.546C108.909 480.08 105.977 480.614 103.046 481.147C102.118 481.316 101.19 481.485 100.263 481.654Z" stroke="#3273E3" stroke-width="1.5" stroke-miterlimit="10" stroke-linecap="round" stroke-linejoin="round"/>
<defs>
<clipPath id="clip0_84_24559">
<rect x="18.6074" y="71.0927" width="292" height="419" rx="8" transform="rotate(-10.3191 18.6074 71.0927)" fill="white"/>
</clipPath>
<clipPath id="clip1_84_24559">
<rect width="322.657" height="369.711" fill="white" transform="translate(10.1475 122.727) rotate(-10.5294)"/>
</clipPath>
</defs>
</svg>
