<svg width="240" height="275" viewBox="0 0 240 275" fill="none" xmlns="http://www.w3.org/2000/svg">
<g clip-path="url(#clip0_81_21032)">
<rect width="240" height="275" fill="#E7ECED"/>
<path fill-rule="evenodd" clip-rule="evenodd" d="M170.48 181.122C168.645 180.468 166.877 179.712 165.266 178.601C160.621 175.142 157.593 169.938 154.732 165.007C150.701 157.835 147.83 150.193 145.845 142.221C144.992 138.796 144.702 134.824 142.764 131.788C138.372 125.429 125.491 126.253 118.651 127.369C114.071 128.18 113.124 133.308 112.084 137.102C111.218 140.255 110.651 143.443 110.175 146.674C109.042 147.419 107.764 148.024 106.545 148.551C93.2653 152.625 90.9313 160.177 85.8589 171.843C77.2918 188.8 54.045 195.439 50.5335 215.506C48.271 228.755 54.7048 241.219 61.3379 252.233C67.5154 264.263 76.1396 270.037 89.8739 267.195C102.756 264.304 115.136 259.468 127.792 255.731C133.921 254.224 140.041 250.302 146.489 251.669C159.774 254.654 173.424 256.058 187.04 255.67C206.156 256.444 206.153 238.089 204.191 223.875C202.817 201.755 191.664 187.551 170.48 181.122V181.122Z" fill="white"/>
<path fill-rule="evenodd" clip-rule="evenodd" d="M171.757 213.13C173.355 214.187 174.698 215.789 175.777 217.476C171.274 217.007 166.779 216.467 162.295 215.852C162.882 215.476 163.474 215.109 164.08 214.763C166.292 213.516 169.288 211.497 171.757 213.13ZM96.9503 226.445C96.1253 226.122 95.806 224.863 95.4845 224.142C94.4763 221.88 93.5562 219.58 92.599 217.295C96.2336 216.259 99.7681 215.109 103.533 214.557C107.582 213.963 111.69 213.819 115.776 213.953C124.052 214.223 132.252 215.576 140.388 217.027C148.516 218.476 156.642 219.868 164.827 220.961C172.845 222.032 180.888 222.815 188.947 223.503C190.513 223.637 193.123 224.2 194.382 222.967C195.379 221.991 195.412 220.191 194.164 219.397C193.387 218.902 192.261 218.895 191.374 218.781C190.256 218.637 189.133 218.541 188.008 218.467C187.55 218.436 187.092 218.408 186.633 218.381C190.313 216.993 194.156 216.236 198.145 216.447C198.371 217.818 199.387 219.228 199.944 220.359C200.915 222.333 201.672 224.331 202.169 226.477C203.208 230.964 203.254 235.62 202.96 240.196C202.691 244.012 202.111 248.232 199.12 250.934C196.855 252.98 193.659 253.737 190.695 253.976C187.249 254.252 183.75 253.957 180.333 253.495C175.541 252.846 170.726 251.989 166.028 250.84C156.928 248.615 148.206 245.075 140.159 240.275C136.235 237.934 132.49 235.3 128.512 233.049C124.459 230.754 120.145 228.974 115.616 227.868C110.548 226.631 105.249 226.103 100.04 226.408C99.1356 226.461 97.8295 226.789 96.9503 226.445ZM91.0764 224.148C91.609 225.877 92.0166 227.851 93.1534 229.304C94.2794 230.744 95.9782 231.252 97.7381 231.38C99.8601 231.534 102.007 231.435 104.134 231.514C108.495 231.677 112.797 232.385 116.967 233.685C120.852 234.897 124.459 236.787 127.934 238.883C131.147 240.822 134.265 242.904 137.479 244.837C136.624 245.229 135.778 245.654 134.928 246.023C133.144 246.798 131.35 247.545 129.547 248.274C125.993 249.711 122.423 251.114 118.817 252.417C111.546 255.043 104.155 257.338 96.6748 259.293C93.1073 260.226 89.4892 261.315 85.7829 261.47C82.4964 261.608 79.4523 260.678 76.8017 258.723C71.3041 254.669 66.9302 248.817 63.3944 243.044C61.2938 239.614 59.4606 236.011 57.9444 232.285C57.1775 230.401 56.482 228.488 55.856 226.552C55.5623 225.643 55.2839 224.729 55.0202 223.811C54.9042 223.408 54.7931 223.003 54.683 222.597C60.3047 220.881 65.993 219.332 71.8149 218.472C74.9233 218.013 78.0731 217.78 81.2155 217.814C82.7753 217.831 84.3342 217.915 85.8858 218.076C86.7209 218.163 87.5527 218.274 88.3809 218.413C88.7231 218.469 89.0749 218.554 89.4277 218.616C89.9666 220.463 90.51 222.309 91.0764 224.148ZM207.283 216.803C207.586 216.19 207.713 215.586 207.822 214.919C207.905 214.41 208.125 213.693 207.932 213.032C207.717 212.292 207.13 211.63 206.708 210.998C206.243 210.3 205.778 209.602 205.313 208.903C204.384 207.506 203.457 206.107 202.532 204.708C198.753 198.993 195 193.261 191.241 187.533C187.905 182.45 184.625 177.321 181.188 172.306C178.248 168.018 175.045 163.8 171.021 160.465C165.934 156.248 159.877 154.262 153.549 152.712C152.858 151.994 151.935 151.602 150.949 151.682C149.555 150.1 148.447 148.996 147.945 146.984C147.704 146.021 147.779 143.314 146.842 142.744C145.728 142.067 145.146 142.963 144.839 143.974C143.811 147.353 144.99 151.897 147.705 155.282C146.561 159.236 145.045 164.857 142.34 168.025C139.443 171.417 135.437 172.473 131.114 172.543C122.871 172.675 114.636 169.611 108.349 164.299C106.437 162.685 104.663 160.882 103.057 158.964C101.852 157.525 100.428 155.305 99.4853 153.627C99.4853 152.973 98.7135 152.289 106.571 151.761C114.429 151.232 115.025 140.469 115.2 139.004C115.342 137.815 115.945 135.968 115.107 134.998C114.752 134.586 114.022 134.52 113.571 134.8C112.721 135.328 112.442 136.679 112.175 137.596C111.8 138.88 110.576 146.854 108.257 147.777C107.172 148.209 105.926 148.217 104.778 148.297C103.36 148.397 101.939 148.469 100.526 148.634C100.005 148.695 99.4367 148.864 98.9227 148.868C98.5883 148.872 98.2433 148.709 97.92 148.595C96.829 148.209 95.7389 148.499 94.615 148.65C84.6778 149.986 74.4459 153.035 65.9698 158.521C58.499 163.357 53.2357 170.311 49.7626 178.442C46.2191 186.741 44.1879 195.714 42.4857 204.547C41.9155 207.507 41.4176 210.481 40.9898 213.464C40.5763 216.347 40.0591 219.295 39.9353 222.207C39.8863 223.359 40.1616 224.43 40.5852 225.482C41.0622 226.667 42.1898 227.134 43.2712 227.687C45.6453 228.902 48.1496 229.844 50.7298 230.511C52.3061 233.38 53.6326 236.361 54.6987 239.454C54.3032 240.238 54.295 241.409 54.2189 242.171C54.0302 244.068 53.9495 245.975 53.9326 247.881C53.8986 251.701 54.1283 255.518 54.3083 259.332C54.4908 263.2 55.0976 278.464 55.1964 280.328C55.2733 281.776 55.1698 283.801 55.9323 285.087C57.104 287.063 59.9958 286.996 61.3352 285.394C94.615 292.551 157.171 290.395 182.366 286.794C185.644 286.326 184.615 286.845 185.448 286.017C186.074 285.395 186.606 284.329 186.779 283.473C187.011 282.33 186.637 281.296 185.983 280.371C185.296 279.399 185.17 277.824 184.915 276.668C184.311 273.935 184.011 261.933 183.728 260.603C183.641 260.188 183.555 259.75 183.453 259.312C188.074 259.75 192.89 259.75 197.286 258.203C199.78 257.326 202.105 255.949 203.895 253.982C206.062 251.601 207.267 248.603 207.888 245.474C208.688 241.439 208.857 237.26 208.7 233.158C208.482 228.311 207.678 223.395 205.683 218.944C206.34 218.334 206.89 217.599 207.283 216.803Z" fill="black"/>
<path fill-rule="evenodd" clip-rule="evenodd" d="M133.581 60.2716C165.38 61.2787 167.297 76.3885 167.297 101.728C167.297 127.068 150.802 143.036 144.728 145.824C138.654 148.612 122.66 160.588 108.227 155.069C93.7937 149.551 97.9733 126.234 97.9733 116.215C97.9733 106.197 101.783 59.2645 133.581 60.2716Z" fill="white"/>
<path fill-rule="evenodd" clip-rule="evenodd" d="M146.481 137.502C140.641 140.763 133.955 140.89 127.674 138.837C123.907 137.61 120.453 135.712 117.22 133.442C114.408 131.465 111.898 129.274 109.412 126.947C107.365 122.43 105.542 117.922 104.688 113.008C103.923 108.597 103.822 104.017 104.709 99.615C111.271 94.215 117.793 88.7706 124.306 83.3095C127.623 80.528 130.948 77.7616 134.314 75.0392C136.023 73.657 137.715 72.2536 139.418 70.865C139.699 70.6368 139.978 70.4085 140.259 70.1803C143.774 72.7545 147.543 74.9612 151.034 77.5775C152.861 78.9492 154.638 80.4096 156.33 81.9459C157.217 82.7514 158.084 83.582 158.929 84.4337C159.702 85.2117 160.448 86.3274 161.544 86.6214C161.694 86.6613 161.836 86.6698 161.969 86.6508C163.435 99.4924 164.477 113.359 158.196 125.021C155.455 130.109 151.57 134.657 146.481 137.502ZM108.493 142.221C107.689 141.484 108.887 140.292 109.688 141.025C114.717 145.634 121.292 148.077 127.934 149.208C129.005 149.391 128.548 151.02 127.484 150.838C120.55 149.658 113.735 147.025 108.493 142.221ZM102.458 149.292C101.498 148.777 102.353 147.318 103.311 147.832C107.229 149.935 111.527 151.027 115.887 151.765C116.959 151.946 116.501 153.575 115.437 153.395C110.93 152.632 106.507 151.465 102.458 149.292ZM118.405 78.0618C121.657 75.1428 125.151 72.3655 128.842 70.0218C132.577 67.6505 136.657 66.2323 141.066 66.1985C140.757 66.4458 140.464 66.7205 140.166 66.976C139.334 67.6885 138.503 68.405 137.673 69.1193C136.012 70.5502 134.347 71.9787 132.708 73.433C129.48 76.2989 126.241 79.15 123.019 82.0223C116.827 87.5427 110.768 93.1835 104.84 98.9874C104.872 98.8457 104.905 98.7041 104.939 98.5627C106.902 90.3622 112.24 83.5968 118.405 78.0618ZM143.893 66.5556C143.914 66.4922 143.929 66.4307 143.937 66.3717C152.398 67.475 159.465 73.7033 161.802 81.9039C161.599 82.1871 161.487 82.5231 161.529 82.8801C161.55 83.06 161.571 83.2417 161.593 83.4214C161.303 83.1341 161.005 82.8655 160.752 82.6098C159.909 81.7559 159.045 80.9251 158.157 80.1156C156.343 78.461 154.458 76.9139 152.472 75.4704C149.018 72.9595 145.278 70.6516 141.161 69.4469C141.431 69.225 141.702 69.003 141.974 68.7832C142.788 68.1215 143.542 67.5764 143.893 66.5556ZM159.062 57.7867C153.867 52.1077 146.673 47.9484 139.097 46.5027C131.863 45.1205 124.374 46.0314 117.54 48.7177C103.239 54.3396 91.9548 66.7017 86.671 81.0268C83.5907 89.373 82.5809 98.5224 83.5064 107.357C84.4274 116.151 87.0745 125.233 91.8914 132.715C92.333 133.4 92.8168 134.057 93.3238 134.693C93.0978 137.276 92.2358 139.808 90.8795 142.01C90.8066 142.128 90.7297 142.244 90.6536 142.36C89.2648 143.4 87.8241 144.377 86.4177 145.384C85.1989 146.258 83.9926 147.154 82.8464 148.121C81.7645 149.034 80.5081 150.051 79.7757 151.284C79.1755 152.293 78.9304 153.666 79.7497 154.629C80.7369 155.789 82.4098 155.38 83.7471 155.38C83.8616 155.38 83.9759 155.383 84.0902 155.384C84.4918 155.636 84.9055 155.865 85.3062 156.077C89.3562 158.225 93.421 160.349 97.49 162.462C105.594 166.674 113.665 171.056 121.936 174.934C125.768 176.733 129.871 178.305 134.164 178.299C138.191 178.292 141.831 176.692 144.975 174.26C148.558 171.489 151.554 167.97 154.46 164.521C155.622 163.14 156.761 161.744 157.879 160.328C160.025 159.611 162.155 159.402 164.069 160.784C165.605 161.894 167.629 160.385 167.665 158.719C167.677 158.128 167.652 157.544 167.589 156.969C167.204 153.418 165.467 150.206 163.511 147.226C162.442 145.596 161.316 143.996 160.184 142.411C159.917 142.037 159.656 141.663 159.402 141.283C163.951 134.583 167.559 127.154 169.777 119.391C172.108 111.222 172.9 102.752 172.38 94.2869C171.582 81.3142 168.024 67.5849 159.062 57.7867Z" fill="black"/>
<path fill-rule="evenodd" clip-rule="evenodd" d="M143.152 128.274C141.731 127.695 140.464 126.728 139.538 125.493C139.216 125.063 139.132 124.61 139.2 124.195C139.276 123.729 139.551 123.306 139.927 123.023C140.305 122.739 140.777 122.598 141.233 122.67C141.629 122.732 142.024 122.949 142.336 123.399L142.401 123.49C142.952 124.235 143.67 124.847 144.488 125.241C145.276 125.621 146.157 125.798 147.07 125.695C148.807 125.499 150.005 124.559 151.277 123.282C151.435 123.121 151.593 122.955 151.752 122.786C151.852 122.633 151.991 122.534 152.145 122.483C152.317 122.425 152.51 122.429 152.688 122.491C152.859 122.55 153.012 122.664 153.115 122.815C153.213 122.958 153.268 123.135 153.25 123.339C153.134 124.662 152.442 125.842 151.46 126.769C150.37 127.799 148.924 128.511 147.563 128.761C146.063 129.036 144.535 128.839 143.152 128.274V128.274ZM148.27 107.866C149.866 108.836 152.297 111.099 150.58 113.504C148.56 115.624 145.652 113.193 144.218 112.093C142.889 111.241 141.396 113.433 142.629 114.428C152.986 122.099 157.189 108.12 149.077 106.726C148.184 106.572 147.852 107.566 148.27 107.866ZM129.71 98.943C129.886 96.7542 133.219 96.2571 133.55 98.4231C133.847 100.363 133.497 102.146 132.624 103.892C131.789 105.561 129.691 104.783 129.532 103.263C129.32 101.226 129.6 100.305 129.71 98.943ZM155.076 97.974C155.541 97.3653 156.211 96.9498 157.015 97.1846C159.526 97.9186 158.786 101.485 157.904 103.221C157.425 104.163 155.876 104.402 155.176 103.572C154.035 102.219 153.489 99.5158 154.939 98.1826C154.979 98.1137 155.022 98.0442 155.076 97.974ZM132.589 89.3655L132.985 89.296C134.212 89.0837 135.738 88.8798 136.606 89.8666C137.066 90.3899 137.225 91.3625 136.606 91.8634C135.517 92.7448 134.314 92.4032 133.01 92.4778C131.935 92.5395 130.902 92.7175 129.866 93.0136C127.595 93.6631 125.744 94.8487 123.804 96.1507C123.549 96.3214 123.289 95.9957 123.411 95.7576C124.531 93.5631 126.701 91.7605 128.875 90.6617C130.035 90.0752 131.305 89.5887 132.589 89.3655ZM152.787 88.3825L153.091 88.4446C156.394 89.1354 160.686 90.5154 162.251 93.7616C162.311 94.2207 162.248 94.319 162.196 94.3833L162.179 94.4047C162.137 94.4596 162.103 94.5353 161.904 94.5977C161.849 94.5846 161.794 94.5706 161.737 94.5559C161.02 94.3679 160.453 94.1089 159.903 93.8401L159.308 93.5466C158.617 93.2077 157.92 92.8811 157.181 92.64C155.605 92.1256 153.983 91.7632 152.336 91.5697C151.979 91.5278 151.636 91.4073 151.365 91.2008C151.107 91.0047 150.911 90.7333 150.821 90.3726C150.705 89.9057 150.738 89.5522 150.989 89.131C151.177 88.8147 151.446 88.5954 151.756 88.4695C152.071 88.3412 152.43 88.3109 152.787 88.3825Z" fill="black"/>
<path fill-rule="evenodd" clip-rule="evenodd" d="M167.178 109.153C164.613 111.805 160.332 112.566 156.919 111.144C148.156 107.481 152.445 96.0577 159.203 92.99C160.047 92.7795 161.175 92.28 162.203 92.1668C162.296 92.1211 162.498 92.2532 162.744 92.1283C170.195 92.9606 171.892 104.532 167.178 109.153M138.915 109.832C136.039 113.649 130.69 114.827 126.32 113.052C117.687 109.651 120.749 99.5213 126.656 95.55C139.133 90.8599 144.285 102.794 138.915 109.832M120.201 101.374C120.193 101.37 120.185 101.369 120.177 101.365C120.222 101.345 120.268 101.325 120.313 101.304C120.299 101.343 120.282 101.381 120.268 101.42C120.246 101.404 120.226 101.386 120.201 101.374M173.117 97.248C172.413 97.2494 171.395 97.3653 170.812 97.8541C169.374 93.003 164.067 88.5133 159.451 91.7871C155.816 92.9565 153.119 95.55 151.586 98.9979C148.822 97.3532 144.476 98.0555 142.079 100.231C140.509 95.0417 136.646 93.2247 132.048 92.9565C127.029 92.1341 122.027 97.0102 120.466 100.922C119.168 100.774 117.229 100.361 116.008 101.162C108.084 99.0833 94.2299 97.9372 92.619 99.0922C91.471 99.5329 90.841 102.244 92.4445 102.39C93.8418 102.191 92.2814 100.404 93.6899 100.209C101.195 99.7432 108.48 101.255 115.906 101.89C116.569 102.782 118.711 103.08 119.854 102.722C118.054 109.357 121.939 113.872 127.76 115.224C136.775 117.295 144.617 109.229 142.26 100.838C144.991 99.479 148.132 99.5373 151.106 100.253C146.135 118.554 175.598 117.733 170.997 98.4812C174.059 100.005 174.724 97.5555 173.117 97.248" fill="black"/>
</g>
<defs>
<clipPath id="clip0_81_21032">
<rect width="240" height="275" fill="white"/>
</clipPath>
</defs>
</svg>
