<svg width="240" height="275" viewBox="0 0 240 275" fill="none" xmlns="http://www.w3.org/2000/svg">
<g clip-path="url(#clip0_81_21014)">
<rect width="240" height="275" fill="#E7ECED"/>
<path fill-rule="evenodd" clip-rule="evenodd" d="M47.4645 286.051C75.0656 290.245 103.167 290.456 130.998 288.933C142.012 288.108 153.06 287.96 164.065 289.014C170.568 289.498 199.081 291.678 201.411 285.852C199.944 254.825 196.975 223.533 187.865 193.693C184.119 183.097 180.901 174.303 173.589 165.535C171.284 163.141 166.315 158.12 163.467 156.482C161 155.064 159.969 155.57 158.552 153.174C157.144 150.527 156.106 146.107 154.107 144.24C152.072 142.338 149.056 143.018 145.317 143.631C146.004 134.346 141.72 131.981 135.818 130.216C125.444 126.255 115.198 128.245 112.587 140.879C107.746 140.879 105.026 142.963 102.086 144.966C100.884 145.784 101.72 147.87 100.285 148.513C97.6289 149.459 92.9354 149.228 90.3781 150.392C78.7492 155.686 68.3917 163.364 61.5897 174.576C46.3403 198.515 35.8652 248.942 37.6779 277.315C36.8837 278.561 37.9819 280.348 38.2611 281.687C38.6135 282.853 39.7545 283.628 40.9454 283.495C42.6072 285.283 45.1775 285.681 47.4645 286.051Z" fill="white"/>
<path fill-rule="evenodd" clip-rule="evenodd" d="M161.709 155.78C161.54 155.686 161.689 155.444 161.859 155.524C170.045 159.365 176.324 166.105 180.743 173.892C185.318 181.956 187.926 191.11 190.174 200.058L190.255 200.382C192.652 209.954 194.691 219.625 196.526 229.319C198.384 239.137 199.876 249.015 201.076 258.934C201.67 263.839 202.199 268.752 202.612 273.675C202.818 276.135 203.005 278.597 203.174 281.06C203.241 282.045 203.304 283.03 203.359 284.016L203.398 284.755C203.431 285.426 203.511 286.099 203.345 286.761C203.202 287.331 202.9 287.847 202.635 288.371C202.109 289.406 200.67 289.236 200.104 288.371L199.939 288.119C199.564 287.539 199.252 287 199.134 286.278C199.021 285.578 199.016 284.845 198.965 284.139C198.871 282.84 198.791 281.539 198.7 280.239C198.508 277.502 198.293 274.767 198.055 272.034C197.583 266.64 197.078 261.249 196.457 255.869C195.354 246.308 193.969 236.772 192.337 227.286C190.742 218.02 188.727 208.848 186.624 199.688L186.406 198.74C182.724 182.746 177.048 164.328 161.709 155.78ZM74.5221 218.408C74.5823 218.248 74.8413 218.211 74.8851 218.408C75.4365 220.892 75.491 223.45 75.5753 225.992C75.6583 228.501 75.6549 231.021 75.6184 233.53C75.4836 242.754 75.2305 251.97 75.0116 261.193C74.9022 265.806 74.7995 270.42 74.7207 275.034C74.6909 276.764 74.6659 278.494 74.6451 280.225L74.6196 282.507C74.6069 283.516 74.5804 284.513 74.4575 285.521C74.3763 286.184 74.2035 286.817 73.8376 287.385C73.5779 287.788 73.2078 287.993 72.8471 288.267L72.7796 288.32C72.3194 288.683 71.8348 288.686 71.3791 288.32L71.2467 288.215C70.8114 287.874 70.4352 287.608 70.1573 287.07C69.7707 286.321 69.7088 285.507 69.6431 284.682C69.5434 283.431 69.6095 282.161 69.6224 280.907C69.6482 278.389 69.683 275.873 69.7272 273.356C69.8892 264.126 70.2095 254.894 70.7932 245.681C71.0682 241.341 71.4411 236.987 71.9413 232.665L72.0365 231.855C72.1882 230.583 72.3266 229.289 72.4825 227.99C70.155 226.353 68.1091 224.366 66.3644 222.111C66.236 221.945 66.4474 221.713 66.6025 221.873C68.3852 223.72 70.4292 225.192 72.6921 226.349C73.0629 223.631 73.5727 220.928 74.5221 218.408ZM113.407 136.133C113.438 136.108 113.488 136.097 113.519 136.133C114.019 136.716 113.918 137.608 113.934 138.348L113.936 138.416C113.971 139.497 113.978 140.575 113.975 141.657L113.963 145.1V145.1C113.962 145.573 113.924 146.066 113.948 146.542L113.96 146.727V146.727C114.223 146.996 114.345 147.385 114.256 147.776C114.24 148.277 113.978 148.695 113.596 148.958L114.415 150.121V150.121L115.235 151.283C116.925 153.68 118.634 156.057 120.414 158.389C122.23 160.766 124.167 163.054 126.194 165.254C127.184 166.329 128.191 167.389 129.221 168.425C129.64 168.846 130.069 169.257 130.494 169.672L130.916 170.09C131.166 170.339 131.48 170.586 131.645 170.902C131.743 171.089 131.765 171.549 131.8 171.625C132.112 172.313 131.579 173.409 130.692 173.066L130.733 173.039C130.894 172.927 130.791 172.925 130.422 173.034C130.19 173.033 129.972 172.98 129.768 172.874L129.708 172.841C129.421 172.695 129.165 172.413 128.932 172.187L128.874 172.132C128.342 171.633 127.834 171.104 127.324 170.582C126.258 169.493 125.217 168.381 124.209 167.239C122.198 164.962 120.291 162.591 118.485 160.147C116.646 157.658 114.936 155.041 113.466 152.317C112.908 151.283 112.397 150.229 111.906 149.163C110.952 148.857 110.73 147.841 110.797 146.697C110.445 145.877 110.127 145.039 109.94 144.184C109.914 144.067 110.065 143.956 110.155 144.059C110.46 144.406 110.743 144.775 111.015 145.154C111.179 144.352 111.386 143.614 111.484 143.143L111.907 141.066V141.066C109.522 140.942 106.909 141.922 105.265 143.637C105.177 144.084 104.833 144.404 104.498 144.822C104.115 145.299 103.781 145.835 103.532 146.395C102.98 147.637 103.292 149.467 102.219 150.378C102.108 150.473 101.983 150.539 101.854 150.58C102.363 153.075 102.132 155.825 102.121 158.357L102.12 158.58C102.123 161.413 102.028 164.249 101.919 167.081L101.808 169.883C101.663 173.62 101.57 177.359 101.933 181.075C103.59 179.607 105.304 178.205 107.077 176.87C108.242 175.992 109.431 175.145 110.642 174.33L111.625 173.673C112.804 172.882 114.011 172.068 115.302 171.502C116.99 170.762 118.595 171.016 120.225 171.775C121.848 172.532 123.423 173.41 125.014 174.23C126.634 175.064 128.256 175.89 129.878 176.719C130.952 177.268 132.526 177.764 133.313 178.775C133.364 178.551 133.422 178.328 133.491 178.106C133.413 177.767 133.443 177.401 133.633 177.052C136.28 172.186 138.729 167.204 141.161 162.228C142.392 159.71 143.563 157.162 144.796 154.645L145.995 152.194C146.195 151.785 146.396 151.377 146.598 150.97C146.901 150.36 147.216 149.756 147.522 149.147C147.651 148.89 147.813 148.635 147.939 148.376L147.999 148.245C148.002 148.239 148.292 147.325 148.068 147.412L148.048 147.421C147.934 147.486 147.842 147.342 147.916 147.25C148.234 146.857 148.676 147.205 148.857 147.568C149.355 148.568 148.441 150.138 148.09 151.095L148.07 151.149C146.979 154.238 145.744 157.27 144.478 160.292C142.051 166.084 139.443 171.788 136.841 177.501L136.811 177.599V177.599C137.365 177.174 137.958 176.788 138.465 176.412C139.745 175.464 141.062 174.562 142.377 173.663C144.788 172.015 147.265 170.476 149.783 168.997L150.287 168.702C151.544 167.969 152.79 167.375 154.283 167.595C155.67 167.799 156.959 168.545 158.212 169.15L158.342 169.212L162.213 171.053C161.799 169.402 161.351 167.759 160.884 166.122C159.972 162.929 158.968 159.763 157.88 156.626C156.864 153.694 155.766 150.794 154.604 147.918L154.254 147.054C153.78 145.87 153.309 144.579 151.955 144.214C150.602 143.849 149.05 144.39 147.813 143.618C147.701 143.548 147.714 143.363 147.851 143.329L148.614 143.136C150.047 142.78 151.727 142.421 153.082 142.768C154.556 143.146 155.776 144.383 156.491 145.67C157.287 147.102 157.847 148.704 158.451 150.231L158.547 150.471C159.239 152.199 159.906 153.936 160.543 155.685C161.818 159.181 162.979 162.719 164.029 166.289C164.535 168.009 165.015 169.738 165.477 171.47C165.61 171.969 165.829 172.573 166.008 173.203C166.214 173.404 166.409 173.628 166.591 173.884C166.895 174.308 166.677 174.805 166.3 175.059C166.286 175.492 166.189 175.9 165.959 176.25C165.06 177.615 162.683 177.263 162.78 175.428C162.795 175.147 162.904 174.879 163.07 174.652L163.065 174.616V174.616L163.046 174.548V174.548C162.634 174.351 162.219 174.13 161.783 173.914L157.719 171.906V171.906C156.543 171.324 155.238 170.425 153.93 170.203C152.71 169.997 151.423 170.906 150.374 171.455L150.306 171.49C147.772 172.789 145.257 174.132 142.751 175.485C141.528 176.146 140.321 176.835 139.103 177.503C138.084 178.063 136.985 178.865 135.84 179.181C135.35 179.561 134.769 179.51 134.303 179.223C134.516 180.545 134.503 181.901 134.568 183.253C134.656 185.06 134.67 186.872 134.699 188.681L134.711 189.359C134.788 193.359 134.829 197.36 134.844 201.361C134.898 215.608 134.741 229.859 134.704 244.106C134.685 251.264 134.544 258.428 134.358 265.583C134.279 268.615 134.114 271.643 133.936 274.671L133.838 276.322C133.631 279.806 133.509 283.329 132.864 286.766C132.78 287.214 132.021 287.226 131.947 286.766C131.354 283.083 131.321 279.319 131.206 275.593L131.182 274.848C131.045 270.847 130.98 266.849 130.994 262.846C131.045 248.593 131.415 234.35 131.718 220.102C131.87 212.943 131.973 205.781 132.21 198.624C132.328 195.043 132.462 191.465 132.621 187.885C132.692 186.287 132.76 184.69 132.866 183.095L132.914 182.411C132.947 181.965 132.974 181.524 133.006 181.087C131.564 181.614 130.246 180.639 128.949 179.972C127.455 179.203 125.961 178.432 124.466 177.665L122.969 176.898V176.898L119.975 175.37C118.627 174.681 117.588 173.996 116.15 174.804C110.969 177.711 106.208 181.58 101.893 185.64C101.066 186.419 99.3177 186.21 99.1082 184.905C98.2129 179.33 98.7574 173.675 99.2144 168.084L99.3829 166.008C99.5871 163.528 99.8095 161.049 100.106 158.58C100.238 157.475 100.37 156.371 100.516 155.269L100.629 154.442C100.811 153.135 100.93 151.836 101.319 150.583C101.197 150.543 101.079 150.478 100.973 150.378C99.803 149.268 100.367 147.341 100.901 146.02C101.428 144.716 102.232 143.578 103.239 142.599C103.458 142.385 103.768 142.247 104.079 142.24C106.519 140.622 109.197 139.815 111.984 140.698C112.062 140.324 112.142 139.95 112.226 139.577L112.312 139.204C112.528 138.279 112.609 136.751 113.407 136.133ZM138.422 282.222C139.179 282.013 140.008 282.233 140.563 282.788C141.118 283.343 141.338 284.173 141.129 284.93C141.025 285.304 140.836 285.627 140.563 285.902C140.308 286.156 140.011 286.336 139.671 286.445L139.592 286.469L139.468 286.52C139.089 286.622 138.709 286.622 138.329 286.52C137.966 286.418 137.651 286.235 137.384 285.969C137.118 285.702 136.935 285.386 136.833 285.023C136.731 284.643 136.731 284.263 136.833 283.884L136.885 283.76V283.76C136.989 283.387 137.178 283.063 137.45 282.788C137.725 282.515 138.049 282.326 138.422 282.222ZM183.394 206.719C183.519 206.576 183.72 206.759 183.643 206.911C182.463 209.225 181.148 211.522 179.856 213.777C179.96 214.402 180.062 215.022 180.18 215.626C180.684 218.202 181.3 220.731 181.702 223.331C183.148 232.676 183.898 242.124 184.542 251.553C185.187 261.017 185.27 270.484 185.367 279.966C185.375 280.788 184.743 281.743 183.897 281.898C183.509 281.969 183.219 281.955 182.832 281.898C181.951 281.768 181.4 280.758 181.362 279.966C181.109 274.667 180.769 269.374 180.375 264.083C179.677 254.703 179.251 245.297 178.687 235.907L178.488 232.625C178.275 229.069 178.08 225.51 178.017 221.949C177.974 219.589 178.101 217.231 178.023 214.874C177.951 212.698 177.731 210.332 178.21 208.194C178.228 208.114 178.355 208.094 178.391 208.171C178.89 209.221 179.206 210.362 179.449 211.527C180.734 209.901 182.043 208.272 183.394 206.719ZM99.2258 149.244C99.4062 149.23 99.399 149.501 99.2258 149.521C96.7041 149.814 94.2681 150.841 91.887 151.713L91.6831 151.787C89.2776 152.661 86.9323 153.676 84.6753 154.886C80.2626 157.252 76.2105 160.303 72.6278 163.796C58.3239 177.739 51.8053 197.846 47.0287 216.741C44.3748 227.239 42.4875 237.915 41.2643 248.672C40.6594 253.992 40.2318 259.332 39.9825 264.681C39.8549 267.422 39.7744 270.166 39.7408 272.91C39.7235 274.315 39.7184 275.721 39.7201 277.127C39.721 277.771 39.8359 278.582 39.6637 279.207C39.504 279.787 39.0536 280.297 38.7204 280.78C38.3255 281.352 37.6159 281.322 37.2155 280.78L37.0679 280.582C36.6409 280.016 36.2232 279.474 36.1622 278.733C36.0969 277.939 36.1429 277.121 36.14 276.324C36.1332 274.717 36.1531 273.111 36.1852 271.504C36.2471 268.426 36.3684 265.349 36.5486 262.275C36.9145 256.037 37.5168 249.811 38.3792 243.623C39.9122 232.622 42.2099 221.726 45.2196 211.035C48.0591 200.95 51.4229 190.894 56.2148 181.552C60.6641 172.878 66.501 164.809 74.203 158.747C77.7846 155.928 81.6836 153.579 85.8872 151.809C88.0072 150.917 90.2336 150.189 92.4977 149.773C94.7368 149.363 96.9661 149.42 99.2258 149.244ZM138.856 264.395C139.256 264.392 139.701 264.48 140.045 264.701L140.503 265.056V265.056C140.627 265.215 140.751 265.376 140.874 265.536C141.161 265.91 141.199 266.515 141.139 266.96C141.125 267.257 141.037 267.534 140.874 267.79L140.525 268.242V268.242C140.19 268.516 139.91 268.711 139.504 268.843C139.291 268.912 139.087 268.926 138.883 268.915L138.815 268.911L138.856 268.917L138.784 268.909V268.909C138.718 268.903 138.651 268.896 138.585 268.887C138.539 268.881 138.493 268.877 138.448 268.871C138.404 268.868 138.362 268.866 138.318 268.87C137.802 268.919 137.282 268.626 136.916 268.289C136.586 267.986 136.289 267.343 136.335 266.887L136.355 266.696C136.39 266.375 136.418 266.248 136.554 265.926C136.687 265.612 136.872 265.334 137.123 265.1C137.605 264.652 138.195 264.4 138.856 264.395ZM137.257 240.875C137.943 240.128 139.12 240.073 139.97 240.525C140.177 240.636 140.367 240.812 140.549 240.96C141.009 241.332 141.19 242.003 141.215 242.568C141.24 243.127 140.946 243.791 140.549 244.177L140.453 244.27V244.27C140.216 244.501 139.877 244.701 139.546 244.762C139.012 244.86 138.563 244.857 138.065 244.647C137.638 244.467 137.269 244.177 137.019 243.783L136.978 243.717C136.961 243.689 136.945 243.661 136.929 243.632L136.907 243.589C136.431 242.673 136.559 241.636 137.257 240.875ZM137.612 217.232C137.921 217.135 138.23 217.121 138.539 217.19C138.749 217.191 138.945 217.244 139.126 217.349C139.323 217.404 139.494 217.504 139.639 217.648C139.813 217.751 139.953 217.89 140.056 218.065C140.262 218.29 140.4 218.553 140.472 218.856L140.555 219.474L140.472 220.093L140.238 220.648V220.648C140.173 220.732 140.108 220.816 140.043 220.9C139.939 221.075 139.8 221.215 139.625 221.319C139.511 221.432 139.38 221.517 139.234 221.575C138.717 221.947 138.027 222.068 137.414 221.899C137.05 221.797 136.733 221.612 136.465 221.346C136.199 221.077 136.014 220.761 135.913 220.397L135.871 220.106C135.816 219.716 135.808 219.5 135.918 219.004C135.967 218.786 136.107 218.478 136.181 218.349C136.495 217.796 137.009 217.417 137.612 217.232ZM164.45 200.222C165.338 200.216 166.225 200.217 167.113 200.227L167.778 200.236C168.893 200.254 169.847 200.139 170.723 200.912C171.359 201.474 171.079 202.415 170.475 202.838C169.561 203.479 168.414 203.157 167.362 203.086C166.254 203.012 165.144 202.95 164.034 202.9C161.885 202.804 159.735 202.742 157.583 202.733C155.437 202.724 153.287 202.744 151.14 202.779C148.956 202.814 146.682 203.018 144.51 202.792C144.212 202.761 144.145 202.368 144.439 202.266C146.486 201.558 148.788 201.328 150.933 201.058C153.145 200.778 155.357 200.58 157.583 200.452C159.87 200.321 162.16 200.238 164.45 200.222ZM137.609 193.265L137.682 193.267C138.072 193.268 138.438 193.36 138.779 193.543L138.852 193.583L139.321 193.946C139.608 194.235 139.806 194.576 139.916 194.969L139.999 195.585V195.585C140.011 195.904 139.945 196.202 139.8 196.478C139.706 196.766 139.546 197.014 139.321 197.224C139.111 197.45 138.862 197.61 138.575 197.704C138.32 197.837 138.047 197.905 137.755 197.905L137.682 197.903C137.264 197.902 136.874 197.796 136.512 197.587L136.043 197.224V197.224C135.756 196.935 135.557 196.594 135.447 196.201L135.364 195.585V195.585C135.353 195.266 135.419 194.968 135.564 194.692C135.658 194.404 135.817 194.156 136.043 193.946C136.253 193.72 136.502 193.56 136.789 193.466C137.044 193.332 137.317 193.265 137.609 193.265V193.265ZM144.479 138.807C144.978 138.083 145.883 138.727 145.753 139.308C145.787 140.942 145.871 142.527 146.242 144.127C146.412 144.86 146.635 145.593 146.979 146.264L147.123 146.547C147.568 147.426 147.914 148.256 147.315 149.22C147.032 149.675 146.522 150.017 145.968 149.993C143.515 149.887 143.177 146.47 143.028 144.562C142.874 142.598 143.353 140.439 144.479 138.807Z" fill="black"/>
<path fill-rule="evenodd" clip-rule="evenodd" d="M161.372 73.4597C155.022 64.717 143.331 62.2028 133.192 64.3292C113.371 67.9437 94.4344 83.0715 90.9322 103.645C85.4682 116.092 88.9574 135.696 104.848 137.161C107.11 137.289 109.351 136.768 111.618 137.049C125.45 139.259 141.795 148.721 154.039 137.563C154.652 138.003 155.461 138.215 156.149 137.949C161.361 135.934 161.605 130.106 162.05 125.315C162.624 119.124 163.162 112.93 163.664 106.734C163.843 96.0473 168.077 82.6936 161.372 73.4597V73.4597Z" fill="white"/>
<path fill-rule="evenodd" clip-rule="evenodd" d="M122.944 51.182C131.289 50.7382 146.665 54.5619 153.946 59.0449C165.808 66.3489 166.727 80.919 166.243 83.4383C166.059 84.3997 165.472 85.2895 164.553 84.9938C165.333 91.6131 165.271 95.3965 165.402 102.054L165.492 106.499C165.551 109.462 165.601 112.426 165.614 115.39C165.914 115.278 166.209 115.415 166.319 115.703C166.347 115.773 166.252 115.811 166.205 115.771C165.677 115.31 166.053 116.36 166.235 116.574C166.486 116.868 166.904 117.144 167.198 117.396L167.996 118.087V118.087L168.793 118.776C169.823 119.665 170.82 120.556 171.781 121.514L172.042 121.777C173.794 123.557 175.989 125.279 177.079 127.581C178.121 129.779 177.8 132.271 176.069 134.023C175.44 134.659 174.704 135.145 173.906 135.513C175.328 137.855 175.535 140.951 174.052 143.36C172.566 145.778 169.71 147.044 166.959 146.85C166.875 147.194 166.744 147.53 166.571 147.849C165.48 149.854 163.31 150.115 161.253 150.007L161.173 150.003C156.542 149.737 152.086 148.576 148.03 146.321C146.623 146.416 145.368 145.26 145.093 143.992C144.354 143.965 143.61 143.903 142.852 143.817C140.602 143.557 138.295 143.073 136.311 141.929C136.007 141.754 136.148 141.291 136.486 141.283C138.903 141.228 141.322 141.395 143.735 141.133C145.949 140.894 148.309 140.283 150.373 139.452C154.083 137.956 157.264 135.418 159.02 131.901C161.293 127.348 161.086 121.881 161.333 116.935C161.607 111.461 161.944 105.992 162.305 100.523L162.48 97.9014C162.83 92.7918 163.119 90.0584 164.006 84.755C161.333 84.9938 150.231 80.9965 146.779 74.4578C140.227 88.3678 107.029 82.675 105.557 104.089C105.544 104.271 105.257 104.22 105.246 104.047L105.219 103.559C105.205 103.318 105.193 103.08 105.185 102.845L105.178 102.61L104.657 102.616C104.657 102.682 104.564 102.705 104.54 102.635C104.048 101.238 101.703 101.688 100.683 102.02C99.7636 102.32 98.8974 102.781 98.12 103.35C96.5587 104.491 95.3481 106.027 94.9467 107.948C94.1841 111.596 96.5059 115.312 99.5883 117.073C101.532 118.182 103.662 118.899 105.525 120.156C107.171 121.266 108.704 122.566 110.033 124.043C115.298 129.895 118.395 138.772 115.904 146.497C115.714 147.086 115.212 147.76 114.546 147.856C113.445 148.014 112.345 147.854 111.728 146.805C111.487 146.395 111.373 145.928 111.398 145.467C110.971 146.934 109.588 148.384 108.312 148.929C106.573 149.673 104.614 149.451 103.081 148.492L102.887 148.635C100.392 150.472 97.606 152.146 94.4101 151.808C92.0946 151.563 89.8214 150.383 88.5411 148.524C86.8383 149.481 85.0193 150.244 83.1432 150.764L82.9436 150.819C80.3624 151.522 77.0701 152.166 74.6608 150.738C72.3474 149.367 71.5784 146.372 72.1214 143.872C72.1869 143.574 72.2693 143.284 72.3707 143.003C70.6298 143.096 68.8911 142.929 67.239 142.418C65.551 141.895 63.9411 140.892 63.1319 139.264C62.2193 137.423 62.4622 135.331 63.1425 133.456C64.2305 130.449 65.9798 127.773 68.158 125.442C70.2526 123.199 72.7793 121.295 75.4052 119.709L75.8478 119.444C78.2116 118.033 81.0622 116.38 83.8552 116.489C83.8467 116.453 83.8404 116.419 83.8362 116.384C83.4136 113.27 83.4622 110.096 83.3629 106.957C83.2721 104.07 83.1686 101.183 83.101 98.2941C82.9911 93.3821 83.027 88.4494 83.6672 83.5714C84.2355 79.243 85.258 75.0221 87.1235 71.0593C89.0819 66.8959 92.0312 63.3431 95.6735 60.549C103.317 54.6841 113.414 51.6892 122.944 51.182ZM96.9814 108.874C97.8138 107.304 99.7088 106.809 101.372 107.093C103.702 107.49 105.286 109.528 106.647 111.28C108.075 113.116 105.096 114.847 104.329 113.068L104.148 112.647C103.532 111.236 102.805 109.748 101.549 108.828C100.214 107.851 98.3293 107.708 97.1504 109.005C97.0659 109.1 96.9243 108.978 96.9814 108.874Z" fill="black"/>
<path fill-rule="evenodd" clip-rule="evenodd" d="M143.152 128.274C141.731 127.695 140.464 126.728 139.538 125.493C139.216 125.063 139.132 124.61 139.2 124.195C139.276 123.729 139.551 123.306 139.927 123.023C140.305 122.739 140.777 122.598 141.233 122.67C141.629 122.732 142.024 122.949 142.336 123.399L142.401 123.49C142.952 124.235 143.67 124.847 144.488 125.241C145.276 125.621 146.157 125.798 147.07 125.695C148.807 125.499 150.005 124.559 151.277 123.282C151.435 123.121 151.593 122.955 151.752 122.786C151.852 122.633 151.991 122.534 152.145 122.483C152.317 122.425 152.51 122.429 152.688 122.491C152.859 122.55 153.012 122.664 153.115 122.815C153.213 122.958 153.268 123.135 153.25 123.339C153.134 124.662 152.442 125.842 151.46 126.769C150.37 127.799 148.924 128.511 147.563 128.761C146.063 129.036 144.535 128.839 143.152 128.274V128.274ZM148.27 107.866C149.866 108.836 152.297 111.099 150.58 113.504C148.56 115.624 145.652 113.193 144.218 112.093C142.889 111.241 141.396 113.433 142.629 114.428C152.986 122.099 157.189 108.12 149.077 106.726C148.184 106.572 147.852 107.566 148.27 107.866ZM129.71 98.943C129.886 96.7542 133.219 96.2571 133.55 98.4231C133.847 100.363 133.497 102.146 132.624 103.892C131.789 105.561 129.691 104.783 129.532 103.263C129.32 101.226 129.6 100.305 129.71 98.943ZM155.076 97.974C155.541 97.3653 156.211 96.9498 157.015 97.1846C159.526 97.9186 158.786 101.485 157.904 103.221C157.425 104.163 155.876 104.402 155.176 103.572C154.035 102.219 153.489 99.5158 154.939 98.1826C154.979 98.1137 155.022 98.0442 155.076 97.974ZM132.589 89.3655L132.985 89.296C134.212 89.0837 135.738 88.8798 136.606 89.8666C137.066 90.3899 137.225 91.3625 136.606 91.8634C135.517 92.7448 134.314 92.4032 133.01 92.4778C131.935 92.5395 130.902 92.7175 129.866 93.0136C127.595 93.6631 125.744 94.8487 123.804 96.1507C123.549 96.3214 123.289 95.9957 123.411 95.7576C124.531 93.5631 126.701 91.7605 128.875 90.6617C130.035 90.0752 131.305 89.5887 132.589 89.3655ZM152.787 88.3825L153.091 88.4446C156.394 89.1354 160.686 90.5154 162.251 93.7616C162.311 94.2207 162.248 94.319 162.196 94.3833L162.179 94.4047C162.137 94.4596 162.103 94.5353 161.904 94.5977C161.849 94.5846 161.794 94.5706 161.737 94.5559C161.02 94.3679 160.453 94.1089 159.903 93.8401L159.308 93.5466C158.617 93.2077 157.92 92.8811 157.181 92.64C155.605 92.1256 153.983 91.7632 152.336 91.5697C151.979 91.5278 151.636 91.4073 151.365 91.2008C151.107 91.0047 150.911 90.7333 150.821 90.3726C150.705 89.9057 150.738 89.5522 150.989 89.131C151.177 88.8147 151.446 88.5954 151.756 88.4695C152.071 88.3412 152.43 88.3109 152.787 88.3825Z" fill="black"/>
</g>
<defs>
<clipPath id="clip0_81_21014">
<rect width="240" height="275" fill="white"/>
</clipPath>
</defs>
</svg>
