<svg width="404" height="275" viewBox="0 0 404 275" fill="none" xmlns="http://www.w3.org/2000/svg">
<g clip-path="url(#clip0_85_18937)">
<g clip-path="url(#clip1_85_18937)">
<rect width="240" height="275" transform="translate(78)" fill="#E7ECED"/>
<path fill-rule="evenodd" clip-rule="evenodd" d="M189.34 135.723C194.555 131.751 207.648 129.964 213.214 133.789C218.712 137.631 219.311 143.843 221.873 149.557C224.29 148.417 228.281 150.05 228.982 152.294C229.851 153.352 229.89 156.325 230.49 157.747C256.569 161.9 260.528 182.24 263.667 205.332C267.82 228.764 277.247 252.145 273.155 276.257C273.688 277.029 274.108 277.78 274.497 278.671C275.429 280.256 274.229 282.501 272.35 282.414C269.918 282.2 267.51 281.908 265.067 281.817C258.294 281.582 251.514 281.61 244.739 281.696L243.815 281.708C209.667 282.133 175.521 282.971 141.372 283.194C140.133 283.195 139.526 282.084 139.692 280.987C140.025 278.78 140.334 276.571 140.656 274.363C132.579 276.497 123.993 277.034 115.938 274.587C115.375 274.013 117.251 274.324 117.549 274.237C110.136 269.17 112.35 258.495 113.006 250.807C117.089 224.462 118.529 195.313 134.304 172.832C141.128 163.658 151.134 156.394 162.631 154.76L162.95 154.716C166.311 154.267 170.058 154.123 172.997 152.294C176.303 149.653 177.712 144.775 181.19 144.73C182.338 144.715 183.9 146.168 185.581 147.155C185.707 144.984 186.876 143.152 187.134 141.469L187.155 141.325C187.425 139.363 187.056 137.598 189.34 135.723ZM245.387 206.028C238.058 200.935 219.125 203.494 218.692 203.779C217.738 204.407 217.327 204.463 216.811 205.278C216.301 205.346 215.792 205.416 215.283 205.488C214.263 205.822 215.019 207.077 216.198 206.629C215.489 209.688 217.575 211.864 218.406 214.888C218.676 215.87 218.416 217.636 218.406 218.64C218.487 219.919 219.901 221.43 219.665 222.714C218.827 227.276 214.281 231.727 216.198 236.152C217.467 238.652 221.286 239.926 223.825 240.776C229.086 242.795 238.251 240.7 241.308 236.152C242.938 233.727 244.827 227.609 245.799 225.711L246.014 222.701C246.546 215.218 247.018 207.162 245.387 206.028Z" fill="white"/>
<path fill-rule="evenodd" clip-rule="evenodd" d="M179.912 144.288C180.418 143.84 181.167 144.403 180.846 145.009C180.123 146.37 179.382 147.659 178.412 148.862C177.824 149.592 177.194 150.282 176.556 150.964C178.194 152.381 179.599 154.141 180.925 155.791C182.622 157.9 184.225 160.099 186.13 162.029C188.008 163.933 190.084 165.264 192.595 166.151L193.102 166.327C195.624 167.213 198.32 168.409 199.741 170.798C200.021 171.269 199.457 171.851 198.982 171.557C196.512 170.027 193.61 169.719 190.921 168.708C188.323 167.732 186.059 166.229 184.058 164.31C182.061 162.395 180.384 160.216 178.634 158.083C176.904 155.974 175.042 154.172 172.996 152.388C169.838 154.513 166.234 155.438 162.569 156.346L162.169 156.445C158.5 157.354 154.85 158.409 151.408 159.992C148.373 161.387 145.387 163.053 142.915 165.323C140.291 167.733 138.248 170.81 136.379 173.819C132.197 180.552 129.257 187.928 126.669 195.394C123.977 203.159 121.725 211.08 119.907 219.095C118.983 223.172 118.232 227.278 117.615 231.413C117.318 233.404 117.054 235.4 116.822 237.4C116.575 239.536 116.518 241.733 115.863 243.786C115.582 244.666 114.919 245.032 114.256 245L114.121 246.687C113.942 248.935 113.776 251.184 113.719 253.446C113.626 257.208 113.668 260.959 113.939 264.712L113.977 265.224C114.19 267.964 114.665 271.042 116.724 273.048C118.856 275.125 122.136 275.779 125.01 275.816C131.705 275.903 138.149 272.739 144.073 269.963C150.174 267.104 156.108 263.931 161.9 260.489C164.85 258.736 167.767 256.925 170.648 255.061C172.062 254.146 173.465 253.216 174.858 252.271C175.656 251.729 176.413 251.136 177.225 250.655C176.827 250.284 176.649 249.702 176.983 249.193C174.634 247.153 173.657 243.515 173.543 240.57C173.45 238.194 173.8 235.824 174.076 233.47C174.215 232.282 174.387 231.097 174.566 229.916C174.636 229.449 174.69 228.949 174.772 228.456C168.432 231.942 161.913 235.047 155.222 237.804C151.792 239.218 148.319 240.489 144.797 241.654L144.083 241.889C140.747 242.982 137.33 244.014 133.881 244.638C133.696 244.672 133.546 244.399 133.743 244.313C137.105 242.829 140.583 241.577 143.995 240.21L144.556 239.982V239.982C144.491 239.978 144.425 239.969 144.355 239.953C142.354 239.47 140.368 238.725 138.406 238.098C136.584 237.516 134.538 237.151 132.835 236.273C132.704 236.205 132.777 236.023 132.905 236.014C134.819 235.881 136.896 236.439 138.772 236.768L139.477 236.891C140.658 237.099 141.865 237.323 143.04 237.615C143.082 237.222 143.302 236.826 143.615 236.594C147.058 234.043 146.709 228.892 147.077 225.093L147.35 222.272C147.83 217.336 148.338 212.4 149.11 207.501C149.151 207.24 149.556 207.315 149.558 207.562C149.598 213.635 149.139 219.68 148.91 225.743L148.874 226.738C148.747 230.48 148.647 234.365 146.292 237.244C146.621 237.051 147.067 237.051 147.333 237.369C147.661 237.759 147.851 238.197 147.845 238.627C149.973 237.735 152.092 236.819 154.201 235.884C160.982 232.879 167.62 229.516 174.082 225.878C174.778 225.486 175.439 225.794 175.783 226.31L175.832 226.303C175.84 226.302 175.849 226.301 175.858 226.301L175.907 226.299C175.909 226.299 175.911 226.299 175.912 226.299C176.822 225.799 178.061 226.155 178.842 226.884C178.865 226.906 178.885 226.93 178.905 226.953C179.893 226.509 180.816 225.91 181.654 225.151C183.367 223.597 184.819 221.676 186.085 219.749C188.415 216.2 190.395 212.254 193.543 209.333C196.101 206.96 199.272 205.482 202.599 204.555C202.585 204.458 202.622 204.354 202.689 204.285C202.86 204.11 202.982 204.049 203.203 204.156C203.22 204.164 203.231 204.176 203.238 204.189L203.562 203.634C203.74 203.333 203.922 203.029 203.985 202.95C204.362 202.474 204.751 202.002 205.146 201.54C205.815 200.757 206.577 199.985 207.46 199.442C209.393 198.254 211.426 198.926 213.413 199.576C214.614 199.968 215.811 200.373 217.009 200.772L217.133 200.812C218.027 201.099 219.073 201.351 219.472 202.298C219.631 202.673 219.655 203.062 219.581 203.439C228.071 201.28 237.5 202.272 245.785 204.807C246.103 204.905 246.42 205.166 246.487 205.51C247.436 210.38 247.859 215.374 247.43 220.326C247.059 224.602 246.112 228.791 244.328 232.705L244.226 232.926C242.55 236.553 239.892 241.025 235.833 242.162C233.382 242.848 230.671 242.444 228.171 242.318C225.742 242.195 223.259 242.178 220.852 241.796C218.709 241.455 216.831 240.494 215.507 238.751C214.364 237.247 213.763 235.429 213.27 233.621C213.044 233.693 212.82 233.77 212.6 233.856C211.668 234.22 210.88 234.807 210.166 235.498C208.66 236.957 207.492 238.729 205.916 240.121C204.49 241.382 202.864 242.362 201.121 243.116C197.508 244.678 193.632 245.302 189.81 246.129L189.543 246.187C186.666 246.819 183.73 247.594 181.19 249.093C181.141 249.534 180.94 249.949 180.618 250.221C181.066 250.642 181.255 251.308 180.862 251.933C179.762 253.679 177.869 254.672 176.169 255.788L176.058 255.861C174.386 256.97 172.699 258.057 170.998 259.122C167.541 261.288 164.011 263.334 160.431 265.29C154.674 268.437 148.793 271.405 142.806 274.097C143.165 275.866 143.034 277.689 143.304 279.47L143.346 279.724C143.461 280.385 143.305 280.937 142.85 281.369L142.802 281.413L142.803 281.407L142.76 281.447L142.746 281.459L142.751 281.455C142.698 281.503 142.644 281.548 142.589 281.586L142.519 281.631V281.631C142.08 281.897 141.516 281.894 141.068 281.659L141.016 281.631L140.93 281.582C140.337 281.24 139.929 280.395 140.174 279.724C140.779 278.074 141.007 276.312 141.565 274.651L141.123 274.849V274.849L140.539 275.104C134.227 277.834 127.215 280.134 120.337 278.272C117.299 277.45 114.458 275.709 112.938 272.873C111.442 270.082 111.23 266.841 111.151 263.736C111.053 259.904 111.258 256.014 111.763 252.214C112.102 249.664 112.512 247.066 113.145 244.542C112.82 244.255 112.58 243.843 112.517 243.333C112.219 240.922 112.741 238.416 113.061 236.019C113.373 233.677 113.719 231.34 114.109 229.011C114.897 224.307 115.813 219.612 116.879 214.963C118.777 206.688 121.283 198.561 124.3 190.627L124.564 189.936C127.352 182.685 130.58 175.589 135.074 169.219C137.224 166.171 139.497 163.408 142.535 161.211C145.381 159.154 148.592 157.672 151.905 156.54C155.222 155.407 158.631 154.647 162.1 154.175C165.623 153.695 169.342 153.401 172.629 151.955C172.213 151.21 172.57 150.203 173.27 149.74C175.624 148.184 177.802 146.159 179.912 144.288ZM255.294 211.967C255.393 211.817 255.627 211.912 255.584 212.089C254.438 216.783 253.363 221.487 252.661 226.27C251.394 234.904 251.627 243.65 251.731 252.348L251.736 252.797C251.789 257.482 251.863 262.167 252.018 266.85C252.096 269.217 252.251 271.607 252.167 273.975C252.121 275.26 251.779 276.475 251.657 277.744C251.551 278.854 251.646 279.98 251.699 281.092C251.734 281.831 250.644 281.799 250.57 281.092L250.475 280.177C250.352 279.019 250.2 277.868 249.82 276.76C249.364 275.427 249.145 274.118 248.987 272.718C248.745 270.573 248.637 268.407 248.543 266.248L248.479 264.754C248.089 255.728 248.102 246.66 248.735 237.644L248.781 237C249.407 228.478 250.494 219.269 255.294 211.967ZM230.881 158.253C230.582 158.13 230.686 157.678 231.018 157.757L231.62 157.9C236.035 158.958 240.369 160.104 244.489 162.072C248.612 164.042 252.102 166.982 254.876 170.597C260.268 177.625 262.508 186.166 264.277 194.698C266.242 204.18 268.032 213.696 270.015 223.174L270.383 224.94C272.218 233.768 273.95 242.601 275.226 251.533L275.318 252.181C276.605 261.367 277.379 270.87 275.975 280.08C275.697 281.902 272.666 281.448 272.785 279.648C273.127 274.444 273.372 269.267 273.135 264.052C272.898 258.835 272.409 253.641 271.68 248.47C271.066 244.118 270.152 239.82 269.342 235.503L269.215 234.821C268.538 231.149 267.839 227.481 267.142 223.813L266.1 218.32C264.538 210.096 262.946 201.864 261.147 193.692L261.041 193.211C259.28 185.348 256.685 177.112 251.404 170.868C246.045 164.532 238.374 161.341 230.881 158.253ZM211.409 241.652C211.538 241.364 211.989 241.396 212.127 241.652C212.67 242.654 212.731 243.933 212.833 245.065L212.844 245.181C212.975 246.562 213.09 247.948 213.161 249.333C213.295 251.962 213.36 254.587 213.351 257.22C213.343 259.917 213.289 262.612 213.143 265.306L213.104 266.027C212.971 268.368 212.748 270.979 211.637 273.026C211.232 273.77 210.133 273.551 209.899 272.799C209.132 270.335 209.526 267.414 209.723 264.891L209.876 262.922C210.027 260.953 210.171 258.984 210.285 257.012C210.442 254.315 210.571 251.616 210.696 248.918C210.736 248.041 210.78 247.165 210.826 246.288L210.897 244.974C210.958 243.874 210.953 242.668 211.409 241.652ZM125.181 245.143L125.52 244.815C126.562 243.795 127.879 242.223 129.42 242.321C130.034 242.36 130.426 242.87 130.298 243.475C130.026 244.767 128.708 245.438 127.759 246.227C126.72 247.091 125.74 248.015 124.762 248.948C123.895 249.775 123.061 250.625 122.247 251.503L121.942 251.833C121.65 252.151 119.572 254.032 119.797 254.52L119.809 254.542C119.872 254.635 119.767 254.763 119.664 254.731C118.766 254.447 118.822 253.678 119.162 252.898C119.814 251.4 120.955 250.014 121.952 248.735C122.946 247.458 124.023 246.27 125.181 245.143V245.143ZM214.661 207.575C213.967 205.934 211.41 205.968 209.959 206.067C206.304 206.314 202.35 207.239 199.098 208.948C195.726 210.719 193.455 213.558 191.423 216.697L191.328 216.845C189.347 219.925 187.44 223.571 184.338 225.688C182.759 226.767 180.914 227.753 178.997 228.179C178.866 228.411 178.653 228.594 178.373 228.66L178.243 228.69C177.697 228.811 176.849 228.944 176.117 228.864C176.122 229.223 176.118 229.579 176.127 229.918C176.153 230.892 176.164 231.869 176.164 232.843C176.164 234.883 176.054 236.928 176.14 238.968C176.215 240.773 176.47 242.659 177.336 244.272C177.971 245.456 178.81 246.239 179.822 246.987C182.312 245.469 185.128 244.543 187.985 243.847C191.441 243.006 194.98 242.445 198.357 241.304C199.982 240.754 201.545 240.036 202.961 239.059C204.464 238.023 205.612 236.62 206.793 235.248L206.977 235.035C208.182 233.652 209.498 232.329 211.201 231.579C212.668 230.934 214.601 230.819 215.884 229.819C216.554 229.296 216.61 228.538 216.681 227.761C215.86 227.878 214.99 227.69 214.171 227.594L213.747 227.544C212.973 227.452 212.217 227.351 211.455 227.154C211.313 227.117 211.313 226.904 211.455 226.867C212.355 226.635 213.248 226.536 214.171 226.427L214.388 226.4C215.224 226.291 216.102 226.125 216.921 226.309C217.068 225.75 217.281 225.215 217.578 224.68C217.997 223.928 218.788 223.076 218.895 222.198C218.927 221.936 218.865 221.626 218.742 221.394L218.699 221.315C218.647 221.222 218.586 221.128 218.496 221.07C218.486 221.082 218.465 221.095 218.419 221.109C217.788 221.308 217.238 220.999 216.946 220.523C215.707 220.677 214.354 220.625 213.191 220.677L212.016 220.734C210.76 220.791 209.448 220.816 208.267 220.563C208.103 220.527 208.053 220.253 208.218 220.182C209.669 219.562 211.428 219.364 212.982 219.125C213.849 218.992 214.723 218.89 215.593 218.773C216.172 218.695 216.787 218.566 217.387 218.535C218.892 216.661 218.081 213.704 215.987 212.897C215.224 213.233 214.538 213.038 213.705 212.966C212.873 212.895 212.039 212.846 211.203 212.85C209.529 212.857 207.756 213.298 206.098 213.108C205.828 213.077 205.578 212.718 205.846 212.499C207.115 211.463 208.933 211.126 210.544 210.905L210.878 210.86C211.418 210.789 212.074 210.686 212.755 210.625C212.909 210.324 213.186 210.097 213.601 210.04C213.724 210.023 213.848 210.014 213.972 210.003L213.97 209.991V209.991C214.983 209.942 214.939 208.231 214.661 207.575ZM145.351 239.579C145.333 239.606 145.313 239.633 145.292 239.658L145.26 239.695L145.427 239.628L145.351 239.579V239.579ZM232.328 203.908C228.066 203.45 223.799 203.547 219.525 203.67C219.183 204.788 217.993 205.741 216.841 205.777C217.743 207.152 217.837 209.013 217.203 210.471C218.548 211.006 219.706 211.968 220.409 213.338C221.384 215.236 221.256 217.349 220.293 219.103C221.115 219.848 221.601 221.058 221.552 222.198C221.498 223.469 220.74 224.555 220.111 225.608C219.431 226.746 219.408 227.748 219.199 229.023C218.893 230.889 217.636 232.02 216.017 232.727L216.103 233.066C216.52 234.691 217.04 236.405 218.232 237.593C219.766 239.122 222.146 239.108 224.173 239.204L224.271 239.209C226.127 239.302 227.983 239.411 229.838 239.516L231.23 239.594C233.366 239.711 235.418 239.725 237.162 238.313C240.009 236.006 241.961 232.19 243.196 228.811C245.79 221.719 245.821 213.936 244.63 206.549C240.638 205.262 236.496 204.356 232.328 203.908ZM196.89 215.675L196.921 215.677C197.799 215.777 198.401 216.488 198.616 217.331C198.928 218.556 198.775 219.664 199.525 220.77C200.297 221.908 200.771 222.819 200.883 224.224C200.93 224.802 200.908 225.379 201.037 225.945L201.13 226.341C201.229 226.764 201.311 227.171 201.261 227.625C201.216 228.039 201.015 228.362 200.6 228.495C199.247 228.928 198.202 227.93 197.853 226.669C197.551 225.58 197.954 224.282 197.528 223.259C197.292 222.692 196.857 222.218 196.611 221.647C196.367 221.081 196.245 220.49 196.206 219.875C196.132 218.712 197.16 217.314 196.587 216.26C196.464 216.035 196.603 215.668 196.89 215.675ZM178.921 203.67C179.837 203.484 180.876 203.057 181.78 203.412C182.244 203.595 182.474 204.161 182.081 204.555C181.4 205.238 180.41 205.276 179.493 205.437L179.412 205.451C178.327 205.652 177.24 205.843 176.152 206.023C174.105 206.362 172.052 206.662 169.993 206.917C167.878 207.179 165.757 207.412 163.632 207.588L162.81 207.655C161.016 207.799 159.149 207.907 157.388 207.632C157.133 207.592 157.174 207.219 157.388 207.154C159.317 206.57 161.433 206.414 163.427 206.166C165.547 205.903 167.663 205.625 169.774 205.296C171.881 204.966 173.986 204.613 176.082 204.222C177.03 204.046 177.976 203.862 178.921 203.67ZM211.975 201.795C211.171 201.51 210.287 201.089 209.416 201.23C207.913 201.473 206.577 202.937 205.387 203.901L205.985 203.785C209.039 203.198 213.085 202.565 215.649 204.508C215.656 204.497 215.661 204.486 215.668 204.475C215.875 204.16 216.115 203.915 216.377 203.646C216.402 203.622 216.426 203.598 216.45 203.573L216.591 203.423L216.268 203.311C215.576 203.066 214.756 202.75 214.627 202.704L214.618 202.701C213.736 202.402 212.853 202.106 211.975 201.795ZM186.876 137.74C186.75 136.123 189.267 136.136 189.391 137.74C189.663 141.242 188.875 144.711 187.18 147.782C187.167 147.804 187.154 147.824 187.14 147.845C188.201 148.397 189.274 148.927 190.37 149.4C191.773 150.006 193.202 150.557 194.656 151.025C195.972 151.449 197.593 151.616 198.699 152.497C201.032 154.356 200.156 158.212 199.707 160.712L199.637 161.106C199.413 162.392 199.252 163.712 199.794 164.947C200.373 166.265 201.543 167.243 202.588 168.187L202.799 168.378C203.724 169.221 204.781 170.246 205.459 171.389C206.079 170.108 206.923 169.061 207.816 167.882C208.453 167.041 208 166.763 207.542 165.942C207.102 165.151 206.887 164.308 207.024 163.405C207.278 161.739 208.61 160.536 209.935 159.631C211.5 158.564 213.246 157.773 214.864 156.78C218.188 154.739 221.425 152.406 224.342 149.815C224.422 149.744 224.562 149.838 224.497 149.935C222.193 153.441 219.492 156.47 216.172 159.042C214.826 160.084 213.411 160.949 211.988 161.858L211.578 162.121C211.007 162.491 210.294 162.987 210.035 163.617C209.775 164.251 210.33 164.73 210.628 165.256C211.576 166.924 211.119 168.481 209.995 169.896L209.943 169.961C208.826 171.338 207.98 172.618 207.575 174.377C206.705 178.156 207.917 182.091 209.185 185.638L209.235 185.778C209.921 187.69 210.65 189.588 211.246 191.53L211.41 192.067C211.95 193.855 212.392 195.617 211.786 197.455C211.58 198.08 210.728 198.228 210.374 197.639C209.126 195.565 208.815 193.069 208.032 190.789C207.27 188.566 206.394 186.384 205.657 184.152C204.709 181.279 204.074 178.186 204.418 175.172C204.408 175.154 204.397 175.138 204.389 175.119L204.147 174.591C203.489 173.16 202.853 171.911 201.655 170.77C200.406 169.58 199.05 168.527 198.068 167.087C195.933 163.959 197.253 160.479 197.511 157.059L197.54 156.639C197.587 155.929 197.613 154.964 197.149 154.472C196.628 153.919 195.404 153.778 194.712 153.533C192.924 152.9 191.161 152.162 189.482 151.276C187.884 150.433 186.336 149.501 184.895 148.41L184.165 147.86C183.012 146.99 181.817 146.04 181.044 144.855C180.955 144.719 181.107 144.499 181.268 144.564C182.558 145.088 183.736 145.921 184.942 146.645C184.961 146.601 184.983 146.556 185.008 146.512C186.5 143.809 187.114 140.814 186.876 137.74ZM228.07 156.258C228.583 154.848 230.925 154.957 230.832 156.632C230.76 157.919 230.214 159.08 229.715 160.248L229.661 160.373C229.146 161.59 228.551 162.733 227.838 163.849C226.477 165.981 224.883 167.96 223.18 169.828C221.636 171.521 219.609 172.557 217.274 172.385C216.29 172.312 215.297 172.062 214.435 171.57C213.411 170.986 212.299 169.232 210.992 169.657C210.866 169.698 210.748 169.513 210.857 169.425C212.365 168.21 214.077 170.094 215.521 170.548C217.697 171.232 219.93 170.476 221.331 168.716C222.793 166.879 224.139 164.822 225.367 162.821C225.992 161.805 226.561 160.751 227.053 159.665C227.549 158.568 227.662 157.376 228.07 156.258ZM224.562 147.584C224.499 147.389 224.741 147.204 224.911 147.315C225.903 147.96 226.761 148.813 227.675 149.561C228.69 150.39 229.711 151.203 230.749 152.003C232.261 153.169 230.507 155.316 229.176 154.042C227.354 152.299 225.358 150.02 224.562 147.584ZM219.121 140.761C219.524 139.208 221.905 139.849 221.558 141.384L221.547 141.43C220.889 143.966 221.825 146.547 223.824 148.191L223.897 148.251C225.162 149.263 223.37 151.032 222.119 150.03C219.386 147.842 218.249 144.125 219.121 140.761Z" fill="black"/>
<path fill-rule="evenodd" clip-rule="evenodd" d="M239.804 91.3169C239.02 85.0565 236.557 78.4097 233.966 72.5733C228.141 60.2334 214.804 58.5344 202.848 55.9902C191.05 54.2719 178.557 52.7204 166.937 56.1487C160.404 57.7497 157.852 65.5328 158.883 71.6749C159.472 75.5022 161.213 79.1246 162.698 82.6717C165.65 89.9561 167.523 97.7547 167.526 105.641C167.323 110.795 166.596 116.678 172.517 118.861C178.15 121.664 178.626 129.262 185.681 133.572C188.533 139.352 196.304 139.861 201.896 141.202C205.431 141.879 209.005 142.377 212.59 142.699C222.969 144.029 231.271 141.02 236.704 131.771C240.34 126.142 243.047 119.643 242.379 112.821C241.712 105.637 240.603 98.491 239.804 91.3169Z" fill="white"/>
<path fill-rule="evenodd" clip-rule="evenodd" d="M202.938 40.9933C203.53 40.3216 204.443 40.552 204.997 41.0831C205.357 41.1894 205.707 41.3475 206.037 41.5568C206.783 41.461 207.564 41.461 208.296 41.4879C208.473 41.3883 208.664 41.2998 208.871 41.2237C210.349 40.6828 211.659 40.9576 212.739 41.6817C213.26 41.1892 213.916 40.8802 214.755 40.9269C215.504 40.9688 216.038 41.3213 216.495 41.7857C216.951 41.1277 217.689 40.6583 218.607 40.593C219.891 40.5017 221.125 41.0168 222.148 41.8142C222.744 41.1303 223.557 40.7371 224.462 40.7333C225.058 40.6251 225.687 40.6678 226.255 40.8394C227.08 41.0886 227.804 41.5555 228.381 42.1614C229.293 41.2873 230.41 40.6583 231.698 40.75C233.365 40.8705 234.747 42.0966 235.389 43.6056C236.517 44.0577 237.559 44.7025 238.429 45.6219C238.475 45.6703 238.52 45.721 238.566 45.7719C239.035 45.945 239.477 46.1904 239.866 46.5136C241.097 47.5388 241.372 49.0225 240.964 50.4764C241.021 50.7091 241.07 50.9458 241.114 51.1823C242.268 51.3577 243.316 52.0237 243.911 53.1079C244.727 54.5958 244.566 56.5569 243.683 57.9774C243.304 58.5884 242.822 59.1033 242.28 59.5535C242.892 60.9441 242.599 62.6037 241.612 63.7285C241.372 64.1163 241.076 64.4663 240.744 64.7831C241.111 66.2209 240.459 67.7044 239.157 68.4726L239.046 68.7514C239.027 68.7977 239.008 68.8438 238.989 68.8894C238.974 68.9486 238.957 69.0059 238.939 69.0636C238.908 69.5738 238.74 70.0745 238.407 70.5462C237.724 71.513 236.878 72.1434 236.43 73.272L236.385 73.3906C236.192 73.9246 235.569 74.3015 235.038 74.1366C237.985 80.1899 239.53 86.9254 240.59 93.5263C241.119 96.8194 241.527 100.124 241.858 103.441L242.183 106.744C242.468 109.68 242.722 112.626 242.724 115.572C242.728 122.236 240.823 128.646 236.733 133.949C232.864 138.962 227.39 142.596 221.206 144.026C214.822 145.502 207.333 144.92 201.607 141.543C199.919 140.55 201.398 138.161 203.116 138.961C206.367 140.474 209.671 141.598 213.275 141.85C216.789 142.097 220.311 141.657 223.642 140.507C229.154 138.603 233.844 134.615 236.859 129.648C238.344 127.201 239.42 124.544 239.992 121.737C240.705 118.239 240.598 114.623 240.336 111.08L240.318 110.838C239.8 104.011 239.118 97.1425 238.015 90.3838C237.04 84.407 235.541 78.5513 233.595 72.8252C232.833 72.1539 231.98 71.5985 231.068 71.1767C224.386 70.8975 217.692 70.979 211.019 71.4402C205.328 71.8361 199.664 72.5058 194.044 73.482L193.442 73.5877C192.197 73.8094 190.816 73.9363 189.643 74.4374C188.637 74.8685 188.23 75.697 187.976 76.7155C187.338 79.2919 187.241 82.1115 187.133 84.7534C187.028 87.3359 187.266 89.9399 187.059 92.5139C186.884 94.6676 186.333 96.872 184.737 98.4299C183.903 99.2455 182.876 99.6914 181.913 100.311C181.29 100.71 181.025 101.122 181.106 101.862C181.279 103.481 182.583 105.52 181.118 106.907C180.861 107.15 180.415 107.182 180.161 106.907C179.557 106.25 178.723 105.749 178.006 105.218C177.706 104.999 177.956 104.572 178.296 104.724C178.744 104.925 179.2 105.161 179.667 105.368C178.636 104.519 177.17 104.102 175.949 103.855C175.334 103.732 174.687 103.696 174.047 103.754C173.574 103.98 173.09 104.189 172.606 104.394C171.992 104.652 171.371 104.886 170.745 105.109C168.575 106.877 167.54 109.754 167.992 112.567C168.24 114.12 168.956 115.809 170.306 116.716C171.905 117.79 174.047 117.329 175.775 118.126C177.394 118.871 178.378 120.379 179.116 121.938L179.423 122.588C180.107 124.026 180.811 125.425 181.746 126.734C182.828 128.249 184.152 129.61 185.597 130.779C186.298 131.345 187.046 131.854 187.818 132.317L188.029 132.442C188.811 132.901 189.371 133.338 189.423 134.308C189.44 134.647 189.227 134.955 188.952 135.131C187.769 135.881 186.592 134.943 185.608 134.287C184.545 133.581 183.529 132.787 182.589 131.92C180.802 130.276 179.255 128.323 178.066 126.203C177.159 124.589 176.644 122.317 175.211 121.065C174.337 120.302 173.101 120.296 172.009 120.156C170.992 120.026 170.031 119.814 169.127 119.313C165.449 117.27 164.409 112.322 165.282 108.499C165.43 107.854 165.637 107.226 165.892 106.622C164.523 106.85 162.985 105.434 163.541 104.005C163.583 103.897 163.632 103.796 163.678 103.692C162.776 103.098 162.064 102.198 161.726 101.021C161.553 100.412 161.528 99.7971 161.618 99.2032C161.181 98.9096 160.82 98.5057 160.587 98.0091C159.861 97.673 159.216 97.1702 158.832 96.4516C158.299 95.4602 158.367 94.5471 158.773 93.725C158.716 93.6216 158.661 93.516 158.608 93.408C157.118 92.4634 156.079 90.8358 156.197 89.0309C156.235 88.4328 156.383 87.8938 156.611 87.4079C156.592 87.3466 156.573 87.283 156.556 87.2217C155.31 86.5877 154.279 85.5459 153.911 84.1553C153.544 82.7559 153.977 81.361 154.843 80.2873C153.575 79.3597 152.813 78.0641 153.275 76.1047C153.464 75.3081 153.842 74.583 154.353 73.9722C154.351 73.9534 154.347 73.9344 154.342 73.9151L154.224 73.8231C152.659 72.5878 151.759 71.0135 152.72 69.0773C153.151 68.2068 153.766 67.6 154.488 67.2005L154.524 67.0864V67.0864C154.006 65.9768 153.831 64.7446 154.188 63.4491C154.48 62.382 155.171 61.5321 156.054 60.968C155.995 60.4902 156.003 59.981 156.098 59.4292C156.256 58.4973 156.719 57.6836 157.395 57.1066C157.421 56.9839 157.452 56.8636 157.488 56.7429C157.716 56.0055 158.143 55.2045 158.637 54.6104C159.045 54.1179 159.502 53.9383 160.059 53.9193C160.025 53.4651 160.049 53.0041 160.142 52.537C160.427 51.0958 161.344 49.7409 162.702 49.1259C163.26 48.8743 163.847 48.8006 164.414 48.8617C164.895 47.8472 165.835 47.1119 166.991 46.9534C167.441 46.89 167.859 46.894 168.244 46.9513C168.461 46.8496 168.687 46.7589 168.924 46.6763C169.08 46.6214 169.239 46.5706 169.397 46.5201C169.932 45.8565 170.635 45.3258 171.457 45.0068C172.406 44.637 173.371 44.6748 174.227 44.9855L174.499 44.9284V44.9284C174.926 44.1887 175.606 43.6159 176.652 43.356C177.84 43.0622 179.059 43.4722 179.992 44.2185C179.997 44.2185 180.001 44.2185 180.007 44.2162C180.495 43.1235 181.33 42.3626 182.73 42.4155C183.603 42.4493 184.391 42.8828 184.999 43.4999C185.337 43.4574 185.675 43.4194 186.016 43.3816C186.375 42.9608 186.774 42.5679 187.216 42.2149C187.938 41.6356 188.878 41.6823 189.411 42.4979C189.527 42.6754 189.635 42.8551 189.742 43.0347L190.23 43.0009V43.0009C190.805 42.2253 191.589 41.7011 192.662 41.6591C193.647 41.6187 194.348 42.1008 194.883 42.7748C195.318 42.7642 195.755 42.756 196.192 42.7494C196.702 42.1597 197.302 41.6398 197.986 41.2087C198.51 40.879 199.283 40.9912 199.708 41.4308C199.995 41.7296 200.262 42.0416 200.51 42.3645C201.15 41.6468 202.014 41.174 202.938 40.9933ZM171.844 108.108C172.83 107.545 174.157 108.154 175.112 108.632C176.276 109.213 177.432 110.09 178.144 111.189C179.114 112.685 176.834 113.894 175.814 112.552C175.186 111.726 174.685 110.893 173.925 110.17C173.23 109.507 172.222 109.063 171.823 108.188C171.808 108.158 171.812 108.124 171.844 108.108ZM172.537 71.7868L172.556 71.734C172.837 70.9662 171.612 70.6352 171.334 71.3967C170.912 72.5509 171.398 73.8056 172.538 74.304C172.854 74.4422 173.214 74.3943 173.405 74.0766C173.565 73.8092 173.491 73.346 173.177 73.2092C172.536 72.9287 172.322 72.4336 172.537 71.7868V71.7868ZM161.987 69.6398C162.6 69.0987 161.701 68.2045 161.091 68.7432C160.522 69.2458 160.1 69.9285 160.209 70.7136C160.321 71.5138 160.924 72.0787 161.584 72.478C162.284 72.9013 162.922 71.8053 162.224 71.383L162.146 71.335C161.853 71.153 161.51 70.9028 161.46 70.5448C161.408 70.1643 161.73 69.8674 161.987 69.6398ZM165.468 60.0927L165.511 60.0607C166.169 59.5907 165.537 58.4904 164.871 58.9657C164.261 59.4017 163.771 59.9682 163.719 60.7493C163.669 61.5085 164.055 62.1666 164.56 62.7007C165.122 63.2948 166.018 62.397 165.457 61.8042C164.91 61.2264 164.804 60.5959 165.468 60.0927V60.0927Z" fill="black"/>
<path fill-rule="evenodd" clip-rule="evenodd" d="M222.453 124.137C222.777 123.574 223.523 123.051 224.206 123.131C227.265 123.49 227.259 127.2 226.078 129.366C225.031 131.287 222.863 132.414 220.694 132.249C218.415 132.076 216.473 130.736 215.619 128.603C215.054 127.192 214.793 124.588 216.296 123.64C216.324 123.622 216.37 123.627 216.392 123.652C217.113 124.491 217.141 125.751 217.772 126.685C218.359 127.553 219.271 128.271 220.339 128.381C221.137 128.464 221.944 128.176 222.256 127.46C222.425 127.072 222.406 126.862 222.342 126.595L222.285 126.363C222.085 125.551 221.995 124.933 222.453 124.137ZM223.27 107.866C224.866 108.837 227.296 111.099 225.58 113.504C223.56 115.624 220.651 113.193 219.218 112.093C217.889 111.241 216.396 113.433 217.629 114.428C227.986 122.099 232.189 108.12 224.077 106.726C223.184 106.572 222.852 107.566 223.27 107.866ZM206.423 101.214C207.402 99.7445 209.637 99.9609 210.177 101.705C210.469 102.65 210.065 103.499 210.086 104.442C210.104 105.239 210.052 106.127 209.807 106.899C209.251 108.659 207.668 109.903 205.796 109.851C203.93 109.8 202.287 108.618 201.505 106.954C200.721 105.284 200.887 103.555 201.46 101.857C201.487 101.775 201.594 101.736 201.658 101.805C202.335 102.524 202.831 103.284 203.343 104.089L203.869 104.915C204.27 105.537 204.854 106.331 205.603 106.281L205.716 106.27C205.924 106.252 205.892 106.294 206.053 106.01C206.127 105.878 206.114 105.634 206.15 105.479L206.162 105.426V105.426L206.155 105.398C206.139 105.323 206.124 105.181 206.111 104.936L206.108 104.881C206.054 103.732 205.729 102.256 206.423 101.214ZM231.245 102.193C231.07 100.313 233.711 99.8955 234.59 101.286C235.048 102.012 235.181 102.923 235.282 103.786L235.33 104.196C235.434 105.082 235.475 106.005 235.09 106.832C234.484 108.134 233.167 108.823 231.745 108.714C230.388 108.609 229.149 107.822 228.496 106.627C227.914 105.561 227.336 103.478 228.043 102.366C228.085 102.299 228.171 102.29 228.229 102.342C228.897 102.935 229.006 104.017 229.403 104.79C229.813 105.587 230.434 106.364 231.376 106.485C232.277 106.601 232.621 106.109 232.391 105.25C232.095 104.141 231.357 103.386 231.245 102.193ZM207.137 90.0387L207.569 89.8732C209.049 89.3138 211.081 88.6673 212.285 89.8713C213.027 90.6138 213.168 91.7075 212.638 92.6136C211.996 93.7111 210.845 93.7382 209.733 93.8999C208.468 94.0838 207.181 94.4333 206.004 94.9317C204.677 95.4933 203.446 96.1932 202.24 96.975C201.094 97.7179 199.951 98.9321 198.579 99.161C198.523 99.1703 198.46 99.1462 198.445 99.0847C198.133 97.7427 198.999 96.4219 199.772 95.3749C200.707 94.1072 201.84 93.0667 203.107 92.1338C204.329 91.2333 205.725 90.5825 207.137 90.0387ZM234.024 94.8103L234.156 94.7872C235.054 94.6377 235.867 94.6722 236.544 95.3833C237.06 95.9259 237.259 96.629 237.013 97.3463C236.786 98.0081 236.278 98.6804 235.541 98.819C233.052 99.2874 230.296 99.21 227.795 98.8554C226.651 98.693 225.496 98.4944 224.382 98.1812L223.869 98.0325C222.938 97.7666 221.873 97.4888 221.197 96.8042C220.954 96.5582 221.094 96.2061 221.385 96.0922C222.564 95.6302 224.181 95.876 225.438 95.8398C226.901 95.798 228.366 95.6883 229.822 95.5372C231.245 95.3892 232.621 95.0678 234.024 94.8103Z" fill="black"/>
<path fill-rule="evenodd" clip-rule="evenodd" d="M204.449 129.599C206.159 125.59 209.892 122.644 214.191 121.567C217.347 120.778 220.66 120.803 223.877 121.116C225.563 121.279 227.371 121.412 228.96 122.039C230.316 122.574 231.422 123.585 232.253 124.772C233.243 126.179 233.916 127.789 234.388 129.439C234.456 129.674 234.519 129.91 234.578 130.148C234.372 131.393 233.936 132.453 232.783 133.236C231.658 134 230.316 134.313 228.978 134.424C228.846 134.361 228.719 134.296 228.603 134.23C226.518 133.035 225.05 130.213 222.419 130.595C220.07 130.936 218.524 133.893 217.127 135.626C212.644 136.149 208.163 134.801 204.515 132.237C204.33 131.359 204.319 130.473 204.449 129.599M237.625 126.558C237.266 125.551 236.814 124.576 236.279 123.657C234.509 120.619 231.791 118.198 228.565 116.814C220.934 113.546 211.059 115.85 204.897 121.211C202.791 123.044 200.663 125.737 200.019 128.634C199.827 128.672 199.645 128.772 199.496 128.913C195.043 126.108 190.458 123.41 186.87 119.523C184.264 116.698 182.452 113.355 181.342 109.682C181.251 109.38 180.764 109.424 180.779 109.759C180.783 109.837 180.787 109.915 180.791 109.993C180.745 109.849 180.525 109.923 180.508 110.063C179.911 114.525 179.164 119.256 179.852 123.742C180.264 126.418 181.479 128.377 183.104 130.493C184.844 132.761 186.815 134.87 188.83 136.893C190.108 138.177 191.444 139.658 193.009 140.6C194.83 141.694 196.896 142.525 198.839 143.369C200.816 144.231 202.822 145.026 204.867 145.716C208.954 147.1 213.178 148.056 217.476 148.475C220.917 148.809 224.85 149.173 228.147 147.878C230.675 146.886 232.715 145.092 234.333 142.934C236.095 140.583 237.488 137.905 238.258 135.082C239.058 132.149 237.793 127.03 237.625 126.558" fill="black"/>
</g>
<g opacity="0.6">
<path fill-rule="evenodd" clip-rule="evenodd" d="M282.208 120.346C282.271 120.416 282.132 120.509 282.062 120.458C281.258 119.875 279.99 120.206 279.213 120.47C279.213 120.47 278.929 129.625 279.244 129.842C279.558 130.058 283.985 129.93 283.985 130.473C283.985 132.248 281.323 132.915 279.877 132.809C277.602 132.643 275.256 132.319 272.984 132.582C270.712 132.845 265.884 134.295 263.413 132.29C260.466 129.899 260.865 125.969 263.317 123.404C264.862 121.787 267.137 120.816 269.38 120.098C272.662 119.046 280.397 118.367 282.208 120.346ZM276.155 127.067C274.965 127.531 269.048 129.486 267.642 129.842C269.285 129.724 274.895 129.593 276.155 128.984C276.296 128.413 276.386 126.977 276.155 127.067ZM277.058 120.721C273.838 121.245 266.884 123.604 265.884 124.86C267.403 124.621 275.873 123.604 276.828 123.604C276.967 122.865 276.875 121.569 277.058 120.721ZM278.087 106.387C279.683 107.357 282.114 109.619 280.397 112.024C278.377 114.145 275.469 111.713 274.035 110.614C272.706 109.761 271.213 111.953 272.446 112.948C282.803 120.619 287.006 106.64 278.894 105.246C278.001 105.093 277.669 106.087 278.087 106.387ZM281.624 92.2312C282.561 92.2235 283.107 92.8315 283.81 93.373C284.533 93.9308 285.405 94.3757 286.25 94.7164C287.132 95.0712 288.074 95.3529 289.002 95.5539C289.964 95.7619 290.849 95.6645 291.803 95.8405C294.335 96.3074 293.736 100.53 291.197 100.321C288.913 100.133 286.46 98.7291 284.727 97.2731C283.9 96.5774 283.201 95.7802 282.521 94.947L282.393 94.7903C281.789 94.0451 281.226 93.2823 281.528 92.304C281.542 92.2617 281.579 92.2317 281.624 92.2312ZM260.51 104.555C260.513 103.207 261.297 100.13 263.237 100.13C264.449 100.13 265.184 102.224 265.311 104.383L265.316 104.471C265.372 105.813 265.004 108.747 263.237 108.747C261.451 108.747 260.528 105.968 260.51 104.602L260.51 104.555ZM289.064 104.555C289.062 103.207 288.277 100.13 286.337 100.13C285.156 100.13 284.427 102.121 284.274 104.221L284.263 104.383C284.186 105.68 284.531 108.747 286.337 108.747C288.123 108.747 289.046 105.968 289.064 104.602L289.064 104.555ZM266.857 92.4323C268.066 91.91 269.452 92.0584 270.181 93.3041C270.87 94.483 270.401 95.9039 269.309 96.6293C268.237 97.3418 266.797 97.7292 265.564 98.1367L265.428 98.1821C264.233 98.5843 263.038 98.9131 261.803 99.1701C260.65 99.4103 259.488 99.5881 258.319 99.7299L257.969 99.7714C257.057 99.8767 255.785 100.231 254.965 99.712C254.892 99.6662 254.864 99.5713 254.908 99.4952C255.385 98.6678 256.653 98.3381 257.467 97.919C258.512 97.3804 259.541 96.807 260.562 96.2239C261.593 95.6343 262.622 95.0349 263.643 94.4262C264.703 93.794 265.729 92.9188 266.857 92.4323Z" fill="black"/>
</g>
<g opacity="0.6">
<path fill-rule="evenodd" clip-rule="evenodd" d="M135.507 120.752C136.231 119.473 138.394 119.681 138.725 121.173C139.396 124.198 135.79 126.992 133.051 127.062C130.329 127.131 127.275 124.813 127.669 121.886C127.767 121.162 128.733 121.25 129.063 121.704L129.191 121.878C130.086 123.081 131.267 124.326 132.929 124.033C133.617 123.912 134.242 123.481 134.659 122.928C135.161 122.259 135.105 121.461 135.507 120.752ZM118.2 98.6196C118.569 98.5179 118.941 98.5573 119.268 98.6963C119.998 98.8301 120.607 99.4388 120.821 100.134C120.838 100.194 120.857 100.253 120.878 100.312L120.911 100.4L120.823 100.177C120.863 100.396 121.042 100.627 121.106 100.847C121.185 101.118 121.204 101.425 121.178 101.723C121.41 101.726 121.642 101.734 121.873 101.754L122.097 101.774C123.348 101.89 124.722 102.104 125.464 103.185C125.881 103.793 125.49 104.887 124.724 105.004C123.546 105.185 122.531 104.533 121.357 104.402C120.247 104.278 119.085 104.349 117.99 104.55C115.728 104.963 113.649 105.881 111.445 106.456L111.145 106.532V106.532L111.145 106.531C110.767 106.622 110.338 106.097 110.712 105.789C112.478 104.338 114.739 103.162 116.966 102.446C116.642 101.929 116.542 101.249 116.763 100.695C116.798 100.58 116.84 100.468 116.885 100.357L116.979 100.128V100.128C116.988 100.02 117.009 99.9131 117.039 99.8085L117.044 99.7765V99.7765L117.047 99.7784V99.7784C117.212 99.2393 117.645 98.7726 118.2 98.6196ZM140.73 98.7031C141.213 98.2197 141.892 98.2911 142.396 98.6716L142.463 98.724V98.724C142.938 98.9351 143.331 99.3965 143.589 99.8241C143.858 100.268 144.036 100.72 144.043 101.209C145.212 101.213 146.332 101.564 147.19 102.508C147.467 102.813 147.657 103.283 147.504 103.696L147.413 103.942V103.942C147.125 104.722 145.829 105.172 145.389 104.254L145.368 104.209C144.9 103.119 143.104 103.234 142.149 103.345C141.484 103.423 140.826 103.589 140.184 103.774C139.957 103.839 139.733 103.91 139.509 103.983L139.285 104.055C139.165 104.094 138.542 104.432 138.93 104.352C139.034 104.331 139.112 104.482 139.006 104.533C138.544 104.754 138.051 104.314 138.082 103.818C138.136 102.957 139.503 102.484 140.161 102.187L140.2 102.169C140.453 102.053 140.717 101.941 140.99 101.837C140.836 101.609 140.71 101.355 140.604 101.083C140.505 100.826 140.438 100.576 140.401 100.303C140.365 100.169 140.365 100.036 140.401 99.9021L140.407 99.8638V99.8638C140.388 99.7755 140.379 99.6842 140.381 99.5922L140.377 99.5565H140.381C140.394 99.2346 140.521 98.9121 140.73 98.7031ZM133.014 107.877C134.869 108.45 137.93 110.013 136.963 112.425C135.613 114.639 132.032 113.012 130.297 112.296C128.738 111.779 127.927 113.965 129.434 114.624C141.89 119.554 141.844 106.543 133.465 106.734C132.543 106.755 132.514 107.686 133.014 107.877ZM116.534 90.9122L116.85 90.8198C118.495 90.3432 120.174 89.5202 121.634 90.8043C122.207 91.3086 122.326 92.3565 121.915 92.9855C120.981 94.4186 119.594 94.1997 118.085 94.3218C116.936 94.4148 115.803 94.7526 114.731 95.1746C113.854 95.5198 113.041 96.0057 112.273 96.5476C111.519 97.0804 111.003 97.9133 110.23 98.3929C109.946 98.5687 109.619 98.3878 109.517 98.1027C109.156 97.0914 109.766 95.8315 110.282 94.9698C110.912 93.9186 111.868 93.0588 112.897 92.4083C114.023 91.6958 115.269 91.2844 116.534 90.9122V90.9122ZM140.499 89.824C143.279 89.8231 145.954 91.37 147.509 93.6376C148.037 94.408 147.65 95.5492 146.892 95.9929C146.041 96.4908 145.131 96.1322 144.57 95.4187L144.537 95.3755C143.645 94.1875 142.496 93.2519 141.133 92.6428C140.468 92.3454 139.733 92.1042 139.014 91.9819L138.782 91.942C138.456 91.8874 138.078 91.8353 137.783 91.8863C137.626 91.907 137.481 91.9592 137.347 92.0387C137.411 92.1791 137.245 92.3481 137.092 92.264C136.401 91.8844 136.486 91.2073 137.057 90.681C137.864 89.9364 139.456 89.8242 140.499 89.824Z" fill="black"/>
</g>
<g opacity="0.3">
<path fill-rule="evenodd" clip-rule="evenodd" d="M78.0879 120.836C80.0573 120.13 82.1476 120.396 84.1344 121.129L84.3125 121.196C86.1376 121.892 88.3677 123.101 89.1144 124.989C89.2623 125.363 89.3316 125.746 89.3408 126.127C89.5849 126.151 89.8268 126.183 90.0666 126.225C90.5601 126.312 90.5368 127.096 90.0666 127.199C89.7687 127.265 89.4653 127.312 89.1592 127.348C88.8761 128.229 88.2902 129.028 87.5504 129.588C85.8184 130.9 83.4315 131.147 81.3378 131.348C79.0226 131.57 76.6959 131.515 74.3893 131.235L73.5773 131.131C71.6885 130.885 69.5823 130.57 67.9764 129.559C66.4648 128.608 65.4309 126.771 66.0708 124.987C66.7259 123.16 68.9717 122.385 70.6386 121.798C73.0337 120.955 75.5825 120.625 78.0879 120.836ZM74.7461 126.959C74.7696 127.492 74.7896 128.027 74.8108 128.561C74.8171 128.725 74.77 128.873 74.6897 129.001C75.8352 129.135 76.9908 129.199 78.1433 129.198C77.9325 128.561 77.9213 127.829 77.9092 127.149C76.8539 127.097 75.7999 127.036 74.7461 126.959ZM78.9877 127.199L79.0796 127.544C79.222 128.085 79.3514 128.641 79.3323 129.175C79.8695 129.154 80.4051 129.122 80.9377 129.076L81.6172 129.018C81.7717 129.005 81.928 128.991 82.0855 128.976C82.1204 128.423 82.1855 127.862 82.2433 127.309C81.1578 127.28 80.0726 127.245 78.9877 127.199ZM83.2937 127.333C83.3431 127.822 83.3892 128.322 83.4086 128.817C84.2807 128.681 85.1361 128.469 85.8669 128.096C86.2345 127.907 86.5292 127.68 86.7489 127.428C86.0108 127.411 85.2747 127.373 84.5606 127.362C84.4199 127.359 84.2791 127.357 84.1383 127.353L83.2937 127.333ZM68.1448 126.208C68.2018 127.229 69.814 127.957 70.6441 128.196C71.4361 128.425 72.2423 128.611 73.0567 128.758C73.0413 128.69 73.0337 128.623 73.0392 128.561C73.091 127.985 73.1419 127.41 73.1962 126.835L72.7591 126.8C71.2229 126.682 69.6255 126.587 68.1448 126.208ZM78.2055 122.321C78.3346 123.6 78.5137 124.871 78.7525 126.133L79.1896 126.142V126.142C80.2389 126.159 81.2885 126.166 82.3381 126.167C82.3408 126.115 82.3436 126.064 82.3455 126.013C82.3848 124.945 82.3698 123.877 82.3307 122.81C80.9974 122.516 79.6018 122.42 78.2055 122.321ZM82.8782 122.944C82.995 124.016 83.0924 125.089 83.1811 126.164L84.1008 126.163C84.254 126.162 84.4072 126.162 84.5605 126.16C85.4218 126.152 86.3068 126.096 87.1908 126.072C87.1248 125.611 86.8532 125.141 86.3525 124.714C85.2927 123.81 84.1172 123.277 82.8782 122.944ZM77.3857 122.076C76.3725 122.185 75.3669 122.363 74.3758 122.612C74.6346 123.362 74.5852 124.221 74.6399 125.005C74.6642 125.35 74.684 125.696 74.7022 126.041C75.7623 126.067 76.8225 126.092 77.8826 126.114C77.8488 124.843 77.8706 123.573 77.9422 122.303L77.8266 122.294V122.294C77.6551 122.282 77.5019 122.197 77.3857 122.076ZM73.704 122.792C73.2407 122.924 72.781 123.072 72.3257 123.236L71.8291 123.416C70.632 123.852 69.0478 124.484 68.3805 125.46C68.2683 125.624 68.2009 125.783 68.1677 125.936C69.8458 125.781 71.5858 125.937 73.2792 126.001C73.3022 125.78 73.3261 125.558 73.3513 125.337L73.3901 125.005C73.4767 124.288 73.4758 123.492 73.704 122.792ZM82.0877 107.444C83.6831 108.414 86.1139 110.676 84.3977 113.081C82.3775 115.201 79.4689 112.77 78.0356 111.67C76.7066 110.818 75.2133 113.01 76.4464 114.005C86.8035 121.676 91.0067 107.697 82.8947 106.303C82.0015 106.149 81.6698 107.144 82.0877 107.444ZM62.5331 95.6811C64.8002 91.7394 70.4092 91.694 73.6181 94.704C76.6819 97.5782 77.0609 102.482 74.6138 105.843C72.0057 109.425 66.9393 110.416 62.8308 109.14C58.9794 107.943 56.9092 103.762 58.2294 99.9324C58.9435 97.8607 60.5871 96.4284 62.5331 95.6811ZM60.4209 89.079C62.3369 87.3823 65.8183 85.7437 68.4019 86.5787C69.8874 87.0587 70.5349 89.4531 68.8767 90.212C66.9564 91.0908 64.7426 90.7332 62.7881 91.6441C61.9674 92.0269 61.1954 92.5052 60.6239 93.2067C60.1737 93.7595 59.7157 94.487 59.0645 94.8057C58.8934 94.8896 58.6617 94.8917 58.5245 94.7362C57.0972 93.1211 59.1746 90.1824 60.4209 89.079ZM87.7894 86.4945C88.9735 86.162 90.2872 86.1688 91.4902 86.3776C92.6927 86.5864 93.9136 87.085 94.8954 87.8123L95.0093 87.8974C96.0811 88.7054 97.3601 89.8809 97.2916 91.3122C97.2343 92.5074 95.9775 93.3158 94.8924 92.6894C94.0078 92.1785 93.5916 91.1552 92.8427 90.4738C92.2247 89.9114 91.4988 89.468 90.7243 89.1573C89.864 88.8122 89.0023 88.6505 88.079 88.635C87.3681 88.6232 86.653 88.8565 85.9554 88.9311C86.0128 89.0491 85.4614 88.9941 85.1454 88.8895C84.9113 88.7898 84.91 88.4936 84.9911 88.3015C85.3936 87.3498 86.8579 86.7557 87.7894 86.4945ZM89.0783 93.1825C91.0618 92.7885 93.2673 93.2199 94.9274 94.3831C97.9042 96.469 99.2396 100.783 97.8562 104.156C96.4834 107.505 92.7311 109.635 89.153 108.995C85.5004 108.342 82.6749 104.663 83.069 100.955C83.2365 99.3773 83.9246 97.955 84.9427 96.8798C84.9505 96.8428 84.9592 96.8054 84.9737 96.767C85.6895 94.8612 87.0459 93.5863 89.0783 93.1825ZM70.9276 96.213C68.6533 94.8435 65.3095 95.6082 63.3559 97.2616C62.9681 97.59 62.5303 97.4938 62.2922 97.2072C60.9663 98.2779 60.0302 99.7758 59.8797 101.6C59.6104 104.871 61.9392 107.023 65.0769 107.27C68.2835 107.523 71.6021 106.628 73.1125 103.554C74.4166 100.901 73.4594 97.7375 70.9276 96.213ZM92.4571 96.3546C90.6763 95.6561 88.1223 96.0689 86.5674 97.2643C85.3837 98.7911 84.8075 100.886 85.2626 102.602C85.9201 105.08 88.2968 107.01 90.9079 106.735C93.3244 106.481 95.5076 104.546 95.767 102.089C96.0166 99.7261 94.7202 97.2423 92.4571 96.3546ZM90.9462 100.063C91.352 99.7731 91.8362 100.099 91.9848 100.485L92.0698 100.66C92.1147 100.754 92.1608 100.851 92.1624 100.854L92.1785 100.901C92.2 100.941 92.2258 100.979 92.2503 101.017C92.2693 101.03 92.4271 101.228 92.4483 101.254C92.7029 101.568 92.8381 101.856 92.83 102.27C92.8146 103.088 92.0515 103.664 91.2603 103.466C90.4093 103.253 90.047 102.372 90.1246 101.564C90.186 100.924 90.4191 100.439 90.9462 100.063ZM67.8422 100.219C68.2177 99.8773 68.797 99.8486 69.1675 100.219C69.371 100.422 69.4534 100.649 69.5993 100.885L69.6685 100.994C69.8205 101.227 69.9794 101.451 70.0202 101.738C70.117 102.412 69.908 103.039 69.2442 103.319C68.584 103.598 67.9726 103.313 67.5705 102.771C67.0948 102.128 67.2393 100.767 67.8422 100.219Z" fill="black"/>
</g>
<g opacity="0.1">
<path fill-rule="evenodd" clip-rule="evenodd" d="M32.1894 128.003C30.8391 128.014 29.321 127.507 28.306 127.11L28.0413 127.005C27.1626 126.653 26.2602 126.249 25.5873 125.571C25.372 125.351 25.1429 125.101 25.0265 124.839C24.9584 124.685 24.93 124.526 24.9959 124.368C25.2393 124.344 25.4699 124.313 25.6883 124.273C25.7923 124.254 25.892 124.235 25.9684 124.234C26.25 124.232 26.5285 124.268 26.8068 124.303C26.8471 124.308 26.8874 124.313 26.9277 124.318C27.1444 124.345 27.36 124.374 27.5753 124.403C28.2014 124.487 28.8241 124.571 29.4593 124.601C29.9179 124.623 30.3988 124.597 30.8839 124.571C32.1421 124.502 33.4429 124.409 34.4123 125.291C34.6662 125.521 34.7723 125.812 34.7723 126.109C34.7723 126.469 34.6209 126.835 34.3898 127.123C33.8665 127.774 33.0611 127.996 32.1894 128.003ZM39.5526 116.649C38.9651 117.531 37.9864 118.098 36.6453 118.036C33.9798 117.915 30.7986 116.909 28.5662 115.454C27.9848 115.075 27.6078 114.47 27.5402 113.821L27.42 112.667L26.77 113.628C26.7023 113.728 26.634 113.828 26.5657 113.928C26.3775 114.203 26.1894 114.478 26.012 114.76C25.3309 115.842 24.7066 116.936 24.1397 118.082C23.7383 118.894 23.4449 119.803 23.1506 120.719C22.6538 122.266 22.1739 123.787 21.1124 124.874C20.9519 125.039 20.7052 125.098 20.4793 125.069C20.2803 125.043 20.0852 124.945 19.9896 124.751C18.7214 122.171 20.4272 119.062 21.811 116.9L21.9574 116.674C23.2405 114.721 25.3361 112.136 27.7361 111.785L28.0109 112.223L28.4103 111.957C29.0637 111.521 29.9261 111.541 30.6812 111.882L31.4363 112.223C32.8419 112.854 34.2283 113.436 35.7491 113.755C35.86 113.778 35.9707 113.8 36.0813 113.82C36.1856 113.839 36.2906 113.857 36.3961 113.873C36.3734 113.77 36.3491 113.666 36.3247 113.564C36.299 113.455 36.273 113.345 36.2452 113.237C36.2165 113.124 36.1858 113.012 36.1552 112.901C36.0333 112.457 35.8957 112.018 35.7325 111.587C35.1185 109.968 34.1381 108.454 33.1841 107.01L33.0719 106.84C32.9351 106.633 32.7854 106.418 32.6304 106.194C31.8866 105.123 31.0616 103.96 31.0031 102.792C31.9906 102.854 32.8168 103.468 33.5442 104.002C34.5423 104.735 35.4673 105.573 36.3064 106.484C37.9341 108.25 39.3949 110.508 40.0355 112.842C40.4023 114.178 40.2409 115.616 39.5526 116.649V116.649ZM13.5107 103.334L13.5104 103.287C13.5134 101.939 14.298 98.8617 16.2375 98.8617C17.4491 98.8617 18.1847 100.956 18.312 103.115L18.3165 103.203C18.3727 104.545 18.0045 107.479 16.2375 107.479C14.4517 107.479 13.529 104.7 13.5107 103.334V103.334ZM42.0648 102.912L42.065 102.864C42.0621 101.516 41.2774 98.439 39.338 98.439C38.1566 98.439 37.4278 100.43 37.2741 102.53L37.2634 102.692C37.1869 103.989 37.5312 107.056 39.338 107.056C41.1237 107.056 42.0464 104.277 42.0648 102.912V102.912ZM20.0426 94.2133C19.7856 94.2435 19.5298 94.283 19.2742 94.3236C18.5284 94.4424 17.7867 94.5851 17.05 94.7514C15.6509 95.0674 14.2629 95.4664 12.9015 95.9172C11.6276 96.3393 10.3735 96.8163 9.11967 97.2932C9.05277 97.3186 8.98586 97.3441 8.91893 97.3695C8.47623 97.5379 8.03502 97.7266 7.59245 97.9159C6.91889 98.204 6.24225 98.494 5.55176 98.7126C7.37093 96.1963 10.1742 94.3318 12.8715 92.9976C14.4104 92.2363 16.0431 91.6225 17.6854 91.1195L18.6 90.8446C19.9468 90.4471 21.4193 90.0799 22.6844 90.8725C23.1848 91.1859 23.5041 91.6732 23.6046 92.2C23.7032 92.7166 23.5907 93.2705 23.2342 93.7328C22.9235 94.1355 22.5363 94.3648 22.1243 94.4434C21.6695 94.5302 21.1875 94.4349 20.7488 94.2005C20.3973 94.1743 20.2935 94.1837 20.1895 94.1953L20.0426 94.2133ZM40.3028 94.4693C39.4014 94.2733 38.5089 94.1946 37.5841 94.2228C37.1659 94.2354 36.7614 94.3 36.3579 94.365C35.7312 94.4661 35.1069 94.5704 34.4318 94.4478C34.0795 94.3838 33.7795 94.1777 33.5478 93.9087C33.2769 93.5941 33.0976 93.1921 33.0402 92.8099C32.9808 92.415 33.0399 92.0697 33.1859 91.7648C33.3584 91.4046 33.6491 91.101 34.0003 90.835C35.0632 90.0301 36.8869 90.2237 38.1413 90.3864C39.3808 90.5476 40.6136 90.9322 41.7094 91.5429C42.7904 92.1457 43.7302 92.9578 44.4636 93.9504C45.0817 94.787 45.3729 95.7499 45.6736 96.7303C44.2592 95.5433 42.0946 94.8584 40.3028 94.4693Z" fill="black"/>
</g>
<g opacity="0.3">
<path fill-rule="evenodd" clip-rule="evenodd" d="M312.342 123.613C312.364 121.284 314.381 120.882 316.297 121.193C319.541 121.718 322.797 122.087 326.085 122.154L326.652 122.164V122.164C326.743 122.031 326.895 121.93 327.102 121.907C328.925 121.71 330.787 121.742 332.62 121.688C334.218 121.641 335.861 121.481 337.459 121.607L337.587 121.618C339.54 121.807 341.602 122.805 341.366 125.098C341.149 127.222 339.12 129.102 337.499 130.283C337.171 130.519 336.836 130.741 336.491 130.943C336.383 131.081 336.225 131.177 336.043 131.197C334.447 132.059 332.686 132.569 330.863 132.739C326.999 133.099 322.506 132.709 318.795 131.034C317.588 130.489 316.462 129.809 315.467 128.974C313.933 127.685 312.324 125.732 312.342 123.613ZM327.568 128.23C326.019 128.183 324.472 128.4 322.996 128.878C321.996 129.201 321.085 129.822 320.127 130.253C323.356 131.485 327.107 131.754 330.42 131.529C331.873 131.431 333.282 131.096 334.595 130.519C334.39 130.371 334.183 130.221 333.967 130.09C333.312 129.694 332.627 129.356 331.912 129.087C330.521 128.565 329.053 128.277 327.568 128.23ZM328.087 107.866C327.669 107.566 328 106.572 328.894 106.726C337.006 108.12 332.802 122.099 322.445 114.428C321.212 113.433 322.705 111.241 324.034 112.093L324.506 112.457C326.041 113.634 328.578 115.412 330.397 113.504C332.113 111.099 329.682 108.836 328.087 107.866ZM333.579 97.2866C335.303 95.8148 337.466 96.8995 338.735 98.3903L338.959 98.6568C339.213 98.9609 339.494 99.3152 339.663 99.6939C341.07 98.4956 342.978 97.6523 344.804 98.1997C346.574 98.7325 347.584 100.423 347.28 102.239C346.935 104.303 345.373 105.69 343.696 106.763L343.22 107.065C341.204 108.351 339.318 109.646 337.658 111.414C337.388 111.701 336.803 111.663 336.625 111.28L336.483 110.973V110.973L336.338 110.665C335.161 108.154 333.9 105.66 332.865 103.091C332.098 101.186 331.849 98.7619 333.579 97.2866ZM313.922 98.6199L314.184 98.316C315.448 96.845 317.588 95.8601 319.276 97.2867C321.074 98.8063 320.721 101.319 319.92 103.257C318.956 105.595 317.83 107.881 316.748 110.174L316.517 110.665C316.42 110.87 316.325 111.075 316.23 111.28C316.052 111.663 315.465 111.701 315.196 111.413C313.589 109.701 311.77 108.435 309.827 107.19L309.241 106.817C307.536 105.734 305.924 104.337 305.573 102.239C305.273 100.427 306.277 98.726 308.049 98.1996C309.879 97.6566 311.782 98.4935 313.191 99.694C313.359 99.3057 313.649 98.9399 313.922 98.6199V98.6199ZM316.233 88.0667C316.851 88.8682 316.192 90.1779 315.291 90.385C314.175 90.6418 313.047 90.4856 311.952 90.8041C310.948 91.096 309.986 91.6808 309.126 92.2637C308.144 92.9282 307.24 93.67 306.41 94.5152C305.916 95.018 305.294 96.2092 304.532 96.2314C303.774 96.2536 304.791 93.8841 304.875 93.6791C305.472 92.2198 306.311 90.8768 307.361 89.7005C309.431 87.3792 313.817 84.9299 316.233 88.0667ZM339.357 87.4253L339.874 87.5689C341.153 87.9246 342.519 88.3617 343.616 89.1287L343.702 89.1897L343.835 89.2869C345.213 90.3143 347.161 92.3644 346.185 94.1529C346.118 94.2761 345.975 94.2884 345.86 94.2381C344.562 93.6693 343.6 92.5335 342.219 92.0584L341.965 91.9716C340.627 91.5211 338.973 91.0473 337.534 91.0904C336.522 91.4195 335.155 91.1469 334.892 89.9146L334.88 89.8542L334.857 89.7266C334.706 88.8846 334.931 87.8111 335.801 87.4053C336.994 86.8494 338.157 87.0968 339.357 87.4253Z" fill="black"/>
</g>
<g opacity="0.1">
<path fill-rule="evenodd" clip-rule="evenodd" d="M369.372 121.88C370.905 121.584 372.811 122.228 374.339 122.511L374.453 122.531C376.306 122.855 378.155 123.247 380.028 123.438C381.817 123.62 383.644 123.653 385.432 123.448C386.291 123.349 387.143 123.18 387.978 122.955C388.335 122.858 388.689 122.75 389.039 122.631L389.078 122.615C389.335 122.509 390.03 122.109 390.022 122.332C390.217 122.107 390.487 121.947 390.782 121.869C391.199 121.759 391.735 121.862 392.084 122.157C392.538 121.798 393.219 122.056 393.523 122.486C394.045 123.225 393.875 124.091 393.808 124.948L393.802 125.023C393.745 125.831 393.657 126.633 393.549 127.435L393.501 127.779C393.333 128.965 393.287 130.92 391.85 131.309C390.714 131.617 389.675 130.447 388.942 129.519L388.541 129.005C388.067 128.403 387.636 127.783 387.288 127.098C387.13 126.786 386.977 126.466 386.845 126.143C386.828 126.102 386.816 126.066 386.803 126.029C384.696 126.312 382.54 126.272 380.427 125.993C379.09 125.817 377.773 125.562 376.475 125.219L375.89 126.278C375.205 127.513 374.51 128.743 373.779 129.95L373.723 130.042C373.039 131.13 371.894 132.22 370.541 131.405C369.329 130.675 369.278 129.016 369.15 127.777C369.065 126.95 368.996 126.117 368.963 125.286L368.951 124.929C368.929 124.123 368.798 123.188 369.108 122.434C369.153 122.324 369.311 122.239 369.406 122.355C370.053 123.142 370.249 124.363 370.529 125.329C370.84 126.405 371.291 127.579 371.453 128.695L371.498 128.616V128.616C371.658 128.313 371.82 128.012 371.984 127.711L372.474 126.808C372.914 125.993 373.361 125.183 373.813 124.375C373.297 124.181 372.786 123.973 372.277 123.761L371.122 123.278C370.462 123 369.79 122.685 369.294 122.178C369.206 122.088 369.236 121.906 369.372 121.88ZM391.285 124.857C390.147 125.32 388.969 125.654 387.771 125.876C387.848 125.955 387.925 126.034 387.997 126.117C388.279 126.444 388.578 126.757 388.879 127.068L389.06 127.253C389.521 127.727 390.214 128.506 390.92 128.959L390.959 128.754C390.965 128.719 390.97 128.688 390.972 128.665L391.048 127.992C391.06 127.88 391.072 127.768 391.083 127.656C391.144 127.05 391.192 126.442 391.243 125.835C391.269 125.515 391.276 125.186 391.285 124.857ZM377.817 85.7855C380.527 84.6273 383.744 85.1741 386.079 86.9236C388.468 88.7139 389.513 91.6246 389.651 94.5286C391.54 92.9147 394.261 94.1363 395.852 95.6485C397.689 97.3937 398.617 100.027 398.189 102.527C397.763 105.018 395.961 107.215 393.523 107.956C392.357 108.311 391.057 108.319 389.883 107.989C389.485 107.877 388.997 107.703 388.546 107.461C388.571 107.564 388.598 107.668 388.622 107.772C389.208 110.251 389.539 113.037 388.661 115.488C387.249 119.428 382.234 121.633 379.103 118.136C377.874 116.764 376.918 114.614 376.993 112.742C377.032 111.759 377.589 110.621 378.738 110.688C379.63 110.739 380.053 111.486 379.824 112.276L379.811 112.321C379.327 113.831 380.152 116.013 381.348 117.043C383.181 118.623 385.697 117.248 386.7 115.396C387.868 113.238 387.726 110.47 387.352 108.122C386.986 105.816 386.168 103.707 385.3 101.573C385.208 101.59 385.114 101.605 385.019 101.618C383.292 101.853 379.779 101.941 377.872 100.69C378.077 102.621 377.675 104.609 376.578 106.244C375.356 108.066 373.515 109.031 371.373 109.326C369.292 109.614 366.879 109.672 364.825 109.179C360.45 108.128 358.907 102.725 360.23 98.8239C361.013 96.5166 363.197 94.4413 365.625 93.9172C366.875 93.0942 368.555 92.8505 369.998 92.9627C372.154 93.1307 374.277 94.0626 375.721 95.6991C376.272 96.3242 376.726 97.032 377.076 97.7895C377.193 97.6969 377.33 97.6274 377.485 97.5911C377.726 97.5344 377.937 97.5217 378.174 97.605C378.291 97.6466 378.461 97.7937 378.563 97.8893L378.796 98.1632C379.082 98.4964 379.354 98.7759 379.863 98.983C381.281 99.5606 383.205 99.686 384.712 99.5678C388.557 99.2669 388.073 94.1718 387.125 91.5543C386.004 88.4533 382.788 86.5243 379.517 87.0751C378.111 87.3116 376.77 88.06 375.742 89.0379C374.593 90.1298 374.101 91.4486 373.412 92.8306C373.372 92.9124 373.231 92.8946 373.213 92.8044C372.647 89.8903 375.332 86.8473 377.817 85.7855ZM357.337 109.28C357.22 109.143 357.373 108.901 357.541 109.015C358.766 109.848 360.129 110.449 361.611 110.612C362.307 110.688 363.008 110.693 363.701 110.586C364.292 110.495 364.824 110.315 365.413 110.478C365.727 110.564 365.784 110.928 365.593 111.157C364.702 112.217 362.51 111.934 361.314 111.65C359.769 111.282 358.367 110.491 357.337 109.28ZM398.579 107.344C399.18 106.971 399.896 107.709 399.541 108.306C398.627 109.837 395.979 109.961 394.443 109.595C394.323 109.567 394.351 109.378 394.472 109.381C395.355 109.403 396.153 109.233 396.914 108.773C397.563 108.379 397.951 107.733 398.579 107.344ZM369.221 95.1066L369.1 95.1077C367.696 95.1303 366.409 95.6661 365.056 95.9493C364.944 95.9729 364.831 95.9609 364.73 95.9237C363.081 97.0238 361.945 98.7535 361.791 101.03C361.684 102.606 362.069 104.324 363.004 105.617C364.069 107.09 365.785 107.317 367.475 107.361L367.646 107.365C370.84 107.427 374.354 107.238 375.493 103.666C376.335 101.022 375.435 97.8128 373.088 96.2291C371.949 95.46 370.587 95.1054 369.221 95.1066ZM394.953 97.0027L394.859 96.8932C393.606 95.4554 391.62 94.1458 389.662 94.8699L389.668 95.1121C389.668 95.1525 389.669 95.1929 389.669 95.2332C389.663 98.0099 388.587 100.601 385.944 101.416C386.653 102.428 387.223 103.551 387.679 104.717C387.84 104.612 388.036 104.545 388.263 104.522C389.194 104.428 389.727 105.302 390.534 105.628C391.289 105.934 392.146 106.013 392.944 105.855C394.689 105.51 395.913 104.004 396.341 102.334C396.826 100.446 396.186 98.4671 394.953 97.0027ZM368.395 99.3396C368.977 98.3565 370.412 98.4988 370.987 99.3655L371.015 99.4087L371.021 99.4007C371.979 100.643 371.516 102.605 370.125 103.304C369.009 103.864 367.589 103.717 366.847 102.627C366.681 102.382 366.574 102.095 366.535 101.804C366.508 101.606 366.524 101.408 366.568 101.211L366.557 101.257C366.579 101.158 366.614 101.002 366.623 100.965C366.721 100.565 366.956 100.135 367.25 99.8445C367.553 99.5457 367.974 99.3639 368.395 99.3396ZM392.303 98.3183C392.819 98.3183 393.276 98.5339 393.648 98.8756C394.177 99.3619 394.251 100.062 394.137 100.726C394.102 100.929 394.054 101.125 394.003 101.324L393.96 101.505C393.952 101.535 393.944 101.565 393.935 101.594C393.903 101.717 393.853 101.831 393.793 101.94C393.572 102.76 392.68 103.168 391.893 102.989C391.523 102.904 391.154 102.597 390.966 102.275C390.904 102.169 390.86 102.063 390.829 101.957L390.676 101.594V101.594C390.647 101.507 390.629 101.413 390.606 101.324C390.555 101.125 390.506 100.929 390.47 100.726C390.348 100.04 390.445 99.3892 390.959 98.8756C391.304 98.5305 391.816 98.3183 392.303 98.3183ZM380.954 91.1993C381.848 91.0793 382.759 91.496 383.221 92.2863C383.623 92.9732 383.622 93.8974 383.221 94.5843L383.188 94.6424V94.6424C382.451 95.9076 380.731 96.0699 379.697 95.0924L379.647 95.045V95.045C378.982 94.4167 378.832 93.3745 379.177 92.5583C379.492 91.8118 380.152 91.3073 380.954 91.1993Z" fill="black"/>
</g>
</g>
<defs>
<clipPath id="clip0_85_18937">
<rect width="404" height="275" fill="white"/>
</clipPath>
<clipPath id="clip1_85_18937">
<rect width="240" height="275" fill="white" transform="translate(78)"/>
</clipPath>
</defs>
</svg>
