<svg width="240" height="275" viewBox="0 0 240 275" fill="none" xmlns="http://www.w3.org/2000/svg">
<g clip-path="url(#clip0_81_20966)">
<rect width="240" height="275" fill="#E7ECED"/>
<path fill-rule="evenodd" clip-rule="evenodd" d="M189.445 219.788C188.033 215.446 189.715 210.431 188.615 205.75C188.239 203.898 187.522 197.02 186.803 192.997C186.401 190.747 188.808 190.049 189.178 189.151C191.781 181.083 172.791 162.105 171.631 161.405C169.894 160.401 168.357 159.537 166.66 158.511C161.709 156.771 155.771 151.931 151.283 155.039C143.505 143.458 146.582 129.189 142.362 127.493C138.142 125.797 125.68 122.369 118.555 126.746C114.284 129.907 114.599 135.349 112.651 139.836C111.507 141.949 110.945 145.009 109.614 146.387C105.09 151.068 99.4483 151.875 93.1415 152.669C92.6611 152.73 92.1557 151.423 91.689 151.584C81.0504 155.263 68.6713 156.336 56.6231 176.933C54.9216 179.879 50.3314 184.605 51.8662 188.009C41.7533 211.534 31.8025 264.485 59.5514 277.69C60.4384 278.258 66.4558 275.214 67.4362 275.242C69.0706 275.289 65.9391 279.259 67.4362 278.552C78.4283 279.386 138.911 277.234 162.096 279.386C178.038 279.267 188.136 282.063 191.818 279.267C190.346 275.709 190.414 271.898 190.879 268.137C194.268 265.615 190.079 247.839 190.434 242.635C193.605 238.831 191.08 224.566 189.445 219.788Z" fill="white"/>
<path fill-rule="evenodd" clip-rule="evenodd" d="M184.391 193.752C182.87 195.965 181.472 198.243 180.209 200.613C179.558 201.835 178.95 203.082 178.403 204.353C178.29 201.603 178.265 198.821 177.943 196.098C177.92 195.901 177.593 195.806 177.558 196.045C177.203 198.514 177.145 201.047 177.011 203.543C176.856 203.496 176.685 203.469 176.497 203.469C174.672 203.469 172.874 203.618 171.055 203.766C170.24 203.832 169.388 203.882 168.556 204.012C169.225 203.273 169.849 202.492 170.424 201.677C171.011 200.847 171.681 199.548 170.659 198.75C169.53 197.869 167.315 199.021 166.223 199.47C165.67 199.697 165.127 199.944 164.594 200.207C163.919 198.317 161.853 198.067 160.081 198.327C158.819 198.514 157.593 198.946 156.362 199.275C154.799 199.693 153.23 200.086 151.655 200.455C148.818 201.119 145.963 201.699 143.093 202.202C143.018 202.114 142.912 202.045 142.772 202.01C141.789 201.764 140.705 201.952 139.698 201.971C138.662 201.99 137.625 201.988 136.589 201.967C134.738 201.929 132.889 201.914 131.039 201.882C130.513 201.563 129.846 201.105 129.683 200.505C129.479 199.755 130.115 198.925 130.411 198.287C131.546 195.838 131.943 193.098 131.498 190.43C131.418 189.955 131.255 189.435 131.019 188.948C133.046 189.165 135.047 189.312 137.086 189.379C141.156 189.511 145.227 189.65 149.299 189.68C157.441 189.741 165.584 189.741 173.727 189.682C178.331 189.648 182.924 189.606 187.522 189.371C187.147 189.846 186.783 190.331 186.427 190.824C186.354 190.802 186.258 190.842 186.269 190.933C186.272 190.965 186.276 190.997 186.28 191.028C185.631 191.935 185.006 192.857 184.391 193.752M175.337 277.968C173.444 277.908 171.552 277.848 169.66 277.787C165.946 277.669 162.232 277.551 158.518 277.433C151.16 277.198 143.803 276.972 136.444 276.769C129.103 276.567 121.758 276.353 114.415 276.582C107.055 276.811 99.7139 277.405 92.3677 277.883C88.2837 278.147 84.1967 278.377 80.1051 278.487C76.2082 278.591 72.277 278.433 68.3863 278.711C68.2555 277.749 68.3516 276.789 68.3375 275.831C69.6137 275.094 70.8663 274.31 72.1044 273.539C76.6179 270.731 80.8842 267.554 84.9085 264.081C85.527 263.547 86.1336 263.002 86.734 262.451C86.3161 263.364 86.6506 264.542 87.8482 264.928C89.3087 265.4 90.8041 265.232 92.321 265.197C93.8613 265.16 95.4017 265.126 96.9423 265.093C99.953 265.03 102.964 264.972 105.975 264.922C111.857 264.823 117.739 264.75 123.622 264.703C135.457 264.607 147.284 264.768 159.117 264.982C162.445 265.042 165.769 265.117 169.096 265.041C170.761 265.004 172.433 264.992 174.096 264.902C175.428 264.83 176.768 264.641 178.1 264.472C178.268 266.793 178.444 269.113 178.639 271.432C178.769 272.963 178.902 274.494 179.033 276.025C179.087 276.656 179.091 277.301 179.18 277.901C177.901 277.971 176.63 278.009 175.337 277.968M176.638 212.433C176.591 214.21 176.567 215.987 176.554 217.765C176.4 217.677 176.227 217.613 176.032 217.583C173.963 217.267 171.749 217.507 169.655 217.542C167.631 217.576 165.601 217.565 163.579 217.66C161.553 217.756 159.528 217.87 157.502 217.975C156.552 218.025 155.612 218.067 154.669 218.196C154.023 218.284 153.197 218.278 152.507 218.462C155.402 215.657 158.282 212.835 161.17 210.022C161.256 209.937 161.319 209.848 161.362 209.757C163.288 208.583 165.136 207.263 166.81 205.75C168.137 206.262 169.648 206.326 171.055 206.441C172.874 206.588 174.671 206.738 176.497 206.738C176.621 206.738 176.736 206.726 176.845 206.704C176.756 208.613 176.688 210.522 176.638 212.433M101.459 246.944C105.879 248.356 110.669 248.34 115.267 248.623C120.17 248.925 125.065 249.175 129.973 249.367C139.776 249.748 149.572 250.265 159.373 250.677C164.971 250.912 170.569 251.172 176.165 251.454C176.562 251.474 176.94 251.372 177.274 251.185C177.462 254.872 177.682 258.557 177.938 262.24C177.97 262.7 178.006 263.16 178.039 263.621C175.405 263.291 172.791 262.974 170.137 262.75C167.158 262.498 164.179 262.286 161.195 262.088C155.381 261.703 149.557 261.186 143.731 260.998C131.857 260.614 119.955 260.745 108.076 260.829C104.715 260.853 101.354 260.885 97.9927 260.926C96.3122 260.947 94.6318 260.969 92.9514 260.993C91.2625 261.018 89.4475 260.842 87.8484 261.432C87.8332 261.438 87.8203 261.446 87.8053 261.451C92.6296 256.879 96.9515 251.825 101.459 246.944M116.998 232.325C124.386 233.67 131.889 233.578 139.377 233.711C147.039 233.848 154.711 233.757 162.375 233.773C166.728 233.782 171.118 233.973 175.456 233.586C175.969 233.54 176.366 233.346 176.649 233.07C176.728 237.685 176.873 242.298 177.072 246.91C176.791 246.79 176.484 246.717 176.165 246.698C166.372 246.122 156.579 245.599 146.775 245.28C136.979 244.96 127.17 244.582 117.368 244.7C112.585 244.758 107.527 244.452 102.809 245.495C104.602 243.589 106.433 241.719 108.349 239.928C111.142 237.317 114.122 234.871 116.998 232.325M122.642 226.892C122.652 226.881 122.657 226.868 122.664 226.857C122.691 226.876 122.724 226.89 122.766 226.889C129.681 226.733 137.439 228.916 143.907 225.566C146.795 224.071 149.186 221.708 151.507 219.436C151.508 219.453 151.51 219.47 151.511 219.487C151.526 219.671 151.604 219.893 151.791 219.975C152.554 220.31 153.447 220.332 154.266 220.451C155.208 220.588 156.133 220.668 157.084 220.725C159.179 220.851 161.274 220.984 163.37 221.103C165.461 221.221 167.561 221.231 169.655 221.283C171.755 221.335 173.954 221.59 176.033 221.29C176.223 221.263 176.393 221.203 176.544 221.119C176.547 223.809 176.571 226.498 176.596 229.186C176.601 229.624 176.609 230.062 176.614 230.5C176.334 230.243 175.948 230.063 175.456 230.019C171.602 229.68 167.719 229.831 163.851 229.844C160.054 229.856 156.256 229.869 152.458 229.882C144.79 229.907 137.128 229.982 129.46 230.128C125.732 230.199 122.02 230.513 118.346 231.117C119.833 229.761 121.28 228.365 122.642 226.892M62.5568 275.791C61.1411 276.224 59.7357 276.036 58.3173 276.333C58.23 276.351 58.1495 276.385 58.0758 276.43C53.828 274.614 50.9966 270.971 49.0589 266.888C47.0163 262.585 45.6085 257.985 44.6654 253.322C42.7209 243.708 42.7175 233.74 43.724 224.014C44.7129 214.459 46.6709 204.955 49.4651 195.766C51.3837 189.456 53.8287 183.082 57.2235 177.329C61.1436 179.956 64.1837 183.739 67.0477 187.437C70.47 191.856 73.5541 196.533 76.3147 201.392C76.0293 202.224 75.9849 203.268 75.848 204.012C75.5842 205.447 75.3459 206.899 75.1585 208.346C74.7581 211.439 74.374 214.533 73.9648 217.625C73.1554 223.738 72.1891 229.834 71.1216 235.907C71.0352 236.399 71.1733 236.815 71.4275 237.128C69.3102 238.244 67.2205 239.41 65.1845 240.674C60.7084 243.452 56.5251 246.689 53.2407 250.841C53.1554 250.948 53.2891 251.093 53.3947 250.995C60.438 244.484 69.1882 240.397 77.7794 236.357C82.1698 234.293 86.5386 232.195 90.7509 229.782C95.1558 227.258 99.3566 224.406 103.383 221.315C107.981 217.786 112.308 213.928 116.365 209.788C116.843 209.3 116.727 208.69 116.368 208.304C116.489 208.266 116.587 208.16 116.594 207.984C116.691 205.281 117.503 202.978 119.091 200.79C120.565 198.76 122.444 197.087 124.138 195.25C124.891 194.434 125.61 193.584 126.253 192.677C126.914 191.743 127.317 190.713 127.893 189.737C128.565 188.597 129.138 189.18 129.449 190.211C129.803 191.381 129.781 192.75 129.639 193.953C129.488 195.225 129.101 196.465 128.543 197.615C128.02 198.696 127.416 199.794 127.768 201.033C128.348 203.067 130.832 204.246 132.714 204.704C134.81 205.214 137.002 205.115 139.125 204.85C141.782 204.519 144.427 204.033 147.055 203.517C150.097 202.92 153.121 202.23 156.122 201.451C157.533 201.085 158.934 200.603 160.358 200.3C160.866 200.192 161.806 200.029 162.403 200.294C154.731 204.869 146.366 207.918 137.871 210.574C136.815 210.903 137.248 212.498 138.329 212.234C147.455 210.001 156.041 205.858 164.213 201.321C164.338 201.251 164.444 201.143 164.522 201.016C165.344 200.727 166.18 200.475 167.032 200.268C167.413 200.176 169.372 199.529 169.617 199.777C169.964 200.129 168.763 201.272 168.463 201.604C166.328 203.971 163.788 205.902 161.038 207.499C158.249 209.118 155.282 210.41 152.301 211.628C148.961 212.993 145.431 214.066 142.184 215.635C140.895 216.258 141.8 218.375 143.158 217.946C144.909 217.392 146.611 216.579 148.312 215.888C149.758 215.301 151.203 214.714 152.641 214.108C153.643 213.684 154.638 213.247 155.624 212.79C154.147 214.18 152.671 215.57 151.195 216.96C148.638 219.368 146.209 222.111 143.084 223.799C139.997 225.468 136.474 225.662 133.038 225.626C131.312 225.608 129.595 225.553 127.869 225.623C126.053 225.696 124.441 225.975 122.72 226.547C122.688 226.557 122.665 226.576 122.646 226.598C122.586 226.524 122.483 226.488 122.378 226.55C117.702 229.316 113.44 232.904 109.341 236.45C105.116 240.104 101.14 243.991 97.3523 248.096C93.7268 252.026 90.1302 255.97 86.1849 259.585C82.3329 263.115 78.2163 266.321 73.9179 269.287C71.5758 270.904 69.1758 272.46 66.6925 273.852C65.3656 274.595 64.0179 275.344 62.5568 275.791M62.9501 169.398C64.6247 167.516 66.427 165.772 68.3341 164.159C69.1756 164.408 70.0589 164.478 70.9489 164.487C72.3072 164.5 73.6684 164.557 75.0266 164.543C77.6419 164.516 80.2561 164.433 82.872 164.419C88.2207 164.39 93.5711 164.389 98.9197 164.435C99.6205 164.441 100.126 164.142 100.438 163.706C101.521 164.934 102.637 166.134 103.762 167.314C105.59 169.233 107.539 171.063 109.614 172.73C109.21 172.733 108.806 172.737 108.404 172.734C106.554 172.722 104.704 172.71 102.854 172.7C99.1416 172.679 95.429 172.664 91.7163 172.654C84.3355 172.635 76.9316 172.696 69.5603 173.074C67.5144 173.179 65.4524 173.222 63.4137 173.421C62.3079 173.53 61.2034 173.656 60.0987 173.773C59.8726 173.798 59.6558 173.828 59.4431 173.862C60.525 172.307 61.6904 170.813 62.9501 169.398M92.5111 152.626C92.4613 152.66 92.4074 152.69 92.3596 152.726C92.2511 152.807 92.2682 152.955 92.3962 153.004C92.5665 153.071 92.7454 153.121 92.9296 153.161C93.4891 153.973 93.9262 154.976 94.2315 155.485C95.1085 156.946 96.1168 158.338 97.1427 159.697C97.3489 159.97 97.5592 160.24 97.7702 160.509C92.8023 160.497 87.8368 160.523 82.8718 160.71C80.2578 160.81 77.6349 160.893 75.0264 161.089C73.9538 161.17 72.8818 161.305 71.8126 161.439C77.3774 157.415 83.6356 154.342 90.1187 152.061C90.1099 152.071 90.1008 152.078 90.0919 152.088C89.9491 152.247 90.1623 152.452 90.323 152.319C91.1664 151.622 91.8985 151.949 92.5111 152.626M117.613 199.925C117.472 200.139 117.333 200.36 117.198 200.587C116.872 200.262 116.417 200.044 115.831 200.026C109.323 199.823 102.818 199.646 96.3059 199.641C93.0947 199.639 89.8542 199.531 86.647 199.69C85.0365 199.77 83.4266 199.865 81.817 199.956C80.6916 200.02 79.496 200.099 78.397 200.425C75.8641 195.993 73.0523 191.732 69.9818 187.658C76.9485 188.513 84.0347 188.422 91.0409 188.659C98.9789 188.928 106.921 188.986 114.862 189.174C117.04 189.226 119.218 189.283 121.396 189.343C122.52 189.375 123.644 189.407 124.768 189.441C125.12 189.452 125.483 189.462 125.847 189.452C125.82 189.509 125.792 189.566 125.765 189.622C125.152 190.889 124.381 192.054 123.483 193.136C121.574 195.436 119.267 197.417 117.613 199.925M109.075 213.577C108.834 212.907 108.247 212.391 107.311 212.434C101.979 212.676 96.6364 212.844 91.3101 213.195C88.7155 213.367 86.1104 213.482 83.52 213.709C82.184 213.826 80.8503 214.044 79.5199 214.217C78.6079 214.336 77.6529 214.474 76.7781 214.798C76.9477 212.925 77.0973 211.05 77.2272 209.172C77.3314 207.663 77.3631 206.141 77.355 204.628C77.351 203.863 77.325 203.093 77.2881 202.328C77.3667 202.344 77.4455 202.351 77.5228 202.342C77.6593 202.325 77.7867 202.309 77.905 202.277C79.131 202.757 80.5186 202.863 81.817 202.956C83.3572 203.066 84.8969 203.182 86.437 203.292C89.714 203.526 93.0218 203.511 96.306 203.618C102.771 203.829 109.237 203.952 115.704 204.125C115.404 205.412 115.393 206.735 115.873 207.982C115.539 207.871 115.154 207.922 114.825 208.247C112.962 210.088 111.044 211.863 109.075 213.577M90.2653 227.27C90.1336 226.906 89.8852 226.571 89.5911 226.344C88.4604 225.473 86.3963 225.974 85.0391 226.041C83.4324 226.12 81.8255 226.198 80.2189 226.277C79.7312 226.301 77.2425 226.428 75.4146 226.817C75.7924 223.964 76.1351 221.106 76.4414 218.242C76.5056 217.641 76.5652 217.04 76.6241 216.439C77.4853 216.716 78.4212 216.817 79.3093 216.86C80.6403 216.923 81.9774 217.03 83.3097 217.051C85.9715 217.093 88.648 216.962 91.3102 216.917C96.1043 216.838 100.899 216.609 105.691 216.42C100.88 220.327 95.796 223.891 90.4932 227.134C90.4176 227.18 90.3409 227.224 90.2653 227.27M75.1234 228.963C75.5284 229.017 75.93 229.035 76.2372 229.066C77.7794 229.221 79.2976 229.363 80.8477 229.385C82.3846 229.408 83.9214 229.43 85.4584 229.453C85.7852 229.457 86.112 229.462 86.4389 229.467C82.3918 231.678 78.2205 233.659 74.1082 235.745C74.4705 233.488 74.8088 231.227 75.1234 228.963M119.222 178.606C128.445 182.527 140.275 182.882 148.201 176.369C148.989 176.585 149.86 176.657 150.555 176.726C152.118 176.883 153.666 177.028 155.236 177.077C158.296 177.173 161.359 177.316 164.421 177.354C170.614 177.43 176.808 177.466 183.001 177.521C183.528 177.526 183.95 177.365 184.27 177.107C184.897 178.171 185.481 179.261 186.013 180.38C186.79 182.011 187.448 183.696 187.989 185.419C187.873 185.399 187.753 185.385 187.624 185.383C179.485 185.242 171.339 185.477 163.198 185.511C155.055 185.545 146.913 185.51 138.77 185.568C136.517 185.584 134.28 185.584 132.033 185.752C130.863 185.839 129.679 185.877 128.521 186.066C128.391 186.087 128.259 186.105 128.126 186.124C126.574 185.216 124.646 185.406 122.872 185.372C120.834 185.334 118.797 185.299 116.759 185.269C112.754 185.21 108.749 185.166 104.744 185.139C96.795 185.084 88.8655 185.288 80.9216 185.565C76.9692 185.702 73.0318 185.936 69.1304 186.545C68.8684 186.205 68.609 185.865 68.3436 185.528C65.5792 182.023 62.302 177.536 57.753 176.45C57.9275 176.165 58.1045 175.883 58.2843 175.602C61.436 176.433 64.9128 176.391 68.133 176.565C71.8447 176.766 75.5487 176.904 79.2649 176.996C86.6518 177.177 94.0373 177.291 101.426 177.403C103.476 177.435 105.527 177.467 107.577 177.502C108.683 177.52 109.79 177.541 110.896 177.558C111.514 177.568 112.066 177.566 112.655 177.361C113.2 177.171 113.732 176.886 114.259 176.65C114.443 176.567 114.593 176.445 114.715 176.301C116.163 177.167 117.663 177.943 119.222 178.606M155.262 165.568C156.422 165.89 157.619 165.944 158.845 166.036C160.455 166.158 162.061 166.179 163.675 166.189C166.249 166.206 168.823 166.188 171.396 166.117C172.501 166.086 173.146 165.346 173.338 164.499C173.365 164.521 173.392 164.542 173.419 164.564C176.55 167.144 179.387 170.096 181.791 173.363C176.001 173.382 170.211 173.385 164.421 173.424C161.36 173.445 158.296 173.571 155.236 173.65C153.735 173.688 152.255 173.813 150.76 173.955C150.731 173.958 150.7 173.96 150.669 173.963C150.828 173.78 150.985 173.595 151.139 173.404C152.926 171.189 154.395 168.459 155.262 165.568M192.907 281.851C193.418 280.445 193.219 278.937 193.19 277.459C193.161 275.941 193.144 274.425 193.139 272.908C193.129 269.942 193.109 266.976 193.077 264.01C193.01 258.011 192.941 252.006 192.705 246.01C192.239 234.156 191.34 222.332 189.873 210.557C189.161 204.833 188.276 199.122 187.075 193.479C187.092 193.456 187.109 193.433 187.125 193.41C188.321 191.812 189.681 190.335 190.855 188.726C190.96 188.583 191.003 188.4 191.002 188.215C191.045 188.194 191.088 188.172 191.132 188.147C192.106 187.592 191.226 186.079 190.252 186.641C190.364 186.577 188.747 182.423 188.575 182.004C187.959 180.502 187.267 179.033 186.486 177.61C186.015 176.751 185.511 175.91 184.982 175.085C184.89 174.469 184.557 173.897 183.986 173.592C182.983 172.154 181.899 170.772 180.744 169.456C176.016 164.066 170.11 159.716 163.657 156.617C162.725 156.169 161.765 155.796 160.808 155.405C159.79 154.988 158.846 154.444 157.842 154.007C156.209 153.295 154.597 153.336 152.993 154.089C152.856 154.154 152.954 154.365 153.094 154.328C154.126 154.059 155.184 154.014 156.219 154.306C157.234 154.593 158.005 155.226 158.891 155.755C160.469 156.696 162.233 157.31 163.851 158.189C165.99 159.352 168.081 160.628 170.08 162.03C168.008 162.14 165.935 162.219 163.861 162.274C162.321 162.315 160.781 162.322 159.243 162.411C158.148 162.475 157.009 162.457 155.915 162.634C156.179 160.82 156.179 158.989 155.85 157.221C155.85 157.221 155.849 157.22 155.849 157.219C155.77 156.794 155.673 156.371 155.554 155.953C155.302 155.064 154.491 154.93 153.903 155.267C153.845 155.224 153.786 155.182 153.73 155.136C153.025 154.564 152.391 153.879 151.839 153.159C150.694 151.664 149.768 149.933 149.066 148.188C148.356 146.421 147.853 144.573 147.36 142.736C147.113 141.815 146.845 140.899 146.594 139.979C146.375 139.179 146.215 138.295 145.813 137.566C145.738 137.43 145.511 137.455 145.475 137.611C145.262 138.524 145.375 139.565 145.414 140.496C145.457 141.529 145.516 142.553 145.654 143.578C145.939 145.706 146.398 147.798 147.135 149.819C147.841 151.756 148.773 153.564 150.039 155.197C150.88 156.281 152.075 157.717 153.458 158.302C153.639 160.337 153.619 162.375 153.138 164.391C152.509 167.029 151.305 169.536 149.651 171.685C146.182 176.189 140.816 178.735 135.218 179.259C129.426 179.802 123.498 178.506 118.294 175.958C112.505 173.123 107.703 168.75 103.389 164.029C100.902 161.308 98.3242 158.631 96.0197 155.752C95.6113 155.242 94.9576 154.206 94.1823 153.273C94.9714 153.266 95.7812 153.148 96.4796 153.058C97.9247 152.873 99.337 152.586 100.749 152.226C103.389 151.555 106.173 150.62 108.48 149.142C113.362 146.013 115.268 142.044 115.919 136.577C116.125 134.849 113.137 134.429 112.859 136.163C112.431 138.828 111.785 140.125 110.934 142.685C110.117 145.145 108.932 146.062 106.668 147.418C104.542 148.692 102.127 149.432 99.7849 150.196C98.4873 150.62 97.1743 151.006 95.8657 151.395C95.0326 151.643 94.0437 151.86 93.1986 152.242C92.7577 151.855 92.2978 151.563 91.8347 151.453C91.8687 151.396 91.8245 151.307 91.7392 151.324C91.6031 151.351 91.4675 151.381 91.3314 151.409C91.1947 151.419 91.0587 151.446 90.9228 151.495C82.7666 153.262 74.9341 157.024 68.2923 162.15C67.9574 162.29 67.6336 162.461 67.3253 162.678C67.1666 162.789 67.0614 162.966 67.0312 163.149C66.0328 163.965 65.0639 164.811 64.1278 165.687C56.5885 172.741 51.8115 182.125 48.4674 191.777C45.1731 201.286 42.9431 211.257 41.7169 221.241C40.4669 231.417 40.3228 241.805 42.1359 251.924C43.1094 257.357 44.6855 262.697 47.0117 267.708C49.1007 272.209 52.5011 277.337 57.8419 277.885C57.859 277.902 57.8751 277.92 57.8943 277.936C59.9899 279.662 63.1099 278.47 65.3007 277.439C65.6481 277.275 65.9926 277.103 66.3357 276.927C66.1545 277.625 66.0727 278.356 66.0349 279.041C65.9561 280.463 67.9612 280.544 68.3409 279.363C71.5912 279.935 74.9476 279.943 78.2352 279.925C81.9085 279.905 85.5805 279.777 89.2496 279.605C96.5295 279.261 103.801 278.736 111.085 278.498C125.836 278.014 140.626 279.047 155.365 279.567C159.499 279.713 163.634 279.858 167.768 280.004C171.993 280.153 176.213 280.182 180.403 280.753C181.944 280.964 182.534 279.453 182.099 278.512C182.208 277.88 182.1 277.187 182.04 276.442C181.93 275.051 181.825 273.659 181.727 272.267C181.536 269.552 181.351 266.836 181.176 264.121C180.82 258.617 180.514 253.11 180.217 247.603C179.626 236.654 179.173 225.697 178.84 214.737C178.759 212.066 178.653 209.393 178.519 206.724C178.678 206.471 178.837 206.217 178.991 205.961C179.503 205.107 180.005 204.247 180.524 203.396C181.564 201.691 182.611 199.997 183.705 198.325C184.65 196.882 185.625 195.46 186.643 194.068C187.907 204.749 189.031 215.439 189.547 226.188C190.115 238.027 190.416 249.883 190.58 261.734C190.626 265.045 190.657 268.356 190.692 271.667C190.711 273.391 190.729 275.114 190.715 276.838C190.701 278.487 190.452 280.291 191.037 281.851C191.378 282.761 192.57 282.777 192.907 281.851Z" fill="black"/>
<path fill-rule="evenodd" clip-rule="evenodd" d="M151.143 69.052C137.248 57.754 114.981 54.0856 100.107 65.484C88.5496 76.181 83.7669 106.579 85.8122 121.853C86.3809 131.651 93.863 142.755 104.846 139.656C106.711 139.473 108.522 138.758 110.404 138.608C112.656 138.348 114.924 138.344 117.172 138.662C122.068 139.354 126.408 141.955 131.161 143.171C139.979 145.427 149.818 143.909 157.408 138.828C182.491 122.33 171.129 85.0195 151.143 69.052V69.052Z" fill="white"/>
<path fill-rule="evenodd" clip-rule="evenodd" d="M149.292 143.443C149.55 143.354 149.808 143.261 150.064 143.166C150.081 143.225 150.108 143.282 150.14 143.337C150.176 143.426 150.212 143.512 150.252 143.599C149.931 143.601 149.609 143.544 149.292 143.443M148.777 33.9587C148.663 33.7032 148.532 33.458 148.384 33.2211C148.743 33.3376 149.102 33.4982 149.428 33.7053C149.208 33.7793 148.992 33.8638 148.777 33.9587M93.8916 67.386C93.8768 67.3835 93.8623 67.3814 93.8477 67.3788C94.0361 66.8769 94.3718 66.403 94.7426 66.0608C94.8092 65.9993 94.8812 65.9425 94.9509 65.8837C94.5573 66.3527 94.2003 66.853 93.8916 67.386M194.318 119.875C194.132 118.112 193.895 116.356 193.589 114.61C193.295 112.938 193.048 111.15 192.197 109.667C191.352 108.189 190.504 106.754 189.499 105.454C189.642 104.791 189.833 104.167 189.997 103.664C190.948 100.769 191.884 97.0913 189.909 94.4009C189.45 93.7774 188.89 93.2997 188.25 92.8686C187.978 92.6847 187.526 92.5177 187.316 92.2641C187.168 92.0845 187.219 92.1817 187.213 92.0929C187.177 91.6153 188.297 90.6071 188.559 90.2288C189.049 89.529 189.414 88.7409 189.693 87.9357C190.796 84.7485 190.046 81.238 189.383 78.0442C189.032 76.3515 188.645 74.6544 188.518 72.9256C188.4 71.3024 188.622 69.7173 188.753 68.1025C188.88 66.5087 188.846 64.8647 188.163 63.3892C187.83 62.6706 187.325 62.0366 186.71 61.542C186.11 61.0582 185.362 60.7771 184.777 60.2953C184.194 59.8153 184.361 59.1667 184.513 58.503C184.722 57.6027 184.986 56.7086 185.011 55.7787C185.058 54.1576 184.397 52.5787 183.364 51.353C182.299 50.087 180.778 49.2309 179.134 49.0385C178.382 48.9498 177.642 49.1 176.894 49.0472C176.155 48.9965 175.995 48.6266 175.855 47.9503C175.534 46.4011 175.665 44.8709 174.902 43.4253C174.226 42.1403 173.024 41.2693 171.695 40.7559C169.259 39.8133 166.426 40.0077 163.857 40.5634C162.34 36.0999 157.606 33.1727 152.948 33.1367C152.221 31.9025 150.989 30.981 149.584 30.4397C147.26 29.5415 144.799 30.0658 142.378 30.0658H142.367C142.124 30.0508 141.881 30.0447 141.638 30.0468C141.41 30.0339 141.182 30.0149 140.954 29.9897C138.199 29.6641 135.473 28.5354 132.744 29.641C131.527 30.1335 130.559 30.8922 129.947 31.8602C129.024 32.1115 128.113 32.3991 127.219 32.7331C123.347 32.8343 119.51 34.9119 117.552 38.2789C114.795 37.9661 111.803 38.4966 109.98 40.7496C109.505 41.3359 109.137 42.0247 108.893 42.7559C107.034 43.3574 105.314 44.4292 104.188 46.0435C103.16 47.5166 102.963 49.4213 103.658 51.0026C101.998 52.2054 100.701 53.9273 100.077 55.9605C99.6969 57.1958 99.6405 58.4722 99.8847 59.6881C98.1855 60.0651 96.5602 60.764 95.1202 61.813C93.6111 62.9118 91.7264 64.6607 91.6271 66.6736C91.6197 66.8213 91.6254 66.9691 91.6372 67.1164C88.3151 66.8828 84.9276 67.4459 82.682 70.1104C80.9959 72.1095 80.263 74.684 80.713 77.0279C76.7602 77.831 73.0227 79.898 70.4156 82.9541C68.5208 85.1754 66.837 87.9991 66.9382 91.0233C66.9698 91.9344 67.1834 92.8517 67.5532 93.6992V93.7011C67.3947 93.9993 67.2318 94.3311 67.0755 94.6841C64.6269 96.3979 62.848 99.0844 61.8466 102.045C61.0377 104.444 60.5285 107.56 61.3924 110.001C61.5236 110.373 61.6905 110.723 61.8848 111.049C61.722 111.222 61.5679 111.396 61.4179 111.571C59.7677 113.5 58.0966 115.931 58.2109 118.588C58.2574 119.657 58.6544 120.733 59.3032 121.616C57.0213 123.931 55.1834 126.852 55.3649 130.113C55.5213 132.951 57.0785 135.834 59.5184 137.197C59.1109 139.385 59.656 141.693 61.3586 143.4C62.2081 144.254 63.2093 144.816 64.2701 145.116C64.5067 147.693 66.7924 149.766 69.2198 150.362C69.6722 150.474 70.1243 150.542 70.5741 150.573C72.7586 151.645 75.3635 151.522 77.5924 150.54C78.2494 151.375 79.1051 152.055 80.1022 152.543C80.5058 152.742 80.9327 152.907 81.3783 153.04C84.5262 153.972 87.7546 152.708 90.5072 151.233C90.5959 151.186 90.7586 151.127 90.9022 151.062C91.2825 151.487 91.9755 151.907 92.3367 152.114C93.5623 152.818 95.0602 153.145 96.4672 153.053C98.1172 152.943 99.5727 152.397 100.921 151.622C101.117 151.656 101.316 151.675 101.514 151.685C102.782 151.753 103.912 151.351 104.929 150.717C105.6 150.806 106.289 150.798 106.986 150.675C108.522 151.066 110.018 150.445 111.22 149.458C111.752 149.02 112.202 148.507 112.684 148.016C113.185 147.507 113.565 147.388 114.15 147.046C115.534 146.237 115.701 144.184 115.101 142.701C115.215 142.441 115.281 142.151 115.281 141.83C115.276 139.027 113.986 136.457 112.401 134.215C111.693 133.215 110.924 132.237 110.081 131.349C109.403 130.637 108.45 129.481 107.447 129.191C107.386 129.147 107.322 129.102 107.259 129.06C107.453 128.379 107.567 127.686 107.519 126.978C107.468 126.251 107.233 125.562 106.857 124.975C108.118 122.529 108.651 119.847 108.398 117.049C109.424 115.593 110.202 113.985 110.603 112.222C110.85 111.131 110.992 109.984 110.973 108.865C110.964 108.329 110.768 107.65 110.764 107.095C110.793 107.27 111.021 106.615 111.11 106.452C112.128 104.56 113.436 103.085 113.654 100.855C113.78 99.5512 113.472 98.1101 112.69 97.0406C113.191 95.0666 113.185 92.9466 112.397 91.0636C112.185 90.5606 111.943 90.0682 111.664 89.6011C111.792 89.208 111.911 88.8106 112.063 88.4532C112.122 88.3116 112.181 88.1681 112.24 88.0244C112.813 87.5191 113.345 86.9677 113.793 86.4264C114.786 85.2283 115.545 83.8545 115.64 82.2713C115.686 81.4787 115.5 80.7199 115.27 79.9677C115.168 79.6275 115.107 79.2492 114.987 78.9173C114.919 78.7332 114.756 78.5454 114.7 78.372C114.687 78.334 114.676 78.3023 114.668 78.2769C114.676 78.2516 114.683 78.1987 114.683 78.0992C114.685 77.3404 114.784 76.5986 114.788 75.8675C115.483 76.5692 116.32 77.0932 117.271 77.3998C119.187 78.0149 121.186 77.7359 122.882 76.7869C124.707 78.0381 126.759 79.1707 128.909 79.6254C130.187 79.8957 131.468 79.7839 132.75 79.9508C134.024 80.1178 135.256 80.6737 136.456 81.1069C139.126 82.0728 141.79 83.0638 144.469 84.0045C146.633 84.7633 148.973 85.3656 151.238 84.9387C151.874 85.9192 152.7 86.7479 153.759 87.3565C154.517 87.7898 155.349 88.0834 156.209 88.2294C156.97 88.3583 157.862 88.3076 158.478 88.8297C159.08 89.3369 159.456 90.0933 159.997 90.6642C160.6 91.3025 161.343 91.8562 162.123 92.2535C162.748 92.5727 163.386 92.8028 164.035 92.9531C163.978 94.3966 163.923 95.838 163.906 97.2837C163.874 100.424 163.887 103.565 163.845 106.706C163.802 109.836 163.703 112.966 163.538 116.092C163.382 119.025 163.162 121.969 162.463 124.831C160.143 134.327 151.454 141.126 141.727 141.473C138.839 141.576 135.98 141.171 133.219 140.321C130.359 139.44 127.804 137.626 124.872 137.068C124.105 136.924 123.383 137.696 123.822 138.438C124.578 139.712 125.497 140.49 126.754 141.257C128.071 142.058 129.537 142.652 130.984 143.172C133.646 144.127 136.462 144.681 139.287 144.835C141.442 144.954 143.605 144.806 145.716 144.4C145.864 144.854 146.126 145.296 146.324 145.717C146.354 145.778 146.453 145.736 146.434 145.672C146.402 145.567 146.381 145.474 146.373 145.398C147.083 146.323 148.179 146.963 149.305 147.274C150.099 147.494 150.943 147.562 151.76 147.469C152.024 147.439 152.275 147.395 152.525 147.34C153.357 148.069 154.422 148.555 155.491 148.798C155.307 149.914 155.859 151.132 157.137 151.449C157.673 151.582 158.189 151.584 158.705 151.535C159.121 151.73 159.569 151.882 160.044 151.985C160.663 152.121 161.402 151.947 161.869 151.499C162.125 151.679 162.363 151.804 162.6 152.089C163.574 153.264 165.674 152.328 165.767 150.969C166.075 150.969 166.386 150.973 166.697 150.984C166.771 151.017 166.844 151.051 166.921 151.087C168.279 151.719 169.686 152.271 171.188 151.774C171.465 151.683 171.718 151.567 171.949 151.432C173.007 151.527 174.051 151.529 175.124 151.182C175.758 150.977 176.354 150.652 176.85 150.225C178.506 150.711 180.254 150.931 181.902 150.328C183.135 149.878 184.128 149.168 184.828 148.232C185.897 148.27 186.983 148.012 187.961 147.503C189.634 146.636 190.806 144.989 191.624 143.339C193.424 139.697 194.489 135.785 194.907 131.751C195.319 127.777 194.732 123.825 194.318 119.875" fill="black"/>
<path fill-rule="evenodd" clip-rule="evenodd" d="M149.372 128.003C148.022 128.014 146.504 127.507 145.489 127.11L145.224 127.005C144.345 126.653 143.443 126.249 142.77 125.571C142.555 125.351 142.326 125.101 142.209 124.839C142.141 124.685 142.113 124.526 142.179 124.368C142.422 124.344 142.653 124.313 142.871 124.273C142.975 124.254 143.075 124.234 143.151 124.234C143.433 124.232 143.711 124.268 143.989 124.303C144.03 124.308 144.07 124.313 144.11 124.318C144.327 124.345 144.543 124.374 144.758 124.403C145.384 124.487 146.007 124.571 146.642 124.601C147.101 124.623 147.581 124.597 148.066 124.571C149.325 124.502 150.626 124.409 151.595 125.29C151.849 125.521 151.955 125.812 151.955 126.108C151.955 126.468 151.803 126.835 151.572 127.123C151.049 127.773 150.244 127.996 149.372 128.003ZM156.735 116.649C156.148 117.531 155.169 118.098 153.828 118.036C151.162 117.914 147.981 116.908 145.749 115.454C145.167 115.075 144.79 114.469 144.723 113.821L144.603 112.667L143.953 113.628C143.885 113.728 143.817 113.828 143.748 113.928C143.56 114.203 143.372 114.478 143.195 114.76C142.514 115.842 141.889 116.936 141.322 118.082C140.921 118.894 140.627 119.802 140.333 120.719C139.836 122.266 139.356 123.787 138.295 124.874C138.134 125.039 137.888 125.098 137.662 125.069C137.463 125.043 137.268 124.945 137.172 124.751C135.904 122.171 137.61 119.062 138.994 116.9L139.14 116.674C140.423 114.721 142.519 112.136 144.919 111.785L145.193 112.223L145.593 111.956C146.246 111.52 147.109 111.541 147.864 111.882L148.619 112.223C150.024 112.854 151.411 113.436 152.932 113.755C153.043 113.778 153.153 113.8 153.264 113.82C153.368 113.839 153.473 113.857 153.579 113.873C153.556 113.77 153.532 113.666 153.507 113.563C153.482 113.454 153.456 113.345 153.428 113.236C153.399 113.124 153.368 113.012 153.338 112.901C153.216 112.457 153.078 112.017 152.915 111.587C152.301 109.968 151.321 108.454 150.367 107.01L150.254 106.84C150.118 106.633 149.968 106.417 149.813 106.194C149.069 105.123 148.244 103.96 148.186 102.792C149.173 102.854 149.999 103.468 150.727 104.002C151.725 104.735 152.65 105.573 153.489 106.483C155.117 108.25 156.577 110.507 157.218 112.841C157.585 114.178 157.424 115.616 156.735 116.649V116.649ZM130.693 103.334L130.693 103.287C130.696 101.939 131.481 98.8616 133.42 98.8616C134.632 98.8616 135.367 100.956 135.495 103.115L135.499 103.203C135.555 104.545 135.187 107.479 133.42 107.479C131.634 107.479 130.712 104.7 130.693 103.334V103.334ZM159.247 102.911L159.248 102.864C159.245 101.516 158.46 98.4389 156.521 98.4389C155.339 98.4389 154.61 100.43 154.457 102.53L154.446 102.692C154.37 103.989 154.714 107.056 156.521 107.056C158.306 107.056 159.229 104.277 159.247 102.911V102.911ZM137.225 94.2132C136.968 94.2433 136.712 94.2828 136.457 94.3235C135.711 94.4423 134.969 94.585 134.233 94.7513C132.833 95.0673 131.446 95.4662 130.084 95.9171C128.81 96.3392 127.556 96.8161 126.302 97.2931C126.235 97.3185 126.168 97.344 126.102 97.3694C125.659 97.5378 125.218 97.7265 124.775 97.9158C124.102 98.2039 123.425 98.4939 122.734 98.7125C124.554 96.1962 127.357 94.3317 130.054 92.9974C131.593 92.2362 133.226 91.6224 134.868 91.1194L135.783 90.8444C137.129 90.4469 138.602 90.0798 139.867 90.8723C140.367 91.1858 140.687 91.6731 140.787 92.1999C140.886 92.7165 140.773 93.2704 140.417 93.7326C140.106 94.1353 139.719 94.3647 139.307 94.4433C138.852 94.53 138.37 94.4348 137.931 94.2003C137.58 94.1742 137.476 94.1836 137.372 94.1952L137.225 94.2132ZM157.485 94.4692C156.584 94.2732 155.692 94.1945 154.767 94.2227C154.349 94.2353 153.944 94.2999 153.54 94.3649C152.914 94.4659 152.29 94.5703 151.614 94.4477C151.262 94.3837 150.962 94.1776 150.73 93.9086C150.459 93.594 150.28 93.192 150.223 92.8098C150.163 92.4149 150.222 92.0696 150.369 91.7647C150.541 91.4045 150.832 91.1009 151.183 90.8349C152.246 90.03 154.069 90.2236 155.324 90.3863C156.563 90.5475 157.796 90.932 158.892 91.5428C159.973 92.1456 160.913 92.9576 161.646 93.9502C162.264 94.7869 162.556 95.7498 162.856 96.7302C161.442 95.5432 159.277 94.8583 157.485 94.4692Z" fill="black"/>
</g>
<defs>
<clipPath id="clip0_81_20966">
<rect width="240" height="275" fill="white"/>
</clipPath>
</defs>
</svg>
