<svg width="96" height="65" viewBox="0 0 96 65" fill="none" xmlns="http://www.w3.org/2000/svg">
<path d="M2.08962 28.2316C2.86631 27.1562 3.40402 26.2899 3.70275 25.6327C3.46376 25.7522 3.22478 25.8717 2.9858 25.9912C2.50784 26.2899 2.17924 26.6782 2 27.1562C1.82076 27.6342 1.85064 27.9926 2.08962 28.2316ZM3.70275 29.0382C4.53918 29.1577 5.55485 29.0979 6.74976 28.8589C6.98875 28.7992 7.19785 28.8589 7.37709 29.0382C7.61607 29.2174 7.73556 29.4265 7.73556 29.6655C7.79531 29.785 7.79531 29.9344 7.73556 30.1136C7.61607 30.2928 7.40696 30.8305 7.10824 31.7267C6.86925 32.5632 6.6004 33.5788 6.30167 34.7737C6.00295 35.9687 5.91333 36.7453 6.03282 37.1038C7.22773 37.0441 8.84085 36.3271 10.8722 34.953C12.9035 33.5191 14.4271 32.3541 15.4427 31.4579C16.5181 30.5019 17.265 29.785 17.6832 29.307C18.1014 28.8888 18.5196 28.8888 18.9378 29.307C19.4158 29.7253 19.4457 30.1435 19.0275 30.5617C18.7885 30.8007 18.4897 31.0994 18.1313 31.4579C17.7728 31.8163 17.026 32.4735 15.8908 33.4295C14.8154 34.3854 13.7699 35.2517 12.7542 36.0284C11.7385 36.7453 10.6033 37.4025 9.34869 38C8.09404 38.5975 6.95887 38.8962 5.9432 38.8962C4.74829 38.8962 4.18071 38.0896 4.24045 36.4765C4.24045 35.2218 4.65867 33.3399 5.49511 30.8305C4.3002 30.95 3.28453 30.8604 2.44809 30.5617C2.02987 30.6812 1.70127 30.6513 1.46229 30.4721C1.3428 30.3526 1.22331 30.1435 1.10382 29.8447C0.446618 29.1875 0.147891 28.4407 0.207636 27.6043C0.207636 26.7081 0.506364 25.9314 1.10382 25.2742C1.76102 24.4975 2.59745 24.0196 3.61313 23.8403C4.74829 23.6013 5.40549 23.9897 5.58473 25.0054C5.70422 25.7821 5.07689 27.1263 3.70275 29.0382ZM19.3558 29.307C19.5351 29.4863 19.6247 29.6954 19.6247 29.9344C19.6247 30.1733 19.5351 30.3825 19.3558 30.5617C19.2363 30.7409 19.0272 30.8305 18.7285 30.8305C18.4298 30.8305 18.0115 31.2189 17.4738 31.9956C16.8764 32.7723 16.4582 33.6386 16.2192 34.5945C15.9205 35.7894 15.9802 36.4167 16.3984 36.4765C17.0556 36.6557 18.0414 35.7894 19.3558 33.8776C20.73 31.906 21.6261 30.4422 22.0444 29.4863C22.3431 28.8888 22.7912 28.7693 23.3886 29.1278C23.7471 29.3668 23.8666 29.6954 23.7471 30.1136C23.6276 30.7708 23.538 31.5176 23.4783 32.3541C23.4185 34.8634 24.2848 36.1479 26.0772 36.2076C27.0929 36.2076 28.4969 35.6102 30.2892 34.4153C32.1413 33.1606 33.5454 32.1151 34.5013 31.2786C35.517 30.3825 36.204 29.7253 36.5625 29.307C36.9807 28.8888 37.3989 28.8888 37.8172 29.307C38.2951 29.7253 38.325 30.1435 37.9068 30.5617C37.6678 30.7409 37.3691 31.0098 37.0106 31.3683C36.7119 31.7267 36.0547 32.3541 35.039 33.2502C34.0831 34.0867 33.157 34.8335 32.2608 35.4907C31.3647 36.1479 30.3191 36.7453 29.1242 37.2831C27.9293 37.761 26.8837 38 25.9876 38C23.538 37.9403 22.134 36.5064 21.7755 33.6983C19.5649 37.1636 17.6232 38.6871 15.9503 38.2689C14.3969 37.8506 13.8891 36.4765 14.4268 34.1464C14.7255 32.8918 15.2931 31.7267 16.1296 30.6513C16.9063 29.5759 17.7726 29.0382 18.7285 29.0382C19.0272 29.0382 19.2363 29.1278 19.3558 29.307ZM37.1842 28.2316C37.9609 27.1562 38.4986 26.2899 38.7974 25.6327C38.5584 25.7522 38.3194 25.8717 38.0804 25.9912C37.6025 26.2899 37.2739 26.6782 37.0946 27.1562C36.9154 27.6342 36.9453 27.9926 37.1842 28.2316ZM38.7974 29.0382C39.6338 29.1577 40.6495 29.0979 41.8444 28.8589C42.0834 28.7992 42.2925 28.8589 42.4717 29.0382C42.7107 29.2174 42.8302 29.4265 42.8302 29.6655C42.8899 29.785 42.8899 29.9344 42.8302 30.1136C42.7107 30.2928 42.5016 30.8305 42.2029 31.7267C41.9639 32.5632 41.695 33.5788 41.3963 34.7737C41.0976 35.9687 41.0079 36.7453 41.1274 37.1038C42.3223 37.0441 43.9355 36.3271 45.9668 34.953C47.9982 33.5191 49.5217 32.3541 50.5373 31.4579C51.6128 30.5019 52.3596 29.785 52.7778 29.307C53.196 28.8888 53.6142 28.8888 54.0325 29.307C54.5104 29.7253 54.5403 30.1435 54.1221 30.5617C53.8831 30.8007 53.5844 31.0994 53.2259 31.4579C52.8674 31.8163 52.1206 32.4735 50.9854 33.4295C49.91 34.3854 48.8645 35.2517 47.8488 36.0284C46.8331 36.7453 45.698 37.4025 44.4433 38C43.1887 38.5975 42.0535 38.8962 41.0378 38.8962C39.8429 38.8962 39.2753 38.0896 39.3351 36.4765C39.3351 35.2218 39.7533 33.3399 40.5897 30.8305C39.3948 30.95 38.3791 30.8604 37.5427 30.5617C37.1245 30.6812 36.7959 30.6513 36.5569 30.4721C36.4374 30.3526 36.3179 30.1435 36.1984 29.8447C35.5412 29.1875 35.2425 28.4407 35.3023 27.6043C35.3023 26.7081 35.601 25.9314 36.1984 25.2742C36.8556 24.4975 37.6921 24.0196 38.7077 23.8403C39.8429 23.6013 40.5001 23.9897 40.6793 25.0054C40.7988 25.7821 40.1715 27.1263 38.7974 29.0382ZM52.6581 29.5759C52.9568 29.0382 53.375 28.8888 53.9127 29.1278C54.4504 29.3668 54.5699 29.7551 54.2712 30.2928C54.2115 30.4721 54.0621 30.8903 53.8231 31.5475C53.5841 32.1449 53.3451 32.8918 53.1062 33.7879C52.8672 34.6244 52.7776 35.192 52.8373 35.4907C53.375 35.4907 54.3309 34.953 55.7051 33.8776C57.0792 32.7424 58.2144 31.7566 59.1106 30.9202C60.0068 30.0837 60.5743 29.546 60.8133 29.307C61.2315 28.8888 61.6498 28.8888 62.068 29.307C62.5459 29.7253 62.5758 30.1435 62.1576 30.5617C61.6796 31.0397 61.0822 31.667 60.3652 32.4437C59.6483 33.1606 58.4534 34.1464 56.7805 35.4011C55.1674 36.6557 53.853 37.2831 52.8373 37.2831C52.2399 37.2831 51.7918 37.0441 51.493 36.5661C51.1943 36.0881 51.0449 35.5803 51.0449 35.0426C51.0449 33.6685 51.5827 31.8462 52.6581 29.5759ZM53.6439 22.9441C53.5244 22.3467 53.7634 21.9882 54.3608 21.8687L57.3182 21.2414C57.9157 21.1219 58.2741 21.3609 58.3936 21.9583C58.5131 22.5558 58.2741 22.9143 57.6767 23.0338L54.7193 23.6611C54.4803 23.7208 54.2413 23.691 54.0023 23.5715C53.8231 23.3922 53.7036 23.1831 53.6439 22.9441ZM71.0158 1.07731C71.2548 0.539598 71.6431 0.390235 72.1808 0.629217C72.7185 0.868199 72.8679 1.25655 72.6289 1.79425C71.3743 4.72178 70.0001 8.06753 68.5065 11.8315L88.9394 12.19C89.1784 12.19 89.3875 12.2796 89.5668 12.4588C89.746 12.6381 89.8356 12.8472 89.8356 13.0861C89.8356 13.3251 89.746 13.5342 89.5668 13.7135C89.3875 13.8927 89.1784 13.9823 88.9394 13.9823L67.8792 13.6239C63.219 25.6327 61.1279 33.1307 61.6059 36.118C61.6656 36.596 61.7553 36.8947 61.8747 37.0142C61.9942 37.1337 62.1735 37.1636 62.4125 37.1038C63.9061 36.8648 65.6088 36.118 67.5207 34.8634C69.4325 33.549 70.9561 32.3242 72.0912 31.189C73.2861 29.9941 73.8836 29.3668 73.8836 29.307C74.2421 28.8888 74.6304 28.8888 75.0486 29.307C75.5266 29.6655 75.5565 30.0837 75.1382 30.5617C74.6603 31.0994 74.0031 31.7865 73.1666 32.6229C72.3899 33.4593 70.8963 34.6543 68.6857 36.2076C66.5349 37.7013 64.5633 38.5975 62.7709 38.8962C61.9345 39.0157 61.2773 38.8364 60.7993 38.3585C60.3214 37.8805 60.0226 37.2233 59.9031 36.3869C59.3654 33.1009 61.1279 26.0808 65.1906 15.3266L46.6397 13.2654C46.0422 13.2056 45.7435 12.9069 45.7435 12.3692C45.7435 12.1302 45.8331 11.9211 46.0123 11.7419C46.1916 11.5626 46.4007 11.473 46.6397 11.473L66.5349 11.8315C67.909 8.30651 69.4027 4.72178 71.0158 1.07731ZM65.1906 15.3266C65.3699 14.7291 65.579 14.1616 65.8179 13.6239L52.196 13.355L65.1906 15.3266ZM72.6121 29.6655C72.7914 29.0681 73.1498 28.8888 73.6875 29.1278C74.285 29.307 74.4642 29.6655 74.2252 30.2032C74.2252 30.3227 74.1356 30.7111 73.9564 31.3683C73.7772 31.9657 73.5979 32.6827 73.4187 33.5191C73.2992 34.2958 73.2992 34.8335 73.4187 35.1322C73.8966 35.1322 74.7928 34.6244 76.1072 33.6087C77.4216 32.593 78.5269 31.6969 79.4231 30.9202C80.3193 30.0837 80.8869 29.546 81.1258 29.307C81.5441 28.8291 81.9922 28.8291 82.4701 29.307C82.6494 29.6058 82.6792 29.9045 82.5597 30.2032C80.5284 36.118 78.3178 42.0627 75.928 48.0372C79.0348 44.4525 82.3805 40.808 85.9652 37.1038C89.6097 33.3996 92.2385 30.8007 93.8516 29.307C94.3296 28.8888 94.7478 28.9187 95.1063 29.3967C95.5245 29.8149 95.5245 30.2032 95.1063 30.5617C93.2542 32.2346 90.2968 35.192 86.2341 39.4339C82.1714 43.6758 78.5269 47.6788 75.3007 51.4427C74.7032 52.0999 74.1655 52.7273 73.6875 53.3247C71.477 58.3433 69.834 61.48 68.7585 62.7346C67.8624 63.7503 67.0558 63.9295 66.3388 63.2723C66.0401 63.0333 65.8609 62.7047 65.8011 62.2865C65.7414 61.8683 65.8609 61.3605 66.1596 60.763C66.3986 60.1656 66.6674 59.598 66.9662 59.0603C67.2649 58.5823 67.7429 57.9251 68.4001 57.0887C68.9975 56.2522 69.5054 55.5652 69.9236 55.0275C70.3418 54.5495 70.9392 53.8325 71.7159 52.8766C71.8952 52.6376 72.0445 52.4883 72.164 52.4285C72.4628 51.5921 72.7914 50.7855 73.1498 50.0088C75.1214 45.2889 77.2723 39.6729 79.6023 33.1606C78.6464 34.0568 77.8996 34.714 77.3619 35.1322C76.8242 35.5504 76.0475 35.9985 75.0318 36.4765C74.0759 36.9545 73.2693 37.0441 72.6121 36.7453C71.8354 36.3869 71.4471 35.6401 71.4471 34.5049C71.4471 33.31 71.6263 32.2047 71.9848 31.189L72.6121 29.6655Z" fill="#CFF800"/>
</svg>
