<svg width="240" height="275" viewBox="0 0 240 275" fill="none" xmlns="http://www.w3.org/2000/svg">
<g clip-path="url(#clip0_81_21002)">
<rect width="240" height="275" fill="#E7ECED"/>
<path fill-rule="evenodd" clip-rule="evenodd" d="M188.18 197.386C187.516 195.563 188.485 193.744 189.023 191.981C190.933 185.864 193.018 179.747 195.969 174.043C197.087 172.135 195.248 169.794 193.117 170.332C189.47 170.843 185.708 170.436 182.055 170.21C180.718 166.752 177.152 165.317 174.345 163.326C171.16 161.337 168.061 159.052 164.749 157.309C164.564 155.661 162.568 155.253 161.346 156.431C157.993 154.344 153.971 154.732 150.375 153.365C147.644 148.947 147.439 144.302 146.715 140.041C146.4 138.183 146.735 136.391 145.466 134.735C141.204 128.738 124.363 126.137 118.153 129.691C114.811 127.606 114.73 131.383 114.199 133.714C113.609 134.88 113.29 136.201 113.389 137.592C109.798 145.094 101.584 148.486 94.2283 151.233C93.3055 150.345 91.9866 150.457 91.1086 151.192C84.7325 152.579 78.5443 155.016 73.2022 158.822C67.1329 160.598 62.8585 165.536 59.7676 170.831C59.4271 171.389 59.3468 171.958 59.4463 172.481C49.9416 186.419 45.4052 203.105 44.7681 219.957C38.6559 223.627 47.6732 256.593 49.7724 263.437C49.7745 263.436 49.7766 263.435 49.7787 263.434C51.1405 265.846 52.6868 272.729 56.095 272.196C58.4329 274.841 62.1586 274.321 65.3312 274.524C64.8144 276.507 65.0683 278.776 65.6833 280.735C66.4107 283.068 69.9803 283.147 70.4865 280.604C102.08 286.744 134.497 281.845 166.446 282.766C175.683 282.832 184.92 283.118 194.135 283.776C195.433 283.869 196.749 282.542 196.66 281.25C194.679 260.163 192.818 232.423 190.603 211.543C190.077 206.781 189.662 201.967 188.18 197.386Z" fill="white"/>
<path fill-rule="evenodd" clip-rule="evenodd" d="M114.721 130.993C114.811 130.745 115.181 130.778 115.188 131.056C115.333 136.985 113.858 144.23 109.115 148.235C106.681 150.291 103.462 151.232 100.506 152.313L100.173 152.436L94.9507 154.382C93.5656 154.898 92.0715 155.692 90.8481 154.963C91.8381 157.419 92.6692 159.942 93.8749 162.309C95.3757 165.256 97.1903 167.952 99.4112 170.403C108.21 180.117 122.134 183.08 134.63 180.234C141.065 178.768 147.326 175.99 151.716 170.924C155.052 167.074 156.969 161.905 157.421 156.807C157.289 156.828 157.15 156.828 157.008 156.796C155.427 156.451 153.831 155.603 152.44 154.772L152.306 154.692C150.967 153.886 149.572 152.962 148.611 151.709C147.657 150.465 146.656 146.408 146.656 146.408C146.383 144.883 146.127 141.846 146.171 140.304C146.175 140.159 146.82 140.073 146.889 140.224C147.485 141.533 147.678 144.408 148.138 145.77L148.231 146.041C148.722 147.464 149.143 149.195 150.162 150.345C152.074 152.504 154.959 153.418 157.534 154.501C157.719 152.061 161.615 152.117 161.565 154.662C161.563 154.8 161.556 154.938 161.552 155.075C161.859 155.244 162.154 155.437 162.43 155.624L162.7 155.807C163.72 156.501 164.748 157.161 165.834 157.749C167.937 158.89 170.163 159.794 172.317 160.829C174.497 161.876 176.535 163.123 178.439 164.617C179.333 165.318 180.19 166.065 181.003 166.858L181.223 167.076C181.997 167.847 183.004 168.709 183.445 169.722C183.542 169.945 184.029 170.465 184.293 170.482C188.387 170.751 192.472 171.13 196.54 171.698C197.593 171.845 198.009 172.388 197.62 173.267C196.282 176.284 191.045 188.336 189.652 191.57C189.815 193.946 189.595 196.743 189.742 199.12C189.956 202.588 190.237 206.055 190.574 209.514C191.778 221.885 193.603 234.197 195.253 246.515C196.079 252.679 196.831 258.853 197.574 265.028C197.95 268.149 198.268 271.272 198.513 274.406C198.615 275.712 198.708 277.019 198.789 278.326L198.86 279.486C198.957 280.945 199.18 282.339 198.277 283.591C197.868 284.159 196.934 284.479 196.395 283.834C195.719 283.022 195.468 282.416 195.403 281.35C195.353 280.534 195.342 279.715 195.304 278.898C195.224 277.128 195.123 275.358 195.005 273.59C194.769 270.055 194.5 266.521 194.187 262.992C193.094 250.616 191.015 238.334 189.632 225.99C188.935 219.766 188.44 213.531 188.177 207.273C188.046 204.148 187.999 201.023 188.029 197.896C188.041 196.727 188.096 195.564 188.177 194.404C186.104 199.113 183.926 203.777 181.649 208.379L181.109 209.468C179.665 212.377 178.183 215.296 176.449 218.039L176.151 218.506C175.448 219.62 174.488 221.376 173.206 221.727C172.314 221.972 171.223 221.8 170.308 221.782C169.399 221.765 168.49 221.761 167.583 221.724C166.564 221.683 165.593 221.55 164.609 221.284C164.446 221.24 164.291 221.192 164.15 221.131C163.159 222.754 161.475 223.99 159.753 224.71C158.373 225.287 156.928 225.682 155.48 226.048L154.968 226.177C153.416 226.564 151.64 226.747 150.765 228.247L150.561 228.595C149.91 229.701 149.286 230.673 148.208 231.466C147.049 232.32 145.675 232.857 144.306 233.275C142.905 233.703 141.471 234.03 140.048 234.381L139.66 234.478C138.721 234.713 137.773 234.929 136.84 235.185C136.441 235.294 136.036 235.406 135.645 235.541C135.187 235.698 134.855 235.943 134.494 236.21C134.169 237.345 132.782 237.96 131.642 237.881C131.043 237.84 130.506 237.637 130.017 237.339C129.164 238.065 128.224 238.716 127.354 239.389C126.136 240.332 124.913 241.268 123.684 242.196C121.149 244.107 118.594 245.993 116.013 247.843C111.432 251.125 106.751 254.257 101.991 257.273C100.006 258.53 98.0079 259.786 95.9901 261.011L96.2055 261.091L96.6326 261.253C97.6422 261.63 98.7672 262.239 98.9629 263.417C99.1179 264.352 98.5961 264.996 97.6737 265.11C96.5774 265.246 95.7243 264.471 95.0417 263.731C94.7405 263.405 94.4033 263.102 94.1147 262.766C93.997 262.629 93.9066 262.471 93.8269 262.305C91.8356 263.479 89.8231 264.613 87.7786 265.674L87.2669 265.938C82.1971 268.531 77.2625 271.373 72.1496 273.892C70.8159 274.55 69.1898 275.261 67.4948 275.746C67.9445 277.49 67.9376 279.405 67.949 281.175C67.9598 282.9 65.2194 282.892 65.2773 281.175L65.3052 280.346C65.3551 278.952 65.4366 277.504 65.7672 276.148C60.7732 276.976 55.7842 275.176 54.8553 274.635C53.83 274.039 52.8993 273.084 52.1248 272.199C50.4674 270.304 49.3173 268.032 48.2969 265.747C46.1111 260.853 44.5625 255.621 43.4303 250.39C39.2563 231.1 41.0517 210.455 47.8302 191.965C49.5237 187.345 51.5231 182.827 53.8143 178.473L54.0988 177.934C56.3852 173.628 58.9263 169.339 62.1541 165.674C65.5162 161.857 69.6636 158.889 74.1793 156.585C76.383 155.46 78.6505 154.486 80.9681 153.622C81.3404 153.483 81.7152 153.359 82.0908 153.24C84.506 151.7 87.4372 150.226 90.3693 150.284C90.5686 150.288 90.73 150.364 90.8504 150.478C90.9917 150.502 91.1331 150.532 91.2746 150.573C91.5871 150.664 91.9171 151.007 91.8723 151.359L91.8571 151.476C91.8488 151.533 91.8384 151.588 91.8205 151.642C91.9253 151.658 92.0282 151.683 92.129 151.717C94.9344 150.925 97.6946 149.712 100.432 148.735L101.056 148.514C103.349 147.711 105.701 146.923 107.582 145.332C109.453 143.749 110.86 141.7 111.877 139.484C113.13 136.753 113.692 133.796 114.721 130.993ZM170.888 274.99C171.444 274.577 172.101 275.056 172.308 275.568C172.991 277.247 172.654 279.857 171.692 281.341C170.695 282.88 168.309 282.272 168.251 280.409C168.191 278.466 169.32 276.158 170.888 274.99ZM176.626 228.622C176.676 228.404 177.015 228.406 177.065 228.622C177.528 230.593 177.517 232.715 177.653 234.735L177.669 234.959C177.831 237.187 177.968 239.421 178.066 241.652C178.258 246.043 178.487 250.434 178.743 254.822C178.871 256.997 179.007 259.173 179.153 261.348C179.609 261.093 180.078 260.87 180.565 260.673C181.294 260.378 182.004 260.344 182.788 260.352C183.742 260.362 184.461 261.202 184.334 262.137C184.197 263.156 183.3 263.592 182.369 263.447C181.338 263.285 180.303 263.035 179.262 262.932C179.378 264.613 179.498 266.294 179.625 267.974C179.793 270.199 180.013 272.42 180.167 274.646C180.182 274.858 180.198 275.07 180.214 275.284C180.835 274.961 181.494 274.796 182.241 274.592L182.435 274.537C183.52 274.226 184.68 273.795 185.684 274.525C186.359 275.015 186.494 275.822 185.935 276.469C185.087 277.451 183.833 277.261 182.662 277.211L182.032 277.188C181.439 277.164 180.891 277.126 180.342 276.976C180.443 278.426 180.496 279.881 180.318 281.31C180.222 282.082 179.206 282.284 178.937 281.497C178.235 279.438 178.09 277.218 177.833 275.062C177.593 273.049 177.447 271.021 177.289 268.998L177.242 268.391C176.888 263.942 176.605 259.49 176.399 255.031C176.192 250.572 176.068 246.115 176.018 241.652C175.996 239.626 176.029 237.593 176.108 235.567L176.134 234.959C176.225 232.875 176.161 230.664 176.626 228.622ZM83.7897 275.319C83.8167 275.034 84.0447 274.68 84.3837 274.724C84.6962 274.765 85.0182 274.745 85.3273 274.797C85.7352 274.865 86.0635 275.106 86.443 275.257C87.0597 275.504 87.7319 275.632 88.3647 275.833C89.5518 276.212 90.1987 277.462 89.7071 278.63C89.1901 279.857 87.891 280.136 86.7685 279.621C85.8838 279.215 85.2243 278.566 84.6294 277.815L84.4608 277.601C84.2044 277.278 83.9135 276.919 83.8059 276.528C83.7013 276.147 83.7529 275.706 83.7897 275.319ZM141.465 269.549C142.944 269.34 144.207 269.846 145.575 270.323L145.686 270.361C147.079 270.842 149.11 271.175 149.824 272.601C150.255 273.461 149.92 274.602 148.907 274.857C147.302 275.259 145.863 274.086 144.536 273.296L144.467 273.255C143.186 272.504 141.864 271.874 141.046 270.579C140.828 270.234 141.017 269.612 141.465 269.549ZM89.8487 151.913C89.2563 152.045 88.6639 152.163 88.0721 152.276C85.8211 153.483 83.6362 154.735 81.312 155.81C78.8461 156.951 76.3893 158.13 74.0469 159.51C69.3148 162.299 65.4137 165.925 62.1902 170.369C56.622 178.047 52.4801 186.9 49.5158 195.884C48.7542 198.192 48.0726 200.526 47.4697 202.879C48.5357 201.893 49.7978 201.287 51.2131 200.767C51.8129 200.547 52.5595 200.92 52.8636 201.439C53.0002 201.673 53.0774 201.903 53.0632 202.177C53.0317 202.781 52.6388 203.467 51.9902 203.587C50.4781 203.866 49.0079 204.408 47.55 204.886C47.329 204.959 47.139 204.931 46.9874 204.846C45.54 210.979 44.6345 217.238 44.3138 223.535C44.0425 228.867 44.2098 234.239 44.8001 239.563C45.2537 239.359 45.6974 239.168 46.1947 239.052C46.8397 238.902 47.4741 238.719 48.1033 238.513C49.9189 237.917 50.7471 240.916 48.8913 241.373C48.2007 241.543 47.5058 241.684 46.8021 241.788C46.1888 241.878 45.6462 241.838 45.068 241.744C45.5097 245.065 46.1131 248.362 46.8817 251.613L47.0513 252.324C48.0497 256.475 49.2133 260.666 50.896 264.589C51.7214 266.513 52.8143 268.341 54.1637 269.946C54.8267 270.735 55.5625 271.411 56.3649 272.052C57.0329 272.585 59.3037 273.743 61.993 273.743C64.6824 273.743 65.4105 273.488 66.7673 273.021C69.4506 272.097 71.9983 270.622 74.5147 269.308L74.775 269.173C75.8877 268.597 76.9962 268.013 78.1018 267.423C77.9621 266.295 78.2066 265.348 78.7939 264.307C79.4288 263.18 81.0018 263.741 81.1188 264.894L81.1225 264.938C81.1402 265.197 81.1838 265.462 81.2379 265.726C88.6303 261.675 95.8662 257.34 102.987 252.824C107.574 249.914 112.112 246.917 116.584 243.833C118.819 242.291 121.035 240.722 123.229 239.121C124.378 238.283 125.522 237.438 126.661 236.585C127.135 236.23 127.601 235.858 128.076 235.501C127.96 235.356 127.848 235.212 127.739 235.069C125.964 232.744 124.812 229.973 124.238 227.114C123.892 225.389 123.724 223.598 123.673 221.839L123.651 221.074C123.616 219.786 123.607 218.437 123.844 217.189C123.521 217.367 123.191 217.541 122.862 217.727C121.682 218.396 120.5 219.063 119.317 219.728C116.948 221.057 114.571 222.372 112.164 223.633C107.865 225.886 103.524 228.029 99.0659 229.95L96.8965 230.886C93.1315 232.506 89.3357 234.097 85.4212 235.301C83.2132 235.98 80.9886 236.56 78.7489 237.078L79.6546 238.14C80.2688 238.86 80.2795 239.892 79.4947 240.498C78.7231 241.094 77.6879 240.845 77.1739 240.055L76.2369 238.613C76.0367 238.305 75.923 238.016 75.8586 237.712C74.8269 237.928 73.7925 238.135 72.7553 238.336L70.7946 238.71C67.9949 239.251 65.2803 240.321 62.7777 241.691C61.9078 242.167 61.6654 241.242 62.5871 240.597C65.2824 238.712 68.4263 237.646 71.6701 236.751L71.8295 236.707C73.0195 236.381 74.2075 236.041 75.3929 235.689C75.2626 235.217 75.1874 234.727 75.2024 234.188C75.2357 232.985 75.342 231.779 75.4058 230.577C75.5398 228.055 75.7107 225.542 75.9109 223.024C75.9879 222.055 76.074 221.082 76.1727 220.111C75.537 219.77 74.9888 219.317 74.28 219.095L74.1604 219.06C73.4024 218.855 73.6582 217.878 74.3315 217.795C74.9414 217.719 75.5484 217.754 76.1497 217.883C76.2429 217.903 76.331 217.926 76.415 217.951C76.5255 217.051 76.6481 216.154 76.7873 215.261C77.1555 212.903 77.416 210.418 78.1825 208.153C78.2393 207.985 78.4884 207.925 78.5807 208.101C79.6958 210.223 79.7346 212.826 79.8602 215.189L79.8758 215.471C80.0239 218.049 80.0324 220.652 79.9846 223.234C79.9356 225.895 79.8445 228.548 79.7252 231.206C79.6772 232.277 79.6791 233.387 79.4968 234.411C86.1323 232.253 92.6505 229.67 98.8983 226.611C103.306 224.454 107.675 222.21 111.994 219.882C114.158 218.716 116.333 217.569 118.495 216.398C119.252 215.988 120.009 215.576 120.766 215.164L121.9 214.545C122.962 213.965 123.848 213.388 125.085 213.348C125.454 213.336 125.784 213.509 126.019 213.77C126.684 213.298 127.452 213.009 128.258 213.016C129.472 211.339 130.704 209.676 131.985 208.049L132.931 206.844C134.57 204.766 136.305 202.656 138.394 201.074C139.326 200.369 140.352 199.839 141.421 199.402C141.169 199.34 140.923 199.217 140.704 199.013C139.682 198.065 139.541 196.305 139.334 194.983C139.119 193.612 139.202 192.385 139.414 191.019C139.497 190.487 140.376 190.377 140.591 190.865C141.043 191.893 141.522 192.879 141.934 193.919L142.055 194.233C142.497 195.404 143.438 196.635 143.376 197.906C143.359 198.254 143.242 198.557 143.062 198.801C143.96 198.503 144.871 198.237 145.767 197.96C148.589 197.087 151.422 196.24 154.298 195.563C155.064 195.383 155.833 195.216 156.606 195.062C157.01 193.14 157.6 191.253 158.296 189.4C157.637 189.062 157.211 188.497 156.644 187.993C156.113 187.522 155.749 186.948 155.296 186.407C154.884 185.915 155.115 185.026 155.856 185.054L156.066 185.063C156.833 185.099 157.576 185.178 158.272 185.536L158.52 185.664C158.86 185.841 159.232 186.043 159.564 186.282C159.997 185.285 160.447 184.297 160.903 183.319L161.494 182.055C163.026 178.764 164.554 175.347 166.478 172.283C167.333 170.92 168.471 170.07 170.104 169.938C171.787 169.802 173.535 169.977 175.22 170.038C177.173 170.108 179.125 170.19 181.076 170.293C180.575 169.769 180.119 169.186 179.617 168.683C178.783 167.849 177.903 167.059 176.977 166.328C175.144 164.882 173.13 163.691 171.037 162.665C168.944 161.639 166.79 160.744 164.825 159.476C163.582 158.674 162.47 157.665 161.456 156.573C160.818 163.461 157.493 169.86 152.499 174.668C147.311 179.661 140.142 182.404 133.128 183.571C125.975 184.761 118.509 184.324 111.666 181.837C108.137 180.554 104.753 178.722 101.735 176.424C101.702 176.623 101.662 176.821 101.584 177.007C101.479 177.257 101.35 177.469 101.202 177.688L100.939 178.073C100.773 178.315 100.604 178.555 100.416 178.779C99.9598 179.323 99.3135 179.561 98.6174 179.558C97.2845 179.554 96.275 178.246 96.6338 176.953C96.8592 176.141 97.3415 175.652 98.0945 175.334C98.3324 175.233 98.575 175.149 98.8189 175.066L99.0021 175.004C99.2486 174.919 99.4933 174.839 99.747 174.792C98.318 173.53 96.9921 172.158 95.8048 170.678C92.0807 166.034 88.4076 159.531 89.6526 153.364C89.6742 153.258 89.7695 153.191 89.8721 153.174C89.9444 152.741 90.1747 152.323 90.4901 152.041C90.2778 151.985 90.0638 151.942 89.8487 151.913ZM128.519 258.538C129.256 258.127 130.018 259.102 129.419 259.705L128.524 260.6C127.693 261.435 126.885 262.279 126.174 263.231L126.002 263.463C125.042 264.769 124.019 266.282 122.447 266.77C120.545 267.361 118.717 265.043 119.819 263.35C120.781 261.871 122.633 261.313 124.23 260.701C125.741 260.122 127.106 259.323 128.519 258.538ZM67.1663 251.71C67.5996 251.143 68.7294 251.442 68.4334 252.245C67.472 254.853 67.0801 258.408 64.6518 260.141C63.8684 260.699 62.6377 260.443 61.9927 259.798C61.2598 259.064 61.2305 258.032 61.6496 257.138C62.1608 256.046 63.4182 255.255 64.2995 254.424L64.3786 254.349C65.3268 253.427 66.3522 252.777 67.1663 251.71ZM168.657 254.712C169.43 254.378 171.446 253.73 172.043 254.497C172.071 254.525 172.095 254.556 172.114 254.59C172.261 254.845 172.283 255.204 172.114 255.457C171.418 256.503 170.693 257.284 169.704 258.029L169.593 258.112C168.515 258.904 167.503 259.835 166.19 260.192C164.37 260.688 163.099 258.409 164.377 257.078C165.407 256.006 166.979 255.449 168.343 254.851L168.657 254.712ZM95.5825 239.812C95.278 239.261 95.9 238.586 96.4633 238.931C98.0699 239.913 99.9416 240.65 101.746 241.179C102.477 241.394 103.136 242.134 103.081 242.933L103.073 243.054C103.051 243.337 103.012 243.617 102.833 243.852C102.204 244.674 101.305 244.991 100.345 244.504C98.2052 243.419 96.7404 241.905 95.5825 239.812ZM142.543 238.145C142.503 237.914 142.673 237.735 142.908 237.78C144.266 238.037 145.52 238.693 146.686 239.447C147.311 239.852 147.914 240.296 148.538 240.704C149.309 241.209 149.597 241.625 149.711 242.551C149.786 243.162 149.216 243.72 148.693 243.888C147.268 244.348 145.635 242.84 144.67 241.86L144.626 241.815C143.616 240.785 142.782 239.566 142.543 238.145ZM183.324 236.544C183.014 235.708 184.081 235.015 184.779 235.425C185.435 235.812 186.148 236.132 186.768 236.575C187.337 236.983 187.856 237.465 188.402 237.907L188.672 238.12C189.674 238.926 191.326 240.918 189.895 242.073C188.532 243.173 186.725 241.768 185.81 240.741L185.747 240.669C185.22 240.061 184.572 239.4 184.19 238.69C183.83 238.021 183.587 237.254 183.324 236.544ZM169.885 171.819C168.178 172.15 167.482 174.258 166.764 175.631C165.067 178.873 163.507 182.175 161.941 185.481C161.458 186.498 160.989 187.522 160.515 188.545C160.486 188.625 160.449 188.704 160.405 188.782C159.434 190.873 158.434 192.95 157.266 194.935C158.335 194.734 159.41 194.563 160.489 194.429C160.435 193.413 161.13 192.053 161.474 191.197L161.503 191.125C161.932 190.029 162.382 188.301 163.486 187.732C163.854 187.543 164.248 187.78 164.276 188.186C164.36 189.393 163.18 190.774 162.603 191.798C162.254 192.418 161.915 193.04 161.583 193.669C161.459 193.905 161.355 194.136 161.228 194.344C161.784 194.283 162.341 194.23 162.9 194.191L163.264 194.166C165.335 194.029 167.534 193.99 169.405 195.012C171.141 195.959 172.029 197.982 171.075 199.824C169.887 202.119 167.271 202.423 164.97 202.609C162.096 202.841 159.216 203.259 156.363 203.668C153.411 204.09 150.632 205.178 147.725 205.738C147.454 205.79 147.286 205.436 147.534 205.285C149.827 203.888 152.615 203.12 155.179 202.337L155.387 202.274C156.778 201.846 158.137 201.358 159.576 201.116C160.972 200.88 162.378 200.69 163.786 200.545L163.923 200.532C165.474 200.402 169.431 200.446 169.264 198.149C169.153 196.629 166.683 196.366 165.555 196.348C160.384 196.265 155.177 197.638 150.263 199.109L149.166 199.438C147.154 200.044 145.139 200.667 143.164 201.377C140.927 202.181 139.164 203.436 137.535 205.152C135.728 207.056 133.978 209.003 132.104 210.842C130.922 212.002 129.725 213.141 128.519 214.27C128.246 214.623 128.028 215.007 127.877 215.505C127.622 216.347 127.681 217.129 127.777 217.994C128.02 220.177 128.074 222.382 128.378 224.559C128.66 226.575 129.055 228.665 129.892 230.535C130.223 231.276 130.654 232.003 131.146 232.654L131.542 233.169C131.715 233.393 131.908 233.638 132.111 233.869C132.409 233.505 132.84 233.269 133.341 233.328C134.405 233.453 135.242 233.423 136.286 233.178C137.095 232.989 137.897 232.767 138.701 232.562C140.282 232.159 141.876 231.792 143.44 231.329L143.709 231.248C144.875 230.89 146.041 230.442 147.011 229.69C148.138 228.815 148.485 227.553 149.32 226.462C151.102 224.131 154.955 224.18 157.563 223.542C159.78 223 161.913 222.144 163.447 220.535L163.536 220.439C163.468 220.152 163.578 219.828 163.845 219.679L163.903 219.647C164.007 219.589 164.119 219.565 164.229 219.567C164.371 219.358 164.509 219.142 164.634 218.912C164.736 218.722 164.993 218.862 164.959 219.049C164.939 219.161 164.911 219.27 164.885 219.379C166.371 218.997 168.003 219.07 169.511 219.071L171.469 219.064C171.808 219.06 172.313 219.043 172.358 219.022L172.404 219.002C172.526 218.949 172.353 219.036 172.438 218.923C172.532 218.798 172.624 218.672 172.715 218.545C173.04 218.09 173.347 217.622 173.647 217.15C170.369 217.986 166.972 218.506 163.625 218.939C160.033 219.405 156.394 219.728 152.771 219.731C151.772 219.732 151.781 218.224 152.771 218.186C156.608 218.039 160.425 217.836 164.236 217.344C166.207 217.089 168.17 216.77 170.121 216.396C170.875 216.253 171.626 216.1 172.376 215.938L172.938 215.815C173.291 215.737 174.287 215.625 174.773 215.299C174.869 215.135 174.964 214.971 175.059 214.807C175.012 214.231 173.549 214.308 173.206 214.307C172.233 214.305 171.26 214.313 170.286 214.316C168.34 214.321 166.395 214.304 164.448 214.289C160.56 214.257 156.657 214.121 152.772 214.288C151.829 214.328 151.334 212.815 152.266 212.417C156.381 210.659 160.949 210.277 165.343 209.737C167.654 209.453 169.966 209.125 172.224 208.55L172.783 208.408C174.202 208.044 175.769 207.6 176.964 206.733C175.168 206.006 172.935 206.09 171.074 205.987L170.931 205.978C168.324 205.818 165.713 205.736 163.101 205.732C157.757 205.725 152.412 205.914 147.074 206.168C146.94 206.174 146.912 205.962 147.043 205.934C152.529 204.737 158.105 204.16 163.72 204.071C166.334 204.029 168.951 204.066 171.563 204.182L172.522 204.226C174.749 204.322 177.221 204.348 179.085 205.694C179.369 205.899 179.519 206.161 179.542 206.438C182.042 201.454 184.35 196.365 186.668 191.311C188.47 187.38 190.205 183.417 192.072 179.517L192.677 178.256C193.487 176.572 194.316 174.889 195.237 173.267C191.793 172.806 188.33 172.486 184.865 172.242C181.707 172.018 171.405 171.524 169.885 171.819ZM168.36 225.839C168.753 225.62 169.355 225.798 169.451 226.283C169.523 226.644 169.646 227.044 169.646 227.413C169.646 227.855 169.488 228.336 169.404 228.768C169.21 229.763 168.972 230.571 168.466 231.457C168.15 232.011 167.511 232.388 166.869 232.373C166.361 232.361 165.911 232.225 165.562 231.831C165.144 231.36 164.857 230.666 165.086 230.031C165.687 228.368 166.79 226.711 168.36 225.839ZM85.0577 224.179C85.9767 222.569 88.1551 221.13 90.056 221.272C92.9105 221.486 93.4929 225.331 90.7293 226.249C89.0774 226.797 86.8048 226.234 85.3598 225.331C84.9702 225.088 84.8274 224.583 85.0577 224.179ZM55.7215 218.678C55.5127 218.375 55.8577 218.028 56.1687 218.096C56.8585 218.248 57.6022 218.314 58.2778 218.52C58.9697 218.73 59.6394 219.079 60.3248 219.319C61.7606 219.823 63.2941 220.075 64.6837 220.682C65.2391 220.925 65.676 221.73 65.6246 222.323L65.6115 222.462C65.5808 222.756 65.5298 223.013 65.3652 223.282C64.923 224.005 64.0469 224.378 63.22 224.156C61.686 223.743 60.187 222.684 58.8791 221.805L58.6374 221.644C58.0659 221.267 57.4515 220.873 56.991 220.389C56.5103 219.883 56.1153 219.251 55.7215 218.678ZM108.453 212.822C108.276 212.185 109.068 211.765 109.529 212.195C110.45 213.054 111.414 213.85 112.316 214.731L112.377 214.791C113.023 215.441 113.964 216.693 113.123 217.533C112.046 218.611 110.546 217.012 109.968 216.179C109.236 215.122 108.796 214.057 108.453 212.822ZM178.975 207.562C177.608 209.01 175.502 209.676 173.647 210.228C171.448 210.882 169.183 211.272 166.915 211.594C164.723 211.904 162.549 212.181 160.392 212.538C162.024 212.558 163.655 212.57 165.282 212.599C167.16 212.633 169.036 212.674 170.912 212.728C172.279 212.768 173.882 212.581 175.181 213.089C175.415 213.18 175.634 213.307 175.825 213.461C176.916 211.519 177.963 209.55 178.975 207.562ZM94.6498 194.016C96.0767 193.562 97.4185 192.96 98.9312 193.117C99.3332 193.158 99.6212 193.55 99.4017 193.936C98.6848 195.198 97.5191 195.911 96.3716 196.755L96.2705 196.83C95.0145 197.764 93.6659 198.616 92.3001 199.383C89.9485 200.703 87.8411 196.925 90.2159 195.816C91.645 195.149 93.146 194.494 94.6498 194.016ZM120.34 190.735C122.523 190.879 124.705 190.977 126.89 191.065C129.422 191.167 128.571 195.065 126.456 194.276C124.367 193.497 122.277 192.727 120.169 192C119.527 191.779 119.579 190.724 120.299 190.734L120.34 190.735ZM64.3484 183.801C64.9142 183.762 65.4849 183.885 66.0515 183.94L66.6544 183.999C67.8973 184.123 69.0626 184.275 70.2479 184.781C72.4349 185.715 71.2603 189.232 69.0648 189.151C67.442 189.092 66.0544 188.394 64.6842 187.583C63.4863 186.873 62.7519 185.986 61.943 184.871C61.6751 184.502 62.0484 184.089 62.4132 184.052C63.0559 183.986 63.7056 183.846 64.3484 183.801ZM173.979 176.619C173.617 178.878 172.719 180.995 171.365 182.839C170.685 183.765 169.491 183.8 168.817 182.839C167.863 181.479 168.451 179.921 169.169 178.614L169.382 178.232C169.704 177.658 170.198 176.822 170.762 176.244L170.772 176.185C171.074 173.819 174.352 174.292 173.979 176.619ZM85.683 162.121C86.2272 161.63 87.2295 161.778 87.4061 162.576C87.6533 163.693 87.8037 164.953 87.6419 166.087C87.5542 166.702 87.5212 167.392 87.2795 167.965C87.0197 168.582 86.5198 169.055 86.0489 169.519C85.1088 170.444 83.1269 170.138 82.875 168.68L82.8431 168.502C82.7164 167.812 82.5544 167.075 82.7419 166.392C82.8835 165.876 83.1999 165.35 83.4617 164.872L83.5169 164.77C84.0412 163.793 84.8586 162.863 85.683 162.121ZM162.181 164.498L162.378 164.501C163.897 164.531 166.674 164.901 166.689 166.778C166.692 167.221 166.365 167.68 165.926 167.781C165.018 167.992 164.431 167.455 163.783 166.913C163.254 166.47 162.637 166.116 161.997 165.861C161.304 165.585 161.35 164.497 162.181 164.498Z" fill="black"/>
<path fill-rule="evenodd" clip-rule="evenodd" d="M164.804 91.3172C164.02 85.0568 161.557 78.4099 158.966 72.5735C153.141 60.2336 139.804 58.5346 127.848 55.9904C116.05 54.2721 103.557 52.7206 91.9366 56.1489C85.404 57.7499 82.8525 65.5331 83.8835 71.6751C84.4718 75.5025 86.2133 79.1248 87.6983 82.6719C90.6499 89.9563 92.5226 97.7549 92.5258 105.642C92.3232 110.796 91.596 116.678 97.5166 118.861C103.15 121.664 103.626 129.262 110.681 133.572C113.533 139.353 121.304 139.861 126.896 141.202C130.431 141.879 134.005 142.377 137.59 142.699C147.969 144.029 156.271 141.021 161.704 131.772C165.34 126.143 168.047 119.643 167.379 112.821C166.712 105.637 165.603 98.4913 164.804 91.3172Z" fill="white"/>
<path fill-rule="evenodd" clip-rule="evenodd" d="M127.938 40.9933C128.53 40.3216 129.443 40.552 129.997 41.0831C130.357 41.1894 130.707 41.3475 131.037 41.5568C131.783 41.461 132.564 41.461 133.296 41.4879C133.473 41.3883 133.664 41.2998 133.871 41.2237C135.349 40.6828 136.659 40.9576 137.739 41.6817C138.26 41.1892 138.916 40.8802 139.755 40.9269C140.504 40.9688 141.038 41.3213 141.495 41.7857C141.951 41.1277 142.689 40.6583 143.607 40.593C144.891 40.5017 146.125 41.0168 147.148 41.8142C147.744 41.1303 148.557 40.7371 149.462 40.7333C150.058 40.6251 150.687 40.6678 151.255 40.8394C152.08 41.0886 152.804 41.5555 153.381 42.1614C154.293 41.2873 155.41 40.6583 156.698 40.75C158.365 40.8705 159.747 42.0966 160.389 43.6056C161.517 44.0577 162.559 44.7025 163.429 45.6219C163.475 45.6703 163.52 45.721 163.566 45.7719C164.035 45.945 164.477 46.1904 164.866 46.5136C166.097 47.5388 166.372 49.0225 165.964 50.4764C166.021 50.7091 166.07 50.9458 166.114 51.1823C167.268 51.3577 168.316 52.0237 168.911 53.1079C169.727 54.5958 169.566 56.5569 168.683 57.9774C168.304 58.5884 167.822 59.1033 167.28 59.5535C167.892 60.9441 167.599 62.6037 166.612 63.7285C166.372 64.1163 166.076 64.4663 165.744 64.7831C166.111 66.2209 165.459 67.7044 164.157 68.4726L164.046 68.7514C164.027 68.7977 164.008 68.8438 163.989 68.8894C163.974 68.9486 163.957 69.0059 163.939 69.0636C163.908 69.5738 163.74 70.0745 163.407 70.5462C162.724 71.513 161.878 72.1434 161.43 73.272L161.385 73.3906C161.192 73.9246 160.569 74.3015 160.038 74.1366C162.985 80.1899 164.53 86.9254 165.59 93.5263C166.119 96.8194 166.527 100.124 166.858 103.441L167.183 106.744C167.468 109.68 167.722 112.626 167.724 115.572C167.728 122.236 165.823 128.646 161.733 133.949C157.864 138.962 152.39 142.596 146.206 144.026C139.822 145.502 132.333 144.92 126.607 141.543C124.919 140.55 126.398 138.161 128.116 138.961C131.367 140.474 134.671 141.598 138.275 141.85C141.789 142.097 145.311 141.657 148.642 140.507C154.154 138.603 158.844 134.615 161.859 129.648C163.344 127.201 164.42 124.544 164.992 121.737C165.705 118.239 165.598 114.623 165.336 111.08L165.318 110.838C164.8 104.011 164.118 97.1425 163.015 90.3838C162.04 84.407 160.541 78.5513 158.595 72.8252C157.833 72.1539 156.98 71.5985 156.068 71.1767C149.386 70.8975 142.692 70.979 136.019 71.4402C130.328 71.8361 124.664 72.5058 119.044 73.482L118.442 73.5877C117.197 73.8094 115.816 73.9363 114.643 74.4374C113.637 74.8685 113.23 75.697 112.976 76.7155C112.338 79.2919 112.241 82.1115 112.133 84.7534C112.028 87.3359 112.266 89.9399 112.059 92.5139C111.884 94.6676 111.333 96.872 109.737 98.4299C108.903 99.2455 107.876 99.6914 106.913 100.311C106.29 100.71 106.025 101.122 106.106 101.862C106.279 103.481 107.583 105.52 106.118 106.907C105.861 107.15 105.415 107.182 105.161 106.907C104.557 106.25 103.723 105.749 103.006 105.218C102.706 104.999 102.956 104.572 103.296 104.724C103.744 104.925 104.2 105.161 104.667 105.368C103.636 104.519 102.17 104.102 100.949 103.855C100.334 103.732 99.6875 103.696 99.0473 103.754C98.5741 103.98 98.0903 104.189 97.6065 104.394C96.9917 104.652 96.3706 104.886 95.7452 105.109C93.5755 106.877 92.5403 109.754 92.9924 112.567C93.2396 114.12 93.9558 115.809 95.3058 116.716C96.9051 117.79 99.0473 117.329 100.775 118.126C102.394 118.871 103.378 120.379 104.116 121.938L104.423 122.588C105.107 124.026 105.811 125.425 106.746 126.734C107.828 128.249 109.152 129.61 110.597 130.779C111.298 131.345 112.046 131.854 112.818 132.317L113.029 132.442C113.811 132.901 114.371 133.338 114.423 134.308C114.44 134.647 114.227 134.955 113.952 135.131C112.769 135.881 111.592 134.943 110.608 134.287C109.545 133.581 108.529 132.787 107.589 131.92C105.802 130.276 104.255 128.323 103.066 126.203C102.159 124.589 101.644 122.317 100.211 121.065C99.3368 120.302 98.1008 120.296 97.0086 120.156C95.9924 120.026 95.0311 119.814 94.1269 119.313C90.4487 117.27 89.4093 112.322 90.2818 108.499C90.4297 107.854 90.6368 107.226 90.8924 106.622C89.5234 106.85 87.9853 105.434 88.541 104.005C88.5832 103.897 88.6318 103.796 88.6783 103.692C87.7762 103.098 87.0642 102.198 86.7262 101.021C86.5529 100.412 86.5276 99.7971 86.6184 99.2032C86.1811 98.9096 85.8199 98.5057 85.5875 98.0091C84.8607 97.673 84.2163 97.1702 83.8318 96.4516C83.2994 95.4602 83.367 94.5471 83.7727 93.725C83.7156 93.6216 83.6607 93.516 83.6079 93.408C82.1184 92.4634 81.079 90.8358 81.1973 89.0309C81.2353 88.4328 81.3832 87.8938 81.6114 87.4079C81.5924 87.3466 81.5734 87.283 81.5565 87.2217C80.31 86.5877 79.279 85.5459 78.9114 84.1553C78.5438 82.7559 78.9769 81.361 79.8431 80.2873C78.5755 79.3597 77.8128 78.0641 78.2755 76.1047C78.4635 75.3081 78.8417 74.583 79.353 73.9722C79.3508 73.9534 79.3466 73.9344 79.3424 73.9151L79.2238 73.8231C77.6589 72.5878 76.7594 71.0135 77.7199 69.0773C78.1508 68.2068 78.7656 67.6 79.4882 67.2005L79.5241 67.0864V67.0864C79.0065 65.9768 78.8311 64.7446 79.1882 63.4491C79.4797 62.382 80.1706 61.5321 81.0537 60.968C80.9945 60.4902 81.003 59.981 81.098 59.4292C81.2565 58.4973 81.7191 57.6836 82.3952 57.1066C82.4206 56.9839 82.4522 56.8636 82.4882 56.7429C82.7163 56.0055 83.1431 55.2045 83.6375 54.6104C84.0452 54.1179 84.5015 53.9383 85.0593 53.9193C85.0255 53.4651 85.0487 53.0041 85.1417 52.537C85.4269 51.0958 86.3438 49.7409 87.7022 49.1259C88.26 48.8743 88.8473 48.8006 89.4135 48.8617C89.8952 47.8472 90.8353 47.1119 91.991 46.9534C92.441 46.89 92.8593 46.894 93.2438 46.9513C93.4614 46.8496 93.6875 46.7589 93.9241 46.6763C94.0804 46.6214 94.2389 46.5706 94.3973 46.5201C94.9318 45.8565 95.6353 45.3258 96.4572 45.0068C97.4058 44.637 98.3713 44.6748 99.2269 44.9855L99.4994 44.9284V44.9284C99.9262 44.1887 100.606 43.6159 101.652 43.356C102.84 43.0622 104.059 43.4722 104.992 44.2185C104.997 44.2185 105.001 44.2185 105.007 44.2162C105.495 43.1235 106.33 42.3626 107.73 42.4155C108.603 42.4493 109.391 42.8828 109.999 43.4999C110.337 43.4574 110.675 43.4194 111.016 43.3816C111.375 42.9608 111.774 42.5679 112.216 42.2149C112.938 41.6356 113.878 41.6823 114.411 42.4979C114.527 42.6754 114.635 42.8551 114.742 43.0347L115.23 43.0009V43.0009C115.805 42.2253 116.589 41.7011 117.662 41.6591C118.647 41.6187 119.348 42.1008 119.883 42.7748C120.318 42.7642 120.755 42.756 121.192 42.7494C121.702 42.1597 122.302 41.6398 122.986 41.2087C123.51 40.879 124.283 40.9912 124.708 41.4308C124.995 41.7296 125.262 42.0416 125.51 42.3645C126.15 41.6468 127.014 41.174 127.938 40.9933ZM96.8438 108.108C97.8304 107.545 99.1572 108.154 100.112 108.632C101.276 109.213 102.432 110.09 103.144 111.189C104.114 112.685 101.834 113.894 100.814 112.552C100.186 111.726 99.6854 110.893 98.9248 110.17C98.2297 109.507 97.222 109.063 96.8227 108.188C96.8079 108.158 96.8121 108.124 96.8438 108.108ZM97.5375 71.7868L97.5559 71.734C97.8365 70.9662 96.612 70.6352 96.3338 71.3967C95.9121 72.5509 96.3982 73.8056 97.5378 74.304C97.8536 74.4422 98.2145 74.3943 98.4048 74.0766C98.5647 73.8092 98.4906 73.346 98.1775 73.2092C97.5363 72.9287 97.3215 72.4336 97.5375 71.7868V71.7868ZM86.9873 69.6398C87.6002 69.0987 86.7008 68.2045 86.0909 68.7432C85.5217 69.2458 85.0996 69.9285 85.2092 70.7136C85.321 71.5138 85.9242 72.0787 86.5844 72.478C87.2841 72.9013 87.9219 71.8053 87.2241 71.383L87.1457 71.335C86.8528 71.153 86.51 70.9028 86.4604 70.5448C86.4078 70.1643 86.7295 69.8674 86.9873 69.6398ZM90.4677 60.0927L90.5111 60.0607C91.1694 59.5907 90.5371 58.4904 89.8712 58.9657C89.2606 59.4017 88.7709 59.9682 88.7193 60.7493C88.6693 61.5085 89.0555 62.1666 89.5604 62.7007C90.1222 63.2948 91.0175 62.397 90.4568 61.8042C89.9105 61.2264 89.8037 60.5959 90.4677 60.0927V60.0927Z" fill="black"/>
<path fill-rule="evenodd" clip-rule="evenodd" d="M150.577 122.332C150.724 122.292 150.853 122.489 150.732 122.597C150.234 123.038 149.919 123.861 149.556 124.422C149.21 124.955 148.878 125.483 148.574 126.041C148.234 126.667 147.905 127.291 147.64 127.953L147.588 128.086V128.086C147.667 128.275 147.729 128.462 147.775 128.584L147.788 128.619C148.24 129.775 147.291 131.059 146.219 131.383C144.387 131.935 142.814 130.43 142.771 128.639C142.736 127.231 143.691 125.976 144.66 125.045C145.509 124.231 146.458 123.538 147.521 123.03C147.99 122.806 148.477 122.619 148.986 122.51C149.506 122.399 150.068 122.47 150.577 122.332ZM147.124 127.436C147.259 127.499 147.373 127.654 147.47 127.835C147.422 127.682 147.322 127.529 147.124 127.436ZM148.271 107.866C149.866 108.836 152.297 111.098 150.581 113.503C148.561 115.624 145.652 113.193 144.219 112.093C142.89 111.241 141.396 113.433 142.629 114.428C152.987 122.099 157.19 108.12 149.078 106.726C148.184 106.572 147.853 107.566 148.271 107.866ZM135.156 98.551L135.438 98.5274C136.661 98.4196 137.899 98.2553 139.105 98.532C140.724 98.904 140.606 101.261 139.105 101.695C137.782 102.077 136.316 101.912 134.95 101.925C134.735 101.927 134.521 101.932 134.306 101.936C134.264 102.447 134.096 102.887 133.84 103.327C133.656 103.643 133.422 103.943 133.191 104.223C132.642 104.89 131.349 104.875 130.795 104.223C130.386 103.741 130.06 103.186 130.055 102.533C130.053 102.366 130.074 102.189 130.114 102.014L129.368 102.027C127.544 102.055 125.706 102.043 123.914 101.753C123.277 101.884 122.756 100.734 123.635 100.39C126.026 99.4546 128.697 99.1792 131.234 98.8983C132.538 98.7537 133.849 98.6542 135.156 98.551ZM155.525 97.5844L155.59 97.5779C157.172 97.4158 158.916 97.1351 160.502 97.2966C162.869 97.5373 162.865 100.738 160.502 100.978C159.634 101.066 158.72 101.023 157.809 100.939C158.275 101.928 157.722 103.108 156.6 103.259C155.557 103.4 154.475 102.386 154.818 101.298L154.834 101.25C154.9 101.061 154.96 100.85 155.032 100.642L154.654 100.61C153.526 100.51 151.96 100.307 151.544 99.4154C151.419 99.1467 151.448 98.8973 151.641 98.6678C152.432 97.726 154.382 97.695 155.525 97.5844V97.5844ZM138.7 90.2552C139.846 89.839 141.036 90.8129 141.184 91.9104C141.355 93.1752 140.443 94.0079 139.287 94.159L139.229 94.166C136.678 94.4471 134.146 94.9611 131.592 95.2517C130.431 95.3835 129.262 95.4702 128.094 95.5014L127.26 95.5202C126.237 95.5461 125.14 95.5694 124.195 95.217L124.199 95.2107V95.2107C123.948 95.138 123.833 94.7762 124.112 94.5783C125.117 93.8671 126.473 93.5983 127.643 93.2603C128.82 92.9203 130.005 92.6068 131.194 92.3124C133.69 91.6949 136.282 91.1339 138.7 90.2552ZM149.262 90.5508C149.565 88.9507 151.831 88.7791 152.663 89.9434C153.201 90.1281 153.989 90.3209 154.478 90.4659C155.33 90.7184 156.182 90.9695 157.036 91.2128C158.804 91.7166 160.529 92.3553 162.268 92.9507C162.447 93.0122 162.398 93.2396 162.226 93.2622C159.799 93.5781 157.413 93.7252 154.972 93.6239L154.472 93.6013C152.321 93.5175 148.669 93.6774 149.262 90.5508Z" fill="black"/>
<path fill-rule="evenodd" clip-rule="evenodd" d="M152.745 131.525C150.777 129.772 148.572 126.246 145.745 129.036C145.046 129.824 144.763 131.591 143.694 131.937C142.274 132.398 140.867 130.895 140.383 129.741C138.404 123.33 146.587 121.571 151.249 122.607C153.526 123.543 155.204 127.309 155.305 129.274C155.371 130.595 154.253 132.538 152.745 131.525M167.588 121.643C167.569 121.557 167.542 121.481 167.51 121.411C166.64 121.082 165.951 121.417 165.526 122.044C165.54 122.2 165.586 122.358 165.615 122.512C165.287 123.204 164.991 124.06 164.546 124.658C164.458 124.665 164.367 124.656 164.28 124.63C156.904 125.401 160.505 117.68 153.024 115.763C147.24 114.808 136.788 115.902 134.06 121.923C131.909 131.541 120.969 124.84 117.377 119.838C113.544 115.285 111.066 109.722 108.676 104.325C108.171 103.182 106.596 103.999 106.767 105.095C104.558 109.527 104.632 114.851 104.085 119.707C103.154 129.394 102.248 142.979 111.245 148.894C122.968 162.15 152.241 166.827 165.761 154.648C170.442 144.581 169.865 132.3 167.588 121.643" fill="black"/>
</g>
<defs>
<clipPath id="clip0_81_21002">
<rect width="240" height="275" fill="white"/>
</clipPath>
</defs>
</svg>
