<svg width="443" height="96" viewBox="0 0 443 96" fill="none" xmlns="http://www.w3.org/2000/svg">
<path d="M59.7977 0.7395H44.8009V45.5557H44.1746L13.4157 0.7395H0.193539V72H15.2598V27.149H15.7818L46.7843 72H59.7977V0.7395ZM70.286 72H85.3523V42.5633H114.337V30.1414H85.3523V13.1614H117.468V0.7395H70.286V72ZM122.929 13.1614H144.745V72H159.638V13.1614H181.454V0.7395H122.929V13.1614ZM201.306 72L202.383 66.8069H203.755C205.846 66.8069 207.74 66.4803 209.438 65.8271C211.137 65.1085 212.247 63.4755 212.77 60.9279L222.96 12.8182C223.221 11.9036 223.352 11.1524 223.352 10.5645C223.352 9.12745 222.699 8.21294 221.392 7.82101C220.086 7.42908 218.387 7.23311 216.297 7.23311H215.023L216.101 2.04H247.456C256.797 2.04 264.08 4.32628 269.306 8.89882C274.532 13.4061 277.145 20.0036 277.145 28.6914C277.145 34.5051 276.23 40.0248 274.401 45.2506C272.637 50.4764 269.992 55.1142 266.464 59.1642C262.937 63.1489 258.593 66.2843 253.433 68.5706C248.338 70.8569 242.459 72 235.796 72H201.306ZM231.582 65.925C237.723 65.925 242.948 64.3247 247.26 61.1239C251.571 57.8578 254.87 53.3832 257.156 47.7002C259.508 41.9518 260.683 35.3543 260.683 27.9076C260.683 21.0487 259.116 16.0189 255.98 12.8182C252.91 9.61737 248.762 8.01697 243.536 8.01697H239.421L227.173 65.925H231.582ZM288.861 32.6108C288.992 32.0882 289.123 31.3696 289.253 30.4551C289.384 29.5406 289.449 28.7568 289.449 28.1035C289.449 26.8624 289.057 25.9806 288.273 25.458C287.49 24.9354 286.15 24.6741 284.256 24.6741H282.492L283.374 19.481H305.028L302.971 32.9047H303.461C304.963 29.7692 306.498 27.1237 308.066 24.9681C309.634 22.8124 311.43 21.212 313.455 20.1669C315.545 19.0564 318.126 18.5012 321.196 18.5012C328.055 18.5012 331.484 21.0487 331.484 26.1439C331.484 29.5406 330.471 32.0882 328.446 33.7866C326.487 35.4196 323.645 36.2361 319.922 36.2361C319.922 33.2313 319.595 30.8797 318.942 29.1813C318.289 27.4176 317.015 26.5358 315.121 26.5358C313.749 26.5358 312.279 27.3523 310.712 28.9854C309.144 30.5531 307.609 32.7087 306.106 35.4523C304.669 38.1305 303.33 41.168 302.089 44.5647C300.848 47.9615 299.835 51.4562 299.052 55.0489L295.328 72H280.533L288.861 32.6108ZM351.693 72.9798C345.553 72.9798 340.556 71.2815 336.702 67.8847C332.848 64.488 330.921 59.3275 330.921 52.4034C330.921 48.7453 331.574 44.9566 332.88 41.0373C334.187 37.0527 336.146 33.362 338.759 29.9652C341.372 26.5685 344.704 23.8249 348.753 21.7346C352.803 19.579 357.572 18.5012 363.059 18.5012C366.848 18.5012 370.277 19.2197 373.347 20.6568C376.417 22.0286 378.867 24.2169 380.696 27.2217C382.59 30.2265 383.538 34.1785 383.538 39.0776C383.538 42.605 382.917 46.3284 381.676 50.2477C380.435 54.1671 378.508 57.8578 375.895 61.3198C373.347 64.7819 370.049 67.5908 365.999 69.7464C362.014 71.902 357.245 72.9798 351.693 72.9798ZM353.457 65.925C355.547 65.925 357.409 65.2392 359.042 63.8674C360.675 62.4956 362.079 60.6666 363.255 58.3803C364.496 56.0941 365.509 53.6118 366.292 50.9336C367.076 48.2554 367.664 45.6099 368.056 42.997C368.448 40.3841 368.644 38.0325 368.644 35.9422C368.644 32.0882 367.958 29.312 366.586 27.6136C365.28 25.9152 363.484 25.0661 361.197 25.0661C358.715 25.0661 356.494 26.0785 354.534 28.1035C352.64 30.1285 351.04 32.7087 349.733 35.8442C348.492 38.9143 347.545 42.1478 346.892 45.5445C346.239 48.9413 345.912 52.0114 345.912 54.755C345.912 58.7396 346.565 61.6138 347.872 63.3775C349.243 65.0759 351.105 65.925 353.457 65.925ZM395.997 33.0027C396.193 32.1535 396.357 31.3043 396.487 30.4551C396.618 29.6059 396.683 29.0507 396.683 28.7894C396.683 27.0257 396.291 25.9152 395.508 25.458C394.724 24.9354 393.385 24.6741 391.49 24.6741H389.727L390.608 19.481H411.675L409.127 32.5128H409.813C411.315 29.7692 412.883 27.3523 414.516 25.262C416.149 23.1064 418.076 21.4407 420.297 20.2649C422.518 19.0891 425.229 18.5012 428.43 18.5012C432.741 18.5012 436.203 20.0363 438.816 23.1064C441.429 26.1112 442.735 30.4878 442.735 36.2361C442.735 39.045 442.311 42.1151 441.462 45.4466C440.678 48.7127 439.469 51.9788 437.836 55.2449C436.269 58.511 434.276 61.4831 431.859 64.1613C429.442 66.8396 426.601 68.9952 423.335 70.6282C420.069 72.196 416.411 72.9798 412.361 72.9798C410.401 72.9798 408.572 72.7512 406.874 72.2939C405.175 71.902 403.673 71.3794 402.366 70.7262C402.301 71.2488 402.203 71.9673 402.072 72.8818C401.942 73.7964 401.778 74.6455 401.582 75.4294L400.211 81.9943C400.015 82.8435 399.851 83.6927 399.721 84.5418C399.59 85.391 399.525 85.9463 399.525 86.2076C399.525 87.9713 399.917 89.0817 400.701 89.539C401.55 90.0616 402.889 90.3229 404.718 90.3229H408.441L407.559 95.516H382.672L395.997 33.0027ZM411.283 66.7089C413.961 66.7089 416.313 65.6964 418.338 63.6714C420.428 61.6464 422.159 59.0989 423.531 56.0287C424.968 52.8933 426.046 49.6272 426.764 46.2304C427.548 42.7683 427.94 39.6655 427.94 36.922C427.94 35.1583 427.777 33.4599 427.45 31.8269C427.189 30.1938 426.666 28.8874 425.882 27.9076C425.098 26.8624 424.021 26.3398 422.649 26.3398C421.016 26.3398 419.415 27.0257 417.848 28.3975C416.28 29.7039 414.81 31.4023 413.438 33.4926C412.132 35.5176 410.989 37.7059 410.009 40.0575C409.095 42.3438 408.441 44.4667 408.049 46.4264L404.326 63.9654C404.914 64.5533 405.828 65.1738 407.07 65.8271C408.376 66.415 409.78 66.7089 411.283 66.7089Z" fill="black"/>
</svg>
